%TF.GenerationSoftware,KiCad,Pcbnew,7.0.7*%
%TF.CreationDate,2023-11-27T02:20:34+00:00*%
%TF.ProjectId,Lynx-MK1-MEM,4c796e78-2d4d-44b3-912d-4d454d2e6b69,rev?*%
%TF.SameCoordinates,Original*%
%TF.FileFunction,Drillmap*%
%TF.FilePolarity,Positive*%
%FSLAX45Y45*%
G04 Gerber Fmt 4.5, Leading zero omitted, Abs format (unit mm)*
G04 Created by KiCad (PCBNEW 7.0.7) date 2023-11-27 02:20:34*
%MOMM*%
%LPD*%
G01*
G04 APERTURE LIST*
%ADD10C,0.100000*%
%ADD11C,0.200000*%
G04 APERTURE END LIST*
D10*
X7556500Y-5918200D02*
X13804900Y-5918200D01*
X13804900Y-14490700D01*
X7556500Y-14490700D01*
X7556500Y-5918200D01*
D11*
X7812277Y-14807184D02*
X7812277Y-14607184D01*
X7812277Y-14607184D02*
X7859896Y-14607184D01*
X7859896Y-14607184D02*
X7888467Y-14616708D01*
X7888467Y-14616708D02*
X7907515Y-14635755D01*
X7907515Y-14635755D02*
X7917039Y-14654803D01*
X7917039Y-14654803D02*
X7926562Y-14692898D01*
X7926562Y-14692898D02*
X7926562Y-14721469D01*
X7926562Y-14721469D02*
X7917039Y-14759565D01*
X7917039Y-14759565D02*
X7907515Y-14778612D01*
X7907515Y-14778612D02*
X7888467Y-14797660D01*
X7888467Y-14797660D02*
X7859896Y-14807184D01*
X7859896Y-14807184D02*
X7812277Y-14807184D01*
X8012277Y-14807184D02*
X8012277Y-14673850D01*
X8012277Y-14711946D02*
X8021801Y-14692898D01*
X8021801Y-14692898D02*
X8031324Y-14683374D01*
X8031324Y-14683374D02*
X8050372Y-14673850D01*
X8050372Y-14673850D02*
X8069420Y-14673850D01*
X8136086Y-14807184D02*
X8136086Y-14673850D01*
X8136086Y-14607184D02*
X8126562Y-14616708D01*
X8126562Y-14616708D02*
X8136086Y-14626231D01*
X8136086Y-14626231D02*
X8145610Y-14616708D01*
X8145610Y-14616708D02*
X8136086Y-14607184D01*
X8136086Y-14607184D02*
X8136086Y-14626231D01*
X8259896Y-14807184D02*
X8240848Y-14797660D01*
X8240848Y-14797660D02*
X8231324Y-14778612D01*
X8231324Y-14778612D02*
X8231324Y-14607184D01*
X8364658Y-14807184D02*
X8345610Y-14797660D01*
X8345610Y-14797660D02*
X8336086Y-14778612D01*
X8336086Y-14778612D02*
X8336086Y-14607184D01*
X8593229Y-14807184D02*
X8593229Y-14607184D01*
X8593229Y-14607184D02*
X8659896Y-14750041D01*
X8659896Y-14750041D02*
X8726563Y-14607184D01*
X8726563Y-14607184D02*
X8726563Y-14807184D01*
X8907515Y-14807184D02*
X8907515Y-14702422D01*
X8907515Y-14702422D02*
X8897991Y-14683374D01*
X8897991Y-14683374D02*
X8878944Y-14673850D01*
X8878944Y-14673850D02*
X8840848Y-14673850D01*
X8840848Y-14673850D02*
X8821801Y-14683374D01*
X8907515Y-14797660D02*
X8888467Y-14807184D01*
X8888467Y-14807184D02*
X8840848Y-14807184D01*
X8840848Y-14807184D02*
X8821801Y-14797660D01*
X8821801Y-14797660D02*
X8812277Y-14778612D01*
X8812277Y-14778612D02*
X8812277Y-14759565D01*
X8812277Y-14759565D02*
X8821801Y-14740517D01*
X8821801Y-14740517D02*
X8840848Y-14730993D01*
X8840848Y-14730993D02*
X8888467Y-14730993D01*
X8888467Y-14730993D02*
X8907515Y-14721469D01*
X9002753Y-14673850D02*
X9002753Y-14873850D01*
X9002753Y-14683374D02*
X9021801Y-14673850D01*
X9021801Y-14673850D02*
X9059896Y-14673850D01*
X9059896Y-14673850D02*
X9078944Y-14683374D01*
X9078944Y-14683374D02*
X9088467Y-14692898D01*
X9088467Y-14692898D02*
X9097991Y-14711946D01*
X9097991Y-14711946D02*
X9097991Y-14769088D01*
X9097991Y-14769088D02*
X9088467Y-14788136D01*
X9088467Y-14788136D02*
X9078944Y-14797660D01*
X9078944Y-14797660D02*
X9059896Y-14807184D01*
X9059896Y-14807184D02*
X9021801Y-14807184D01*
X9021801Y-14807184D02*
X9002753Y-14797660D01*
X9183705Y-14788136D02*
X9193229Y-14797660D01*
X9193229Y-14797660D02*
X9183705Y-14807184D01*
X9183705Y-14807184D02*
X9174182Y-14797660D01*
X9174182Y-14797660D02*
X9183705Y-14788136D01*
X9183705Y-14788136D02*
X9183705Y-14807184D01*
X9183705Y-14683374D02*
X9193229Y-14692898D01*
X9193229Y-14692898D02*
X9183705Y-14702422D01*
X9183705Y-14702422D02*
X9174182Y-14692898D01*
X9174182Y-14692898D02*
X9183705Y-14683374D01*
X9183705Y-14683374D02*
X9183705Y-14702422D01*
M02*
