%TF.GenerationSoftware,KiCad,Pcbnew,7.0.7*%
%TF.CreationDate,2023-11-11T16:10:04+00:00*%
%TF.ProjectId,Lynx-MK1-MEM,4c796e78-2d4d-44b3-912d-4d454d2e6b69,rev?*%
%TF.SameCoordinates,Original*%
%TF.FileFunction,Soldermask,Top*%
%TF.FilePolarity,Negative*%
%FSLAX46Y46*%
G04 Gerber Fmt 4.6, Leading zero omitted, Abs format (unit mm)*
G04 Created by KiCad (PCBNEW 7.0.7) date 2023-11-11 16:10:04*
%MOMM*%
%LPD*%
G01*
G04 APERTURE LIST*
%ADD10R,1.600000X1.600000*%
%ADD11O,1.600000X1.600000*%
%ADD12C,1.600000*%
%ADD13C,1.700000*%
G04 APERTURE END LIST*
D10*
%TO.C,IC1*%
X83560000Y-78580000D03*
D11*
X86100000Y-78580000D03*
X88640000Y-78580000D03*
X91180000Y-78580000D03*
X93720000Y-78580000D03*
X96260000Y-78580000D03*
X98800000Y-78580000D03*
X101340000Y-78580000D03*
X101340000Y-70960000D03*
X98800000Y-70960000D03*
X96260000Y-70960000D03*
X93720000Y-70960000D03*
X91180000Y-70960000D03*
X88640000Y-70960000D03*
X86100000Y-70960000D03*
X83560000Y-70960000D03*
%TD*%
D12*
%TO.C,C6*%
X106680000Y-123023000D03*
X106680000Y-118023000D03*
%TD*%
D13*
%TO.C,PL4*%
X81090000Y-108950000D03*
X81090000Y-101650000D03*
X83630000Y-108950000D03*
X83630000Y-101650000D03*
X86170000Y-108950000D03*
X86170000Y-101650000D03*
X88710000Y-108950000D03*
X88710000Y-101650000D03*
X91250000Y-108950000D03*
X91250000Y-101650000D03*
X93790000Y-108950000D03*
X93790000Y-101650000D03*
X96330000Y-108950000D03*
X96330000Y-101650000D03*
X98870000Y-108950000D03*
X98870000Y-101650000D03*
X101410000Y-108950000D03*
X101410000Y-101650000D03*
X103950000Y-108950000D03*
X103950000Y-101650000D03*
X106490000Y-108950000D03*
X106490000Y-101650000D03*
X109030000Y-108950000D03*
X109030000Y-101650000D03*
X111570000Y-108950000D03*
X111570000Y-101650000D03*
X114110000Y-108950000D03*
X114110000Y-101650000D03*
X116650000Y-108950000D03*
X116650000Y-101650000D03*
X119190000Y-108950000D03*
X119190000Y-101650000D03*
X121730000Y-108950000D03*
X121730000Y-101650000D03*
X124270000Y-108950000D03*
X124270000Y-101650000D03*
X126810000Y-108950000D03*
X126810000Y-101650000D03*
X129350000Y-108950000D03*
X129350000Y-101650000D03*
%TD*%
D12*
%TO.C,C7*%
X106553000Y-92543000D03*
X106553000Y-87543000D03*
%TD*%
%TO.C,C1*%
X80010000Y-138263000D03*
X80010000Y-133263000D03*
%TD*%
D10*
%TO.C,IC2*%
X111668425Y-78613000D03*
D11*
X114208425Y-78613000D03*
X116748425Y-78613000D03*
X119288425Y-78613000D03*
X121828425Y-78613000D03*
X124368425Y-78613000D03*
X126908425Y-78613000D03*
X129448425Y-78613000D03*
X129448425Y-70993000D03*
X126908425Y-70993000D03*
X124368425Y-70993000D03*
X121828425Y-70993000D03*
X119288425Y-70993000D03*
X116748425Y-70993000D03*
X114208425Y-70993000D03*
X111668425Y-70993000D03*
%TD*%
D12*
%TO.C,R6*%
X88650000Y-114050000D03*
D11*
X98810000Y-114050000D03*
%TD*%
D12*
%TO.C,C9*%
X133096000Y-133136000D03*
X133096000Y-138136000D03*
%TD*%
%TO.C,R8*%
X134767000Y-128143000D03*
D11*
X124607000Y-128143000D03*
%TD*%
D12*
%TO.C,C11*%
X133223000Y-87289000D03*
X133223000Y-92289000D03*
%TD*%
D10*
%TO.C,IC5*%
X83566000Y-124333000D03*
D11*
X86106000Y-124333000D03*
X88646000Y-124333000D03*
X91186000Y-124333000D03*
X93726000Y-124333000D03*
X96266000Y-124333000D03*
X98806000Y-124333000D03*
X101346000Y-124333000D03*
X101346000Y-116713000D03*
X98806000Y-116713000D03*
X96266000Y-116713000D03*
X93726000Y-116713000D03*
X91186000Y-116713000D03*
X88646000Y-116713000D03*
X86106000Y-116713000D03*
X83566000Y-116713000D03*
%TD*%
D12*
%TO.C,C8*%
X106553000Y-77303000D03*
X106553000Y-72303000D03*
%TD*%
%TO.C,R1*%
X90063000Y-63373000D03*
D11*
X79903000Y-63373000D03*
%TD*%
D12*
%TO.C,C12*%
X133223000Y-72176000D03*
X133223000Y-77176000D03*
%TD*%
%TO.C,C4*%
X79883000Y-77303000D03*
X79883000Y-72303000D03*
%TD*%
D10*
%TO.C,IC3*%
X83667600Y-93929200D03*
D11*
X86207600Y-93929200D03*
X88747600Y-93929200D03*
X91287600Y-93929200D03*
X93827600Y-93929200D03*
X96367600Y-93929200D03*
X98907600Y-93929200D03*
X101447600Y-93929200D03*
X101447600Y-86309200D03*
X98907600Y-86309200D03*
X96367600Y-86309200D03*
X93827600Y-86309200D03*
X91287600Y-86309200D03*
X88747600Y-86309200D03*
X86207600Y-86309200D03*
X83667600Y-86309200D03*
%TD*%
D12*
%TO.C,C3*%
X79790000Y-92590000D03*
X79790000Y-87590000D03*
%TD*%
%TO.C,C5*%
X106680000Y-138136000D03*
X106680000Y-133136000D03*
%TD*%
D10*
%TO.C,IC7*%
X83855425Y-139563000D03*
D11*
X86395425Y-139563000D03*
X88935425Y-139563000D03*
X91475425Y-139563000D03*
X94015425Y-139563000D03*
X96555425Y-139563000D03*
X99095425Y-139563000D03*
X101635425Y-139563000D03*
X101635425Y-131943000D03*
X99095425Y-131943000D03*
X96555425Y-131943000D03*
X94015425Y-131943000D03*
X91475425Y-131943000D03*
X88935425Y-131943000D03*
X86395425Y-131943000D03*
X83855425Y-131943000D03*
%TD*%
D10*
%TO.C,IC6*%
X111633000Y-124323000D03*
D11*
X114173000Y-124323000D03*
X116713000Y-124323000D03*
X119253000Y-124323000D03*
X121793000Y-124323000D03*
X124333000Y-124323000D03*
X126873000Y-124323000D03*
X129413000Y-124323000D03*
X129413000Y-116703000D03*
X126873000Y-116703000D03*
X124333000Y-116703000D03*
X121793000Y-116703000D03*
X119253000Y-116703000D03*
X116713000Y-116703000D03*
X114173000Y-116703000D03*
X111633000Y-116703000D03*
%TD*%
D12*
%TO.C,R5*%
X133350000Y-112669000D03*
D11*
X133350000Y-102509000D03*
%TD*%
D12*
%TO.C,C2*%
X79770000Y-122970000D03*
X79770000Y-117970000D03*
%TD*%
D10*
%TO.C,IC4*%
X111633000Y-93853000D03*
D11*
X114173000Y-93853000D03*
X116713000Y-93853000D03*
X119253000Y-93853000D03*
X121793000Y-93853000D03*
X124333000Y-93853000D03*
X126873000Y-93853000D03*
X129413000Y-93853000D03*
X129413000Y-86233000D03*
X126873000Y-86233000D03*
X124333000Y-86233000D03*
X121793000Y-86233000D03*
X119253000Y-86233000D03*
X116713000Y-86233000D03*
X114173000Y-86233000D03*
X111633000Y-86233000D03*
%TD*%
D10*
%TO.C,IC8*%
X111668425Y-139563000D03*
D11*
X114208425Y-139563000D03*
X116748425Y-139563000D03*
X119288425Y-139563000D03*
X121828425Y-139563000D03*
X124368425Y-139563000D03*
X126908425Y-139563000D03*
X129448425Y-139563000D03*
X129448425Y-131943000D03*
X126908425Y-131943000D03*
X124368425Y-131943000D03*
X121828425Y-131943000D03*
X119288425Y-131943000D03*
X116748425Y-131943000D03*
X114208425Y-131943000D03*
X111668425Y-131943000D03*
%TD*%
D12*
%TO.C,R3*%
X114160000Y-67056000D03*
D11*
X104000000Y-67056000D03*
%TD*%
D12*
%TO.C,C10*%
X133223000Y-117896000D03*
X133223000Y-122896000D03*
%TD*%
%TO.C,R7*%
X87523000Y-128016000D03*
D11*
X77363000Y-128016000D03*
%TD*%
D12*
%TO.C,R4*%
X116693000Y-67056000D03*
D11*
X126853000Y-67056000D03*
%TD*%
D12*
%TO.C,R2*%
X90063000Y-67183000D03*
D11*
X79903000Y-67183000D03*
%TD*%
M02*
