M48
; DRILL file {KiCad 7.0.7} date Sat Nov 11 16:10:02 2023
; FORMAT={-:-/ absolute / inch / decimal}
; #@! TF.CreationDate,2023-11-11T16:10:02+00:00
; #@! TF.GenerationSoftware,Kicad,Pcbnew,7.0.7
; #@! TF.FileFunction,Plated,1,2,PTH
FMAT,2
INCH
; #@! TA.AperFunction,Plated,PTH,ViaDrill
T1C0.0315
; #@! TA.AperFunction,Plated,PTH,ComponentDrill
T2C0.0315
; #@! TA.AperFunction,Plated,PTH,ComponentDrill
T3C0.0394
%
G90
G05
T1
X3.5783Y-3.498
X3.7539Y-2.5626
X3.7882Y-4.1626
X3.7976Y-2.6472
X3.8713Y-2.598
X3.9602Y-2.4992
X4.0402Y-4.361
X4.0941Y-4.5016
X4.3425Y-4.4472
X4.4437Y-4.4382
X4.4492Y-3.9169
X4.5374Y-3.7909
X4.7362Y-4.5008
X4.7394Y-5.0256
X4.8413Y-2.585
X4.8945Y-2.6469
X5.0594Y-2.5331
X5.3039Y-4.1661
X5.3315Y-3.7878
T2
X3.0458Y-5.04
X3.1406Y-4.6445
X3.1406Y-4.8413
X3.1413Y-3.4484
X3.1413Y-3.6453
X3.145Y-2.8466
X3.145Y-3.0434
X3.1458Y-2.495
X3.1458Y-2.645
X3.15Y-5.2466
X3.15Y-5.4434
X3.2898Y-2.7937
X3.2898Y-3.0937
X3.29Y-4.595
X3.29Y-4.895
X3.294Y-3.398
X3.294Y-3.698
X3.3014Y-5.1946
X3.3014Y-5.4946
X3.3898Y-2.7937
X3.3898Y-3.0937
X3.39Y-4.595
X3.39Y-4.895
X3.394Y-3.398
X3.394Y-3.698
X3.4014Y-5.1946
X3.4014Y-5.4946
X3.4458Y-5.04
X3.4898Y-2.7937
X3.4898Y-3.0937
X3.49Y-4.595
X3.49Y-4.895
X3.4902Y-4.4902
X3.494Y-3.398
X3.494Y-3.698
X3.5014Y-5.1946
X3.5014Y-5.4946
X3.5458Y-2.495
X3.5458Y-2.645
X3.5898Y-2.7937
X3.5898Y-3.0937
X3.59Y-4.595
X3.59Y-4.895
X3.594Y-3.398
X3.594Y-3.698
X3.6014Y-5.1946
X3.6014Y-5.4946
X3.6898Y-2.7937
X3.6898Y-3.0937
X3.69Y-4.595
X3.69Y-4.895
X3.694Y-3.398
X3.694Y-3.698
X3.7014Y-5.1946
X3.7014Y-5.4946
X3.7898Y-2.7937
X3.7898Y-3.0937
X3.79Y-4.595
X3.79Y-4.895
X3.794Y-3.398
X3.794Y-3.698
X3.8014Y-5.1946
X3.8014Y-5.4946
X3.8898Y-2.7937
X3.8898Y-3.0937
X3.89Y-4.595
X3.89Y-4.895
X3.8902Y-4.4902
X3.894Y-3.398
X3.894Y-3.698
X3.9014Y-5.1946
X3.9014Y-5.4946
X3.9898Y-2.7937
X3.9898Y-3.0937
X3.99Y-4.595
X3.99Y-4.895
X3.994Y-3.398
X3.994Y-3.698
X4.0014Y-5.1946
X4.0014Y-5.4946
X4.0945Y-2.64
X4.195Y-2.8466
X4.195Y-3.0434
X4.195Y-3.4466
X4.195Y-3.6434
X4.2Y-4.6466
X4.2Y-4.8434
X4.2Y-5.2416
X4.2Y-5.4384
X4.395Y-3.395
X4.395Y-3.695
X4.395Y-4.5946
X4.395Y-4.8946
X4.3964Y-2.795
X4.3964Y-3.095
X4.3964Y-5.1946
X4.3964Y-5.4946
X4.4945Y-2.64
X4.495Y-3.395
X4.495Y-3.695
X4.495Y-4.5946
X4.495Y-4.8946
X4.4964Y-2.795
X4.4964Y-3.095
X4.4964Y-5.1946
X4.4964Y-5.4946
X4.5942Y-2.64
X4.595Y-3.395
X4.595Y-3.695
X4.595Y-4.5946
X4.595Y-4.8946
X4.5964Y-2.795
X4.5964Y-3.095
X4.5964Y-5.1946
X4.5964Y-5.4946
X4.695Y-3.395
X4.695Y-3.695
X4.695Y-4.5946
X4.695Y-4.8946
X4.6964Y-2.795
X4.6964Y-3.095
X4.6964Y-5.1946
X4.6964Y-5.4946
X4.795Y-3.395
X4.795Y-3.695
X4.795Y-4.5946
X4.795Y-4.8946
X4.7964Y-2.795
X4.7964Y-3.095
X4.7964Y-5.1946
X4.7964Y-5.4946
X4.895Y-3.395
X4.895Y-3.695
X4.895Y-4.5946
X4.895Y-4.8946
X4.8964Y-2.795
X4.8964Y-3.095
X4.8964Y-5.1946
X4.8964Y-5.4946
X4.9058Y-5.045
X4.9942Y-2.64
X4.995Y-3.395
X4.995Y-3.695
X4.995Y-4.5946
X4.995Y-4.8946
X4.9964Y-2.795
X4.9964Y-3.095
X4.9964Y-5.1946
X4.9964Y-5.4946
X5.095Y-3.395
X5.095Y-3.695
X5.095Y-4.5946
X5.095Y-4.8946
X5.0964Y-2.795
X5.0964Y-3.095
X5.0964Y-5.1946
X5.0964Y-5.4946
X5.24Y-5.2416
X5.24Y-5.4384
X5.245Y-2.8416
X5.245Y-3.0384
X5.245Y-3.4366
X5.245Y-3.6334
X5.245Y-4.6416
X5.245Y-4.8384
X5.25Y-4.0358
X5.25Y-4.4358
X5.3058Y-5.045
T3
X3.1925Y-4.002
X3.1925Y-4.2894
X3.2925Y-4.002
X3.2925Y-4.2894
X3.3925Y-4.002
X3.3925Y-4.2894
X3.4925Y-4.002
X3.4925Y-4.2894
X3.5925Y-4.002
X3.5925Y-4.2894
X3.6925Y-4.002
X3.6925Y-4.2894
X3.7925Y-4.002
X3.7925Y-4.2894
X3.8925Y-4.002
X3.8925Y-4.2894
X3.9925Y-4.002
X3.9925Y-4.2894
X4.0925Y-4.002
X4.0925Y-4.2894
X4.1925Y-4.002
X4.1925Y-4.2894
X4.2925Y-4.002
X4.2925Y-4.2894
X4.3925Y-4.002
X4.3925Y-4.2894
X4.4925Y-4.002
X4.4925Y-4.2894
X4.5925Y-4.002
X4.5925Y-4.2894
X4.6925Y-4.002
X4.6925Y-4.2894
X4.7925Y-4.002
X4.7925Y-4.2894
X4.8925Y-4.002
X4.8925Y-4.2894
X4.9925Y-4.002
X4.9925Y-4.2894
X5.0925Y-4.002
X5.0925Y-4.2894
T0
M30
