%TF.GenerationSoftware,KiCad,Pcbnew,7.0.7*%
%TF.CreationDate,2023-11-11T16:10:04+00:00*%
%TF.ProjectId,Lynx-MK1-MEM,4c796e78-2d4d-44b3-912d-4d454d2e6b69,rev?*%
%TF.SameCoordinates,Original*%
%TF.FileFunction,Copper,L1,Top*%
%TF.FilePolarity,Positive*%
%FSLAX46Y46*%
G04 Gerber Fmt 4.6, Leading zero omitted, Abs format (unit mm)*
G04 Created by KiCad (PCBNEW 7.0.7) date 2023-11-11 16:10:04*
%MOMM*%
%LPD*%
G01*
G04 APERTURE LIST*
%ADD10C,0.400000*%
%TA.AperFunction,NonConductor*%
%ADD11C,0.400000*%
%TD*%
%TA.AperFunction,ComponentPad*%
%ADD12R,1.600000X1.600000*%
%TD*%
%TA.AperFunction,ComponentPad*%
%ADD13O,1.600000X1.600000*%
%TD*%
%TA.AperFunction,ComponentPad*%
%ADD14C,1.600000*%
%TD*%
%TA.AperFunction,ComponentPad*%
%ADD15C,1.700000*%
%TD*%
%TA.AperFunction,ViaPad*%
%ADD16C,1.500000*%
%TD*%
%TA.AperFunction,Conductor*%
%ADD17C,0.400000*%
%TD*%
%TA.AperFunction,Conductor*%
%ADD18C,1.200000*%
%TD*%
G04 APERTURE END LIST*
D10*
D11*
X77956014Y-142736819D02*
X77289347Y-142736819D01*
X77289347Y-143784438D02*
X77289347Y-141784438D01*
X77289347Y-141784438D02*
X78241728Y-141784438D01*
X80146490Y-143784438D02*
X79479823Y-142832057D01*
X79003633Y-143784438D02*
X79003633Y-141784438D01*
X79003633Y-141784438D02*
X79765538Y-141784438D01*
X79765538Y-141784438D02*
X79956014Y-141879676D01*
X79956014Y-141879676D02*
X80051252Y-141974914D01*
X80051252Y-141974914D02*
X80146490Y-142165390D01*
X80146490Y-142165390D02*
X80146490Y-142451104D01*
X80146490Y-142451104D02*
X80051252Y-142641580D01*
X80051252Y-142641580D02*
X79956014Y-142736819D01*
X79956014Y-142736819D02*
X79765538Y-142832057D01*
X79765538Y-142832057D02*
X79003633Y-142832057D01*
X81384585Y-141784438D02*
X81765538Y-141784438D01*
X81765538Y-141784438D02*
X81956014Y-141879676D01*
X81956014Y-141879676D02*
X82146490Y-142070152D01*
X82146490Y-142070152D02*
X82241728Y-142451104D01*
X82241728Y-142451104D02*
X82241728Y-143117771D01*
X82241728Y-143117771D02*
X82146490Y-143498723D01*
X82146490Y-143498723D02*
X81956014Y-143689200D01*
X81956014Y-143689200D02*
X81765538Y-143784438D01*
X81765538Y-143784438D02*
X81384585Y-143784438D01*
X81384585Y-143784438D02*
X81194109Y-143689200D01*
X81194109Y-143689200D02*
X81003633Y-143498723D01*
X81003633Y-143498723D02*
X80908395Y-143117771D01*
X80908395Y-143117771D02*
X80908395Y-142451104D01*
X80908395Y-142451104D02*
X81003633Y-142070152D01*
X81003633Y-142070152D02*
X81194109Y-141879676D01*
X81194109Y-141879676D02*
X81384585Y-141784438D01*
X83098871Y-143784438D02*
X83098871Y-141784438D01*
X83098871Y-141784438D02*
X84241728Y-143784438D01*
X84241728Y-143784438D02*
X84241728Y-141784438D01*
X84908395Y-141784438D02*
X86051252Y-141784438D01*
X85479823Y-143784438D02*
X85479823Y-141784438D01*
D10*
D11*
X136906966Y-142634438D02*
X135764109Y-142634438D01*
X136335537Y-142634438D02*
X136335537Y-140634438D01*
X136335537Y-140634438D02*
X136145061Y-140920152D01*
X136145061Y-140920152D02*
X135954585Y-141110628D01*
X135954585Y-141110628D02*
X135764109Y-141205866D01*
D12*
%TO.P,IC1,1,VBB*%
%TO.N,-5V*%
X83560000Y-78580000D03*
D13*
%TO.P,IC1,2,Din*%
%TO.N,/DI6*%
X86100000Y-78580000D03*
%TO.P,IC1,3,~{WRITE}*%
%TO.N,~{WR}*%
X88640000Y-78580000D03*
%TO.P,IC1,4,~{RAS}*%
%TO.N,~{RAS}*%
X91180000Y-78580000D03*
%TO.P,IC1,5,A0*%
%TO.N,/A5*%
X93720000Y-78580000D03*
%TO.P,IC1,6,A2*%
%TO.N,/A2*%
X96260000Y-78580000D03*
%TO.P,IC1,7,A1*%
%TO.N,/A0*%
X98800000Y-78580000D03*
%TO.P,IC1,8,VCC*%
%TO.N,+12V*%
X101340000Y-78580000D03*
%TO.P,IC1,9,A7*%
%TO.N,+5V*%
X101340000Y-70960000D03*
%TO.P,IC1,10,A5*%
%TO.N,/A1*%
X98800000Y-70960000D03*
%TO.P,IC1,11,A4*%
%TO.N,/A4*%
X96260000Y-70960000D03*
%TO.P,IC1,12,A3*%
%TO.N,/A3*%
X93720000Y-70960000D03*
%TO.P,IC1,13,A6*%
%TO.N,/A6*%
X91180000Y-70960000D03*
%TO.P,IC1,14,Dout*%
%TO.N,/DO6*%
X88640000Y-70960000D03*
%TO.P,IC1,15,~{CAS}*%
%TO.N,~{CAS}*%
X86100000Y-70960000D03*
%TO.P,IC1,16,GND*%
%TO.N,GND*%
X83560000Y-70960000D03*
%TD*%
D14*
%TO.P,C6,1*%
%TO.N,+12V*%
X106680000Y-123023000D03*
%TO.P,C6,2*%
%TO.N,GND*%
X106680000Y-118023000D03*
%TD*%
D15*
%TO.P,PL4,1,Pin_1*%
%TO.N,/DO0*%
X81090000Y-108950000D03*
%TO.P,PL4,2,Pin_2*%
%TO.N,/DI0*%
X81090000Y-101650000D03*
%TO.P,PL4,3,Pin_3*%
%TO.N,/DO5*%
X83630000Y-108950000D03*
%TO.P,PL4,4,Pin_4*%
%TO.N,unconnected-(PL4-Pin_4-Pad4)*%
X83630000Y-101650000D03*
%TO.P,PL4,5,Pin_5*%
%TO.N,/DO7*%
X86170000Y-108950000D03*
%TO.P,PL4,6,Pin_6*%
%TO.N,/DO6*%
X86170000Y-101650000D03*
%TO.P,PL4,7,Pin_7*%
%TO.N,/DI2*%
X88710000Y-108950000D03*
%TO.P,PL4,8,Pin_8*%
%TO.N,/DI1*%
X88710000Y-101650000D03*
%TO.P,PL4,9,Pin_9*%
%TO.N,/DI4*%
X91250000Y-108950000D03*
%TO.P,PL4,10,Pin_10*%
%TO.N,/DI3*%
X91250000Y-101650000D03*
%TO.P,PL4,11,Pin_11*%
%TO.N,/DI5*%
X93790000Y-108950000D03*
%TO.P,PL4,12,Pin_12*%
%TO.N,/DI6*%
X93790000Y-101650000D03*
%TO.P,PL4,13,Pin_13*%
%TO.N,unconnected-(PL4-Pin_13-Pad13)*%
X96330000Y-108950000D03*
%TO.P,PL4,14,Pin_14*%
%TO.N,/DI7*%
X96330000Y-101650000D03*
%TO.P,PL4,15,Pin_15*%
%TO.N,unconnected-(PL4-Pin_15-Pad15)*%
X98870000Y-108950000D03*
%TO.P,PL4,16,Pin_16*%
%TO.N,/DO1*%
X98870000Y-101650000D03*
%TO.P,PL4,17,Pin_17*%
%TO.N,/DO3*%
X101410000Y-108950000D03*
%TO.P,PL4,18,Pin_18*%
%TO.N,/DO4*%
X101410000Y-101650000D03*
%TO.P,PL4,19,Pin_19*%
%TO.N,unconnected-(PL4-Pin_19-Pad19)*%
X103950000Y-108950000D03*
%TO.P,PL4,20,Pin_20*%
%TO.N,unconnected-(PL4-Pin_20-Pad20)*%
X103950000Y-101650000D03*
%TO.P,PL4,21,Pin_21*%
%TO.N,unconnected-(PL4-Pin_21-Pad21)*%
X106490000Y-108950000D03*
%TO.P,PL4,22,Pin_22*%
%TO.N,unconnected-(PL4-Pin_22-Pad22)*%
X106490000Y-101650000D03*
%TO.P,PL4,23,Pin_23*%
%TO.N,GND*%
X109030000Y-108950000D03*
%TO.P,PL4,24,Pin_24*%
X109030000Y-101650000D03*
%TO.P,PL4,25,Pin_25*%
%TO.N,/DO2*%
X111570000Y-108950000D03*
%TO.P,PL4,26,Pin_26*%
%TO.N,~{WR}*%
X111570000Y-101650000D03*
%TO.P,PL4,27,Pin_27*%
%TO.N,-5V*%
X114110000Y-108950000D03*
%TO.P,PL4,28,Pin_28*%
%TO.N,/A6*%
X114110000Y-101650000D03*
%TO.P,PL4,29,Pin_29*%
%TO.N,~{RAS}*%
X116650000Y-108950000D03*
%TO.P,PL4,30,Pin_30*%
%TO.N,~{CAS}*%
X116650000Y-101650000D03*
%TO.P,PL4,31,Pin_31*%
%TO.N,/A3*%
X119190000Y-108950000D03*
%TO.P,PL4,32,Pin_32*%
%TO.N,/A5*%
X119190000Y-101650000D03*
%TO.P,PL4,33,Pin_33*%
%TO.N,/A4*%
X121730000Y-108950000D03*
%TO.P,PL4,34,Pin_34*%
%TO.N,/A2*%
X121730000Y-101650000D03*
%TO.P,PL4,35,Pin_35*%
%TO.N,/A1*%
X124270000Y-108950000D03*
%TO.P,PL4,36,Pin_36*%
%TO.N,/A0*%
X124270000Y-101650000D03*
%TO.P,PL4,37,Pin_37*%
%TO.N,+12V*%
X126810000Y-108950000D03*
%TO.P,PL4,38,Pin_38*%
X126810000Y-101650000D03*
%TO.P,PL4,39,Pin_39*%
%TO.N,+5V*%
X129350000Y-108950000D03*
%TO.P,PL4,40,Pin_40*%
X129350000Y-101650000D03*
%TD*%
D14*
%TO.P,C7,1*%
%TO.N,+12V*%
X106553000Y-92543000D03*
%TO.P,C7,2*%
%TO.N,GND*%
X106553000Y-87543000D03*
%TD*%
%TO.P,C1,1*%
%TO.N,-5V*%
X80010000Y-138263000D03*
%TO.P,C1,2*%
%TO.N,GND*%
X80010000Y-133263000D03*
%TD*%
D12*
%TO.P,IC2,1,VBB*%
%TO.N,-5V*%
X111668425Y-78613000D03*
D13*
%TO.P,IC2,2,Din*%
%TO.N,/DI3*%
X114208425Y-78613000D03*
%TO.P,IC2,3,~{WRITE}*%
%TO.N,~{WR}*%
X116748425Y-78613000D03*
%TO.P,IC2,4,~{RAS}*%
%TO.N,~{RAS}*%
X119288425Y-78613000D03*
%TO.P,IC2,5,A0*%
%TO.N,/A5*%
X121828425Y-78613000D03*
%TO.P,IC2,6,A2*%
%TO.N,/A2*%
X124368425Y-78613000D03*
%TO.P,IC2,7,A1*%
%TO.N,/A0*%
X126908425Y-78613000D03*
%TO.P,IC2,8,VCC*%
%TO.N,+12V*%
X129448425Y-78613000D03*
%TO.P,IC2,9,A7*%
%TO.N,+5V*%
X129448425Y-70993000D03*
%TO.P,IC2,10,A5*%
%TO.N,/A1*%
X126908425Y-70993000D03*
%TO.P,IC2,11,A4*%
%TO.N,/A4*%
X124368425Y-70993000D03*
%TO.P,IC2,12,A3*%
%TO.N,/A3*%
X121828425Y-70993000D03*
%TO.P,IC2,13,A6*%
%TO.N,/A6*%
X119288425Y-70993000D03*
%TO.P,IC2,14,Dout*%
%TO.N,/DO3*%
X116748425Y-70993000D03*
%TO.P,IC2,15,~{CAS}*%
%TO.N,~{CAS}*%
X114208425Y-70993000D03*
%TO.P,IC2,16,GND*%
%TO.N,GND*%
X111668425Y-70993000D03*
%TD*%
D14*
%TO.P,R6,1*%
%TO.N,/DO5*%
X88650000Y-114050000D03*
D13*
%TO.P,R6,2*%
%TO.N,GND*%
X98810000Y-114050000D03*
%TD*%
D14*
%TO.P,C9,1*%
%TO.N,+5V*%
X133096000Y-133136000D03*
%TO.P,C9,2*%
%TO.N,GND*%
X133096000Y-138136000D03*
%TD*%
%TO.P,R8,1*%
%TO.N,/DO2*%
X134767000Y-128143000D03*
D13*
%TO.P,R8,2*%
%TO.N,GND*%
X124607000Y-128143000D03*
%TD*%
D14*
%TO.P,C11,1*%
%TO.N,+5V*%
X133223000Y-87289000D03*
%TO.P,C11,2*%
%TO.N,GND*%
X133223000Y-92289000D03*
%TD*%
D12*
%TO.P,IC5,1,VBB*%
%TO.N,-5V*%
X83566000Y-124333000D03*
D13*
%TO.P,IC5,2,Din*%
%TO.N,/DI5*%
X86106000Y-124333000D03*
%TO.P,IC5,3,~{WRITE}*%
%TO.N,~{WR}*%
X88646000Y-124333000D03*
%TO.P,IC5,4,~{RAS}*%
%TO.N,~{RAS}*%
X91186000Y-124333000D03*
%TO.P,IC5,5,A0*%
%TO.N,/A5*%
X93726000Y-124333000D03*
%TO.P,IC5,6,A2*%
%TO.N,/A2*%
X96266000Y-124333000D03*
%TO.P,IC5,7,A1*%
%TO.N,/A0*%
X98806000Y-124333000D03*
%TO.P,IC5,8,VCC*%
%TO.N,+12V*%
X101346000Y-124333000D03*
%TO.P,IC5,9,A7*%
%TO.N,+5V*%
X101346000Y-116713000D03*
%TO.P,IC5,10,A5*%
%TO.N,/A1*%
X98806000Y-116713000D03*
%TO.P,IC5,11,A4*%
%TO.N,/A4*%
X96266000Y-116713000D03*
%TO.P,IC5,12,A3*%
%TO.N,/A3*%
X93726000Y-116713000D03*
%TO.P,IC5,13,A6*%
%TO.N,/A6*%
X91186000Y-116713000D03*
%TO.P,IC5,14,Dout*%
%TO.N,/DO5*%
X88646000Y-116713000D03*
%TO.P,IC5,15,~{CAS}*%
%TO.N,~{CAS}*%
X86106000Y-116713000D03*
%TO.P,IC5,16,GND*%
%TO.N,GND*%
X83566000Y-116713000D03*
%TD*%
D14*
%TO.P,C8,1*%
%TO.N,+12V*%
X106553000Y-77303000D03*
%TO.P,C8,2*%
%TO.N,GND*%
X106553000Y-72303000D03*
%TD*%
%TO.P,R1,1*%
%TO.N,/DO6*%
X90063000Y-63373000D03*
D13*
%TO.P,R1,2*%
%TO.N,GND*%
X79903000Y-63373000D03*
%TD*%
D14*
%TO.P,C12,1*%
%TO.N,+5V*%
X133223000Y-72176000D03*
%TO.P,C12,2*%
%TO.N,GND*%
X133223000Y-77176000D03*
%TD*%
%TO.P,C4,1*%
%TO.N,-5V*%
X79883000Y-77303000D03*
%TO.P,C4,2*%
%TO.N,GND*%
X79883000Y-72303000D03*
%TD*%
D12*
%TO.P,IC3,1,VBB*%
%TO.N,-5V*%
X83667600Y-93929200D03*
D13*
%TO.P,IC3,2,Din*%
%TO.N,/DI0*%
X86207600Y-93929200D03*
%TO.P,IC3,3,~{WRITE}*%
%TO.N,~{WR}*%
X88747600Y-93929200D03*
%TO.P,IC3,4,~{RAS}*%
%TO.N,~{RAS}*%
X91287600Y-93929200D03*
%TO.P,IC3,5,A0*%
%TO.N,/A5*%
X93827600Y-93929200D03*
%TO.P,IC3,6,A2*%
%TO.N,/A2*%
X96367600Y-93929200D03*
%TO.P,IC3,7,A1*%
%TO.N,/A0*%
X98907600Y-93929200D03*
%TO.P,IC3,8,VCC*%
%TO.N,+12V*%
X101447600Y-93929200D03*
%TO.P,IC3,9,A7*%
%TO.N,+5V*%
X101447600Y-86309200D03*
%TO.P,IC3,10,A5*%
%TO.N,/A1*%
X98907600Y-86309200D03*
%TO.P,IC3,11,A4*%
%TO.N,/A4*%
X96367600Y-86309200D03*
%TO.P,IC3,12,A3*%
%TO.N,/A3*%
X93827600Y-86309200D03*
%TO.P,IC3,13,A6*%
%TO.N,/A6*%
X91287600Y-86309200D03*
%TO.P,IC3,14,Dout*%
%TO.N,/DO0*%
X88747600Y-86309200D03*
%TO.P,IC3,15,~{CAS}*%
%TO.N,~{CAS}*%
X86207600Y-86309200D03*
%TO.P,IC3,16,GND*%
%TO.N,GND*%
X83667600Y-86309200D03*
%TD*%
D14*
%TO.P,C3,1*%
%TO.N,-5V*%
X79790000Y-92590000D03*
%TO.P,C3,2*%
%TO.N,GND*%
X79790000Y-87590000D03*
%TD*%
%TO.P,C5,1*%
%TO.N,+12V*%
X106680000Y-138136000D03*
%TO.P,C5,2*%
%TO.N,GND*%
X106680000Y-133136000D03*
%TD*%
D12*
%TO.P,IC7,1,VBB*%
%TO.N,-5V*%
X83855425Y-139563000D03*
D13*
%TO.P,IC7,2,Din*%
%TO.N,/DI7*%
X86395425Y-139563000D03*
%TO.P,IC7,3,~{WRITE}*%
%TO.N,~{WR}*%
X88935425Y-139563000D03*
%TO.P,IC7,4,~{RAS}*%
%TO.N,~{RAS}*%
X91475425Y-139563000D03*
%TO.P,IC7,5,A0*%
%TO.N,/A5*%
X94015425Y-139563000D03*
%TO.P,IC7,6,A2*%
%TO.N,/A2*%
X96555425Y-139563000D03*
%TO.P,IC7,7,A1*%
%TO.N,/A0*%
X99095425Y-139563000D03*
%TO.P,IC7,8,VCC*%
%TO.N,+12V*%
X101635425Y-139563000D03*
%TO.P,IC7,9,A7*%
%TO.N,+5V*%
X101635425Y-131943000D03*
%TO.P,IC7,10,A5*%
%TO.N,/A1*%
X99095425Y-131943000D03*
%TO.P,IC7,11,A4*%
%TO.N,/A4*%
X96555425Y-131943000D03*
%TO.P,IC7,12,A3*%
%TO.N,/A3*%
X94015425Y-131943000D03*
%TO.P,IC7,13,A6*%
%TO.N,/A6*%
X91475425Y-131943000D03*
%TO.P,IC7,14,Dout*%
%TO.N,/DO7*%
X88935425Y-131943000D03*
%TO.P,IC7,15,~{CAS}*%
%TO.N,~{CAS}*%
X86395425Y-131943000D03*
%TO.P,IC7,16,GND*%
%TO.N,GND*%
X83855425Y-131943000D03*
%TD*%
D12*
%TO.P,IC6,1,VBB*%
%TO.N,-5V*%
X111633000Y-124323000D03*
D13*
%TO.P,IC6,2,Din*%
%TO.N,/DI4*%
X114173000Y-124323000D03*
%TO.P,IC6,3,~{WRITE}*%
%TO.N,~{WR}*%
X116713000Y-124323000D03*
%TO.P,IC6,4,~{RAS}*%
%TO.N,~{RAS}*%
X119253000Y-124323000D03*
%TO.P,IC6,5,A0*%
%TO.N,/A5*%
X121793000Y-124323000D03*
%TO.P,IC6,6,A2*%
%TO.N,/A2*%
X124333000Y-124323000D03*
%TO.P,IC6,7,A1*%
%TO.N,/A0*%
X126873000Y-124323000D03*
%TO.P,IC6,8,VCC*%
%TO.N,+12V*%
X129413000Y-124323000D03*
%TO.P,IC6,9,A7*%
%TO.N,+5V*%
X129413000Y-116703000D03*
%TO.P,IC6,10,A5*%
%TO.N,/A1*%
X126873000Y-116703000D03*
%TO.P,IC6,11,A4*%
%TO.N,/A4*%
X124333000Y-116703000D03*
%TO.P,IC6,12,A3*%
%TO.N,/A3*%
X121793000Y-116703000D03*
%TO.P,IC6,13,A6*%
%TO.N,/A6*%
X119253000Y-116703000D03*
%TO.P,IC6,14,Dout*%
%TO.N,/DO4*%
X116713000Y-116703000D03*
%TO.P,IC6,15,~{CAS}*%
%TO.N,~{CAS}*%
X114173000Y-116703000D03*
%TO.P,IC6,16,GND*%
%TO.N,GND*%
X111633000Y-116703000D03*
%TD*%
D14*
%TO.P,R5,1*%
%TO.N,/DO4*%
X133350000Y-112669000D03*
D13*
%TO.P,R5,2*%
%TO.N,GND*%
X133350000Y-102509000D03*
%TD*%
D14*
%TO.P,C2,1*%
%TO.N,-5V*%
X79770000Y-122970000D03*
%TO.P,C2,2*%
%TO.N,GND*%
X79770000Y-117970000D03*
%TD*%
D12*
%TO.P,IC4,1,VBB*%
%TO.N,-5V*%
X111633000Y-93853000D03*
D13*
%TO.P,IC4,2,Din*%
%TO.N,/DI1*%
X114173000Y-93853000D03*
%TO.P,IC4,3,~{WRITE}*%
%TO.N,~{WR}*%
X116713000Y-93853000D03*
%TO.P,IC4,4,~{RAS}*%
%TO.N,~{RAS}*%
X119253000Y-93853000D03*
%TO.P,IC4,5,A0*%
%TO.N,/A5*%
X121793000Y-93853000D03*
%TO.P,IC4,6,A2*%
%TO.N,/A2*%
X124333000Y-93853000D03*
%TO.P,IC4,7,A1*%
%TO.N,/A0*%
X126873000Y-93853000D03*
%TO.P,IC4,8,VCC*%
%TO.N,+12V*%
X129413000Y-93853000D03*
%TO.P,IC4,9,A7*%
%TO.N,+5V*%
X129413000Y-86233000D03*
%TO.P,IC4,10,A5*%
%TO.N,/A1*%
X126873000Y-86233000D03*
%TO.P,IC4,11,A4*%
%TO.N,/A4*%
X124333000Y-86233000D03*
%TO.P,IC4,12,A3*%
%TO.N,/A3*%
X121793000Y-86233000D03*
%TO.P,IC4,13,A6*%
%TO.N,/A6*%
X119253000Y-86233000D03*
%TO.P,IC4,14,Dout*%
%TO.N,/DO1*%
X116713000Y-86233000D03*
%TO.P,IC4,15,~{CAS}*%
%TO.N,~{CAS}*%
X114173000Y-86233000D03*
%TO.P,IC4,16,GND*%
%TO.N,GND*%
X111633000Y-86233000D03*
%TD*%
D12*
%TO.P,IC8,1,VBB*%
%TO.N,-5V*%
X111668425Y-139563000D03*
D13*
%TO.P,IC8,2,Din*%
%TO.N,/DI2*%
X114208425Y-139563000D03*
%TO.P,IC8,3,~{WRITE}*%
%TO.N,~{WR}*%
X116748425Y-139563000D03*
%TO.P,IC8,4,~{RAS}*%
%TO.N,~{RAS}*%
X119288425Y-139563000D03*
%TO.P,IC8,5,A0*%
%TO.N,/A5*%
X121828425Y-139563000D03*
%TO.P,IC8,6,A2*%
%TO.N,/A2*%
X124368425Y-139563000D03*
%TO.P,IC8,7,A1*%
%TO.N,/A0*%
X126908425Y-139563000D03*
%TO.P,IC8,8,VCC*%
%TO.N,+12V*%
X129448425Y-139563000D03*
%TO.P,IC8,9,A7*%
%TO.N,+5V*%
X129448425Y-131943000D03*
%TO.P,IC8,10,A5*%
%TO.N,/A1*%
X126908425Y-131943000D03*
%TO.P,IC8,11,A4*%
%TO.N,/A4*%
X124368425Y-131943000D03*
%TO.P,IC8,12,A3*%
%TO.N,/A3*%
X121828425Y-131943000D03*
%TO.P,IC8,13,A6*%
%TO.N,/A6*%
X119288425Y-131943000D03*
%TO.P,IC8,14,Dout*%
%TO.N,/DO2*%
X116748425Y-131943000D03*
%TO.P,IC8,15,~{CAS}*%
%TO.N,~{CAS}*%
X114208425Y-131943000D03*
%TO.P,IC8,16,GND*%
%TO.N,GND*%
X111668425Y-131943000D03*
%TD*%
D14*
%TO.P,R3,1*%
%TO.N,/DO3*%
X114160000Y-67056000D03*
D13*
%TO.P,R3,2*%
%TO.N,GND*%
X104000000Y-67056000D03*
%TD*%
D14*
%TO.P,C10,1*%
%TO.N,+5V*%
X133223000Y-117896000D03*
%TO.P,C10,2*%
%TO.N,GND*%
X133223000Y-122896000D03*
%TD*%
%TO.P,R7,1*%
%TO.N,/DO7*%
X87523000Y-128016000D03*
D13*
%TO.P,R7,2*%
%TO.N,GND*%
X77363000Y-128016000D03*
%TD*%
D14*
%TO.P,R4,1*%
%TO.N,/DO1*%
X116693000Y-67056000D03*
D13*
%TO.P,R4,2*%
%TO.N,GND*%
X126853000Y-67056000D03*
%TD*%
D14*
%TO.P,R2,1*%
%TO.N,/DO0*%
X90063000Y-67183000D03*
D13*
%TO.P,R2,2*%
%TO.N,GND*%
X79903000Y-67183000D03*
%TD*%
D16*
%TO.N,~{WR}*%
X96220000Y-105730000D03*
%TO.N,~{RAS}*%
X134720000Y-105820000D03*
X135420000Y-96210000D03*
%TO.N,/A0*%
X128510000Y-64340000D03*
X100590000Y-63480000D03*
%TO.N,/A2*%
X98330000Y-65990000D03*
X124320000Y-67230000D03*
%TO.N,/A5*%
X122970000Y-65660000D03*
X95350000Y-65090000D03*
%TO.N,/A4*%
X96460000Y-67240000D03*
%TO.N,/A3*%
X120380000Y-127650000D03*
%TO.N,~{CAS}*%
X113010000Y-99490000D03*
X120300000Y-114320000D03*
%TO.N,/DI4*%
X110300000Y-112960000D03*
%TO.N,/DO4*%
X112870000Y-112730000D03*
X102620000Y-110770000D03*
%TO.N,/DI3*%
X90890000Y-88850000D03*
%TO.N,/DI2*%
X103990000Y-114340000D03*
%TO.N,/DO1*%
X115250000Y-96290000D03*
%TD*%
D17*
%TO.N,-5V*%
X110850000Y-99420000D02*
X110280000Y-99990000D01*
D18*
X80100800Y-93929200D02*
X79790000Y-94240000D01*
D17*
X110280000Y-103200000D02*
X110790000Y-103710000D01*
D18*
X111633000Y-124323000D02*
X111633000Y-120103000D01*
X111668425Y-81901575D02*
X109050000Y-84520000D01*
X83667600Y-93929200D02*
X81720000Y-93929200D01*
X81720000Y-93929200D02*
X80100800Y-93929200D01*
X111633000Y-93853000D02*
X111633000Y-97007000D01*
X109050000Y-84520000D02*
X109050000Y-87500000D01*
X79790000Y-98420000D02*
X79790000Y-94240000D01*
X81730000Y-135680000D02*
X83855425Y-137805425D01*
X109580000Y-118050000D02*
X108500000Y-116970000D01*
X83566000Y-120806000D02*
X81690000Y-118930000D01*
X108500000Y-112060000D02*
X110030000Y-110530000D01*
X83855425Y-137805425D02*
X83855425Y-139563000D01*
X108500000Y-115540000D02*
X108500000Y-112060000D01*
X83560000Y-78580000D02*
X83560000Y-83460000D01*
X83667600Y-93929200D02*
X83667600Y-88862400D01*
X111633000Y-127603000D02*
X112430000Y-128400000D01*
D17*
X110280000Y-99990000D02*
X110280000Y-103200000D01*
X110320000Y-107290000D02*
X110810000Y-106800000D01*
D18*
X83667600Y-88862400D02*
X84340000Y-88190000D01*
X81720000Y-93929200D02*
X81129200Y-93929200D01*
X110790000Y-105430000D02*
X110790000Y-106780000D01*
D17*
X84867600Y-84767600D02*
X84860000Y-84760000D01*
D18*
X110850000Y-97790000D02*
X110850000Y-99420000D01*
X108500000Y-116970000D02*
X108500000Y-115540000D01*
X111633000Y-97007000D02*
X111180000Y-97460000D01*
D17*
X112930000Y-130210000D02*
X113020000Y-130120000D01*
X84867600Y-87662400D02*
X84867600Y-84767600D01*
D18*
X81730000Y-126200000D02*
X81730000Y-135680000D01*
X112430000Y-128400000D02*
X113020000Y-128990000D01*
D17*
X112930000Y-133250000D02*
X112930000Y-130210000D01*
D18*
X112530000Y-105490000D02*
X112470000Y-105430000D01*
X111668425Y-78613000D02*
X111668425Y-81901575D01*
X111668425Y-139563000D02*
X111668425Y-134511575D01*
X111180000Y-97460000D02*
X110850000Y-97790000D01*
X110790000Y-106780000D02*
X110810000Y-106800000D01*
X111633000Y-124323000D02*
X111633000Y-127603000D01*
X81690000Y-116810000D02*
X78900000Y-114020000D01*
D17*
X110320000Y-110240000D02*
X110320000Y-107290000D01*
D18*
X111633000Y-120103000D02*
X109580000Y-118050000D01*
X83566000Y-124333000D02*
X83566000Y-120806000D01*
X79883000Y-77303000D02*
X83560000Y-78580000D01*
X83560000Y-83460000D02*
X84860000Y-84760000D01*
X109050000Y-87500000D02*
X111633000Y-90083000D01*
X112470000Y-105430000D02*
X110790000Y-105430000D01*
D17*
X110030000Y-110530000D02*
X110320000Y-110240000D01*
D18*
X78900000Y-114020000D02*
X78900000Y-99310000D01*
X78900000Y-99310000D02*
X79790000Y-98420000D01*
X83566000Y-124364000D02*
X81730000Y-126200000D01*
X110790000Y-105430000D02*
X110790000Y-103710000D01*
X111633000Y-90083000D02*
X111633000Y-93853000D01*
X83566000Y-124333000D02*
X83566000Y-124364000D01*
D17*
X112620000Y-133560000D02*
X112930000Y-133250000D01*
D18*
X114110000Y-108950000D02*
X112530000Y-105490000D01*
X81690000Y-118930000D02*
X81690000Y-116810000D01*
X113020000Y-128990000D02*
X113020000Y-130120000D01*
X111668425Y-134511575D02*
X112620000Y-133560000D01*
X79790000Y-94240000D02*
X79790000Y-92590000D01*
X81129200Y-93929200D02*
X79790000Y-92590000D01*
D17*
X84340000Y-88190000D02*
X84867600Y-87662400D01*
D18*
%TO.N,GND*%
X134544000Y-122896000D02*
X135690000Y-121750000D01*
X108870000Y-120213000D02*
X108870000Y-127610000D01*
X76810000Y-73920000D02*
X79883000Y-72303000D01*
X79883000Y-72303000D02*
X83560000Y-70960000D01*
X98810000Y-114050000D02*
X101800000Y-114050000D01*
X79883000Y-72303000D02*
X79883000Y-67203000D01*
X133223000Y-102382000D02*
X133350000Y-102509000D01*
X108610000Y-95480000D02*
X109400000Y-94690000D01*
X108610000Y-98260000D02*
X108610000Y-95480000D01*
X111390000Y-131664575D02*
X111668425Y-131943000D01*
X76841010Y-87580000D02*
X76810000Y-73920000D01*
X135690000Y-111990000D02*
X132110000Y-108410000D01*
X109030000Y-108950000D02*
X109030000Y-101650000D01*
X133223000Y-77176000D02*
X135740000Y-80240000D01*
X135770000Y-131408742D02*
X135770000Y-136820000D01*
X132110000Y-103749000D02*
X133350000Y-102509000D01*
X76910000Y-117970000D02*
X76841010Y-87580000D01*
X79790000Y-87590000D02*
X83667600Y-86309200D01*
X133223000Y-92289000D02*
X133223000Y-102382000D01*
X133223000Y-122896000D02*
X134544000Y-122896000D01*
X132110000Y-108410000D02*
X132110000Y-103749000D01*
X132720000Y-129770000D02*
X135770000Y-131408742D01*
X109030000Y-98680000D02*
X108610000Y-98260000D01*
X76851010Y-87590000D02*
X79790000Y-87590000D01*
X109650000Y-81320000D02*
X109650000Y-73011425D01*
X106553000Y-72303000D02*
X106553000Y-69609000D01*
X135690000Y-121750000D02*
X135690000Y-111990000D01*
X106553000Y-87543000D02*
X106553000Y-84417000D01*
X132740000Y-126410000D02*
X132720000Y-129770000D01*
X103360000Y-112490000D02*
X106680000Y-112490000D01*
X79120000Y-133130000D02*
X76920000Y-131650000D01*
X135530000Y-90740000D02*
X133223000Y-92289000D01*
X109030000Y-109100000D02*
X109030000Y-108950000D01*
X106553000Y-84417000D02*
X109650000Y-81320000D01*
X76920000Y-131650000D02*
X76910000Y-117970000D01*
X106680000Y-111450000D02*
X109030000Y-109100000D01*
X110370000Y-129110000D02*
X110438167Y-129110000D01*
X106553000Y-69609000D02*
X104000000Y-67056000D01*
X111390000Y-130061833D02*
X111390000Y-131664575D01*
X106680000Y-118023000D02*
X106680000Y-112490000D01*
X109650000Y-73011425D02*
X111668425Y-70993000D01*
X110438167Y-129110000D02*
X111390000Y-130061833D01*
X133223000Y-122896000D02*
X133223000Y-125927000D01*
X133223000Y-125927000D02*
X132740000Y-126410000D01*
X106680000Y-118023000D02*
X108870000Y-120213000D01*
X109030000Y-101650000D02*
X109030000Y-98680000D01*
X108870000Y-127610000D02*
X110370000Y-129110000D01*
X109400000Y-90390000D02*
X106553000Y-87543000D01*
X76841010Y-87580000D02*
X76851010Y-87590000D01*
X79770000Y-117970000D02*
X76910000Y-117970000D01*
X106680000Y-112490000D02*
X106680000Y-111450000D01*
X79883000Y-67203000D02*
X79903000Y-67183000D01*
X135740000Y-80240000D02*
X135530000Y-90740000D01*
X135770000Y-136820000D02*
X133096000Y-138136000D01*
X101800000Y-114050000D02*
X103360000Y-112490000D01*
X109400000Y-94690000D02*
X109400000Y-90390000D01*
X79903000Y-67183000D02*
X79903000Y-63373000D01*
X80010000Y-133263000D02*
X79120000Y-133130000D01*
%TO.N,+12V*%
X105276000Y-78580000D02*
X106553000Y-77303000D01*
X103750000Y-127670000D02*
X103650000Y-137120000D01*
X131340000Y-91926000D02*
X131270000Y-79690000D01*
X126810000Y-108950000D02*
X126810000Y-109320000D01*
X131301957Y-124250000D02*
X131280000Y-136930000D01*
X101346000Y-125266000D02*
X103750000Y-127670000D01*
X131280000Y-136930000D02*
X129448425Y-139563000D01*
X101340000Y-78580000D02*
X103340000Y-78580000D01*
X126810000Y-109320000D02*
X131320000Y-113830000D01*
X103650000Y-137120000D02*
X106680000Y-138136000D01*
X103340000Y-87490000D02*
X101447600Y-89382400D01*
X129413000Y-124323000D02*
X131228957Y-124323000D01*
X126810000Y-108950000D02*
X126810000Y-101650000D01*
X131320000Y-113830000D02*
X131301957Y-124250000D01*
X129413000Y-93853000D02*
X131340000Y-91926000D01*
X101447600Y-89382400D02*
X101447600Y-93929200D01*
X131270000Y-79690000D02*
X129448425Y-78613000D01*
X101346000Y-124333000D02*
X101346000Y-125266000D01*
X103340000Y-78580000D02*
X103340000Y-87490000D01*
X103340000Y-78580000D02*
X105276000Y-78580000D01*
X131228957Y-124323000D02*
X131301957Y-124250000D01*
%TO.N,+5V*%
X129413000Y-90817000D02*
X128620000Y-91610000D01*
X101340000Y-70960000D02*
X101340000Y-75680000D01*
X129448425Y-126688425D02*
X128480000Y-125720000D01*
X129350000Y-96340000D02*
X128720000Y-95710000D01*
X129413000Y-86233000D02*
X129413000Y-90817000D01*
X129448425Y-75931575D02*
X128650000Y-76730000D01*
X129448425Y-70993000D02*
X129448425Y-75931575D01*
D17*
X128248425Y-80048425D02*
X128600000Y-80400000D01*
D18*
X129448425Y-131943000D02*
X129448425Y-126688425D01*
D17*
X128140000Y-122950000D02*
X128800000Y-122290000D01*
D18*
X101340000Y-75680000D02*
X100730000Y-76290000D01*
X100510000Y-122520000D02*
X101346000Y-121684000D01*
D17*
X128073000Y-95063000D02*
X128720000Y-95710000D01*
D18*
X129350000Y-108950000D02*
X129350000Y-101650000D01*
X101447600Y-81227600D02*
X100790000Y-80570000D01*
D17*
X128620000Y-91610000D02*
X128073000Y-92157000D01*
X128480000Y-125720000D02*
X128140000Y-125380000D01*
D18*
X129413000Y-81213000D02*
X128600000Y-80400000D01*
X129413000Y-121677000D02*
X128800000Y-122290000D01*
D17*
X128650000Y-76730000D02*
X128248425Y-77131575D01*
D18*
X101635425Y-131943000D02*
X101635425Y-128295425D01*
X129350000Y-101650000D02*
X129350000Y-96340000D01*
X101447600Y-86309200D02*
X101447600Y-81227600D01*
X101346000Y-121684000D02*
X101346000Y-116713000D01*
D17*
X100146000Y-122884000D02*
X100510000Y-122520000D01*
X100500000Y-127160000D02*
X100146000Y-126806000D01*
X100070000Y-79850000D02*
X100070000Y-76950000D01*
X100070000Y-76950000D02*
X100730000Y-76290000D01*
X128248425Y-77131575D02*
X128248425Y-80048425D01*
X100146000Y-126806000D02*
X100146000Y-122884000D01*
X128140000Y-125380000D02*
X128140000Y-122950000D01*
D18*
X101635425Y-128295425D02*
X100500000Y-127160000D01*
D17*
X128073000Y-92157000D02*
X128073000Y-95063000D01*
D18*
X129413000Y-116703000D02*
X129413000Y-121677000D01*
D17*
X100790000Y-80570000D02*
X100070000Y-79850000D01*
D18*
X129413000Y-86233000D02*
X129413000Y-81213000D01*
D17*
%TO.N,~{WR}*%
X116713000Y-88467000D02*
X117940000Y-87240000D01*
X88747600Y-93929200D02*
X88747600Y-98127600D01*
X90135425Y-131165425D02*
X90135425Y-137460000D01*
X118020000Y-137710000D02*
X118020000Y-130780000D01*
X88723000Y-129753000D02*
X90135425Y-131165425D01*
X89947600Y-87582400D02*
X88747600Y-88782400D01*
X89960000Y-103960000D02*
X91730000Y-105730000D01*
X89947600Y-84567600D02*
X89947600Y-87582400D01*
X116748425Y-82528425D02*
X116748425Y-78613000D01*
X116750000Y-83680000D02*
X116750000Y-82530000D01*
X117940000Y-84870000D02*
X116750000Y-83680000D01*
X116748425Y-139563000D02*
X116748425Y-138981575D01*
X116713000Y-129473000D02*
X116713000Y-124323000D01*
X116713000Y-93853000D02*
X116713000Y-88467000D01*
X88747600Y-88782400D02*
X88747600Y-93929200D01*
X88723000Y-124410000D02*
X88723000Y-129753000D01*
X116748425Y-138981575D02*
X118020000Y-137710000D01*
X88640000Y-83260000D02*
X89947600Y-84567600D01*
X117940000Y-87240000D02*
X117940000Y-84870000D01*
X118020000Y-130780000D02*
X116713000Y-129473000D01*
X88747600Y-98127600D02*
X89960000Y-99340000D01*
X89960000Y-99340000D02*
X89960000Y-103960000D01*
X116750000Y-82530000D02*
X116748425Y-82528425D01*
X88640000Y-78580000D02*
X88640000Y-83260000D01*
X88646000Y-124333000D02*
X88723000Y-124410000D01*
X91730000Y-105730000D02*
X96220000Y-105730000D01*
X90135425Y-137460000D02*
X88935425Y-139563000D01*
%TO.N,~{RAS}*%
X91475425Y-138544575D02*
X91475425Y-139563000D01*
X120520000Y-87870000D02*
X119253000Y-89137000D01*
X118940000Y-124636000D02*
X118940000Y-128390000D01*
X92675425Y-137344575D02*
X91475425Y-138544575D01*
X119253000Y-124323000D02*
X118940000Y-124636000D01*
X91186000Y-129066000D02*
X92675425Y-130555425D01*
X135420000Y-105120000D02*
X135420000Y-96210000D01*
X119288425Y-82908425D02*
X120520000Y-84140000D01*
X120550000Y-137310000D02*
X119288425Y-138571575D01*
X134720000Y-105820000D02*
X135420000Y-105120000D01*
X91180000Y-82430000D02*
X92510000Y-83760000D01*
X91186000Y-124333000D02*
X91186000Y-129066000D01*
X120550000Y-130000000D02*
X120550000Y-137310000D01*
X91180000Y-78580000D02*
X91180000Y-82430000D01*
X91287600Y-90742400D02*
X91287600Y-93929200D01*
X118940000Y-128390000D02*
X120550000Y-130000000D01*
X120520000Y-84140000D02*
X120520000Y-87870000D01*
X92675425Y-130555425D02*
X92675425Y-137344575D01*
X119253000Y-89137000D02*
X119253000Y-93853000D01*
X119288425Y-138571575D02*
X119288425Y-139563000D01*
X92510000Y-83760000D02*
X92510000Y-89520000D01*
X92510000Y-89520000D02*
X91287600Y-90742400D01*
X119288425Y-78613000D02*
X119288425Y-82908425D01*
%TO.N,/A0*%
X124330000Y-101590000D02*
X124270000Y-101650000D01*
X98800000Y-80600000D02*
X100107600Y-81907600D01*
X126873000Y-91137000D02*
X126873000Y-93853000D01*
X128120000Y-138351425D02*
X128120000Y-127220000D01*
X128073000Y-82103000D02*
X128073000Y-89937000D01*
X100295425Y-128995425D02*
X100295425Y-137474575D01*
X98907600Y-93082400D02*
X98907600Y-93929200D01*
X128248425Y-75001575D02*
X128248425Y-68961575D01*
X129310000Y-67900000D02*
X129310000Y-65140000D01*
X98806000Y-127506000D02*
X100295425Y-128995425D01*
X125320000Y-102690000D02*
X125310000Y-102690000D01*
X98800000Y-78580000D02*
X98800000Y-80600000D01*
X129310000Y-65140000D02*
X128510000Y-64340000D01*
X126908425Y-80938425D02*
X128073000Y-82103000D01*
X125310000Y-102690000D02*
X124270000Y-101650000D01*
X128213000Y-113083000D02*
X125560000Y-110430000D01*
X128213000Y-120517000D02*
X128213000Y-113083000D01*
X99095425Y-138674575D02*
X99095425Y-139563000D01*
X100107600Y-91882400D02*
X98907600Y-93082400D01*
X98800000Y-78580000D02*
X98800000Y-75840000D01*
X100140000Y-63930000D02*
X100590000Y-63480000D01*
X100107600Y-81907600D02*
X100107600Y-91882400D01*
X125560000Y-110430000D02*
X125560000Y-102930000D01*
X126908425Y-78613000D02*
X126908425Y-76341575D01*
X126908425Y-76341575D02*
X128248425Y-75001575D01*
X126873000Y-97457000D02*
X124330000Y-100000000D01*
X128248425Y-68961575D02*
X129310000Y-67900000D01*
X128120000Y-127220000D02*
X126873000Y-125973000D01*
X126908425Y-78613000D02*
X126908425Y-80938425D01*
X100140000Y-74500000D02*
X100140000Y-63930000D01*
X126873000Y-93853000D02*
X126873000Y-97457000D01*
X98800000Y-75840000D02*
X100140000Y-74500000D01*
X124330000Y-100000000D02*
X124330000Y-101590000D01*
X98806000Y-124333000D02*
X98806000Y-127506000D01*
X126908425Y-139563000D02*
X128120000Y-138351425D01*
X125560000Y-102930000D02*
X125320000Y-102690000D01*
X126873000Y-125973000D02*
X126873000Y-124323000D01*
X100295425Y-137474575D02*
X99095425Y-138674575D01*
X126873000Y-124323000D02*
X126873000Y-121857000D01*
X126873000Y-121857000D02*
X128213000Y-120517000D01*
X128073000Y-89937000D02*
X126873000Y-91137000D01*
%TO.N,/A2*%
X98330000Y-68140000D02*
X98330000Y-65990000D01*
X125673000Y-83323000D02*
X125673000Y-89127000D01*
X97550000Y-70900000D02*
X97550000Y-68920000D01*
X125568425Y-130731575D02*
X125568425Y-137461575D01*
X124333000Y-93853000D02*
X124333000Y-96327000D01*
X125630000Y-113290000D02*
X125630000Y-119540000D01*
X125630000Y-119540000D02*
X124333000Y-120837000D01*
X97980000Y-68490000D02*
X98330000Y-68140000D01*
X124368425Y-138661575D02*
X124368425Y-139563000D01*
X96555425Y-138874575D02*
X96555425Y-139563000D01*
X122990000Y-110650000D02*
X125630000Y-113290000D01*
X96266000Y-124333000D02*
X96590000Y-124657000D01*
X96260000Y-78580000D02*
X96260000Y-80990000D01*
X125568425Y-137461575D02*
X124368425Y-138661575D01*
X97755425Y-129665425D02*
X97755425Y-137674575D01*
X121730000Y-101650000D02*
X121730000Y-102840000D01*
X124333000Y-96327000D02*
X121730000Y-98930000D01*
X124333000Y-125873000D02*
X126160000Y-127700000D01*
X124333000Y-124323000D02*
X124333000Y-125873000D01*
X96260000Y-80990000D02*
X97567600Y-82297600D01*
X96920000Y-74710000D02*
X97550000Y-74080000D01*
X124368425Y-75931575D02*
X125708425Y-74591575D01*
X96590000Y-128500000D02*
X97755425Y-129665425D01*
X124333000Y-120837000D02*
X124333000Y-124323000D01*
X125708425Y-69548425D02*
X124320000Y-68160000D01*
X122990000Y-104100000D02*
X122990000Y-110650000D01*
X96367600Y-91552400D02*
X96367600Y-93929200D01*
X96590000Y-124657000D02*
X96590000Y-128500000D01*
X97755425Y-137674575D02*
X96555425Y-138874575D01*
X125673000Y-89127000D02*
X124333000Y-90467000D01*
X124368425Y-78613000D02*
X124368425Y-75931575D01*
X124368425Y-78613000D02*
X124368425Y-82018425D01*
X97567600Y-82297600D02*
X97567600Y-90352400D01*
X124333000Y-90467000D02*
X124333000Y-93853000D01*
X97550000Y-74080000D02*
X97550000Y-70900000D01*
X126160000Y-130140000D02*
X125568425Y-130731575D01*
X121730000Y-98930000D02*
X121730000Y-101650000D01*
X96260000Y-78580000D02*
X96260000Y-75370000D01*
X121730000Y-102840000D02*
X122990000Y-104100000D01*
X97550000Y-68920000D02*
X97980000Y-68490000D01*
X124320000Y-68160000D02*
X124320000Y-67230000D01*
X125708425Y-74591575D02*
X125708425Y-69548425D01*
X126160000Y-127700000D02*
X126160000Y-130140000D01*
X124368425Y-82018425D02*
X125673000Y-83323000D01*
X97567600Y-90352400D02*
X96367600Y-91552400D01*
X96260000Y-75370000D02*
X96920000Y-74710000D01*
%TO.N,/A1*%
X125660000Y-81850000D02*
X126873000Y-83063000D01*
X96810000Y-112130000D02*
X96810000Y-114717000D01*
X126873000Y-86233000D02*
X126873000Y-89457000D01*
X126908425Y-74881575D02*
X125660000Y-76130000D01*
X96810000Y-114717000D02*
X98806000Y-116713000D01*
X98800000Y-70960000D02*
X98800000Y-74340000D01*
X124290000Y-110430000D02*
X124290000Y-108970000D01*
X98907600Y-90852400D02*
X97567600Y-92192400D01*
X99095425Y-129455425D02*
X99095425Y-131943000D01*
X125673000Y-126013000D02*
X125673000Y-121367000D01*
X97520000Y-122070000D02*
X97520000Y-127880000D01*
X98806000Y-120784000D02*
X97520000Y-122070000D01*
X125673000Y-90657000D02*
X125673000Y-96807000D01*
X126908425Y-127248425D02*
X125673000Y-126013000D01*
X126873000Y-113013000D02*
X124290000Y-110430000D01*
X124290000Y-108970000D02*
X124270000Y-108950000D01*
X97580000Y-111360000D02*
X96810000Y-112130000D01*
X125660000Y-76130000D02*
X125660000Y-81850000D01*
X97567600Y-98807600D02*
X97580000Y-98820000D01*
X126873000Y-89457000D02*
X125673000Y-90657000D01*
X125673000Y-96807000D02*
X123020000Y-99460000D01*
X98907600Y-86309200D02*
X98907600Y-90852400D01*
X97520000Y-127880000D02*
X99095425Y-129455425D01*
X126873000Y-83063000D02*
X126873000Y-86233000D01*
X123020000Y-102450000D02*
X124270000Y-103700000D01*
X98800000Y-74340000D02*
X97600000Y-75540000D01*
X126908425Y-131943000D02*
X126908425Y-127248425D01*
X123020000Y-99460000D02*
X123020000Y-102450000D01*
X126873000Y-116703000D02*
X126873000Y-113013000D01*
X98806000Y-116713000D02*
X98806000Y-120784000D01*
X97567600Y-92192400D02*
X97567600Y-98807600D01*
X97580000Y-98820000D02*
X97580000Y-111360000D01*
X126908425Y-70993000D02*
X126908425Y-74881575D01*
X97600000Y-80900000D02*
X98907600Y-82207600D01*
X124270000Y-103700000D02*
X124270000Y-108950000D01*
X98907600Y-82207600D02*
X98907600Y-86309200D01*
X125673000Y-121367000D02*
X126873000Y-120167000D01*
X97600000Y-75540000D02*
X97600000Y-80900000D01*
X126873000Y-120167000D02*
X126873000Y-116703000D01*
%TO.N,/A5*%
X94015425Y-139563000D02*
X94015425Y-138664575D01*
X121828425Y-138851575D02*
X121828425Y-139563000D01*
X95027600Y-90542400D02*
X95027600Y-82927600D01*
X121793000Y-95537000D02*
X119210000Y-98120000D01*
X121828425Y-139563000D02*
X120260000Y-142420000D01*
X123133000Y-83723000D02*
X121828425Y-82418425D01*
X95930000Y-142420000D02*
X94015425Y-140505425D01*
X121793000Y-128743000D02*
X123028425Y-129978425D01*
X121828425Y-78613000D02*
X121828425Y-75181575D01*
X121793000Y-93853000D02*
X121793000Y-95537000D01*
X123080000Y-69350000D02*
X122500000Y-68770000D01*
X94920000Y-73820000D02*
X94920000Y-65520000D01*
X120480000Y-111020000D02*
X120480000Y-105060000D01*
X119200000Y-103550000D02*
X119190000Y-103540000D01*
X93720000Y-75020000D02*
X94920000Y-73820000D01*
X95027600Y-82927600D02*
X93720000Y-81620000D01*
X121793000Y-93853000D02*
X121793000Y-89877000D01*
X95215425Y-137464575D02*
X95215425Y-130025425D01*
X121828425Y-82418425D02*
X121828425Y-78613000D01*
X121793000Y-124323000D02*
X121793000Y-128743000D01*
X121828425Y-75181575D02*
X123080000Y-73930000D01*
X93720000Y-81620000D02*
X93720000Y-78580000D01*
X121793000Y-120107000D02*
X123133000Y-118767000D01*
X94920000Y-65520000D02*
X95350000Y-65090000D01*
X119210000Y-98120000D02*
X119210000Y-101630000D01*
X94015425Y-138664575D02*
X95215425Y-137464575D01*
X121793000Y-124323000D02*
X121793000Y-120107000D01*
X119190000Y-103540000D02*
X119190000Y-101650000D01*
X123028425Y-137651575D02*
X121828425Y-138851575D01*
X120260000Y-142420000D02*
X95930000Y-142420000D01*
X94010000Y-128820000D02*
X94010000Y-124617000D01*
X93827600Y-91742400D02*
X95027600Y-90542400D01*
X119210000Y-101630000D02*
X119190000Y-101650000D01*
X120480000Y-105060000D02*
X119200000Y-103780000D01*
X123080000Y-73930000D02*
X123080000Y-69350000D01*
X95215425Y-130025425D02*
X94010000Y-128820000D01*
X123133000Y-113673000D02*
X120480000Y-111020000D01*
X121793000Y-89877000D02*
X123133000Y-88537000D01*
X94010000Y-124617000D02*
X93726000Y-124333000D01*
X93827600Y-93929200D02*
X93827600Y-91742400D01*
X123028425Y-129978425D02*
X123028425Y-137651575D01*
X93720000Y-78580000D02*
X93720000Y-75020000D01*
X123133000Y-88537000D02*
X123133000Y-83723000D01*
X123133000Y-118767000D02*
X123133000Y-113673000D01*
X122500000Y-66130000D02*
X122970000Y-65660000D01*
X94015425Y-140505425D02*
X94015425Y-139563000D01*
X119200000Y-103780000D02*
X119200000Y-103550000D01*
X122500000Y-68770000D02*
X122500000Y-66130000D01*
%TO.N,/A4*%
X95060000Y-81430000D02*
X95060000Y-75160000D01*
X122590000Y-128330000D02*
X122590000Y-125880000D01*
X96367600Y-82737600D02*
X95060000Y-81430000D01*
X124368425Y-131943000D02*
X124368425Y-130108425D01*
X123028425Y-75541575D02*
X124368425Y-74201575D01*
X124333000Y-83383000D02*
X123028425Y-82078425D01*
X124368425Y-130108425D02*
X122590000Y-128330000D01*
X120480000Y-103310000D02*
X120480000Y-98500000D01*
X124333000Y-86233000D02*
X124333000Y-83383000D01*
X96367600Y-86309200D02*
X96367600Y-82737600D01*
X96555425Y-131943000D02*
X96555425Y-129845425D01*
X124368425Y-74201575D02*
X124368425Y-70993000D01*
X95010000Y-128300000D02*
X95010000Y-121210000D01*
X121730000Y-104560000D02*
X120480000Y-103310000D01*
X123028425Y-82078425D02*
X123028425Y-75541575D01*
X124333000Y-88837000D02*
X124333000Y-86233000D01*
X122590000Y-125880000D02*
X123110000Y-125360000D01*
X95060000Y-75160000D02*
X96260000Y-73960000D01*
X121730000Y-110860000D02*
X121730000Y-108950000D01*
X96266000Y-119954000D02*
X96266000Y-116713000D01*
X96260000Y-67440000D02*
X96460000Y-67240000D01*
X96260000Y-70960000D02*
X96260000Y-67440000D01*
X95010000Y-121210000D02*
X96266000Y-119954000D01*
X124333000Y-113463000D02*
X121730000Y-110860000D01*
X123110000Y-125360000D02*
X123110000Y-120490000D01*
X124333000Y-116703000D02*
X124333000Y-113463000D01*
X123110000Y-95870000D02*
X123110000Y-90060000D01*
X123110000Y-120490000D02*
X124333000Y-119267000D01*
X96555425Y-129845425D02*
X95010000Y-128300000D01*
X123110000Y-90060000D02*
X124333000Y-88837000D01*
X96260000Y-73960000D02*
X96260000Y-70960000D01*
X121730000Y-108950000D02*
X121730000Y-104560000D01*
X124333000Y-119267000D02*
X124333000Y-116703000D01*
X120480000Y-98500000D02*
X123110000Y-95870000D01*
%TO.N,/A3*%
X120593000Y-89357000D02*
X121793000Y-88157000D01*
X93720000Y-73190000D02*
X92520000Y-74390000D01*
X119190000Y-111240000D02*
X119190000Y-108950000D01*
X120380000Y-127650000D02*
X120453000Y-127577000D01*
X120380000Y-128430000D02*
X120380000Y-127650000D01*
X121793000Y-118497000D02*
X121793000Y-116703000D01*
X117940000Y-104450000D02*
X117940000Y-97640000D01*
X93827600Y-83377600D02*
X93827600Y-86309200D01*
X121828425Y-73491575D02*
X120560000Y-74760000D01*
X92386000Y-128666000D02*
X94015425Y-130295425D01*
X120560000Y-82590000D02*
X121793000Y-83823000D01*
X92520000Y-74390000D02*
X92520000Y-82070000D01*
X92386000Y-120344000D02*
X92386000Y-128666000D01*
X121793000Y-88157000D02*
X121793000Y-86233000D01*
X121793000Y-83823000D02*
X121793000Y-86233000D01*
X121793000Y-116703000D02*
X121793000Y-113843000D01*
X92520000Y-82070000D02*
X93827600Y-83377600D01*
X117940000Y-97640000D02*
X120593000Y-94987000D01*
X120453000Y-127577000D02*
X120453000Y-119837000D01*
X121828425Y-129878425D02*
X120380000Y-128430000D01*
X94015425Y-130295425D02*
X94015425Y-131943000D01*
X119190000Y-105700000D02*
X117940000Y-104450000D01*
X121793000Y-113843000D02*
X119190000Y-111240000D01*
X120453000Y-119837000D02*
X121793000Y-118497000D01*
X93726000Y-119004000D02*
X92386000Y-120344000D01*
X121828425Y-70993000D02*
X121828425Y-73491575D01*
X121828425Y-131943000D02*
X121828425Y-129878425D01*
X119190000Y-108950000D02*
X119190000Y-105700000D01*
X120560000Y-74760000D02*
X120560000Y-82590000D01*
X120593000Y-94987000D02*
X120593000Y-89357000D01*
X93726000Y-116713000D02*
X93726000Y-119004000D01*
X93720000Y-70960000D02*
X93720000Y-73190000D01*
%TO.N,/A6*%
X89840000Y-120100000D02*
X89840000Y-121570000D01*
X89846000Y-121576000D02*
X89846000Y-126016000D01*
X118088425Y-83308425D02*
X118088425Y-74971575D01*
X91180000Y-70960000D02*
X91180000Y-74550000D01*
X89840000Y-121570000D02*
X89846000Y-121576000D01*
X119288425Y-130108425D02*
X119288425Y-131943000D01*
X117960000Y-122330000D02*
X117960000Y-128780000D01*
X92620000Y-64710000D02*
X92650000Y-64740000D01*
X95330000Y-62000000D02*
X92620000Y-64710000D01*
X117790000Y-64480000D02*
X114700000Y-64480000D01*
X112220000Y-62000000D02*
X95330000Y-62000000D01*
X115400000Y-111050000D02*
X115400000Y-106000000D01*
X90350000Y-126520000D02*
X90350000Y-129630000D01*
X92650000Y-64740000D02*
X92650000Y-68090000D01*
X118830000Y-114480000D02*
X115400000Y-111050000D01*
X114110000Y-104710000D02*
X114110000Y-101650000D01*
X118088425Y-74971575D02*
X119288425Y-73771575D01*
X119253000Y-86233000D02*
X119253000Y-84473000D01*
X115400000Y-106000000D02*
X114110000Y-104710000D01*
X118053000Y-88767000D02*
X119253000Y-87567000D01*
X117960000Y-128780000D02*
X119288425Y-130108425D01*
X118830000Y-116610000D02*
X118830000Y-114480000D01*
X89950000Y-75780000D02*
X89950000Y-82830000D01*
X89950000Y-82830000D02*
X91287600Y-84167600D01*
X119253000Y-87567000D02*
X119253000Y-86233000D01*
X119288425Y-70993000D02*
X119288425Y-65978425D01*
X119253000Y-116703000D02*
X119253000Y-121037000D01*
X119253000Y-121037000D02*
X117960000Y-122330000D01*
X119288425Y-73771575D02*
X119288425Y-70993000D01*
X114520000Y-100430000D02*
X114520000Y-101240000D01*
X89846000Y-126016000D02*
X90350000Y-126520000D01*
X119288425Y-65978425D02*
X117790000Y-64480000D01*
X114520000Y-100430000D02*
X114530000Y-98690000D01*
X114700000Y-64480000D02*
X112220000Y-62000000D01*
X119253000Y-84473000D02*
X118088425Y-83308425D01*
X91186000Y-116713000D02*
X91186000Y-118754000D01*
X119253000Y-116703000D02*
X118923000Y-116703000D01*
X91475425Y-130755425D02*
X91475425Y-131943000D01*
X114530000Y-98690000D02*
X118010000Y-95800000D01*
X118923000Y-116703000D02*
X118830000Y-116610000D01*
X91180000Y-74550000D02*
X89950000Y-75780000D01*
X90350000Y-129630000D02*
X91475425Y-130755425D01*
X91287600Y-84167600D02*
X91287600Y-86309200D01*
X118010000Y-95800000D02*
X118053000Y-88767000D01*
X91186000Y-118754000D02*
X89840000Y-120100000D01*
X114520000Y-101240000D02*
X114110000Y-101650000D01*
X91180000Y-69560000D02*
X91180000Y-70960000D01*
X92650000Y-68090000D02*
X91180000Y-69560000D01*
%TO.N,/DO7*%
X90720000Y-114690000D02*
X89890000Y-115520000D01*
X88600000Y-121390000D02*
X87446000Y-122544000D01*
X88600000Y-118820000D02*
X88600000Y-121390000D01*
X87523000Y-130530575D02*
X88935425Y-131943000D01*
X87446000Y-122544000D02*
X87446000Y-127939000D01*
X89890000Y-115520000D02*
X89890000Y-117530000D01*
X87446000Y-127939000D02*
X87523000Y-128016000D01*
X86170000Y-108950000D02*
X90740000Y-112750000D01*
X89890000Y-117530000D02*
X88600000Y-118820000D01*
X90740000Y-112750000D02*
X90720000Y-114690000D01*
X87523000Y-128016000D02*
X87523000Y-130530575D01*
%TO.N,~{CAS}*%
X84820000Y-121360000D02*
X84820000Y-130367575D01*
X116650000Y-101650000D02*
X116650000Y-105250000D01*
X114173000Y-81063000D02*
X112870000Y-79760000D01*
X114173000Y-89727000D02*
X112973000Y-90927000D01*
X86207600Y-83497600D02*
X86207600Y-86309200D01*
X84900000Y-75660000D02*
X84900000Y-82190000D01*
X114173000Y-86233000D02*
X114173000Y-81063000D01*
X84900000Y-82190000D02*
X86207600Y-83497600D01*
X114173000Y-119787000D02*
X114173000Y-116703000D01*
X117940000Y-111960000D02*
X120300000Y-114320000D01*
X112973000Y-125143000D02*
X112973000Y-120987000D01*
X86106000Y-116713000D02*
X86106000Y-120074000D01*
X114208425Y-131943000D02*
X114208425Y-127628425D01*
X112973000Y-99453000D02*
X113010000Y-99490000D01*
X114208425Y-74581575D02*
X114208425Y-70993000D01*
X112870000Y-79760000D02*
X112870000Y-75920000D01*
X116650000Y-105250000D02*
X117940000Y-106540000D01*
X112973000Y-90927000D02*
X112973000Y-99453000D01*
X112973000Y-120987000D02*
X114173000Y-119787000D01*
X113000000Y-125170000D02*
X112973000Y-125143000D01*
X117940000Y-106540000D02*
X117940000Y-111960000D01*
X113000000Y-126420000D02*
X113000000Y-125170000D01*
X86106000Y-120074000D02*
X84820000Y-121360000D01*
X84820000Y-130367575D02*
X86395425Y-131943000D01*
X112870000Y-75920000D02*
X114208425Y-74581575D01*
X114208425Y-127628425D02*
X113000000Y-126420000D01*
X86100000Y-74460000D02*
X84900000Y-75660000D01*
X86100000Y-70960000D02*
X86100000Y-74460000D01*
X114173000Y-86233000D02*
X114173000Y-89727000D01*
%TO.N,/DO6*%
X87850000Y-65586000D02*
X87850000Y-69400000D01*
X88640000Y-70190000D02*
X88640000Y-70960000D01*
X90063000Y-63373000D02*
X87850000Y-65586000D01*
X87850000Y-69400000D02*
X88640000Y-70190000D01*
%TO.N,/DI5*%
X86106000Y-122284000D02*
X86106000Y-124333000D01*
X82360000Y-111750000D02*
X82810000Y-112110000D01*
X82340000Y-107450000D02*
X82360000Y-111750000D01*
X93790000Y-108950000D02*
X93790000Y-108260000D01*
X83250000Y-106540000D02*
X82340000Y-107450000D01*
X87350000Y-115330000D02*
X87390000Y-121000000D01*
X83370000Y-112500000D02*
X87350000Y-115330000D01*
X92070000Y-106540000D02*
X83250000Y-106540000D01*
X87390000Y-121000000D02*
X86106000Y-122284000D01*
X82810000Y-112110000D02*
X83370000Y-112500000D01*
X93790000Y-108260000D02*
X92070000Y-106540000D01*
%TO.N,/DO5*%
X88646000Y-116713000D02*
X88646000Y-114054000D01*
X88646000Y-114054000D02*
X88650000Y-114050000D01*
X83610000Y-110340000D02*
X87900000Y-113240000D01*
X83630000Y-108950000D02*
X83610000Y-110340000D01*
X88650000Y-113990000D02*
X88650000Y-114050000D01*
X87900000Y-113240000D02*
X88650000Y-113990000D01*
%TO.N,/DI4*%
X112070000Y-114730000D02*
X110300000Y-112960000D01*
X113560000Y-114730000D02*
X112070000Y-114730000D01*
X114173000Y-124323000D02*
X114173000Y-121807000D01*
X115460000Y-120520000D02*
X115460000Y-116310000D01*
X115040000Y-120940000D02*
X115460000Y-120520000D01*
X114610000Y-114730000D02*
X113560000Y-114730000D01*
X115460000Y-115580000D02*
X114970000Y-115090000D01*
X115460000Y-116310000D02*
X115460000Y-115580000D01*
X114970000Y-115090000D02*
X114610000Y-114730000D01*
X114173000Y-121807000D02*
X115040000Y-120940000D01*
%TO.N,/DO4*%
X100120000Y-109910000D02*
X100980000Y-110770000D01*
X116713000Y-116703000D02*
X116713000Y-115503000D01*
X116713000Y-115503000D02*
X113940000Y-112730000D01*
X113940000Y-112730000D02*
X112870000Y-112730000D01*
X101410000Y-104460000D02*
X100120000Y-105750000D01*
X100980000Y-110770000D02*
X102620000Y-110770000D01*
X100120000Y-105750000D02*
X100120000Y-109910000D01*
X101410000Y-101650000D02*
X101410000Y-104460000D01*
%TO.N,/DI3*%
X89960000Y-89780000D02*
X90890000Y-88850000D01*
X91250000Y-101650000D02*
X91250000Y-99000000D01*
X89960000Y-97710000D02*
X89960000Y-93920000D01*
X90650000Y-98400000D02*
X89960000Y-97710000D01*
X89960000Y-93920000D02*
X89960000Y-89780000D01*
X91250000Y-99000000D02*
X90650000Y-98400000D01*
%TO.N,/DO3*%
X114160000Y-68890000D02*
X114170000Y-68900000D01*
X101410000Y-106460000D02*
X101410000Y-108950000D01*
X114160000Y-67056000D02*
X114160000Y-68890000D01*
X104890000Y-90530000D02*
X103880000Y-91540000D01*
X114170000Y-68900000D02*
X109970000Y-68900000D01*
X114655425Y-68900000D02*
X114170000Y-68900000D01*
X109970000Y-68900000D02*
X108330000Y-70540000D01*
X116748425Y-70993000D02*
X114655425Y-68900000D01*
X103880000Y-98150000D02*
X102700000Y-99330000D01*
X102700000Y-99330000D02*
X102700000Y-105170000D01*
X103880000Y-91540000D02*
X103880000Y-98150000D01*
X108330000Y-78780000D02*
X104890000Y-82220000D01*
X108330000Y-70540000D02*
X108330000Y-78780000D01*
X104890000Y-82220000D02*
X104890000Y-90530000D01*
X102700000Y-105170000D02*
X101410000Y-106460000D01*
%TO.N,/DI2*%
X108540000Y-140620000D02*
X108540000Y-129650000D01*
X114208425Y-139563000D02*
X114208425Y-140271575D01*
X113240000Y-141240000D02*
X109160000Y-141240000D01*
X109160000Y-141240000D02*
X108540000Y-140620000D01*
X103910000Y-114420000D02*
X103990000Y-114340000D01*
X114208425Y-140271575D02*
X113240000Y-141240000D01*
X103910000Y-125020000D02*
X103910000Y-114420000D01*
X108540000Y-129650000D02*
X103910000Y-125020000D01*
%TO.N,/DO2*%
X117913000Y-115293000D02*
X111570000Y-108950000D01*
X117913000Y-120137000D02*
X117913000Y-115293000D01*
X115513000Y-130243000D02*
X115513000Y-122537000D01*
X116748425Y-131478425D02*
X115513000Y-130243000D01*
X115513000Y-122537000D02*
X117913000Y-120137000D01*
X116748425Y-131943000D02*
X116748425Y-131478425D01*
%TO.N,/DO1*%
X116713000Y-86233000D02*
X116713000Y-86637000D01*
X116713000Y-85693000D02*
X116713000Y-86233000D01*
X116693000Y-67056000D02*
X117960000Y-68323000D01*
X115480000Y-76200000D02*
X115480000Y-84460000D01*
X115373000Y-96167000D02*
X115250000Y-96290000D01*
X117960000Y-71840000D02*
X116570000Y-73230000D01*
X116570000Y-75110000D02*
X115480000Y-76200000D01*
X116570000Y-73230000D02*
X116570000Y-75110000D01*
X115373000Y-87977000D02*
X115373000Y-96167000D01*
X115480000Y-84460000D02*
X116713000Y-85693000D01*
X116713000Y-86637000D02*
X115373000Y-87977000D01*
X117960000Y-68323000D02*
X117960000Y-71840000D01*
%TO.N,/DI0*%
X81090000Y-99046800D02*
X86207600Y-93929200D01*
X81090000Y-101650000D02*
X81090000Y-99046800D01*
%TO.N,/DO0*%
X81090000Y-106420000D02*
X81090000Y-108950000D01*
X89980000Y-74140000D02*
X87390000Y-76730000D01*
X88747600Y-86309200D02*
X87340000Y-87716800D01*
X87407600Y-96222400D02*
X84880000Y-98750000D01*
X90063000Y-67183000D02*
X89980000Y-67266000D01*
X84880000Y-102630000D02*
X81090000Y-106420000D01*
X87340000Y-88760000D02*
X87407600Y-88827600D01*
X89980000Y-67266000D02*
X89980000Y-74140000D01*
X87390000Y-76730000D02*
X87390000Y-84490000D01*
X87407600Y-88827600D02*
X87407600Y-96222400D01*
X87340000Y-87716800D02*
X87340000Y-88760000D01*
X87390000Y-84490000D02*
X88747600Y-85847600D01*
X88747600Y-85847600D02*
X88747600Y-86309200D01*
X84880000Y-98750000D02*
X84880000Y-102630000D01*
%TD*%
M02*
