%TF.GenerationSoftware,KiCad,Pcbnew,7.0.7*%
%TF.CreationDate,2023-11-11T16:10:02+00:00*%
%TF.ProjectId,Lynx-MK1-MEM,4c796e78-2d4d-44b3-912d-4d454d2e6b69,rev?*%
%TF.SameCoordinates,Original*%
%TF.FileFunction,Drillmap*%
%TF.FilePolarity,Positive*%
%FSLAX45Y45*%
G04 Gerber Fmt 4.5, Leading zero omitted, Abs format (unit mm)*
G04 Created by KiCad (PCBNEW 7.0.7) date 2023-11-11 16:10:02*
%MOMM*%
%LPD*%
G01*
G04 APERTURE LIST*
%ADD10C,0.100000*%
%ADD11C,0.200000*%
%ADD12C,0.080000*%
G04 APERTURE END LIST*
D10*
X7556500Y-5918200D02*
X13804900Y-5918200D01*
X13804900Y-14490700D01*
X7556500Y-14490700D01*
X7556500Y-5918200D01*
D11*
D12*
X9049000Y-8845000D02*
X9129000Y-8925000D01*
X9129000Y-8845000D02*
X9049000Y-8925000D01*
X9495000Y-6469000D02*
X9575000Y-6549000D01*
X9575000Y-6469000D02*
X9495000Y-6549000D01*
X9582000Y-10533000D02*
X9662000Y-10613000D01*
X9662000Y-10533000D02*
X9582000Y-10613000D01*
X9606000Y-6684000D02*
X9686000Y-6764000D01*
X9686000Y-6684000D02*
X9606000Y-6764000D01*
X9793000Y-6559000D02*
X9873000Y-6639000D01*
X9873000Y-6559000D02*
X9793000Y-6639000D01*
X10019000Y-6308000D02*
X10099000Y-6388000D01*
X10099000Y-6308000D02*
X10019000Y-6388000D01*
X10222000Y-11037000D02*
X10302000Y-11117000D01*
X10302000Y-11037000D02*
X10222000Y-11117000D01*
X10359000Y-11394000D02*
X10439000Y-11474000D01*
X10439000Y-11394000D02*
X10359000Y-11474000D01*
X10990000Y-11256000D02*
X11070000Y-11336000D01*
X11070000Y-11256000D02*
X10990000Y-11336000D01*
X11247000Y-11233000D02*
X11327000Y-11313000D01*
X11327000Y-11233000D02*
X11247000Y-11313000D01*
X11261000Y-9909000D02*
X11341000Y-9989000D01*
X11341000Y-9909000D02*
X11261000Y-9989000D01*
X11485000Y-9589000D02*
X11565000Y-9669000D01*
X11565000Y-9589000D02*
X11485000Y-9669000D01*
X11990000Y-11392000D02*
X12070000Y-11472000D01*
X12070000Y-11392000D02*
X11990000Y-11472000D01*
X11998000Y-12725000D02*
X12078000Y-12805000D01*
X12078000Y-12725000D02*
X11998000Y-12805000D01*
X12257000Y-6526000D02*
X12337000Y-6606000D01*
X12337000Y-6526000D02*
X12257000Y-6606000D01*
X12392000Y-6683000D02*
X12472000Y-6763000D01*
X12472000Y-6683000D02*
X12392000Y-6763000D01*
X12811000Y-6394000D02*
X12891000Y-6474000D01*
X12891000Y-6394000D02*
X12811000Y-6474000D01*
X13432000Y-10542000D02*
X13512000Y-10622000D01*
X13512000Y-10542000D02*
X13432000Y-10622000D01*
X13502000Y-9581000D02*
X13582000Y-9661000D01*
X13582000Y-9581000D02*
X13502000Y-9661000D01*
X7776300Y-12801600D02*
G75*
G03*
X7776300Y-12801600I-40000J0D01*
G01*
X8017000Y-11797000D02*
G75*
G03*
X8017000Y-11797000I-40000J0D01*
G01*
X8017000Y-12297000D02*
G75*
G03*
X8017000Y-12297000I-40000J0D01*
G01*
X8019000Y-8759000D02*
G75*
G03*
X8019000Y-8759000I-40000J0D01*
G01*
X8019000Y-9259000D02*
G75*
G03*
X8019000Y-9259000I-40000J0D01*
G01*
X8028300Y-7230300D02*
G75*
G03*
X8028300Y-7230300I-40000J0D01*
G01*
X8028300Y-7730300D02*
G75*
G03*
X8028300Y-7730300I-40000J0D01*
G01*
X8030300Y-6337300D02*
G75*
G03*
X8030300Y-6337300I-40000J0D01*
G01*
X8030300Y-6718300D02*
G75*
G03*
X8030300Y-6718300I-40000J0D01*
G01*
X8041000Y-13326300D02*
G75*
G03*
X8041000Y-13326300I-40000J0D01*
G01*
X8041000Y-13826300D02*
G75*
G03*
X8041000Y-13826300I-40000J0D01*
G01*
X8396000Y-7096000D02*
G75*
G03*
X8396000Y-7096000I-40000J0D01*
G01*
X8396000Y-7858000D02*
G75*
G03*
X8396000Y-7858000I-40000J0D01*
G01*
X8396600Y-11671300D02*
G75*
G03*
X8396600Y-11671300I-40000J0D01*
G01*
X8396600Y-12433300D02*
G75*
G03*
X8396600Y-12433300I-40000J0D01*
G01*
X8406760Y-8630920D02*
G75*
G03*
X8406760Y-8630920I-40000J0D01*
G01*
X8406760Y-9392920D02*
G75*
G03*
X8406760Y-9392920I-40000J0D01*
G01*
X8425543Y-13194300D02*
G75*
G03*
X8425543Y-13194300I-40000J0D01*
G01*
X8425543Y-13956300D02*
G75*
G03*
X8425543Y-13956300I-40000J0D01*
G01*
X8650000Y-7096000D02*
G75*
G03*
X8650000Y-7096000I-40000J0D01*
G01*
X8650000Y-7858000D02*
G75*
G03*
X8650000Y-7858000I-40000J0D01*
G01*
X8650600Y-11671300D02*
G75*
G03*
X8650600Y-11671300I-40000J0D01*
G01*
X8650600Y-12433300D02*
G75*
G03*
X8650600Y-12433300I-40000J0D01*
G01*
X8660760Y-8630920D02*
G75*
G03*
X8660760Y-8630920I-40000J0D01*
G01*
X8660760Y-9392920D02*
G75*
G03*
X8660760Y-9392920I-40000J0D01*
G01*
X8679543Y-13194300D02*
G75*
G03*
X8679543Y-13194300I-40000J0D01*
G01*
X8679543Y-13956300D02*
G75*
G03*
X8679543Y-13956300I-40000J0D01*
G01*
X8792300Y-12801600D02*
G75*
G03*
X8792300Y-12801600I-40000J0D01*
G01*
X8904000Y-7096000D02*
G75*
G03*
X8904000Y-7096000I-40000J0D01*
G01*
X8904000Y-7858000D02*
G75*
G03*
X8904000Y-7858000I-40000J0D01*
G01*
X8904600Y-11671300D02*
G75*
G03*
X8904600Y-11671300I-40000J0D01*
G01*
X8904600Y-12433300D02*
G75*
G03*
X8904600Y-12433300I-40000J0D01*
G01*
X8905000Y-11405000D02*
G75*
G03*
X8905000Y-11405000I-40000J0D01*
G01*
X8914760Y-8630920D02*
G75*
G03*
X8914760Y-8630920I-40000J0D01*
G01*
X8914760Y-9392920D02*
G75*
G03*
X8914760Y-9392920I-40000J0D01*
G01*
X8933543Y-13194300D02*
G75*
G03*
X8933543Y-13194300I-40000J0D01*
G01*
X8933543Y-13956300D02*
G75*
G03*
X8933543Y-13956300I-40000J0D01*
G01*
X9046300Y-6337300D02*
G75*
G03*
X9046300Y-6337300I-40000J0D01*
G01*
X9046300Y-6718300D02*
G75*
G03*
X9046300Y-6718300I-40000J0D01*
G01*
X9158000Y-7096000D02*
G75*
G03*
X9158000Y-7096000I-40000J0D01*
G01*
X9158000Y-7858000D02*
G75*
G03*
X9158000Y-7858000I-40000J0D01*
G01*
X9158600Y-11671300D02*
G75*
G03*
X9158600Y-11671300I-40000J0D01*
G01*
X9158600Y-12433300D02*
G75*
G03*
X9158600Y-12433300I-40000J0D01*
G01*
X9168760Y-8630920D02*
G75*
G03*
X9168760Y-8630920I-40000J0D01*
G01*
X9168760Y-9392920D02*
G75*
G03*
X9168760Y-9392920I-40000J0D01*
G01*
X9187543Y-13194300D02*
G75*
G03*
X9187543Y-13194300I-40000J0D01*
G01*
X9187543Y-13956300D02*
G75*
G03*
X9187543Y-13956300I-40000J0D01*
G01*
X9412000Y-7096000D02*
G75*
G03*
X9412000Y-7096000I-40000J0D01*
G01*
X9412000Y-7858000D02*
G75*
G03*
X9412000Y-7858000I-40000J0D01*
G01*
X9412600Y-11671300D02*
G75*
G03*
X9412600Y-11671300I-40000J0D01*
G01*
X9412600Y-12433300D02*
G75*
G03*
X9412600Y-12433300I-40000J0D01*
G01*
X9422760Y-8630920D02*
G75*
G03*
X9422760Y-8630920I-40000J0D01*
G01*
X9422760Y-9392920D02*
G75*
G03*
X9422760Y-9392920I-40000J0D01*
G01*
X9441543Y-13194300D02*
G75*
G03*
X9441543Y-13194300I-40000J0D01*
G01*
X9441543Y-13956300D02*
G75*
G03*
X9441543Y-13956300I-40000J0D01*
G01*
X9666000Y-7096000D02*
G75*
G03*
X9666000Y-7096000I-40000J0D01*
G01*
X9666000Y-7858000D02*
G75*
G03*
X9666000Y-7858000I-40000J0D01*
G01*
X9666600Y-11671300D02*
G75*
G03*
X9666600Y-11671300I-40000J0D01*
G01*
X9666600Y-12433300D02*
G75*
G03*
X9666600Y-12433300I-40000J0D01*
G01*
X9676760Y-8630920D02*
G75*
G03*
X9676760Y-8630920I-40000J0D01*
G01*
X9676760Y-9392920D02*
G75*
G03*
X9676760Y-9392920I-40000J0D01*
G01*
X9695543Y-13194300D02*
G75*
G03*
X9695543Y-13194300I-40000J0D01*
G01*
X9695543Y-13956300D02*
G75*
G03*
X9695543Y-13956300I-40000J0D01*
G01*
X9920000Y-7096000D02*
G75*
G03*
X9920000Y-7096000I-40000J0D01*
G01*
X9920000Y-7858000D02*
G75*
G03*
X9920000Y-7858000I-40000J0D01*
G01*
X9920600Y-11671300D02*
G75*
G03*
X9920600Y-11671300I-40000J0D01*
G01*
X9920600Y-12433300D02*
G75*
G03*
X9920600Y-12433300I-40000J0D01*
G01*
X9921000Y-11405000D02*
G75*
G03*
X9921000Y-11405000I-40000J0D01*
G01*
X9930760Y-8630920D02*
G75*
G03*
X9930760Y-8630920I-40000J0D01*
G01*
X9930760Y-9392920D02*
G75*
G03*
X9930760Y-9392920I-40000J0D01*
G01*
X9949543Y-13194300D02*
G75*
G03*
X9949543Y-13194300I-40000J0D01*
G01*
X9949543Y-13956300D02*
G75*
G03*
X9949543Y-13956300I-40000J0D01*
G01*
X10174000Y-7096000D02*
G75*
G03*
X10174000Y-7096000I-40000J0D01*
G01*
X10174000Y-7858000D02*
G75*
G03*
X10174000Y-7858000I-40000J0D01*
G01*
X10174600Y-11671300D02*
G75*
G03*
X10174600Y-11671300I-40000J0D01*
G01*
X10174600Y-12433300D02*
G75*
G03*
X10174600Y-12433300I-40000J0D01*
G01*
X10184760Y-8630920D02*
G75*
G03*
X10184760Y-8630920I-40000J0D01*
G01*
X10184760Y-9392920D02*
G75*
G03*
X10184760Y-9392920I-40000J0D01*
G01*
X10203543Y-13194300D02*
G75*
G03*
X10203543Y-13194300I-40000J0D01*
G01*
X10203543Y-13956300D02*
G75*
G03*
X10203543Y-13956300I-40000J0D01*
G01*
X10440000Y-6705600D02*
G75*
G03*
X10440000Y-6705600I-40000J0D01*
G01*
X10695300Y-7230300D02*
G75*
G03*
X10695300Y-7230300I-40000J0D01*
G01*
X10695300Y-7730300D02*
G75*
G03*
X10695300Y-7730300I-40000J0D01*
G01*
X10695300Y-8754300D02*
G75*
G03*
X10695300Y-8754300I-40000J0D01*
G01*
X10695300Y-9254300D02*
G75*
G03*
X10695300Y-9254300I-40000J0D01*
G01*
X10708000Y-11802300D02*
G75*
G03*
X10708000Y-11802300I-40000J0D01*
G01*
X10708000Y-12302300D02*
G75*
G03*
X10708000Y-12302300I-40000J0D01*
G01*
X10708000Y-13313600D02*
G75*
G03*
X10708000Y-13313600I-40000J0D01*
G01*
X10708000Y-13813600D02*
G75*
G03*
X10708000Y-13813600I-40000J0D01*
G01*
X11203300Y-8623300D02*
G75*
G03*
X11203300Y-8623300I-40000J0D01*
G01*
X11203300Y-9385300D02*
G75*
G03*
X11203300Y-9385300I-40000J0D01*
G01*
X11203300Y-11670300D02*
G75*
G03*
X11203300Y-11670300I-40000J0D01*
G01*
X11203300Y-12432300D02*
G75*
G03*
X11203300Y-12432300I-40000J0D01*
G01*
X11206842Y-7099300D02*
G75*
G03*
X11206842Y-7099300I-40000J0D01*
G01*
X11206842Y-7861300D02*
G75*
G03*
X11206842Y-7861300I-40000J0D01*
G01*
X11206842Y-13194300D02*
G75*
G03*
X11206842Y-13194300I-40000J0D01*
G01*
X11206842Y-13956300D02*
G75*
G03*
X11206842Y-13956300I-40000J0D01*
G01*
X11456000Y-6705600D02*
G75*
G03*
X11456000Y-6705600I-40000J0D01*
G01*
X11457300Y-8623300D02*
G75*
G03*
X11457300Y-8623300I-40000J0D01*
G01*
X11457300Y-9385300D02*
G75*
G03*
X11457300Y-9385300I-40000J0D01*
G01*
X11457300Y-11670300D02*
G75*
G03*
X11457300Y-11670300I-40000J0D01*
G01*
X11457300Y-12432300D02*
G75*
G03*
X11457300Y-12432300I-40000J0D01*
G01*
X11460842Y-7099300D02*
G75*
G03*
X11460842Y-7099300I-40000J0D01*
G01*
X11460842Y-7861300D02*
G75*
G03*
X11460842Y-7861300I-40000J0D01*
G01*
X11460842Y-13194300D02*
G75*
G03*
X11460842Y-13194300I-40000J0D01*
G01*
X11460842Y-13956300D02*
G75*
G03*
X11460842Y-13956300I-40000J0D01*
G01*
X11709300Y-6705600D02*
G75*
G03*
X11709300Y-6705600I-40000J0D01*
G01*
X11711300Y-8623300D02*
G75*
G03*
X11711300Y-8623300I-40000J0D01*
G01*
X11711300Y-9385300D02*
G75*
G03*
X11711300Y-9385300I-40000J0D01*
G01*
X11711300Y-11670300D02*
G75*
G03*
X11711300Y-11670300I-40000J0D01*
G01*
X11711300Y-12432300D02*
G75*
G03*
X11711300Y-12432300I-40000J0D01*
G01*
X11714842Y-7099300D02*
G75*
G03*
X11714842Y-7099300I-40000J0D01*
G01*
X11714842Y-7861300D02*
G75*
G03*
X11714842Y-7861300I-40000J0D01*
G01*
X11714842Y-13194300D02*
G75*
G03*
X11714842Y-13194300I-40000J0D01*
G01*
X11714842Y-13956300D02*
G75*
G03*
X11714842Y-13956300I-40000J0D01*
G01*
X11965300Y-8623300D02*
G75*
G03*
X11965300Y-8623300I-40000J0D01*
G01*
X11965300Y-9385300D02*
G75*
G03*
X11965300Y-9385300I-40000J0D01*
G01*
X11965300Y-11670300D02*
G75*
G03*
X11965300Y-11670300I-40000J0D01*
G01*
X11965300Y-12432300D02*
G75*
G03*
X11965300Y-12432300I-40000J0D01*
G01*
X11968842Y-7099300D02*
G75*
G03*
X11968842Y-7099300I-40000J0D01*
G01*
X11968842Y-7861300D02*
G75*
G03*
X11968842Y-7861300I-40000J0D01*
G01*
X11968842Y-13194300D02*
G75*
G03*
X11968842Y-13194300I-40000J0D01*
G01*
X11968842Y-13956300D02*
G75*
G03*
X11968842Y-13956300I-40000J0D01*
G01*
X12219300Y-8623300D02*
G75*
G03*
X12219300Y-8623300I-40000J0D01*
G01*
X12219300Y-9385300D02*
G75*
G03*
X12219300Y-9385300I-40000J0D01*
G01*
X12219300Y-11670300D02*
G75*
G03*
X12219300Y-11670300I-40000J0D01*
G01*
X12219300Y-12432300D02*
G75*
G03*
X12219300Y-12432300I-40000J0D01*
G01*
X12222842Y-7099300D02*
G75*
G03*
X12222842Y-7099300I-40000J0D01*
G01*
X12222842Y-7861300D02*
G75*
G03*
X12222842Y-7861300I-40000J0D01*
G01*
X12222842Y-13194300D02*
G75*
G03*
X12222842Y-13194300I-40000J0D01*
G01*
X12222842Y-13956300D02*
G75*
G03*
X12222842Y-13956300I-40000J0D01*
G01*
X12473300Y-8623300D02*
G75*
G03*
X12473300Y-8623300I-40000J0D01*
G01*
X12473300Y-9385300D02*
G75*
G03*
X12473300Y-9385300I-40000J0D01*
G01*
X12473300Y-11670300D02*
G75*
G03*
X12473300Y-11670300I-40000J0D01*
G01*
X12473300Y-12432300D02*
G75*
G03*
X12473300Y-12432300I-40000J0D01*
G01*
X12476842Y-7099300D02*
G75*
G03*
X12476842Y-7099300I-40000J0D01*
G01*
X12476842Y-7861300D02*
G75*
G03*
X12476842Y-7861300I-40000J0D01*
G01*
X12476842Y-13194300D02*
G75*
G03*
X12476842Y-13194300I-40000J0D01*
G01*
X12476842Y-13956300D02*
G75*
G03*
X12476842Y-13956300I-40000J0D01*
G01*
X12500700Y-12814300D02*
G75*
G03*
X12500700Y-12814300I-40000J0D01*
G01*
X12725300Y-6705600D02*
G75*
G03*
X12725300Y-6705600I-40000J0D01*
G01*
X12727300Y-8623300D02*
G75*
G03*
X12727300Y-8623300I-40000J0D01*
G01*
X12727300Y-9385300D02*
G75*
G03*
X12727300Y-9385300I-40000J0D01*
G01*
X12727300Y-11670300D02*
G75*
G03*
X12727300Y-11670300I-40000J0D01*
G01*
X12727300Y-12432300D02*
G75*
G03*
X12727300Y-12432300I-40000J0D01*
G01*
X12730842Y-7099300D02*
G75*
G03*
X12730842Y-7099300I-40000J0D01*
G01*
X12730842Y-7861300D02*
G75*
G03*
X12730842Y-7861300I-40000J0D01*
G01*
X12730842Y-13194300D02*
G75*
G03*
X12730842Y-13194300I-40000J0D01*
G01*
X12730842Y-13956300D02*
G75*
G03*
X12730842Y-13956300I-40000J0D01*
G01*
X12981300Y-8623300D02*
G75*
G03*
X12981300Y-8623300I-40000J0D01*
G01*
X12981300Y-9385300D02*
G75*
G03*
X12981300Y-9385300I-40000J0D01*
G01*
X12981300Y-11670300D02*
G75*
G03*
X12981300Y-11670300I-40000J0D01*
G01*
X12981300Y-12432300D02*
G75*
G03*
X12981300Y-12432300I-40000J0D01*
G01*
X12984842Y-7099300D02*
G75*
G03*
X12984842Y-7099300I-40000J0D01*
G01*
X12984842Y-7861300D02*
G75*
G03*
X12984842Y-7861300I-40000J0D01*
G01*
X12984842Y-13194300D02*
G75*
G03*
X12984842Y-13194300I-40000J0D01*
G01*
X12984842Y-13956300D02*
G75*
G03*
X12984842Y-13956300I-40000J0D01*
G01*
X13349600Y-13313600D02*
G75*
G03*
X13349600Y-13313600I-40000J0D01*
G01*
X13349600Y-13813600D02*
G75*
G03*
X13349600Y-13813600I-40000J0D01*
G01*
X13362300Y-7217600D02*
G75*
G03*
X13362300Y-7217600I-40000J0D01*
G01*
X13362300Y-7717600D02*
G75*
G03*
X13362300Y-7717600I-40000J0D01*
G01*
X13362300Y-8728900D02*
G75*
G03*
X13362300Y-8728900I-40000J0D01*
G01*
X13362300Y-9228900D02*
G75*
G03*
X13362300Y-9228900I-40000J0D01*
G01*
X13362300Y-11789600D02*
G75*
G03*
X13362300Y-11789600I-40000J0D01*
G01*
X13362300Y-12289600D02*
G75*
G03*
X13362300Y-12289600I-40000J0D01*
G01*
X13375000Y-10250900D02*
G75*
G03*
X13375000Y-10250900I-40000J0D01*
G01*
X13375000Y-11266900D02*
G75*
G03*
X13375000Y-11266900I-40000J0D01*
G01*
X13516700Y-12814300D02*
G75*
G03*
X13516700Y-12814300I-40000J0D01*
G01*
D10*
X8109000Y-10115000D02*
X8109000Y-10215000D01*
X8059000Y-10165000D02*
X8159000Y-10165000D01*
X8109000Y-10845000D02*
X8109000Y-10945000D01*
X8059000Y-10895000D02*
X8159000Y-10895000D01*
X8363000Y-10115000D02*
X8363000Y-10215000D01*
X8313000Y-10165000D02*
X8413000Y-10165000D01*
X8363000Y-10845000D02*
X8363000Y-10945000D01*
X8313000Y-10895000D02*
X8413000Y-10895000D01*
X8617000Y-10115000D02*
X8617000Y-10215000D01*
X8567000Y-10165000D02*
X8667000Y-10165000D01*
X8617000Y-10845000D02*
X8617000Y-10945000D01*
X8567000Y-10895000D02*
X8667000Y-10895000D01*
X8871000Y-10115000D02*
X8871000Y-10215000D01*
X8821000Y-10165000D02*
X8921000Y-10165000D01*
X8871000Y-10845000D02*
X8871000Y-10945000D01*
X8821000Y-10895000D02*
X8921000Y-10895000D01*
X9125000Y-10115000D02*
X9125000Y-10215000D01*
X9075000Y-10165000D02*
X9175000Y-10165000D01*
X9125000Y-10845000D02*
X9125000Y-10945000D01*
X9075000Y-10895000D02*
X9175000Y-10895000D01*
X9379000Y-10115000D02*
X9379000Y-10215000D01*
X9329000Y-10165000D02*
X9429000Y-10165000D01*
X9379000Y-10845000D02*
X9379000Y-10945000D01*
X9329000Y-10895000D02*
X9429000Y-10895000D01*
X9633000Y-10115000D02*
X9633000Y-10215000D01*
X9583000Y-10165000D02*
X9683000Y-10165000D01*
X9633000Y-10845000D02*
X9633000Y-10945000D01*
X9583000Y-10895000D02*
X9683000Y-10895000D01*
X9887000Y-10115000D02*
X9887000Y-10215000D01*
X9837000Y-10165000D02*
X9937000Y-10165000D01*
X9887000Y-10845000D02*
X9887000Y-10945000D01*
X9837000Y-10895000D02*
X9937000Y-10895000D01*
X10141000Y-10115000D02*
X10141000Y-10215000D01*
X10091000Y-10165000D02*
X10191000Y-10165000D01*
X10141000Y-10845000D02*
X10141000Y-10945000D01*
X10091000Y-10895000D02*
X10191000Y-10895000D01*
X10395000Y-10115000D02*
X10395000Y-10215000D01*
X10345000Y-10165000D02*
X10445000Y-10165000D01*
X10395000Y-10845000D02*
X10395000Y-10945000D01*
X10345000Y-10895000D02*
X10445000Y-10895000D01*
X10649000Y-10115000D02*
X10649000Y-10215000D01*
X10599000Y-10165000D02*
X10699000Y-10165000D01*
X10649000Y-10845000D02*
X10649000Y-10945000D01*
X10599000Y-10895000D02*
X10699000Y-10895000D01*
X10903000Y-10115000D02*
X10903000Y-10215000D01*
X10853000Y-10165000D02*
X10953000Y-10165000D01*
X10903000Y-10845000D02*
X10903000Y-10945000D01*
X10853000Y-10895000D02*
X10953000Y-10895000D01*
X11157000Y-10115000D02*
X11157000Y-10215000D01*
X11107000Y-10165000D02*
X11207000Y-10165000D01*
X11157000Y-10845000D02*
X11157000Y-10945000D01*
X11107000Y-10895000D02*
X11207000Y-10895000D01*
X11411000Y-10115000D02*
X11411000Y-10215000D01*
X11361000Y-10165000D02*
X11461000Y-10165000D01*
X11411000Y-10845000D02*
X11411000Y-10945000D01*
X11361000Y-10895000D02*
X11461000Y-10895000D01*
X11665000Y-10115000D02*
X11665000Y-10215000D01*
X11615000Y-10165000D02*
X11715000Y-10165000D01*
X11665000Y-10845000D02*
X11665000Y-10945000D01*
X11615000Y-10895000D02*
X11715000Y-10895000D01*
X11919000Y-10115000D02*
X11919000Y-10215000D01*
X11869000Y-10165000D02*
X11969000Y-10165000D01*
X11919000Y-10845000D02*
X11919000Y-10945000D01*
X11869000Y-10895000D02*
X11969000Y-10895000D01*
X12173000Y-10115000D02*
X12173000Y-10215000D01*
X12123000Y-10165000D02*
X12223000Y-10165000D01*
X12173000Y-10845000D02*
X12173000Y-10945000D01*
X12123000Y-10895000D02*
X12223000Y-10895000D01*
X12427000Y-10115000D02*
X12427000Y-10215000D01*
X12377000Y-10165000D02*
X12477000Y-10165000D01*
X12427000Y-10845000D02*
X12427000Y-10945000D01*
X12377000Y-10895000D02*
X12477000Y-10895000D01*
X12681000Y-10115000D02*
X12681000Y-10215000D01*
X12631000Y-10165000D02*
X12731000Y-10165000D01*
X12681000Y-10845000D02*
X12681000Y-10945000D01*
X12631000Y-10895000D02*
X12731000Y-10895000D01*
X12935000Y-10115000D02*
X12935000Y-10215000D01*
X12885000Y-10165000D02*
X12985000Y-10165000D01*
X12935000Y-10845000D02*
X12935000Y-10945000D01*
X12885000Y-10895000D02*
X12985000Y-10895000D01*
D11*
X7812277Y-14807184D02*
X7812277Y-14607184D01*
X7812277Y-14607184D02*
X7859896Y-14607184D01*
X7859896Y-14607184D02*
X7888467Y-14616708D01*
X7888467Y-14616708D02*
X7907515Y-14635755D01*
X7907515Y-14635755D02*
X7917039Y-14654803D01*
X7917039Y-14654803D02*
X7926562Y-14692898D01*
X7926562Y-14692898D02*
X7926562Y-14721469D01*
X7926562Y-14721469D02*
X7917039Y-14759565D01*
X7917039Y-14759565D02*
X7907515Y-14778612D01*
X7907515Y-14778612D02*
X7888467Y-14797660D01*
X7888467Y-14797660D02*
X7859896Y-14807184D01*
X7859896Y-14807184D02*
X7812277Y-14807184D01*
X8012277Y-14807184D02*
X8012277Y-14673850D01*
X8012277Y-14711946D02*
X8021801Y-14692898D01*
X8021801Y-14692898D02*
X8031324Y-14683374D01*
X8031324Y-14683374D02*
X8050372Y-14673850D01*
X8050372Y-14673850D02*
X8069420Y-14673850D01*
X8136086Y-14807184D02*
X8136086Y-14673850D01*
X8136086Y-14607184D02*
X8126562Y-14616708D01*
X8126562Y-14616708D02*
X8136086Y-14626231D01*
X8136086Y-14626231D02*
X8145610Y-14616708D01*
X8145610Y-14616708D02*
X8136086Y-14607184D01*
X8136086Y-14607184D02*
X8136086Y-14626231D01*
X8259896Y-14807184D02*
X8240848Y-14797660D01*
X8240848Y-14797660D02*
X8231324Y-14778612D01*
X8231324Y-14778612D02*
X8231324Y-14607184D01*
X8364658Y-14807184D02*
X8345610Y-14797660D01*
X8345610Y-14797660D02*
X8336086Y-14778612D01*
X8336086Y-14778612D02*
X8336086Y-14607184D01*
X8593229Y-14807184D02*
X8593229Y-14607184D01*
X8593229Y-14607184D02*
X8659896Y-14750041D01*
X8659896Y-14750041D02*
X8726563Y-14607184D01*
X8726563Y-14607184D02*
X8726563Y-14807184D01*
X8907515Y-14807184D02*
X8907515Y-14702422D01*
X8907515Y-14702422D02*
X8897991Y-14683374D01*
X8897991Y-14683374D02*
X8878944Y-14673850D01*
X8878944Y-14673850D02*
X8840848Y-14673850D01*
X8840848Y-14673850D02*
X8821801Y-14683374D01*
X8907515Y-14797660D02*
X8888467Y-14807184D01*
X8888467Y-14807184D02*
X8840848Y-14807184D01*
X8840848Y-14807184D02*
X8821801Y-14797660D01*
X8821801Y-14797660D02*
X8812277Y-14778612D01*
X8812277Y-14778612D02*
X8812277Y-14759565D01*
X8812277Y-14759565D02*
X8821801Y-14740517D01*
X8821801Y-14740517D02*
X8840848Y-14730993D01*
X8840848Y-14730993D02*
X8888467Y-14730993D01*
X8888467Y-14730993D02*
X8907515Y-14721469D01*
X9002753Y-14673850D02*
X9002753Y-14873850D01*
X9002753Y-14683374D02*
X9021801Y-14673850D01*
X9021801Y-14673850D02*
X9059896Y-14673850D01*
X9059896Y-14673850D02*
X9078944Y-14683374D01*
X9078944Y-14683374D02*
X9088467Y-14692898D01*
X9088467Y-14692898D02*
X9097991Y-14711946D01*
X9097991Y-14711946D02*
X9097991Y-14769088D01*
X9097991Y-14769088D02*
X9088467Y-14788136D01*
X9088467Y-14788136D02*
X9078944Y-14797660D01*
X9078944Y-14797660D02*
X9059896Y-14807184D01*
X9059896Y-14807184D02*
X9021801Y-14807184D01*
X9021801Y-14807184D02*
X9002753Y-14797660D01*
X9183705Y-14788136D02*
X9193229Y-14797660D01*
X9193229Y-14797660D02*
X9183705Y-14807184D01*
X9183705Y-14807184D02*
X9174182Y-14797660D01*
X9174182Y-14797660D02*
X9183705Y-14788136D01*
X9183705Y-14788136D02*
X9183705Y-14807184D01*
X9183705Y-14683374D02*
X9193229Y-14692898D01*
X9193229Y-14692898D02*
X9183705Y-14702422D01*
X9183705Y-14702422D02*
X9174182Y-14692898D01*
X9174182Y-14692898D02*
X9183705Y-14683374D01*
X9183705Y-14683374D02*
X9183705Y-14702422D01*
D12*
X7471500Y-15095700D02*
X7551500Y-15175700D01*
X7551500Y-15095700D02*
X7471500Y-15175700D01*
D11*
X7850372Y-15027184D02*
X7869420Y-15027184D01*
X7869420Y-15027184D02*
X7888467Y-15036708D01*
X7888467Y-15036708D02*
X7897991Y-15046231D01*
X7897991Y-15046231D02*
X7907515Y-15065279D01*
X7907515Y-15065279D02*
X7917039Y-15103374D01*
X7917039Y-15103374D02*
X7917039Y-15150993D01*
X7917039Y-15150993D02*
X7907515Y-15189088D01*
X7907515Y-15189088D02*
X7897991Y-15208136D01*
X7897991Y-15208136D02*
X7888467Y-15217660D01*
X7888467Y-15217660D02*
X7869420Y-15227184D01*
X7869420Y-15227184D02*
X7850372Y-15227184D01*
X7850372Y-15227184D02*
X7831324Y-15217660D01*
X7831324Y-15217660D02*
X7821801Y-15208136D01*
X7821801Y-15208136D02*
X7812277Y-15189088D01*
X7812277Y-15189088D02*
X7802753Y-15150993D01*
X7802753Y-15150993D02*
X7802753Y-15103374D01*
X7802753Y-15103374D02*
X7812277Y-15065279D01*
X7812277Y-15065279D02*
X7821801Y-15046231D01*
X7821801Y-15046231D02*
X7831324Y-15036708D01*
X7831324Y-15036708D02*
X7850372Y-15027184D01*
X8002753Y-15208136D02*
X8012277Y-15217660D01*
X8012277Y-15217660D02*
X8002753Y-15227184D01*
X8002753Y-15227184D02*
X7993229Y-15217660D01*
X7993229Y-15217660D02*
X8002753Y-15208136D01*
X8002753Y-15208136D02*
X8002753Y-15227184D01*
X8126562Y-15112898D02*
X8107515Y-15103374D01*
X8107515Y-15103374D02*
X8097991Y-15093850D01*
X8097991Y-15093850D02*
X8088467Y-15074803D01*
X8088467Y-15074803D02*
X8088467Y-15065279D01*
X8088467Y-15065279D02*
X8097991Y-15046231D01*
X8097991Y-15046231D02*
X8107515Y-15036708D01*
X8107515Y-15036708D02*
X8126562Y-15027184D01*
X8126562Y-15027184D02*
X8164658Y-15027184D01*
X8164658Y-15027184D02*
X8183705Y-15036708D01*
X8183705Y-15036708D02*
X8193229Y-15046231D01*
X8193229Y-15046231D02*
X8202753Y-15065279D01*
X8202753Y-15065279D02*
X8202753Y-15074803D01*
X8202753Y-15074803D02*
X8193229Y-15093850D01*
X8193229Y-15093850D02*
X8183705Y-15103374D01*
X8183705Y-15103374D02*
X8164658Y-15112898D01*
X8164658Y-15112898D02*
X8126562Y-15112898D01*
X8126562Y-15112898D02*
X8107515Y-15122422D01*
X8107515Y-15122422D02*
X8097991Y-15131946D01*
X8097991Y-15131946D02*
X8088467Y-15150993D01*
X8088467Y-15150993D02*
X8088467Y-15189088D01*
X8088467Y-15189088D02*
X8097991Y-15208136D01*
X8097991Y-15208136D02*
X8107515Y-15217660D01*
X8107515Y-15217660D02*
X8126562Y-15227184D01*
X8126562Y-15227184D02*
X8164658Y-15227184D01*
X8164658Y-15227184D02*
X8183705Y-15217660D01*
X8183705Y-15217660D02*
X8193229Y-15208136D01*
X8193229Y-15208136D02*
X8202753Y-15189088D01*
X8202753Y-15189088D02*
X8202753Y-15150993D01*
X8202753Y-15150993D02*
X8193229Y-15131946D01*
X8193229Y-15131946D02*
X8183705Y-15122422D01*
X8183705Y-15122422D02*
X8164658Y-15112898D01*
X8326562Y-15027184D02*
X8345610Y-15027184D01*
X8345610Y-15027184D02*
X8364658Y-15036708D01*
X8364658Y-15036708D02*
X8374182Y-15046231D01*
X8374182Y-15046231D02*
X8383705Y-15065279D01*
X8383705Y-15065279D02*
X8393229Y-15103374D01*
X8393229Y-15103374D02*
X8393229Y-15150993D01*
X8393229Y-15150993D02*
X8383705Y-15189088D01*
X8383705Y-15189088D02*
X8374182Y-15208136D01*
X8374182Y-15208136D02*
X8364658Y-15217660D01*
X8364658Y-15217660D02*
X8345610Y-15227184D01*
X8345610Y-15227184D02*
X8326562Y-15227184D01*
X8326562Y-15227184D02*
X8307515Y-15217660D01*
X8307515Y-15217660D02*
X8297991Y-15208136D01*
X8297991Y-15208136D02*
X8288467Y-15189088D01*
X8288467Y-15189088D02*
X8278943Y-15150993D01*
X8278943Y-15150993D02*
X8278943Y-15103374D01*
X8278943Y-15103374D02*
X8288467Y-15065279D01*
X8288467Y-15065279D02*
X8297991Y-15046231D01*
X8297991Y-15046231D02*
X8307515Y-15036708D01*
X8307515Y-15036708D02*
X8326562Y-15027184D01*
X8517039Y-15027184D02*
X8536086Y-15027184D01*
X8536086Y-15027184D02*
X8555134Y-15036708D01*
X8555134Y-15036708D02*
X8564658Y-15046231D01*
X8564658Y-15046231D02*
X8574182Y-15065279D01*
X8574182Y-15065279D02*
X8583705Y-15103374D01*
X8583705Y-15103374D02*
X8583705Y-15150993D01*
X8583705Y-15150993D02*
X8574182Y-15189088D01*
X8574182Y-15189088D02*
X8564658Y-15208136D01*
X8564658Y-15208136D02*
X8555134Y-15217660D01*
X8555134Y-15217660D02*
X8536086Y-15227184D01*
X8536086Y-15227184D02*
X8517039Y-15227184D01*
X8517039Y-15227184D02*
X8497991Y-15217660D01*
X8497991Y-15217660D02*
X8488467Y-15208136D01*
X8488467Y-15208136D02*
X8478944Y-15189088D01*
X8478944Y-15189088D02*
X8469420Y-15150993D01*
X8469420Y-15150993D02*
X8469420Y-15103374D01*
X8469420Y-15103374D02*
X8478944Y-15065279D01*
X8478944Y-15065279D02*
X8488467Y-15046231D01*
X8488467Y-15046231D02*
X8497991Y-15036708D01*
X8497991Y-15036708D02*
X8517039Y-15027184D01*
X8669420Y-15227184D02*
X8669420Y-15093850D01*
X8669420Y-15112898D02*
X8678944Y-15103374D01*
X8678944Y-15103374D02*
X8697991Y-15093850D01*
X8697991Y-15093850D02*
X8726563Y-15093850D01*
X8726563Y-15093850D02*
X8745610Y-15103374D01*
X8745610Y-15103374D02*
X8755134Y-15122422D01*
X8755134Y-15122422D02*
X8755134Y-15227184D01*
X8755134Y-15122422D02*
X8764658Y-15103374D01*
X8764658Y-15103374D02*
X8783705Y-15093850D01*
X8783705Y-15093850D02*
X8812277Y-15093850D01*
X8812277Y-15093850D02*
X8831325Y-15103374D01*
X8831325Y-15103374D02*
X8840848Y-15122422D01*
X8840848Y-15122422D02*
X8840848Y-15227184D01*
X8936086Y-15227184D02*
X8936086Y-15093850D01*
X8936086Y-15112898D02*
X8945610Y-15103374D01*
X8945610Y-15103374D02*
X8964658Y-15093850D01*
X8964658Y-15093850D02*
X8993229Y-15093850D01*
X8993229Y-15093850D02*
X9012277Y-15103374D01*
X9012277Y-15103374D02*
X9021801Y-15122422D01*
X9021801Y-15122422D02*
X9021801Y-15227184D01*
X9021801Y-15122422D02*
X9031325Y-15103374D01*
X9031325Y-15103374D02*
X9050372Y-15093850D01*
X9050372Y-15093850D02*
X9078944Y-15093850D01*
X9078944Y-15093850D02*
X9097991Y-15103374D01*
X9097991Y-15103374D02*
X9107515Y-15122422D01*
X9107515Y-15122422D02*
X9107515Y-15227184D01*
X9497991Y-15017660D02*
X9326563Y-15274803D01*
X9755134Y-15027184D02*
X9774182Y-15027184D01*
X9774182Y-15027184D02*
X9793229Y-15036708D01*
X9793229Y-15036708D02*
X9802753Y-15046231D01*
X9802753Y-15046231D02*
X9812277Y-15065279D01*
X9812277Y-15065279D02*
X9821801Y-15103374D01*
X9821801Y-15103374D02*
X9821801Y-15150993D01*
X9821801Y-15150993D02*
X9812277Y-15189088D01*
X9812277Y-15189088D02*
X9802753Y-15208136D01*
X9802753Y-15208136D02*
X9793229Y-15217660D01*
X9793229Y-15217660D02*
X9774182Y-15227184D01*
X9774182Y-15227184D02*
X9755134Y-15227184D01*
X9755134Y-15227184D02*
X9736087Y-15217660D01*
X9736087Y-15217660D02*
X9726563Y-15208136D01*
X9726563Y-15208136D02*
X9717039Y-15189088D01*
X9717039Y-15189088D02*
X9707515Y-15150993D01*
X9707515Y-15150993D02*
X9707515Y-15103374D01*
X9707515Y-15103374D02*
X9717039Y-15065279D01*
X9717039Y-15065279D02*
X9726563Y-15046231D01*
X9726563Y-15046231D02*
X9736087Y-15036708D01*
X9736087Y-15036708D02*
X9755134Y-15027184D01*
X9907515Y-15208136D02*
X9917039Y-15217660D01*
X9917039Y-15217660D02*
X9907515Y-15227184D01*
X9907515Y-15227184D02*
X9897991Y-15217660D01*
X9897991Y-15217660D02*
X9907515Y-15208136D01*
X9907515Y-15208136D02*
X9907515Y-15227184D01*
X10040848Y-15027184D02*
X10059896Y-15027184D01*
X10059896Y-15027184D02*
X10078944Y-15036708D01*
X10078944Y-15036708D02*
X10088468Y-15046231D01*
X10088468Y-15046231D02*
X10097991Y-15065279D01*
X10097991Y-15065279D02*
X10107515Y-15103374D01*
X10107515Y-15103374D02*
X10107515Y-15150993D01*
X10107515Y-15150993D02*
X10097991Y-15189088D01*
X10097991Y-15189088D02*
X10088468Y-15208136D01*
X10088468Y-15208136D02*
X10078944Y-15217660D01*
X10078944Y-15217660D02*
X10059896Y-15227184D01*
X10059896Y-15227184D02*
X10040848Y-15227184D01*
X10040848Y-15227184D02*
X10021801Y-15217660D01*
X10021801Y-15217660D02*
X10012277Y-15208136D01*
X10012277Y-15208136D02*
X10002753Y-15189088D01*
X10002753Y-15189088D02*
X9993229Y-15150993D01*
X9993229Y-15150993D02*
X9993229Y-15103374D01*
X9993229Y-15103374D02*
X10002753Y-15065279D01*
X10002753Y-15065279D02*
X10012277Y-15046231D01*
X10012277Y-15046231D02*
X10021801Y-15036708D01*
X10021801Y-15036708D02*
X10040848Y-15027184D01*
X10174182Y-15027184D02*
X10297991Y-15027184D01*
X10297991Y-15027184D02*
X10231325Y-15103374D01*
X10231325Y-15103374D02*
X10259896Y-15103374D01*
X10259896Y-15103374D02*
X10278944Y-15112898D01*
X10278944Y-15112898D02*
X10288468Y-15122422D01*
X10288468Y-15122422D02*
X10297991Y-15141469D01*
X10297991Y-15141469D02*
X10297991Y-15189088D01*
X10297991Y-15189088D02*
X10288468Y-15208136D01*
X10288468Y-15208136D02*
X10278944Y-15217660D01*
X10278944Y-15217660D02*
X10259896Y-15227184D01*
X10259896Y-15227184D02*
X10202753Y-15227184D01*
X10202753Y-15227184D02*
X10183706Y-15217660D01*
X10183706Y-15217660D02*
X10174182Y-15208136D01*
X10488468Y-15227184D02*
X10374182Y-15227184D01*
X10431325Y-15227184D02*
X10431325Y-15027184D01*
X10431325Y-15027184D02*
X10412277Y-15055755D01*
X10412277Y-15055755D02*
X10393229Y-15074803D01*
X10393229Y-15074803D02*
X10374182Y-15084327D01*
X10669420Y-15027184D02*
X10574182Y-15027184D01*
X10574182Y-15027184D02*
X10564658Y-15122422D01*
X10564658Y-15122422D02*
X10574182Y-15112898D01*
X10574182Y-15112898D02*
X10593229Y-15103374D01*
X10593229Y-15103374D02*
X10640849Y-15103374D01*
X10640849Y-15103374D02*
X10659896Y-15112898D01*
X10659896Y-15112898D02*
X10669420Y-15122422D01*
X10669420Y-15122422D02*
X10678944Y-15141469D01*
X10678944Y-15141469D02*
X10678944Y-15189088D01*
X10678944Y-15189088D02*
X10669420Y-15208136D01*
X10669420Y-15208136D02*
X10659896Y-15217660D01*
X10659896Y-15217660D02*
X10640849Y-15227184D01*
X10640849Y-15227184D02*
X10593229Y-15227184D01*
X10593229Y-15227184D02*
X10574182Y-15217660D01*
X10574182Y-15217660D02*
X10564658Y-15208136D01*
X10755134Y-15027184D02*
X10755134Y-15065279D01*
X10831325Y-15027184D02*
X10831325Y-15065279D01*
X11126563Y-15303374D02*
X11117039Y-15293850D01*
X11117039Y-15293850D02*
X11097991Y-15265279D01*
X11097991Y-15265279D02*
X11088468Y-15246231D01*
X11088468Y-15246231D02*
X11078944Y-15217660D01*
X11078944Y-15217660D02*
X11069420Y-15170041D01*
X11069420Y-15170041D02*
X11069420Y-15131946D01*
X11069420Y-15131946D02*
X11078944Y-15084327D01*
X11078944Y-15084327D02*
X11088468Y-15055755D01*
X11088468Y-15055755D02*
X11097991Y-15036708D01*
X11097991Y-15036708D02*
X11117039Y-15008136D01*
X11117039Y-15008136D02*
X11126563Y-14998612D01*
X11307515Y-15227184D02*
X11193229Y-15227184D01*
X11250372Y-15227184D02*
X11250372Y-15027184D01*
X11250372Y-15027184D02*
X11231325Y-15055755D01*
X11231325Y-15055755D02*
X11212277Y-15074803D01*
X11212277Y-15074803D02*
X11193229Y-15084327D01*
X11402753Y-15227184D02*
X11440848Y-15227184D01*
X11440848Y-15227184D02*
X11459896Y-15217660D01*
X11459896Y-15217660D02*
X11469420Y-15208136D01*
X11469420Y-15208136D02*
X11488468Y-15179565D01*
X11488468Y-15179565D02*
X11497991Y-15141469D01*
X11497991Y-15141469D02*
X11497991Y-15065279D01*
X11497991Y-15065279D02*
X11488468Y-15046231D01*
X11488468Y-15046231D02*
X11478944Y-15036708D01*
X11478944Y-15036708D02*
X11459896Y-15027184D01*
X11459896Y-15027184D02*
X11421801Y-15027184D01*
X11421801Y-15027184D02*
X11402753Y-15036708D01*
X11402753Y-15036708D02*
X11393229Y-15046231D01*
X11393229Y-15046231D02*
X11383706Y-15065279D01*
X11383706Y-15065279D02*
X11383706Y-15112898D01*
X11383706Y-15112898D02*
X11393229Y-15131946D01*
X11393229Y-15131946D02*
X11402753Y-15141469D01*
X11402753Y-15141469D02*
X11421801Y-15150993D01*
X11421801Y-15150993D02*
X11459896Y-15150993D01*
X11459896Y-15150993D02*
X11478944Y-15141469D01*
X11478944Y-15141469D02*
X11488468Y-15131946D01*
X11488468Y-15131946D02*
X11497991Y-15112898D01*
X11736087Y-15227184D02*
X11736087Y-15027184D01*
X11821801Y-15227184D02*
X11821801Y-15122422D01*
X11821801Y-15122422D02*
X11812277Y-15103374D01*
X11812277Y-15103374D02*
X11793230Y-15093850D01*
X11793230Y-15093850D02*
X11764658Y-15093850D01*
X11764658Y-15093850D02*
X11745610Y-15103374D01*
X11745610Y-15103374D02*
X11736087Y-15112898D01*
X11945610Y-15227184D02*
X11926563Y-15217660D01*
X11926563Y-15217660D02*
X11917039Y-15208136D01*
X11917039Y-15208136D02*
X11907515Y-15189088D01*
X11907515Y-15189088D02*
X11907515Y-15131946D01*
X11907515Y-15131946D02*
X11917039Y-15112898D01*
X11917039Y-15112898D02*
X11926563Y-15103374D01*
X11926563Y-15103374D02*
X11945610Y-15093850D01*
X11945610Y-15093850D02*
X11974182Y-15093850D01*
X11974182Y-15093850D02*
X11993230Y-15103374D01*
X11993230Y-15103374D02*
X12002753Y-15112898D01*
X12002753Y-15112898D02*
X12012277Y-15131946D01*
X12012277Y-15131946D02*
X12012277Y-15189088D01*
X12012277Y-15189088D02*
X12002753Y-15208136D01*
X12002753Y-15208136D02*
X11993230Y-15217660D01*
X11993230Y-15217660D02*
X11974182Y-15227184D01*
X11974182Y-15227184D02*
X11945610Y-15227184D01*
X12126563Y-15227184D02*
X12107515Y-15217660D01*
X12107515Y-15217660D02*
X12097991Y-15198612D01*
X12097991Y-15198612D02*
X12097991Y-15027184D01*
X12278944Y-15217660D02*
X12259896Y-15227184D01*
X12259896Y-15227184D02*
X12221801Y-15227184D01*
X12221801Y-15227184D02*
X12202753Y-15217660D01*
X12202753Y-15217660D02*
X12193230Y-15198612D01*
X12193230Y-15198612D02*
X12193230Y-15122422D01*
X12193230Y-15122422D02*
X12202753Y-15103374D01*
X12202753Y-15103374D02*
X12221801Y-15093850D01*
X12221801Y-15093850D02*
X12259896Y-15093850D01*
X12259896Y-15093850D02*
X12278944Y-15103374D01*
X12278944Y-15103374D02*
X12288468Y-15122422D01*
X12288468Y-15122422D02*
X12288468Y-15141469D01*
X12288468Y-15141469D02*
X12193230Y-15160517D01*
X12364658Y-15217660D02*
X12383706Y-15227184D01*
X12383706Y-15227184D02*
X12421801Y-15227184D01*
X12421801Y-15227184D02*
X12440849Y-15217660D01*
X12440849Y-15217660D02*
X12450372Y-15198612D01*
X12450372Y-15198612D02*
X12450372Y-15189088D01*
X12450372Y-15189088D02*
X12440849Y-15170041D01*
X12440849Y-15170041D02*
X12421801Y-15160517D01*
X12421801Y-15160517D02*
X12393230Y-15160517D01*
X12393230Y-15160517D02*
X12374182Y-15150993D01*
X12374182Y-15150993D02*
X12364658Y-15131946D01*
X12364658Y-15131946D02*
X12364658Y-15122422D01*
X12364658Y-15122422D02*
X12374182Y-15103374D01*
X12374182Y-15103374D02*
X12393230Y-15093850D01*
X12393230Y-15093850D02*
X12421801Y-15093850D01*
X12421801Y-15093850D02*
X12440849Y-15103374D01*
X12517039Y-15303374D02*
X12526563Y-15293850D01*
X12526563Y-15293850D02*
X12545611Y-15265279D01*
X12545611Y-15265279D02*
X12555134Y-15246231D01*
X12555134Y-15246231D02*
X12564658Y-15217660D01*
X12564658Y-15217660D02*
X12574182Y-15170041D01*
X12574182Y-15170041D02*
X12574182Y-15131946D01*
X12574182Y-15131946D02*
X12564658Y-15084327D01*
X12564658Y-15084327D02*
X12555134Y-15055755D01*
X12555134Y-15055755D02*
X12545611Y-15036708D01*
X12545611Y-15036708D02*
X12526563Y-15008136D01*
X12526563Y-15008136D02*
X12517039Y-14998612D01*
D12*
X7551500Y-15399700D02*
G75*
G03*
X7551500Y-15399700I-40000J0D01*
G01*
D11*
X7850372Y-15291184D02*
X7869420Y-15291184D01*
X7869420Y-15291184D02*
X7888467Y-15300708D01*
X7888467Y-15300708D02*
X7897991Y-15310231D01*
X7897991Y-15310231D02*
X7907515Y-15329279D01*
X7907515Y-15329279D02*
X7917039Y-15367374D01*
X7917039Y-15367374D02*
X7917039Y-15414993D01*
X7917039Y-15414993D02*
X7907515Y-15453088D01*
X7907515Y-15453088D02*
X7897991Y-15472136D01*
X7897991Y-15472136D02*
X7888467Y-15481660D01*
X7888467Y-15481660D02*
X7869420Y-15491184D01*
X7869420Y-15491184D02*
X7850372Y-15491184D01*
X7850372Y-15491184D02*
X7831324Y-15481660D01*
X7831324Y-15481660D02*
X7821801Y-15472136D01*
X7821801Y-15472136D02*
X7812277Y-15453088D01*
X7812277Y-15453088D02*
X7802753Y-15414993D01*
X7802753Y-15414993D02*
X7802753Y-15367374D01*
X7802753Y-15367374D02*
X7812277Y-15329279D01*
X7812277Y-15329279D02*
X7821801Y-15310231D01*
X7821801Y-15310231D02*
X7831324Y-15300708D01*
X7831324Y-15300708D02*
X7850372Y-15291184D01*
X8002753Y-15472136D02*
X8012277Y-15481660D01*
X8012277Y-15481660D02*
X8002753Y-15491184D01*
X8002753Y-15491184D02*
X7993229Y-15481660D01*
X7993229Y-15481660D02*
X8002753Y-15472136D01*
X8002753Y-15472136D02*
X8002753Y-15491184D01*
X8126562Y-15376898D02*
X8107515Y-15367374D01*
X8107515Y-15367374D02*
X8097991Y-15357850D01*
X8097991Y-15357850D02*
X8088467Y-15338803D01*
X8088467Y-15338803D02*
X8088467Y-15329279D01*
X8088467Y-15329279D02*
X8097991Y-15310231D01*
X8097991Y-15310231D02*
X8107515Y-15300708D01*
X8107515Y-15300708D02*
X8126562Y-15291184D01*
X8126562Y-15291184D02*
X8164658Y-15291184D01*
X8164658Y-15291184D02*
X8183705Y-15300708D01*
X8183705Y-15300708D02*
X8193229Y-15310231D01*
X8193229Y-15310231D02*
X8202753Y-15329279D01*
X8202753Y-15329279D02*
X8202753Y-15338803D01*
X8202753Y-15338803D02*
X8193229Y-15357850D01*
X8193229Y-15357850D02*
X8183705Y-15367374D01*
X8183705Y-15367374D02*
X8164658Y-15376898D01*
X8164658Y-15376898D02*
X8126562Y-15376898D01*
X8126562Y-15376898D02*
X8107515Y-15386422D01*
X8107515Y-15386422D02*
X8097991Y-15395946D01*
X8097991Y-15395946D02*
X8088467Y-15414993D01*
X8088467Y-15414993D02*
X8088467Y-15453088D01*
X8088467Y-15453088D02*
X8097991Y-15472136D01*
X8097991Y-15472136D02*
X8107515Y-15481660D01*
X8107515Y-15481660D02*
X8126562Y-15491184D01*
X8126562Y-15491184D02*
X8164658Y-15491184D01*
X8164658Y-15491184D02*
X8183705Y-15481660D01*
X8183705Y-15481660D02*
X8193229Y-15472136D01*
X8193229Y-15472136D02*
X8202753Y-15453088D01*
X8202753Y-15453088D02*
X8202753Y-15414993D01*
X8202753Y-15414993D02*
X8193229Y-15395946D01*
X8193229Y-15395946D02*
X8183705Y-15386422D01*
X8183705Y-15386422D02*
X8164658Y-15376898D01*
X8326562Y-15291184D02*
X8345610Y-15291184D01*
X8345610Y-15291184D02*
X8364658Y-15300708D01*
X8364658Y-15300708D02*
X8374182Y-15310231D01*
X8374182Y-15310231D02*
X8383705Y-15329279D01*
X8383705Y-15329279D02*
X8393229Y-15367374D01*
X8393229Y-15367374D02*
X8393229Y-15414993D01*
X8393229Y-15414993D02*
X8383705Y-15453088D01*
X8383705Y-15453088D02*
X8374182Y-15472136D01*
X8374182Y-15472136D02*
X8364658Y-15481660D01*
X8364658Y-15481660D02*
X8345610Y-15491184D01*
X8345610Y-15491184D02*
X8326562Y-15491184D01*
X8326562Y-15491184D02*
X8307515Y-15481660D01*
X8307515Y-15481660D02*
X8297991Y-15472136D01*
X8297991Y-15472136D02*
X8288467Y-15453088D01*
X8288467Y-15453088D02*
X8278943Y-15414993D01*
X8278943Y-15414993D02*
X8278943Y-15367374D01*
X8278943Y-15367374D02*
X8288467Y-15329279D01*
X8288467Y-15329279D02*
X8297991Y-15310231D01*
X8297991Y-15310231D02*
X8307515Y-15300708D01*
X8307515Y-15300708D02*
X8326562Y-15291184D01*
X8517039Y-15291184D02*
X8536086Y-15291184D01*
X8536086Y-15291184D02*
X8555134Y-15300708D01*
X8555134Y-15300708D02*
X8564658Y-15310231D01*
X8564658Y-15310231D02*
X8574182Y-15329279D01*
X8574182Y-15329279D02*
X8583705Y-15367374D01*
X8583705Y-15367374D02*
X8583705Y-15414993D01*
X8583705Y-15414993D02*
X8574182Y-15453088D01*
X8574182Y-15453088D02*
X8564658Y-15472136D01*
X8564658Y-15472136D02*
X8555134Y-15481660D01*
X8555134Y-15481660D02*
X8536086Y-15491184D01*
X8536086Y-15491184D02*
X8517039Y-15491184D01*
X8517039Y-15491184D02*
X8497991Y-15481660D01*
X8497991Y-15481660D02*
X8488467Y-15472136D01*
X8488467Y-15472136D02*
X8478944Y-15453088D01*
X8478944Y-15453088D02*
X8469420Y-15414993D01*
X8469420Y-15414993D02*
X8469420Y-15367374D01*
X8469420Y-15367374D02*
X8478944Y-15329279D01*
X8478944Y-15329279D02*
X8488467Y-15310231D01*
X8488467Y-15310231D02*
X8497991Y-15300708D01*
X8497991Y-15300708D02*
X8517039Y-15291184D01*
X8669420Y-15491184D02*
X8669420Y-15357850D01*
X8669420Y-15376898D02*
X8678944Y-15367374D01*
X8678944Y-15367374D02*
X8697991Y-15357850D01*
X8697991Y-15357850D02*
X8726563Y-15357850D01*
X8726563Y-15357850D02*
X8745610Y-15367374D01*
X8745610Y-15367374D02*
X8755134Y-15386422D01*
X8755134Y-15386422D02*
X8755134Y-15491184D01*
X8755134Y-15386422D02*
X8764658Y-15367374D01*
X8764658Y-15367374D02*
X8783705Y-15357850D01*
X8783705Y-15357850D02*
X8812277Y-15357850D01*
X8812277Y-15357850D02*
X8831325Y-15367374D01*
X8831325Y-15367374D02*
X8840848Y-15386422D01*
X8840848Y-15386422D02*
X8840848Y-15491184D01*
X8936086Y-15491184D02*
X8936086Y-15357850D01*
X8936086Y-15376898D02*
X8945610Y-15367374D01*
X8945610Y-15367374D02*
X8964658Y-15357850D01*
X8964658Y-15357850D02*
X8993229Y-15357850D01*
X8993229Y-15357850D02*
X9012277Y-15367374D01*
X9012277Y-15367374D02*
X9021801Y-15386422D01*
X9021801Y-15386422D02*
X9021801Y-15491184D01*
X9021801Y-15386422D02*
X9031325Y-15367374D01*
X9031325Y-15367374D02*
X9050372Y-15357850D01*
X9050372Y-15357850D02*
X9078944Y-15357850D01*
X9078944Y-15357850D02*
X9097991Y-15367374D01*
X9097991Y-15367374D02*
X9107515Y-15386422D01*
X9107515Y-15386422D02*
X9107515Y-15491184D01*
X9497991Y-15281660D02*
X9326563Y-15538803D01*
X9755134Y-15291184D02*
X9774182Y-15291184D01*
X9774182Y-15291184D02*
X9793229Y-15300708D01*
X9793229Y-15300708D02*
X9802753Y-15310231D01*
X9802753Y-15310231D02*
X9812277Y-15329279D01*
X9812277Y-15329279D02*
X9821801Y-15367374D01*
X9821801Y-15367374D02*
X9821801Y-15414993D01*
X9821801Y-15414993D02*
X9812277Y-15453088D01*
X9812277Y-15453088D02*
X9802753Y-15472136D01*
X9802753Y-15472136D02*
X9793229Y-15481660D01*
X9793229Y-15481660D02*
X9774182Y-15491184D01*
X9774182Y-15491184D02*
X9755134Y-15491184D01*
X9755134Y-15491184D02*
X9736087Y-15481660D01*
X9736087Y-15481660D02*
X9726563Y-15472136D01*
X9726563Y-15472136D02*
X9717039Y-15453088D01*
X9717039Y-15453088D02*
X9707515Y-15414993D01*
X9707515Y-15414993D02*
X9707515Y-15367374D01*
X9707515Y-15367374D02*
X9717039Y-15329279D01*
X9717039Y-15329279D02*
X9726563Y-15310231D01*
X9726563Y-15310231D02*
X9736087Y-15300708D01*
X9736087Y-15300708D02*
X9755134Y-15291184D01*
X9907515Y-15472136D02*
X9917039Y-15481660D01*
X9917039Y-15481660D02*
X9907515Y-15491184D01*
X9907515Y-15491184D02*
X9897991Y-15481660D01*
X9897991Y-15481660D02*
X9907515Y-15472136D01*
X9907515Y-15472136D02*
X9907515Y-15491184D01*
X10040848Y-15291184D02*
X10059896Y-15291184D01*
X10059896Y-15291184D02*
X10078944Y-15300708D01*
X10078944Y-15300708D02*
X10088468Y-15310231D01*
X10088468Y-15310231D02*
X10097991Y-15329279D01*
X10097991Y-15329279D02*
X10107515Y-15367374D01*
X10107515Y-15367374D02*
X10107515Y-15414993D01*
X10107515Y-15414993D02*
X10097991Y-15453088D01*
X10097991Y-15453088D02*
X10088468Y-15472136D01*
X10088468Y-15472136D02*
X10078944Y-15481660D01*
X10078944Y-15481660D02*
X10059896Y-15491184D01*
X10059896Y-15491184D02*
X10040848Y-15491184D01*
X10040848Y-15491184D02*
X10021801Y-15481660D01*
X10021801Y-15481660D02*
X10012277Y-15472136D01*
X10012277Y-15472136D02*
X10002753Y-15453088D01*
X10002753Y-15453088D02*
X9993229Y-15414993D01*
X9993229Y-15414993D02*
X9993229Y-15367374D01*
X9993229Y-15367374D02*
X10002753Y-15329279D01*
X10002753Y-15329279D02*
X10012277Y-15310231D01*
X10012277Y-15310231D02*
X10021801Y-15300708D01*
X10021801Y-15300708D02*
X10040848Y-15291184D01*
X10174182Y-15291184D02*
X10297991Y-15291184D01*
X10297991Y-15291184D02*
X10231325Y-15367374D01*
X10231325Y-15367374D02*
X10259896Y-15367374D01*
X10259896Y-15367374D02*
X10278944Y-15376898D01*
X10278944Y-15376898D02*
X10288468Y-15386422D01*
X10288468Y-15386422D02*
X10297991Y-15405469D01*
X10297991Y-15405469D02*
X10297991Y-15453088D01*
X10297991Y-15453088D02*
X10288468Y-15472136D01*
X10288468Y-15472136D02*
X10278944Y-15481660D01*
X10278944Y-15481660D02*
X10259896Y-15491184D01*
X10259896Y-15491184D02*
X10202753Y-15491184D01*
X10202753Y-15491184D02*
X10183706Y-15481660D01*
X10183706Y-15481660D02*
X10174182Y-15472136D01*
X10488468Y-15491184D02*
X10374182Y-15491184D01*
X10431325Y-15491184D02*
X10431325Y-15291184D01*
X10431325Y-15291184D02*
X10412277Y-15319755D01*
X10412277Y-15319755D02*
X10393229Y-15338803D01*
X10393229Y-15338803D02*
X10374182Y-15348327D01*
X10669420Y-15291184D02*
X10574182Y-15291184D01*
X10574182Y-15291184D02*
X10564658Y-15386422D01*
X10564658Y-15386422D02*
X10574182Y-15376898D01*
X10574182Y-15376898D02*
X10593229Y-15367374D01*
X10593229Y-15367374D02*
X10640849Y-15367374D01*
X10640849Y-15367374D02*
X10659896Y-15376898D01*
X10659896Y-15376898D02*
X10669420Y-15386422D01*
X10669420Y-15386422D02*
X10678944Y-15405469D01*
X10678944Y-15405469D02*
X10678944Y-15453088D01*
X10678944Y-15453088D02*
X10669420Y-15472136D01*
X10669420Y-15472136D02*
X10659896Y-15481660D01*
X10659896Y-15481660D02*
X10640849Y-15491184D01*
X10640849Y-15491184D02*
X10593229Y-15491184D01*
X10593229Y-15491184D02*
X10574182Y-15481660D01*
X10574182Y-15481660D02*
X10564658Y-15472136D01*
X10755134Y-15291184D02*
X10755134Y-15329279D01*
X10831325Y-15291184D02*
X10831325Y-15329279D01*
X11126563Y-15567374D02*
X11117039Y-15557850D01*
X11117039Y-15557850D02*
X11097991Y-15529279D01*
X11097991Y-15529279D02*
X11088468Y-15510231D01*
X11088468Y-15510231D02*
X11078944Y-15481660D01*
X11078944Y-15481660D02*
X11069420Y-15434041D01*
X11069420Y-15434041D02*
X11069420Y-15395946D01*
X11069420Y-15395946D02*
X11078944Y-15348327D01*
X11078944Y-15348327D02*
X11088468Y-15319755D01*
X11088468Y-15319755D02*
X11097991Y-15300708D01*
X11097991Y-15300708D02*
X11117039Y-15272136D01*
X11117039Y-15272136D02*
X11126563Y-15262612D01*
X11307515Y-15491184D02*
X11193229Y-15491184D01*
X11250372Y-15491184D02*
X11250372Y-15291184D01*
X11250372Y-15291184D02*
X11231325Y-15319755D01*
X11231325Y-15319755D02*
X11212277Y-15338803D01*
X11212277Y-15338803D02*
X11193229Y-15348327D01*
X11478944Y-15291184D02*
X11440848Y-15291184D01*
X11440848Y-15291184D02*
X11421801Y-15300708D01*
X11421801Y-15300708D02*
X11412277Y-15310231D01*
X11412277Y-15310231D02*
X11393229Y-15338803D01*
X11393229Y-15338803D02*
X11383706Y-15376898D01*
X11383706Y-15376898D02*
X11383706Y-15453088D01*
X11383706Y-15453088D02*
X11393229Y-15472136D01*
X11393229Y-15472136D02*
X11402753Y-15481660D01*
X11402753Y-15481660D02*
X11421801Y-15491184D01*
X11421801Y-15491184D02*
X11459896Y-15491184D01*
X11459896Y-15491184D02*
X11478944Y-15481660D01*
X11478944Y-15481660D02*
X11488468Y-15472136D01*
X11488468Y-15472136D02*
X11497991Y-15453088D01*
X11497991Y-15453088D02*
X11497991Y-15405469D01*
X11497991Y-15405469D02*
X11488468Y-15386422D01*
X11488468Y-15386422D02*
X11478944Y-15376898D01*
X11478944Y-15376898D02*
X11459896Y-15367374D01*
X11459896Y-15367374D02*
X11421801Y-15367374D01*
X11421801Y-15367374D02*
X11402753Y-15376898D01*
X11402753Y-15376898D02*
X11393229Y-15386422D01*
X11393229Y-15386422D02*
X11383706Y-15405469D01*
X11612277Y-15376898D02*
X11593229Y-15367374D01*
X11593229Y-15367374D02*
X11583706Y-15357850D01*
X11583706Y-15357850D02*
X11574182Y-15338803D01*
X11574182Y-15338803D02*
X11574182Y-15329279D01*
X11574182Y-15329279D02*
X11583706Y-15310231D01*
X11583706Y-15310231D02*
X11593229Y-15300708D01*
X11593229Y-15300708D02*
X11612277Y-15291184D01*
X11612277Y-15291184D02*
X11650372Y-15291184D01*
X11650372Y-15291184D02*
X11669420Y-15300708D01*
X11669420Y-15300708D02*
X11678944Y-15310231D01*
X11678944Y-15310231D02*
X11688468Y-15329279D01*
X11688468Y-15329279D02*
X11688468Y-15338803D01*
X11688468Y-15338803D02*
X11678944Y-15357850D01*
X11678944Y-15357850D02*
X11669420Y-15367374D01*
X11669420Y-15367374D02*
X11650372Y-15376898D01*
X11650372Y-15376898D02*
X11612277Y-15376898D01*
X11612277Y-15376898D02*
X11593229Y-15386422D01*
X11593229Y-15386422D02*
X11583706Y-15395946D01*
X11583706Y-15395946D02*
X11574182Y-15414993D01*
X11574182Y-15414993D02*
X11574182Y-15453088D01*
X11574182Y-15453088D02*
X11583706Y-15472136D01*
X11583706Y-15472136D02*
X11593229Y-15481660D01*
X11593229Y-15481660D02*
X11612277Y-15491184D01*
X11612277Y-15491184D02*
X11650372Y-15491184D01*
X11650372Y-15491184D02*
X11669420Y-15481660D01*
X11669420Y-15481660D02*
X11678944Y-15472136D01*
X11678944Y-15472136D02*
X11688468Y-15453088D01*
X11688468Y-15453088D02*
X11688468Y-15414993D01*
X11688468Y-15414993D02*
X11678944Y-15395946D01*
X11678944Y-15395946D02*
X11669420Y-15386422D01*
X11669420Y-15386422D02*
X11650372Y-15376898D01*
X11926563Y-15491184D02*
X11926563Y-15291184D01*
X12012277Y-15491184D02*
X12012277Y-15386422D01*
X12012277Y-15386422D02*
X12002753Y-15367374D01*
X12002753Y-15367374D02*
X11983706Y-15357850D01*
X11983706Y-15357850D02*
X11955134Y-15357850D01*
X11955134Y-15357850D02*
X11936087Y-15367374D01*
X11936087Y-15367374D02*
X11926563Y-15376898D01*
X12136087Y-15491184D02*
X12117039Y-15481660D01*
X12117039Y-15481660D02*
X12107515Y-15472136D01*
X12107515Y-15472136D02*
X12097991Y-15453088D01*
X12097991Y-15453088D02*
X12097991Y-15395946D01*
X12097991Y-15395946D02*
X12107515Y-15376898D01*
X12107515Y-15376898D02*
X12117039Y-15367374D01*
X12117039Y-15367374D02*
X12136087Y-15357850D01*
X12136087Y-15357850D02*
X12164658Y-15357850D01*
X12164658Y-15357850D02*
X12183706Y-15367374D01*
X12183706Y-15367374D02*
X12193230Y-15376898D01*
X12193230Y-15376898D02*
X12202753Y-15395946D01*
X12202753Y-15395946D02*
X12202753Y-15453088D01*
X12202753Y-15453088D02*
X12193230Y-15472136D01*
X12193230Y-15472136D02*
X12183706Y-15481660D01*
X12183706Y-15481660D02*
X12164658Y-15491184D01*
X12164658Y-15491184D02*
X12136087Y-15491184D01*
X12317039Y-15491184D02*
X12297991Y-15481660D01*
X12297991Y-15481660D02*
X12288468Y-15462612D01*
X12288468Y-15462612D02*
X12288468Y-15291184D01*
X12469420Y-15481660D02*
X12450372Y-15491184D01*
X12450372Y-15491184D02*
X12412277Y-15491184D01*
X12412277Y-15491184D02*
X12393230Y-15481660D01*
X12393230Y-15481660D02*
X12383706Y-15462612D01*
X12383706Y-15462612D02*
X12383706Y-15386422D01*
X12383706Y-15386422D02*
X12393230Y-15367374D01*
X12393230Y-15367374D02*
X12412277Y-15357850D01*
X12412277Y-15357850D02*
X12450372Y-15357850D01*
X12450372Y-15357850D02*
X12469420Y-15367374D01*
X12469420Y-15367374D02*
X12478944Y-15386422D01*
X12478944Y-15386422D02*
X12478944Y-15405469D01*
X12478944Y-15405469D02*
X12383706Y-15424517D01*
X12555134Y-15481660D02*
X12574182Y-15491184D01*
X12574182Y-15491184D02*
X12612277Y-15491184D01*
X12612277Y-15491184D02*
X12631325Y-15481660D01*
X12631325Y-15481660D02*
X12640849Y-15462612D01*
X12640849Y-15462612D02*
X12640849Y-15453088D01*
X12640849Y-15453088D02*
X12631325Y-15434041D01*
X12631325Y-15434041D02*
X12612277Y-15424517D01*
X12612277Y-15424517D02*
X12583706Y-15424517D01*
X12583706Y-15424517D02*
X12564658Y-15414993D01*
X12564658Y-15414993D02*
X12555134Y-15395946D01*
X12555134Y-15395946D02*
X12555134Y-15386422D01*
X12555134Y-15386422D02*
X12564658Y-15367374D01*
X12564658Y-15367374D02*
X12583706Y-15357850D01*
X12583706Y-15357850D02*
X12612277Y-15357850D01*
X12612277Y-15357850D02*
X12631325Y-15367374D01*
X12707515Y-15567374D02*
X12717039Y-15557850D01*
X12717039Y-15557850D02*
X12736087Y-15529279D01*
X12736087Y-15529279D02*
X12745611Y-15510231D01*
X12745611Y-15510231D02*
X12755134Y-15481660D01*
X12755134Y-15481660D02*
X12764658Y-15434041D01*
X12764658Y-15434041D02*
X12764658Y-15395946D01*
X12764658Y-15395946D02*
X12755134Y-15348327D01*
X12755134Y-15348327D02*
X12745611Y-15319755D01*
X12745611Y-15319755D02*
X12736087Y-15300708D01*
X12736087Y-15300708D02*
X12717039Y-15272136D01*
X12717039Y-15272136D02*
X12707515Y-15262612D01*
D10*
X7501500Y-15613700D02*
X7501500Y-15713700D01*
X7451500Y-15663700D02*
X7551500Y-15663700D01*
D11*
X7917039Y-15755184D02*
X7802753Y-15755184D01*
X7859896Y-15755184D02*
X7859896Y-15555184D01*
X7859896Y-15555184D02*
X7840848Y-15583755D01*
X7840848Y-15583755D02*
X7821801Y-15602803D01*
X7821801Y-15602803D02*
X7802753Y-15612327D01*
X8002753Y-15736136D02*
X8012277Y-15745660D01*
X8012277Y-15745660D02*
X8002753Y-15755184D01*
X8002753Y-15755184D02*
X7993229Y-15745660D01*
X7993229Y-15745660D02*
X8002753Y-15736136D01*
X8002753Y-15736136D02*
X8002753Y-15755184D01*
X8136086Y-15555184D02*
X8155134Y-15555184D01*
X8155134Y-15555184D02*
X8174182Y-15564708D01*
X8174182Y-15564708D02*
X8183705Y-15574231D01*
X8183705Y-15574231D02*
X8193229Y-15593279D01*
X8193229Y-15593279D02*
X8202753Y-15631374D01*
X8202753Y-15631374D02*
X8202753Y-15678993D01*
X8202753Y-15678993D02*
X8193229Y-15717088D01*
X8193229Y-15717088D02*
X8183705Y-15736136D01*
X8183705Y-15736136D02*
X8174182Y-15745660D01*
X8174182Y-15745660D02*
X8155134Y-15755184D01*
X8155134Y-15755184D02*
X8136086Y-15755184D01*
X8136086Y-15755184D02*
X8117039Y-15745660D01*
X8117039Y-15745660D02*
X8107515Y-15736136D01*
X8107515Y-15736136D02*
X8097991Y-15717088D01*
X8097991Y-15717088D02*
X8088467Y-15678993D01*
X8088467Y-15678993D02*
X8088467Y-15631374D01*
X8088467Y-15631374D02*
X8097991Y-15593279D01*
X8097991Y-15593279D02*
X8107515Y-15574231D01*
X8107515Y-15574231D02*
X8117039Y-15564708D01*
X8117039Y-15564708D02*
X8136086Y-15555184D01*
X8326562Y-15555184D02*
X8345610Y-15555184D01*
X8345610Y-15555184D02*
X8364658Y-15564708D01*
X8364658Y-15564708D02*
X8374182Y-15574231D01*
X8374182Y-15574231D02*
X8383705Y-15593279D01*
X8383705Y-15593279D02*
X8393229Y-15631374D01*
X8393229Y-15631374D02*
X8393229Y-15678993D01*
X8393229Y-15678993D02*
X8383705Y-15717088D01*
X8383705Y-15717088D02*
X8374182Y-15736136D01*
X8374182Y-15736136D02*
X8364658Y-15745660D01*
X8364658Y-15745660D02*
X8345610Y-15755184D01*
X8345610Y-15755184D02*
X8326562Y-15755184D01*
X8326562Y-15755184D02*
X8307515Y-15745660D01*
X8307515Y-15745660D02*
X8297991Y-15736136D01*
X8297991Y-15736136D02*
X8288467Y-15717088D01*
X8288467Y-15717088D02*
X8278943Y-15678993D01*
X8278943Y-15678993D02*
X8278943Y-15631374D01*
X8278943Y-15631374D02*
X8288467Y-15593279D01*
X8288467Y-15593279D02*
X8297991Y-15574231D01*
X8297991Y-15574231D02*
X8307515Y-15564708D01*
X8307515Y-15564708D02*
X8326562Y-15555184D01*
X8517039Y-15555184D02*
X8536086Y-15555184D01*
X8536086Y-15555184D02*
X8555134Y-15564708D01*
X8555134Y-15564708D02*
X8564658Y-15574231D01*
X8564658Y-15574231D02*
X8574182Y-15593279D01*
X8574182Y-15593279D02*
X8583705Y-15631374D01*
X8583705Y-15631374D02*
X8583705Y-15678993D01*
X8583705Y-15678993D02*
X8574182Y-15717088D01*
X8574182Y-15717088D02*
X8564658Y-15736136D01*
X8564658Y-15736136D02*
X8555134Y-15745660D01*
X8555134Y-15745660D02*
X8536086Y-15755184D01*
X8536086Y-15755184D02*
X8517039Y-15755184D01*
X8517039Y-15755184D02*
X8497991Y-15745660D01*
X8497991Y-15745660D02*
X8488467Y-15736136D01*
X8488467Y-15736136D02*
X8478944Y-15717088D01*
X8478944Y-15717088D02*
X8469420Y-15678993D01*
X8469420Y-15678993D02*
X8469420Y-15631374D01*
X8469420Y-15631374D02*
X8478944Y-15593279D01*
X8478944Y-15593279D02*
X8488467Y-15574231D01*
X8488467Y-15574231D02*
X8497991Y-15564708D01*
X8497991Y-15564708D02*
X8517039Y-15555184D01*
X8669420Y-15755184D02*
X8669420Y-15621850D01*
X8669420Y-15640898D02*
X8678944Y-15631374D01*
X8678944Y-15631374D02*
X8697991Y-15621850D01*
X8697991Y-15621850D02*
X8726563Y-15621850D01*
X8726563Y-15621850D02*
X8745610Y-15631374D01*
X8745610Y-15631374D02*
X8755134Y-15650422D01*
X8755134Y-15650422D02*
X8755134Y-15755184D01*
X8755134Y-15650422D02*
X8764658Y-15631374D01*
X8764658Y-15631374D02*
X8783705Y-15621850D01*
X8783705Y-15621850D02*
X8812277Y-15621850D01*
X8812277Y-15621850D02*
X8831325Y-15631374D01*
X8831325Y-15631374D02*
X8840848Y-15650422D01*
X8840848Y-15650422D02*
X8840848Y-15755184D01*
X8936086Y-15755184D02*
X8936086Y-15621850D01*
X8936086Y-15640898D02*
X8945610Y-15631374D01*
X8945610Y-15631374D02*
X8964658Y-15621850D01*
X8964658Y-15621850D02*
X8993229Y-15621850D01*
X8993229Y-15621850D02*
X9012277Y-15631374D01*
X9012277Y-15631374D02*
X9021801Y-15650422D01*
X9021801Y-15650422D02*
X9021801Y-15755184D01*
X9021801Y-15650422D02*
X9031325Y-15631374D01*
X9031325Y-15631374D02*
X9050372Y-15621850D01*
X9050372Y-15621850D02*
X9078944Y-15621850D01*
X9078944Y-15621850D02*
X9097991Y-15631374D01*
X9097991Y-15631374D02*
X9107515Y-15650422D01*
X9107515Y-15650422D02*
X9107515Y-15755184D01*
X9497991Y-15545660D02*
X9326563Y-15802803D01*
X9755134Y-15555184D02*
X9774182Y-15555184D01*
X9774182Y-15555184D02*
X9793229Y-15564708D01*
X9793229Y-15564708D02*
X9802753Y-15574231D01*
X9802753Y-15574231D02*
X9812277Y-15593279D01*
X9812277Y-15593279D02*
X9821801Y-15631374D01*
X9821801Y-15631374D02*
X9821801Y-15678993D01*
X9821801Y-15678993D02*
X9812277Y-15717088D01*
X9812277Y-15717088D02*
X9802753Y-15736136D01*
X9802753Y-15736136D02*
X9793229Y-15745660D01*
X9793229Y-15745660D02*
X9774182Y-15755184D01*
X9774182Y-15755184D02*
X9755134Y-15755184D01*
X9755134Y-15755184D02*
X9736087Y-15745660D01*
X9736087Y-15745660D02*
X9726563Y-15736136D01*
X9726563Y-15736136D02*
X9717039Y-15717088D01*
X9717039Y-15717088D02*
X9707515Y-15678993D01*
X9707515Y-15678993D02*
X9707515Y-15631374D01*
X9707515Y-15631374D02*
X9717039Y-15593279D01*
X9717039Y-15593279D02*
X9726563Y-15574231D01*
X9726563Y-15574231D02*
X9736087Y-15564708D01*
X9736087Y-15564708D02*
X9755134Y-15555184D01*
X9907515Y-15736136D02*
X9917039Y-15745660D01*
X9917039Y-15745660D02*
X9907515Y-15755184D01*
X9907515Y-15755184D02*
X9897991Y-15745660D01*
X9897991Y-15745660D02*
X9907515Y-15736136D01*
X9907515Y-15736136D02*
X9907515Y-15755184D01*
X10040848Y-15555184D02*
X10059896Y-15555184D01*
X10059896Y-15555184D02*
X10078944Y-15564708D01*
X10078944Y-15564708D02*
X10088468Y-15574231D01*
X10088468Y-15574231D02*
X10097991Y-15593279D01*
X10097991Y-15593279D02*
X10107515Y-15631374D01*
X10107515Y-15631374D02*
X10107515Y-15678993D01*
X10107515Y-15678993D02*
X10097991Y-15717088D01*
X10097991Y-15717088D02*
X10088468Y-15736136D01*
X10088468Y-15736136D02*
X10078944Y-15745660D01*
X10078944Y-15745660D02*
X10059896Y-15755184D01*
X10059896Y-15755184D02*
X10040848Y-15755184D01*
X10040848Y-15755184D02*
X10021801Y-15745660D01*
X10021801Y-15745660D02*
X10012277Y-15736136D01*
X10012277Y-15736136D02*
X10002753Y-15717088D01*
X10002753Y-15717088D02*
X9993229Y-15678993D01*
X9993229Y-15678993D02*
X9993229Y-15631374D01*
X9993229Y-15631374D02*
X10002753Y-15593279D01*
X10002753Y-15593279D02*
X10012277Y-15574231D01*
X10012277Y-15574231D02*
X10021801Y-15564708D01*
X10021801Y-15564708D02*
X10040848Y-15555184D01*
X10174182Y-15555184D02*
X10297991Y-15555184D01*
X10297991Y-15555184D02*
X10231325Y-15631374D01*
X10231325Y-15631374D02*
X10259896Y-15631374D01*
X10259896Y-15631374D02*
X10278944Y-15640898D01*
X10278944Y-15640898D02*
X10288468Y-15650422D01*
X10288468Y-15650422D02*
X10297991Y-15669469D01*
X10297991Y-15669469D02*
X10297991Y-15717088D01*
X10297991Y-15717088D02*
X10288468Y-15736136D01*
X10288468Y-15736136D02*
X10278944Y-15745660D01*
X10278944Y-15745660D02*
X10259896Y-15755184D01*
X10259896Y-15755184D02*
X10202753Y-15755184D01*
X10202753Y-15755184D02*
X10183706Y-15745660D01*
X10183706Y-15745660D02*
X10174182Y-15736136D01*
X10393229Y-15755184D02*
X10431325Y-15755184D01*
X10431325Y-15755184D02*
X10450372Y-15745660D01*
X10450372Y-15745660D02*
X10459896Y-15736136D01*
X10459896Y-15736136D02*
X10478944Y-15707565D01*
X10478944Y-15707565D02*
X10488468Y-15669469D01*
X10488468Y-15669469D02*
X10488468Y-15593279D01*
X10488468Y-15593279D02*
X10478944Y-15574231D01*
X10478944Y-15574231D02*
X10469420Y-15564708D01*
X10469420Y-15564708D02*
X10450372Y-15555184D01*
X10450372Y-15555184D02*
X10412277Y-15555184D01*
X10412277Y-15555184D02*
X10393229Y-15564708D01*
X10393229Y-15564708D02*
X10383706Y-15574231D01*
X10383706Y-15574231D02*
X10374182Y-15593279D01*
X10374182Y-15593279D02*
X10374182Y-15640898D01*
X10374182Y-15640898D02*
X10383706Y-15659946D01*
X10383706Y-15659946D02*
X10393229Y-15669469D01*
X10393229Y-15669469D02*
X10412277Y-15678993D01*
X10412277Y-15678993D02*
X10450372Y-15678993D01*
X10450372Y-15678993D02*
X10469420Y-15669469D01*
X10469420Y-15669469D02*
X10478944Y-15659946D01*
X10478944Y-15659946D02*
X10488468Y-15640898D01*
X10659896Y-15621850D02*
X10659896Y-15755184D01*
X10612277Y-15545660D02*
X10564658Y-15688517D01*
X10564658Y-15688517D02*
X10688468Y-15688517D01*
X10755134Y-15555184D02*
X10755134Y-15593279D01*
X10831325Y-15555184D02*
X10831325Y-15593279D01*
X11126563Y-15831374D02*
X11117039Y-15821850D01*
X11117039Y-15821850D02*
X11097991Y-15793279D01*
X11097991Y-15793279D02*
X11088468Y-15774231D01*
X11088468Y-15774231D02*
X11078944Y-15745660D01*
X11078944Y-15745660D02*
X11069420Y-15698041D01*
X11069420Y-15698041D02*
X11069420Y-15659946D01*
X11069420Y-15659946D02*
X11078944Y-15612327D01*
X11078944Y-15612327D02*
X11088468Y-15583755D01*
X11088468Y-15583755D02*
X11097991Y-15564708D01*
X11097991Y-15564708D02*
X11117039Y-15536136D01*
X11117039Y-15536136D02*
X11126563Y-15526612D01*
X11288468Y-15621850D02*
X11288468Y-15755184D01*
X11240848Y-15545660D02*
X11193229Y-15688517D01*
X11193229Y-15688517D02*
X11317039Y-15688517D01*
X11431325Y-15555184D02*
X11450372Y-15555184D01*
X11450372Y-15555184D02*
X11469420Y-15564708D01*
X11469420Y-15564708D02*
X11478944Y-15574231D01*
X11478944Y-15574231D02*
X11488468Y-15593279D01*
X11488468Y-15593279D02*
X11497991Y-15631374D01*
X11497991Y-15631374D02*
X11497991Y-15678993D01*
X11497991Y-15678993D02*
X11488468Y-15717088D01*
X11488468Y-15717088D02*
X11478944Y-15736136D01*
X11478944Y-15736136D02*
X11469420Y-15745660D01*
X11469420Y-15745660D02*
X11450372Y-15755184D01*
X11450372Y-15755184D02*
X11431325Y-15755184D01*
X11431325Y-15755184D02*
X11412277Y-15745660D01*
X11412277Y-15745660D02*
X11402753Y-15736136D01*
X11402753Y-15736136D02*
X11393229Y-15717088D01*
X11393229Y-15717088D02*
X11383706Y-15678993D01*
X11383706Y-15678993D02*
X11383706Y-15631374D01*
X11383706Y-15631374D02*
X11393229Y-15593279D01*
X11393229Y-15593279D02*
X11402753Y-15574231D01*
X11402753Y-15574231D02*
X11412277Y-15564708D01*
X11412277Y-15564708D02*
X11431325Y-15555184D01*
X11736087Y-15755184D02*
X11736087Y-15555184D01*
X11821801Y-15755184D02*
X11821801Y-15650422D01*
X11821801Y-15650422D02*
X11812277Y-15631374D01*
X11812277Y-15631374D02*
X11793230Y-15621850D01*
X11793230Y-15621850D02*
X11764658Y-15621850D01*
X11764658Y-15621850D02*
X11745610Y-15631374D01*
X11745610Y-15631374D02*
X11736087Y-15640898D01*
X11945610Y-15755184D02*
X11926563Y-15745660D01*
X11926563Y-15745660D02*
X11917039Y-15736136D01*
X11917039Y-15736136D02*
X11907515Y-15717088D01*
X11907515Y-15717088D02*
X11907515Y-15659946D01*
X11907515Y-15659946D02*
X11917039Y-15640898D01*
X11917039Y-15640898D02*
X11926563Y-15631374D01*
X11926563Y-15631374D02*
X11945610Y-15621850D01*
X11945610Y-15621850D02*
X11974182Y-15621850D01*
X11974182Y-15621850D02*
X11993230Y-15631374D01*
X11993230Y-15631374D02*
X12002753Y-15640898D01*
X12002753Y-15640898D02*
X12012277Y-15659946D01*
X12012277Y-15659946D02*
X12012277Y-15717088D01*
X12012277Y-15717088D02*
X12002753Y-15736136D01*
X12002753Y-15736136D02*
X11993230Y-15745660D01*
X11993230Y-15745660D02*
X11974182Y-15755184D01*
X11974182Y-15755184D02*
X11945610Y-15755184D01*
X12126563Y-15755184D02*
X12107515Y-15745660D01*
X12107515Y-15745660D02*
X12097991Y-15726612D01*
X12097991Y-15726612D02*
X12097991Y-15555184D01*
X12278944Y-15745660D02*
X12259896Y-15755184D01*
X12259896Y-15755184D02*
X12221801Y-15755184D01*
X12221801Y-15755184D02*
X12202753Y-15745660D01*
X12202753Y-15745660D02*
X12193230Y-15726612D01*
X12193230Y-15726612D02*
X12193230Y-15650422D01*
X12193230Y-15650422D02*
X12202753Y-15631374D01*
X12202753Y-15631374D02*
X12221801Y-15621850D01*
X12221801Y-15621850D02*
X12259896Y-15621850D01*
X12259896Y-15621850D02*
X12278944Y-15631374D01*
X12278944Y-15631374D02*
X12288468Y-15650422D01*
X12288468Y-15650422D02*
X12288468Y-15669469D01*
X12288468Y-15669469D02*
X12193230Y-15688517D01*
X12364658Y-15745660D02*
X12383706Y-15755184D01*
X12383706Y-15755184D02*
X12421801Y-15755184D01*
X12421801Y-15755184D02*
X12440849Y-15745660D01*
X12440849Y-15745660D02*
X12450372Y-15726612D01*
X12450372Y-15726612D02*
X12450372Y-15717088D01*
X12450372Y-15717088D02*
X12440849Y-15698041D01*
X12440849Y-15698041D02*
X12421801Y-15688517D01*
X12421801Y-15688517D02*
X12393230Y-15688517D01*
X12393230Y-15688517D02*
X12374182Y-15678993D01*
X12374182Y-15678993D02*
X12364658Y-15659946D01*
X12364658Y-15659946D02*
X12364658Y-15650422D01*
X12364658Y-15650422D02*
X12374182Y-15631374D01*
X12374182Y-15631374D02*
X12393230Y-15621850D01*
X12393230Y-15621850D02*
X12421801Y-15621850D01*
X12421801Y-15621850D02*
X12440849Y-15631374D01*
X12517039Y-15831374D02*
X12526563Y-15821850D01*
X12526563Y-15821850D02*
X12545611Y-15793279D01*
X12545611Y-15793279D02*
X12555134Y-15774231D01*
X12555134Y-15774231D02*
X12564658Y-15745660D01*
X12564658Y-15745660D02*
X12574182Y-15698041D01*
X12574182Y-15698041D02*
X12574182Y-15659946D01*
X12574182Y-15659946D02*
X12564658Y-15612327D01*
X12564658Y-15612327D02*
X12555134Y-15583755D01*
X12555134Y-15583755D02*
X12545611Y-15564708D01*
X12545611Y-15564708D02*
X12526563Y-15536136D01*
X12526563Y-15536136D02*
X12517039Y-15526612D01*
M02*
