%TF.GenerationSoftware,KiCad,Pcbnew,7.0.7*%
%TF.CreationDate,2023-11-28T10:30:52+00:00*%
%TF.ProjectId,Lynx-PS2,4c796e78-2d50-4533-922e-6b696361645f,rev?*%
%TF.SameCoordinates,Original*%
%TF.FileFunction,Copper,L1,Top*%
%TF.FilePolarity,Positive*%
%FSLAX46Y46*%
G04 Gerber Fmt 4.6, Leading zero omitted, Abs format (unit mm)*
G04 Created by KiCad (PCBNEW 7.0.7) date 2023-11-28 10:30:52*
%MOMM*%
%LPD*%
G01*
G04 APERTURE LIST*
%TA.AperFunction,ComponentPad*%
%ADD10C,1.600000*%
%TD*%
%TA.AperFunction,ComponentPad*%
%ADD11C,1.400000*%
%TD*%
%TA.AperFunction,ComponentPad*%
%ADD12O,1.400000X1.400000*%
%TD*%
%TA.AperFunction,ComponentPad*%
%ADD13R,1.700000X1.700000*%
%TD*%
%TA.AperFunction,ComponentPad*%
%ADD14O,1.700000X1.700000*%
%TD*%
%TA.AperFunction,ComponentPad*%
%ADD15C,7.400000*%
%TD*%
%TA.AperFunction,ComponentPad*%
%ADD16R,1.800000X1.800000*%
%TD*%
%TA.AperFunction,ComponentPad*%
%ADD17C,1.800000*%
%TD*%
%TA.AperFunction,ComponentPad*%
%ADD18R,1.500000X1.500000*%
%TD*%
%TA.AperFunction,ComponentPad*%
%ADD19C,1.500000*%
%TD*%
%TA.AperFunction,ComponentPad*%
%ADD20R,1.600000X1.600000*%
%TD*%
%TA.AperFunction,ComponentPad*%
%ADD21O,1.600000X1.600000*%
%TD*%
%TA.AperFunction,ComponentPad*%
%ADD22O,3.500000X2.000000*%
%TD*%
%TA.AperFunction,ComponentPad*%
%ADD23O,2.000000X4.000000*%
%TD*%
%TA.AperFunction,ViaPad*%
%ADD24C,0.800000*%
%TD*%
%TA.AperFunction,Conductor*%
%ADD25C,0.250000*%
%TD*%
%TA.AperFunction,Conductor*%
%ADD26C,1.000000*%
%TD*%
%TA.AperFunction,Conductor*%
%ADD27C,0.400000*%
%TD*%
%TA.AperFunction,Conductor*%
%ADD28C,1.500000*%
%TD*%
G04 APERTURE END LIST*
D10*
%TO.P,C4,1*%
%TO.N,Net-(U4-PB7)*%
X62660000Y-102300000D03*
%TO.P,C4,2*%
%TO.N,GND*%
X60160000Y-102300000D03*
%TD*%
D11*
%TO.P,R17,1*%
%TO.N,Net-(Q1-B)*%
X104270000Y-89180000D03*
D12*
%TO.P,R17,2*%
%TO.N,Net-(D19-A)*%
X96650000Y-89180000D03*
%TD*%
D13*
%TO.P,J800,1,Pin_1*%
%TO.N,ADMISO*%
X51820000Y-118600000D03*
D14*
%TO.P,J800,2,Pin_2*%
%TO.N,+5V*%
X51820000Y-116060000D03*
%TO.P,J800,3,Pin_3*%
%TO.N,ADSCK*%
X54360000Y-118600000D03*
%TO.P,J800,4,Pin_4*%
%TO.N,ADMOSI*%
X54360000Y-116060000D03*
%TO.P,J800,5,Pin_5*%
%TO.N,ADRESET*%
X56900000Y-118600000D03*
%TO.P,J800,6,Pin_6*%
%TO.N,GND*%
X56900000Y-116060000D03*
%TD*%
D10*
%TO.P,C1,1*%
%TO.N,GND*%
X76750000Y-97250000D03*
%TO.P,C1,2*%
%TO.N,+5V*%
X81750000Y-97250000D03*
%TD*%
D11*
%TO.P,R10,1*%
%TO.N,+5V*%
X69140000Y-102370000D03*
D12*
%TO.P,R10,2*%
%TO.N,ADRESET*%
X76760000Y-102370000D03*
%TD*%
D15*
%TO.P,H1,1,1*%
%TO.N,GND*%
X41075000Y-52525000D03*
%TD*%
D16*
%TO.P,D18,1,K*%
%TO.N,GND*%
X95815000Y-80630000D03*
D17*
%TO.P,D18,2,A*%
%TO.N,Net-(D18-A)*%
X98355000Y-80630000D03*
%TD*%
D18*
%TO.P,Q1,1,C*%
%TO.N,!RST*%
X101727000Y-99822000D03*
D19*
%TO.P,Q1,2,B*%
%TO.N,Net-(Q1-B)*%
X104267000Y-99822000D03*
%TO.P,Q1,3,E*%
%TO.N,GND*%
X106807000Y-99822000D03*
%TD*%
D11*
%TO.P,R9,1*%
%TO.N,!RST*%
X94994000Y-99064000D03*
D12*
%TO.P,R9,2*%
%TO.N,+5V*%
X87374000Y-99064000D03*
%TD*%
D16*
%TO.P,D19,1,K*%
%TO.N,GND*%
X101640000Y-80630000D03*
D17*
%TO.P,D19,2,A*%
%TO.N,Net-(D19-A)*%
X104180000Y-80630000D03*
%TD*%
D13*
%TO.P,J1,1,Pin_1*%
%TO.N,Net-(J1-Pin_1)*%
X65055000Y-116050000D03*
D14*
%TO.P,J1,2,Pin_2*%
%TO.N,+5V*%
X62515000Y-116050000D03*
%TD*%
D11*
%TO.P,R15,1*%
%TO.N,FLOAT*%
X69140000Y-100200000D03*
D12*
%TO.P,R15,2*%
%TO.N,GND*%
X76760000Y-100200000D03*
%TD*%
D11*
%TO.P,R16,1*%
%TO.N,Net-(D19-A)*%
X87374000Y-101214000D03*
D12*
%TO.P,R16,2*%
%TO.N,BREAK*%
X94994000Y-101214000D03*
%TD*%
D20*
%TO.P,RN1,1,common*%
%TO.N,+5V*%
X59080000Y-75370000D03*
D21*
%TO.P,RN1,2,R1*%
%TO.N,ROW7*%
X56540000Y-75370000D03*
%TO.P,RN1,3,R2*%
%TO.N,ROW6*%
X54000000Y-75370000D03*
%TO.P,RN1,4,R3*%
%TO.N,ROW5*%
X51460000Y-75370000D03*
%TO.P,RN1,5,R4*%
%TO.N,ROW4*%
X48920000Y-75370000D03*
%TO.P,RN1,6,R5*%
%TO.N,ROW3*%
X46380000Y-75370000D03*
%TO.P,RN1,7,R6*%
%TO.N,ROW2*%
X43840000Y-75370000D03*
%TO.P,RN1,8,R7*%
%TO.N,ROW1*%
X41300000Y-75370000D03*
%TO.P,RN1,9,R8*%
%TO.N,ROW0*%
X38760000Y-75370000D03*
%TD*%
D20*
%TO.P,C2,1*%
%TO.N,+5V*%
X91290000Y-92800000D03*
D10*
%TO.P,C2,2*%
%TO.N,GND*%
X93290000Y-92800000D03*
%TD*%
D20*
%TO.P,U3,1,~{Q0}*%
%TO.N,COL0*%
X107305000Y-104700000D03*
D21*
%TO.P,U3,2,~{Q1}*%
%TO.N,COL1*%
X104765000Y-104700000D03*
%TO.P,U3,3,~{Q2}*%
%TO.N,COL2*%
X102225000Y-104700000D03*
%TO.P,U3,4,~{Q3}*%
%TO.N,COL3*%
X99685000Y-104700000D03*
%TO.P,U3,5,~{Q4}*%
%TO.N,COL4*%
X97145000Y-104700000D03*
%TO.P,U3,6,~{Q5}*%
%TO.N,COL5*%
X94605000Y-104700000D03*
%TO.P,U3,7,~{Q6}*%
%TO.N,COL6*%
X92065000Y-104700000D03*
%TO.P,U3,8,GND*%
%TO.N,GND*%
X89525000Y-104700000D03*
%TO.P,U3,9,~{Q7}*%
%TO.N,COL7*%
X89525000Y-112320000D03*
%TO.P,U3,10,~{Q8}*%
%TO.N,COL8*%
X92065000Y-112320000D03*
%TO.P,U3,11,~{Q9}*%
%TO.N,COL9*%
X94605000Y-112320000D03*
%TO.P,U3,12,D*%
%TO.N,/KBA3*%
X97145000Y-112320000D03*
%TO.P,U3,13,C*%
%TO.N,/KBA2*%
X99685000Y-112320000D03*
%TO.P,U3,14,B*%
%TO.N,/KBA1*%
X102225000Y-112320000D03*
%TO.P,U3,15,A*%
%TO.N,/KBA0*%
X104765000Y-112320000D03*
%TO.P,U3,16,VCC*%
%TO.N,+5V*%
X107305000Y-112320000D03*
%TD*%
D20*
%TO.P,U4,1,PC6*%
%TO.N,ADRESET*%
X85190000Y-104700000D03*
D21*
%TO.P,U4,2,PD0*%
%TO.N,/AD0*%
X82650000Y-104700000D03*
%TO.P,U4,3,PD1*%
%TO.N,/AD1*%
X80110000Y-104700000D03*
%TO.P,U4,4,PD2*%
%TO.N,MTDATA*%
X77570000Y-104700000D03*
%TO.P,U4,5,PD3*%
%TO.N,PS2-CLK*%
X75030000Y-104700000D03*
%TO.P,U4,6,PD4*%
%TO.N,MTSTROBE*%
X72490000Y-104700000D03*
%TO.P,U4,7,VCC*%
%TO.N,+5V*%
X69950000Y-104700000D03*
%TO.P,U4,8,GND*%
%TO.N,GND*%
X67410000Y-104700000D03*
%TO.P,U4,9,PB6*%
%TO.N,Net-(U4-PB6)*%
X64870000Y-104700000D03*
%TO.P,U4,10,PB7*%
%TO.N,Net-(U4-PB7)*%
X62330000Y-104700000D03*
%TO.P,U4,11,PD5*%
%TO.N,AY2*%
X59790000Y-104700000D03*
%TO.P,U4,12,PD6*%
%TO.N,AY1*%
X57250000Y-104700000D03*
%TO.P,U4,13,PD7*%
%TO.N,AY0*%
X54710000Y-104700000D03*
%TO.P,U4,14,PB0*%
%TO.N,AX2*%
X52170000Y-104700000D03*
%TO.P,U4,15,PB1*%
%TO.N,AX1*%
X52170000Y-112320000D03*
%TO.P,U4,16,PB2*%
%TO.N,AX0*%
X54710000Y-112320000D03*
%TO.P,U4,17,PB3*%
%TO.N,ADMOSI*%
X57250000Y-112320000D03*
%TO.P,U4,18,PB4*%
%TO.N,ADMISO*%
X59790000Y-112320000D03*
%TO.P,U4,19,PB5*%
%TO.N,ADSCK*%
X62330000Y-112320000D03*
%TO.P,U4,20,AVCC*%
%TO.N,+5V*%
X64870000Y-112320000D03*
%TO.P,U4,21,AREF*%
%TO.N,Net-(U4-AREF)*%
X67410000Y-112320000D03*
%TO.P,U4,22,GND*%
%TO.N,GND*%
X69950000Y-112320000D03*
%TO.P,U4,23,PC0*%
%TO.N,BREAK*%
X72490000Y-112320000D03*
%TO.P,U4,24,PC1*%
%TO.N,/AA1*%
X75030000Y-112320000D03*
%TO.P,U4,25,PC2*%
%TO.N,/AA2*%
X77570000Y-112320000D03*
%TO.P,U4,26,PC3*%
%TO.N,/AA3*%
X80110000Y-112320000D03*
%TO.P,U4,27,PC4*%
%TO.N,/AA4*%
X82650000Y-112320000D03*
%TO.P,U4,28,PC5*%
%TO.N,/AA5*%
X85190000Y-112320000D03*
%TD*%
D10*
%TO.P,C5,1*%
%TO.N,Net-(U4-AREF)*%
X68470000Y-97230000D03*
%TO.P,C5,2*%
%TO.N,GND*%
X73470000Y-97230000D03*
%TD*%
D13*
%TO.P,PL1,1,Pin_1*%
%TO.N,GND*%
X104521000Y-116050000D03*
D14*
%TO.P,PL1,2,Pin_2*%
%TO.N,/KBA0*%
X101981000Y-116050000D03*
%TO.P,PL1,3,Pin_3*%
%TO.N,/KBA1*%
X99441000Y-116050000D03*
%TO.P,PL1,4,Pin_4*%
%TO.N,/KBA2*%
X96901000Y-116050000D03*
%TO.P,PL1,5,Pin_5*%
%TO.N,/KBA3*%
X94361000Y-116050000D03*
%TO.P,PL1,6,Pin_6*%
%TO.N,!RST*%
X91821000Y-116050000D03*
%TO.P,PL1,7,Pin_7*%
%TO.N,ROW7*%
X89281000Y-116050000D03*
%TO.P,PL1,8,Pin_8*%
%TO.N,ROW6*%
X86741000Y-116050000D03*
%TO.P,PL1,9,Pin_9*%
%TO.N,ROW5*%
X84201000Y-116050000D03*
%TO.P,PL1,10,Pin_10*%
%TO.N,ROW4*%
X81661000Y-116050000D03*
%TO.P,PL1,11,Pin_11*%
%TO.N,ROW3*%
X79121000Y-116050000D03*
%TO.P,PL1,12,Pin_12*%
%TO.N,ROW2*%
X76581000Y-116050000D03*
%TO.P,PL1,13,Pin_13*%
%TO.N,ROW1*%
X74041000Y-116050000D03*
%TO.P,PL1,14,Pin_14*%
%TO.N,ROW0*%
X71501000Y-116050000D03*
%TO.P,PL1,15,Pin_15*%
%TO.N,Net-(J1-Pin_1)*%
X68961000Y-116050000D03*
%TD*%
D10*
%TO.P,C3,1*%
%TO.N,Net-(U4-PB6)*%
X57940000Y-102300000D03*
%TO.P,C3,2*%
%TO.N,GND*%
X55440000Y-102300000D03*
%TD*%
D19*
%TO.P,Y1,1,1*%
%TO.N,Net-(U4-PB6)*%
X56640000Y-98320000D03*
%TO.P,Y1,2,2*%
%TO.N,Net-(U4-PB7)*%
X61520000Y-98320000D03*
%TD*%
D11*
%TO.P,R18,1*%
%TO.N,Net-(D18-A)*%
X96650000Y-87020000D03*
D12*
%TO.P,R18,2*%
%TO.N,+5V*%
X104270000Y-87020000D03*
%TD*%
D20*
%TO.P,U1,1,Pin_1*%
%TO.N,ROW3*%
X86870000Y-78590000D03*
D21*
%TO.P,U1,2,Pin_2*%
%TO.N,AY2*%
X84330000Y-78590000D03*
%TO.P,U1,3,Pin_3*%
%TO.N,ADSCK*%
X81790000Y-78590000D03*
%TO.P,U1,4,Pin_4*%
%TO.N,ADMOSI*%
X79250000Y-78590000D03*
%TO.P,U1,5,Pin_5*%
%TO.N,AX0*%
X76710000Y-78590000D03*
%TO.P,U1,6,Pin_6*%
%TO.N,COL14*%
X74170000Y-78590000D03*
%TO.P,U1,7,Pin_7*%
%TO.N,FLOAT*%
X71630000Y-78590000D03*
%TO.P,U1,8,Pin_8*%
%TO.N,COL6*%
X69090000Y-78590000D03*
%TO.P,U1,9,Pin_9*%
%TO.N,COL7*%
X66550000Y-78590000D03*
%TO.P,U1,10,Pin_10*%
%TO.N,COL8*%
X64010000Y-78590000D03*
%TO.P,U1,11,Pin_11*%
%TO.N,COL9*%
X61470000Y-78590000D03*
%TO.P,U1,12,Pin_12*%
%TO.N,COL10*%
X58930000Y-78590000D03*
%TO.P,U1,13,Pin_13*%
%TO.N,COL11*%
X56390000Y-78590000D03*
%TO.P,U1,14,Pin_14*%
%TO.N,unconnected-(U1-Pin_14-Pad14)*%
X53850000Y-78590000D03*
%TO.P,U1,15,Pin_15*%
%TO.N,ROW7*%
X51310000Y-78590000D03*
%TO.P,U1,16,Pin_16*%
%TO.N,GND*%
X48770000Y-78590000D03*
%TO.P,U1,17,Pin_17*%
%TO.N,ROW6*%
X46230000Y-78590000D03*
%TO.P,U1,18,Pin_18*%
%TO.N,MTSTROBE*%
X43690000Y-78590000D03*
%TO.P,U1,19,Pin_19*%
%TO.N,ROW5*%
X41150000Y-78590000D03*
%TO.P,U1,20,Pin_20*%
%TO.N,GND*%
X38610000Y-78590000D03*
%TO.P,U1,21,Pin_21*%
%TO.N,ROW4*%
X38610000Y-93830000D03*
%TO.P,U1,22,Pin_22*%
%TO.N,AX1*%
X41150000Y-93830000D03*
%TO.P,U1,23,Pin_23*%
%TO.N,AX2*%
X43690000Y-93830000D03*
%TO.P,U1,24,Pin_24*%
%TO.N,AY0*%
X46230000Y-93830000D03*
%TO.P,U1,25,Pin_25*%
%TO.N,AY1*%
X48770000Y-93830000D03*
%TO.P,U1,26,Pin_26*%
%TO.N,COL13*%
X51310000Y-93830000D03*
%TO.P,U1,27,Pin_27*%
%TO.N,COL12*%
X53850000Y-93830000D03*
%TO.P,U1,28,Pin_28*%
%TO.N,COL5*%
X56390000Y-93830000D03*
%TO.P,U1,29,Pin_29*%
%TO.N,COL4*%
X58930000Y-93830000D03*
%TO.P,U1,30,Pin_30*%
%TO.N,COL3*%
X61470000Y-93830000D03*
%TO.P,U1,31,Pin_31*%
%TO.N,COL2*%
X64010000Y-93830000D03*
%TO.P,U1,32,Pin_32*%
%TO.N,COL1*%
X66550000Y-93830000D03*
%TO.P,U1,33,Pin_33*%
%TO.N,COL0*%
X69090000Y-93830000D03*
%TO.P,U1,34,Pin_34*%
%TO.N,unconnected-(U1-Pin_34-Pad34)*%
X71630000Y-93830000D03*
%TO.P,U1,35,Pin_35*%
%TO.N,ROW0*%
X74170000Y-93830000D03*
%TO.P,U1,36,Pin_36*%
%TO.N,+5V*%
X76710000Y-93830000D03*
%TO.P,U1,37,Pin_37*%
%TO.N,ROW1*%
X79250000Y-93830000D03*
%TO.P,U1,38,Pin_38*%
%TO.N,MTDATA*%
X81790000Y-93830000D03*
%TO.P,U1,39,Pin_39*%
%TO.N,ROW2*%
X84330000Y-93830000D03*
%TO.P,U1,40,Pin_40*%
%TO.N,+5V*%
X86870000Y-93830000D03*
%TD*%
D20*
%TO.P,J3,1*%
%TO.N,ADMISO*%
X43870000Y-105670000D03*
D10*
%TO.P,J3,2*%
%TO.N,unconnected-(J3-Pad2)*%
X43870000Y-108270000D03*
%TO.P,J3,3*%
%TO.N,GND*%
X43870000Y-103570000D03*
%TO.P,J3,4*%
%TO.N,+5V*%
X43870000Y-110370000D03*
%TO.P,J3,5*%
%TO.N,PS2-CLK*%
X46670000Y-103570000D03*
%TO.P,J3,6*%
%TO.N,unconnected-(J3-Pad6)*%
X46670000Y-110370000D03*
D22*
%TO.P,J3,7*%
%TO.N,GND*%
X41020000Y-113820000D03*
D23*
X40220000Y-106970000D03*
D22*
X41020000Y-100120000D03*
%TD*%
D24*
%TO.N,MTDATA*%
X72322800Y-102414300D03*
%TO.N,ADRESET*%
X68867000Y-106236400D03*
%TO.N,COL9*%
X94099300Y-97238300D03*
%TO.N,COL8*%
X59652000Y-106361100D03*
%TO.N,COL7*%
X92662300Y-106435000D03*
%TO.N,COL6*%
X91770300Y-95309600D03*
%TO.N,FLOAT*%
X62800551Y-95285349D03*
%TO.N,ROW0*%
X47504800Y-81094100D03*
%TO.N,ROW1*%
X75089600Y-95005800D03*
X46686000Y-80244600D03*
%TO.N,ROW2*%
X48911400Y-80449800D03*
%TO.N,ROW3*%
X94706200Y-78757500D03*
X106139000Y-108369500D03*
%TO.N,ROW4*%
X55085800Y-110830200D03*
%TO.N,ROW5*%
X51286100Y-83107300D03*
X45270100Y-104295000D03*
%TO.N,ROW6*%
X55064300Y-79647500D03*
X90186500Y-97453000D03*
%TO.N,ROW7*%
X58671100Y-107987800D03*
%TO.N,PS2-CLK*%
X74062100Y-109332400D03*
%TD*%
D25*
%TO.N,ROW3*%
X104467500Y-78757500D02*
X94706200Y-78757500D01*
X103178900Y-84021100D02*
X105580000Y-81620000D01*
X105580000Y-81620000D02*
X105580000Y-79870000D01*
X103178900Y-100578900D02*
X103178900Y-84021100D01*
X105580000Y-79870000D02*
X104467500Y-78757500D01*
X106139000Y-103539000D02*
X103178900Y-100578900D01*
X106139000Y-108369500D02*
X106139000Y-103539000D01*
%TO.N,Net-(D19-A)*%
X96650000Y-89120000D02*
X96650000Y-89180000D01*
X104180000Y-81590000D02*
X96650000Y-89120000D01*
X104180000Y-80630000D02*
X104180000Y-81590000D01*
%TO.N,AX0*%
X58317000Y-108713000D02*
X54710000Y-112320000D01*
X59989000Y-108713000D02*
X58317000Y-108713000D01*
X63600000Y-105102000D02*
X59989000Y-108713000D01*
X63600000Y-102951300D02*
X63600000Y-105102000D01*
X65280000Y-101271300D02*
X63600000Y-102951300D01*
X65280000Y-90010000D02*
X65280000Y-101271300D01*
X76710000Y-78590000D02*
X76700000Y-78590000D01*
X76700000Y-78590000D02*
X65280000Y-90010000D01*
%TO.N,ADMOSI*%
X63510000Y-106060000D02*
X57250000Y-112320000D01*
X66140000Y-96351700D02*
X66140000Y-105510000D01*
X65590000Y-106060000D02*
X63510000Y-106060000D01*
X67964800Y-94526900D02*
X66140000Y-96351700D01*
X67964800Y-89915200D02*
X67964800Y-94526900D01*
X79250000Y-78590000D02*
X79250000Y-78630000D01*
X79250000Y-78630000D02*
X67964800Y-89915200D01*
X66140000Y-105510000D02*
X65590000Y-106060000D01*
%TO.N,ADSCK*%
X62330000Y-111748095D02*
X62330000Y-112320000D01*
X68563700Y-105514395D02*
X62330000Y-111748095D01*
X68563700Y-103423700D02*
X68563700Y-105514395D01*
X67265800Y-102125800D02*
X68563700Y-103423700D01*
X67265800Y-96756900D02*
X67265800Y-102125800D01*
X68512600Y-96048600D02*
X67974100Y-96048600D01*
X70360000Y-94201200D02*
X68512600Y-96048600D01*
X67974100Y-96048600D02*
X67265800Y-96756900D01*
X70360000Y-90010000D02*
X70360000Y-94201200D01*
X81780000Y-78590000D02*
X70360000Y-90010000D01*
X81790000Y-78590000D02*
X81780000Y-78590000D01*
X57320000Y-117330000D02*
X55630000Y-117330000D01*
X55630000Y-117330000D02*
X54360000Y-118600000D01*
X62330000Y-112320000D02*
X57320000Y-117330000D01*
%TO.N,ADMISO*%
X57780400Y-114329600D02*
X59790000Y-112320000D01*
X52995100Y-114329600D02*
X57780400Y-114329600D01*
%TO.N,AY1*%
X48770000Y-97256600D02*
X48770000Y-93830000D01*
X55915200Y-103425200D02*
X54938600Y-103425200D01*
X57190000Y-104700000D02*
X55915200Y-103425200D01*
X54938600Y-103425200D02*
X48770000Y-97256600D01*
X57250000Y-104700000D02*
X57190000Y-104700000D01*
%TO.N,COL8*%
X58530000Y-105239100D02*
X59652000Y-106361100D01*
X58530000Y-103870000D02*
X58530000Y-105239100D01*
X56797600Y-102825200D02*
X57397600Y-103425200D01*
X57397600Y-103425200D02*
X58085200Y-103425200D01*
X56797600Y-100019600D02*
X56797600Y-102825200D01*
X55224700Y-98446700D02*
X56797600Y-100019600D01*
X58085200Y-103425200D02*
X58530000Y-103870000D01*
X55224700Y-88500400D02*
X55224700Y-98446700D01*
X64010000Y-79715100D02*
X55224700Y-88500400D01*
X64010000Y-78590000D02*
X64010000Y-79715100D01*
%TO.N,AY2*%
X59810000Y-104700000D02*
X59790000Y-104700000D01*
X61285400Y-103224600D02*
X59810000Y-104700000D01*
X70360000Y-80287700D02*
X60339100Y-90308600D01*
X71104900Y-77459000D02*
X70360000Y-78203900D01*
X60339100Y-90308600D02*
X60339100Y-100279200D01*
X70360000Y-78203900D02*
X70360000Y-80287700D01*
X83199000Y-77459000D02*
X71104900Y-77459000D01*
X60339100Y-100279200D02*
X61285400Y-101225500D01*
X61285400Y-101225500D02*
X61285400Y-103224600D01*
X84330000Y-78590000D02*
X83199000Y-77459000D01*
%TO.N,ROW2*%
X83181700Y-94978300D02*
X84330000Y-93830000D01*
X78803000Y-94978300D02*
X83181700Y-94978300D01*
X77980000Y-94155300D02*
X78803000Y-94978300D01*
X77980000Y-93430100D02*
X77980000Y-94155300D01*
X77226700Y-92676800D02*
X77980000Y-93430100D01*
X76201900Y-92676800D02*
X77226700Y-92676800D01*
X75542900Y-93335800D02*
X76201900Y-92676800D01*
X75878900Y-94616100D02*
X75542900Y-94280100D01*
X75878900Y-95657300D02*
X75878900Y-94616100D01*
X75542900Y-94280100D02*
X75542900Y-93335800D01*
X76314200Y-103409600D02*
X75610800Y-102706200D01*
X75610800Y-95925400D02*
X75878900Y-95657300D01*
X78810000Y-113821000D02*
X78810000Y-104060000D01*
X78810000Y-104060000D02*
X78159600Y-103409600D01*
X78159600Y-103409600D02*
X76314200Y-103409600D01*
X75610800Y-102706200D02*
X75610800Y-95925400D01*
X76581000Y-116050000D02*
X78810000Y-113821000D01*
%TO.N,ADRESET*%
X85190000Y-104700000D02*
X82860000Y-102370000D01*
X82860000Y-102370000D02*
X76760000Y-102370000D01*
%TO.N,COL6*%
X91770300Y-104405300D02*
X91770300Y-95309600D01*
X92065000Y-104700000D02*
X91770300Y-104405300D01*
%TO.N,/KBA0*%
X101981000Y-115639000D02*
X104765000Y-112855000D01*
X104765000Y-112855000D02*
X104765000Y-112320000D01*
X101981000Y-116050000D02*
X101981000Y-115639000D01*
%TO.N,/KBA1*%
X102225000Y-112825000D02*
X102225000Y-112320000D01*
X99441000Y-115609000D02*
X102225000Y-112825000D01*
X99441000Y-116050000D02*
X99441000Y-115609000D01*
%TO.N,/KBA2*%
X99685000Y-112725000D02*
X99685000Y-112320000D01*
X96901000Y-115509000D02*
X99685000Y-112725000D01*
X96901000Y-116050000D02*
X96901000Y-115509000D01*
%TO.N,/KBA3*%
X97145000Y-112865000D02*
X97145000Y-112320000D01*
X94361000Y-115649000D02*
X97145000Y-112865000D01*
X94361000Y-116050000D02*
X94361000Y-115649000D01*
%TO.N,!RST*%
X95875000Y-108728700D02*
X95875000Y-103574800D01*
X93408900Y-111194800D02*
X95875000Y-108728700D01*
X96057800Y-103392000D02*
X96057800Y-100127800D01*
X93408900Y-114431100D02*
X93408900Y-111194800D01*
X95875000Y-103574800D02*
X96057800Y-103392000D01*
X96057800Y-100127800D02*
X94994000Y-99064000D01*
X91821000Y-116019000D02*
X93408900Y-114431100D01*
X91821000Y-116050000D02*
X91821000Y-116019000D01*
%TO.N,ROW1*%
X75089600Y-102878900D02*
X75089600Y-95005800D01*
X76160100Y-113930900D02*
X76160100Y-103949400D01*
X76160100Y-103949400D02*
X75089600Y-102878900D01*
X74041000Y-116050000D02*
X76160100Y-113930900D01*
%TO.N,ROW0*%
X74636100Y-95993200D02*
X74170000Y-95527100D01*
X74636100Y-103470400D02*
X74636100Y-95993200D01*
X73760000Y-108609100D02*
X73760000Y-104346500D01*
X73337000Y-109032100D02*
X73760000Y-108609100D01*
X73337000Y-109632700D02*
X73337000Y-109032100D01*
X73654200Y-109949900D02*
X73337000Y-109632700D01*
X74170000Y-95527100D02*
X74170000Y-93830000D01*
X73654200Y-113896800D02*
X73654200Y-109949900D01*
X73760000Y-104346500D02*
X74636100Y-103470400D01*
X71501000Y-116050000D02*
X73654200Y-113896800D01*
%TO.N,ADMISO*%
X52995100Y-117424900D02*
X51820000Y-118600000D01*
X52995100Y-114329600D02*
X52995100Y-117424900D01*
%TO.N,ROW7*%
X45072200Y-92379800D02*
X50786100Y-86665900D01*
X50786100Y-86665900D02*
X50786100Y-83877800D01*
X45072200Y-95762200D02*
X45072200Y-92379800D01*
X53584800Y-105223800D02*
X53584800Y-104274800D01*
X53584800Y-104274800D02*
X45072200Y-95762200D01*
X56348800Y-107987800D02*
X53584800Y-105223800D01*
X58671100Y-107987800D02*
X56348800Y-107987800D01*
%TO.N,ROW5*%
X40340000Y-96330000D02*
X45270100Y-101260100D01*
X37440200Y-95340200D02*
X38430000Y-96330000D01*
X38430000Y-96330000D02*
X40340000Y-96330000D01*
X37440200Y-83424900D02*
X37440200Y-95340200D01*
X41150000Y-79715100D02*
X37440200Y-83424900D01*
X45270100Y-101260100D02*
X45270100Y-104295000D01*
X41150000Y-78590000D02*
X41150000Y-79715100D01*
%TO.N,FLOAT*%
X71630000Y-79715100D02*
X71630000Y-78590000D01*
X62835900Y-88509200D02*
X71630000Y-79715100D01*
X62835900Y-95250000D02*
X62835900Y-88509200D01*
X62800551Y-95285349D02*
X62835900Y-95250000D01*
%TO.N,MTDATA*%
X72910000Y-94390000D02*
X72322800Y-94977200D01*
X72322800Y-94977200D02*
X72322800Y-102414300D01*
X73842100Y-92187900D02*
X72910000Y-93120000D01*
X80147900Y-92187900D02*
X73842100Y-92187900D01*
X81790000Y-93830000D02*
X80147900Y-92187900D01*
X72910000Y-93120000D02*
X72910000Y-94390000D01*
%TO.N,ROW7*%
X50537100Y-83628800D02*
X50537100Y-79362900D01*
X50537100Y-79362900D02*
X51310000Y-78590000D01*
X50786100Y-83877800D02*
X50537100Y-83628800D01*
X57519900Y-79052100D02*
X57519900Y-76349900D01*
X57519900Y-76349900D02*
X56540000Y-75370000D01*
X52694200Y-83877800D02*
X57519900Y-79052100D01*
X50786100Y-83877800D02*
X52694200Y-83877800D01*
%TO.N,ROW6*%
X55064300Y-76434300D02*
X55064300Y-79647500D01*
X54000000Y-75370000D02*
X55064300Y-76434300D01*
%TO.N,ROW5*%
X52439900Y-76349900D02*
X51460000Y-75370000D01*
X51286100Y-83107300D02*
X52439900Y-81953500D01*
X52439900Y-81953500D02*
X52439900Y-76349900D01*
%TO.N,ROW4*%
X49899900Y-76349900D02*
X49899900Y-85225000D01*
X48920000Y-75370000D02*
X49899900Y-76349900D01*
X49899900Y-85225000D02*
X42420000Y-92704900D01*
%TO.N,ROW2*%
X47500000Y-78186800D02*
X47500000Y-79038400D01*
X44683200Y-75370000D02*
X47500000Y-78186800D01*
X47500000Y-79038400D02*
X48911400Y-80449800D01*
X43840000Y-75370000D02*
X44683200Y-75370000D01*
%TO.N,ROW1*%
X46239800Y-80244600D02*
X46686000Y-80244600D01*
X44960000Y-78964800D02*
X46239800Y-80244600D01*
X42143200Y-75370000D02*
X44960000Y-78186800D01*
X44960000Y-78186800D02*
X44960000Y-78964800D01*
X41300000Y-75370000D02*
X42143200Y-75370000D01*
%TO.N,ROW0*%
X44584500Y-81094100D02*
X47504800Y-81094100D01*
X42420000Y-78929600D02*
X44584500Y-81094100D01*
X39602700Y-75370000D02*
X42420000Y-78187300D01*
X38760000Y-75370000D02*
X39602700Y-75370000D01*
X42420000Y-78187300D02*
X42420000Y-78929600D01*
D26*
%TO.N,+5V*%
X62515000Y-121685000D02*
X62515000Y-116050000D01*
X35602800Y-110350000D02*
X35602800Y-122302800D01*
X108026200Y-73726200D02*
X91290000Y-73726200D01*
D25*
%TO.N,ADRESET*%
X63691100Y-111412300D02*
X68867000Y-106236400D01*
X63691100Y-112984000D02*
X63691100Y-111412300D01*
X58075100Y-118600000D02*
X63691100Y-112984000D01*
X56900000Y-118600000D02*
X58075100Y-118600000D01*
%TO.N,AY0*%
X46230000Y-93830000D02*
X46230000Y-94955100D01*
X46230000Y-96220000D02*
X46230000Y-94955100D01*
X54710000Y-104700000D02*
X46230000Y-96220000D01*
%TO.N,AX2*%
X52170000Y-104700000D02*
X52170000Y-103574900D01*
X43690000Y-93830000D02*
X43690000Y-94955100D01*
X43690000Y-95094900D02*
X43690000Y-94955100D01*
X52170000Y-103574900D02*
X43690000Y-95094900D01*
%TO.N,AX1*%
X41150000Y-93830000D02*
X41150000Y-94955100D01*
X52170000Y-112320000D02*
X52170000Y-111194900D01*
X52170000Y-107227400D02*
X52170000Y-111194900D01*
X41150000Y-96207400D02*
X52170000Y-107227400D01*
X41150000Y-94955100D02*
X41150000Y-96207400D01*
%TO.N,ADMISO*%
X43870000Y-105670000D02*
X43870000Y-106795100D01*
X52248300Y-114329600D02*
X52995100Y-114329600D01*
X44713800Y-106795100D02*
X52248300Y-114329600D01*
X43870000Y-106795100D02*
X44713800Y-106795100D01*
%TO.N,COL9*%
X98280300Y-107519600D02*
X94605000Y-111194900D01*
X98280300Y-100831800D02*
X98280300Y-107519600D01*
X94686800Y-97238300D02*
X98280300Y-100831800D01*
X94099300Y-97238300D02*
X94686800Y-97238300D01*
X94605000Y-112320000D02*
X94605000Y-111194900D01*
%TO.N,COL7*%
X89525000Y-112320000D02*
X89525000Y-111194900D01*
X92662300Y-108057600D02*
X89525000Y-111194900D01*
X92662300Y-106435000D02*
X92662300Y-108057600D01*
%TO.N,Net-(U4-AREF)*%
X71083900Y-99843900D02*
X68470000Y-97230000D01*
X71083900Y-107521000D02*
X71083900Y-99843900D01*
X67410000Y-111194900D02*
X71083900Y-107521000D01*
X67410000Y-112320000D02*
X67410000Y-111194900D01*
D27*
%TO.N,Net-(U4-PB7)*%
X62660000Y-99460000D02*
X61520000Y-98320000D01*
X62660000Y-102300000D02*
X62660000Y-99460000D01*
X62660000Y-104370000D02*
X62330000Y-104700000D01*
X62660000Y-102300000D02*
X62660000Y-104370000D01*
D25*
%TO.N,BREAK*%
X70307700Y-114502300D02*
X72490000Y-112320000D01*
X70307700Y-116532000D02*
X70307700Y-114502300D01*
X71048700Y-117273000D02*
X70307700Y-116532000D01*
X87189600Y-117273000D02*
X71048700Y-117273000D01*
X88011000Y-116451600D02*
X87189600Y-117273000D01*
X88011000Y-115456800D02*
X88011000Y-116451600D01*
X90795000Y-112672800D02*
X88011000Y-115456800D01*
X90795000Y-111054900D02*
X90795000Y-112672800D01*
X93419400Y-108430500D02*
X90795000Y-111054900D01*
X93419400Y-103813700D02*
X93419400Y-108430500D01*
X94994000Y-102239100D02*
X93419400Y-103813700D01*
X94994000Y-101214000D02*
X94994000Y-102239100D01*
%TO.N,Net-(Q1-B)*%
X104267000Y-89183000D02*
X104270000Y-89180000D01*
X104267000Y-99822000D02*
X104267000Y-89183000D01*
%TO.N,ROW4*%
X38610000Y-93830000D02*
X38610000Y-92704900D01*
X42420000Y-92704900D02*
X38610000Y-92704900D01*
X55085800Y-109258800D02*
X55085800Y-110830200D01*
X42420000Y-96593000D02*
X55085800Y-109258800D01*
X42420000Y-92704900D02*
X42420000Y-96593000D01*
%TO.N,ROW6*%
X86741000Y-112360300D02*
X86741000Y-116050000D01*
X90657300Y-108444000D02*
X86741000Y-112360300D01*
X90657300Y-97923800D02*
X90657300Y-108444000D01*
X90186500Y-97453000D02*
X90657300Y-97923800D01*
%TO.N,PS2-CLK*%
X75030000Y-108364500D02*
X75030000Y-104700000D01*
X74062100Y-109332400D02*
X75030000Y-108364500D01*
D27*
%TO.N,Net-(U4-PB6)*%
X57940000Y-99620000D02*
X56640000Y-98320000D01*
X57940000Y-102300000D02*
X57940000Y-99620000D01*
D28*
%TO.N,Net-(J1-Pin_1)*%
X68961000Y-116050000D02*
X65055000Y-116050000D01*
D25*
%TO.N,Net-(D19-A)*%
X88498700Y-100089300D02*
X87374000Y-101214000D01*
X88498700Y-97555800D02*
X88498700Y-100089300D01*
X91470000Y-94584500D02*
X88498700Y-97555800D01*
X93100100Y-94584500D02*
X91470000Y-94584500D01*
X96650000Y-91034600D02*
X93100100Y-94584500D01*
X96650000Y-89180000D02*
X96650000Y-91034600D01*
%TO.N,Net-(D18-A)*%
X98355000Y-85315000D02*
X96650000Y-87020000D01*
X98355000Y-80630000D02*
X98355000Y-85315000D01*
D27*
%TO.N,+5V*%
X80130000Y-97250000D02*
X76710000Y-93830000D01*
X81750000Y-97250000D02*
X80130000Y-97250000D01*
X83450000Y-97250000D02*
X84500000Y-96200000D01*
X81750000Y-97250000D02*
X83450000Y-97250000D01*
D26*
X49560000Y-116060000D02*
X43870000Y-110370000D01*
X51820000Y-116060000D02*
X49560000Y-116060000D01*
X35622800Y-110370000D02*
X35602800Y-110350000D01*
X43870000Y-110370000D02*
X35622800Y-110370000D01*
X35602800Y-73726200D02*
X35602800Y-110350000D01*
X59080000Y-73726200D02*
X35602800Y-73726200D01*
X90260000Y-93830000D02*
X91290000Y-92800000D01*
X86870000Y-93830000D02*
X90260000Y-93830000D01*
X91290000Y-92800000D02*
X91290000Y-73726200D01*
X59080000Y-75370000D02*
X59080000Y-73726200D01*
X91290000Y-73726200D02*
X59080000Y-73726200D01*
D27*
X84510000Y-96200000D02*
X84500000Y-96200000D01*
X87374000Y-99064000D02*
X84510000Y-96200000D01*
X84500000Y-96200000D02*
X86870000Y-93830000D01*
X64870000Y-113695000D02*
X62515000Y-116050000D01*
X64870000Y-112320000D02*
X64870000Y-113695000D01*
D25*
X64870000Y-112320000D02*
X64870000Y-111194900D01*
X69140000Y-102764900D02*
X69140000Y-102370000D01*
X69950000Y-103574900D02*
X69140000Y-102764900D01*
X69950000Y-104700000D02*
X69950000Y-103574900D01*
X69950000Y-106178900D02*
X69950000Y-104700000D01*
X64934000Y-111194900D02*
X69950000Y-106178900D01*
X64870000Y-111194900D02*
X64934000Y-111194900D01*
%TO.N,GND*%
X76760000Y-97260000D02*
X76760000Y-100200000D01*
X76750000Y-97250000D02*
X76760000Y-97260000D01*
X89525000Y-104700000D02*
X88399900Y-104700000D01*
X83899900Y-100200000D02*
X88399900Y-104700000D01*
X76760000Y-100200000D02*
X83899900Y-100200000D01*
%TD*%
%TA.AperFunction,Conductor*%
%TO.N,+5V*%
G36*
X64763331Y-112708091D02*
G01*
X64795699Y-112713218D01*
X64838515Y-112720000D01*
X64838519Y-112720000D01*
X64901485Y-112720000D01*
X64938960Y-112714064D01*
X64976602Y-112708102D01*
X65045893Y-112717056D01*
X65099346Y-112762052D01*
X65119986Y-112828803D01*
X65119999Y-112830575D01*
X65119999Y-113598871D01*
X65120000Y-113598872D01*
X65316317Y-113546269D01*
X65316326Y-113546265D01*
X65522482Y-113450134D01*
X65708820Y-113319657D01*
X65869657Y-113158820D01*
X66000133Y-112972483D01*
X66022927Y-112923600D01*
X66069098Y-112871160D01*
X66136292Y-112852007D01*
X66203173Y-112872221D01*
X66247691Y-112923596D01*
X66272477Y-112976749D01*
X66403802Y-113164300D01*
X66565700Y-113326198D01*
X66753251Y-113457523D01*
X66843220Y-113499476D01*
X66960750Y-113554281D01*
X66960752Y-113554281D01*
X66960757Y-113554284D01*
X67181913Y-113613543D01*
X67337385Y-113627145D01*
X67409998Y-113633498D01*
X67410000Y-113633498D01*
X67410002Y-113633498D01*
X67482615Y-113627145D01*
X67638087Y-113613543D01*
X67859243Y-113554284D01*
X68066749Y-113457523D01*
X68254300Y-113326198D01*
X68416198Y-113164300D01*
X68547523Y-112976749D01*
X68567618Y-112933654D01*
X68613787Y-112881216D01*
X68680980Y-112862063D01*
X68747862Y-112882277D01*
X68792380Y-112933653D01*
X68812474Y-112976743D01*
X68812477Y-112976749D01*
X68943802Y-113164300D01*
X69105700Y-113326198D01*
X69293251Y-113457523D01*
X69383220Y-113499476D01*
X69500750Y-113554281D01*
X69500752Y-113554281D01*
X69500757Y-113554284D01*
X69721913Y-113613543D01*
X69950000Y-113633498D01*
X69972901Y-113631494D01*
X70041400Y-113645260D01*
X70091584Y-113693874D01*
X70107518Y-113761902D01*
X70084144Y-113827746D01*
X70071390Y-113842703D01*
X69918879Y-113995214D01*
X69906520Y-114005118D01*
X69906693Y-114005327D01*
X69900683Y-114010299D01*
X69900682Y-114010299D01*
X69900682Y-114010300D01*
X69876273Y-114036293D01*
X69852716Y-114061378D01*
X69831572Y-114082522D01*
X69831557Y-114082539D01*
X69827231Y-114088114D01*
X69823447Y-114092544D01*
X69791119Y-114126971D01*
X69791112Y-114126981D01*
X69781279Y-114144867D01*
X69770603Y-114161120D01*
X69758086Y-114177257D01*
X69758085Y-114177259D01*
X69739325Y-114220610D01*
X69736755Y-114225856D01*
X69714003Y-114267241D01*
X69714003Y-114267242D01*
X69708925Y-114287020D01*
X69702625Y-114305422D01*
X69694518Y-114324157D01*
X69687131Y-114370795D01*
X69685946Y-114376516D01*
X69674200Y-114422265D01*
X69674200Y-114442684D01*
X69672673Y-114462083D01*
X69669480Y-114482241D01*
X69669480Y-114482242D01*
X69673925Y-114529266D01*
X69674200Y-114535104D01*
X69674200Y-114684844D01*
X69654515Y-114751883D01*
X69601711Y-114797638D01*
X69532553Y-114807582D01*
X69509937Y-114802125D01*
X69295637Y-114728556D01*
X69073569Y-114691500D01*
X68848431Y-114691500D01*
X68626362Y-114728556D01*
X68462587Y-114784781D01*
X68422324Y-114791500D01*
X66249100Y-114791500D01*
X66182061Y-114771815D01*
X66174789Y-114766766D01*
X66151207Y-114749112D01*
X66151206Y-114749111D01*
X66014203Y-114698011D01*
X65953654Y-114691500D01*
X65953638Y-114691500D01*
X64156362Y-114691500D01*
X64156345Y-114691500D01*
X64095797Y-114698011D01*
X64095795Y-114698011D01*
X63958795Y-114749111D01*
X63841739Y-114836739D01*
X63754111Y-114953795D01*
X63705777Y-115083381D01*
X63663905Y-115139314D01*
X63598441Y-115163730D01*
X63530168Y-115148878D01*
X63501915Y-115127727D01*
X63386082Y-115011894D01*
X63192578Y-114876399D01*
X63013463Y-114792877D01*
X62961024Y-114746705D01*
X62941872Y-114679511D01*
X62962088Y-114612630D01*
X62978178Y-114592824D01*
X64079915Y-113491087D01*
X64092273Y-113481189D01*
X64092100Y-113480979D01*
X64100752Y-113473821D01*
X64103226Y-113472758D01*
X64104725Y-113471808D01*
X64104878Y-113472049D01*
X64164953Y-113446253D01*
X64232200Y-113456980D01*
X64423673Y-113546265D01*
X64423682Y-113546269D01*
X64619999Y-113598872D01*
X64620000Y-113598871D01*
X64620000Y-112830575D01*
X64639685Y-112763536D01*
X64692489Y-112717781D01*
X64761647Y-112707837D01*
X64763331Y-112708091D01*
G37*
%TD.AperFunction*%
%TA.AperFunction,Conductor*%
G36*
X69843331Y-105088091D02*
G01*
X69875699Y-105093218D01*
X69918515Y-105100000D01*
X69918519Y-105100000D01*
X69981485Y-105100000D01*
X70024300Y-105093218D01*
X70056602Y-105088102D01*
X70125894Y-105097056D01*
X70179347Y-105142052D01*
X70199987Y-105208803D01*
X70200000Y-105210575D01*
X70200000Y-105978871D01*
X70294306Y-105953602D01*
X70364156Y-105955265D01*
X70422018Y-105994427D01*
X70449523Y-106058655D01*
X70450400Y-106073377D01*
X70450400Y-107207232D01*
X70430715Y-107274271D01*
X70414081Y-107294913D01*
X67021179Y-110687814D01*
X67008820Y-110697718D01*
X67008993Y-110697927D01*
X67002983Y-110702899D01*
X66955016Y-110753978D01*
X66933872Y-110775122D01*
X66933857Y-110775139D01*
X66929531Y-110780714D01*
X66925747Y-110785144D01*
X66893419Y-110819571D01*
X66893412Y-110819581D01*
X66883579Y-110837467D01*
X66872903Y-110853720D01*
X66860386Y-110869857D01*
X66860385Y-110869859D01*
X66841625Y-110913210D01*
X66839055Y-110918456D01*
X66816303Y-110959841D01*
X66816303Y-110959842D01*
X66811225Y-110979620D01*
X66804925Y-110998022D01*
X66796818Y-111016757D01*
X66789431Y-111063395D01*
X66788246Y-111069116D01*
X66776499Y-111114871D01*
X66776273Y-111116662D01*
X66775705Y-111117963D01*
X66774560Y-111122425D01*
X66773840Y-111122240D01*
X66748342Y-111180706D01*
X66724375Y-111202695D01*
X66565699Y-111313802D01*
X66403806Y-111475695D01*
X66403803Y-111475698D01*
X66403802Y-111475700D01*
X66381519Y-111507524D01*
X66272476Y-111663252D01*
X66272474Y-111663256D01*
X66247691Y-111716402D01*
X66201518Y-111768841D01*
X66134324Y-111787992D01*
X66067444Y-111767775D01*
X66022927Y-111716399D01*
X66000133Y-111667517D01*
X65869657Y-111481179D01*
X65708820Y-111320342D01*
X65522482Y-111189865D01*
X65316326Y-111093734D01*
X65316319Y-111093731D01*
X65199828Y-111062517D01*
X65140168Y-111026151D01*
X65109639Y-110963304D01*
X65117934Y-110893929D01*
X65144236Y-110855067D01*
X68818085Y-107181219D01*
X68879409Y-107147734D01*
X68905767Y-107144900D01*
X68962487Y-107144900D01*
X69149288Y-107105194D01*
X69323752Y-107027518D01*
X69478253Y-106915266D01*
X69606040Y-106773344D01*
X69701527Y-106607956D01*
X69760542Y-106426328D01*
X69780504Y-106236400D01*
X69760542Y-106046472D01*
X69716126Y-105909776D01*
X69706069Y-105878822D01*
X69700000Y-105840504D01*
X69700000Y-105210575D01*
X69719685Y-105143536D01*
X69772489Y-105097781D01*
X69841647Y-105087837D01*
X69843331Y-105088091D01*
G37*
%TD.AperFunction*%
%TA.AperFunction,Conductor*%
G36*
X45380323Y-108357528D02*
G01*
X46053084Y-109030288D01*
X46086569Y-109091611D01*
X46081585Y-109161302D01*
X46039714Y-109217236D01*
X46017816Y-109230347D01*
X46013257Y-109232472D01*
X46013255Y-109232474D01*
X46013250Y-109232477D01*
X46013251Y-109232477D01*
X45825700Y-109363802D01*
X45825698Y-109363803D01*
X45825695Y-109363806D01*
X45663806Y-109525695D01*
X45663803Y-109525698D01*
X45663802Y-109525700D01*
X45581908Y-109642657D01*
X45532476Y-109713252D01*
X45532475Y-109713254D01*
X45435718Y-109920750D01*
X45435714Y-109920762D01*
X45385375Y-110108630D01*
X45349010Y-110168290D01*
X45286163Y-110198819D01*
X45216787Y-110190524D01*
X45162909Y-110146039D01*
X45145825Y-110108629D01*
X45096269Y-109923682D01*
X45096265Y-109923673D01*
X45000133Y-109717516D01*
X45000131Y-109717512D01*
X44949026Y-109644526D01*
X44949025Y-109644526D01*
X44407419Y-110186132D01*
X44346096Y-110219617D01*
X44276404Y-110214633D01*
X44220471Y-110172761D01*
X44209256Y-110154751D01*
X44197641Y-110131955D01*
X44197637Y-110131951D01*
X44197636Y-110131949D01*
X44108050Y-110042363D01*
X44108046Y-110042360D01*
X44108045Y-110042359D01*
X44100458Y-110038493D01*
X44085250Y-110030744D01*
X44034454Y-109982769D01*
X44017660Y-109914948D01*
X44040198Y-109848813D01*
X44053865Y-109832579D01*
X44421674Y-109464770D01*
X44456947Y-109440071D01*
X44526749Y-109407523D01*
X44714300Y-109276198D01*
X44876198Y-109114300D01*
X45007523Y-108926749D01*
X45104284Y-108719243D01*
X45163543Y-108498087D01*
X45169114Y-108434400D01*
X45194566Y-108369334D01*
X45251156Y-108328355D01*
X45320918Y-108324476D01*
X45380323Y-108357528D01*
G37*
%TD.AperFunction*%
%TA.AperFunction,Conductor*%
G36*
X69619568Y-102500605D02*
G01*
X69641791Y-102518239D01*
X70148861Y-103025308D01*
X70164631Y-103004425D01*
X70164633Y-103004422D01*
X70215400Y-102902470D01*
X70262903Y-102851233D01*
X70330566Y-102833812D01*
X70396906Y-102855738D01*
X70440861Y-102910049D01*
X70450400Y-102957742D01*
X70450400Y-103326622D01*
X70430715Y-103393661D01*
X70377911Y-103439416D01*
X70308753Y-103449360D01*
X70294307Y-103446397D01*
X70176610Y-103414860D01*
X70176599Y-103414858D01*
X69950002Y-103395034D01*
X69949996Y-103395034D01*
X69880223Y-103401137D01*
X69811723Y-103387369D01*
X69781737Y-103365290D01*
X69286405Y-102869958D01*
X69252920Y-102808635D01*
X69257904Y-102738943D01*
X69299776Y-102683010D01*
X69315052Y-102673232D01*
X69357947Y-102650019D01*
X69437060Y-102564079D01*
X69440554Y-102556111D01*
X69485504Y-102502628D01*
X69552239Y-102481934D01*
X69619568Y-102500605D01*
G37*
%TD.AperFunction*%
%TA.AperFunction,Conductor*%
G36*
X68104503Y-100834615D02*
G01*
X68124871Y-100857201D01*
X68179529Y-100935260D01*
X68210700Y-100979778D01*
X68360221Y-101129299D01*
X68394445Y-101153263D01*
X68442631Y-101187003D01*
X68442633Y-101187004D01*
X68486258Y-101241580D01*
X68492661Y-101303444D01*
X68493583Y-101303551D01*
X68493101Y-101307697D01*
X68493452Y-101311079D01*
X68492488Y-101312984D01*
X68486671Y-101363119D01*
X68993594Y-101870041D01*
X69027079Y-101931364D01*
X69022095Y-102001055D01*
X68980224Y-102056989D01*
X68964931Y-102066776D01*
X68922056Y-102089979D01*
X68922052Y-102089981D01*
X68842939Y-102175922D01*
X68839441Y-102183896D01*
X68794481Y-102237379D01*
X68727744Y-102258065D01*
X68660417Y-102239386D01*
X68638207Y-102221760D01*
X68131138Y-101714691D01*
X68131137Y-101714691D01*
X68122256Y-101726453D01*
X68066148Y-101768091D01*
X67996436Y-101772784D01*
X67935253Y-101739043D01*
X67902025Y-101677581D01*
X67899300Y-101651729D01*
X67899300Y-100928328D01*
X67918985Y-100861289D01*
X67971789Y-100815534D01*
X68040947Y-100805590D01*
X68104503Y-100834615D01*
G37*
%TD.AperFunction*%
%TA.AperFunction,Conductor*%
G36*
X70394264Y-100704937D02*
G01*
X70439599Y-100758102D01*
X70450400Y-100808718D01*
X70450400Y-101782257D01*
X70430715Y-101849296D01*
X70377911Y-101895051D01*
X70308753Y-101904995D01*
X70245197Y-101875970D01*
X70215400Y-101837529D01*
X70164635Y-101735580D01*
X70164630Y-101735572D01*
X70148860Y-101714690D01*
X69640552Y-102222999D01*
X69579229Y-102256484D01*
X69509537Y-102251500D01*
X69453604Y-102209628D01*
X69449062Y-102203139D01*
X69401065Y-102129674D01*
X69401062Y-102129671D01*
X69301399Y-102052100D01*
X69260586Y-101995390D01*
X69256911Y-101925617D01*
X69289880Y-101866566D01*
X69793327Y-101363119D01*
X69786416Y-101303551D01*
X69790318Y-101303098D01*
X69785475Y-101272973D01*
X69813440Y-101208944D01*
X69837361Y-101187007D01*
X69919776Y-101129301D01*
X70069301Y-100979776D01*
X70190589Y-100806558D01*
X70214018Y-100756313D01*
X70260190Y-100703874D01*
X70327383Y-100684722D01*
X70394264Y-100704937D01*
G37*
%TD.AperFunction*%
%TA.AperFunction,Conductor*%
G36*
X42283452Y-46550776D02*
G01*
X42301261Y-46564665D01*
X42397632Y-46655091D01*
X42971366Y-47193435D01*
X44409255Y-48490486D01*
X45872342Y-49759044D01*
X47360063Y-50998622D01*
X48871843Y-52208740D01*
X50407100Y-53388932D01*
X51965240Y-54538742D01*
X53545664Y-55657727D01*
X55147760Y-56745455D01*
X56770912Y-57801507D01*
X58414492Y-58825475D01*
X60077867Y-59816963D01*
X61760395Y-60775590D01*
X63461427Y-61700986D01*
X65180306Y-62592793D01*
X66916369Y-63450667D01*
X68668948Y-64274279D01*
X70437364Y-65063308D01*
X72220937Y-65817453D01*
X74018978Y-66536420D01*
X75830793Y-67219934D01*
X77655684Y-67867730D01*
X79492946Y-68479559D01*
X81341871Y-69055183D01*
X83201744Y-69594382D01*
X85071849Y-70096948D01*
X86951465Y-70562685D01*
X88839865Y-70991416D01*
X90736322Y-71382973D01*
X92640104Y-71737207D01*
X94550475Y-72053981D01*
X96466700Y-72333171D01*
X98388039Y-72574672D01*
X100313751Y-72778388D01*
X102243092Y-72944243D01*
X104175319Y-73072171D01*
X106109686Y-73162124D01*
X108045446Y-73214067D01*
X108888540Y-73220124D01*
X108889120Y-73220299D01*
X108907312Y-73220259D01*
X109981853Y-73227979D01*
X110823948Y-73217490D01*
X110891226Y-73236338D01*
X110937635Y-73288568D01*
X110949491Y-73341487D01*
X110946707Y-122862307D01*
X110927019Y-122929345D01*
X110874212Y-122975097D01*
X110822707Y-122986300D01*
X35227300Y-122986300D01*
X35160261Y-122966615D01*
X35114506Y-122913811D01*
X35103300Y-122862300D01*
X35103300Y-113880933D01*
X38757818Y-113880933D01*
X38787176Y-114122721D01*
X38850918Y-114342780D01*
X38854939Y-114356662D01*
X38895757Y-114442684D01*
X38959351Y-114576707D01*
X39097707Y-114777148D01*
X39097708Y-114777149D01*
X39266422Y-114952800D01*
X39461129Y-115099113D01*
X39461131Y-115099114D01*
X39461135Y-115099117D01*
X39515647Y-115127727D01*
X39676792Y-115212303D01*
X39676794Y-115212303D01*
X39676795Y-115212304D01*
X39708004Y-115222723D01*
X39907817Y-115289431D01*
X40148218Y-115328500D01*
X40148221Y-115328500D01*
X41830798Y-115328500D01*
X41921782Y-115321155D01*
X42012768Y-115313810D01*
X42249248Y-115255523D01*
X42473316Y-115160056D01*
X42679168Y-115029883D01*
X42861474Y-114868375D01*
X43015510Y-114679714D01*
X43137289Y-114468787D01*
X43223656Y-114241057D01*
X43272374Y-114002421D01*
X43279413Y-113827746D01*
X43282181Y-113759067D01*
X43282181Y-113759061D01*
X43252823Y-113517278D01*
X43199410Y-113332878D01*
X43185061Y-113283338D01*
X43080650Y-113063296D01*
X43080649Y-113063295D01*
X43080648Y-113063292D01*
X42954968Y-112881215D01*
X42942293Y-112862852D01*
X42911291Y-112830575D01*
X42773577Y-112687199D01*
X42578870Y-112540886D01*
X42578866Y-112540883D01*
X42578865Y-112540883D01*
X42552046Y-112526807D01*
X42363207Y-112427696D01*
X42363203Y-112427695D01*
X42132182Y-112350568D01*
X41891782Y-112311500D01*
X41891779Y-112311500D01*
X40209203Y-112311500D01*
X40209202Y-112311500D01*
X40027232Y-112326189D01*
X39790749Y-112384477D01*
X39566692Y-112479939D01*
X39566684Y-112479943D01*
X39566684Y-112479944D01*
X39360832Y-112610117D01*
X39178526Y-112771625D01*
X39178524Y-112771626D01*
X39178522Y-112771629D01*
X39024489Y-112960285D01*
X39024487Y-112960289D01*
X38902715Y-113171203D01*
X38902710Y-113171213D01*
X38816345Y-113398938D01*
X38767626Y-113637574D01*
X38767625Y-113637582D01*
X38757818Y-113880932D01*
X38757818Y-113880933D01*
X35103300Y-113880933D01*
X35103300Y-108030798D01*
X38711500Y-108030798D01*
X38726189Y-108212767D01*
X38784477Y-108449250D01*
X38879939Y-108673307D01*
X38879942Y-108673312D01*
X38879944Y-108673316D01*
X39010117Y-108879168D01*
X39171625Y-109061474D01*
X39171629Y-109061477D01*
X39360285Y-109215510D01*
X39360289Y-109215512D01*
X39571203Y-109337284D01*
X39571213Y-109337289D01*
X39798943Y-109423656D01*
X40037579Y-109472374D01*
X40110586Y-109475316D01*
X40280932Y-109482181D01*
X40280933Y-109482181D01*
X40280934Y-109482180D01*
X40280939Y-109482181D01*
X40488179Y-109457016D01*
X40522721Y-109452823D01*
X40623423Y-109423654D01*
X40756662Y-109385061D01*
X40976704Y-109280650D01*
X41177148Y-109142293D01*
X41352802Y-108973575D01*
X41499117Y-108778865D01*
X41612304Y-108563205D01*
X41689431Y-108332182D01*
X41713904Y-108181595D01*
X41728500Y-108091781D01*
X41728500Y-105909202D01*
X41713810Y-105727232D01*
X41671983Y-105557534D01*
X41655523Y-105490752D01*
X41636150Y-105445282D01*
X41560060Y-105266692D01*
X41560058Y-105266689D01*
X41560056Y-105266684D01*
X41429883Y-105060832D01*
X41268375Y-104878526D01*
X41204880Y-104826684D01*
X41079714Y-104724489D01*
X41079710Y-104724487D01*
X40868796Y-104602715D01*
X40868786Y-104602710D01*
X40641061Y-104516345D01*
X40641058Y-104516344D01*
X40641057Y-104516344D01*
X40594004Y-104506738D01*
X40402425Y-104467626D01*
X40402417Y-104467625D01*
X40159067Y-104457818D01*
X40159066Y-104457818D01*
X39917278Y-104487176D01*
X39683343Y-104554937D01*
X39683340Y-104554938D01*
X39463292Y-104659351D01*
X39262851Y-104797707D01*
X39262850Y-104797708D01*
X39087199Y-104966422D01*
X38940886Y-105161129D01*
X38940880Y-105161140D01*
X38827696Y-105376792D01*
X38827695Y-105376796D01*
X38750568Y-105607817D01*
X38750568Y-105607818D01*
X38711500Y-105848218D01*
X38711500Y-108030798D01*
X35103300Y-108030798D01*
X35103300Y-83404842D01*
X36801980Y-83404842D01*
X36806425Y-83451866D01*
X36806700Y-83457704D01*
X36806700Y-95256566D01*
X36804961Y-95272313D01*
X36805232Y-95272339D01*
X36804498Y-95280105D01*
X36806700Y-95350157D01*
X36806700Y-95380059D01*
X36807584Y-95387056D01*
X36808042Y-95392879D01*
X36809526Y-95440089D01*
X36809527Y-95440091D01*
X36815222Y-95459695D01*
X36819167Y-95478742D01*
X36821726Y-95498997D01*
X36821727Y-95499000D01*
X36821728Y-95499003D01*
X36839114Y-95542916D01*
X36841006Y-95548444D01*
X36854181Y-95593792D01*
X36858181Y-95600555D01*
X36864090Y-95610548D01*
X36864572Y-95611362D01*
X36873132Y-95628835D01*
X36880647Y-95647817D01*
X36908409Y-95686027D01*
X36911616Y-95690910D01*
X36935658Y-95731562D01*
X36935662Y-95731566D01*
X36950089Y-95745993D01*
X36962726Y-95760788D01*
X36974728Y-95777307D01*
X37011131Y-95807422D01*
X37015431Y-95811335D01*
X37475079Y-96270983D01*
X37922910Y-96718814D01*
X37932816Y-96731178D01*
X37933026Y-96731005D01*
X37938001Y-96737019D01*
X37989095Y-96785000D01*
X38010224Y-96806129D01*
X38010228Y-96806132D01*
X38010231Y-96806135D01*
X38015805Y-96810458D01*
X38020245Y-96814251D01*
X38038382Y-96831282D01*
X38054679Y-96846586D01*
X38054683Y-96846589D01*
X38072563Y-96856418D01*
X38088827Y-96867101D01*
X38104960Y-96879614D01*
X38148301Y-96898369D01*
X38153550Y-96900941D01*
X38171166Y-96910625D01*
X38194940Y-96923695D01*
X38214718Y-96928773D01*
X38233119Y-96935073D01*
X38251855Y-96943181D01*
X38296362Y-96950229D01*
X38298503Y-96950569D01*
X38304212Y-96951751D01*
X38349970Y-96963500D01*
X38370384Y-96963500D01*
X38389783Y-96965027D01*
X38409943Y-96968220D01*
X38456965Y-96963775D01*
X38462804Y-96963500D01*
X40026234Y-96963500D01*
X40093273Y-96983185D01*
X40113915Y-96999819D01*
X41513915Y-98399819D01*
X41547400Y-98461142D01*
X41542416Y-98530834D01*
X41500544Y-98586767D01*
X41435080Y-98611184D01*
X41426234Y-98611500D01*
X40209202Y-98611500D01*
X40027232Y-98626189D01*
X39790749Y-98684477D01*
X39566692Y-98779939D01*
X39566684Y-98779943D01*
X39566684Y-98779944D01*
X39360832Y-98910117D01*
X39178526Y-99071625D01*
X39178524Y-99071626D01*
X39178522Y-99071629D01*
X39024489Y-99260285D01*
X39024487Y-99260289D01*
X38902715Y-99471203D01*
X38902710Y-99471213D01*
X38816345Y-99698938D01*
X38767626Y-99937574D01*
X38767625Y-99937582D01*
X38757818Y-100180932D01*
X38757818Y-100180933D01*
X38787176Y-100422721D01*
X38848386Y-100634038D01*
X38854939Y-100656662D01*
X38877846Y-100704937D01*
X38959351Y-100876707D01*
X39097707Y-101077148D01*
X39097708Y-101077149D01*
X39266422Y-101252800D01*
X39461129Y-101399113D01*
X39461131Y-101399114D01*
X39461135Y-101399117D01*
X39568945Y-101455700D01*
X39676792Y-101512303D01*
X39676794Y-101512303D01*
X39676795Y-101512304D01*
X39707348Y-101522504D01*
X39907817Y-101589431D01*
X40148218Y-101628500D01*
X40148221Y-101628500D01*
X41830798Y-101628500D01*
X41921782Y-101621154D01*
X42012768Y-101613810D01*
X42249248Y-101555523D01*
X42373680Y-101502507D01*
X42473307Y-101460060D01*
X42473307Y-101460059D01*
X42473316Y-101460056D01*
X42679168Y-101329883D01*
X42861474Y-101168375D01*
X43015510Y-100979714D01*
X43117163Y-100803647D01*
X43137284Y-100768796D01*
X43137285Y-100768793D01*
X43137289Y-100768787D01*
X43223656Y-100541057D01*
X43250688Y-100408642D01*
X43283385Y-100346897D01*
X43344274Y-100312629D01*
X43414023Y-100316721D01*
X43459863Y-100345767D01*
X44600281Y-101486185D01*
X44633766Y-101547508D01*
X44636600Y-101573866D01*
X44636600Y-102289060D01*
X44616915Y-102356099D01*
X44564111Y-102401854D01*
X44494953Y-102411798D01*
X44460196Y-102401443D01*
X44369493Y-102359148D01*
X44319243Y-102335716D01*
X44319240Y-102335715D01*
X44319238Y-102335714D01*
X44098089Y-102276457D01*
X44098081Y-102276456D01*
X43870002Y-102256502D01*
X43869998Y-102256502D01*
X43641918Y-102276456D01*
X43641910Y-102276457D01*
X43420761Y-102335714D01*
X43420750Y-102335718D01*
X43213254Y-102432475D01*
X43213252Y-102432476D01*
X43213249Y-102432477D01*
X43213251Y-102432477D01*
X43025700Y-102563802D01*
X43025698Y-102563803D01*
X43025695Y-102563806D01*
X42863806Y-102725695D01*
X42863803Y-102725698D01*
X42863802Y-102725700D01*
X42838576Y-102761727D01*
X42732476Y-102913252D01*
X42732475Y-102913254D01*
X42635718Y-103120750D01*
X42635714Y-103120761D01*
X42576457Y-103341910D01*
X42576456Y-103341918D01*
X42556502Y-103569998D01*
X42556502Y-103570001D01*
X42576456Y-103798081D01*
X42576457Y-103798089D01*
X42635714Y-104019238D01*
X42635718Y-104019249D01*
X42732475Y-104226745D01*
X42732477Y-104226749D01*
X42783352Y-104299407D01*
X42805679Y-104365611D01*
X42788669Y-104433379D01*
X42756089Y-104469795D01*
X42706740Y-104506738D01*
X42619111Y-104623795D01*
X42568011Y-104760795D01*
X42568011Y-104760797D01*
X42561500Y-104821345D01*
X42561500Y-106518654D01*
X42568011Y-106579202D01*
X42568011Y-106579204D01*
X42610643Y-106693500D01*
X42619111Y-106716204D01*
X42706739Y-106833261D01*
X42823796Y-106920889D01*
X42938949Y-106963839D01*
X42960691Y-106971949D01*
X42960799Y-106971989D01*
X42988050Y-106974918D01*
X43021345Y-106978499D01*
X43021362Y-106978500D01*
X43039876Y-106978500D01*
X43106915Y-106998185D01*
X43152670Y-107050989D01*
X43162614Y-107120147D01*
X43133589Y-107183703D01*
X43111004Y-107204071D01*
X43025700Y-107263802D01*
X43025698Y-107263803D01*
X43025695Y-107263806D01*
X42863806Y-107425695D01*
X42863803Y-107425698D01*
X42863802Y-107425700D01*
X42816935Y-107492633D01*
X42732476Y-107613252D01*
X42732475Y-107613254D01*
X42635718Y-107820750D01*
X42635714Y-107820761D01*
X42576457Y-108041910D01*
X42576456Y-108041918D01*
X42556502Y-108269998D01*
X42556502Y-108270001D01*
X42576456Y-108498081D01*
X42576457Y-108498089D01*
X42635714Y-108719238D01*
X42635718Y-108719249D01*
X42723779Y-108908096D01*
X42732477Y-108926749D01*
X42863802Y-109114300D01*
X43025700Y-109276198D01*
X43213251Y-109407523D01*
X43283044Y-109440068D01*
X43283049Y-109440070D01*
X43318325Y-109464771D01*
X43686133Y-109832580D01*
X43719618Y-109893903D01*
X43714634Y-109963595D01*
X43672762Y-110019528D01*
X43654748Y-110030745D01*
X43631956Y-110042358D01*
X43631949Y-110042363D01*
X43542363Y-110131949D01*
X43542358Y-110131956D01*
X43530745Y-110154748D01*
X43482770Y-110205544D01*
X43414949Y-110222338D01*
X43348814Y-110199800D01*
X43332580Y-110186133D01*
X42790973Y-109644526D01*
X42739868Y-109717513D01*
X42643734Y-109923673D01*
X42643730Y-109923682D01*
X42584860Y-110143389D01*
X42584858Y-110143400D01*
X42565034Y-110369997D01*
X42565034Y-110370002D01*
X42584858Y-110596599D01*
X42584860Y-110596610D01*
X42643730Y-110816317D01*
X42643734Y-110816326D01*
X42739865Y-111022481D01*
X42739866Y-111022483D01*
X42790973Y-111095471D01*
X42790973Y-111095472D01*
X43332580Y-110553865D01*
X43393903Y-110520380D01*
X43463594Y-110525364D01*
X43519528Y-110567235D01*
X43530742Y-110585246D01*
X43536527Y-110596599D01*
X43542358Y-110608044D01*
X43542363Y-110608050D01*
X43631949Y-110697636D01*
X43631951Y-110697637D01*
X43631955Y-110697641D01*
X43654747Y-110709254D01*
X43705542Y-110757228D01*
X43722337Y-110825049D01*
X43699799Y-110891184D01*
X43686132Y-110907419D01*
X43144526Y-111449025D01*
X43144526Y-111449026D01*
X43217512Y-111500131D01*
X43217516Y-111500133D01*
X43423673Y-111596265D01*
X43423682Y-111596269D01*
X43643389Y-111655139D01*
X43643400Y-111655141D01*
X43869998Y-111674966D01*
X43870002Y-111674966D01*
X44096599Y-111655141D01*
X44096610Y-111655139D01*
X44316317Y-111596269D01*
X44316331Y-111596264D01*
X44522478Y-111500136D01*
X44595472Y-111449025D01*
X44053866Y-110907419D01*
X44020381Y-110846096D01*
X44025365Y-110776404D01*
X44067237Y-110720471D01*
X44085245Y-110709258D01*
X44108045Y-110697641D01*
X44197641Y-110608045D01*
X44209254Y-110585252D01*
X44257225Y-110534458D01*
X44325046Y-110517661D01*
X44391181Y-110540197D01*
X44407419Y-110553866D01*
X44949025Y-111095472D01*
X45000136Y-111022478D01*
X45096264Y-110816331D01*
X45096269Y-110816317D01*
X45145825Y-110631370D01*
X45182190Y-110571709D01*
X45245037Y-110541180D01*
X45314412Y-110549475D01*
X45368290Y-110593960D01*
X45385375Y-110631369D01*
X45435714Y-110819238D01*
X45435718Y-110819249D01*
X45530485Y-111022478D01*
X45532477Y-111026749D01*
X45663802Y-111214300D01*
X45825700Y-111376198D01*
X46013251Y-111507523D01*
X46138091Y-111565736D01*
X46220750Y-111604281D01*
X46220752Y-111604281D01*
X46220757Y-111604284D01*
X46441913Y-111663543D01*
X46604832Y-111677796D01*
X46669998Y-111683498D01*
X46670000Y-111683498D01*
X46670002Y-111683498D01*
X46727021Y-111678509D01*
X46898087Y-111663543D01*
X47119243Y-111604284D01*
X47326749Y-111507523D01*
X47514300Y-111376198D01*
X47676198Y-111214300D01*
X47807523Y-111026749D01*
X47809648Y-111022191D01*
X47855819Y-110969753D01*
X47923012Y-110950600D01*
X47989894Y-110970815D01*
X48009711Y-110986915D01*
X51561796Y-114539001D01*
X51595281Y-114600324D01*
X51590297Y-114670016D01*
X51548425Y-114725949D01*
X51506208Y-114746457D01*
X51356516Y-114786566D01*
X51356507Y-114786570D01*
X51142422Y-114886399D01*
X51142420Y-114886400D01*
X50948926Y-115021886D01*
X50948920Y-115021891D01*
X50781891Y-115188920D01*
X50781886Y-115188926D01*
X50646400Y-115382420D01*
X50646399Y-115382422D01*
X50546570Y-115596507D01*
X50546567Y-115596513D01*
X50489364Y-115809999D01*
X50489364Y-115810000D01*
X51206653Y-115810000D01*
X51273692Y-115829685D01*
X51319447Y-115882489D01*
X51329391Y-115951647D01*
X51325631Y-115968933D01*
X51320000Y-115988111D01*
X51320000Y-116131888D01*
X51325631Y-116151067D01*
X51325630Y-116220936D01*
X51287855Y-116279714D01*
X51224299Y-116308738D01*
X51206653Y-116310000D01*
X50489364Y-116310000D01*
X50546567Y-116523486D01*
X50546570Y-116523492D01*
X50646399Y-116737578D01*
X50781894Y-116931082D01*
X50897727Y-117046915D01*
X50931212Y-117108238D01*
X50926228Y-117177930D01*
X50884356Y-117233863D01*
X50853381Y-117250777D01*
X50723795Y-117299111D01*
X50606739Y-117386739D01*
X50519111Y-117503795D01*
X50468011Y-117640795D01*
X50468011Y-117640797D01*
X50461500Y-117701345D01*
X50461500Y-119498654D01*
X50468011Y-119559202D01*
X50468011Y-119559204D01*
X50519111Y-119696203D01*
X50519111Y-119696204D01*
X50606739Y-119813261D01*
X50723796Y-119900889D01*
X50860799Y-119951989D01*
X50888050Y-119954918D01*
X50921345Y-119958499D01*
X50921362Y-119958500D01*
X52718638Y-119958500D01*
X52718654Y-119958499D01*
X52745692Y-119955591D01*
X52779201Y-119951989D01*
X52916204Y-119900889D01*
X53033261Y-119813261D01*
X53120889Y-119696204D01*
X53166138Y-119574887D01*
X53208009Y-119518956D01*
X53273474Y-119494539D01*
X53341746Y-119509391D01*
X53373545Y-119534236D01*
X53436760Y-119602906D01*
X53614424Y-119741189D01*
X53614425Y-119741189D01*
X53614427Y-119741191D01*
X53741135Y-119809761D01*
X53812426Y-119848342D01*
X54025365Y-119921444D01*
X54247431Y-119958500D01*
X54472569Y-119958500D01*
X54694635Y-119921444D01*
X54907574Y-119848342D01*
X55105576Y-119741189D01*
X55283240Y-119602906D01*
X55435722Y-119437268D01*
X55526193Y-119298791D01*
X55579336Y-119253437D01*
X55648567Y-119244013D01*
X55711903Y-119273515D01*
X55733807Y-119298793D01*
X55824276Y-119437265D01*
X55824284Y-119437276D01*
X55950968Y-119574889D01*
X55976760Y-119602906D01*
X56154424Y-119741189D01*
X56154425Y-119741189D01*
X56154427Y-119741191D01*
X56281135Y-119809761D01*
X56352426Y-119848342D01*
X56565365Y-119921444D01*
X56787431Y-119958500D01*
X57012569Y-119958500D01*
X57234635Y-119921444D01*
X57447574Y-119848342D01*
X57645576Y-119741189D01*
X57823240Y-119602906D01*
X57975722Y-119437268D01*
X58074012Y-119286822D01*
X58127158Y-119241467D01*
X58167336Y-119232223D01*
X58167284Y-119231894D01*
X58172047Y-119231139D01*
X58173930Y-119230706D01*
X58174989Y-119230673D01*
X58194581Y-119224980D01*
X58213638Y-119221032D01*
X58233897Y-119218474D01*
X58277821Y-119201082D01*
X58283321Y-119199199D01*
X58328693Y-119186018D01*
X58346265Y-119175625D01*
X58363732Y-119167068D01*
X58382717Y-119159552D01*
X58420926Y-119131790D01*
X58425804Y-119128585D01*
X58466462Y-119104542D01*
X58480902Y-119090100D01*
X58495692Y-119077470D01*
X58512207Y-119065472D01*
X58542322Y-119029067D01*
X58546236Y-119024766D01*
X61057818Y-116513184D01*
X61119137Y-116479702D01*
X61188829Y-116484686D01*
X61244762Y-116526558D01*
X61257877Y-116548463D01*
X61341399Y-116727578D01*
X61476894Y-116921082D01*
X61643917Y-117088105D01*
X61837421Y-117223600D01*
X62051507Y-117323429D01*
X62051516Y-117323433D01*
X62265000Y-117380634D01*
X62265000Y-116662301D01*
X62284685Y-116595262D01*
X62337489Y-116549507D01*
X62406647Y-116539563D01*
X62479237Y-116550000D01*
X62479238Y-116550000D01*
X62550762Y-116550000D01*
X62550763Y-116550000D01*
X62623353Y-116539563D01*
X62692512Y-116549507D01*
X62745315Y-116595262D01*
X62765000Y-116662301D01*
X62764999Y-117380633D01*
X62978483Y-117323433D01*
X62978492Y-117323429D01*
X63192578Y-117223600D01*
X63386078Y-117088108D01*
X63501914Y-116972272D01*
X63563237Y-116938787D01*
X63632929Y-116943771D01*
X63688863Y-116985642D01*
X63705777Y-117016619D01*
X63754110Y-117146203D01*
X63754111Y-117146204D01*
X63841739Y-117263261D01*
X63958796Y-117350889D01*
X64095799Y-117401989D01*
X64123050Y-117404918D01*
X64156345Y-117408499D01*
X64156362Y-117408500D01*
X65953638Y-117408500D01*
X65953654Y-117408499D01*
X65980692Y-117405591D01*
X66014201Y-117401989D01*
X66151204Y-117350889D01*
X66151204Y-117350888D01*
X66151206Y-117350888D01*
X66151207Y-117350887D01*
X66174789Y-117333234D01*
X66240253Y-117308816D01*
X66249100Y-117308500D01*
X68422324Y-117308500D01*
X68462586Y-117315218D01*
X68626365Y-117371444D01*
X68848431Y-117408500D01*
X69073569Y-117408500D01*
X69295635Y-117371444D01*
X69508574Y-117298342D01*
X69706576Y-117191189D01*
X69825080Y-117098952D01*
X69890070Y-117073310D01*
X69958610Y-117086876D01*
X69988921Y-117109125D01*
X70541610Y-117661814D01*
X70551516Y-117674178D01*
X70551726Y-117674005D01*
X70556701Y-117680019D01*
X70607794Y-117727999D01*
X70628925Y-117749129D01*
X70628930Y-117749134D01*
X70634502Y-117753456D01*
X70638942Y-117757249D01*
X70673378Y-117789586D01*
X70691267Y-117799420D01*
X70707533Y-117810104D01*
X70723659Y-117822613D01*
X70766998Y-117841367D01*
X70772245Y-117843937D01*
X70813640Y-117866695D01*
X70833418Y-117871773D01*
X70851819Y-117878073D01*
X70870555Y-117886181D01*
X70915062Y-117893229D01*
X70917203Y-117893569D01*
X70922912Y-117894751D01*
X70968670Y-117906500D01*
X70989084Y-117906500D01*
X71008483Y-117908027D01*
X71028643Y-117911220D01*
X71075665Y-117906775D01*
X71081504Y-117906500D01*
X87105966Y-117906500D01*
X87121713Y-117908238D01*
X87121739Y-117907968D01*
X87129505Y-117908701D01*
X87129509Y-117908702D01*
X87199558Y-117906500D01*
X87229456Y-117906500D01*
X87229457Y-117906500D01*
X87230822Y-117906327D01*
X87236462Y-117905614D01*
X87242285Y-117905156D01*
X87268308Y-117904338D01*
X87289490Y-117903673D01*
X87299281Y-117900827D01*
X87309081Y-117897980D01*
X87328138Y-117894032D01*
X87348397Y-117891474D01*
X87392321Y-117874082D01*
X87397821Y-117872199D01*
X87443193Y-117859018D01*
X87460765Y-117848625D01*
X87478232Y-117840068D01*
X87497217Y-117832552D01*
X87535426Y-117804790D01*
X87540304Y-117801585D01*
X87580962Y-117777542D01*
X87595402Y-117763100D01*
X87610192Y-117750470D01*
X87626707Y-117738472D01*
X87656822Y-117702067D01*
X87660726Y-117697776D01*
X88250998Y-117107504D01*
X88312319Y-117074021D01*
X88382011Y-117079005D01*
X88414840Y-117097334D01*
X88429989Y-117109125D01*
X88535424Y-117191189D01*
X88535425Y-117191189D01*
X88535427Y-117191191D01*
X88568077Y-117208860D01*
X88733426Y-117298342D01*
X88946365Y-117371444D01*
X89168431Y-117408500D01*
X89393569Y-117408500D01*
X89615635Y-117371444D01*
X89828574Y-117298342D01*
X90026576Y-117191189D01*
X90204240Y-117052906D01*
X90356722Y-116887268D01*
X90447193Y-116748790D01*
X90500338Y-116703437D01*
X90569569Y-116694013D01*
X90632905Y-116723515D01*
X90654804Y-116748787D01*
X90745278Y-116887268D01*
X90745283Y-116887273D01*
X90745284Y-116887276D01*
X90897756Y-117052902D01*
X90897761Y-117052907D01*
X90941404Y-117086876D01*
X91075424Y-117191189D01*
X91075425Y-117191189D01*
X91075427Y-117191191D01*
X91108077Y-117208860D01*
X91273426Y-117298342D01*
X91486365Y-117371444D01*
X91708431Y-117408500D01*
X91933569Y-117408500D01*
X92155635Y-117371444D01*
X92368574Y-117298342D01*
X92566576Y-117191189D01*
X92744240Y-117052906D01*
X92896722Y-116887268D01*
X92987193Y-116748791D01*
X93040336Y-116703437D01*
X93109567Y-116694013D01*
X93172903Y-116723515D01*
X93194807Y-116748793D01*
X93285276Y-116887265D01*
X93285284Y-116887276D01*
X93437756Y-117052902D01*
X93437761Y-117052907D01*
X93481404Y-117086876D01*
X93615424Y-117191189D01*
X93615425Y-117191189D01*
X93615427Y-117191191D01*
X93648077Y-117208860D01*
X93813426Y-117298342D01*
X94026365Y-117371444D01*
X94248431Y-117408500D01*
X94473569Y-117408500D01*
X94695635Y-117371444D01*
X94908574Y-117298342D01*
X95106576Y-117191189D01*
X95284240Y-117052906D01*
X95436722Y-116887268D01*
X95527193Y-116748790D01*
X95580338Y-116703437D01*
X95649569Y-116694013D01*
X95712905Y-116723515D01*
X95734804Y-116748787D01*
X95825278Y-116887268D01*
X95825283Y-116887273D01*
X95825284Y-116887276D01*
X95977756Y-117052902D01*
X95977761Y-117052907D01*
X96021404Y-117086876D01*
X96155424Y-117191189D01*
X96155425Y-117191189D01*
X96155427Y-117191191D01*
X96188077Y-117208860D01*
X96353426Y-117298342D01*
X96566365Y-117371444D01*
X96788431Y-117408500D01*
X97013569Y-117408500D01*
X97235635Y-117371444D01*
X97448574Y-117298342D01*
X97646576Y-117191189D01*
X97824240Y-117052906D01*
X97976722Y-116887268D01*
X98067193Y-116748790D01*
X98120338Y-116703437D01*
X98189569Y-116694013D01*
X98252905Y-116723515D01*
X98274804Y-116748787D01*
X98365278Y-116887268D01*
X98365283Y-116887273D01*
X98365284Y-116887276D01*
X98517756Y-117052902D01*
X98517761Y-117052907D01*
X98561404Y-117086876D01*
X98695424Y-117191189D01*
X98695425Y-117191189D01*
X98695427Y-117191191D01*
X98728077Y-117208860D01*
X98893426Y-117298342D01*
X99106365Y-117371444D01*
X99328431Y-117408500D01*
X99553569Y-117408500D01*
X99775635Y-117371444D01*
X99988574Y-117298342D01*
X100186576Y-117191189D01*
X100364240Y-117052906D01*
X100516722Y-116887268D01*
X100607193Y-116748790D01*
X100660338Y-116703437D01*
X100729569Y-116694013D01*
X100792905Y-116723515D01*
X100814804Y-116748787D01*
X100905278Y-116887268D01*
X100905283Y-116887273D01*
X100905284Y-116887276D01*
X101057756Y-117052902D01*
X101057761Y-117052907D01*
X101101404Y-117086876D01*
X101235424Y-117191189D01*
X101235425Y-117191189D01*
X101235427Y-117191191D01*
X101268077Y-117208860D01*
X101433426Y-117298342D01*
X101646365Y-117371444D01*
X101868431Y-117408500D01*
X102093569Y-117408500D01*
X102315635Y-117371444D01*
X102528574Y-117298342D01*
X102726576Y-117191189D01*
X102904240Y-117052906D01*
X102967452Y-116984239D01*
X103027337Y-116948250D01*
X103097175Y-116950349D01*
X103154791Y-116989873D01*
X103174861Y-117024888D01*
X103198442Y-117088108D01*
X103220111Y-117146204D01*
X103307739Y-117263261D01*
X103424796Y-117350889D01*
X103561799Y-117401989D01*
X103589050Y-117404918D01*
X103622345Y-117408499D01*
X103622362Y-117408500D01*
X105419638Y-117408500D01*
X105419654Y-117408499D01*
X105446692Y-117405591D01*
X105480201Y-117401989D01*
X105617204Y-117350889D01*
X105734261Y-117263261D01*
X105821889Y-117146204D01*
X105872989Y-117009201D01*
X105876959Y-116972272D01*
X105879499Y-116948654D01*
X105879500Y-116948637D01*
X105879500Y-115151362D01*
X105879499Y-115151345D01*
X105874884Y-115108429D01*
X105872989Y-115090799D01*
X105870222Y-115083381D01*
X105847287Y-115021891D01*
X105821889Y-114953796D01*
X105734261Y-114836739D01*
X105617204Y-114749111D01*
X105610753Y-114746705D01*
X105480203Y-114698011D01*
X105419654Y-114691500D01*
X105419638Y-114691500D01*
X104123766Y-114691500D01*
X104056727Y-114671815D01*
X104010972Y-114619011D01*
X104001028Y-114549853D01*
X104030053Y-114486297D01*
X104036085Y-114479819D01*
X104236122Y-114279782D01*
X104861750Y-113654152D01*
X104923071Y-113620669D01*
X104938614Y-113618308D01*
X104993087Y-113613543D01*
X105214243Y-113554284D01*
X105421749Y-113457523D01*
X105609300Y-113326198D01*
X105771198Y-113164300D01*
X105902523Y-112976749D01*
X105927307Y-112923598D01*
X105973479Y-112871159D01*
X106040672Y-112852007D01*
X106107553Y-112872222D01*
X106152071Y-112923599D01*
X106174864Y-112972479D01*
X106174865Y-112972481D01*
X106305342Y-113158820D01*
X106466179Y-113319657D01*
X106652517Y-113450134D01*
X106858673Y-113546265D01*
X106858682Y-113546269D01*
X107054999Y-113598872D01*
X107054999Y-112830575D01*
X107074683Y-112763536D01*
X107127487Y-112717781D01*
X107196646Y-112707837D01*
X107198353Y-112708095D01*
X107223583Y-112712091D01*
X107273515Y-112720000D01*
X107273519Y-112720000D01*
X107336485Y-112720000D01*
X107379300Y-112713218D01*
X107411602Y-112708102D01*
X107480894Y-112717056D01*
X107534347Y-112762052D01*
X107554987Y-112828803D01*
X107555000Y-112830575D01*
X107555000Y-113598872D01*
X107751317Y-113546269D01*
X107751326Y-113546265D01*
X107957482Y-113450134D01*
X108143820Y-113319657D01*
X108304657Y-113158820D01*
X108435134Y-112972482D01*
X108531265Y-112766326D01*
X108531269Y-112766317D01*
X108583872Y-112570000D01*
X107815576Y-112570000D01*
X107748537Y-112550315D01*
X107702782Y-112497511D01*
X107692838Y-112428353D01*
X107693103Y-112426603D01*
X107709986Y-112320003D01*
X107709986Y-112319996D01*
X107693103Y-112213397D01*
X107702058Y-112144104D01*
X107747054Y-112090652D01*
X107813806Y-112070013D01*
X107815576Y-112070000D01*
X108583872Y-112070000D01*
X108583872Y-112069999D01*
X108531269Y-111873682D01*
X108531265Y-111873673D01*
X108435134Y-111667517D01*
X108304657Y-111481179D01*
X108143820Y-111320342D01*
X107957482Y-111189865D01*
X107751328Y-111093734D01*
X107555000Y-111041127D01*
X107555000Y-111809424D01*
X107535315Y-111876463D01*
X107482511Y-111922218D01*
X107413353Y-111932162D01*
X107411602Y-111931897D01*
X107336486Y-111920000D01*
X107336481Y-111920000D01*
X107273519Y-111920000D01*
X107273512Y-111920000D01*
X107198396Y-111931897D01*
X107129103Y-111922942D01*
X107075651Y-111877946D01*
X107055012Y-111811194D01*
X107054999Y-111809424D01*
X107054999Y-111041127D01*
X106858671Y-111093734D01*
X106652517Y-111189865D01*
X106466179Y-111320342D01*
X106305342Y-111481179D01*
X106174865Y-111667517D01*
X106152071Y-111716401D01*
X106105898Y-111768840D01*
X106038705Y-111787992D01*
X105971824Y-111767776D01*
X105927307Y-111716401D01*
X105902523Y-111663251D01*
X105861234Y-111604285D01*
X105771198Y-111475700D01*
X105609300Y-111313802D01*
X105421749Y-111182477D01*
X105417951Y-111180706D01*
X105214249Y-111085718D01*
X105214238Y-111085714D01*
X104993089Y-111026457D01*
X104993081Y-111026456D01*
X104765002Y-111006502D01*
X104764998Y-111006502D01*
X104536918Y-111026456D01*
X104536910Y-111026457D01*
X104315761Y-111085714D01*
X104315750Y-111085718D01*
X104108254Y-111182475D01*
X104108252Y-111182476D01*
X104062803Y-111214300D01*
X103920700Y-111313802D01*
X103920698Y-111313803D01*
X103920695Y-111313806D01*
X103758806Y-111475695D01*
X103627476Y-111663251D01*
X103607382Y-111706345D01*
X103561209Y-111758784D01*
X103494016Y-111777936D01*
X103427135Y-111757720D01*
X103382618Y-111706345D01*
X103362523Y-111663251D01*
X103321234Y-111604285D01*
X103231198Y-111475700D01*
X103069300Y-111313802D01*
X102881749Y-111182477D01*
X102877951Y-111180706D01*
X102674249Y-111085718D01*
X102674238Y-111085714D01*
X102453089Y-111026457D01*
X102453081Y-111026456D01*
X102225002Y-111006502D01*
X102224998Y-111006502D01*
X101996918Y-111026456D01*
X101996910Y-111026457D01*
X101775761Y-111085714D01*
X101775750Y-111085718D01*
X101568254Y-111182475D01*
X101568252Y-111182476D01*
X101522803Y-111214300D01*
X101380700Y-111313802D01*
X101380698Y-111313803D01*
X101380695Y-111313806D01*
X101218806Y-111475695D01*
X101087476Y-111663251D01*
X101067382Y-111706345D01*
X101021209Y-111758784D01*
X100954016Y-111777936D01*
X100887135Y-111757720D01*
X100842618Y-111706345D01*
X100822523Y-111663251D01*
X100781234Y-111604285D01*
X100691198Y-111475700D01*
X100529300Y-111313802D01*
X100341749Y-111182477D01*
X100337951Y-111180706D01*
X100134249Y-111085718D01*
X100134238Y-111085714D01*
X99913089Y-111026457D01*
X99913081Y-111026456D01*
X99685002Y-111006502D01*
X99684998Y-111006502D01*
X99456918Y-111026456D01*
X99456910Y-111026457D01*
X99235761Y-111085714D01*
X99235750Y-111085718D01*
X99028254Y-111182475D01*
X99028252Y-111182476D01*
X98982803Y-111214300D01*
X98840700Y-111313802D01*
X98840698Y-111313803D01*
X98840695Y-111313806D01*
X98678806Y-111475695D01*
X98547476Y-111663251D01*
X98527382Y-111706345D01*
X98481209Y-111758784D01*
X98414016Y-111777936D01*
X98347135Y-111757720D01*
X98302618Y-111706345D01*
X98282523Y-111663251D01*
X98241234Y-111604285D01*
X98151198Y-111475700D01*
X97989300Y-111313802D01*
X97801749Y-111182477D01*
X97797951Y-111180706D01*
X97594249Y-111085718D01*
X97594238Y-111085714D01*
X97373089Y-111026457D01*
X97373081Y-111026456D01*
X97145002Y-111006502D01*
X97144998Y-111006502D01*
X96916918Y-111026456D01*
X96916910Y-111026457D01*
X96695761Y-111085714D01*
X96695750Y-111085718D01*
X96488254Y-111182475D01*
X96488252Y-111182476D01*
X96442803Y-111214300D01*
X96300700Y-111313802D01*
X96300698Y-111313803D01*
X96300695Y-111313806D01*
X96138806Y-111475695D01*
X96007476Y-111663251D01*
X95987382Y-111706345D01*
X95941209Y-111758784D01*
X95874016Y-111777936D01*
X95807135Y-111757720D01*
X95762618Y-111706345D01*
X95742523Y-111663251D01*
X95701234Y-111604285D01*
X95611198Y-111475700D01*
X95503331Y-111367833D01*
X95469846Y-111306510D01*
X95474830Y-111236818D01*
X95503329Y-111192473D01*
X98669117Y-108026686D01*
X98681478Y-108016785D01*
X98681304Y-108016575D01*
X98687313Y-108011602D01*
X98687318Y-108011600D01*
X98735283Y-107960521D01*
X98756435Y-107939370D01*
X98760761Y-107933792D01*
X98764550Y-107929355D01*
X98796886Y-107894921D01*
X98806719Y-107877032D01*
X98817402Y-107860769D01*
X98829914Y-107844641D01*
X98848671Y-107801291D01*
X98851241Y-107796047D01*
X98851710Y-107795195D01*
X98873995Y-107754660D01*
X98879074Y-107734873D01*
X98885370Y-107716485D01*
X98893481Y-107697745D01*
X98900869Y-107651097D01*
X98902051Y-107645386D01*
X98913800Y-107599630D01*
X98913800Y-107579215D01*
X98915327Y-107559814D01*
X98918520Y-107539657D01*
X98914075Y-107492633D01*
X98913800Y-107486795D01*
X98913800Y-105978794D01*
X98933485Y-105911755D01*
X98986289Y-105866000D01*
X99055447Y-105856056D01*
X99090202Y-105866411D01*
X99235757Y-105934284D01*
X99456913Y-105993543D01*
X99610419Y-106006973D01*
X99684998Y-106013498D01*
X99685000Y-106013498D01*
X99685002Y-106013498D01*
X99754609Y-106007408D01*
X99913087Y-105993543D01*
X100134243Y-105934284D01*
X100341749Y-105837523D01*
X100529300Y-105706198D01*
X100691198Y-105544300D01*
X100822523Y-105356749D01*
X100842617Y-105313655D01*
X100888790Y-105261215D01*
X100955983Y-105242063D01*
X101022864Y-105262278D01*
X101067382Y-105313655D01*
X101077540Y-105335440D01*
X101087477Y-105356749D01*
X101218802Y-105544300D01*
X101380700Y-105706198D01*
X101568251Y-105837523D01*
X101628804Y-105865759D01*
X101775750Y-105934281D01*
X101775752Y-105934281D01*
X101775757Y-105934284D01*
X101996913Y-105993543D01*
X102150419Y-106006973D01*
X102224998Y-106013498D01*
X102225000Y-106013498D01*
X102225002Y-106013498D01*
X102294609Y-106007408D01*
X102453087Y-105993543D01*
X102674243Y-105934284D01*
X102881749Y-105837523D01*
X103069300Y-105706198D01*
X103231198Y-105544300D01*
X103362523Y-105356749D01*
X103382617Y-105313655D01*
X103428790Y-105261215D01*
X103495983Y-105242063D01*
X103562864Y-105262278D01*
X103607382Y-105313655D01*
X103617540Y-105335440D01*
X103627477Y-105356749D01*
X103758802Y-105544300D01*
X103920700Y-105706198D01*
X104108251Y-105837523D01*
X104168804Y-105865759D01*
X104315750Y-105934281D01*
X104315752Y-105934281D01*
X104315757Y-105934284D01*
X104536913Y-105993543D01*
X104690419Y-106006973D01*
X104764998Y-106013498D01*
X104765000Y-106013498D01*
X104765002Y-106013498D01*
X104834609Y-106007408D01*
X104993087Y-105993543D01*
X105214243Y-105934284D01*
X105329098Y-105880726D01*
X105398172Y-105870235D01*
X105461956Y-105898755D01*
X105500196Y-105957231D01*
X105505500Y-105993109D01*
X105505500Y-107667741D01*
X105485815Y-107734780D01*
X105473650Y-107750713D01*
X105399963Y-107832550D01*
X105399958Y-107832557D01*
X105304473Y-107997943D01*
X105304470Y-107997950D01*
X105247994Y-108171766D01*
X105245458Y-108179572D01*
X105225496Y-108369500D01*
X105245458Y-108559428D01*
X105245459Y-108559431D01*
X105304470Y-108741049D01*
X105304473Y-108741056D01*
X105399960Y-108906444D01*
X105441042Y-108952070D01*
X105511469Y-109030288D01*
X105527747Y-109048366D01*
X105682248Y-109160618D01*
X105856712Y-109238294D01*
X106043513Y-109278000D01*
X106234487Y-109278000D01*
X106421288Y-109238294D01*
X106595752Y-109160618D01*
X106750253Y-109048366D01*
X106878040Y-108906444D01*
X106973527Y-108741056D01*
X107032542Y-108559428D01*
X107052504Y-108369500D01*
X107032542Y-108179572D01*
X106973527Y-107997944D01*
X106903722Y-107877038D01*
X106878041Y-107832557D01*
X106878036Y-107832550D01*
X106804350Y-107750713D01*
X106774120Y-107687721D01*
X106772500Y-107667741D01*
X106772500Y-106132500D01*
X106792185Y-106065461D01*
X106844989Y-106019706D01*
X106896500Y-106008500D01*
X108153638Y-106008500D01*
X108153654Y-106008499D01*
X108180692Y-106005591D01*
X108214201Y-106001989D01*
X108351204Y-105950889D01*
X108468261Y-105863261D01*
X108555889Y-105746204D01*
X108606989Y-105609201D01*
X108612544Y-105557534D01*
X108613499Y-105548654D01*
X108613500Y-105548637D01*
X108613500Y-103851362D01*
X108613499Y-103851345D01*
X108610157Y-103820270D01*
X108606989Y-103790799D01*
X108555889Y-103653796D01*
X108468261Y-103536739D01*
X108351204Y-103449111D01*
X108343370Y-103446189D01*
X108214203Y-103398011D01*
X108153654Y-103391500D01*
X108153638Y-103391500D01*
X106848944Y-103391500D01*
X106781905Y-103371815D01*
X106736150Y-103319011D01*
X106729868Y-103302095D01*
X106725020Y-103285411D01*
X106725021Y-103285411D01*
X106723651Y-103283094D01*
X106714620Y-103267824D01*
X106706066Y-103250363D01*
X106698552Y-103231383D01*
X106698439Y-103231228D01*
X106670795Y-103193179D01*
X106667586Y-103188294D01*
X106643544Y-103147641D01*
X106643543Y-103147640D01*
X106643542Y-103147638D01*
X106629108Y-103133204D01*
X106616471Y-103118409D01*
X106604472Y-103101893D01*
X106604470Y-103101890D01*
X106568073Y-103071781D01*
X106563751Y-103067847D01*
X104691957Y-101196052D01*
X104658472Y-101134729D01*
X104663456Y-101065037D01*
X104705328Y-101009104D01*
X104727220Y-100995996D01*
X104898654Y-100916056D01*
X105079038Y-100789749D01*
X105234749Y-100634038D01*
X105361056Y-100453654D01*
X105424617Y-100317344D01*
X105470790Y-100264904D01*
X105537983Y-100245752D01*
X105604865Y-100265967D01*
X105649382Y-100317344D01*
X105661976Y-100344353D01*
X105712944Y-100453654D01*
X105839251Y-100634038D01*
X105994962Y-100789749D01*
X106175346Y-100916056D01*
X106374924Y-101009120D01*
X106587629Y-101066115D01*
X106744322Y-101079823D01*
X106806998Y-101085307D01*
X106807000Y-101085307D01*
X106807002Y-101085307D01*
X106861957Y-101080499D01*
X107026371Y-101066115D01*
X107239076Y-101009120D01*
X107438654Y-100916056D01*
X107619038Y-100789749D01*
X107774749Y-100634038D01*
X107901056Y-100453654D01*
X107994120Y-100254076D01*
X108051115Y-100041371D01*
X108070307Y-99822000D01*
X108068279Y-99798823D01*
X108063110Y-99739735D01*
X108051115Y-99602629D01*
X107994120Y-99389924D01*
X107901056Y-99190347D01*
X107901054Y-99190344D01*
X107901053Y-99190342D01*
X107817926Y-99071625D01*
X107774749Y-99009962D01*
X107619038Y-98854251D01*
X107438654Y-98727944D01*
X107428873Y-98723383D01*
X107239081Y-98634882D01*
X107239079Y-98634881D01*
X107239076Y-98634880D01*
X107059519Y-98586767D01*
X107026372Y-98577885D01*
X107026365Y-98577884D01*
X106807002Y-98558693D01*
X106806998Y-98558693D01*
X106587634Y-98577884D01*
X106587627Y-98577885D01*
X106374920Y-98634881D01*
X106175346Y-98727944D01*
X106175342Y-98727946D01*
X105994967Y-98854247D01*
X105994960Y-98854252D01*
X105839252Y-99009960D01*
X105839247Y-99009967D01*
X105712946Y-99190342D01*
X105712944Y-99190346D01*
X105676286Y-99268960D01*
X105659795Y-99304327D01*
X105649382Y-99326657D01*
X105603210Y-99379096D01*
X105536016Y-99398248D01*
X105469135Y-99378032D01*
X105424618Y-99326657D01*
X105418396Y-99313314D01*
X105361056Y-99190347D01*
X105361054Y-99190344D01*
X105361053Y-99190342D01*
X105277926Y-99071625D01*
X105234749Y-99009962D01*
X105079038Y-98854251D01*
X105079033Y-98854247D01*
X105079030Y-98854245D01*
X104953376Y-98766260D01*
X104909751Y-98711683D01*
X104900500Y-98664686D01*
X104900500Y-90278374D01*
X104920185Y-90211335D01*
X104953375Y-90176800D01*
X105049776Y-90109301D01*
X105199301Y-89959776D01*
X105320589Y-89786558D01*
X105409956Y-89594910D01*
X105464686Y-89390655D01*
X105483116Y-89180000D01*
X105464686Y-88969345D01*
X105419818Y-88801897D01*
X105409958Y-88765097D01*
X105409957Y-88765096D01*
X105409956Y-88765090D01*
X105320589Y-88573442D01*
X105199301Y-88400224D01*
X105199299Y-88400221D01*
X105049780Y-88250702D01*
X104974945Y-88198302D01*
X104931321Y-88143725D01*
X104924128Y-88074226D01*
X104955650Y-88011872D01*
X104980795Y-87991298D01*
X104996260Y-87981722D01*
X105160608Y-87831900D01*
X105294631Y-87654425D01*
X105393760Y-87455349D01*
X105446495Y-87270000D01*
X104732047Y-87270000D01*
X104665008Y-87250315D01*
X104619253Y-87197511D01*
X104609309Y-87128353D01*
X104611842Y-87115557D01*
X104613979Y-87107114D01*
X104613982Y-87107108D01*
X104623628Y-86990698D01*
X104606849Y-86924438D01*
X104609475Y-86854619D01*
X104649431Y-86797302D01*
X104714032Y-86770686D01*
X104727055Y-86770000D01*
X105446495Y-86770000D01*
X105393760Y-86584650D01*
X105294631Y-86385574D01*
X105160608Y-86208099D01*
X104996261Y-86058278D01*
X104807179Y-85941202D01*
X104807177Y-85941201D01*
X104599799Y-85860864D01*
X104520000Y-85845946D01*
X104520000Y-86562101D01*
X104500315Y-86629140D01*
X104447511Y-86674895D01*
X104378353Y-86684839D01*
X104355738Y-86679383D01*
X104328406Y-86670000D01*
X104328405Y-86670000D01*
X104240995Y-86670000D01*
X104240994Y-86670000D01*
X104164408Y-86682779D01*
X104095043Y-86674396D01*
X104041222Y-86629843D01*
X104020031Y-86563264D01*
X104020000Y-86560470D01*
X104019999Y-85845946D01*
X103959186Y-85857315D01*
X103889671Y-85850284D01*
X103834992Y-85806787D01*
X103812509Y-85740633D01*
X103812400Y-85735426D01*
X103812400Y-84334865D01*
X103832085Y-84267826D01*
X103848719Y-84247184D01*
X104906063Y-83189840D01*
X105968815Y-82127087D01*
X105981180Y-82117183D01*
X105981006Y-82116973D01*
X105987012Y-82112003D01*
X105987018Y-82112000D01*
X106034999Y-82060904D01*
X106056134Y-82039770D01*
X106060463Y-82034187D01*
X106064242Y-82029763D01*
X106096586Y-81995321D01*
X106106423Y-81977424D01*
X106117097Y-81961174D01*
X106129613Y-81945041D01*
X106148372Y-81901689D01*
X106150933Y-81896462D01*
X106173695Y-81855060D01*
X106178774Y-81835274D01*
X106185072Y-81816882D01*
X106193181Y-81798145D01*
X106200569Y-81751497D01*
X106201751Y-81745786D01*
X106213500Y-81700030D01*
X106213500Y-81679614D01*
X106215027Y-81660214D01*
X106215922Y-81654563D01*
X106218220Y-81640057D01*
X106213775Y-81593033D01*
X106213500Y-81587195D01*
X106213500Y-80862622D01*
X106213500Y-79953622D01*
X106215239Y-79937880D01*
X106214968Y-79937855D01*
X106215700Y-79930099D01*
X106215702Y-79930092D01*
X106213500Y-79860028D01*
X106213500Y-79830144D01*
X106212614Y-79823141D01*
X106212157Y-79817322D01*
X106211222Y-79787573D01*
X106210674Y-79770111D01*
X106204974Y-79750492D01*
X106201031Y-79731446D01*
X106200907Y-79730466D01*
X106198474Y-79711203D01*
X106181081Y-79667274D01*
X106179204Y-79661792D01*
X106166019Y-79616407D01*
X106155620Y-79598824D01*
X106147066Y-79581363D01*
X106139552Y-79562383D01*
X106132151Y-79552197D01*
X106111795Y-79524179D01*
X106108586Y-79519294D01*
X106084544Y-79478641D01*
X106084543Y-79478640D01*
X106084542Y-79478638D01*
X106070108Y-79464204D01*
X106057471Y-79449409D01*
X106045472Y-79432893D01*
X106045470Y-79432890D01*
X106009073Y-79402781D01*
X106004751Y-79398847D01*
X104974588Y-78368683D01*
X104964687Y-78356323D01*
X104964477Y-78356498D01*
X104959502Y-78350486D01*
X104959500Y-78350482D01*
X104933157Y-78325745D01*
X104908421Y-78302515D01*
X104887268Y-78281363D01*
X104885292Y-78279831D01*
X104881683Y-78277031D01*
X104877250Y-78273244D01*
X104842821Y-78240914D01*
X104842819Y-78240912D01*
X104824931Y-78231078D01*
X104808670Y-78220397D01*
X104792539Y-78207884D01*
X104749193Y-78189127D01*
X104743945Y-78186556D01*
X104716751Y-78171606D01*
X104702560Y-78163805D01*
X104699160Y-78162932D01*
X104682787Y-78158728D01*
X104664381Y-78152426D01*
X104645644Y-78144318D01*
X104645646Y-78144318D01*
X104598996Y-78136930D01*
X104593281Y-78135746D01*
X104573112Y-78130568D01*
X104547532Y-78124000D01*
X104547530Y-78124000D01*
X104527116Y-78124000D01*
X104507717Y-78122473D01*
X104487558Y-78119280D01*
X104487557Y-78119280D01*
X104440534Y-78123725D01*
X104434696Y-78124000D01*
X95413509Y-78124000D01*
X95346470Y-78104315D01*
X95321360Y-78082973D01*
X95317454Y-78078635D01*
X95248841Y-78028784D01*
X95162952Y-77966382D01*
X94988488Y-77888706D01*
X94988486Y-77888705D01*
X94801687Y-77849000D01*
X94610713Y-77849000D01*
X94423914Y-77888705D01*
X94249446Y-77966383D01*
X94094945Y-78078635D01*
X93967159Y-78220557D01*
X93871673Y-78385943D01*
X93871670Y-78385950D01*
X93812659Y-78567568D01*
X93812658Y-78567572D01*
X93792696Y-78757500D01*
X93812658Y-78947428D01*
X93812659Y-78947431D01*
X93871670Y-79129049D01*
X93871673Y-79129056D01*
X93967160Y-79294444D01*
X94040425Y-79375813D01*
X94093088Y-79434302D01*
X94094947Y-79436366D01*
X94242262Y-79543397D01*
X94249451Y-79548620D01*
X94332934Y-79585788D01*
X94386172Y-79631037D01*
X94406494Y-79697886D01*
X94406500Y-79699068D01*
X94406500Y-81578654D01*
X94413011Y-81639202D01*
X94413011Y-81639204D01*
X94461285Y-81768627D01*
X94464111Y-81776204D01*
X94551739Y-81893261D01*
X94668796Y-81980889D01*
X94805799Y-82031989D01*
X94833050Y-82034918D01*
X94866345Y-82038499D01*
X94866362Y-82038500D01*
X96763638Y-82038500D01*
X96763654Y-82038499D01*
X96790692Y-82035591D01*
X96824201Y-82031989D01*
X96961204Y-81980889D01*
X97078261Y-81893261D01*
X97165889Y-81776204D01*
X97190397Y-81710495D01*
X97232268Y-81654563D01*
X97297733Y-81630147D01*
X97366005Y-81644999D01*
X97393724Y-81666656D01*
X97394010Y-81666347D01*
X97397774Y-81669811D01*
X97397780Y-81669818D01*
X97581983Y-81813190D01*
X97581985Y-81813191D01*
X97581992Y-81813196D01*
X97656516Y-81853525D01*
X97706108Y-81902743D01*
X97721500Y-81962580D01*
X97721500Y-85001233D01*
X97701815Y-85068272D01*
X97685181Y-85088914D01*
X96980780Y-85793314D01*
X96919457Y-85826799D01*
X96866116Y-85825530D01*
X96865989Y-85826255D01*
X96861218Y-85825413D01*
X96861009Y-85825409D01*
X96860655Y-85825314D01*
X96860653Y-85825313D01*
X96860649Y-85825313D01*
X96650002Y-85806884D01*
X96649998Y-85806884D01*
X96439350Y-85825313D01*
X96439339Y-85825315D01*
X96235097Y-85880041D01*
X96235088Y-85880045D01*
X96043443Y-85969410D01*
X96043441Y-85969411D01*
X95870221Y-86090700D01*
X95720700Y-86240221D01*
X95599411Y-86413441D01*
X95599410Y-86413443D01*
X95510045Y-86605088D01*
X95510041Y-86605097D01*
X95455315Y-86809339D01*
X95455313Y-86809350D01*
X95436884Y-87019998D01*
X95436884Y-87020001D01*
X95455313Y-87230649D01*
X95455315Y-87230660D01*
X95510041Y-87434902D01*
X95510043Y-87434906D01*
X95510044Y-87434910D01*
X95519575Y-87455349D01*
X95599410Y-87626556D01*
X95599411Y-87626558D01*
X95720700Y-87799778D01*
X95870222Y-87949300D01*
X95940380Y-87998425D01*
X95984005Y-88053002D01*
X95991199Y-88122500D01*
X95959676Y-88184855D01*
X95940380Y-88201575D01*
X95870222Y-88250699D01*
X95720700Y-88400221D01*
X95599411Y-88573441D01*
X95599410Y-88573443D01*
X95510045Y-88765088D01*
X95510041Y-88765097D01*
X95455315Y-88969339D01*
X95455313Y-88969350D01*
X95436884Y-89179998D01*
X95436884Y-89180001D01*
X95455313Y-89390649D01*
X95455315Y-89390660D01*
X95510041Y-89594902D01*
X95510043Y-89594906D01*
X95510044Y-89594910D01*
X95573499Y-89730989D01*
X95599410Y-89786556D01*
X95599411Y-89786558D01*
X95720700Y-89959778D01*
X95870221Y-90109299D01*
X95892163Y-90124662D01*
X95963621Y-90174698D01*
X95963623Y-90174699D01*
X96007248Y-90229275D01*
X96016500Y-90276274D01*
X96016500Y-90720832D01*
X95996815Y-90787871D01*
X95980181Y-90808513D01*
X94621555Y-92167138D01*
X94560232Y-92200623D01*
X94490540Y-92195639D01*
X94434607Y-92153767D01*
X94430081Y-92146905D01*
X94427524Y-92143253D01*
X94427523Y-92143251D01*
X94296198Y-91955700D01*
X94134300Y-91793802D01*
X93946749Y-91662477D01*
X93921701Y-91650797D01*
X93739249Y-91565718D01*
X93739238Y-91565714D01*
X93518089Y-91506457D01*
X93518081Y-91506456D01*
X93290002Y-91486502D01*
X93289998Y-91486502D01*
X93061918Y-91506456D01*
X93061910Y-91506457D01*
X92840761Y-91565714D01*
X92840750Y-91565718D01*
X92633256Y-91662474D01*
X92633250Y-91662477D01*
X92619233Y-91672292D01*
X92553026Y-91694617D01*
X92485260Y-91677603D01*
X92448850Y-91645029D01*
X92447192Y-91642814D01*
X92447185Y-91642808D01*
X92332093Y-91556649D01*
X92332086Y-91556645D01*
X92197379Y-91506403D01*
X92197372Y-91506401D01*
X92137844Y-91500000D01*
X91540000Y-91500000D01*
X91540000Y-92289424D01*
X91520315Y-92356463D01*
X91467511Y-92402218D01*
X91398353Y-92412162D01*
X91396602Y-92411897D01*
X91321486Y-92400000D01*
X91321481Y-92400000D01*
X91258519Y-92400000D01*
X91258514Y-92400000D01*
X91183398Y-92411897D01*
X91114104Y-92402942D01*
X91060652Y-92357946D01*
X91040013Y-92291194D01*
X91040000Y-92289424D01*
X91040000Y-91500000D01*
X90442155Y-91500000D01*
X90382627Y-91506401D01*
X90382620Y-91506403D01*
X90247913Y-91556645D01*
X90247906Y-91556649D01*
X90132812Y-91642809D01*
X90132809Y-91642812D01*
X90046649Y-91757906D01*
X90046645Y-91757913D01*
X89996403Y-91892620D01*
X89996401Y-91892627D01*
X89990000Y-91952155D01*
X89990000Y-92550000D01*
X90779424Y-92550000D01*
X90846463Y-92569685D01*
X90892218Y-92622489D01*
X90902162Y-92691647D01*
X90901897Y-92693397D01*
X90885014Y-92799996D01*
X90885014Y-92800003D01*
X90901897Y-92906603D01*
X90892942Y-92975896D01*
X90847946Y-93029348D01*
X90781194Y-93049987D01*
X90779424Y-93050000D01*
X89990000Y-93050000D01*
X89990000Y-93647844D01*
X89996401Y-93707372D01*
X89996403Y-93707379D01*
X90046645Y-93842086D01*
X90046649Y-93842093D01*
X90132809Y-93957187D01*
X90132812Y-93957190D01*
X90247906Y-94043350D01*
X90247913Y-94043354D01*
X90382620Y-94093596D01*
X90382627Y-94093598D01*
X90442155Y-94099999D01*
X90442172Y-94100000D01*
X90759233Y-94100000D01*
X90826272Y-94119685D01*
X90872027Y-94172489D01*
X90881971Y-94241647D01*
X90852946Y-94305203D01*
X90846914Y-94311681D01*
X88109879Y-97048714D01*
X88097520Y-97058618D01*
X88097693Y-97058827D01*
X88091683Y-97063799D01*
X88043716Y-97114878D01*
X88022572Y-97136022D01*
X88022557Y-97136039D01*
X88018231Y-97141614D01*
X88014447Y-97146044D01*
X87982119Y-97180471D01*
X87982112Y-97180481D01*
X87972279Y-97198367D01*
X87961603Y-97214620D01*
X87949086Y-97230757D01*
X87949085Y-97230759D01*
X87930325Y-97274110D01*
X87927755Y-97279356D01*
X87905003Y-97320741D01*
X87905003Y-97320742D01*
X87899925Y-97340520D01*
X87893625Y-97358922D01*
X87885518Y-97377657D01*
X87878131Y-97424295D01*
X87876946Y-97430016D01*
X87865200Y-97475765D01*
X87865200Y-97496184D01*
X87863673Y-97515583D01*
X87860480Y-97535741D01*
X87860480Y-97535742D01*
X87864925Y-97582766D01*
X87865200Y-97588604D01*
X87865200Y-97786583D01*
X87845515Y-97853622D01*
X87792711Y-97899377D01*
X87723553Y-97909321D01*
X87707268Y-97905850D01*
X87703809Y-97904865D01*
X87624000Y-97889946D01*
X87624000Y-98606101D01*
X87604315Y-98673140D01*
X87551511Y-98718895D01*
X87482353Y-98728839D01*
X87459738Y-98723383D01*
X87432406Y-98714000D01*
X87432405Y-98714000D01*
X87344995Y-98714000D01*
X87344994Y-98714000D01*
X87268408Y-98726779D01*
X87199043Y-98718396D01*
X87145222Y-98673843D01*
X87124031Y-98607264D01*
X87124000Y-98604470D01*
X87124000Y-97889946D01*
X87044200Y-97904864D01*
X86836822Y-97985201D01*
X86836820Y-97985202D01*
X86647738Y-98102278D01*
X86483391Y-98252099D01*
X86349368Y-98429574D01*
X86250239Y-98628650D01*
X86197505Y-98814000D01*
X86911953Y-98814000D01*
X86978992Y-98833685D01*
X87024747Y-98886489D01*
X87034691Y-98955647D01*
X87032158Y-98968443D01*
X87030017Y-98976896D01*
X87020371Y-99093299D01*
X87022713Y-99102548D01*
X87035010Y-99151108D01*
X87037151Y-99159560D01*
X87034525Y-99229381D01*
X86994569Y-99286698D01*
X86929968Y-99313314D01*
X86916945Y-99314000D01*
X86197505Y-99314000D01*
X86250239Y-99499349D01*
X86349368Y-99698425D01*
X86483391Y-99875900D01*
X86647737Y-100025720D01*
X86655626Y-100030605D01*
X86702263Y-100082632D01*
X86713368Y-100151613D01*
X86685417Y-100215648D01*
X86661475Y-100237608D01*
X86594223Y-100284698D01*
X86444700Y-100434221D01*
X86323411Y-100607441D01*
X86323410Y-100607443D01*
X86234045Y-100799088D01*
X86234041Y-100799097D01*
X86179315Y-101003339D01*
X86179313Y-101003350D01*
X86160884Y-101213998D01*
X86160884Y-101214003D01*
X86164851Y-101259350D01*
X86151084Y-101327849D01*
X86102468Y-101378032D01*
X86034440Y-101393965D01*
X85968596Y-101370589D01*
X85953642Y-101357837D01*
X84406988Y-99811183D01*
X84397087Y-99798823D01*
X84396877Y-99798998D01*
X84391902Y-99792986D01*
X84391900Y-99792982D01*
X84349824Y-99753470D01*
X84340822Y-99745016D01*
X84319668Y-99723863D01*
X84317692Y-99722331D01*
X84314083Y-99719531D01*
X84309650Y-99715744D01*
X84275221Y-99683414D01*
X84275219Y-99683412D01*
X84257331Y-99673578D01*
X84241070Y-99662897D01*
X84224939Y-99650384D01*
X84181593Y-99631627D01*
X84176345Y-99629056D01*
X84149151Y-99614106D01*
X84134960Y-99606305D01*
X84131560Y-99605432D01*
X84115187Y-99601228D01*
X84096781Y-99594926D01*
X84078044Y-99586818D01*
X84078046Y-99586818D01*
X84031396Y-99579430D01*
X84025681Y-99578246D01*
X84005512Y-99573068D01*
X83979932Y-99566500D01*
X83979930Y-99566500D01*
X83959516Y-99566500D01*
X83940117Y-99564973D01*
X83919958Y-99561780D01*
X83919957Y-99561780D01*
X83872934Y-99566225D01*
X83867096Y-99566500D01*
X77856274Y-99566500D01*
X77789235Y-99546815D01*
X77754699Y-99513623D01*
X77753198Y-99511480D01*
X77709592Y-99449203D01*
X77689302Y-99420225D01*
X77616064Y-99346987D01*
X77539776Y-99270699D01*
X77480768Y-99229381D01*
X77446375Y-99205298D01*
X77402751Y-99150720D01*
X77393500Y-99103724D01*
X77393500Y-98461350D01*
X77413185Y-98394311D01*
X77446373Y-98359777D01*
X77594300Y-98256198D01*
X77756198Y-98094300D01*
X77887523Y-97906749D01*
X77984284Y-97699243D01*
X78043543Y-97478087D01*
X78063498Y-97250002D01*
X80445034Y-97250002D01*
X80464858Y-97476599D01*
X80464860Y-97476610D01*
X80523730Y-97696317D01*
X80523734Y-97696326D01*
X80619865Y-97902481D01*
X80619866Y-97902483D01*
X80670973Y-97975471D01*
X80670973Y-97975472D01*
X81212580Y-97433865D01*
X81273903Y-97400380D01*
X81343594Y-97405364D01*
X81399528Y-97447235D01*
X81410742Y-97465246D01*
X81416102Y-97475765D01*
X81422358Y-97488044D01*
X81422363Y-97488050D01*
X81511949Y-97577636D01*
X81511951Y-97577637D01*
X81511955Y-97577641D01*
X81534747Y-97589254D01*
X81585542Y-97637228D01*
X81602337Y-97705049D01*
X81579799Y-97771184D01*
X81566132Y-97787419D01*
X81024526Y-98329025D01*
X81024526Y-98329026D01*
X81097512Y-98380131D01*
X81097516Y-98380133D01*
X81303673Y-98476265D01*
X81303682Y-98476269D01*
X81523389Y-98535139D01*
X81523400Y-98535141D01*
X81749998Y-98554966D01*
X81750002Y-98554966D01*
X81976599Y-98535141D01*
X81976610Y-98535139D01*
X82196317Y-98476269D01*
X82196331Y-98476264D01*
X82402478Y-98380136D01*
X82475472Y-98329025D01*
X81933866Y-97787419D01*
X81900381Y-97726096D01*
X81905365Y-97656404D01*
X81947237Y-97600471D01*
X81965245Y-97589258D01*
X81988045Y-97577641D01*
X82077641Y-97488045D01*
X82089254Y-97465252D01*
X82137225Y-97414458D01*
X82205046Y-97397661D01*
X82271181Y-97420197D01*
X82287419Y-97433866D01*
X82829025Y-97975472D01*
X82880136Y-97902478D01*
X82976264Y-97696331D01*
X82976269Y-97696317D01*
X83035139Y-97476610D01*
X83035141Y-97476599D01*
X83054966Y-97250002D01*
X83054966Y-97249997D01*
X83035141Y-97023400D01*
X83035139Y-97023389D01*
X82976269Y-96803682D01*
X82976265Y-96803673D01*
X82880133Y-96597516D01*
X82880131Y-96597512D01*
X82829026Y-96524526D01*
X82829025Y-96524526D01*
X82287419Y-97066132D01*
X82226096Y-97099617D01*
X82156404Y-97094633D01*
X82100471Y-97052761D01*
X82089256Y-97034751D01*
X82077641Y-97011955D01*
X82077637Y-97011951D01*
X82077636Y-97011949D01*
X81988050Y-96922363D01*
X81988044Y-96922358D01*
X81978109Y-96917296D01*
X81965250Y-96910744D01*
X81914456Y-96862773D01*
X81897660Y-96794952D01*
X81920197Y-96728817D01*
X81933865Y-96712580D01*
X82475472Y-96170973D01*
X82402483Y-96119866D01*
X82402481Y-96119865D01*
X82196326Y-96023734D01*
X82196317Y-96023730D01*
X81976610Y-95964860D01*
X81976599Y-95964858D01*
X81750002Y-95945034D01*
X81749998Y-95945034D01*
X81523400Y-95964858D01*
X81523389Y-95964860D01*
X81303682Y-96023730D01*
X81303673Y-96023734D01*
X81097513Y-96119868D01*
X81024526Y-96170973D01*
X81566133Y-96712580D01*
X81599618Y-96773903D01*
X81594634Y-96843595D01*
X81552762Y-96899528D01*
X81534748Y-96910745D01*
X81511956Y-96922358D01*
X81511949Y-96922363D01*
X81422363Y-97011949D01*
X81422358Y-97011956D01*
X81410745Y-97034748D01*
X81362770Y-97085544D01*
X81294949Y-97102338D01*
X81228814Y-97079800D01*
X81212580Y-97066133D01*
X80670973Y-96524526D01*
X80619868Y-96597513D01*
X80523734Y-96803673D01*
X80523730Y-96803682D01*
X80464860Y-97023389D01*
X80464858Y-97023400D01*
X80445034Y-97249997D01*
X80445034Y-97250002D01*
X78063498Y-97250002D01*
X78063498Y-97250000D01*
X78062474Y-97238300D01*
X78053526Y-97136022D01*
X78043543Y-97021913D01*
X77984284Y-96800757D01*
X77976936Y-96785000D01*
X77922736Y-96668767D01*
X77887523Y-96593251D01*
X77756198Y-96405700D01*
X77594300Y-96243802D01*
X77406749Y-96112477D01*
X77406745Y-96112475D01*
X77199249Y-96015718D01*
X77199238Y-96015714D01*
X76978089Y-95956457D01*
X76978081Y-95956456D01*
X76750002Y-95936502D01*
X76749998Y-95936502D01*
X76630334Y-95946971D01*
X76561834Y-95933204D01*
X76511651Y-95884589D01*
X76495718Y-95816560D01*
X76497054Y-95804045D01*
X76499469Y-95788796D01*
X76500651Y-95783086D01*
X76512400Y-95737330D01*
X76512400Y-95716914D01*
X76513927Y-95697514D01*
X76514088Y-95696500D01*
X76517120Y-95677357D01*
X76512675Y-95630333D01*
X76512400Y-95624495D01*
X76512400Y-94699732D01*
X76514139Y-94683980D01*
X76513868Y-94683955D01*
X76514600Y-94676199D01*
X76514602Y-94676192D01*
X76512400Y-94606128D01*
X76512400Y-94576244D01*
X76511514Y-94569241D01*
X76511057Y-94563422D01*
X76509574Y-94516211D01*
X76503876Y-94496599D01*
X76499933Y-94477566D01*
X76497374Y-94457303D01*
X76479990Y-94413396D01*
X76478097Y-94407867D01*
X76472755Y-94389483D01*
X76468774Y-94375779D01*
X76468972Y-94305913D01*
X76506913Y-94247242D01*
X76570551Y-94218398D01*
X76607247Y-94218711D01*
X76626933Y-94221829D01*
X76678515Y-94230000D01*
X76678519Y-94230000D01*
X76741485Y-94230000D01*
X76784300Y-94223218D01*
X76816602Y-94218102D01*
X76885894Y-94227056D01*
X76939347Y-94272052D01*
X76959987Y-94338803D01*
X76960000Y-94340575D01*
X76960000Y-95108872D01*
X77156317Y-95056269D01*
X77156326Y-95056265D01*
X77362482Y-94960133D01*
X77548816Y-94829661D01*
X77565954Y-94812523D01*
X77627276Y-94779036D01*
X77696968Y-94784019D01*
X77741315Y-94812519D01*
X78019038Y-95090242D01*
X78295909Y-95367113D01*
X78305818Y-95379481D01*
X78306028Y-95379308D01*
X78310998Y-95385317D01*
X78362079Y-95433284D01*
X78383224Y-95454430D01*
X78388813Y-95458766D01*
X78393245Y-95462552D01*
X78410487Y-95478742D01*
X78427680Y-95494887D01*
X78445562Y-95504717D01*
X78461829Y-95515402D01*
X78477960Y-95527915D01*
X78499088Y-95537057D01*
X78521307Y-95546671D01*
X78526533Y-95549231D01*
X78567940Y-95571995D01*
X78587716Y-95577072D01*
X78606124Y-95583375D01*
X78624850Y-95591479D01*
X78624852Y-95591480D01*
X78624853Y-95591480D01*
X78624855Y-95591481D01*
X78665784Y-95597963D01*
X78671503Y-95598869D01*
X78677212Y-95600051D01*
X78722970Y-95611800D01*
X78743384Y-95611800D01*
X78762783Y-95613327D01*
X78782943Y-95616520D01*
X78829965Y-95612075D01*
X78835804Y-95611800D01*
X83098066Y-95611800D01*
X83113813Y-95613538D01*
X83113839Y-95613268D01*
X83121605Y-95614001D01*
X83121609Y-95614002D01*
X83191658Y-95611800D01*
X83221556Y-95611800D01*
X83221557Y-95611800D01*
X83222922Y-95611627D01*
X83228562Y-95610914D01*
X83234385Y-95610456D01*
X83260408Y-95609638D01*
X83281590Y-95608973D01*
X83291381Y-95606127D01*
X83301181Y-95603280D01*
X83320238Y-95599332D01*
X83340497Y-95596774D01*
X83384421Y-95579382D01*
X83389921Y-95577499D01*
X83435293Y-95564318D01*
X83452865Y-95553925D01*
X83470332Y-95545368D01*
X83489317Y-95537852D01*
X83527526Y-95510090D01*
X83532404Y-95506885D01*
X83573062Y-95482842D01*
X83587502Y-95468400D01*
X83602292Y-95455770D01*
X83618807Y-95443772D01*
X83648922Y-95407367D01*
X83652826Y-95403076D01*
X83917569Y-95138333D01*
X83978890Y-95104850D01*
X84037341Y-95106241D01*
X84055979Y-95111234D01*
X84101913Y-95123543D01*
X84252573Y-95136724D01*
X84329998Y-95143498D01*
X84330000Y-95143498D01*
X84330002Y-95143498D01*
X84407427Y-95136724D01*
X84558087Y-95123543D01*
X84779243Y-95064284D01*
X84986749Y-94967523D01*
X85174300Y-94836198D01*
X85336198Y-94674300D01*
X85467523Y-94486749D01*
X85492307Y-94433598D01*
X85538479Y-94381159D01*
X85605672Y-94362007D01*
X85672553Y-94382222D01*
X85717071Y-94433599D01*
X85739864Y-94482479D01*
X85739865Y-94482481D01*
X85870342Y-94668820D01*
X86031179Y-94829657D01*
X86217517Y-94960134D01*
X86423673Y-95056265D01*
X86423682Y-95056269D01*
X86619999Y-95108872D01*
X86620000Y-95108871D01*
X86620000Y-94340575D01*
X86639685Y-94273536D01*
X86692489Y-94227781D01*
X86761647Y-94217837D01*
X86763331Y-94218091D01*
X86795699Y-94223218D01*
X86838515Y-94230000D01*
X86838519Y-94230000D01*
X86901485Y-94230000D01*
X86944300Y-94223218D01*
X86976602Y-94218102D01*
X87045894Y-94227056D01*
X87099347Y-94272052D01*
X87119987Y-94338803D01*
X87120000Y-94340575D01*
X87120000Y-95108872D01*
X87316317Y-95056269D01*
X87316326Y-95056265D01*
X87522482Y-94960134D01*
X87708820Y-94829657D01*
X87869657Y-94668820D01*
X88000134Y-94482482D01*
X88096265Y-94276326D01*
X88096269Y-94276317D01*
X88148872Y-94080000D01*
X87380576Y-94080000D01*
X87313537Y-94060315D01*
X87267782Y-94007511D01*
X87257838Y-93938353D01*
X87258103Y-93936603D01*
X87274986Y-93830003D01*
X87274986Y-93829996D01*
X87258103Y-93723397D01*
X87267058Y-93654104D01*
X87312054Y-93600652D01*
X87378806Y-93580013D01*
X87380576Y-93580000D01*
X88148872Y-93580000D01*
X88148872Y-93579999D01*
X88096269Y-93383682D01*
X88096265Y-93383673D01*
X88000134Y-93177517D01*
X87869657Y-92991179D01*
X87708820Y-92830342D01*
X87522482Y-92699865D01*
X87316328Y-92603734D01*
X87120000Y-92551127D01*
X87120000Y-93319424D01*
X87100315Y-93386463D01*
X87047511Y-93432218D01*
X86978353Y-93442162D01*
X86976602Y-93441897D01*
X86901486Y-93430000D01*
X86901481Y-93430000D01*
X86838519Y-93430000D01*
X86838514Y-93430000D01*
X86763398Y-93441897D01*
X86694104Y-93432942D01*
X86640652Y-93387946D01*
X86620013Y-93321194D01*
X86620000Y-93319424D01*
X86620000Y-92551127D01*
X86423671Y-92603734D01*
X86217517Y-92699865D01*
X86031179Y-92830342D01*
X85870342Y-92991179D01*
X85739865Y-93177517D01*
X85717071Y-93226401D01*
X85670898Y-93278840D01*
X85603705Y-93297992D01*
X85536824Y-93277776D01*
X85492307Y-93226401D01*
X85467523Y-93173251D01*
X85435586Y-93127641D01*
X85336198Y-92985700D01*
X85174300Y-92823802D01*
X84986749Y-92692477D01*
X84984969Y-92691647D01*
X84779249Y-92595718D01*
X84779238Y-92595714D01*
X84558089Y-92536457D01*
X84558081Y-92536456D01*
X84330002Y-92516502D01*
X84329998Y-92516502D01*
X84101918Y-92536456D01*
X84101910Y-92536457D01*
X83880761Y-92595714D01*
X83880750Y-92595718D01*
X83673254Y-92692475D01*
X83673252Y-92692476D01*
X83639407Y-92716175D01*
X83485700Y-92823802D01*
X83485698Y-92823803D01*
X83485695Y-92823806D01*
X83323806Y-92985695D01*
X83192476Y-93173251D01*
X83172382Y-93216345D01*
X83126209Y-93268784D01*
X83059016Y-93287936D01*
X82992135Y-93267720D01*
X82947618Y-93216345D01*
X82927523Y-93173251D01*
X82895586Y-93127641D01*
X82796198Y-92985700D01*
X82634300Y-92823802D01*
X82446749Y-92692477D01*
X82444969Y-92691647D01*
X82239249Y-92595718D01*
X82239238Y-92595714D01*
X82018089Y-92536457D01*
X82018081Y-92536456D01*
X81790002Y-92516502D01*
X81789998Y-92516502D01*
X81561918Y-92536456D01*
X81561907Y-92536458D01*
X81497343Y-92553758D01*
X81427493Y-92552095D01*
X81377569Y-92521664D01*
X80654988Y-91799083D01*
X80645087Y-91786723D01*
X80644877Y-91786898D01*
X80639902Y-91780886D01*
X80639900Y-91780882D01*
X80613557Y-91756145D01*
X80588821Y-91732915D01*
X80567668Y-91711763D01*
X80565692Y-91710231D01*
X80562083Y-91707431D01*
X80557650Y-91703644D01*
X80551424Y-91697798D01*
X80523221Y-91671314D01*
X80523219Y-91671312D01*
X80505331Y-91661478D01*
X80489070Y-91650797D01*
X80472939Y-91638284D01*
X80429593Y-91619527D01*
X80424345Y-91616956D01*
X80396924Y-91601882D01*
X80382960Y-91594205D01*
X80379560Y-91593332D01*
X80363187Y-91589128D01*
X80344781Y-91582826D01*
X80326044Y-91574718D01*
X80326046Y-91574718D01*
X80279396Y-91567330D01*
X80273681Y-91566146D01*
X80253512Y-91560968D01*
X80227932Y-91554400D01*
X80227930Y-91554400D01*
X80207516Y-91554400D01*
X80188117Y-91552873D01*
X80167958Y-91549680D01*
X80167957Y-91549680D01*
X80120934Y-91554125D01*
X80115096Y-91554400D01*
X73925729Y-91554400D01*
X73909986Y-91552661D01*
X73909961Y-91552933D01*
X73902193Y-91552198D01*
X73832160Y-91554400D01*
X73802242Y-91554400D01*
X73795236Y-91555284D01*
X73789418Y-91555742D01*
X73742211Y-91557226D01*
X73742208Y-91557227D01*
X73722605Y-91562922D01*
X73703559Y-91566866D01*
X73683303Y-91569426D01*
X73683301Y-91569426D01*
X73639392Y-91586810D01*
X73633868Y-91588701D01*
X73588504Y-91601882D01*
X73588503Y-91601883D01*
X73570924Y-91612278D01*
X73553464Y-91620832D01*
X73534484Y-91628347D01*
X73534481Y-91628349D01*
X73496282Y-91656101D01*
X73491400Y-91659309D01*
X73450738Y-91683356D01*
X73436296Y-91697798D01*
X73421508Y-91710427D01*
X73404997Y-91722423D01*
X73404992Y-91722428D01*
X73374890Y-91758814D01*
X73370958Y-91763136D01*
X72521179Y-92612914D01*
X72508820Y-92622818D01*
X72508993Y-92623027D01*
X72502983Y-92627999D01*
X72502982Y-92627999D01*
X72502982Y-92628000D01*
X72455016Y-92679078D01*
X72451919Y-92682174D01*
X72451390Y-92682704D01*
X72390059Y-92716175D01*
X72320368Y-92711175D01*
X72292608Y-92696580D01*
X72286749Y-92692477D01*
X72284969Y-92691647D01*
X72079249Y-92595718D01*
X72079238Y-92595714D01*
X71858089Y-92536457D01*
X71858081Y-92536456D01*
X71630002Y-92516502D01*
X71629998Y-92516502D01*
X71401918Y-92536456D01*
X71401910Y-92536457D01*
X71180760Y-92595715D01*
X71180759Y-92595715D01*
X71180757Y-92595716D01*
X71171878Y-92599855D01*
X71169899Y-92600779D01*
X71100821Y-92611267D01*
X71037038Y-92582744D01*
X70998802Y-92524265D01*
X70993500Y-92488394D01*
X70993500Y-90323766D01*
X71013185Y-90256727D01*
X71029819Y-90236085D01*
X76197632Y-85068272D01*
X81369683Y-79896220D01*
X81431004Y-79862737D01*
X81489455Y-79864128D01*
X81497472Y-79866276D01*
X81561913Y-79883543D01*
X81706835Y-79896222D01*
X81789998Y-79903498D01*
X81790000Y-79903498D01*
X81790002Y-79903498D01*
X81856740Y-79897659D01*
X82018087Y-79883543D01*
X82239243Y-79824284D01*
X82446749Y-79727523D01*
X82634300Y-79596198D01*
X82796198Y-79434300D01*
X82927523Y-79246749D01*
X82947617Y-79203655D01*
X82993790Y-79151215D01*
X83060983Y-79132063D01*
X83127864Y-79152278D01*
X83172382Y-79203655D01*
X83192477Y-79246749D01*
X83323802Y-79434300D01*
X83485700Y-79596198D01*
X83673251Y-79727523D01*
X83764582Y-79770111D01*
X83880750Y-79824281D01*
X83880752Y-79824281D01*
X83880757Y-79824284D01*
X84101913Y-79883543D01*
X84246835Y-79896222D01*
X84329998Y-79903498D01*
X84330000Y-79903498D01*
X84330002Y-79903498D01*
X84396740Y-79897659D01*
X84558087Y-79883543D01*
X84779243Y-79824284D01*
X84986749Y-79727523D01*
X85174300Y-79596198D01*
X85336198Y-79434300D01*
X85341566Y-79426632D01*
X85396139Y-79383008D01*
X85465637Y-79375813D01*
X85527993Y-79407333D01*
X85563409Y-79467562D01*
X85566430Y-79484498D01*
X85568011Y-79499202D01*
X85568011Y-79499204D01*
X85606908Y-79603488D01*
X85619111Y-79636204D01*
X85706739Y-79753261D01*
X85823796Y-79840889D01*
X85960799Y-79891989D01*
X85988050Y-79894918D01*
X86021345Y-79898499D01*
X86021362Y-79898500D01*
X87718638Y-79898500D01*
X87718654Y-79898499D01*
X87745692Y-79895591D01*
X87779201Y-79891989D01*
X87916204Y-79840889D01*
X88033261Y-79753261D01*
X88120889Y-79636204D01*
X88171989Y-79499201D01*
X88175828Y-79463489D01*
X88178499Y-79438654D01*
X88178500Y-79438637D01*
X88178500Y-77741362D01*
X88178499Y-77741345D01*
X88175157Y-77710270D01*
X88171989Y-77680799D01*
X88163764Y-77658748D01*
X88143883Y-77605445D01*
X88120889Y-77543796D01*
X88033261Y-77426739D01*
X87916204Y-77339111D01*
X87916203Y-77339110D01*
X87779203Y-77288011D01*
X87718654Y-77281500D01*
X87718638Y-77281500D01*
X86021362Y-77281500D01*
X86021345Y-77281500D01*
X85960797Y-77288011D01*
X85960795Y-77288011D01*
X85823795Y-77339111D01*
X85706739Y-77426739D01*
X85619111Y-77543795D01*
X85568011Y-77680795D01*
X85568011Y-77680797D01*
X85566430Y-77695501D01*
X85539691Y-77760052D01*
X85482298Y-77799899D01*
X85412473Y-77802392D01*
X85352384Y-77766738D01*
X85341574Y-77753379D01*
X85336198Y-77745700D01*
X85174300Y-77583802D01*
X84986749Y-77452477D01*
X84986745Y-77452475D01*
X84779249Y-77355718D01*
X84779238Y-77355714D01*
X84558089Y-77296457D01*
X84558081Y-77296456D01*
X84330002Y-77276502D01*
X84329998Y-77276502D01*
X84101918Y-77296456D01*
X84101907Y-77296458D01*
X84037343Y-77313758D01*
X83967493Y-77312095D01*
X83917569Y-77281664D01*
X83706088Y-77070183D01*
X83696187Y-77057823D01*
X83695977Y-77057998D01*
X83691002Y-77051986D01*
X83691000Y-77051982D01*
X83664657Y-77027245D01*
X83639921Y-77004015D01*
X83618768Y-76982863D01*
X83616792Y-76981331D01*
X83613183Y-76978531D01*
X83608750Y-76974744D01*
X83574321Y-76942414D01*
X83574319Y-76942412D01*
X83556431Y-76932578D01*
X83540170Y-76921897D01*
X83524039Y-76909384D01*
X83480693Y-76890627D01*
X83475445Y-76888056D01*
X83448022Y-76872981D01*
X83434060Y-76865305D01*
X83430660Y-76864432D01*
X83414287Y-76860228D01*
X83395881Y-76853926D01*
X83377144Y-76845818D01*
X83377146Y-76845818D01*
X83330496Y-76838430D01*
X83324781Y-76837246D01*
X83304612Y-76832068D01*
X83279032Y-76825500D01*
X83279030Y-76825500D01*
X83258616Y-76825500D01*
X83239217Y-76823973D01*
X83219058Y-76820780D01*
X83219057Y-76820780D01*
X83172034Y-76825225D01*
X83166196Y-76825500D01*
X71188532Y-76825500D01*
X71172780Y-76823760D01*
X71172755Y-76824032D01*
X71164993Y-76823298D01*
X71164992Y-76823298D01*
X71094929Y-76825500D01*
X71065044Y-76825500D01*
X71065041Y-76825500D01*
X71065029Y-76825501D01*
X71058037Y-76826384D01*
X71052220Y-76826841D01*
X71005011Y-76828325D01*
X71005009Y-76828326D01*
X70985396Y-76834023D01*
X70966359Y-76837965D01*
X70946108Y-76840524D01*
X70946102Y-76840526D01*
X70902199Y-76857907D01*
X70896675Y-76859798D01*
X70851306Y-76872981D01*
X70851301Y-76872983D01*
X70833727Y-76883376D01*
X70816262Y-76891932D01*
X70797287Y-76899445D01*
X70797285Y-76899446D01*
X70759076Y-76927206D01*
X70754194Y-76930412D01*
X70713535Y-76954458D01*
X70699100Y-76968894D01*
X70684312Y-76981525D01*
X70667794Y-76993526D01*
X70667788Y-76993532D01*
X70637680Y-77029925D01*
X70633749Y-77034246D01*
X70096033Y-77571960D01*
X70034710Y-77605445D01*
X69965018Y-77600461D01*
X69937228Y-77585853D01*
X69934302Y-77583804D01*
X69934300Y-77583802D01*
X69746749Y-77452477D01*
X69746745Y-77452475D01*
X69539249Y-77355718D01*
X69539238Y-77355714D01*
X69318089Y-77296457D01*
X69318081Y-77296456D01*
X69090002Y-77276502D01*
X69089998Y-77276502D01*
X68861918Y-77296456D01*
X68861910Y-77296457D01*
X68640761Y-77355714D01*
X68640750Y-77355718D01*
X68433254Y-77452475D01*
X68433252Y-77452476D01*
X68433248Y-77452479D01*
X68245700Y-77583802D01*
X68245698Y-77583803D01*
X68245695Y-77583806D01*
X68083806Y-77745695D01*
X67952476Y-77933251D01*
X67932382Y-77976345D01*
X67886209Y-78028784D01*
X67819016Y-78047936D01*
X67752135Y-78027720D01*
X67707618Y-77976345D01*
X67687523Y-77933251D01*
X67656331Y-77888705D01*
X67556198Y-77745700D01*
X67394300Y-77583802D01*
X67206749Y-77452477D01*
X67206745Y-77452475D01*
X66999249Y-77355718D01*
X66999238Y-77355714D01*
X66778089Y-77296457D01*
X66778081Y-77296456D01*
X66550002Y-77276502D01*
X66549998Y-77276502D01*
X66321918Y-77296456D01*
X66321910Y-77296457D01*
X66100761Y-77355714D01*
X66100750Y-77355718D01*
X65893254Y-77452475D01*
X65893252Y-77452476D01*
X65893248Y-77452479D01*
X65705700Y-77583802D01*
X65705698Y-77583803D01*
X65705695Y-77583806D01*
X65543806Y-77745695D01*
X65412476Y-77933251D01*
X65392382Y-77976345D01*
X65346209Y-78028784D01*
X65279016Y-78047936D01*
X65212135Y-78027720D01*
X65167618Y-77976345D01*
X65147523Y-77933251D01*
X65116331Y-77888705D01*
X65016198Y-77745700D01*
X64854300Y-77583802D01*
X64666749Y-77452477D01*
X64666745Y-77452475D01*
X64459249Y-77355718D01*
X64459238Y-77355714D01*
X64238089Y-77296457D01*
X64238081Y-77296456D01*
X64010002Y-77276502D01*
X64009998Y-77276502D01*
X63781918Y-77296456D01*
X63781910Y-77296457D01*
X63560761Y-77355714D01*
X63560750Y-77355718D01*
X63353254Y-77452475D01*
X63353252Y-77452476D01*
X63353248Y-77452479D01*
X63165700Y-77583802D01*
X63165698Y-77583803D01*
X63165695Y-77583806D01*
X63003806Y-77745695D01*
X62872476Y-77933251D01*
X62852382Y-77976345D01*
X62806209Y-78028784D01*
X62739016Y-78047936D01*
X62672135Y-78027720D01*
X62627618Y-77976345D01*
X62607523Y-77933251D01*
X62576331Y-77888705D01*
X62476198Y-77745700D01*
X62314300Y-77583802D01*
X62126749Y-77452477D01*
X62126745Y-77452475D01*
X61919249Y-77355718D01*
X61919238Y-77355714D01*
X61698089Y-77296457D01*
X61698081Y-77296456D01*
X61470002Y-77276502D01*
X61469998Y-77276502D01*
X61241918Y-77296456D01*
X61241910Y-77296457D01*
X61020761Y-77355714D01*
X61020750Y-77355718D01*
X60813254Y-77452475D01*
X60813252Y-77452476D01*
X60813248Y-77452479D01*
X60625700Y-77583802D01*
X60625698Y-77583803D01*
X60625695Y-77583806D01*
X60463806Y-77745695D01*
X60332476Y-77933251D01*
X60312382Y-77976345D01*
X60266209Y-78028784D01*
X60199016Y-78047936D01*
X60132135Y-78027720D01*
X60087618Y-77976345D01*
X60067523Y-77933251D01*
X60036331Y-77888705D01*
X59936198Y-77745700D01*
X59774300Y-77583802D01*
X59586749Y-77452477D01*
X59586745Y-77452475D01*
X59379249Y-77355718D01*
X59379238Y-77355714D01*
X59158089Y-77296457D01*
X59158081Y-77296456D01*
X58930002Y-77276502D01*
X58929998Y-77276502D01*
X58701918Y-77296456D01*
X58701910Y-77296457D01*
X58480761Y-77355714D01*
X58480759Y-77355715D01*
X58329804Y-77426106D01*
X58260726Y-77436597D01*
X58196943Y-77408077D01*
X58158704Y-77349600D01*
X58153400Y-77313723D01*
X58153400Y-76794000D01*
X58173085Y-76726961D01*
X58225889Y-76681206D01*
X58277400Y-76670000D01*
X58830000Y-76670000D01*
X58830000Y-75880575D01*
X58849685Y-75813536D01*
X58902489Y-75767781D01*
X58971647Y-75757837D01*
X58973331Y-75758091D01*
X59005699Y-75763218D01*
X59048515Y-75770000D01*
X59048519Y-75770000D01*
X59111485Y-75770000D01*
X59154300Y-75763218D01*
X59186602Y-75758102D01*
X59255894Y-75767056D01*
X59309347Y-75812052D01*
X59329987Y-75878803D01*
X59330000Y-75880575D01*
X59330000Y-76670000D01*
X59927828Y-76670000D01*
X59927844Y-76669999D01*
X59987372Y-76663598D01*
X59987379Y-76663596D01*
X60122086Y-76613354D01*
X60122093Y-76613350D01*
X60237187Y-76527190D01*
X60237190Y-76527187D01*
X60323350Y-76412093D01*
X60323354Y-76412086D01*
X60373596Y-76277379D01*
X60373598Y-76277372D01*
X60379999Y-76217844D01*
X60380000Y-76217827D01*
X60380000Y-75620000D01*
X59590576Y-75620000D01*
X59523537Y-75600315D01*
X59477782Y-75547511D01*
X59467838Y-75478353D01*
X59468103Y-75476603D01*
X59484986Y-75370003D01*
X59484986Y-75369996D01*
X59468103Y-75263397D01*
X59477058Y-75194104D01*
X59522054Y-75140652D01*
X59588806Y-75120013D01*
X59590576Y-75120000D01*
X60379999Y-75120000D01*
X60380000Y-74522172D01*
X60379999Y-74522155D01*
X60373598Y-74462627D01*
X60373596Y-74462620D01*
X60323354Y-74327913D01*
X60323350Y-74327906D01*
X60237190Y-74212812D01*
X60237187Y-74212809D01*
X60122093Y-74126649D01*
X60122086Y-74126645D01*
X59987379Y-74076403D01*
X59987372Y-74076401D01*
X59927844Y-74070000D01*
X59330000Y-74070000D01*
X59330000Y-74859424D01*
X59310315Y-74926463D01*
X59257511Y-74972218D01*
X59188353Y-74982162D01*
X59186602Y-74981897D01*
X59111486Y-74970000D01*
X59111481Y-74970000D01*
X59048519Y-74970000D01*
X59048514Y-74970000D01*
X58973398Y-74981897D01*
X58904104Y-74972942D01*
X58850652Y-74927946D01*
X58830013Y-74861194D01*
X58830000Y-74859424D01*
X58830000Y-74070000D01*
X58232155Y-74070000D01*
X58172627Y-74076401D01*
X58172620Y-74076403D01*
X58037913Y-74126645D01*
X58037906Y-74126649D01*
X57922812Y-74212809D01*
X57922809Y-74212812D01*
X57836649Y-74327906D01*
X57836645Y-74327913D01*
X57786403Y-74462620D01*
X57786401Y-74462626D01*
X57783874Y-74486133D01*
X57757135Y-74550683D01*
X57699741Y-74590530D01*
X57629916Y-74593023D01*
X57569828Y-74557369D01*
X57559011Y-74543999D01*
X57546197Y-74525699D01*
X57384304Y-74363806D01*
X57384300Y-74363802D01*
X57196749Y-74232477D01*
X57196745Y-74232475D01*
X56989249Y-74135718D01*
X56989238Y-74135714D01*
X56768089Y-74076457D01*
X56768081Y-74076456D01*
X56540002Y-74056502D01*
X56539998Y-74056502D01*
X56311918Y-74076456D01*
X56311910Y-74076457D01*
X56090761Y-74135714D01*
X56090750Y-74135718D01*
X55883254Y-74232475D01*
X55883252Y-74232476D01*
X55883249Y-74232477D01*
X55883251Y-74232477D01*
X55695700Y-74363802D01*
X55695698Y-74363803D01*
X55695695Y-74363806D01*
X55533806Y-74525695D01*
X55402476Y-74713251D01*
X55382382Y-74756345D01*
X55336209Y-74808784D01*
X55269016Y-74827936D01*
X55202135Y-74807720D01*
X55157618Y-74756345D01*
X55137523Y-74713251D01*
X55006198Y-74525700D01*
X54844300Y-74363802D01*
X54656749Y-74232477D01*
X54656745Y-74232475D01*
X54449249Y-74135718D01*
X54449238Y-74135714D01*
X54228089Y-74076457D01*
X54228081Y-74076456D01*
X54000002Y-74056502D01*
X53999998Y-74056502D01*
X53771918Y-74076456D01*
X53771910Y-74076457D01*
X53550761Y-74135714D01*
X53550750Y-74135718D01*
X53343254Y-74232475D01*
X53343252Y-74232476D01*
X53343249Y-74232477D01*
X53343251Y-74232477D01*
X53155700Y-74363802D01*
X53155698Y-74363803D01*
X53155695Y-74363806D01*
X52993806Y-74525695D01*
X52862476Y-74713251D01*
X52842382Y-74756345D01*
X52796209Y-74808784D01*
X52729016Y-74827936D01*
X52662135Y-74807720D01*
X52617618Y-74756345D01*
X52597523Y-74713251D01*
X52466198Y-74525700D01*
X52304300Y-74363802D01*
X52116749Y-74232477D01*
X52116745Y-74232475D01*
X51909249Y-74135718D01*
X51909238Y-74135714D01*
X51688089Y-74076457D01*
X51688081Y-74076456D01*
X51460002Y-74056502D01*
X51459998Y-74056502D01*
X51231918Y-74076456D01*
X51231910Y-74076457D01*
X51010761Y-74135714D01*
X51010750Y-74135718D01*
X50803254Y-74232475D01*
X50803252Y-74232476D01*
X50803249Y-74232477D01*
X50803251Y-74232477D01*
X50615700Y-74363802D01*
X50615698Y-74363803D01*
X50615695Y-74363806D01*
X50453806Y-74525695D01*
X50322476Y-74713251D01*
X50302382Y-74756345D01*
X50256209Y-74808784D01*
X50189016Y-74827936D01*
X50122135Y-74807720D01*
X50077618Y-74756345D01*
X50057523Y-74713251D01*
X49926198Y-74525700D01*
X49764300Y-74363802D01*
X49576749Y-74232477D01*
X49576745Y-74232475D01*
X49369249Y-74135718D01*
X49369238Y-74135714D01*
X49148089Y-74076457D01*
X49148081Y-74076456D01*
X48920002Y-74056502D01*
X48919998Y-74056502D01*
X48691918Y-74076456D01*
X48691910Y-74076457D01*
X48470761Y-74135714D01*
X48470750Y-74135718D01*
X48263254Y-74232475D01*
X48263252Y-74232476D01*
X48263249Y-74232477D01*
X48263251Y-74232477D01*
X48075700Y-74363802D01*
X48075698Y-74363803D01*
X48075695Y-74363806D01*
X47913806Y-74525695D01*
X47782476Y-74713251D01*
X47762382Y-74756345D01*
X47716209Y-74808784D01*
X47649016Y-74827936D01*
X47582135Y-74807720D01*
X47537618Y-74756345D01*
X47517523Y-74713251D01*
X47386198Y-74525700D01*
X47224300Y-74363802D01*
X47036749Y-74232477D01*
X47036745Y-74232475D01*
X46829249Y-74135718D01*
X46829238Y-74135714D01*
X46608089Y-74076457D01*
X46608081Y-74076456D01*
X46380002Y-74056502D01*
X46379998Y-74056502D01*
X46151918Y-74076456D01*
X46151910Y-74076457D01*
X45930761Y-74135714D01*
X45930750Y-74135718D01*
X45723254Y-74232475D01*
X45723252Y-74232476D01*
X45723249Y-74232477D01*
X45723251Y-74232477D01*
X45535700Y-74363802D01*
X45535698Y-74363803D01*
X45535695Y-74363806D01*
X45373806Y-74525695D01*
X45373803Y-74525698D01*
X45373802Y-74525700D01*
X45326662Y-74593023D01*
X45242476Y-74713252D01*
X45242474Y-74713256D01*
X45222380Y-74756347D01*
X45176207Y-74808786D01*
X45109014Y-74827937D01*
X45042133Y-74807720D01*
X44997617Y-74756345D01*
X44977523Y-74713251D01*
X44846198Y-74525700D01*
X44684300Y-74363802D01*
X44496749Y-74232477D01*
X44496745Y-74232475D01*
X44289249Y-74135718D01*
X44289238Y-74135714D01*
X44068089Y-74076457D01*
X44068081Y-74076456D01*
X43840002Y-74056502D01*
X43839998Y-74056502D01*
X43611918Y-74076456D01*
X43611910Y-74076457D01*
X43390761Y-74135714D01*
X43390750Y-74135718D01*
X43183254Y-74232475D01*
X43183252Y-74232476D01*
X43183249Y-74232477D01*
X43183251Y-74232477D01*
X42995700Y-74363802D01*
X42995698Y-74363803D01*
X42995695Y-74363806D01*
X42833806Y-74525695D01*
X42833803Y-74525698D01*
X42833802Y-74525700D01*
X42786662Y-74593023D01*
X42702476Y-74713252D01*
X42702474Y-74713256D01*
X42682380Y-74756347D01*
X42636207Y-74808786D01*
X42569014Y-74827937D01*
X42502133Y-74807720D01*
X42457617Y-74756345D01*
X42437523Y-74713251D01*
X42306198Y-74525700D01*
X42144300Y-74363802D01*
X41956749Y-74232477D01*
X41956745Y-74232475D01*
X41749249Y-74135718D01*
X41749238Y-74135714D01*
X41528089Y-74076457D01*
X41528081Y-74076456D01*
X41300002Y-74056502D01*
X41299998Y-74056502D01*
X41071918Y-74076456D01*
X41071910Y-74076457D01*
X40850761Y-74135714D01*
X40850750Y-74135718D01*
X40643254Y-74232475D01*
X40643252Y-74232476D01*
X40643249Y-74232477D01*
X40643251Y-74232477D01*
X40455700Y-74363802D01*
X40455698Y-74363803D01*
X40455695Y-74363806D01*
X40293806Y-74525695D01*
X40293803Y-74525698D01*
X40293802Y-74525700D01*
X40246662Y-74593023D01*
X40162476Y-74713252D01*
X40142380Y-74756347D01*
X40096207Y-74808785D01*
X40029013Y-74827936D01*
X39962132Y-74807719D01*
X39917617Y-74756345D01*
X39897523Y-74713251D01*
X39766198Y-74525700D01*
X39604300Y-74363802D01*
X39416749Y-74232477D01*
X39416745Y-74232475D01*
X39209249Y-74135718D01*
X39209238Y-74135714D01*
X38988089Y-74076457D01*
X38988081Y-74076456D01*
X38760002Y-74056502D01*
X38759998Y-74056502D01*
X38531918Y-74076456D01*
X38531910Y-74076457D01*
X38310761Y-74135714D01*
X38310750Y-74135718D01*
X38103254Y-74232475D01*
X38103252Y-74232476D01*
X38103249Y-74232477D01*
X38103251Y-74232477D01*
X37915700Y-74363802D01*
X37915698Y-74363803D01*
X37915695Y-74363806D01*
X37753806Y-74525695D01*
X37753803Y-74525698D01*
X37753802Y-74525700D01*
X37706662Y-74593023D01*
X37622476Y-74713252D01*
X37622475Y-74713254D01*
X37525718Y-74920750D01*
X37525714Y-74920761D01*
X37466457Y-75141910D01*
X37466456Y-75141918D01*
X37446502Y-75369998D01*
X37446502Y-75370001D01*
X37466456Y-75598081D01*
X37466457Y-75598089D01*
X37525714Y-75819238D01*
X37525718Y-75819249D01*
X37590670Y-75958538D01*
X37622477Y-76026749D01*
X37753802Y-76214300D01*
X37915700Y-76376198D01*
X38103251Y-76507523D01*
X38161413Y-76534644D01*
X38310750Y-76604281D01*
X38310752Y-76604281D01*
X38310757Y-76604284D01*
X38531913Y-76663543D01*
X38694832Y-76677796D01*
X38759998Y-76683498D01*
X38760000Y-76683498D01*
X38760002Y-76683498D01*
X38817021Y-76678509D01*
X38988087Y-76663543D01*
X39209243Y-76604284D01*
X39416749Y-76507523D01*
X39582998Y-76391113D01*
X39649203Y-76368786D01*
X39716970Y-76385796D01*
X39741802Y-76405007D01*
X40569911Y-77233116D01*
X40603396Y-77294439D01*
X40598412Y-77364131D01*
X40556540Y-77420064D01*
X40534636Y-77433179D01*
X40493249Y-77452478D01*
X40493248Y-77452479D01*
X40305700Y-77583802D01*
X40305698Y-77583803D01*
X40305695Y-77583806D01*
X40143806Y-77745695D01*
X40012476Y-77933251D01*
X39992382Y-77976345D01*
X39946209Y-78028784D01*
X39879016Y-78047936D01*
X39812135Y-78027720D01*
X39767618Y-77976345D01*
X39747523Y-77933251D01*
X39716331Y-77888705D01*
X39616198Y-77745700D01*
X39454300Y-77583802D01*
X39266749Y-77452477D01*
X39266745Y-77452475D01*
X39059249Y-77355718D01*
X39059238Y-77355714D01*
X38838089Y-77296457D01*
X38838081Y-77296456D01*
X38610002Y-77276502D01*
X38609998Y-77276502D01*
X38381918Y-77296456D01*
X38381910Y-77296457D01*
X38160761Y-77355714D01*
X38160750Y-77355718D01*
X37953254Y-77452475D01*
X37953252Y-77452476D01*
X37953248Y-77452479D01*
X37765700Y-77583802D01*
X37765698Y-77583803D01*
X37765695Y-77583806D01*
X37603806Y-77745695D01*
X37603803Y-77745698D01*
X37603802Y-77745700D01*
X37564106Y-77802392D01*
X37472476Y-77933252D01*
X37472475Y-77933254D01*
X37375718Y-78140750D01*
X37375714Y-78140761D01*
X37316457Y-78361910D01*
X37316456Y-78361918D01*
X37296502Y-78589998D01*
X37296502Y-78590001D01*
X37316456Y-78818081D01*
X37316457Y-78818089D01*
X37375714Y-79039238D01*
X37375718Y-79039249D01*
X37452382Y-79203655D01*
X37472477Y-79246749D01*
X37603802Y-79434300D01*
X37765700Y-79596198D01*
X37953251Y-79727523D01*
X38044582Y-79770111D01*
X38160750Y-79824281D01*
X38160752Y-79824281D01*
X38160757Y-79824284D01*
X38381913Y-79883543D01*
X38526835Y-79896222D01*
X38609998Y-79903498D01*
X38610000Y-79903498D01*
X38610002Y-79903498D01*
X38676740Y-79897659D01*
X38838087Y-79883543D01*
X39059243Y-79824284D01*
X39266749Y-79727523D01*
X39454300Y-79596198D01*
X39616198Y-79434300D01*
X39747523Y-79246749D01*
X39767617Y-79203655D01*
X39813790Y-79151215D01*
X39880983Y-79132063D01*
X39947864Y-79152278D01*
X39992382Y-79203655D01*
X40012477Y-79246749D01*
X40143802Y-79434300D01*
X40143805Y-79434304D01*
X40143806Y-79434304D01*
X40251667Y-79542165D01*
X40285152Y-79603488D01*
X40280168Y-79673180D01*
X40251667Y-79717527D01*
X37051379Y-82917814D01*
X37039020Y-82927718D01*
X37039193Y-82927927D01*
X37033183Y-82932899D01*
X36985216Y-82983978D01*
X36964072Y-83005122D01*
X36964057Y-83005139D01*
X36959731Y-83010714D01*
X36955947Y-83015144D01*
X36923619Y-83049571D01*
X36923612Y-83049581D01*
X36913779Y-83067467D01*
X36903103Y-83083720D01*
X36890586Y-83099857D01*
X36890585Y-83099859D01*
X36871825Y-83143210D01*
X36869255Y-83148456D01*
X36846503Y-83189841D01*
X36846503Y-83189842D01*
X36841425Y-83209620D01*
X36835125Y-83228022D01*
X36827018Y-83246757D01*
X36819631Y-83293395D01*
X36818446Y-83299116D01*
X36806700Y-83344865D01*
X36806700Y-83365284D01*
X36805173Y-83384683D01*
X36801980Y-83404841D01*
X36801980Y-83404842D01*
X35103300Y-83404842D01*
X35103300Y-52525000D01*
X36861425Y-52525000D01*
X36881715Y-52938003D01*
X36881715Y-52938008D01*
X36881716Y-52938013D01*
X36942389Y-53347034D01*
X37042863Y-53748146D01*
X37182156Y-54137445D01*
X37182164Y-54137465D01*
X37358959Y-54511266D01*
X37465249Y-54688601D01*
X37571538Y-54865934D01*
X37817866Y-55198069D01*
X38095552Y-55504447D01*
X38264670Y-55657727D01*
X38401936Y-55782138D01*
X38734063Y-56028460D01*
X39088734Y-56241041D01*
X39462535Y-56417836D01*
X39462549Y-56417841D01*
X39462554Y-56417843D01*
X39757923Y-56523527D01*
X39851864Y-56557140D01*
X40252972Y-56657612D01*
X40661997Y-56718285D01*
X41075000Y-56738575D01*
X41488003Y-56718285D01*
X41897028Y-56657612D01*
X42298136Y-56557140D01*
X42687465Y-56417836D01*
X43061266Y-56241041D01*
X43415937Y-56028460D01*
X43748064Y-55782138D01*
X44054447Y-55504447D01*
X44332138Y-55198064D01*
X44578460Y-54865937D01*
X44791041Y-54511266D01*
X44967836Y-54137465D01*
X45107140Y-53748136D01*
X45207612Y-53347028D01*
X45268285Y-52938003D01*
X45288575Y-52525000D01*
X45268285Y-52111997D01*
X45207612Y-51702972D01*
X45107140Y-51301864D01*
X45073527Y-51207923D01*
X44967843Y-50912554D01*
X44967841Y-50912549D01*
X44967836Y-50912535D01*
X44791041Y-50538734D01*
X44578460Y-50184063D01*
X44332138Y-49851936D01*
X44332133Y-49851930D01*
X44054447Y-49545552D01*
X43748069Y-49267866D01*
X43554104Y-49124012D01*
X43415937Y-49021540D01*
X43061266Y-48808959D01*
X42687465Y-48632164D01*
X42687445Y-48632156D01*
X42298146Y-48492863D01*
X42298140Y-48492861D01*
X42298136Y-48492860D01*
X42099153Y-48443017D01*
X41897034Y-48392389D01*
X41897029Y-48392388D01*
X41897028Y-48392388D01*
X41821215Y-48381142D01*
X41488013Y-48331716D01*
X41488008Y-48331715D01*
X41488003Y-48331715D01*
X41075000Y-48311425D01*
X40661997Y-48331715D01*
X40661992Y-48331715D01*
X40661986Y-48331716D01*
X40252965Y-48392389D01*
X39950177Y-48468233D01*
X39851864Y-48492860D01*
X39851861Y-48492860D01*
X39851853Y-48492863D01*
X39462554Y-48632156D01*
X39462534Y-48632164D01*
X39088730Y-48808961D01*
X38734065Y-49021538D01*
X38401930Y-49267866D01*
X38095552Y-49545552D01*
X37817866Y-49851930D01*
X37571538Y-50184065D01*
X37358961Y-50538730D01*
X37182164Y-50912534D01*
X37182156Y-50912554D01*
X37042863Y-51301853D01*
X36942389Y-51702965D01*
X36881716Y-52111986D01*
X36881715Y-52111992D01*
X36881715Y-52111997D01*
X36861425Y-52525000D01*
X35103300Y-52525000D01*
X35103300Y-46655091D01*
X35122985Y-46588052D01*
X35175789Y-46542297D01*
X35227300Y-46531091D01*
X42216413Y-46531091D01*
X42283452Y-46550776D01*
G37*
%TD.AperFunction*%
%TD*%
M02*
