%TF.GenerationSoftware,KiCad,Pcbnew,7.0.7*%
%TF.CreationDate,2023-11-28T10:30:48+00:00*%
%TF.ProjectId,Lynx-PS2,4c796e78-2d50-4533-922e-6b696361645f,rev?*%
%TF.SameCoordinates,Original*%
%TF.FileFunction,Drillmap*%
%TF.FilePolarity,Positive*%
%FSLAX45Y45*%
G04 Gerber Fmt 4.5, Leading zero omitted, Abs format (unit mm)*
G04 Created by KiCad (PCBNEW 7.0.7) date 2023-11-28 10:30:48*
%MOMM*%
%LPD*%
G01*
G04 APERTURE LIST*
%ADD10C,0.100000*%
%ADD11C,0.200000*%
%ADD12C,0.040000*%
%ADD13C,0.070000*%
%ADD14C,0.080000*%
%ADD15C,0.090000*%
%ADD16C,0.370000*%
G04 APERTURE END LIST*
D10*
X3510280Y-12298680D02*
X11094720Y-12298680D01*
X3510280Y-4653059D02*
X3510280Y-12298680D01*
X4226564Y-4653055D02*
G75*
G03*
X11095000Y-7321542I6745628J7189017D01*
G01*
X4226560Y-4653059D02*
X3510280Y-4653059D01*
X11094720Y-12298680D02*
X11095000Y-7321542D01*
D11*
D12*
X4507010Y-10409500D02*
X4547010Y-10449500D01*
X4547010Y-10409500D02*
X4507010Y-10449500D01*
X4648600Y-8004460D02*
X4688600Y-8044460D01*
X4688600Y-8004460D02*
X4648600Y-8044460D01*
X4730480Y-8089410D02*
X4770480Y-8129410D01*
X4770480Y-8089410D02*
X4730480Y-8129410D01*
X4871140Y-8024980D02*
X4911140Y-8064980D01*
X4911140Y-8024980D02*
X4871140Y-8064980D01*
X5108610Y-8290730D02*
X5148610Y-8330730D01*
X5148610Y-8290730D02*
X5108610Y-8330730D01*
X5486430Y-7944750D02*
X5526430Y-7984750D01*
X5526430Y-7944750D02*
X5486430Y-7984750D01*
X5488580Y-11063020D02*
X5528580Y-11103020D01*
X5528580Y-11063020D02*
X5488580Y-11103020D01*
X5847110Y-10778780D02*
X5887110Y-10818780D01*
X5887110Y-10778780D02*
X5847110Y-10818780D01*
X5945200Y-10616110D02*
X5985200Y-10656110D01*
X5985200Y-10616110D02*
X5945200Y-10656110D01*
X6260055Y-9508535D02*
X6300055Y-9548535D01*
X6300055Y-9508535D02*
X6260055Y-9548535D01*
X6866700Y-10603640D02*
X6906700Y-10643640D01*
X6906700Y-10603640D02*
X6866700Y-10643640D01*
X7212280Y-10221430D02*
X7252280Y-10261430D01*
X7252280Y-10221430D02*
X7212280Y-10261430D01*
X7386210Y-10913240D02*
X7426210Y-10953240D01*
X7426210Y-10913240D02*
X7386210Y-10953240D01*
X7488960Y-9480580D02*
X7528960Y-9520580D01*
X7528960Y-9480580D02*
X7488960Y-9520580D01*
X8998650Y-9725300D02*
X9038650Y-9765300D01*
X9038650Y-9725300D02*
X8998650Y-9765300D01*
X9157030Y-9510960D02*
X9197030Y-9550960D01*
X9197030Y-9510960D02*
X9157030Y-9550960D01*
X9246230Y-10623500D02*
X9286230Y-10663500D01*
X9286230Y-10623500D02*
X9246230Y-10663500D01*
X9389930Y-9703830D02*
X9429930Y-9743830D01*
X9429930Y-9703830D02*
X9389930Y-9743830D01*
X9450620Y-7855750D02*
X9490620Y-7895750D01*
X9490620Y-7855750D02*
X9450620Y-7895750D01*
X10593900Y-10816950D02*
X10633900Y-10856950D01*
X10633900Y-10816950D02*
X10593900Y-10856950D01*
D13*
X6949000Y-10020000D02*
G75*
G03*
X6949000Y-10020000I-35000J0D01*
G01*
X6949000Y-10237000D02*
G75*
G03*
X6949000Y-10237000I-35000J0D01*
G01*
X7711000Y-10020000D02*
G75*
G03*
X7711000Y-10020000I-35000J0D01*
G01*
X7711000Y-10237000D02*
G75*
G03*
X7711000Y-10237000I-35000J0D01*
G01*
X8772400Y-9906400D02*
G75*
G03*
X8772400Y-9906400I-35000J0D01*
G01*
X8772400Y-10121400D02*
G75*
G03*
X8772400Y-10121400I-35000J0D01*
G01*
X9534400Y-9906400D02*
G75*
G03*
X9534400Y-9906400I-35000J0D01*
G01*
X9534400Y-10121400D02*
G75*
G03*
X9534400Y-10121400I-35000J0D01*
G01*
X9700000Y-8702000D02*
G75*
G03*
X9700000Y-8702000I-35000J0D01*
G01*
X9700000Y-8918000D02*
G75*
G03*
X9700000Y-8918000I-35000J0D01*
G01*
X10462000Y-8702000D02*
G75*
G03*
X10462000Y-8702000I-35000J0D01*
G01*
X10462000Y-8918000D02*
G75*
G03*
X10462000Y-8918000I-35000J0D01*
G01*
D14*
X3861000Y-7819000D02*
X3861000Y-7899000D01*
X3821000Y-7859000D02*
X3901000Y-7859000D01*
X3861000Y-9343000D02*
X3861000Y-9423000D01*
X3821000Y-9383000D02*
X3901000Y-9383000D01*
X3876000Y-7497000D02*
X3876000Y-7577000D01*
X3836000Y-7537000D02*
X3916000Y-7537000D01*
X4115000Y-7819000D02*
X4115000Y-7899000D01*
X4075000Y-7859000D02*
X4155000Y-7859000D01*
X4115000Y-9343000D02*
X4115000Y-9423000D01*
X4075000Y-9383000D02*
X4155000Y-9383000D01*
X4130000Y-7497000D02*
X4130000Y-7577000D01*
X4090000Y-7537000D02*
X4170000Y-7537000D01*
X4369000Y-7819000D02*
X4369000Y-7899000D01*
X4329000Y-7859000D02*
X4409000Y-7859000D01*
X4369000Y-9343000D02*
X4369000Y-9423000D01*
X4329000Y-9383000D02*
X4409000Y-9383000D01*
X4384000Y-7497000D02*
X4384000Y-7577000D01*
X4344000Y-7537000D02*
X4424000Y-7537000D01*
X4387000Y-10317000D02*
X4387000Y-10397000D01*
X4347000Y-10357000D02*
X4427000Y-10357000D01*
X4387000Y-10527000D02*
X4387000Y-10607000D01*
X4347000Y-10567000D02*
X4427000Y-10567000D01*
X4387000Y-10787000D02*
X4387000Y-10867000D01*
X4347000Y-10827000D02*
X4427000Y-10827000D01*
X4387000Y-10997000D02*
X4387000Y-11077000D01*
X4347000Y-11037000D02*
X4427000Y-11037000D01*
X4623000Y-7819000D02*
X4623000Y-7899000D01*
X4583000Y-7859000D02*
X4663000Y-7859000D01*
X4623000Y-9343000D02*
X4623000Y-9423000D01*
X4583000Y-9383000D02*
X4663000Y-9383000D01*
X4638000Y-7497000D02*
X4638000Y-7577000D01*
X4598000Y-7537000D02*
X4678000Y-7537000D01*
X4667000Y-10317000D02*
X4667000Y-10397000D01*
X4627000Y-10357000D02*
X4707000Y-10357000D01*
X4667000Y-10997000D02*
X4667000Y-11077000D01*
X4627000Y-11037000D02*
X4707000Y-11037000D01*
X4877000Y-7819000D02*
X4877000Y-7899000D01*
X4837000Y-7859000D02*
X4917000Y-7859000D01*
X4877000Y-9343000D02*
X4877000Y-9423000D01*
X4837000Y-9383000D02*
X4917000Y-9383000D01*
X4892000Y-7497000D02*
X4892000Y-7577000D01*
X4852000Y-7537000D02*
X4932000Y-7537000D01*
X5131000Y-7819000D02*
X5131000Y-7899000D01*
X5091000Y-7859000D02*
X5171000Y-7859000D01*
X5131000Y-9343000D02*
X5131000Y-9423000D01*
X5091000Y-9383000D02*
X5171000Y-9383000D01*
X5146000Y-7497000D02*
X5146000Y-7577000D01*
X5106000Y-7537000D02*
X5186000Y-7537000D01*
X5217000Y-10430000D02*
X5217000Y-10510000D01*
X5177000Y-10470000D02*
X5257000Y-10470000D01*
X5217000Y-11192000D02*
X5217000Y-11272000D01*
X5177000Y-11232000D02*
X5257000Y-11232000D01*
X5385000Y-7819000D02*
X5385000Y-7899000D01*
X5345000Y-7859000D02*
X5425000Y-7859000D01*
X5385000Y-9343000D02*
X5385000Y-9423000D01*
X5345000Y-9383000D02*
X5425000Y-9383000D01*
X5400000Y-7497000D02*
X5400000Y-7577000D01*
X5360000Y-7537000D02*
X5440000Y-7537000D01*
X5471000Y-10430000D02*
X5471000Y-10510000D01*
X5431000Y-10470000D02*
X5511000Y-10470000D01*
X5471000Y-11192000D02*
X5471000Y-11272000D01*
X5431000Y-11232000D02*
X5511000Y-11232000D01*
X5544000Y-10190000D02*
X5544000Y-10270000D01*
X5504000Y-10230000D02*
X5584000Y-10230000D01*
X5639000Y-7819000D02*
X5639000Y-7899000D01*
X5599000Y-7859000D02*
X5679000Y-7859000D01*
X5639000Y-9343000D02*
X5639000Y-9423000D01*
X5599000Y-9383000D02*
X5679000Y-9383000D01*
X5654000Y-7497000D02*
X5654000Y-7577000D01*
X5614000Y-7537000D02*
X5694000Y-7537000D01*
X5664000Y-9792000D02*
X5664000Y-9872000D01*
X5624000Y-9832000D02*
X5704000Y-9832000D01*
X5725000Y-10430000D02*
X5725000Y-10510000D01*
X5685000Y-10470000D02*
X5765000Y-10470000D01*
X5725000Y-11192000D02*
X5725000Y-11272000D01*
X5685000Y-11232000D02*
X5765000Y-11232000D01*
X5794000Y-10190000D02*
X5794000Y-10270000D01*
X5754000Y-10230000D02*
X5834000Y-10230000D01*
X5893000Y-7819000D02*
X5893000Y-7899000D01*
X5853000Y-7859000D02*
X5933000Y-7859000D01*
X5893000Y-9343000D02*
X5893000Y-9423000D01*
X5853000Y-9383000D02*
X5933000Y-9383000D01*
X5908000Y-7497000D02*
X5908000Y-7577000D01*
X5868000Y-7537000D02*
X5948000Y-7537000D01*
X5979000Y-10430000D02*
X5979000Y-10510000D01*
X5939000Y-10470000D02*
X6019000Y-10470000D01*
X5979000Y-11192000D02*
X5979000Y-11272000D01*
X5939000Y-11232000D02*
X6019000Y-11232000D01*
X6016000Y-10190000D02*
X6016000Y-10270000D01*
X5976000Y-10230000D02*
X6056000Y-10230000D01*
X6147000Y-7819000D02*
X6147000Y-7899000D01*
X6107000Y-7859000D02*
X6187000Y-7859000D01*
X6147000Y-9343000D02*
X6147000Y-9423000D01*
X6107000Y-9383000D02*
X6187000Y-9383000D01*
X6152000Y-9792000D02*
X6152000Y-9872000D01*
X6112000Y-9832000D02*
X6192000Y-9832000D01*
X6233000Y-10430000D02*
X6233000Y-10510000D01*
X6193000Y-10470000D02*
X6273000Y-10470000D01*
X6233000Y-11192000D02*
X6233000Y-11272000D01*
X6193000Y-11232000D02*
X6273000Y-11232000D01*
X6266000Y-10190000D02*
X6266000Y-10270000D01*
X6226000Y-10230000D02*
X6306000Y-10230000D01*
X6401000Y-7819000D02*
X6401000Y-7899000D01*
X6361000Y-7859000D02*
X6441000Y-7859000D01*
X6401000Y-9343000D02*
X6401000Y-9423000D01*
X6361000Y-9383000D02*
X6441000Y-9383000D01*
X6487000Y-10430000D02*
X6487000Y-10510000D01*
X6447000Y-10470000D02*
X6527000Y-10470000D01*
X6487000Y-11192000D02*
X6487000Y-11272000D01*
X6447000Y-11232000D02*
X6527000Y-11232000D01*
X6655000Y-7819000D02*
X6655000Y-7899000D01*
X6615000Y-7859000D02*
X6695000Y-7859000D01*
X6655000Y-9343000D02*
X6655000Y-9423000D01*
X6615000Y-9383000D02*
X6695000Y-9383000D01*
X6741000Y-10430000D02*
X6741000Y-10510000D01*
X6701000Y-10470000D02*
X6781000Y-10470000D01*
X6741000Y-11192000D02*
X6741000Y-11272000D01*
X6701000Y-11232000D02*
X6781000Y-11232000D01*
X6847000Y-9683000D02*
X6847000Y-9763000D01*
X6807000Y-9723000D02*
X6887000Y-9723000D01*
X6909000Y-7819000D02*
X6909000Y-7899000D01*
X6869000Y-7859000D02*
X6949000Y-7859000D01*
X6909000Y-9343000D02*
X6909000Y-9423000D01*
X6869000Y-9383000D02*
X6949000Y-9383000D01*
X6995000Y-10430000D02*
X6995000Y-10510000D01*
X6955000Y-10470000D02*
X7035000Y-10470000D01*
X6995000Y-11192000D02*
X6995000Y-11272000D01*
X6955000Y-11232000D02*
X7035000Y-11232000D01*
X7163000Y-7819000D02*
X7163000Y-7899000D01*
X7123000Y-7859000D02*
X7203000Y-7859000D01*
X7163000Y-9343000D02*
X7163000Y-9423000D01*
X7123000Y-9383000D02*
X7203000Y-9383000D01*
X7249000Y-10430000D02*
X7249000Y-10510000D01*
X7209000Y-10470000D02*
X7289000Y-10470000D01*
X7249000Y-11192000D02*
X7249000Y-11272000D01*
X7209000Y-11232000D02*
X7289000Y-11232000D01*
X7347000Y-9683000D02*
X7347000Y-9763000D01*
X7307000Y-9723000D02*
X7387000Y-9723000D01*
X7417000Y-7819000D02*
X7417000Y-7899000D01*
X7377000Y-7859000D02*
X7457000Y-7859000D01*
X7417000Y-9343000D02*
X7417000Y-9423000D01*
X7377000Y-9383000D02*
X7457000Y-9383000D01*
X7503000Y-10430000D02*
X7503000Y-10510000D01*
X7463000Y-10470000D02*
X7543000Y-10470000D01*
X7503000Y-11192000D02*
X7503000Y-11272000D01*
X7463000Y-11232000D02*
X7543000Y-11232000D01*
X7671000Y-7819000D02*
X7671000Y-7899000D01*
X7631000Y-7859000D02*
X7711000Y-7859000D01*
X7671000Y-9343000D02*
X7671000Y-9423000D01*
X7631000Y-9383000D02*
X7711000Y-9383000D01*
X7675000Y-9685000D02*
X7675000Y-9765000D01*
X7635000Y-9725000D02*
X7715000Y-9725000D01*
X7757000Y-10430000D02*
X7757000Y-10510000D01*
X7717000Y-10470000D02*
X7797000Y-10470000D01*
X7757000Y-11192000D02*
X7757000Y-11272000D01*
X7717000Y-11232000D02*
X7797000Y-11232000D01*
X7925000Y-7819000D02*
X7925000Y-7899000D01*
X7885000Y-7859000D02*
X7965000Y-7859000D01*
X7925000Y-9343000D02*
X7925000Y-9423000D01*
X7885000Y-9383000D02*
X7965000Y-9383000D01*
X8011000Y-10430000D02*
X8011000Y-10510000D01*
X7971000Y-10470000D02*
X8051000Y-10470000D01*
X8011000Y-11192000D02*
X8011000Y-11272000D01*
X7971000Y-11232000D02*
X8051000Y-11232000D01*
X8175000Y-9685000D02*
X8175000Y-9765000D01*
X8135000Y-9725000D02*
X8215000Y-9725000D01*
X8179000Y-7819000D02*
X8179000Y-7899000D01*
X8139000Y-7859000D02*
X8219000Y-7859000D01*
X8179000Y-9343000D02*
X8179000Y-9423000D01*
X8139000Y-9383000D02*
X8219000Y-9383000D01*
X8265000Y-10430000D02*
X8265000Y-10510000D01*
X8225000Y-10470000D02*
X8305000Y-10470000D01*
X8265000Y-11192000D02*
X8265000Y-11272000D01*
X8225000Y-11232000D02*
X8305000Y-11232000D01*
X8433000Y-7819000D02*
X8433000Y-7899000D01*
X8393000Y-7859000D02*
X8473000Y-7859000D01*
X8433000Y-9343000D02*
X8433000Y-9423000D01*
X8393000Y-9383000D02*
X8473000Y-9383000D01*
X8519000Y-10430000D02*
X8519000Y-10510000D01*
X8479000Y-10470000D02*
X8559000Y-10470000D01*
X8519000Y-11192000D02*
X8519000Y-11272000D01*
X8479000Y-11232000D02*
X8559000Y-11232000D01*
X8687000Y-7819000D02*
X8687000Y-7899000D01*
X8647000Y-7859000D02*
X8727000Y-7859000D01*
X8687000Y-9343000D02*
X8687000Y-9423000D01*
X8647000Y-9383000D02*
X8727000Y-9383000D01*
X8952500Y-10430000D02*
X8952500Y-10510000D01*
X8912500Y-10470000D02*
X8992500Y-10470000D01*
X8952500Y-11192000D02*
X8952500Y-11272000D01*
X8912500Y-11232000D02*
X8992500Y-11232000D01*
X9129000Y-9240000D02*
X9129000Y-9320000D01*
X9089000Y-9280000D02*
X9169000Y-9280000D01*
X9206500Y-10430000D02*
X9206500Y-10510000D01*
X9166500Y-10470000D02*
X9246500Y-10470000D01*
X9206500Y-11192000D02*
X9206500Y-11272000D01*
X9166500Y-11232000D02*
X9246500Y-11232000D01*
X9329000Y-9240000D02*
X9329000Y-9320000D01*
X9289000Y-9280000D02*
X9369000Y-9280000D01*
X9460500Y-10430000D02*
X9460500Y-10510000D01*
X9420500Y-10470000D02*
X9500500Y-10470000D01*
X9460500Y-11192000D02*
X9460500Y-11272000D01*
X9420500Y-11232000D02*
X9500500Y-11232000D01*
X9714500Y-10430000D02*
X9714500Y-10510000D01*
X9674500Y-10470000D02*
X9754500Y-10470000D01*
X9714500Y-11192000D02*
X9714500Y-11272000D01*
X9674500Y-11232000D02*
X9754500Y-11232000D01*
X9968500Y-10430000D02*
X9968500Y-10510000D01*
X9928500Y-10470000D02*
X10008500Y-10470000D01*
X9968500Y-11192000D02*
X9968500Y-11272000D01*
X9928500Y-11232000D02*
X10008500Y-11232000D01*
X10172700Y-9942200D02*
X10172700Y-10022200D01*
X10132700Y-9982200D02*
X10212700Y-9982200D01*
X10222500Y-10430000D02*
X10222500Y-10510000D01*
X10182500Y-10470000D02*
X10262500Y-10470000D01*
X10222500Y-11192000D02*
X10222500Y-11272000D01*
X10182500Y-11232000D02*
X10262500Y-11232000D01*
X10426700Y-9942200D02*
X10426700Y-10022200D01*
X10386700Y-9982200D02*
X10466700Y-9982200D01*
X10476500Y-10430000D02*
X10476500Y-10510000D01*
X10436500Y-10470000D02*
X10516500Y-10470000D01*
X10476500Y-11192000D02*
X10476500Y-11272000D01*
X10436500Y-11232000D02*
X10516500Y-11232000D01*
X10680700Y-9942200D02*
X10680700Y-10022200D01*
X10640700Y-9982200D02*
X10720700Y-9982200D01*
X10730500Y-10430000D02*
X10730500Y-10510000D01*
X10690500Y-10470000D02*
X10770500Y-10470000D01*
X10730500Y-11192000D02*
X10730500Y-11272000D01*
X10690500Y-11232000D02*
X10770500Y-11232000D01*
D15*
X9613320Y-8094820D02*
X9613320Y-8031180D01*
X9549680Y-8031180D01*
X9549680Y-8094820D01*
X9613320Y-8094820D01*
X9867320Y-8094820D02*
X9867320Y-8031180D01*
X9803680Y-8031180D01*
X9803680Y-8094820D01*
X9867320Y-8094820D01*
X10195820Y-8094820D02*
X10195820Y-8031180D01*
X10132180Y-8031180D01*
X10132180Y-8094820D01*
X10195820Y-8094820D01*
X10449820Y-8094820D02*
X10449820Y-8031180D01*
X10386180Y-8031180D01*
X10386180Y-8094820D01*
X10449820Y-8094820D01*
D10*
X4022000Y-10747000D02*
X4072000Y-10697000D01*
X4022000Y-10647000D01*
X3972000Y-10697000D01*
X4022000Y-10747000D01*
D11*
X4072000Y-10797000D02*
X4072000Y-10597000D01*
X4072000Y-10597000D02*
G75*
G03*
X3972000Y-10597000I-50000J0D01*
G01*
X3972000Y-10597000D02*
X3972000Y-10797000D01*
X3972000Y-10797000D02*
G75*
G03*
X4072000Y-10797000I50000J0D01*
G01*
D10*
X4102000Y-10062000D02*
X4152000Y-10012000D01*
X4102000Y-9962000D01*
X4052000Y-10012000D01*
X4102000Y-10062000D01*
D11*
X4027000Y-10062000D02*
X4177000Y-10062000D01*
X4177000Y-10062000D02*
G75*
G03*
X4177000Y-9962000I0J50000D01*
G01*
X4177000Y-9962000D02*
X4027000Y-9962000D01*
X4027000Y-9962000D02*
G75*
G03*
X4027000Y-10062000I0J-50000D01*
G01*
D10*
X4102000Y-11432000D02*
X4152000Y-11382000D01*
X4102000Y-11332000D01*
X4052000Y-11382000D01*
X4102000Y-11432000D01*
D11*
X4027000Y-11432000D02*
X4177000Y-11432000D01*
X4177000Y-11432000D02*
G75*
G03*
X4177000Y-11332000I0J50000D01*
G01*
X4177000Y-11332000D02*
X4027000Y-11332000D01*
X4027000Y-11332000D02*
G75*
G03*
X4027000Y-11432000I0J-50000D01*
G01*
D10*
X5182000Y-11656000D02*
X5232000Y-11606000D01*
X5182000Y-11556000D01*
X5132000Y-11606000D01*
X5182000Y-11656000D01*
X5182000Y-11910000D02*
X5232000Y-11860000D01*
X5182000Y-11810000D01*
X5132000Y-11860000D01*
X5182000Y-11910000D01*
X5436000Y-11656000D02*
X5486000Y-11606000D01*
X5436000Y-11556000D01*
X5386000Y-11606000D01*
X5436000Y-11656000D01*
X5436000Y-11910000D02*
X5486000Y-11860000D01*
X5436000Y-11810000D01*
X5386000Y-11860000D01*
X5436000Y-11910000D01*
X5690000Y-11656000D02*
X5740000Y-11606000D01*
X5690000Y-11556000D01*
X5640000Y-11606000D01*
X5690000Y-11656000D01*
X5690000Y-11910000D02*
X5740000Y-11860000D01*
X5690000Y-11810000D01*
X5640000Y-11860000D01*
X5690000Y-11910000D01*
X6251500Y-11655000D02*
X6301500Y-11605000D01*
X6251500Y-11555000D01*
X6201500Y-11605000D01*
X6251500Y-11655000D01*
X6505500Y-11655000D02*
X6555500Y-11605000D01*
X6505500Y-11555000D01*
X6455500Y-11605000D01*
X6505500Y-11655000D01*
X6896100Y-11655000D02*
X6946100Y-11605000D01*
X6896100Y-11555000D01*
X6846100Y-11605000D01*
X6896100Y-11655000D01*
X7150100Y-11655000D02*
X7200100Y-11605000D01*
X7150100Y-11555000D01*
X7100100Y-11605000D01*
X7150100Y-11655000D01*
X7404100Y-11655000D02*
X7454100Y-11605000D01*
X7404100Y-11555000D01*
X7354100Y-11605000D01*
X7404100Y-11655000D01*
X7658100Y-11655000D02*
X7708100Y-11605000D01*
X7658100Y-11555000D01*
X7608100Y-11605000D01*
X7658100Y-11655000D01*
X7912100Y-11655000D02*
X7962100Y-11605000D01*
X7912100Y-11555000D01*
X7862100Y-11605000D01*
X7912100Y-11655000D01*
X8166100Y-11655000D02*
X8216100Y-11605000D01*
X8166100Y-11555000D01*
X8116100Y-11605000D01*
X8166100Y-11655000D01*
X8420100Y-11655000D02*
X8470100Y-11605000D01*
X8420100Y-11555000D01*
X8370100Y-11605000D01*
X8420100Y-11655000D01*
X8674100Y-11655000D02*
X8724100Y-11605000D01*
X8674100Y-11555000D01*
X8624100Y-11605000D01*
X8674100Y-11655000D01*
X8928100Y-11655000D02*
X8978100Y-11605000D01*
X8928100Y-11555000D01*
X8878100Y-11605000D01*
X8928100Y-11655000D01*
X9182100Y-11655000D02*
X9232100Y-11605000D01*
X9182100Y-11555000D01*
X9132100Y-11605000D01*
X9182100Y-11655000D01*
X9436100Y-11655000D02*
X9486100Y-11605000D01*
X9436100Y-11555000D01*
X9386100Y-11605000D01*
X9436100Y-11655000D01*
X9690100Y-11655000D02*
X9740100Y-11605000D01*
X9690100Y-11555000D01*
X9640100Y-11605000D01*
X9690100Y-11655000D01*
X9944100Y-11655000D02*
X9994100Y-11605000D01*
X9944100Y-11555000D01*
X9894100Y-11605000D01*
X9944100Y-11655000D01*
X10198100Y-11655000D02*
X10248100Y-11605000D01*
X10198100Y-11555000D01*
X10148100Y-11605000D01*
X10198100Y-11655000D01*
X10452100Y-11655000D02*
X10502100Y-11605000D01*
X10452100Y-11555000D01*
X10402100Y-11605000D01*
X10452100Y-11655000D01*
D16*
X3922500Y-5067500D02*
X4292500Y-5437500D01*
X4292500Y-5067500D02*
X3922500Y-5437500D01*
X4292500Y-5252500D02*
G75*
G03*
X4292500Y-5252500I-185000J0D01*
G01*
D11*
X3766057Y-12615164D02*
X3766057Y-12415164D01*
X3766057Y-12415164D02*
X3813676Y-12415164D01*
X3813676Y-12415164D02*
X3842247Y-12424688D01*
X3842247Y-12424688D02*
X3861295Y-12443735D01*
X3861295Y-12443735D02*
X3870819Y-12462783D01*
X3870819Y-12462783D02*
X3880342Y-12500878D01*
X3880342Y-12500878D02*
X3880342Y-12529449D01*
X3880342Y-12529449D02*
X3870819Y-12567545D01*
X3870819Y-12567545D02*
X3861295Y-12586592D01*
X3861295Y-12586592D02*
X3842247Y-12605640D01*
X3842247Y-12605640D02*
X3813676Y-12615164D01*
X3813676Y-12615164D02*
X3766057Y-12615164D01*
X3966057Y-12615164D02*
X3966057Y-12481830D01*
X3966057Y-12519926D02*
X3975581Y-12500878D01*
X3975581Y-12500878D02*
X3985104Y-12491354D01*
X3985104Y-12491354D02*
X4004152Y-12481830D01*
X4004152Y-12481830D02*
X4023200Y-12481830D01*
X4089866Y-12615164D02*
X4089866Y-12481830D01*
X4089866Y-12415164D02*
X4080342Y-12424688D01*
X4080342Y-12424688D02*
X4089866Y-12434211D01*
X4089866Y-12434211D02*
X4099390Y-12424688D01*
X4099390Y-12424688D02*
X4089866Y-12415164D01*
X4089866Y-12415164D02*
X4089866Y-12434211D01*
X4213676Y-12615164D02*
X4194628Y-12605640D01*
X4194628Y-12605640D02*
X4185104Y-12586592D01*
X4185104Y-12586592D02*
X4185104Y-12415164D01*
X4318438Y-12615164D02*
X4299390Y-12605640D01*
X4299390Y-12605640D02*
X4289866Y-12586592D01*
X4289866Y-12586592D02*
X4289866Y-12415164D01*
X4547009Y-12615164D02*
X4547009Y-12415164D01*
X4547009Y-12415164D02*
X4613676Y-12558021D01*
X4613676Y-12558021D02*
X4680343Y-12415164D01*
X4680343Y-12415164D02*
X4680343Y-12615164D01*
X4861295Y-12615164D02*
X4861295Y-12510402D01*
X4861295Y-12510402D02*
X4851771Y-12491354D01*
X4851771Y-12491354D02*
X4832724Y-12481830D01*
X4832724Y-12481830D02*
X4794628Y-12481830D01*
X4794628Y-12481830D02*
X4775581Y-12491354D01*
X4861295Y-12605640D02*
X4842247Y-12615164D01*
X4842247Y-12615164D02*
X4794628Y-12615164D01*
X4794628Y-12615164D02*
X4775581Y-12605640D01*
X4775581Y-12605640D02*
X4766057Y-12586592D01*
X4766057Y-12586592D02*
X4766057Y-12567545D01*
X4766057Y-12567545D02*
X4775581Y-12548497D01*
X4775581Y-12548497D02*
X4794628Y-12538973D01*
X4794628Y-12538973D02*
X4842247Y-12538973D01*
X4842247Y-12538973D02*
X4861295Y-12529449D01*
X4956533Y-12481830D02*
X4956533Y-12681830D01*
X4956533Y-12491354D02*
X4975581Y-12481830D01*
X4975581Y-12481830D02*
X5013676Y-12481830D01*
X5013676Y-12481830D02*
X5032724Y-12491354D01*
X5032724Y-12491354D02*
X5042247Y-12500878D01*
X5042247Y-12500878D02*
X5051771Y-12519926D01*
X5051771Y-12519926D02*
X5051771Y-12577068D01*
X5051771Y-12577068D02*
X5042247Y-12596116D01*
X5042247Y-12596116D02*
X5032724Y-12605640D01*
X5032724Y-12605640D02*
X5013676Y-12615164D01*
X5013676Y-12615164D02*
X4975581Y-12615164D01*
X4975581Y-12615164D02*
X4956533Y-12605640D01*
X5137485Y-12596116D02*
X5147009Y-12605640D01*
X5147009Y-12605640D02*
X5137485Y-12615164D01*
X5137485Y-12615164D02*
X5127962Y-12605640D01*
X5127962Y-12605640D02*
X5137485Y-12596116D01*
X5137485Y-12596116D02*
X5137485Y-12615164D01*
X5137485Y-12491354D02*
X5147009Y-12500878D01*
X5147009Y-12500878D02*
X5137485Y-12510402D01*
X5137485Y-12510402D02*
X5127962Y-12500878D01*
X5127962Y-12500878D02*
X5137485Y-12491354D01*
X5137485Y-12491354D02*
X5137485Y-12510402D01*
D12*
X3465280Y-12923680D02*
X3505280Y-12963680D01*
X3505280Y-12923680D02*
X3465280Y-12963680D01*
D11*
X3804152Y-12835164D02*
X3823200Y-12835164D01*
X3823200Y-12835164D02*
X3842247Y-12844688D01*
X3842247Y-12844688D02*
X3851771Y-12854211D01*
X3851771Y-12854211D02*
X3861295Y-12873259D01*
X3861295Y-12873259D02*
X3870819Y-12911354D01*
X3870819Y-12911354D02*
X3870819Y-12958973D01*
X3870819Y-12958973D02*
X3861295Y-12997068D01*
X3861295Y-12997068D02*
X3851771Y-13016116D01*
X3851771Y-13016116D02*
X3842247Y-13025640D01*
X3842247Y-13025640D02*
X3823200Y-13035164D01*
X3823200Y-13035164D02*
X3804152Y-13035164D01*
X3804152Y-13035164D02*
X3785104Y-13025640D01*
X3785104Y-13025640D02*
X3775581Y-13016116D01*
X3775581Y-13016116D02*
X3766057Y-12997068D01*
X3766057Y-12997068D02*
X3756533Y-12958973D01*
X3756533Y-12958973D02*
X3756533Y-12911354D01*
X3756533Y-12911354D02*
X3766057Y-12873259D01*
X3766057Y-12873259D02*
X3775581Y-12854211D01*
X3775581Y-12854211D02*
X3785104Y-12844688D01*
X3785104Y-12844688D02*
X3804152Y-12835164D01*
X3956533Y-13016116D02*
X3966057Y-13025640D01*
X3966057Y-13025640D02*
X3956533Y-13035164D01*
X3956533Y-13035164D02*
X3947009Y-13025640D01*
X3947009Y-13025640D02*
X3956533Y-13016116D01*
X3956533Y-13016116D02*
X3956533Y-13035164D01*
X4137485Y-12901830D02*
X4137485Y-13035164D01*
X4089866Y-12825640D02*
X4042247Y-12968497D01*
X4042247Y-12968497D02*
X4166057Y-12968497D01*
X4280343Y-12835164D02*
X4299390Y-12835164D01*
X4299390Y-12835164D02*
X4318438Y-12844688D01*
X4318438Y-12844688D02*
X4327962Y-12854211D01*
X4327962Y-12854211D02*
X4337485Y-12873259D01*
X4337485Y-12873259D02*
X4347009Y-12911354D01*
X4347009Y-12911354D02*
X4347009Y-12958973D01*
X4347009Y-12958973D02*
X4337485Y-12997068D01*
X4337485Y-12997068D02*
X4327962Y-13016116D01*
X4327962Y-13016116D02*
X4318438Y-13025640D01*
X4318438Y-13025640D02*
X4299390Y-13035164D01*
X4299390Y-13035164D02*
X4280343Y-13035164D01*
X4280343Y-13035164D02*
X4261295Y-13025640D01*
X4261295Y-13025640D02*
X4251771Y-13016116D01*
X4251771Y-13016116D02*
X4242247Y-12997068D01*
X4242247Y-12997068D02*
X4232724Y-12958973D01*
X4232724Y-12958973D02*
X4232724Y-12911354D01*
X4232724Y-12911354D02*
X4242247Y-12873259D01*
X4242247Y-12873259D02*
X4251771Y-12854211D01*
X4251771Y-12854211D02*
X4261295Y-12844688D01*
X4261295Y-12844688D02*
X4280343Y-12835164D01*
X4470819Y-12835164D02*
X4489866Y-12835164D01*
X4489866Y-12835164D02*
X4508914Y-12844688D01*
X4508914Y-12844688D02*
X4518438Y-12854211D01*
X4518438Y-12854211D02*
X4527962Y-12873259D01*
X4527962Y-12873259D02*
X4537485Y-12911354D01*
X4537485Y-12911354D02*
X4537485Y-12958973D01*
X4537485Y-12958973D02*
X4527962Y-12997068D01*
X4527962Y-12997068D02*
X4518438Y-13016116D01*
X4518438Y-13016116D02*
X4508914Y-13025640D01*
X4508914Y-13025640D02*
X4489866Y-13035164D01*
X4489866Y-13035164D02*
X4470819Y-13035164D01*
X4470819Y-13035164D02*
X4451771Y-13025640D01*
X4451771Y-13025640D02*
X4442247Y-13016116D01*
X4442247Y-13016116D02*
X4432724Y-12997068D01*
X4432724Y-12997068D02*
X4423200Y-12958973D01*
X4423200Y-12958973D02*
X4423200Y-12911354D01*
X4423200Y-12911354D02*
X4432724Y-12873259D01*
X4432724Y-12873259D02*
X4442247Y-12854211D01*
X4442247Y-12854211D02*
X4451771Y-12844688D01*
X4451771Y-12844688D02*
X4470819Y-12835164D01*
X4623200Y-13035164D02*
X4623200Y-12901830D01*
X4623200Y-12920878D02*
X4632724Y-12911354D01*
X4632724Y-12911354D02*
X4651771Y-12901830D01*
X4651771Y-12901830D02*
X4680343Y-12901830D01*
X4680343Y-12901830D02*
X4699390Y-12911354D01*
X4699390Y-12911354D02*
X4708914Y-12930402D01*
X4708914Y-12930402D02*
X4708914Y-13035164D01*
X4708914Y-12930402D02*
X4718438Y-12911354D01*
X4718438Y-12911354D02*
X4737485Y-12901830D01*
X4737485Y-12901830D02*
X4766057Y-12901830D01*
X4766057Y-12901830D02*
X4785105Y-12911354D01*
X4785105Y-12911354D02*
X4794628Y-12930402D01*
X4794628Y-12930402D02*
X4794628Y-13035164D01*
X4889866Y-13035164D02*
X4889866Y-12901830D01*
X4889866Y-12920878D02*
X4899390Y-12911354D01*
X4899390Y-12911354D02*
X4918438Y-12901830D01*
X4918438Y-12901830D02*
X4947009Y-12901830D01*
X4947009Y-12901830D02*
X4966057Y-12911354D01*
X4966057Y-12911354D02*
X4975581Y-12930402D01*
X4975581Y-12930402D02*
X4975581Y-13035164D01*
X4975581Y-12930402D02*
X4985105Y-12911354D01*
X4985105Y-12911354D02*
X5004152Y-12901830D01*
X5004152Y-12901830D02*
X5032724Y-12901830D01*
X5032724Y-12901830D02*
X5051771Y-12911354D01*
X5051771Y-12911354D02*
X5061295Y-12930402D01*
X5061295Y-12930402D02*
X5061295Y-13035164D01*
X5451771Y-12825640D02*
X5280343Y-13082783D01*
X5708914Y-12835164D02*
X5727962Y-12835164D01*
X5727962Y-12835164D02*
X5747009Y-12844688D01*
X5747009Y-12844688D02*
X5756533Y-12854211D01*
X5756533Y-12854211D02*
X5766057Y-12873259D01*
X5766057Y-12873259D02*
X5775581Y-12911354D01*
X5775581Y-12911354D02*
X5775581Y-12958973D01*
X5775581Y-12958973D02*
X5766057Y-12997068D01*
X5766057Y-12997068D02*
X5756533Y-13016116D01*
X5756533Y-13016116D02*
X5747009Y-13025640D01*
X5747009Y-13025640D02*
X5727962Y-13035164D01*
X5727962Y-13035164D02*
X5708914Y-13035164D01*
X5708914Y-13035164D02*
X5689866Y-13025640D01*
X5689866Y-13025640D02*
X5680343Y-13016116D01*
X5680343Y-13016116D02*
X5670819Y-12997068D01*
X5670819Y-12997068D02*
X5661295Y-12958973D01*
X5661295Y-12958973D02*
X5661295Y-12911354D01*
X5661295Y-12911354D02*
X5670819Y-12873259D01*
X5670819Y-12873259D02*
X5680343Y-12854211D01*
X5680343Y-12854211D02*
X5689866Y-12844688D01*
X5689866Y-12844688D02*
X5708914Y-12835164D01*
X5861295Y-13016116D02*
X5870819Y-13025640D01*
X5870819Y-13025640D02*
X5861295Y-13035164D01*
X5861295Y-13035164D02*
X5851771Y-13025640D01*
X5851771Y-13025640D02*
X5861295Y-13016116D01*
X5861295Y-13016116D02*
X5861295Y-13035164D01*
X5994628Y-12835164D02*
X6013676Y-12835164D01*
X6013676Y-12835164D02*
X6032724Y-12844688D01*
X6032724Y-12844688D02*
X6042247Y-12854211D01*
X6042247Y-12854211D02*
X6051771Y-12873259D01*
X6051771Y-12873259D02*
X6061295Y-12911354D01*
X6061295Y-12911354D02*
X6061295Y-12958973D01*
X6061295Y-12958973D02*
X6051771Y-12997068D01*
X6051771Y-12997068D02*
X6042247Y-13016116D01*
X6042247Y-13016116D02*
X6032724Y-13025640D01*
X6032724Y-13025640D02*
X6013676Y-13035164D01*
X6013676Y-13035164D02*
X5994628Y-13035164D01*
X5994628Y-13035164D02*
X5975581Y-13025640D01*
X5975581Y-13025640D02*
X5966057Y-13016116D01*
X5966057Y-13016116D02*
X5956533Y-12997068D01*
X5956533Y-12997068D02*
X5947009Y-12958973D01*
X5947009Y-12958973D02*
X5947009Y-12911354D01*
X5947009Y-12911354D02*
X5956533Y-12873259D01*
X5956533Y-12873259D02*
X5966057Y-12854211D01*
X5966057Y-12854211D02*
X5975581Y-12844688D01*
X5975581Y-12844688D02*
X5994628Y-12835164D01*
X6251771Y-13035164D02*
X6137486Y-13035164D01*
X6194628Y-13035164D02*
X6194628Y-12835164D01*
X6194628Y-12835164D02*
X6175581Y-12863735D01*
X6175581Y-12863735D02*
X6156533Y-12882783D01*
X6156533Y-12882783D02*
X6137486Y-12892307D01*
X6432724Y-12835164D02*
X6337486Y-12835164D01*
X6337486Y-12835164D02*
X6327962Y-12930402D01*
X6327962Y-12930402D02*
X6337486Y-12920878D01*
X6337486Y-12920878D02*
X6356533Y-12911354D01*
X6356533Y-12911354D02*
X6404152Y-12911354D01*
X6404152Y-12911354D02*
X6423200Y-12920878D01*
X6423200Y-12920878D02*
X6432724Y-12930402D01*
X6432724Y-12930402D02*
X6442247Y-12949449D01*
X6442247Y-12949449D02*
X6442247Y-12997068D01*
X6442247Y-12997068D02*
X6432724Y-13016116D01*
X6432724Y-13016116D02*
X6423200Y-13025640D01*
X6423200Y-13025640D02*
X6404152Y-13035164D01*
X6404152Y-13035164D02*
X6356533Y-13035164D01*
X6356533Y-13035164D02*
X6337486Y-13025640D01*
X6337486Y-13025640D02*
X6327962Y-13016116D01*
X6508914Y-12835164D02*
X6642247Y-12835164D01*
X6642247Y-12835164D02*
X6556533Y-13035164D01*
X6708914Y-12835164D02*
X6708914Y-12873259D01*
X6785105Y-12835164D02*
X6785105Y-12873259D01*
X7080343Y-13111354D02*
X7070819Y-13101830D01*
X7070819Y-13101830D02*
X7051771Y-13073259D01*
X7051771Y-13073259D02*
X7042248Y-13054211D01*
X7042248Y-13054211D02*
X7032724Y-13025640D01*
X7032724Y-13025640D02*
X7023200Y-12978021D01*
X7023200Y-12978021D02*
X7023200Y-12939926D01*
X7023200Y-12939926D02*
X7032724Y-12892307D01*
X7032724Y-12892307D02*
X7042248Y-12863735D01*
X7042248Y-12863735D02*
X7051771Y-12844688D01*
X7051771Y-12844688D02*
X7070819Y-12816116D01*
X7070819Y-12816116D02*
X7080343Y-12806592D01*
X7147009Y-12854211D02*
X7156533Y-12844688D01*
X7156533Y-12844688D02*
X7175581Y-12835164D01*
X7175581Y-12835164D02*
X7223200Y-12835164D01*
X7223200Y-12835164D02*
X7242248Y-12844688D01*
X7242248Y-12844688D02*
X7251771Y-12854211D01*
X7251771Y-12854211D02*
X7261295Y-12873259D01*
X7261295Y-12873259D02*
X7261295Y-12892307D01*
X7261295Y-12892307D02*
X7251771Y-12920878D01*
X7251771Y-12920878D02*
X7137486Y-13035164D01*
X7137486Y-13035164D02*
X7261295Y-13035164D01*
X7385105Y-12835164D02*
X7404152Y-12835164D01*
X7404152Y-12835164D02*
X7423200Y-12844688D01*
X7423200Y-12844688D02*
X7432724Y-12854211D01*
X7432724Y-12854211D02*
X7442248Y-12873259D01*
X7442248Y-12873259D02*
X7451771Y-12911354D01*
X7451771Y-12911354D02*
X7451771Y-12958973D01*
X7451771Y-12958973D02*
X7442248Y-12997068D01*
X7442248Y-12997068D02*
X7432724Y-13016116D01*
X7432724Y-13016116D02*
X7423200Y-13025640D01*
X7423200Y-13025640D02*
X7404152Y-13035164D01*
X7404152Y-13035164D02*
X7385105Y-13035164D01*
X7385105Y-13035164D02*
X7366057Y-13025640D01*
X7366057Y-13025640D02*
X7356533Y-13016116D01*
X7356533Y-13016116D02*
X7347009Y-12997068D01*
X7347009Y-12997068D02*
X7337486Y-12958973D01*
X7337486Y-12958973D02*
X7337486Y-12911354D01*
X7337486Y-12911354D02*
X7347009Y-12873259D01*
X7347009Y-12873259D02*
X7356533Y-12854211D01*
X7356533Y-12854211D02*
X7366057Y-12844688D01*
X7366057Y-12844688D02*
X7385105Y-12835164D01*
X7689867Y-13035164D02*
X7689867Y-12835164D01*
X7775581Y-13035164D02*
X7775581Y-12930402D01*
X7775581Y-12930402D02*
X7766057Y-12911354D01*
X7766057Y-12911354D02*
X7747010Y-12901830D01*
X7747010Y-12901830D02*
X7718438Y-12901830D01*
X7718438Y-12901830D02*
X7699390Y-12911354D01*
X7699390Y-12911354D02*
X7689867Y-12920878D01*
X7899390Y-13035164D02*
X7880343Y-13025640D01*
X7880343Y-13025640D02*
X7870819Y-13016116D01*
X7870819Y-13016116D02*
X7861295Y-12997068D01*
X7861295Y-12997068D02*
X7861295Y-12939926D01*
X7861295Y-12939926D02*
X7870819Y-12920878D01*
X7870819Y-12920878D02*
X7880343Y-12911354D01*
X7880343Y-12911354D02*
X7899390Y-12901830D01*
X7899390Y-12901830D02*
X7927962Y-12901830D01*
X7927962Y-12901830D02*
X7947010Y-12911354D01*
X7947010Y-12911354D02*
X7956533Y-12920878D01*
X7956533Y-12920878D02*
X7966057Y-12939926D01*
X7966057Y-12939926D02*
X7966057Y-12997068D01*
X7966057Y-12997068D02*
X7956533Y-13016116D01*
X7956533Y-13016116D02*
X7947010Y-13025640D01*
X7947010Y-13025640D02*
X7927962Y-13035164D01*
X7927962Y-13035164D02*
X7899390Y-13035164D01*
X8080343Y-13035164D02*
X8061295Y-13025640D01*
X8061295Y-13025640D02*
X8051771Y-13006592D01*
X8051771Y-13006592D02*
X8051771Y-12835164D01*
X8232724Y-13025640D02*
X8213676Y-13035164D01*
X8213676Y-13035164D02*
X8175581Y-13035164D01*
X8175581Y-13035164D02*
X8156533Y-13025640D01*
X8156533Y-13025640D02*
X8147010Y-13006592D01*
X8147010Y-13006592D02*
X8147010Y-12930402D01*
X8147010Y-12930402D02*
X8156533Y-12911354D01*
X8156533Y-12911354D02*
X8175581Y-12901830D01*
X8175581Y-12901830D02*
X8213676Y-12901830D01*
X8213676Y-12901830D02*
X8232724Y-12911354D01*
X8232724Y-12911354D02*
X8242248Y-12930402D01*
X8242248Y-12930402D02*
X8242248Y-12949449D01*
X8242248Y-12949449D02*
X8147010Y-12968497D01*
X8318438Y-13025640D02*
X8337486Y-13035164D01*
X8337486Y-13035164D02*
X8375581Y-13035164D01*
X8375581Y-13035164D02*
X8394629Y-13025640D01*
X8394629Y-13025640D02*
X8404153Y-13006592D01*
X8404153Y-13006592D02*
X8404153Y-12997068D01*
X8404153Y-12997068D02*
X8394629Y-12978021D01*
X8394629Y-12978021D02*
X8375581Y-12968497D01*
X8375581Y-12968497D02*
X8347010Y-12968497D01*
X8347010Y-12968497D02*
X8327962Y-12958973D01*
X8327962Y-12958973D02*
X8318438Y-12939926D01*
X8318438Y-12939926D02*
X8318438Y-12930402D01*
X8318438Y-12930402D02*
X8327962Y-12911354D01*
X8327962Y-12911354D02*
X8347010Y-12901830D01*
X8347010Y-12901830D02*
X8375581Y-12901830D01*
X8375581Y-12901830D02*
X8394629Y-12911354D01*
X8470819Y-13111354D02*
X8480343Y-13101830D01*
X8480343Y-13101830D02*
X8499391Y-13073259D01*
X8499391Y-13073259D02*
X8508914Y-13054211D01*
X8508914Y-13054211D02*
X8518438Y-13025640D01*
X8518438Y-13025640D02*
X8527962Y-12978021D01*
X8527962Y-12978021D02*
X8527962Y-12939926D01*
X8527962Y-12939926D02*
X8518438Y-12892307D01*
X8518438Y-12892307D02*
X8508914Y-12863735D01*
X8508914Y-12863735D02*
X8499391Y-12844688D01*
X8499391Y-12844688D02*
X8480343Y-12816116D01*
X8480343Y-12816116D02*
X8470819Y-12806592D01*
D13*
X3505280Y-13207680D02*
G75*
G03*
X3505280Y-13207680I-35000J0D01*
G01*
D11*
X3804152Y-13099164D02*
X3823200Y-13099164D01*
X3823200Y-13099164D02*
X3842247Y-13108688D01*
X3842247Y-13108688D02*
X3851771Y-13118211D01*
X3851771Y-13118211D02*
X3861295Y-13137259D01*
X3861295Y-13137259D02*
X3870819Y-13175354D01*
X3870819Y-13175354D02*
X3870819Y-13222973D01*
X3870819Y-13222973D02*
X3861295Y-13261068D01*
X3861295Y-13261068D02*
X3851771Y-13280116D01*
X3851771Y-13280116D02*
X3842247Y-13289640D01*
X3842247Y-13289640D02*
X3823200Y-13299164D01*
X3823200Y-13299164D02*
X3804152Y-13299164D01*
X3804152Y-13299164D02*
X3785104Y-13289640D01*
X3785104Y-13289640D02*
X3775581Y-13280116D01*
X3775581Y-13280116D02*
X3766057Y-13261068D01*
X3766057Y-13261068D02*
X3756533Y-13222973D01*
X3756533Y-13222973D02*
X3756533Y-13175354D01*
X3756533Y-13175354D02*
X3766057Y-13137259D01*
X3766057Y-13137259D02*
X3775581Y-13118211D01*
X3775581Y-13118211D02*
X3785104Y-13108688D01*
X3785104Y-13108688D02*
X3804152Y-13099164D01*
X3956533Y-13280116D02*
X3966057Y-13289640D01*
X3966057Y-13289640D02*
X3956533Y-13299164D01*
X3956533Y-13299164D02*
X3947009Y-13289640D01*
X3947009Y-13289640D02*
X3956533Y-13280116D01*
X3956533Y-13280116D02*
X3956533Y-13299164D01*
X4032723Y-13099164D02*
X4166057Y-13099164D01*
X4166057Y-13099164D02*
X4080342Y-13299164D01*
X4280343Y-13099164D02*
X4299390Y-13099164D01*
X4299390Y-13099164D02*
X4318438Y-13108688D01*
X4318438Y-13108688D02*
X4327962Y-13118211D01*
X4327962Y-13118211D02*
X4337485Y-13137259D01*
X4337485Y-13137259D02*
X4347009Y-13175354D01*
X4347009Y-13175354D02*
X4347009Y-13222973D01*
X4347009Y-13222973D02*
X4337485Y-13261068D01*
X4337485Y-13261068D02*
X4327962Y-13280116D01*
X4327962Y-13280116D02*
X4318438Y-13289640D01*
X4318438Y-13289640D02*
X4299390Y-13299164D01*
X4299390Y-13299164D02*
X4280343Y-13299164D01*
X4280343Y-13299164D02*
X4261295Y-13289640D01*
X4261295Y-13289640D02*
X4251771Y-13280116D01*
X4251771Y-13280116D02*
X4242247Y-13261068D01*
X4242247Y-13261068D02*
X4232724Y-13222973D01*
X4232724Y-13222973D02*
X4232724Y-13175354D01*
X4232724Y-13175354D02*
X4242247Y-13137259D01*
X4242247Y-13137259D02*
X4251771Y-13118211D01*
X4251771Y-13118211D02*
X4261295Y-13108688D01*
X4261295Y-13108688D02*
X4280343Y-13099164D01*
X4470819Y-13099164D02*
X4489866Y-13099164D01*
X4489866Y-13099164D02*
X4508914Y-13108688D01*
X4508914Y-13108688D02*
X4518438Y-13118211D01*
X4518438Y-13118211D02*
X4527962Y-13137259D01*
X4527962Y-13137259D02*
X4537485Y-13175354D01*
X4537485Y-13175354D02*
X4537485Y-13222973D01*
X4537485Y-13222973D02*
X4527962Y-13261068D01*
X4527962Y-13261068D02*
X4518438Y-13280116D01*
X4518438Y-13280116D02*
X4508914Y-13289640D01*
X4508914Y-13289640D02*
X4489866Y-13299164D01*
X4489866Y-13299164D02*
X4470819Y-13299164D01*
X4470819Y-13299164D02*
X4451771Y-13289640D01*
X4451771Y-13289640D02*
X4442247Y-13280116D01*
X4442247Y-13280116D02*
X4432724Y-13261068D01*
X4432724Y-13261068D02*
X4423200Y-13222973D01*
X4423200Y-13222973D02*
X4423200Y-13175354D01*
X4423200Y-13175354D02*
X4432724Y-13137259D01*
X4432724Y-13137259D02*
X4442247Y-13118211D01*
X4442247Y-13118211D02*
X4451771Y-13108688D01*
X4451771Y-13108688D02*
X4470819Y-13099164D01*
X4623200Y-13299164D02*
X4623200Y-13165830D01*
X4623200Y-13184878D02*
X4632724Y-13175354D01*
X4632724Y-13175354D02*
X4651771Y-13165830D01*
X4651771Y-13165830D02*
X4680343Y-13165830D01*
X4680343Y-13165830D02*
X4699390Y-13175354D01*
X4699390Y-13175354D02*
X4708914Y-13194402D01*
X4708914Y-13194402D02*
X4708914Y-13299164D01*
X4708914Y-13194402D02*
X4718438Y-13175354D01*
X4718438Y-13175354D02*
X4737485Y-13165830D01*
X4737485Y-13165830D02*
X4766057Y-13165830D01*
X4766057Y-13165830D02*
X4785105Y-13175354D01*
X4785105Y-13175354D02*
X4794628Y-13194402D01*
X4794628Y-13194402D02*
X4794628Y-13299164D01*
X4889866Y-13299164D02*
X4889866Y-13165830D01*
X4889866Y-13184878D02*
X4899390Y-13175354D01*
X4899390Y-13175354D02*
X4918438Y-13165830D01*
X4918438Y-13165830D02*
X4947009Y-13165830D01*
X4947009Y-13165830D02*
X4966057Y-13175354D01*
X4966057Y-13175354D02*
X4975581Y-13194402D01*
X4975581Y-13194402D02*
X4975581Y-13299164D01*
X4975581Y-13194402D02*
X4985105Y-13175354D01*
X4985105Y-13175354D02*
X5004152Y-13165830D01*
X5004152Y-13165830D02*
X5032724Y-13165830D01*
X5032724Y-13165830D02*
X5051771Y-13175354D01*
X5051771Y-13175354D02*
X5061295Y-13194402D01*
X5061295Y-13194402D02*
X5061295Y-13299164D01*
X5451771Y-13089640D02*
X5280343Y-13346783D01*
X5708914Y-13099164D02*
X5727962Y-13099164D01*
X5727962Y-13099164D02*
X5747009Y-13108688D01*
X5747009Y-13108688D02*
X5756533Y-13118211D01*
X5756533Y-13118211D02*
X5766057Y-13137259D01*
X5766057Y-13137259D02*
X5775581Y-13175354D01*
X5775581Y-13175354D02*
X5775581Y-13222973D01*
X5775581Y-13222973D02*
X5766057Y-13261068D01*
X5766057Y-13261068D02*
X5756533Y-13280116D01*
X5756533Y-13280116D02*
X5747009Y-13289640D01*
X5747009Y-13289640D02*
X5727962Y-13299164D01*
X5727962Y-13299164D02*
X5708914Y-13299164D01*
X5708914Y-13299164D02*
X5689866Y-13289640D01*
X5689866Y-13289640D02*
X5680343Y-13280116D01*
X5680343Y-13280116D02*
X5670819Y-13261068D01*
X5670819Y-13261068D02*
X5661295Y-13222973D01*
X5661295Y-13222973D02*
X5661295Y-13175354D01*
X5661295Y-13175354D02*
X5670819Y-13137259D01*
X5670819Y-13137259D02*
X5680343Y-13118211D01*
X5680343Y-13118211D02*
X5689866Y-13108688D01*
X5689866Y-13108688D02*
X5708914Y-13099164D01*
X5861295Y-13280116D02*
X5870819Y-13289640D01*
X5870819Y-13289640D02*
X5861295Y-13299164D01*
X5861295Y-13299164D02*
X5851771Y-13289640D01*
X5851771Y-13289640D02*
X5861295Y-13280116D01*
X5861295Y-13280116D02*
X5861295Y-13299164D01*
X5994628Y-13099164D02*
X6013676Y-13099164D01*
X6013676Y-13099164D02*
X6032724Y-13108688D01*
X6032724Y-13108688D02*
X6042247Y-13118211D01*
X6042247Y-13118211D02*
X6051771Y-13137259D01*
X6051771Y-13137259D02*
X6061295Y-13175354D01*
X6061295Y-13175354D02*
X6061295Y-13222973D01*
X6061295Y-13222973D02*
X6051771Y-13261068D01*
X6051771Y-13261068D02*
X6042247Y-13280116D01*
X6042247Y-13280116D02*
X6032724Y-13289640D01*
X6032724Y-13289640D02*
X6013676Y-13299164D01*
X6013676Y-13299164D02*
X5994628Y-13299164D01*
X5994628Y-13299164D02*
X5975581Y-13289640D01*
X5975581Y-13289640D02*
X5966057Y-13280116D01*
X5966057Y-13280116D02*
X5956533Y-13261068D01*
X5956533Y-13261068D02*
X5947009Y-13222973D01*
X5947009Y-13222973D02*
X5947009Y-13175354D01*
X5947009Y-13175354D02*
X5956533Y-13137259D01*
X5956533Y-13137259D02*
X5966057Y-13118211D01*
X5966057Y-13118211D02*
X5975581Y-13108688D01*
X5975581Y-13108688D02*
X5994628Y-13099164D01*
X6137486Y-13118211D02*
X6147009Y-13108688D01*
X6147009Y-13108688D02*
X6166057Y-13099164D01*
X6166057Y-13099164D02*
X6213676Y-13099164D01*
X6213676Y-13099164D02*
X6232724Y-13108688D01*
X6232724Y-13108688D02*
X6242247Y-13118211D01*
X6242247Y-13118211D02*
X6251771Y-13137259D01*
X6251771Y-13137259D02*
X6251771Y-13156307D01*
X6251771Y-13156307D02*
X6242247Y-13184878D01*
X6242247Y-13184878D02*
X6127962Y-13299164D01*
X6127962Y-13299164D02*
X6251771Y-13299164D01*
X6318438Y-13099164D02*
X6451771Y-13099164D01*
X6451771Y-13099164D02*
X6366057Y-13299164D01*
X6613676Y-13099164D02*
X6575581Y-13099164D01*
X6575581Y-13099164D02*
X6556533Y-13108688D01*
X6556533Y-13108688D02*
X6547009Y-13118211D01*
X6547009Y-13118211D02*
X6527962Y-13146783D01*
X6527962Y-13146783D02*
X6518438Y-13184878D01*
X6518438Y-13184878D02*
X6518438Y-13261068D01*
X6518438Y-13261068D02*
X6527962Y-13280116D01*
X6527962Y-13280116D02*
X6537486Y-13289640D01*
X6537486Y-13289640D02*
X6556533Y-13299164D01*
X6556533Y-13299164D02*
X6594628Y-13299164D01*
X6594628Y-13299164D02*
X6613676Y-13289640D01*
X6613676Y-13289640D02*
X6623200Y-13280116D01*
X6623200Y-13280116D02*
X6632724Y-13261068D01*
X6632724Y-13261068D02*
X6632724Y-13213449D01*
X6632724Y-13213449D02*
X6623200Y-13194402D01*
X6623200Y-13194402D02*
X6613676Y-13184878D01*
X6613676Y-13184878D02*
X6594628Y-13175354D01*
X6594628Y-13175354D02*
X6556533Y-13175354D01*
X6556533Y-13175354D02*
X6537486Y-13184878D01*
X6537486Y-13184878D02*
X6527962Y-13194402D01*
X6527962Y-13194402D02*
X6518438Y-13213449D01*
X6708914Y-13099164D02*
X6708914Y-13137259D01*
X6785105Y-13099164D02*
X6785105Y-13137259D01*
X7080343Y-13375354D02*
X7070819Y-13365830D01*
X7070819Y-13365830D02*
X7051771Y-13337259D01*
X7051771Y-13337259D02*
X7042248Y-13318211D01*
X7042248Y-13318211D02*
X7032724Y-13289640D01*
X7032724Y-13289640D02*
X7023200Y-13242021D01*
X7023200Y-13242021D02*
X7023200Y-13203926D01*
X7023200Y-13203926D02*
X7032724Y-13156307D01*
X7032724Y-13156307D02*
X7042248Y-13127735D01*
X7042248Y-13127735D02*
X7051771Y-13108688D01*
X7051771Y-13108688D02*
X7070819Y-13080116D01*
X7070819Y-13080116D02*
X7080343Y-13070592D01*
X7261295Y-13299164D02*
X7147009Y-13299164D01*
X7204152Y-13299164D02*
X7204152Y-13099164D01*
X7204152Y-13099164D02*
X7185105Y-13127735D01*
X7185105Y-13127735D02*
X7166057Y-13146783D01*
X7166057Y-13146783D02*
X7147009Y-13156307D01*
X7337486Y-13118211D02*
X7347009Y-13108688D01*
X7347009Y-13108688D02*
X7366057Y-13099164D01*
X7366057Y-13099164D02*
X7413676Y-13099164D01*
X7413676Y-13099164D02*
X7432724Y-13108688D01*
X7432724Y-13108688D02*
X7442248Y-13118211D01*
X7442248Y-13118211D02*
X7451771Y-13137259D01*
X7451771Y-13137259D02*
X7451771Y-13156307D01*
X7451771Y-13156307D02*
X7442248Y-13184878D01*
X7442248Y-13184878D02*
X7327962Y-13299164D01*
X7327962Y-13299164D02*
X7451771Y-13299164D01*
X7689867Y-13299164D02*
X7689867Y-13099164D01*
X7775581Y-13299164D02*
X7775581Y-13194402D01*
X7775581Y-13194402D02*
X7766057Y-13175354D01*
X7766057Y-13175354D02*
X7747010Y-13165830D01*
X7747010Y-13165830D02*
X7718438Y-13165830D01*
X7718438Y-13165830D02*
X7699390Y-13175354D01*
X7699390Y-13175354D02*
X7689867Y-13184878D01*
X7899390Y-13299164D02*
X7880343Y-13289640D01*
X7880343Y-13289640D02*
X7870819Y-13280116D01*
X7870819Y-13280116D02*
X7861295Y-13261068D01*
X7861295Y-13261068D02*
X7861295Y-13203926D01*
X7861295Y-13203926D02*
X7870819Y-13184878D01*
X7870819Y-13184878D02*
X7880343Y-13175354D01*
X7880343Y-13175354D02*
X7899390Y-13165830D01*
X7899390Y-13165830D02*
X7927962Y-13165830D01*
X7927962Y-13165830D02*
X7947010Y-13175354D01*
X7947010Y-13175354D02*
X7956533Y-13184878D01*
X7956533Y-13184878D02*
X7966057Y-13203926D01*
X7966057Y-13203926D02*
X7966057Y-13261068D01*
X7966057Y-13261068D02*
X7956533Y-13280116D01*
X7956533Y-13280116D02*
X7947010Y-13289640D01*
X7947010Y-13289640D02*
X7927962Y-13299164D01*
X7927962Y-13299164D02*
X7899390Y-13299164D01*
X8080343Y-13299164D02*
X8061295Y-13289640D01*
X8061295Y-13289640D02*
X8051771Y-13270592D01*
X8051771Y-13270592D02*
X8051771Y-13099164D01*
X8232724Y-13289640D02*
X8213676Y-13299164D01*
X8213676Y-13299164D02*
X8175581Y-13299164D01*
X8175581Y-13299164D02*
X8156533Y-13289640D01*
X8156533Y-13289640D02*
X8147010Y-13270592D01*
X8147010Y-13270592D02*
X8147010Y-13194402D01*
X8147010Y-13194402D02*
X8156533Y-13175354D01*
X8156533Y-13175354D02*
X8175581Y-13165830D01*
X8175581Y-13165830D02*
X8213676Y-13165830D01*
X8213676Y-13165830D02*
X8232724Y-13175354D01*
X8232724Y-13175354D02*
X8242248Y-13194402D01*
X8242248Y-13194402D02*
X8242248Y-13213449D01*
X8242248Y-13213449D02*
X8147010Y-13232497D01*
X8318438Y-13289640D02*
X8337486Y-13299164D01*
X8337486Y-13299164D02*
X8375581Y-13299164D01*
X8375581Y-13299164D02*
X8394629Y-13289640D01*
X8394629Y-13289640D02*
X8404153Y-13270592D01*
X8404153Y-13270592D02*
X8404153Y-13261068D01*
X8404153Y-13261068D02*
X8394629Y-13242021D01*
X8394629Y-13242021D02*
X8375581Y-13232497D01*
X8375581Y-13232497D02*
X8347010Y-13232497D01*
X8347010Y-13232497D02*
X8327962Y-13222973D01*
X8327962Y-13222973D02*
X8318438Y-13203926D01*
X8318438Y-13203926D02*
X8318438Y-13194402D01*
X8318438Y-13194402D02*
X8327962Y-13175354D01*
X8327962Y-13175354D02*
X8347010Y-13165830D01*
X8347010Y-13165830D02*
X8375581Y-13165830D01*
X8375581Y-13165830D02*
X8394629Y-13175354D01*
X8470819Y-13375354D02*
X8480343Y-13365830D01*
X8480343Y-13365830D02*
X8499391Y-13337259D01*
X8499391Y-13337259D02*
X8508914Y-13318211D01*
X8508914Y-13318211D02*
X8518438Y-13289640D01*
X8518438Y-13289640D02*
X8527962Y-13242021D01*
X8527962Y-13242021D02*
X8527962Y-13203926D01*
X8527962Y-13203926D02*
X8518438Y-13156307D01*
X8518438Y-13156307D02*
X8508914Y-13127735D01*
X8508914Y-13127735D02*
X8499391Y-13108688D01*
X8499391Y-13108688D02*
X8480343Y-13080116D01*
X8480343Y-13080116D02*
X8470819Y-13070592D01*
D14*
X3465280Y-13431680D02*
X3465280Y-13511680D01*
X3425280Y-13471680D02*
X3505280Y-13471680D01*
D11*
X3804152Y-13363164D02*
X3823200Y-13363164D01*
X3823200Y-13363164D02*
X3842247Y-13372688D01*
X3842247Y-13372688D02*
X3851771Y-13382211D01*
X3851771Y-13382211D02*
X3861295Y-13401259D01*
X3861295Y-13401259D02*
X3870819Y-13439354D01*
X3870819Y-13439354D02*
X3870819Y-13486973D01*
X3870819Y-13486973D02*
X3861295Y-13525068D01*
X3861295Y-13525068D02*
X3851771Y-13544116D01*
X3851771Y-13544116D02*
X3842247Y-13553640D01*
X3842247Y-13553640D02*
X3823200Y-13563164D01*
X3823200Y-13563164D02*
X3804152Y-13563164D01*
X3804152Y-13563164D02*
X3785104Y-13553640D01*
X3785104Y-13553640D02*
X3775581Y-13544116D01*
X3775581Y-13544116D02*
X3766057Y-13525068D01*
X3766057Y-13525068D02*
X3756533Y-13486973D01*
X3756533Y-13486973D02*
X3756533Y-13439354D01*
X3756533Y-13439354D02*
X3766057Y-13401259D01*
X3766057Y-13401259D02*
X3775581Y-13382211D01*
X3775581Y-13382211D02*
X3785104Y-13372688D01*
X3785104Y-13372688D02*
X3804152Y-13363164D01*
X3956533Y-13544116D02*
X3966057Y-13553640D01*
X3966057Y-13553640D02*
X3956533Y-13563164D01*
X3956533Y-13563164D02*
X3947009Y-13553640D01*
X3947009Y-13553640D02*
X3956533Y-13544116D01*
X3956533Y-13544116D02*
X3956533Y-13563164D01*
X4080342Y-13448878D02*
X4061295Y-13439354D01*
X4061295Y-13439354D02*
X4051771Y-13429830D01*
X4051771Y-13429830D02*
X4042247Y-13410783D01*
X4042247Y-13410783D02*
X4042247Y-13401259D01*
X4042247Y-13401259D02*
X4051771Y-13382211D01*
X4051771Y-13382211D02*
X4061295Y-13372688D01*
X4061295Y-13372688D02*
X4080342Y-13363164D01*
X4080342Y-13363164D02*
X4118438Y-13363164D01*
X4118438Y-13363164D02*
X4137485Y-13372688D01*
X4137485Y-13372688D02*
X4147009Y-13382211D01*
X4147009Y-13382211D02*
X4156533Y-13401259D01*
X4156533Y-13401259D02*
X4156533Y-13410783D01*
X4156533Y-13410783D02*
X4147009Y-13429830D01*
X4147009Y-13429830D02*
X4137485Y-13439354D01*
X4137485Y-13439354D02*
X4118438Y-13448878D01*
X4118438Y-13448878D02*
X4080342Y-13448878D01*
X4080342Y-13448878D02*
X4061295Y-13458402D01*
X4061295Y-13458402D02*
X4051771Y-13467926D01*
X4051771Y-13467926D02*
X4042247Y-13486973D01*
X4042247Y-13486973D02*
X4042247Y-13525068D01*
X4042247Y-13525068D02*
X4051771Y-13544116D01*
X4051771Y-13544116D02*
X4061295Y-13553640D01*
X4061295Y-13553640D02*
X4080342Y-13563164D01*
X4080342Y-13563164D02*
X4118438Y-13563164D01*
X4118438Y-13563164D02*
X4137485Y-13553640D01*
X4137485Y-13553640D02*
X4147009Y-13544116D01*
X4147009Y-13544116D02*
X4156533Y-13525068D01*
X4156533Y-13525068D02*
X4156533Y-13486973D01*
X4156533Y-13486973D02*
X4147009Y-13467926D01*
X4147009Y-13467926D02*
X4137485Y-13458402D01*
X4137485Y-13458402D02*
X4118438Y-13448878D01*
X4280343Y-13363164D02*
X4299390Y-13363164D01*
X4299390Y-13363164D02*
X4318438Y-13372688D01*
X4318438Y-13372688D02*
X4327962Y-13382211D01*
X4327962Y-13382211D02*
X4337485Y-13401259D01*
X4337485Y-13401259D02*
X4347009Y-13439354D01*
X4347009Y-13439354D02*
X4347009Y-13486973D01*
X4347009Y-13486973D02*
X4337485Y-13525068D01*
X4337485Y-13525068D02*
X4327962Y-13544116D01*
X4327962Y-13544116D02*
X4318438Y-13553640D01*
X4318438Y-13553640D02*
X4299390Y-13563164D01*
X4299390Y-13563164D02*
X4280343Y-13563164D01*
X4280343Y-13563164D02*
X4261295Y-13553640D01*
X4261295Y-13553640D02*
X4251771Y-13544116D01*
X4251771Y-13544116D02*
X4242247Y-13525068D01*
X4242247Y-13525068D02*
X4232724Y-13486973D01*
X4232724Y-13486973D02*
X4232724Y-13439354D01*
X4232724Y-13439354D02*
X4242247Y-13401259D01*
X4242247Y-13401259D02*
X4251771Y-13382211D01*
X4251771Y-13382211D02*
X4261295Y-13372688D01*
X4261295Y-13372688D02*
X4280343Y-13363164D01*
X4470819Y-13363164D02*
X4489866Y-13363164D01*
X4489866Y-13363164D02*
X4508914Y-13372688D01*
X4508914Y-13372688D02*
X4518438Y-13382211D01*
X4518438Y-13382211D02*
X4527962Y-13401259D01*
X4527962Y-13401259D02*
X4537485Y-13439354D01*
X4537485Y-13439354D02*
X4537485Y-13486973D01*
X4537485Y-13486973D02*
X4527962Y-13525068D01*
X4527962Y-13525068D02*
X4518438Y-13544116D01*
X4518438Y-13544116D02*
X4508914Y-13553640D01*
X4508914Y-13553640D02*
X4489866Y-13563164D01*
X4489866Y-13563164D02*
X4470819Y-13563164D01*
X4470819Y-13563164D02*
X4451771Y-13553640D01*
X4451771Y-13553640D02*
X4442247Y-13544116D01*
X4442247Y-13544116D02*
X4432724Y-13525068D01*
X4432724Y-13525068D02*
X4423200Y-13486973D01*
X4423200Y-13486973D02*
X4423200Y-13439354D01*
X4423200Y-13439354D02*
X4432724Y-13401259D01*
X4432724Y-13401259D02*
X4442247Y-13382211D01*
X4442247Y-13382211D02*
X4451771Y-13372688D01*
X4451771Y-13372688D02*
X4470819Y-13363164D01*
X4623200Y-13563164D02*
X4623200Y-13429830D01*
X4623200Y-13448878D02*
X4632724Y-13439354D01*
X4632724Y-13439354D02*
X4651771Y-13429830D01*
X4651771Y-13429830D02*
X4680343Y-13429830D01*
X4680343Y-13429830D02*
X4699390Y-13439354D01*
X4699390Y-13439354D02*
X4708914Y-13458402D01*
X4708914Y-13458402D02*
X4708914Y-13563164D01*
X4708914Y-13458402D02*
X4718438Y-13439354D01*
X4718438Y-13439354D02*
X4737485Y-13429830D01*
X4737485Y-13429830D02*
X4766057Y-13429830D01*
X4766057Y-13429830D02*
X4785105Y-13439354D01*
X4785105Y-13439354D02*
X4794628Y-13458402D01*
X4794628Y-13458402D02*
X4794628Y-13563164D01*
X4889866Y-13563164D02*
X4889866Y-13429830D01*
X4889866Y-13448878D02*
X4899390Y-13439354D01*
X4899390Y-13439354D02*
X4918438Y-13429830D01*
X4918438Y-13429830D02*
X4947009Y-13429830D01*
X4947009Y-13429830D02*
X4966057Y-13439354D01*
X4966057Y-13439354D02*
X4975581Y-13458402D01*
X4975581Y-13458402D02*
X4975581Y-13563164D01*
X4975581Y-13458402D02*
X4985105Y-13439354D01*
X4985105Y-13439354D02*
X5004152Y-13429830D01*
X5004152Y-13429830D02*
X5032724Y-13429830D01*
X5032724Y-13429830D02*
X5051771Y-13439354D01*
X5051771Y-13439354D02*
X5061295Y-13458402D01*
X5061295Y-13458402D02*
X5061295Y-13563164D01*
X5451771Y-13353640D02*
X5280343Y-13610783D01*
X5708914Y-13363164D02*
X5727962Y-13363164D01*
X5727962Y-13363164D02*
X5747009Y-13372688D01*
X5747009Y-13372688D02*
X5756533Y-13382211D01*
X5756533Y-13382211D02*
X5766057Y-13401259D01*
X5766057Y-13401259D02*
X5775581Y-13439354D01*
X5775581Y-13439354D02*
X5775581Y-13486973D01*
X5775581Y-13486973D02*
X5766057Y-13525068D01*
X5766057Y-13525068D02*
X5756533Y-13544116D01*
X5756533Y-13544116D02*
X5747009Y-13553640D01*
X5747009Y-13553640D02*
X5727962Y-13563164D01*
X5727962Y-13563164D02*
X5708914Y-13563164D01*
X5708914Y-13563164D02*
X5689866Y-13553640D01*
X5689866Y-13553640D02*
X5680343Y-13544116D01*
X5680343Y-13544116D02*
X5670819Y-13525068D01*
X5670819Y-13525068D02*
X5661295Y-13486973D01*
X5661295Y-13486973D02*
X5661295Y-13439354D01*
X5661295Y-13439354D02*
X5670819Y-13401259D01*
X5670819Y-13401259D02*
X5680343Y-13382211D01*
X5680343Y-13382211D02*
X5689866Y-13372688D01*
X5689866Y-13372688D02*
X5708914Y-13363164D01*
X5861295Y-13544116D02*
X5870819Y-13553640D01*
X5870819Y-13553640D02*
X5861295Y-13563164D01*
X5861295Y-13563164D02*
X5851771Y-13553640D01*
X5851771Y-13553640D02*
X5861295Y-13544116D01*
X5861295Y-13544116D02*
X5861295Y-13563164D01*
X5994628Y-13363164D02*
X6013676Y-13363164D01*
X6013676Y-13363164D02*
X6032724Y-13372688D01*
X6032724Y-13372688D02*
X6042247Y-13382211D01*
X6042247Y-13382211D02*
X6051771Y-13401259D01*
X6051771Y-13401259D02*
X6061295Y-13439354D01*
X6061295Y-13439354D02*
X6061295Y-13486973D01*
X6061295Y-13486973D02*
X6051771Y-13525068D01*
X6051771Y-13525068D02*
X6042247Y-13544116D01*
X6042247Y-13544116D02*
X6032724Y-13553640D01*
X6032724Y-13553640D02*
X6013676Y-13563164D01*
X6013676Y-13563164D02*
X5994628Y-13563164D01*
X5994628Y-13563164D02*
X5975581Y-13553640D01*
X5975581Y-13553640D02*
X5966057Y-13544116D01*
X5966057Y-13544116D02*
X5956533Y-13525068D01*
X5956533Y-13525068D02*
X5947009Y-13486973D01*
X5947009Y-13486973D02*
X5947009Y-13439354D01*
X5947009Y-13439354D02*
X5956533Y-13401259D01*
X5956533Y-13401259D02*
X5966057Y-13382211D01*
X5966057Y-13382211D02*
X5975581Y-13372688D01*
X5975581Y-13372688D02*
X5994628Y-13363164D01*
X6127962Y-13363164D02*
X6251771Y-13363164D01*
X6251771Y-13363164D02*
X6185105Y-13439354D01*
X6185105Y-13439354D02*
X6213676Y-13439354D01*
X6213676Y-13439354D02*
X6232724Y-13448878D01*
X6232724Y-13448878D02*
X6242247Y-13458402D01*
X6242247Y-13458402D02*
X6251771Y-13477449D01*
X6251771Y-13477449D02*
X6251771Y-13525068D01*
X6251771Y-13525068D02*
X6242247Y-13544116D01*
X6242247Y-13544116D02*
X6232724Y-13553640D01*
X6232724Y-13553640D02*
X6213676Y-13563164D01*
X6213676Y-13563164D02*
X6156533Y-13563164D01*
X6156533Y-13563164D02*
X6137486Y-13553640D01*
X6137486Y-13553640D02*
X6127962Y-13544116D01*
X6442247Y-13563164D02*
X6327962Y-13563164D01*
X6385105Y-13563164D02*
X6385105Y-13363164D01*
X6385105Y-13363164D02*
X6366057Y-13391735D01*
X6366057Y-13391735D02*
X6347009Y-13410783D01*
X6347009Y-13410783D02*
X6327962Y-13420307D01*
X6623200Y-13363164D02*
X6527962Y-13363164D01*
X6527962Y-13363164D02*
X6518438Y-13458402D01*
X6518438Y-13458402D02*
X6527962Y-13448878D01*
X6527962Y-13448878D02*
X6547009Y-13439354D01*
X6547009Y-13439354D02*
X6594628Y-13439354D01*
X6594628Y-13439354D02*
X6613676Y-13448878D01*
X6613676Y-13448878D02*
X6623200Y-13458402D01*
X6623200Y-13458402D02*
X6632724Y-13477449D01*
X6632724Y-13477449D02*
X6632724Y-13525068D01*
X6632724Y-13525068D02*
X6623200Y-13544116D01*
X6623200Y-13544116D02*
X6613676Y-13553640D01*
X6613676Y-13553640D02*
X6594628Y-13563164D01*
X6594628Y-13563164D02*
X6547009Y-13563164D01*
X6547009Y-13563164D02*
X6527962Y-13553640D01*
X6527962Y-13553640D02*
X6518438Y-13544116D01*
X6708914Y-13363164D02*
X6708914Y-13401259D01*
X6785105Y-13363164D02*
X6785105Y-13401259D01*
X7080343Y-13639354D02*
X7070819Y-13629830D01*
X7070819Y-13629830D02*
X7051771Y-13601259D01*
X7051771Y-13601259D02*
X7042248Y-13582211D01*
X7042248Y-13582211D02*
X7032724Y-13553640D01*
X7032724Y-13553640D02*
X7023200Y-13506021D01*
X7023200Y-13506021D02*
X7023200Y-13467926D01*
X7023200Y-13467926D02*
X7032724Y-13420307D01*
X7032724Y-13420307D02*
X7042248Y-13391735D01*
X7042248Y-13391735D02*
X7051771Y-13372688D01*
X7051771Y-13372688D02*
X7070819Y-13344116D01*
X7070819Y-13344116D02*
X7080343Y-13334592D01*
X7261295Y-13563164D02*
X7147009Y-13563164D01*
X7204152Y-13563164D02*
X7204152Y-13363164D01*
X7204152Y-13363164D02*
X7185105Y-13391735D01*
X7185105Y-13391735D02*
X7166057Y-13410783D01*
X7166057Y-13410783D02*
X7147009Y-13420307D01*
X7451771Y-13563164D02*
X7337486Y-13563164D01*
X7394628Y-13563164D02*
X7394628Y-13363164D01*
X7394628Y-13363164D02*
X7375581Y-13391735D01*
X7375581Y-13391735D02*
X7356533Y-13410783D01*
X7356533Y-13410783D02*
X7337486Y-13420307D01*
X7623200Y-13429830D02*
X7623200Y-13563164D01*
X7575581Y-13353640D02*
X7527962Y-13496497D01*
X7527962Y-13496497D02*
X7651771Y-13496497D01*
X7880343Y-13563164D02*
X7880343Y-13363164D01*
X7966057Y-13563164D02*
X7966057Y-13458402D01*
X7966057Y-13458402D02*
X7956533Y-13439354D01*
X7956533Y-13439354D02*
X7937486Y-13429830D01*
X7937486Y-13429830D02*
X7908914Y-13429830D01*
X7908914Y-13429830D02*
X7889867Y-13439354D01*
X7889867Y-13439354D02*
X7880343Y-13448878D01*
X8089867Y-13563164D02*
X8070819Y-13553640D01*
X8070819Y-13553640D02*
X8061295Y-13544116D01*
X8061295Y-13544116D02*
X8051771Y-13525068D01*
X8051771Y-13525068D02*
X8051771Y-13467926D01*
X8051771Y-13467926D02*
X8061295Y-13448878D01*
X8061295Y-13448878D02*
X8070819Y-13439354D01*
X8070819Y-13439354D02*
X8089867Y-13429830D01*
X8089867Y-13429830D02*
X8118438Y-13429830D01*
X8118438Y-13429830D02*
X8137486Y-13439354D01*
X8137486Y-13439354D02*
X8147010Y-13448878D01*
X8147010Y-13448878D02*
X8156533Y-13467926D01*
X8156533Y-13467926D02*
X8156533Y-13525068D01*
X8156533Y-13525068D02*
X8147010Y-13544116D01*
X8147010Y-13544116D02*
X8137486Y-13553640D01*
X8137486Y-13553640D02*
X8118438Y-13563164D01*
X8118438Y-13563164D02*
X8089867Y-13563164D01*
X8270819Y-13563164D02*
X8251771Y-13553640D01*
X8251771Y-13553640D02*
X8242248Y-13534592D01*
X8242248Y-13534592D02*
X8242248Y-13363164D01*
X8423200Y-13553640D02*
X8404153Y-13563164D01*
X8404153Y-13563164D02*
X8366057Y-13563164D01*
X8366057Y-13563164D02*
X8347010Y-13553640D01*
X8347010Y-13553640D02*
X8337486Y-13534592D01*
X8337486Y-13534592D02*
X8337486Y-13458402D01*
X8337486Y-13458402D02*
X8347010Y-13439354D01*
X8347010Y-13439354D02*
X8366057Y-13429830D01*
X8366057Y-13429830D02*
X8404153Y-13429830D01*
X8404153Y-13429830D02*
X8423200Y-13439354D01*
X8423200Y-13439354D02*
X8432724Y-13458402D01*
X8432724Y-13458402D02*
X8432724Y-13477449D01*
X8432724Y-13477449D02*
X8337486Y-13496497D01*
X8508914Y-13553640D02*
X8527962Y-13563164D01*
X8527962Y-13563164D02*
X8566057Y-13563164D01*
X8566057Y-13563164D02*
X8585105Y-13553640D01*
X8585105Y-13553640D02*
X8594629Y-13534592D01*
X8594629Y-13534592D02*
X8594629Y-13525068D01*
X8594629Y-13525068D02*
X8585105Y-13506021D01*
X8585105Y-13506021D02*
X8566057Y-13496497D01*
X8566057Y-13496497D02*
X8537486Y-13496497D01*
X8537486Y-13496497D02*
X8518438Y-13486973D01*
X8518438Y-13486973D02*
X8508914Y-13467926D01*
X8508914Y-13467926D02*
X8508914Y-13458402D01*
X8508914Y-13458402D02*
X8518438Y-13439354D01*
X8518438Y-13439354D02*
X8537486Y-13429830D01*
X8537486Y-13429830D02*
X8566057Y-13429830D01*
X8566057Y-13429830D02*
X8585105Y-13439354D01*
X8661295Y-13639354D02*
X8670819Y-13629830D01*
X8670819Y-13629830D02*
X8689867Y-13601259D01*
X8689867Y-13601259D02*
X8699391Y-13582211D01*
X8699391Y-13582211D02*
X8708914Y-13553640D01*
X8708914Y-13553640D02*
X8718438Y-13506021D01*
X8718438Y-13506021D02*
X8718438Y-13467926D01*
X8718438Y-13467926D02*
X8708914Y-13420307D01*
X8708914Y-13420307D02*
X8699391Y-13391735D01*
X8699391Y-13391735D02*
X8689867Y-13372688D01*
X8689867Y-13372688D02*
X8670819Y-13344116D01*
X8670819Y-13344116D02*
X8661295Y-13334592D01*
D15*
X3492100Y-13767500D02*
X3492100Y-13703860D01*
X3428460Y-13703860D01*
X3428460Y-13767500D01*
X3492100Y-13767500D01*
D11*
X3804152Y-13627164D02*
X3823200Y-13627164D01*
X3823200Y-13627164D02*
X3842247Y-13636688D01*
X3842247Y-13636688D02*
X3851771Y-13646211D01*
X3851771Y-13646211D02*
X3861295Y-13665259D01*
X3861295Y-13665259D02*
X3870819Y-13703354D01*
X3870819Y-13703354D02*
X3870819Y-13750973D01*
X3870819Y-13750973D02*
X3861295Y-13789068D01*
X3861295Y-13789068D02*
X3851771Y-13808116D01*
X3851771Y-13808116D02*
X3842247Y-13817640D01*
X3842247Y-13817640D02*
X3823200Y-13827164D01*
X3823200Y-13827164D02*
X3804152Y-13827164D01*
X3804152Y-13827164D02*
X3785104Y-13817640D01*
X3785104Y-13817640D02*
X3775581Y-13808116D01*
X3775581Y-13808116D02*
X3766057Y-13789068D01*
X3766057Y-13789068D02*
X3756533Y-13750973D01*
X3756533Y-13750973D02*
X3756533Y-13703354D01*
X3756533Y-13703354D02*
X3766057Y-13665259D01*
X3766057Y-13665259D02*
X3775581Y-13646211D01*
X3775581Y-13646211D02*
X3785104Y-13636688D01*
X3785104Y-13636688D02*
X3804152Y-13627164D01*
X3956533Y-13808116D02*
X3966057Y-13817640D01*
X3966057Y-13817640D02*
X3956533Y-13827164D01*
X3956533Y-13827164D02*
X3947009Y-13817640D01*
X3947009Y-13817640D02*
X3956533Y-13808116D01*
X3956533Y-13808116D02*
X3956533Y-13827164D01*
X4061295Y-13827164D02*
X4099390Y-13827164D01*
X4099390Y-13827164D02*
X4118438Y-13817640D01*
X4118438Y-13817640D02*
X4127962Y-13808116D01*
X4127962Y-13808116D02*
X4147009Y-13779545D01*
X4147009Y-13779545D02*
X4156533Y-13741449D01*
X4156533Y-13741449D02*
X4156533Y-13665259D01*
X4156533Y-13665259D02*
X4147009Y-13646211D01*
X4147009Y-13646211D02*
X4137485Y-13636688D01*
X4137485Y-13636688D02*
X4118438Y-13627164D01*
X4118438Y-13627164D02*
X4080342Y-13627164D01*
X4080342Y-13627164D02*
X4061295Y-13636688D01*
X4061295Y-13636688D02*
X4051771Y-13646211D01*
X4051771Y-13646211D02*
X4042247Y-13665259D01*
X4042247Y-13665259D02*
X4042247Y-13712878D01*
X4042247Y-13712878D02*
X4051771Y-13731926D01*
X4051771Y-13731926D02*
X4061295Y-13741449D01*
X4061295Y-13741449D02*
X4080342Y-13750973D01*
X4080342Y-13750973D02*
X4118438Y-13750973D01*
X4118438Y-13750973D02*
X4137485Y-13741449D01*
X4137485Y-13741449D02*
X4147009Y-13731926D01*
X4147009Y-13731926D02*
X4156533Y-13712878D01*
X4280343Y-13627164D02*
X4299390Y-13627164D01*
X4299390Y-13627164D02*
X4318438Y-13636688D01*
X4318438Y-13636688D02*
X4327962Y-13646211D01*
X4327962Y-13646211D02*
X4337485Y-13665259D01*
X4337485Y-13665259D02*
X4347009Y-13703354D01*
X4347009Y-13703354D02*
X4347009Y-13750973D01*
X4347009Y-13750973D02*
X4337485Y-13789068D01*
X4337485Y-13789068D02*
X4327962Y-13808116D01*
X4327962Y-13808116D02*
X4318438Y-13817640D01*
X4318438Y-13817640D02*
X4299390Y-13827164D01*
X4299390Y-13827164D02*
X4280343Y-13827164D01*
X4280343Y-13827164D02*
X4261295Y-13817640D01*
X4261295Y-13817640D02*
X4251771Y-13808116D01*
X4251771Y-13808116D02*
X4242247Y-13789068D01*
X4242247Y-13789068D02*
X4232724Y-13750973D01*
X4232724Y-13750973D02*
X4232724Y-13703354D01*
X4232724Y-13703354D02*
X4242247Y-13665259D01*
X4242247Y-13665259D02*
X4251771Y-13646211D01*
X4251771Y-13646211D02*
X4261295Y-13636688D01*
X4261295Y-13636688D02*
X4280343Y-13627164D01*
X4470819Y-13627164D02*
X4489866Y-13627164D01*
X4489866Y-13627164D02*
X4508914Y-13636688D01*
X4508914Y-13636688D02*
X4518438Y-13646211D01*
X4518438Y-13646211D02*
X4527962Y-13665259D01*
X4527962Y-13665259D02*
X4537485Y-13703354D01*
X4537485Y-13703354D02*
X4537485Y-13750973D01*
X4537485Y-13750973D02*
X4527962Y-13789068D01*
X4527962Y-13789068D02*
X4518438Y-13808116D01*
X4518438Y-13808116D02*
X4508914Y-13817640D01*
X4508914Y-13817640D02*
X4489866Y-13827164D01*
X4489866Y-13827164D02*
X4470819Y-13827164D01*
X4470819Y-13827164D02*
X4451771Y-13817640D01*
X4451771Y-13817640D02*
X4442247Y-13808116D01*
X4442247Y-13808116D02*
X4432724Y-13789068D01*
X4432724Y-13789068D02*
X4423200Y-13750973D01*
X4423200Y-13750973D02*
X4423200Y-13703354D01*
X4423200Y-13703354D02*
X4432724Y-13665259D01*
X4432724Y-13665259D02*
X4442247Y-13646211D01*
X4442247Y-13646211D02*
X4451771Y-13636688D01*
X4451771Y-13636688D02*
X4470819Y-13627164D01*
X4623200Y-13827164D02*
X4623200Y-13693830D01*
X4623200Y-13712878D02*
X4632724Y-13703354D01*
X4632724Y-13703354D02*
X4651771Y-13693830D01*
X4651771Y-13693830D02*
X4680343Y-13693830D01*
X4680343Y-13693830D02*
X4699390Y-13703354D01*
X4699390Y-13703354D02*
X4708914Y-13722402D01*
X4708914Y-13722402D02*
X4708914Y-13827164D01*
X4708914Y-13722402D02*
X4718438Y-13703354D01*
X4718438Y-13703354D02*
X4737485Y-13693830D01*
X4737485Y-13693830D02*
X4766057Y-13693830D01*
X4766057Y-13693830D02*
X4785105Y-13703354D01*
X4785105Y-13703354D02*
X4794628Y-13722402D01*
X4794628Y-13722402D02*
X4794628Y-13827164D01*
X4889866Y-13827164D02*
X4889866Y-13693830D01*
X4889866Y-13712878D02*
X4899390Y-13703354D01*
X4899390Y-13703354D02*
X4918438Y-13693830D01*
X4918438Y-13693830D02*
X4947009Y-13693830D01*
X4947009Y-13693830D02*
X4966057Y-13703354D01*
X4966057Y-13703354D02*
X4975581Y-13722402D01*
X4975581Y-13722402D02*
X4975581Y-13827164D01*
X4975581Y-13722402D02*
X4985105Y-13703354D01*
X4985105Y-13703354D02*
X5004152Y-13693830D01*
X5004152Y-13693830D02*
X5032724Y-13693830D01*
X5032724Y-13693830D02*
X5051771Y-13703354D01*
X5051771Y-13703354D02*
X5061295Y-13722402D01*
X5061295Y-13722402D02*
X5061295Y-13827164D01*
X5451771Y-13617640D02*
X5280343Y-13874783D01*
X5708914Y-13627164D02*
X5727962Y-13627164D01*
X5727962Y-13627164D02*
X5747009Y-13636688D01*
X5747009Y-13636688D02*
X5756533Y-13646211D01*
X5756533Y-13646211D02*
X5766057Y-13665259D01*
X5766057Y-13665259D02*
X5775581Y-13703354D01*
X5775581Y-13703354D02*
X5775581Y-13750973D01*
X5775581Y-13750973D02*
X5766057Y-13789068D01*
X5766057Y-13789068D02*
X5756533Y-13808116D01*
X5756533Y-13808116D02*
X5747009Y-13817640D01*
X5747009Y-13817640D02*
X5727962Y-13827164D01*
X5727962Y-13827164D02*
X5708914Y-13827164D01*
X5708914Y-13827164D02*
X5689866Y-13817640D01*
X5689866Y-13817640D02*
X5680343Y-13808116D01*
X5680343Y-13808116D02*
X5670819Y-13789068D01*
X5670819Y-13789068D02*
X5661295Y-13750973D01*
X5661295Y-13750973D02*
X5661295Y-13703354D01*
X5661295Y-13703354D02*
X5670819Y-13665259D01*
X5670819Y-13665259D02*
X5680343Y-13646211D01*
X5680343Y-13646211D02*
X5689866Y-13636688D01*
X5689866Y-13636688D02*
X5708914Y-13627164D01*
X5861295Y-13808116D02*
X5870819Y-13817640D01*
X5870819Y-13817640D02*
X5861295Y-13827164D01*
X5861295Y-13827164D02*
X5851771Y-13817640D01*
X5851771Y-13817640D02*
X5861295Y-13808116D01*
X5861295Y-13808116D02*
X5861295Y-13827164D01*
X5994628Y-13627164D02*
X6013676Y-13627164D01*
X6013676Y-13627164D02*
X6032724Y-13636688D01*
X6032724Y-13636688D02*
X6042247Y-13646211D01*
X6042247Y-13646211D02*
X6051771Y-13665259D01*
X6051771Y-13665259D02*
X6061295Y-13703354D01*
X6061295Y-13703354D02*
X6061295Y-13750973D01*
X6061295Y-13750973D02*
X6051771Y-13789068D01*
X6051771Y-13789068D02*
X6042247Y-13808116D01*
X6042247Y-13808116D02*
X6032724Y-13817640D01*
X6032724Y-13817640D02*
X6013676Y-13827164D01*
X6013676Y-13827164D02*
X5994628Y-13827164D01*
X5994628Y-13827164D02*
X5975581Y-13817640D01*
X5975581Y-13817640D02*
X5966057Y-13808116D01*
X5966057Y-13808116D02*
X5956533Y-13789068D01*
X5956533Y-13789068D02*
X5947009Y-13750973D01*
X5947009Y-13750973D02*
X5947009Y-13703354D01*
X5947009Y-13703354D02*
X5956533Y-13665259D01*
X5956533Y-13665259D02*
X5966057Y-13646211D01*
X5966057Y-13646211D02*
X5975581Y-13636688D01*
X5975581Y-13636688D02*
X5994628Y-13627164D01*
X6127962Y-13627164D02*
X6251771Y-13627164D01*
X6251771Y-13627164D02*
X6185105Y-13703354D01*
X6185105Y-13703354D02*
X6213676Y-13703354D01*
X6213676Y-13703354D02*
X6232724Y-13712878D01*
X6232724Y-13712878D02*
X6242247Y-13722402D01*
X6242247Y-13722402D02*
X6251771Y-13741449D01*
X6251771Y-13741449D02*
X6251771Y-13789068D01*
X6251771Y-13789068D02*
X6242247Y-13808116D01*
X6242247Y-13808116D02*
X6232724Y-13817640D01*
X6232724Y-13817640D02*
X6213676Y-13827164D01*
X6213676Y-13827164D02*
X6156533Y-13827164D01*
X6156533Y-13827164D02*
X6137486Y-13817640D01*
X6137486Y-13817640D02*
X6127962Y-13808116D01*
X6432724Y-13627164D02*
X6337486Y-13627164D01*
X6337486Y-13627164D02*
X6327962Y-13722402D01*
X6327962Y-13722402D02*
X6337486Y-13712878D01*
X6337486Y-13712878D02*
X6356533Y-13703354D01*
X6356533Y-13703354D02*
X6404152Y-13703354D01*
X6404152Y-13703354D02*
X6423200Y-13712878D01*
X6423200Y-13712878D02*
X6432724Y-13722402D01*
X6432724Y-13722402D02*
X6442247Y-13741449D01*
X6442247Y-13741449D02*
X6442247Y-13789068D01*
X6442247Y-13789068D02*
X6432724Y-13808116D01*
X6432724Y-13808116D02*
X6423200Y-13817640D01*
X6423200Y-13817640D02*
X6404152Y-13827164D01*
X6404152Y-13827164D02*
X6356533Y-13827164D01*
X6356533Y-13827164D02*
X6337486Y-13817640D01*
X6337486Y-13817640D02*
X6327962Y-13808116D01*
X6613676Y-13693830D02*
X6613676Y-13827164D01*
X6566057Y-13617640D02*
X6518438Y-13760497D01*
X6518438Y-13760497D02*
X6642247Y-13760497D01*
X6708914Y-13627164D02*
X6708914Y-13665259D01*
X6785105Y-13627164D02*
X6785105Y-13665259D01*
X7080343Y-13903354D02*
X7070819Y-13893830D01*
X7070819Y-13893830D02*
X7051771Y-13865259D01*
X7051771Y-13865259D02*
X7042248Y-13846211D01*
X7042248Y-13846211D02*
X7032724Y-13817640D01*
X7032724Y-13817640D02*
X7023200Y-13770021D01*
X7023200Y-13770021D02*
X7023200Y-13731926D01*
X7023200Y-13731926D02*
X7032724Y-13684307D01*
X7032724Y-13684307D02*
X7042248Y-13655735D01*
X7042248Y-13655735D02*
X7051771Y-13636688D01*
X7051771Y-13636688D02*
X7070819Y-13608116D01*
X7070819Y-13608116D02*
X7080343Y-13598592D01*
X7242248Y-13693830D02*
X7242248Y-13827164D01*
X7194628Y-13617640D02*
X7147009Y-13760497D01*
X7147009Y-13760497D02*
X7270819Y-13760497D01*
X7499390Y-13827164D02*
X7499390Y-13627164D01*
X7585105Y-13827164D02*
X7585105Y-13722402D01*
X7585105Y-13722402D02*
X7575581Y-13703354D01*
X7575581Y-13703354D02*
X7556533Y-13693830D01*
X7556533Y-13693830D02*
X7527962Y-13693830D01*
X7527962Y-13693830D02*
X7508914Y-13703354D01*
X7508914Y-13703354D02*
X7499390Y-13712878D01*
X7708914Y-13827164D02*
X7689867Y-13817640D01*
X7689867Y-13817640D02*
X7680343Y-13808116D01*
X7680343Y-13808116D02*
X7670819Y-13789068D01*
X7670819Y-13789068D02*
X7670819Y-13731926D01*
X7670819Y-13731926D02*
X7680343Y-13712878D01*
X7680343Y-13712878D02*
X7689867Y-13703354D01*
X7689867Y-13703354D02*
X7708914Y-13693830D01*
X7708914Y-13693830D02*
X7737486Y-13693830D01*
X7737486Y-13693830D02*
X7756533Y-13703354D01*
X7756533Y-13703354D02*
X7766057Y-13712878D01*
X7766057Y-13712878D02*
X7775581Y-13731926D01*
X7775581Y-13731926D02*
X7775581Y-13789068D01*
X7775581Y-13789068D02*
X7766057Y-13808116D01*
X7766057Y-13808116D02*
X7756533Y-13817640D01*
X7756533Y-13817640D02*
X7737486Y-13827164D01*
X7737486Y-13827164D02*
X7708914Y-13827164D01*
X7889867Y-13827164D02*
X7870819Y-13817640D01*
X7870819Y-13817640D02*
X7861295Y-13798592D01*
X7861295Y-13798592D02*
X7861295Y-13627164D01*
X8042248Y-13817640D02*
X8023200Y-13827164D01*
X8023200Y-13827164D02*
X7985105Y-13827164D01*
X7985105Y-13827164D02*
X7966057Y-13817640D01*
X7966057Y-13817640D02*
X7956533Y-13798592D01*
X7956533Y-13798592D02*
X7956533Y-13722402D01*
X7956533Y-13722402D02*
X7966057Y-13703354D01*
X7966057Y-13703354D02*
X7985105Y-13693830D01*
X7985105Y-13693830D02*
X8023200Y-13693830D01*
X8023200Y-13693830D02*
X8042248Y-13703354D01*
X8042248Y-13703354D02*
X8051771Y-13722402D01*
X8051771Y-13722402D02*
X8051771Y-13741449D01*
X8051771Y-13741449D02*
X7956533Y-13760497D01*
X8127962Y-13817640D02*
X8147010Y-13827164D01*
X8147010Y-13827164D02*
X8185105Y-13827164D01*
X8185105Y-13827164D02*
X8204152Y-13817640D01*
X8204152Y-13817640D02*
X8213676Y-13798592D01*
X8213676Y-13798592D02*
X8213676Y-13789068D01*
X8213676Y-13789068D02*
X8204152Y-13770021D01*
X8204152Y-13770021D02*
X8185105Y-13760497D01*
X8185105Y-13760497D02*
X8156533Y-13760497D01*
X8156533Y-13760497D02*
X8137486Y-13750973D01*
X8137486Y-13750973D02*
X8127962Y-13731926D01*
X8127962Y-13731926D02*
X8127962Y-13722402D01*
X8127962Y-13722402D02*
X8137486Y-13703354D01*
X8137486Y-13703354D02*
X8156533Y-13693830D01*
X8156533Y-13693830D02*
X8185105Y-13693830D01*
X8185105Y-13693830D02*
X8204152Y-13703354D01*
X8280343Y-13903354D02*
X8289867Y-13893830D01*
X8289867Y-13893830D02*
X8308914Y-13865259D01*
X8308914Y-13865259D02*
X8318438Y-13846211D01*
X8318438Y-13846211D02*
X8327962Y-13817640D01*
X8327962Y-13817640D02*
X8337486Y-13770021D01*
X8337486Y-13770021D02*
X8337486Y-13731926D01*
X8337486Y-13731926D02*
X8327962Y-13684307D01*
X8327962Y-13684307D02*
X8318438Y-13655735D01*
X8318438Y-13655735D02*
X8308914Y-13636688D01*
X8308914Y-13636688D02*
X8289867Y-13608116D01*
X8289867Y-13608116D02*
X8280343Y-13598592D01*
D10*
X3455280Y-14049680D02*
X3505280Y-13999680D01*
X3455280Y-13949680D01*
X3405280Y-13999680D01*
X3455280Y-14049680D01*
D11*
X3870819Y-14091164D02*
X3756533Y-14091164D01*
X3813676Y-14091164D02*
X3813676Y-13891164D01*
X3813676Y-13891164D02*
X3794628Y-13919735D01*
X3794628Y-13919735D02*
X3775581Y-13938783D01*
X3775581Y-13938783D02*
X3756533Y-13948307D01*
X3956533Y-14072116D02*
X3966057Y-14081640D01*
X3966057Y-14081640D02*
X3956533Y-14091164D01*
X3956533Y-14091164D02*
X3947009Y-14081640D01*
X3947009Y-14081640D02*
X3956533Y-14072116D01*
X3956533Y-14072116D02*
X3956533Y-14091164D01*
X4089866Y-13891164D02*
X4108914Y-13891164D01*
X4108914Y-13891164D02*
X4127962Y-13900688D01*
X4127962Y-13900688D02*
X4137485Y-13910211D01*
X4137485Y-13910211D02*
X4147009Y-13929259D01*
X4147009Y-13929259D02*
X4156533Y-13967354D01*
X4156533Y-13967354D02*
X4156533Y-14014973D01*
X4156533Y-14014973D02*
X4147009Y-14053068D01*
X4147009Y-14053068D02*
X4137485Y-14072116D01*
X4137485Y-14072116D02*
X4127962Y-14081640D01*
X4127962Y-14081640D02*
X4108914Y-14091164D01*
X4108914Y-14091164D02*
X4089866Y-14091164D01*
X4089866Y-14091164D02*
X4070819Y-14081640D01*
X4070819Y-14081640D02*
X4061295Y-14072116D01*
X4061295Y-14072116D02*
X4051771Y-14053068D01*
X4051771Y-14053068D02*
X4042247Y-14014973D01*
X4042247Y-14014973D02*
X4042247Y-13967354D01*
X4042247Y-13967354D02*
X4051771Y-13929259D01*
X4051771Y-13929259D02*
X4061295Y-13910211D01*
X4061295Y-13910211D02*
X4070819Y-13900688D01*
X4070819Y-13900688D02*
X4089866Y-13891164D01*
X4280343Y-13891164D02*
X4299390Y-13891164D01*
X4299390Y-13891164D02*
X4318438Y-13900688D01*
X4318438Y-13900688D02*
X4327962Y-13910211D01*
X4327962Y-13910211D02*
X4337485Y-13929259D01*
X4337485Y-13929259D02*
X4347009Y-13967354D01*
X4347009Y-13967354D02*
X4347009Y-14014973D01*
X4347009Y-14014973D02*
X4337485Y-14053068D01*
X4337485Y-14053068D02*
X4327962Y-14072116D01*
X4327962Y-14072116D02*
X4318438Y-14081640D01*
X4318438Y-14081640D02*
X4299390Y-14091164D01*
X4299390Y-14091164D02*
X4280343Y-14091164D01*
X4280343Y-14091164D02*
X4261295Y-14081640D01*
X4261295Y-14081640D02*
X4251771Y-14072116D01*
X4251771Y-14072116D02*
X4242247Y-14053068D01*
X4242247Y-14053068D02*
X4232724Y-14014973D01*
X4232724Y-14014973D02*
X4232724Y-13967354D01*
X4232724Y-13967354D02*
X4242247Y-13929259D01*
X4242247Y-13929259D02*
X4251771Y-13910211D01*
X4251771Y-13910211D02*
X4261295Y-13900688D01*
X4261295Y-13900688D02*
X4280343Y-13891164D01*
X4470819Y-13891164D02*
X4489866Y-13891164D01*
X4489866Y-13891164D02*
X4508914Y-13900688D01*
X4508914Y-13900688D02*
X4518438Y-13910211D01*
X4518438Y-13910211D02*
X4527962Y-13929259D01*
X4527962Y-13929259D02*
X4537485Y-13967354D01*
X4537485Y-13967354D02*
X4537485Y-14014973D01*
X4537485Y-14014973D02*
X4527962Y-14053068D01*
X4527962Y-14053068D02*
X4518438Y-14072116D01*
X4518438Y-14072116D02*
X4508914Y-14081640D01*
X4508914Y-14081640D02*
X4489866Y-14091164D01*
X4489866Y-14091164D02*
X4470819Y-14091164D01*
X4470819Y-14091164D02*
X4451771Y-14081640D01*
X4451771Y-14081640D02*
X4442247Y-14072116D01*
X4442247Y-14072116D02*
X4432724Y-14053068D01*
X4432724Y-14053068D02*
X4423200Y-14014973D01*
X4423200Y-14014973D02*
X4423200Y-13967354D01*
X4423200Y-13967354D02*
X4432724Y-13929259D01*
X4432724Y-13929259D02*
X4442247Y-13910211D01*
X4442247Y-13910211D02*
X4451771Y-13900688D01*
X4451771Y-13900688D02*
X4470819Y-13891164D01*
X4623200Y-14091164D02*
X4623200Y-13957830D01*
X4623200Y-13976878D02*
X4632724Y-13967354D01*
X4632724Y-13967354D02*
X4651771Y-13957830D01*
X4651771Y-13957830D02*
X4680343Y-13957830D01*
X4680343Y-13957830D02*
X4699390Y-13967354D01*
X4699390Y-13967354D02*
X4708914Y-13986402D01*
X4708914Y-13986402D02*
X4708914Y-14091164D01*
X4708914Y-13986402D02*
X4718438Y-13967354D01*
X4718438Y-13967354D02*
X4737485Y-13957830D01*
X4737485Y-13957830D02*
X4766057Y-13957830D01*
X4766057Y-13957830D02*
X4785105Y-13967354D01*
X4785105Y-13967354D02*
X4794628Y-13986402D01*
X4794628Y-13986402D02*
X4794628Y-14091164D01*
X4889866Y-14091164D02*
X4889866Y-13957830D01*
X4889866Y-13976878D02*
X4899390Y-13967354D01*
X4899390Y-13967354D02*
X4918438Y-13957830D01*
X4918438Y-13957830D02*
X4947009Y-13957830D01*
X4947009Y-13957830D02*
X4966057Y-13967354D01*
X4966057Y-13967354D02*
X4975581Y-13986402D01*
X4975581Y-13986402D02*
X4975581Y-14091164D01*
X4975581Y-13986402D02*
X4985105Y-13967354D01*
X4985105Y-13967354D02*
X5004152Y-13957830D01*
X5004152Y-13957830D02*
X5032724Y-13957830D01*
X5032724Y-13957830D02*
X5051771Y-13967354D01*
X5051771Y-13967354D02*
X5061295Y-13986402D01*
X5061295Y-13986402D02*
X5061295Y-14091164D01*
X5451771Y-13881640D02*
X5280343Y-14138783D01*
X5708914Y-13891164D02*
X5727962Y-13891164D01*
X5727962Y-13891164D02*
X5747009Y-13900688D01*
X5747009Y-13900688D02*
X5756533Y-13910211D01*
X5756533Y-13910211D02*
X5766057Y-13929259D01*
X5766057Y-13929259D02*
X5775581Y-13967354D01*
X5775581Y-13967354D02*
X5775581Y-14014973D01*
X5775581Y-14014973D02*
X5766057Y-14053068D01*
X5766057Y-14053068D02*
X5756533Y-14072116D01*
X5756533Y-14072116D02*
X5747009Y-14081640D01*
X5747009Y-14081640D02*
X5727962Y-14091164D01*
X5727962Y-14091164D02*
X5708914Y-14091164D01*
X5708914Y-14091164D02*
X5689866Y-14081640D01*
X5689866Y-14081640D02*
X5680343Y-14072116D01*
X5680343Y-14072116D02*
X5670819Y-14053068D01*
X5670819Y-14053068D02*
X5661295Y-14014973D01*
X5661295Y-14014973D02*
X5661295Y-13967354D01*
X5661295Y-13967354D02*
X5670819Y-13929259D01*
X5670819Y-13929259D02*
X5680343Y-13910211D01*
X5680343Y-13910211D02*
X5689866Y-13900688D01*
X5689866Y-13900688D02*
X5708914Y-13891164D01*
X5861295Y-14072116D02*
X5870819Y-14081640D01*
X5870819Y-14081640D02*
X5861295Y-14091164D01*
X5861295Y-14091164D02*
X5851771Y-14081640D01*
X5851771Y-14081640D02*
X5861295Y-14072116D01*
X5861295Y-14072116D02*
X5861295Y-14091164D01*
X5994628Y-13891164D02*
X6013676Y-13891164D01*
X6013676Y-13891164D02*
X6032724Y-13900688D01*
X6032724Y-13900688D02*
X6042247Y-13910211D01*
X6042247Y-13910211D02*
X6051771Y-13929259D01*
X6051771Y-13929259D02*
X6061295Y-13967354D01*
X6061295Y-13967354D02*
X6061295Y-14014973D01*
X6061295Y-14014973D02*
X6051771Y-14053068D01*
X6051771Y-14053068D02*
X6042247Y-14072116D01*
X6042247Y-14072116D02*
X6032724Y-14081640D01*
X6032724Y-14081640D02*
X6013676Y-14091164D01*
X6013676Y-14091164D02*
X5994628Y-14091164D01*
X5994628Y-14091164D02*
X5975581Y-14081640D01*
X5975581Y-14081640D02*
X5966057Y-14072116D01*
X5966057Y-14072116D02*
X5956533Y-14053068D01*
X5956533Y-14053068D02*
X5947009Y-14014973D01*
X5947009Y-14014973D02*
X5947009Y-13967354D01*
X5947009Y-13967354D02*
X5956533Y-13929259D01*
X5956533Y-13929259D02*
X5966057Y-13910211D01*
X5966057Y-13910211D02*
X5975581Y-13900688D01*
X5975581Y-13900688D02*
X5994628Y-13891164D01*
X6127962Y-13891164D02*
X6251771Y-13891164D01*
X6251771Y-13891164D02*
X6185105Y-13967354D01*
X6185105Y-13967354D02*
X6213676Y-13967354D01*
X6213676Y-13967354D02*
X6232724Y-13976878D01*
X6232724Y-13976878D02*
X6242247Y-13986402D01*
X6242247Y-13986402D02*
X6251771Y-14005449D01*
X6251771Y-14005449D02*
X6251771Y-14053068D01*
X6251771Y-14053068D02*
X6242247Y-14072116D01*
X6242247Y-14072116D02*
X6232724Y-14081640D01*
X6232724Y-14081640D02*
X6213676Y-14091164D01*
X6213676Y-14091164D02*
X6156533Y-14091164D01*
X6156533Y-14091164D02*
X6137486Y-14081640D01*
X6137486Y-14081640D02*
X6127962Y-14072116D01*
X6347009Y-14091164D02*
X6385105Y-14091164D01*
X6385105Y-14091164D02*
X6404152Y-14081640D01*
X6404152Y-14081640D02*
X6413676Y-14072116D01*
X6413676Y-14072116D02*
X6432724Y-14043545D01*
X6432724Y-14043545D02*
X6442247Y-14005449D01*
X6442247Y-14005449D02*
X6442247Y-13929259D01*
X6442247Y-13929259D02*
X6432724Y-13910211D01*
X6432724Y-13910211D02*
X6423200Y-13900688D01*
X6423200Y-13900688D02*
X6404152Y-13891164D01*
X6404152Y-13891164D02*
X6366057Y-13891164D01*
X6366057Y-13891164D02*
X6347009Y-13900688D01*
X6347009Y-13900688D02*
X6337486Y-13910211D01*
X6337486Y-13910211D02*
X6327962Y-13929259D01*
X6327962Y-13929259D02*
X6327962Y-13976878D01*
X6327962Y-13976878D02*
X6337486Y-13995926D01*
X6337486Y-13995926D02*
X6347009Y-14005449D01*
X6347009Y-14005449D02*
X6366057Y-14014973D01*
X6366057Y-14014973D02*
X6404152Y-14014973D01*
X6404152Y-14014973D02*
X6423200Y-14005449D01*
X6423200Y-14005449D02*
X6432724Y-13995926D01*
X6432724Y-13995926D02*
X6442247Y-13976878D01*
X6613676Y-13957830D02*
X6613676Y-14091164D01*
X6566057Y-13881640D02*
X6518438Y-14024497D01*
X6518438Y-14024497D02*
X6642247Y-14024497D01*
X6708914Y-13891164D02*
X6708914Y-13929259D01*
X6785105Y-13891164D02*
X6785105Y-13929259D01*
X7080343Y-14167354D02*
X7070819Y-14157830D01*
X7070819Y-14157830D02*
X7051771Y-14129259D01*
X7051771Y-14129259D02*
X7042248Y-14110211D01*
X7042248Y-14110211D02*
X7032724Y-14081640D01*
X7032724Y-14081640D02*
X7023200Y-14034021D01*
X7023200Y-14034021D02*
X7023200Y-13995926D01*
X7023200Y-13995926D02*
X7032724Y-13948307D01*
X7032724Y-13948307D02*
X7042248Y-13919735D01*
X7042248Y-13919735D02*
X7051771Y-13900688D01*
X7051771Y-13900688D02*
X7070819Y-13872116D01*
X7070819Y-13872116D02*
X7080343Y-13862592D01*
X7147009Y-13910211D02*
X7156533Y-13900688D01*
X7156533Y-13900688D02*
X7175581Y-13891164D01*
X7175581Y-13891164D02*
X7223200Y-13891164D01*
X7223200Y-13891164D02*
X7242248Y-13900688D01*
X7242248Y-13900688D02*
X7251771Y-13910211D01*
X7251771Y-13910211D02*
X7261295Y-13929259D01*
X7261295Y-13929259D02*
X7261295Y-13948307D01*
X7261295Y-13948307D02*
X7251771Y-13976878D01*
X7251771Y-13976878D02*
X7137486Y-14091164D01*
X7137486Y-14091164D02*
X7261295Y-14091164D01*
X7327962Y-13891164D02*
X7451771Y-13891164D01*
X7451771Y-13891164D02*
X7385105Y-13967354D01*
X7385105Y-13967354D02*
X7413676Y-13967354D01*
X7413676Y-13967354D02*
X7432724Y-13976878D01*
X7432724Y-13976878D02*
X7442248Y-13986402D01*
X7442248Y-13986402D02*
X7451771Y-14005449D01*
X7451771Y-14005449D02*
X7451771Y-14053068D01*
X7451771Y-14053068D02*
X7442248Y-14072116D01*
X7442248Y-14072116D02*
X7432724Y-14081640D01*
X7432724Y-14081640D02*
X7413676Y-14091164D01*
X7413676Y-14091164D02*
X7356533Y-14091164D01*
X7356533Y-14091164D02*
X7337486Y-14081640D01*
X7337486Y-14081640D02*
X7327962Y-14072116D01*
X7689867Y-14091164D02*
X7689867Y-13891164D01*
X7775581Y-14091164D02*
X7775581Y-13986402D01*
X7775581Y-13986402D02*
X7766057Y-13967354D01*
X7766057Y-13967354D02*
X7747010Y-13957830D01*
X7747010Y-13957830D02*
X7718438Y-13957830D01*
X7718438Y-13957830D02*
X7699390Y-13967354D01*
X7699390Y-13967354D02*
X7689867Y-13976878D01*
X7899390Y-14091164D02*
X7880343Y-14081640D01*
X7880343Y-14081640D02*
X7870819Y-14072116D01*
X7870819Y-14072116D02*
X7861295Y-14053068D01*
X7861295Y-14053068D02*
X7861295Y-13995926D01*
X7861295Y-13995926D02*
X7870819Y-13976878D01*
X7870819Y-13976878D02*
X7880343Y-13967354D01*
X7880343Y-13967354D02*
X7899390Y-13957830D01*
X7899390Y-13957830D02*
X7927962Y-13957830D01*
X7927962Y-13957830D02*
X7947010Y-13967354D01*
X7947010Y-13967354D02*
X7956533Y-13976878D01*
X7956533Y-13976878D02*
X7966057Y-13995926D01*
X7966057Y-13995926D02*
X7966057Y-14053068D01*
X7966057Y-14053068D02*
X7956533Y-14072116D01*
X7956533Y-14072116D02*
X7947010Y-14081640D01*
X7947010Y-14081640D02*
X7927962Y-14091164D01*
X7927962Y-14091164D02*
X7899390Y-14091164D01*
X8080343Y-14091164D02*
X8061295Y-14081640D01*
X8061295Y-14081640D02*
X8051771Y-14062592D01*
X8051771Y-14062592D02*
X8051771Y-13891164D01*
X8232724Y-14081640D02*
X8213676Y-14091164D01*
X8213676Y-14091164D02*
X8175581Y-14091164D01*
X8175581Y-14091164D02*
X8156533Y-14081640D01*
X8156533Y-14081640D02*
X8147010Y-14062592D01*
X8147010Y-14062592D02*
X8147010Y-13986402D01*
X8147010Y-13986402D02*
X8156533Y-13967354D01*
X8156533Y-13967354D02*
X8175581Y-13957830D01*
X8175581Y-13957830D02*
X8213676Y-13957830D01*
X8213676Y-13957830D02*
X8232724Y-13967354D01*
X8232724Y-13967354D02*
X8242248Y-13986402D01*
X8242248Y-13986402D02*
X8242248Y-14005449D01*
X8242248Y-14005449D02*
X8147010Y-14024497D01*
X8318438Y-14081640D02*
X8337486Y-14091164D01*
X8337486Y-14091164D02*
X8375581Y-14091164D01*
X8375581Y-14091164D02*
X8394629Y-14081640D01*
X8394629Y-14081640D02*
X8404153Y-14062592D01*
X8404153Y-14062592D02*
X8404153Y-14053068D01*
X8404153Y-14053068D02*
X8394629Y-14034021D01*
X8394629Y-14034021D02*
X8375581Y-14024497D01*
X8375581Y-14024497D02*
X8347010Y-14024497D01*
X8347010Y-14024497D02*
X8327962Y-14014973D01*
X8327962Y-14014973D02*
X8318438Y-13995926D01*
X8318438Y-13995926D02*
X8318438Y-13986402D01*
X8318438Y-13986402D02*
X8327962Y-13967354D01*
X8327962Y-13967354D02*
X8347010Y-13957830D01*
X8347010Y-13957830D02*
X8375581Y-13957830D01*
X8375581Y-13957830D02*
X8394629Y-13967354D01*
X8642248Y-14014973D02*
X8794629Y-14014973D01*
X8718438Y-14091164D02*
X8718438Y-13938783D01*
X9023200Y-13891164D02*
X9147010Y-13891164D01*
X9147010Y-13891164D02*
X9080343Y-13967354D01*
X9080343Y-13967354D02*
X9108915Y-13967354D01*
X9108915Y-13967354D02*
X9127962Y-13976878D01*
X9127962Y-13976878D02*
X9137486Y-13986402D01*
X9137486Y-13986402D02*
X9147010Y-14005449D01*
X9147010Y-14005449D02*
X9147010Y-14053068D01*
X9147010Y-14053068D02*
X9137486Y-14072116D01*
X9137486Y-14072116D02*
X9127962Y-14081640D01*
X9127962Y-14081640D02*
X9108915Y-14091164D01*
X9108915Y-14091164D02*
X9051772Y-14091164D01*
X9051772Y-14091164D02*
X9032724Y-14081640D01*
X9032724Y-14081640D02*
X9023200Y-14072116D01*
X9375581Y-14081640D02*
X9394629Y-14091164D01*
X9394629Y-14091164D02*
X9432724Y-14091164D01*
X9432724Y-14091164D02*
X9451772Y-14081640D01*
X9451772Y-14081640D02*
X9461296Y-14062592D01*
X9461296Y-14062592D02*
X9461296Y-14053068D01*
X9461296Y-14053068D02*
X9451772Y-14034021D01*
X9451772Y-14034021D02*
X9432724Y-14024497D01*
X9432724Y-14024497D02*
X9404153Y-14024497D01*
X9404153Y-14024497D02*
X9385105Y-14014973D01*
X9385105Y-14014973D02*
X9375581Y-13995926D01*
X9375581Y-13995926D02*
X9375581Y-13986402D01*
X9375581Y-13986402D02*
X9385105Y-13967354D01*
X9385105Y-13967354D02*
X9404153Y-13957830D01*
X9404153Y-13957830D02*
X9432724Y-13957830D01*
X9432724Y-13957830D02*
X9451772Y-13967354D01*
X9575581Y-14091164D02*
X9556534Y-14081640D01*
X9556534Y-14081640D02*
X9547010Y-14062592D01*
X9547010Y-14062592D02*
X9547010Y-13891164D01*
X9680343Y-14091164D02*
X9661296Y-14081640D01*
X9661296Y-14081640D02*
X9651772Y-14072116D01*
X9651772Y-14072116D02*
X9642248Y-14053068D01*
X9642248Y-14053068D02*
X9642248Y-13995926D01*
X9642248Y-13995926D02*
X9651772Y-13976878D01*
X9651772Y-13976878D02*
X9661296Y-13967354D01*
X9661296Y-13967354D02*
X9680343Y-13957830D01*
X9680343Y-13957830D02*
X9708915Y-13957830D01*
X9708915Y-13957830D02*
X9727962Y-13967354D01*
X9727962Y-13967354D02*
X9737486Y-13976878D01*
X9737486Y-13976878D02*
X9747010Y-13995926D01*
X9747010Y-13995926D02*
X9747010Y-14053068D01*
X9747010Y-14053068D02*
X9737486Y-14072116D01*
X9737486Y-14072116D02*
X9727962Y-14081640D01*
X9727962Y-14081640D02*
X9708915Y-14091164D01*
X9708915Y-14091164D02*
X9680343Y-14091164D01*
X9804153Y-13957830D02*
X9880343Y-13957830D01*
X9832724Y-13891164D02*
X9832724Y-14062592D01*
X9832724Y-14062592D02*
X9842248Y-14081640D01*
X9842248Y-14081640D02*
X9861296Y-14091164D01*
X9861296Y-14091164D02*
X9880343Y-14091164D01*
X9937486Y-14081640D02*
X9956534Y-14091164D01*
X9956534Y-14091164D02*
X9994629Y-14091164D01*
X9994629Y-14091164D02*
X10013677Y-14081640D01*
X10013677Y-14081640D02*
X10023200Y-14062592D01*
X10023200Y-14062592D02*
X10023200Y-14053068D01*
X10023200Y-14053068D02*
X10013677Y-14034021D01*
X10013677Y-14034021D02*
X9994629Y-14024497D01*
X9994629Y-14024497D02*
X9966057Y-14024497D01*
X9966057Y-14024497D02*
X9947010Y-14014973D01*
X9947010Y-14014973D02*
X9937486Y-13995926D01*
X9937486Y-13995926D02*
X9937486Y-13986402D01*
X9937486Y-13986402D02*
X9947010Y-13967354D01*
X9947010Y-13967354D02*
X9966057Y-13957830D01*
X9966057Y-13957830D02*
X9994629Y-13957830D01*
X9994629Y-13957830D02*
X10013677Y-13967354D01*
X10089867Y-14167354D02*
X10099391Y-14157830D01*
X10099391Y-14157830D02*
X10118438Y-14129259D01*
X10118438Y-14129259D02*
X10127962Y-14110211D01*
X10127962Y-14110211D02*
X10137486Y-14081640D01*
X10137486Y-14081640D02*
X10147010Y-14034021D01*
X10147010Y-14034021D02*
X10147010Y-13995926D01*
X10147010Y-13995926D02*
X10137486Y-13948307D01*
X10137486Y-13948307D02*
X10127962Y-13919735D01*
X10127962Y-13919735D02*
X10118438Y-13900688D01*
X10118438Y-13900688D02*
X10099391Y-13872116D01*
X10099391Y-13872116D02*
X10089867Y-13862592D01*
X3305280Y-14163680D02*
X3505280Y-14363680D01*
X3505280Y-14163680D02*
X3305280Y-14363680D01*
X3505280Y-14263680D02*
G75*
G03*
X3505280Y-14263680I-100000J0D01*
G01*
X3747009Y-14155164D02*
X3870819Y-14155164D01*
X3870819Y-14155164D02*
X3804152Y-14231354D01*
X3804152Y-14231354D02*
X3832723Y-14231354D01*
X3832723Y-14231354D02*
X3851771Y-14240878D01*
X3851771Y-14240878D02*
X3861295Y-14250402D01*
X3861295Y-14250402D02*
X3870819Y-14269449D01*
X3870819Y-14269449D02*
X3870819Y-14317068D01*
X3870819Y-14317068D02*
X3861295Y-14336116D01*
X3861295Y-14336116D02*
X3851771Y-14345640D01*
X3851771Y-14345640D02*
X3832723Y-14355164D01*
X3832723Y-14355164D02*
X3775581Y-14355164D01*
X3775581Y-14355164D02*
X3756533Y-14345640D01*
X3756533Y-14345640D02*
X3747009Y-14336116D01*
X3956533Y-14336116D02*
X3966057Y-14345640D01*
X3966057Y-14345640D02*
X3956533Y-14355164D01*
X3956533Y-14355164D02*
X3947009Y-14345640D01*
X3947009Y-14345640D02*
X3956533Y-14336116D01*
X3956533Y-14336116D02*
X3956533Y-14355164D01*
X4032723Y-14155164D02*
X4166057Y-14155164D01*
X4166057Y-14155164D02*
X4080342Y-14355164D01*
X4280343Y-14155164D02*
X4299390Y-14155164D01*
X4299390Y-14155164D02*
X4318438Y-14164688D01*
X4318438Y-14164688D02*
X4327962Y-14174211D01*
X4327962Y-14174211D02*
X4337485Y-14193259D01*
X4337485Y-14193259D02*
X4347009Y-14231354D01*
X4347009Y-14231354D02*
X4347009Y-14278973D01*
X4347009Y-14278973D02*
X4337485Y-14317068D01*
X4337485Y-14317068D02*
X4327962Y-14336116D01*
X4327962Y-14336116D02*
X4318438Y-14345640D01*
X4318438Y-14345640D02*
X4299390Y-14355164D01*
X4299390Y-14355164D02*
X4280343Y-14355164D01*
X4280343Y-14355164D02*
X4261295Y-14345640D01*
X4261295Y-14345640D02*
X4251771Y-14336116D01*
X4251771Y-14336116D02*
X4242247Y-14317068D01*
X4242247Y-14317068D02*
X4232724Y-14278973D01*
X4232724Y-14278973D02*
X4232724Y-14231354D01*
X4232724Y-14231354D02*
X4242247Y-14193259D01*
X4242247Y-14193259D02*
X4251771Y-14174211D01*
X4251771Y-14174211D02*
X4261295Y-14164688D01*
X4261295Y-14164688D02*
X4280343Y-14155164D01*
X4470819Y-14155164D02*
X4489866Y-14155164D01*
X4489866Y-14155164D02*
X4508914Y-14164688D01*
X4508914Y-14164688D02*
X4518438Y-14174211D01*
X4518438Y-14174211D02*
X4527962Y-14193259D01*
X4527962Y-14193259D02*
X4537485Y-14231354D01*
X4537485Y-14231354D02*
X4537485Y-14278973D01*
X4537485Y-14278973D02*
X4527962Y-14317068D01*
X4527962Y-14317068D02*
X4518438Y-14336116D01*
X4518438Y-14336116D02*
X4508914Y-14345640D01*
X4508914Y-14345640D02*
X4489866Y-14355164D01*
X4489866Y-14355164D02*
X4470819Y-14355164D01*
X4470819Y-14355164D02*
X4451771Y-14345640D01*
X4451771Y-14345640D02*
X4442247Y-14336116D01*
X4442247Y-14336116D02*
X4432724Y-14317068D01*
X4432724Y-14317068D02*
X4423200Y-14278973D01*
X4423200Y-14278973D02*
X4423200Y-14231354D01*
X4423200Y-14231354D02*
X4432724Y-14193259D01*
X4432724Y-14193259D02*
X4442247Y-14174211D01*
X4442247Y-14174211D02*
X4451771Y-14164688D01*
X4451771Y-14164688D02*
X4470819Y-14155164D01*
X4623200Y-14355164D02*
X4623200Y-14221830D01*
X4623200Y-14240878D02*
X4632724Y-14231354D01*
X4632724Y-14231354D02*
X4651771Y-14221830D01*
X4651771Y-14221830D02*
X4680343Y-14221830D01*
X4680343Y-14221830D02*
X4699390Y-14231354D01*
X4699390Y-14231354D02*
X4708914Y-14250402D01*
X4708914Y-14250402D02*
X4708914Y-14355164D01*
X4708914Y-14250402D02*
X4718438Y-14231354D01*
X4718438Y-14231354D02*
X4737485Y-14221830D01*
X4737485Y-14221830D02*
X4766057Y-14221830D01*
X4766057Y-14221830D02*
X4785105Y-14231354D01*
X4785105Y-14231354D02*
X4794628Y-14250402D01*
X4794628Y-14250402D02*
X4794628Y-14355164D01*
X4889866Y-14355164D02*
X4889866Y-14221830D01*
X4889866Y-14240878D02*
X4899390Y-14231354D01*
X4899390Y-14231354D02*
X4918438Y-14221830D01*
X4918438Y-14221830D02*
X4947009Y-14221830D01*
X4947009Y-14221830D02*
X4966057Y-14231354D01*
X4966057Y-14231354D02*
X4975581Y-14250402D01*
X4975581Y-14250402D02*
X4975581Y-14355164D01*
X4975581Y-14250402D02*
X4985105Y-14231354D01*
X4985105Y-14231354D02*
X5004152Y-14221830D01*
X5004152Y-14221830D02*
X5032724Y-14221830D01*
X5032724Y-14221830D02*
X5051771Y-14231354D01*
X5051771Y-14231354D02*
X5061295Y-14250402D01*
X5061295Y-14250402D02*
X5061295Y-14355164D01*
X5451771Y-14145640D02*
X5280343Y-14402783D01*
X5708914Y-14155164D02*
X5727962Y-14155164D01*
X5727962Y-14155164D02*
X5747009Y-14164688D01*
X5747009Y-14164688D02*
X5756533Y-14174211D01*
X5756533Y-14174211D02*
X5766057Y-14193259D01*
X5766057Y-14193259D02*
X5775581Y-14231354D01*
X5775581Y-14231354D02*
X5775581Y-14278973D01*
X5775581Y-14278973D02*
X5766057Y-14317068D01*
X5766057Y-14317068D02*
X5756533Y-14336116D01*
X5756533Y-14336116D02*
X5747009Y-14345640D01*
X5747009Y-14345640D02*
X5727962Y-14355164D01*
X5727962Y-14355164D02*
X5708914Y-14355164D01*
X5708914Y-14355164D02*
X5689866Y-14345640D01*
X5689866Y-14345640D02*
X5680343Y-14336116D01*
X5680343Y-14336116D02*
X5670819Y-14317068D01*
X5670819Y-14317068D02*
X5661295Y-14278973D01*
X5661295Y-14278973D02*
X5661295Y-14231354D01*
X5661295Y-14231354D02*
X5670819Y-14193259D01*
X5670819Y-14193259D02*
X5680343Y-14174211D01*
X5680343Y-14174211D02*
X5689866Y-14164688D01*
X5689866Y-14164688D02*
X5708914Y-14155164D01*
X5861295Y-14336116D02*
X5870819Y-14345640D01*
X5870819Y-14345640D02*
X5861295Y-14355164D01*
X5861295Y-14355164D02*
X5851771Y-14345640D01*
X5851771Y-14345640D02*
X5861295Y-14336116D01*
X5861295Y-14336116D02*
X5861295Y-14355164D01*
X6061295Y-14355164D02*
X5947009Y-14355164D01*
X6004152Y-14355164D02*
X6004152Y-14155164D01*
X6004152Y-14155164D02*
X5985105Y-14183735D01*
X5985105Y-14183735D02*
X5966057Y-14202783D01*
X5966057Y-14202783D02*
X5947009Y-14212307D01*
X6232724Y-14221830D02*
X6232724Y-14355164D01*
X6185105Y-14145640D02*
X6137486Y-14288497D01*
X6137486Y-14288497D02*
X6261295Y-14288497D01*
X6432724Y-14155164D02*
X6337486Y-14155164D01*
X6337486Y-14155164D02*
X6327962Y-14250402D01*
X6327962Y-14250402D02*
X6337486Y-14240878D01*
X6337486Y-14240878D02*
X6356533Y-14231354D01*
X6356533Y-14231354D02*
X6404152Y-14231354D01*
X6404152Y-14231354D02*
X6423200Y-14240878D01*
X6423200Y-14240878D02*
X6432724Y-14250402D01*
X6432724Y-14250402D02*
X6442247Y-14269449D01*
X6442247Y-14269449D02*
X6442247Y-14317068D01*
X6442247Y-14317068D02*
X6432724Y-14336116D01*
X6432724Y-14336116D02*
X6423200Y-14345640D01*
X6423200Y-14345640D02*
X6404152Y-14355164D01*
X6404152Y-14355164D02*
X6356533Y-14355164D01*
X6356533Y-14355164D02*
X6337486Y-14345640D01*
X6337486Y-14345640D02*
X6327962Y-14336116D01*
X6508914Y-14155164D02*
X6642247Y-14155164D01*
X6642247Y-14155164D02*
X6556533Y-14355164D01*
X6708914Y-14155164D02*
X6708914Y-14193259D01*
X6785105Y-14155164D02*
X6785105Y-14193259D01*
X7080343Y-14431354D02*
X7070819Y-14421830D01*
X7070819Y-14421830D02*
X7051771Y-14393259D01*
X7051771Y-14393259D02*
X7042248Y-14374211D01*
X7042248Y-14374211D02*
X7032724Y-14345640D01*
X7032724Y-14345640D02*
X7023200Y-14298021D01*
X7023200Y-14298021D02*
X7023200Y-14259926D01*
X7023200Y-14259926D02*
X7032724Y-14212307D01*
X7032724Y-14212307D02*
X7042248Y-14183735D01*
X7042248Y-14183735D02*
X7051771Y-14164688D01*
X7051771Y-14164688D02*
X7070819Y-14136116D01*
X7070819Y-14136116D02*
X7080343Y-14126592D01*
X7261295Y-14355164D02*
X7147009Y-14355164D01*
X7204152Y-14355164D02*
X7204152Y-14155164D01*
X7204152Y-14155164D02*
X7185105Y-14183735D01*
X7185105Y-14183735D02*
X7166057Y-14202783D01*
X7166057Y-14202783D02*
X7147009Y-14212307D01*
X7499390Y-14355164D02*
X7499390Y-14155164D01*
X7585105Y-14355164D02*
X7585105Y-14250402D01*
X7585105Y-14250402D02*
X7575581Y-14231354D01*
X7575581Y-14231354D02*
X7556533Y-14221830D01*
X7556533Y-14221830D02*
X7527962Y-14221830D01*
X7527962Y-14221830D02*
X7508914Y-14231354D01*
X7508914Y-14231354D02*
X7499390Y-14240878D01*
X7708914Y-14355164D02*
X7689867Y-14345640D01*
X7689867Y-14345640D02*
X7680343Y-14336116D01*
X7680343Y-14336116D02*
X7670819Y-14317068D01*
X7670819Y-14317068D02*
X7670819Y-14259926D01*
X7670819Y-14259926D02*
X7680343Y-14240878D01*
X7680343Y-14240878D02*
X7689867Y-14231354D01*
X7689867Y-14231354D02*
X7708914Y-14221830D01*
X7708914Y-14221830D02*
X7737486Y-14221830D01*
X7737486Y-14221830D02*
X7756533Y-14231354D01*
X7756533Y-14231354D02*
X7766057Y-14240878D01*
X7766057Y-14240878D02*
X7775581Y-14259926D01*
X7775581Y-14259926D02*
X7775581Y-14317068D01*
X7775581Y-14317068D02*
X7766057Y-14336116D01*
X7766057Y-14336116D02*
X7756533Y-14345640D01*
X7756533Y-14345640D02*
X7737486Y-14355164D01*
X7737486Y-14355164D02*
X7708914Y-14355164D01*
X7889867Y-14355164D02*
X7870819Y-14345640D01*
X7870819Y-14345640D02*
X7861295Y-14326592D01*
X7861295Y-14326592D02*
X7861295Y-14155164D01*
X8042248Y-14345640D02*
X8023200Y-14355164D01*
X8023200Y-14355164D02*
X7985105Y-14355164D01*
X7985105Y-14355164D02*
X7966057Y-14345640D01*
X7966057Y-14345640D02*
X7956533Y-14326592D01*
X7956533Y-14326592D02*
X7956533Y-14250402D01*
X7956533Y-14250402D02*
X7966057Y-14231354D01*
X7966057Y-14231354D02*
X7985105Y-14221830D01*
X7985105Y-14221830D02*
X8023200Y-14221830D01*
X8023200Y-14221830D02*
X8042248Y-14231354D01*
X8042248Y-14231354D02*
X8051771Y-14250402D01*
X8051771Y-14250402D02*
X8051771Y-14269449D01*
X8051771Y-14269449D02*
X7956533Y-14288497D01*
X8118438Y-14431354D02*
X8127962Y-14421830D01*
X8127962Y-14421830D02*
X8147010Y-14393259D01*
X8147010Y-14393259D02*
X8156533Y-14374211D01*
X8156533Y-14374211D02*
X8166057Y-14345640D01*
X8166057Y-14345640D02*
X8175581Y-14298021D01*
X8175581Y-14298021D02*
X8175581Y-14259926D01*
X8175581Y-14259926D02*
X8166057Y-14212307D01*
X8166057Y-14212307D02*
X8156533Y-14183735D01*
X8156533Y-14183735D02*
X8147010Y-14164688D01*
X8147010Y-14164688D02*
X8127962Y-14136116D01*
X8127962Y-14136116D02*
X8118438Y-14126592D01*
M02*
