%TF.GenerationSoftware,KiCad,Pcbnew,7.0.7*%
%TF.CreationDate,2023-11-28T10:30:52+00:00*%
%TF.ProjectId,Lynx-PS2,4c796e78-2d50-4533-922e-6b696361645f,rev?*%
%TF.SameCoordinates,Original*%
%TF.FileFunction,Copper,L2,Bot*%
%TF.FilePolarity,Positive*%
%FSLAX46Y46*%
G04 Gerber Fmt 4.6, Leading zero omitted, Abs format (unit mm)*
G04 Created by KiCad (PCBNEW 7.0.7) date 2023-11-28 10:30:52*
%MOMM*%
%LPD*%
G01*
G04 APERTURE LIST*
%TA.AperFunction,ComponentPad*%
%ADD10C,1.600000*%
%TD*%
%TA.AperFunction,ComponentPad*%
%ADD11C,1.400000*%
%TD*%
%TA.AperFunction,ComponentPad*%
%ADD12O,1.400000X1.400000*%
%TD*%
%TA.AperFunction,ComponentPad*%
%ADD13R,1.700000X1.700000*%
%TD*%
%TA.AperFunction,ComponentPad*%
%ADD14O,1.700000X1.700000*%
%TD*%
%TA.AperFunction,ComponentPad*%
%ADD15C,7.400000*%
%TD*%
%TA.AperFunction,ComponentPad*%
%ADD16R,1.800000X1.800000*%
%TD*%
%TA.AperFunction,ComponentPad*%
%ADD17C,1.800000*%
%TD*%
%TA.AperFunction,ComponentPad*%
%ADD18R,1.500000X1.500000*%
%TD*%
%TA.AperFunction,ComponentPad*%
%ADD19C,1.500000*%
%TD*%
%TA.AperFunction,ComponentPad*%
%ADD20R,1.600000X1.600000*%
%TD*%
%TA.AperFunction,ComponentPad*%
%ADD21O,1.600000X1.600000*%
%TD*%
%TA.AperFunction,ComponentPad*%
%ADD22O,3.500000X2.000000*%
%TD*%
%TA.AperFunction,ComponentPad*%
%ADD23O,2.000000X4.000000*%
%TD*%
%TA.AperFunction,ViaPad*%
%ADD24C,0.800000*%
%TD*%
%TA.AperFunction,Conductor*%
%ADD25C,0.250000*%
%TD*%
%TA.AperFunction,Conductor*%
%ADD26C,1.000000*%
%TD*%
%TA.AperFunction,Conductor*%
%ADD27C,0.400000*%
%TD*%
G04 APERTURE END LIST*
D10*
%TO.P,C4,1*%
%TO.N,Net-(U4-PB7)*%
X62660000Y-102300000D03*
%TO.P,C4,2*%
%TO.N,GND*%
X60160000Y-102300000D03*
%TD*%
D11*
%TO.P,R17,1*%
%TO.N,Net-(Q1-B)*%
X104270000Y-89180000D03*
D12*
%TO.P,R17,2*%
%TO.N,Net-(D19-A)*%
X96650000Y-89180000D03*
%TD*%
D13*
%TO.P,J800,1,Pin_1*%
%TO.N,ADMISO*%
X51820000Y-118600000D03*
D14*
%TO.P,J800,2,Pin_2*%
%TO.N,+5V*%
X51820000Y-116060000D03*
%TO.P,J800,3,Pin_3*%
%TO.N,ADSCK*%
X54360000Y-118600000D03*
%TO.P,J800,4,Pin_4*%
%TO.N,ADMOSI*%
X54360000Y-116060000D03*
%TO.P,J800,5,Pin_5*%
%TO.N,ADRESET*%
X56900000Y-118600000D03*
%TO.P,J800,6,Pin_6*%
%TO.N,GND*%
X56900000Y-116060000D03*
%TD*%
D10*
%TO.P,C1,1*%
%TO.N,GND*%
X76750000Y-97250000D03*
%TO.P,C1,2*%
%TO.N,+5V*%
X81750000Y-97250000D03*
%TD*%
D11*
%TO.P,R10,1*%
%TO.N,+5V*%
X69140000Y-102370000D03*
D12*
%TO.P,R10,2*%
%TO.N,ADRESET*%
X76760000Y-102370000D03*
%TD*%
D15*
%TO.P,H1,1,1*%
%TO.N,GND*%
X41075000Y-52525000D03*
%TD*%
D16*
%TO.P,D18,1,K*%
%TO.N,GND*%
X95815000Y-80630000D03*
D17*
%TO.P,D18,2,A*%
%TO.N,Net-(D18-A)*%
X98355000Y-80630000D03*
%TD*%
D18*
%TO.P,Q1,1,C*%
%TO.N,!RST*%
X101727000Y-99822000D03*
D19*
%TO.P,Q1,2,B*%
%TO.N,Net-(Q1-B)*%
X104267000Y-99822000D03*
%TO.P,Q1,3,E*%
%TO.N,GND*%
X106807000Y-99822000D03*
%TD*%
D11*
%TO.P,R9,1*%
%TO.N,!RST*%
X94994000Y-99064000D03*
D12*
%TO.P,R9,2*%
%TO.N,+5V*%
X87374000Y-99064000D03*
%TD*%
D16*
%TO.P,D19,1,K*%
%TO.N,GND*%
X101640000Y-80630000D03*
D17*
%TO.P,D19,2,A*%
%TO.N,Net-(D19-A)*%
X104180000Y-80630000D03*
%TD*%
D13*
%TO.P,J1,1,Pin_1*%
%TO.N,Net-(J1-Pin_1)*%
X65055000Y-116050000D03*
D14*
%TO.P,J1,2,Pin_2*%
%TO.N,+5V*%
X62515000Y-116050000D03*
%TD*%
D11*
%TO.P,R15,1*%
%TO.N,FLOAT*%
X69140000Y-100200000D03*
D12*
%TO.P,R15,2*%
%TO.N,GND*%
X76760000Y-100200000D03*
%TD*%
D11*
%TO.P,R16,1*%
%TO.N,Net-(D19-A)*%
X87374000Y-101214000D03*
D12*
%TO.P,R16,2*%
%TO.N,BREAK*%
X94994000Y-101214000D03*
%TD*%
D20*
%TO.P,RN1,1,common*%
%TO.N,+5V*%
X59080000Y-75370000D03*
D21*
%TO.P,RN1,2,R1*%
%TO.N,ROW7*%
X56540000Y-75370000D03*
%TO.P,RN1,3,R2*%
%TO.N,ROW6*%
X54000000Y-75370000D03*
%TO.P,RN1,4,R3*%
%TO.N,ROW5*%
X51460000Y-75370000D03*
%TO.P,RN1,5,R4*%
%TO.N,ROW4*%
X48920000Y-75370000D03*
%TO.P,RN1,6,R5*%
%TO.N,ROW3*%
X46380000Y-75370000D03*
%TO.P,RN1,7,R6*%
%TO.N,ROW2*%
X43840000Y-75370000D03*
%TO.P,RN1,8,R7*%
%TO.N,ROW1*%
X41300000Y-75370000D03*
%TO.P,RN1,9,R8*%
%TO.N,ROW0*%
X38760000Y-75370000D03*
%TD*%
D20*
%TO.P,C2,1*%
%TO.N,+5V*%
X91290000Y-92800000D03*
D10*
%TO.P,C2,2*%
%TO.N,GND*%
X93290000Y-92800000D03*
%TD*%
D20*
%TO.P,U3,1,~{Q0}*%
%TO.N,COL0*%
X107305000Y-104700000D03*
D21*
%TO.P,U3,2,~{Q1}*%
%TO.N,COL1*%
X104765000Y-104700000D03*
%TO.P,U3,3,~{Q2}*%
%TO.N,COL2*%
X102225000Y-104700000D03*
%TO.P,U3,4,~{Q3}*%
%TO.N,COL3*%
X99685000Y-104700000D03*
%TO.P,U3,5,~{Q4}*%
%TO.N,COL4*%
X97145000Y-104700000D03*
%TO.P,U3,6,~{Q5}*%
%TO.N,COL5*%
X94605000Y-104700000D03*
%TO.P,U3,7,~{Q6}*%
%TO.N,COL6*%
X92065000Y-104700000D03*
%TO.P,U3,8,GND*%
%TO.N,GND*%
X89525000Y-104700000D03*
%TO.P,U3,9,~{Q7}*%
%TO.N,COL7*%
X89525000Y-112320000D03*
%TO.P,U3,10,~{Q8}*%
%TO.N,COL8*%
X92065000Y-112320000D03*
%TO.P,U3,11,~{Q9}*%
%TO.N,COL9*%
X94605000Y-112320000D03*
%TO.P,U3,12,D*%
%TO.N,/KBA3*%
X97145000Y-112320000D03*
%TO.P,U3,13,C*%
%TO.N,/KBA2*%
X99685000Y-112320000D03*
%TO.P,U3,14,B*%
%TO.N,/KBA1*%
X102225000Y-112320000D03*
%TO.P,U3,15,A*%
%TO.N,/KBA0*%
X104765000Y-112320000D03*
%TO.P,U3,16,VCC*%
%TO.N,+5V*%
X107305000Y-112320000D03*
%TD*%
D20*
%TO.P,U4,1,PC6*%
%TO.N,ADRESET*%
X85190000Y-104700000D03*
D21*
%TO.P,U4,2,PD0*%
%TO.N,/AD0*%
X82650000Y-104700000D03*
%TO.P,U4,3,PD1*%
%TO.N,/AD1*%
X80110000Y-104700000D03*
%TO.P,U4,4,PD2*%
%TO.N,MTDATA*%
X77570000Y-104700000D03*
%TO.P,U4,5,PD3*%
%TO.N,PS2-CLK*%
X75030000Y-104700000D03*
%TO.P,U4,6,PD4*%
%TO.N,MTSTROBE*%
X72490000Y-104700000D03*
%TO.P,U4,7,VCC*%
%TO.N,+5V*%
X69950000Y-104700000D03*
%TO.P,U4,8,GND*%
%TO.N,GND*%
X67410000Y-104700000D03*
%TO.P,U4,9,PB6*%
%TO.N,Net-(U4-PB6)*%
X64870000Y-104700000D03*
%TO.P,U4,10,PB7*%
%TO.N,Net-(U4-PB7)*%
X62330000Y-104700000D03*
%TO.P,U4,11,PD5*%
%TO.N,AY2*%
X59790000Y-104700000D03*
%TO.P,U4,12,PD6*%
%TO.N,AY1*%
X57250000Y-104700000D03*
%TO.P,U4,13,PD7*%
%TO.N,AY0*%
X54710000Y-104700000D03*
%TO.P,U4,14,PB0*%
%TO.N,AX2*%
X52170000Y-104700000D03*
%TO.P,U4,15,PB1*%
%TO.N,AX1*%
X52170000Y-112320000D03*
%TO.P,U4,16,PB2*%
%TO.N,AX0*%
X54710000Y-112320000D03*
%TO.P,U4,17,PB3*%
%TO.N,ADMOSI*%
X57250000Y-112320000D03*
%TO.P,U4,18,PB4*%
%TO.N,ADMISO*%
X59790000Y-112320000D03*
%TO.P,U4,19,PB5*%
%TO.N,ADSCK*%
X62330000Y-112320000D03*
%TO.P,U4,20,AVCC*%
%TO.N,+5V*%
X64870000Y-112320000D03*
%TO.P,U4,21,AREF*%
%TO.N,Net-(U4-AREF)*%
X67410000Y-112320000D03*
%TO.P,U4,22,GND*%
%TO.N,GND*%
X69950000Y-112320000D03*
%TO.P,U4,23,PC0*%
%TO.N,BREAK*%
X72490000Y-112320000D03*
%TO.P,U4,24,PC1*%
%TO.N,/AA1*%
X75030000Y-112320000D03*
%TO.P,U4,25,PC2*%
%TO.N,/AA2*%
X77570000Y-112320000D03*
%TO.P,U4,26,PC3*%
%TO.N,/AA3*%
X80110000Y-112320000D03*
%TO.P,U4,27,PC4*%
%TO.N,/AA4*%
X82650000Y-112320000D03*
%TO.P,U4,28,PC5*%
%TO.N,/AA5*%
X85190000Y-112320000D03*
%TD*%
D10*
%TO.P,C5,1*%
%TO.N,Net-(U4-AREF)*%
X68470000Y-97230000D03*
%TO.P,C5,2*%
%TO.N,GND*%
X73470000Y-97230000D03*
%TD*%
D13*
%TO.P,PL1,1,Pin_1*%
%TO.N,GND*%
X104521000Y-116050000D03*
D14*
%TO.P,PL1,2,Pin_2*%
%TO.N,/KBA0*%
X101981000Y-116050000D03*
%TO.P,PL1,3,Pin_3*%
%TO.N,/KBA1*%
X99441000Y-116050000D03*
%TO.P,PL1,4,Pin_4*%
%TO.N,/KBA2*%
X96901000Y-116050000D03*
%TO.P,PL1,5,Pin_5*%
%TO.N,/KBA3*%
X94361000Y-116050000D03*
%TO.P,PL1,6,Pin_6*%
%TO.N,!RST*%
X91821000Y-116050000D03*
%TO.P,PL1,7,Pin_7*%
%TO.N,ROW7*%
X89281000Y-116050000D03*
%TO.P,PL1,8,Pin_8*%
%TO.N,ROW6*%
X86741000Y-116050000D03*
%TO.P,PL1,9,Pin_9*%
%TO.N,ROW5*%
X84201000Y-116050000D03*
%TO.P,PL1,10,Pin_10*%
%TO.N,ROW4*%
X81661000Y-116050000D03*
%TO.P,PL1,11,Pin_11*%
%TO.N,ROW3*%
X79121000Y-116050000D03*
%TO.P,PL1,12,Pin_12*%
%TO.N,ROW2*%
X76581000Y-116050000D03*
%TO.P,PL1,13,Pin_13*%
%TO.N,ROW1*%
X74041000Y-116050000D03*
%TO.P,PL1,14,Pin_14*%
%TO.N,ROW0*%
X71501000Y-116050000D03*
%TO.P,PL1,15,Pin_15*%
%TO.N,Net-(J1-Pin_1)*%
X68961000Y-116050000D03*
%TD*%
D10*
%TO.P,C3,1*%
%TO.N,Net-(U4-PB6)*%
X57940000Y-102300000D03*
%TO.P,C3,2*%
%TO.N,GND*%
X55440000Y-102300000D03*
%TD*%
D19*
%TO.P,Y1,1,1*%
%TO.N,Net-(U4-PB6)*%
X56640000Y-98320000D03*
%TO.P,Y1,2,2*%
%TO.N,Net-(U4-PB7)*%
X61520000Y-98320000D03*
%TD*%
D11*
%TO.P,R18,1*%
%TO.N,Net-(D18-A)*%
X96650000Y-87020000D03*
D12*
%TO.P,R18,2*%
%TO.N,+5V*%
X104270000Y-87020000D03*
%TD*%
D20*
%TO.P,U1,1,Pin_1*%
%TO.N,ROW3*%
X86870000Y-78590000D03*
D21*
%TO.P,U1,2,Pin_2*%
%TO.N,AY2*%
X84330000Y-78590000D03*
%TO.P,U1,3,Pin_3*%
%TO.N,ADSCK*%
X81790000Y-78590000D03*
%TO.P,U1,4,Pin_4*%
%TO.N,ADMOSI*%
X79250000Y-78590000D03*
%TO.P,U1,5,Pin_5*%
%TO.N,AX0*%
X76710000Y-78590000D03*
%TO.P,U1,6,Pin_6*%
%TO.N,COL14*%
X74170000Y-78590000D03*
%TO.P,U1,7,Pin_7*%
%TO.N,FLOAT*%
X71630000Y-78590000D03*
%TO.P,U1,8,Pin_8*%
%TO.N,COL6*%
X69090000Y-78590000D03*
%TO.P,U1,9,Pin_9*%
%TO.N,COL7*%
X66550000Y-78590000D03*
%TO.P,U1,10,Pin_10*%
%TO.N,COL8*%
X64010000Y-78590000D03*
%TO.P,U1,11,Pin_11*%
%TO.N,COL9*%
X61470000Y-78590000D03*
%TO.P,U1,12,Pin_12*%
%TO.N,COL10*%
X58930000Y-78590000D03*
%TO.P,U1,13,Pin_13*%
%TO.N,COL11*%
X56390000Y-78590000D03*
%TO.P,U1,14,Pin_14*%
%TO.N,unconnected-(U1-Pin_14-Pad14)*%
X53850000Y-78590000D03*
%TO.P,U1,15,Pin_15*%
%TO.N,ROW7*%
X51310000Y-78590000D03*
%TO.P,U1,16,Pin_16*%
%TO.N,GND*%
X48770000Y-78590000D03*
%TO.P,U1,17,Pin_17*%
%TO.N,ROW6*%
X46230000Y-78590000D03*
%TO.P,U1,18,Pin_18*%
%TO.N,MTSTROBE*%
X43690000Y-78590000D03*
%TO.P,U1,19,Pin_19*%
%TO.N,ROW5*%
X41150000Y-78590000D03*
%TO.P,U1,20,Pin_20*%
%TO.N,GND*%
X38610000Y-78590000D03*
%TO.P,U1,21,Pin_21*%
%TO.N,ROW4*%
X38610000Y-93830000D03*
%TO.P,U1,22,Pin_22*%
%TO.N,AX1*%
X41150000Y-93830000D03*
%TO.P,U1,23,Pin_23*%
%TO.N,AX2*%
X43690000Y-93830000D03*
%TO.P,U1,24,Pin_24*%
%TO.N,AY0*%
X46230000Y-93830000D03*
%TO.P,U1,25,Pin_25*%
%TO.N,AY1*%
X48770000Y-93830000D03*
%TO.P,U1,26,Pin_26*%
%TO.N,COL13*%
X51310000Y-93830000D03*
%TO.P,U1,27,Pin_27*%
%TO.N,COL12*%
X53850000Y-93830000D03*
%TO.P,U1,28,Pin_28*%
%TO.N,COL5*%
X56390000Y-93830000D03*
%TO.P,U1,29,Pin_29*%
%TO.N,COL4*%
X58930000Y-93830000D03*
%TO.P,U1,30,Pin_30*%
%TO.N,COL3*%
X61470000Y-93830000D03*
%TO.P,U1,31,Pin_31*%
%TO.N,COL2*%
X64010000Y-93830000D03*
%TO.P,U1,32,Pin_32*%
%TO.N,COL1*%
X66550000Y-93830000D03*
%TO.P,U1,33,Pin_33*%
%TO.N,COL0*%
X69090000Y-93830000D03*
%TO.P,U1,34,Pin_34*%
%TO.N,unconnected-(U1-Pin_34-Pad34)*%
X71630000Y-93830000D03*
%TO.P,U1,35,Pin_35*%
%TO.N,ROW0*%
X74170000Y-93830000D03*
%TO.P,U1,36,Pin_36*%
%TO.N,+5V*%
X76710000Y-93830000D03*
%TO.P,U1,37,Pin_37*%
%TO.N,ROW1*%
X79250000Y-93830000D03*
%TO.P,U1,38,Pin_38*%
%TO.N,MTDATA*%
X81790000Y-93830000D03*
%TO.P,U1,39,Pin_39*%
%TO.N,ROW2*%
X84330000Y-93830000D03*
%TO.P,U1,40,Pin_40*%
%TO.N,+5V*%
X86870000Y-93830000D03*
%TD*%
D20*
%TO.P,J3,1*%
%TO.N,ADMISO*%
X43870000Y-105670000D03*
D10*
%TO.P,J3,2*%
%TO.N,unconnected-(J3-Pad2)*%
X43870000Y-108270000D03*
%TO.P,J3,3*%
%TO.N,GND*%
X43870000Y-103570000D03*
%TO.P,J3,4*%
%TO.N,+5V*%
X43870000Y-110370000D03*
%TO.P,J3,5*%
%TO.N,PS2-CLK*%
X46670000Y-103570000D03*
%TO.P,J3,6*%
%TO.N,unconnected-(J3-Pad6)*%
X46670000Y-110370000D03*
D22*
%TO.P,J3,7*%
%TO.N,GND*%
X41020000Y-113820000D03*
D23*
X40220000Y-106970000D03*
D22*
X41020000Y-100120000D03*
%TD*%
D24*
%TO.N,MTDATA*%
X72322800Y-102414300D03*
%TO.N,ADRESET*%
X68867000Y-106236400D03*
%TO.N,COL9*%
X94099300Y-97238300D03*
%TO.N,COL8*%
X59652000Y-106361100D03*
%TO.N,COL7*%
X92662300Y-106435000D03*
%TO.N,COL6*%
X91770300Y-95309600D03*
%TO.N,FLOAT*%
X62800551Y-95285349D03*
%TO.N,ROW0*%
X47504800Y-81094100D03*
%TO.N,ROW1*%
X75089600Y-95005800D03*
X46686000Y-80244600D03*
%TO.N,ROW2*%
X48911400Y-80449800D03*
%TO.N,ROW3*%
X94706200Y-78757500D03*
X106139000Y-108369500D03*
%TO.N,ROW4*%
X55085800Y-110830200D03*
%TO.N,ROW5*%
X51286100Y-83107300D03*
X45270100Y-104295000D03*
%TO.N,ROW6*%
X55064300Y-79647500D03*
X90186500Y-97453000D03*
%TO.N,ROW7*%
X58671100Y-107987800D03*
%TO.N,PS2-CLK*%
X74062100Y-109332400D03*
%TD*%
D25*
%TO.N,ROW1*%
X62987100Y-81256900D02*
X73974900Y-92244700D01*
X74724700Y-92244700D02*
X75380000Y-92900000D01*
X47680900Y-80244600D02*
X48693200Y-81256900D01*
X48693200Y-81256900D02*
X62987100Y-81256900D01*
X46686000Y-80244600D02*
X47680900Y-80244600D01*
X73974900Y-92244700D02*
X74724700Y-92244700D01*
X75380000Y-92900000D02*
X75380000Y-94927200D01*
X75380000Y-94927200D02*
X75301400Y-95005800D01*
%TO.N,ADMOSI*%
X54360000Y-114884900D02*
X54360000Y-116060000D01*
X56924900Y-112320000D02*
X54360000Y-114884900D01*
X57250000Y-112320000D02*
X56924900Y-112320000D01*
%TO.N,ROW3*%
X80774300Y-117703300D02*
X79121000Y-116050000D01*
X96933800Y-117703300D02*
X80774300Y-117703300D01*
X98171000Y-116466100D02*
X96933800Y-117703300D01*
X98171000Y-113755000D02*
X98171000Y-116466100D01*
X99715000Y-108095000D02*
X98415000Y-109395000D01*
X105864500Y-108095000D02*
X99715000Y-108095000D01*
X106139000Y-108369500D02*
X105864500Y-108095000D01*
X98415000Y-113511000D02*
X98171000Y-113755000D01*
X98415000Y-109395000D02*
X98415000Y-113511000D01*
%TO.N,COL0*%
X107300000Y-104700000D02*
X107305000Y-104700000D01*
X103062800Y-100462800D02*
X107300000Y-104700000D01*
X103062800Y-98662800D02*
X103062800Y-100462800D01*
X102435400Y-98035400D02*
X103062800Y-98662800D01*
X93131400Y-98035400D02*
X102435400Y-98035400D01*
X92965600Y-98201200D02*
X93131400Y-98035400D01*
X75859900Y-95674700D02*
X86324400Y-95674700D01*
X86324400Y-95674700D02*
X88850900Y-98201200D01*
X75765900Y-95768700D02*
X75859900Y-95674700D01*
X73586800Y-94955100D02*
X74400400Y-95768700D01*
X88850900Y-98201200D02*
X92965600Y-98201200D01*
X70215100Y-94955100D02*
X73586800Y-94955100D01*
X74400400Y-95768700D02*
X75765900Y-95768700D01*
X69090000Y-93830000D02*
X70215100Y-94955100D01*
%TO.N,COL7*%
X107642400Y-106435000D02*
X92662300Y-106435000D01*
X108430200Y-105647200D02*
X107642400Y-106435000D01*
X108430200Y-102976900D02*
X108430200Y-105647200D01*
X91798200Y-96441300D02*
X103331300Y-96441300D01*
X105537000Y-98647000D02*
X105537000Y-100083700D01*
X74010892Y-89734700D02*
X85091600Y-89734700D01*
X105537000Y-100083700D02*
X108430200Y-102976900D01*
X66550000Y-82273808D02*
X74010892Y-89734700D01*
X103331300Y-96441300D02*
X105537000Y-98647000D01*
X66550000Y-78590000D02*
X66550000Y-82273808D01*
X85091600Y-89734700D02*
X91798200Y-96441300D01*
%TO.N,ROW2*%
X62816600Y-80449800D02*
X48911400Y-80449800D01*
X73451700Y-91084900D02*
X62816600Y-80449800D01*
X84330000Y-91780000D02*
X83634900Y-91084900D01*
X84330000Y-93830000D02*
X84330000Y-91780000D01*
X83634900Y-91084900D02*
X73451700Y-91084900D01*
%TO.N,ROW6*%
X85600000Y-94204600D02*
X88848400Y-97453000D01*
X84703904Y-90634900D02*
X85600000Y-91530996D01*
X85600000Y-91530996D02*
X85600000Y-94204600D01*
X73638300Y-90634900D02*
X84703904Y-90634900D01*
X55318500Y-79901700D02*
X62905100Y-79901700D01*
X55064300Y-79647500D02*
X55318500Y-79901700D01*
X62905100Y-79901700D02*
X73638300Y-90634900D01*
X88848400Y-97453000D02*
X90186500Y-97453000D01*
%TO.N,COL6*%
X69090000Y-84177412D02*
X69090000Y-78590000D01*
X74197288Y-89284700D02*
X69090000Y-84177412D01*
X85356500Y-89284700D02*
X74197288Y-89284700D01*
X91381400Y-95309600D02*
X85356500Y-89284700D01*
X91770300Y-95309600D02*
X91381400Y-95309600D01*
%TO.N,COL9*%
X91943700Y-97238300D02*
X94099300Y-97238300D01*
X84890300Y-90184900D02*
X91943700Y-97238300D01*
X62229796Y-78590000D02*
X73824696Y-90184900D01*
X61470000Y-78590000D02*
X62229796Y-78590000D01*
X73824696Y-90184900D02*
X84890300Y-90184900D01*
%TO.N,ROW0*%
X48117700Y-81707000D02*
X47504800Y-81094100D01*
X62757000Y-81707000D02*
X48117700Y-81707000D01*
X74170000Y-93120000D02*
X62757000Y-81707000D01*
X74170000Y-93830000D02*
X74170000Y-93120000D01*
%TO.N,MTSTROBE*%
X71202600Y-103412600D02*
X72490000Y-104700000D01*
X60802100Y-95864000D02*
X68350700Y-103412600D01*
X68350700Y-103412600D02*
X71202600Y-103412600D01*
X59339400Y-95864000D02*
X60802100Y-95864000D01*
X57660000Y-88423100D02*
X57660000Y-94184600D01*
X57660000Y-94184600D02*
X59339400Y-95864000D01*
X51394100Y-82157200D02*
X57660000Y-88423100D01*
X47257200Y-82157200D02*
X51394100Y-82157200D01*
X43690000Y-78590000D02*
X47257200Y-82157200D01*
%TO.N,MTDATA*%
X75284300Y-102414300D02*
X72322800Y-102414300D01*
X77570000Y-104700000D02*
X75284300Y-102414300D01*
%TO.N,COL5*%
X56390000Y-94955100D02*
X56390000Y-93830000D01*
X61647000Y-100212100D02*
X56390000Y-94955100D01*
X64513500Y-100212100D02*
X61647000Y-100212100D01*
X68535200Y-104233800D02*
X64513500Y-100212100D01*
X68535200Y-104879100D02*
X68535200Y-104233800D01*
X69527600Y-105871500D02*
X68535200Y-104879100D01*
X78810000Y-105092300D02*
X78030800Y-105871500D01*
X92513104Y-103535500D02*
X79294500Y-103535500D01*
X92637604Y-103660000D02*
X92513104Y-103535500D01*
X78810000Y-104020000D02*
X78810000Y-105092300D01*
X93565000Y-103660000D02*
X92637604Y-103660000D01*
X94605000Y-104700000D02*
X93565000Y-103660000D01*
X78030800Y-105871500D02*
X69527600Y-105871500D01*
X79294500Y-103535500D02*
X78810000Y-104020000D01*
%TO.N,ADRESET*%
X83564200Y-106325800D02*
X85190000Y-104700000D01*
X68956400Y-106325800D02*
X83564200Y-106325800D01*
X68867000Y-106236400D02*
X68956400Y-106325800D01*
%TO.N,COL4*%
X59831400Y-93830000D02*
X58930000Y-93830000D01*
X83189100Y-101285000D02*
X67286400Y-101285000D01*
X92586900Y-102972900D02*
X84877000Y-102972900D01*
X67286400Y-101285000D02*
X59831400Y-93830000D01*
X95584100Y-103139100D02*
X92753100Y-103139100D01*
X92753100Y-103139100D02*
X92586900Y-102972900D01*
X97145000Y-104700000D02*
X95584100Y-103139100D01*
X84877000Y-102972900D02*
X83189100Y-101285000D01*
%TO.N,COL3*%
X82099300Y-98840800D02*
X67380600Y-98840800D01*
X92939700Y-102689100D02*
X92773400Y-102522800D01*
X85781300Y-102522800D02*
X82099300Y-98840800D01*
X97674100Y-102689100D02*
X92939700Y-102689100D01*
X67380600Y-98840800D02*
X62369800Y-93830000D01*
X99685000Y-104700000D02*
X97674100Y-102689100D01*
X92773400Y-102522800D02*
X85781300Y-102522800D01*
X62369800Y-93830000D02*
X61470000Y-93830000D01*
%TO.N,COL2*%
X66226000Y-96046000D02*
X64010000Y-93830000D01*
X70235700Y-96046000D02*
X66226000Y-96046000D01*
X72564900Y-98375200D02*
X70235700Y-96046000D01*
X83493800Y-98375200D02*
X72564900Y-98375200D01*
X85207800Y-100089200D02*
X83493800Y-98375200D01*
X92959900Y-102072700D02*
X90452400Y-102072700D01*
X88468900Y-100089200D02*
X85207800Y-100089200D01*
X93126300Y-102239100D02*
X92959900Y-102072700D01*
X99764100Y-102239100D02*
X93126300Y-102239100D01*
X102225000Y-104700000D02*
X99764100Y-102239100D01*
X90452400Y-102072700D02*
X88468900Y-100089200D01*
%TO.N,COL1*%
X104440000Y-104700000D02*
X104765000Y-104700000D01*
X99879000Y-100139000D02*
X104440000Y-104700000D01*
X75938700Y-96232500D02*
X76046400Y-96124800D01*
X74063800Y-96232500D02*
X75938700Y-96232500D01*
X73427100Y-95595800D02*
X74063800Y-96232500D01*
X85942700Y-96124800D02*
X89956900Y-100139000D01*
X68315800Y-95595800D02*
X73427100Y-95595800D01*
X76046400Y-96124800D02*
X85942700Y-96124800D01*
X89956900Y-100139000D02*
X99879000Y-100139000D01*
X66550000Y-93830000D02*
X68315800Y-95595800D01*
%TO.N,!RST*%
X100969000Y-99064000D02*
X101727000Y-99822000D01*
X94994000Y-99064000D02*
X100969000Y-99064000D01*
%TO.N,ROW7*%
X83920000Y-111923600D02*
X80603700Y-108607300D01*
X59290600Y-108607300D02*
X58671100Y-107987800D01*
X83920000Y-112652400D02*
X83920000Y-111923600D01*
X80603700Y-108607300D02*
X59290600Y-108607300D01*
X87690000Y-114460000D02*
X85727600Y-114460000D01*
X85727600Y-114460000D02*
X83920000Y-112652400D01*
X89280000Y-116050000D02*
X87690000Y-114460000D01*
X89281000Y-116050000D02*
X89280000Y-116050000D01*
%TO.N,ROW5*%
X81400100Y-113249100D02*
X84201000Y-116050000D01*
X81400100Y-111965200D02*
X81400100Y-113249100D01*
X79492400Y-110057500D02*
X81400100Y-111965200D01*
X51032600Y-110057500D02*
X79492400Y-110057500D01*
X45270100Y-104295000D02*
X51032600Y-110057500D01*
%TO.N,ROW4*%
X80328800Y-114717800D02*
X81661000Y-116050000D01*
X73244200Y-114717800D02*
X80328800Y-114717800D01*
X71220000Y-111941800D02*
X71220000Y-112693600D01*
X70108400Y-110830200D02*
X71220000Y-111941800D01*
X55085800Y-110830200D02*
X70108400Y-110830200D01*
X71220000Y-112693600D02*
X73244200Y-114717800D01*
%TO.N,FLOAT*%
X62800551Y-95335151D02*
X67665400Y-100200000D01*
X67665400Y-100200000D02*
X69140000Y-100200000D01*
X62800551Y-95285349D02*
X62800551Y-95335151D01*
%TO.N,ROW3*%
X85744900Y-77464900D02*
X49194900Y-77464900D01*
X49194900Y-77464900D02*
X47100000Y-75370000D01*
X47100000Y-75370000D02*
X46380000Y-75370000D01*
X86870000Y-78590000D02*
X85744900Y-77464900D01*
%TO.N,ROW6*%
X54987100Y-79724700D02*
X55064300Y-79647500D01*
X47364700Y-79724700D02*
X54987100Y-79724700D01*
X46230000Y-78590000D02*
X47364700Y-79724700D01*
%TO.N,ROW5*%
X45647300Y-83107300D02*
X51286100Y-83107300D01*
X41150000Y-78610000D02*
X45647300Y-83107300D01*
X41150000Y-78590000D02*
X41150000Y-78610000D01*
D26*
%TO.N,GND*%
X56900000Y-116060000D02*
X58450000Y-117610000D01*
X58450000Y-117610000D02*
X58450000Y-121540000D01*
X35602800Y-106970000D02*
X35602800Y-122272800D01*
X108504600Y-73735400D02*
X101680000Y-73735400D01*
D25*
%TO.N,COL8*%
X90939900Y-112086900D02*
X90939900Y-112320000D01*
X86948200Y-108095200D02*
X90939900Y-112086900D01*
X61386100Y-108095200D02*
X86948200Y-108095200D01*
X59652000Y-106361100D02*
X61386100Y-108095200D01*
X92065000Y-112320000D02*
X90939900Y-112320000D01*
%TO.N,ROW1*%
X79250000Y-93830000D02*
X78687500Y-93830000D01*
X77511700Y-95005800D02*
X75301400Y-95005800D01*
X78687500Y-93830000D02*
X77511700Y-95005800D01*
X75301400Y-95005800D02*
X75089600Y-95005800D01*
%TO.N,ROW3*%
X94538700Y-78590000D02*
X86870000Y-78590000D01*
X94706200Y-78757500D02*
X94538700Y-78590000D01*
%TO.N,PS2-CLK*%
X52432400Y-109332400D02*
X74062100Y-109332400D01*
X46670000Y-103570000D02*
X52432400Y-109332400D01*
D27*
%TO.N,Net-(U4-PB6)*%
X63670000Y-103500000D02*
X64870000Y-104700000D01*
X59140000Y-103500000D02*
X63670000Y-103500000D01*
X57940000Y-102300000D02*
X59140000Y-103500000D01*
%TO.N,GND*%
X89525000Y-107545000D02*
X89525000Y-104700000D01*
X89550000Y-107570000D02*
X89525000Y-107545000D01*
X45140000Y-102300000D02*
X43870000Y-103570000D01*
X55440000Y-102300000D02*
X45140000Y-102300000D01*
D26*
X41090000Y-103570000D02*
X41020000Y-103500000D01*
X43870000Y-103570000D02*
X41090000Y-103570000D01*
X41020000Y-100120000D02*
X41020000Y-103500000D01*
X104521000Y-116050000D02*
X104521000Y-122438000D01*
D27*
X58960000Y-101100000D02*
X60160000Y-102300000D01*
X56640000Y-101100000D02*
X58960000Y-101100000D01*
X55440000Y-102300000D02*
X56640000Y-101100000D01*
X70211000Y-112581000D02*
X70211000Y-122358000D01*
X69950000Y-112320000D02*
X70211000Y-112581000D01*
D26*
X93290000Y-83155000D02*
X95815000Y-80630000D01*
X93290000Y-92800000D02*
X93290000Y-83155000D01*
X101640000Y-73775400D02*
X101680000Y-73735400D01*
X101640000Y-80630000D02*
X101640000Y-73775400D01*
X95815000Y-73820400D02*
X95900000Y-73735400D01*
X95815000Y-80630000D02*
X95815000Y-73820400D01*
X40110000Y-77090000D02*
X38610000Y-78590000D01*
X47270000Y-77090000D02*
X40110000Y-77090000D01*
X48770000Y-78590000D02*
X47270000Y-77090000D01*
X35602800Y-52650000D02*
X35602800Y-73880000D01*
X35727800Y-52525000D02*
X35602800Y-52650000D01*
X41075000Y-52525000D02*
X35727800Y-52525000D01*
X35835600Y-78590000D02*
X38610000Y-78590000D01*
X35602800Y-78357200D02*
X35835600Y-78590000D01*
X40220000Y-106970000D02*
X35602800Y-106970000D01*
X41020000Y-106170000D02*
X40220000Y-106970000D01*
X41020000Y-103500000D02*
X41020000Y-106170000D01*
X41020000Y-107770000D02*
X40220000Y-106970000D01*
X41020000Y-113820000D02*
X41020000Y-107770000D01*
X35602800Y-78357200D02*
X35602800Y-106970000D01*
X101680000Y-73735400D02*
X95900000Y-73735400D01*
X35602800Y-73880000D02*
X35602800Y-74640000D01*
X35752800Y-73730000D02*
X35602800Y-73880000D01*
X35758200Y-73735400D02*
X35752800Y-73730000D01*
X95900000Y-73735400D02*
X35758200Y-73735400D01*
X35602800Y-73880000D02*
X35602800Y-74640000D01*
X35602800Y-74640000D02*
X35602800Y-78357200D01*
X35602800Y-106970000D02*
X35602800Y-107220000D01*
D27*
X68740000Y-107570000D02*
X89550000Y-107570000D01*
X67410000Y-106240000D02*
X68740000Y-107570000D01*
X67410000Y-104700000D02*
X67410000Y-106240000D01*
X89550000Y-107570000D02*
X110448000Y-107570000D01*
X63810000Y-101100000D02*
X67410000Y-104700000D01*
X61360000Y-101100000D02*
X63810000Y-101100000D01*
X60160000Y-102300000D02*
X61360000Y-101100000D01*
D25*
X73490000Y-97250000D02*
X73470000Y-97230000D01*
X76750000Y-97250000D02*
X73490000Y-97250000D01*
%TD*%
%TA.AperFunction,Conductor*%
%TO.N,GND*%
G36*
X64266773Y-100865285D02*
G01*
X64287415Y-100881919D01*
X66781356Y-103375860D01*
X66814841Y-103437183D01*
X66809857Y-103506875D01*
X66767985Y-103562808D01*
X66761261Y-103567244D01*
X66571179Y-103700342D01*
X66410342Y-103861179D01*
X66279865Y-104047517D01*
X66257071Y-104096401D01*
X66210898Y-104148840D01*
X66143705Y-104167992D01*
X66076824Y-104147776D01*
X66032307Y-104096401D01*
X66007523Y-104043251D01*
X65988670Y-104016326D01*
X65876198Y-103855700D01*
X65714300Y-103693802D01*
X65526749Y-103562477D01*
X65465281Y-103533814D01*
X65319249Y-103465718D01*
X65319238Y-103465714D01*
X65098089Y-103406457D01*
X65098081Y-103406456D01*
X64870002Y-103386502D01*
X64869998Y-103386502D01*
X64666075Y-103404343D01*
X64641925Y-103406456D01*
X64641136Y-103406525D01*
X64572636Y-103392758D01*
X64542648Y-103370678D01*
X64372958Y-103200988D01*
X64187434Y-103015464D01*
X64184900Y-103012772D01*
X64143273Y-102965785D01*
X64143272Y-102965784D01*
X64143271Y-102965783D01*
X64091628Y-102930136D01*
X64088611Y-102927916D01*
X64087629Y-102927147D01*
X64075333Y-102917513D01*
X64039227Y-102889225D01*
X64033235Y-102886528D01*
X64029760Y-102884964D01*
X64010216Y-102873941D01*
X64004852Y-102870239D01*
X64001677Y-102868047D01*
X64001675Y-102868046D01*
X63980108Y-102859866D01*
X63924408Y-102817690D01*
X63900351Y-102752092D01*
X63904306Y-102711839D01*
X63953543Y-102528087D01*
X63973498Y-102300000D01*
X63972173Y-102284860D01*
X63958607Y-102129800D01*
X63953543Y-102071913D01*
X63894284Y-101850757D01*
X63891952Y-101845757D01*
X63827706Y-101707979D01*
X63797523Y-101643251D01*
X63666198Y-101455700D01*
X63504300Y-101293802D01*
X63316749Y-101162477D01*
X63267253Y-101139397D01*
X63144126Y-101081982D01*
X63091686Y-101035810D01*
X63072534Y-100968617D01*
X63092749Y-100901735D01*
X63145915Y-100856401D01*
X63196530Y-100845600D01*
X64199734Y-100845600D01*
X64266773Y-100865285D01*
G37*
%TD.AperFunction*%
%TA.AperFunction,Conductor*%
G36*
X55961181Y-102470197D02*
G01*
X55977419Y-102483866D01*
X56519025Y-103025472D01*
X56570134Y-102952481D01*
X56572928Y-102946491D01*
X56619099Y-102894051D01*
X56686293Y-102874898D01*
X56753174Y-102895113D01*
X56797692Y-102946488D01*
X56802477Y-102956749D01*
X56933802Y-103144300D01*
X56933806Y-103144304D01*
X57007310Y-103217808D01*
X57040795Y-103279131D01*
X57035811Y-103348823D01*
X56993939Y-103404756D01*
X56951723Y-103425264D01*
X56800762Y-103465714D01*
X56800750Y-103465718D01*
X56593254Y-103562475D01*
X56593252Y-103562476D01*
X56567737Y-103580342D01*
X56405700Y-103693802D01*
X56405698Y-103693803D01*
X56405695Y-103693806D01*
X56243806Y-103855695D01*
X56112476Y-104043251D01*
X56092382Y-104086345D01*
X56046209Y-104138784D01*
X55979016Y-104157936D01*
X55912135Y-104137720D01*
X55867618Y-104086345D01*
X55847523Y-104043251D01*
X55828670Y-104016326D01*
X55716198Y-103855700D01*
X55644202Y-103783704D01*
X55610717Y-103722381D01*
X55615701Y-103652689D01*
X55657573Y-103596756D01*
X55699790Y-103576248D01*
X55886317Y-103526269D01*
X55886331Y-103526264D01*
X56092478Y-103430136D01*
X56165472Y-103379025D01*
X55623866Y-102837419D01*
X55590381Y-102776096D01*
X55595365Y-102706404D01*
X55637237Y-102650471D01*
X55655245Y-102639258D01*
X55678045Y-102627641D01*
X55767641Y-102538045D01*
X55779254Y-102515252D01*
X55827225Y-102464458D01*
X55895046Y-102447661D01*
X55961181Y-102470197D01*
G37*
%TD.AperFunction*%
%TA.AperFunction,Conductor*%
G36*
X75647590Y-99493985D02*
G01*
X75693345Y-99546789D01*
X75703289Y-99615947D01*
X75691551Y-99653572D01*
X75636239Y-99764651D01*
X75583505Y-99950000D01*
X76297953Y-99950000D01*
X76364992Y-99969685D01*
X76410747Y-100022489D01*
X76420691Y-100091647D01*
X76418158Y-100104443D01*
X76416017Y-100112896D01*
X76406371Y-100229299D01*
X76406371Y-100229302D01*
X76406372Y-100229302D01*
X76421010Y-100287108D01*
X76423151Y-100295560D01*
X76420525Y-100365381D01*
X76380569Y-100422698D01*
X76315968Y-100449314D01*
X76302945Y-100450000D01*
X75583505Y-100450000D01*
X75595900Y-100493567D01*
X75595312Y-100563434D01*
X75557045Y-100621892D01*
X75493247Y-100650382D01*
X75476633Y-100651500D01*
X70431752Y-100651500D01*
X70364713Y-100631815D01*
X70318958Y-100579011D01*
X70309014Y-100509853D01*
X70311977Y-100495407D01*
X70318133Y-100472429D01*
X70334686Y-100410655D01*
X70353116Y-100200000D01*
X70352406Y-100191889D01*
X70344756Y-100104443D01*
X70334686Y-99989345D01*
X70279956Y-99785090D01*
X70217290Y-99650704D01*
X70206799Y-99581627D01*
X70235319Y-99517843D01*
X70293795Y-99479604D01*
X70329673Y-99474300D01*
X75580551Y-99474300D01*
X75647590Y-99493985D01*
G37*
%TD.AperFunction*%
%TA.AperFunction,Conductor*%
G36*
X81852573Y-99493985D02*
G01*
X81873215Y-99510619D01*
X82802415Y-100439819D01*
X82835900Y-100501142D01*
X82830916Y-100570834D01*
X82789044Y-100626767D01*
X82723580Y-100651184D01*
X82714734Y-100651500D01*
X78043367Y-100651500D01*
X77976328Y-100631815D01*
X77930573Y-100579011D01*
X77920629Y-100509853D01*
X77924100Y-100493567D01*
X77936495Y-100450000D01*
X77222047Y-100450000D01*
X77155008Y-100430315D01*
X77109253Y-100377511D01*
X77099309Y-100308353D01*
X77101842Y-100295557D01*
X77103979Y-100287114D01*
X77103982Y-100287108D01*
X77113628Y-100170698D01*
X77096849Y-100104438D01*
X77099475Y-100034619D01*
X77139431Y-99977302D01*
X77204032Y-99950686D01*
X77217055Y-99950000D01*
X77936495Y-99950000D01*
X77883760Y-99764651D01*
X77828449Y-99653572D01*
X77816188Y-99584787D01*
X77843061Y-99520292D01*
X77900536Y-99480564D01*
X77939449Y-99474300D01*
X81785534Y-99474300D01*
X81852573Y-99493985D01*
G37*
%TD.AperFunction*%
%TA.AperFunction,Conductor*%
G36*
X75412472Y-96885685D02*
G01*
X75458227Y-96938489D01*
X75468171Y-97007647D01*
X75465208Y-97022094D01*
X75464859Y-97023393D01*
X75464858Y-97023400D01*
X75445034Y-97249997D01*
X75445034Y-97250002D01*
X75464858Y-97476599D01*
X75464860Y-97476609D01*
X75494066Y-97585607D01*
X75492403Y-97655456D01*
X75453241Y-97713319D01*
X75389012Y-97740823D01*
X75374291Y-97741700D01*
X74840350Y-97741700D01*
X74773311Y-97722015D01*
X74727556Y-97669211D01*
X74717612Y-97600053D01*
X74720575Y-97585607D01*
X74755139Y-97456609D01*
X74755141Y-97456599D01*
X74774966Y-97230002D01*
X74774966Y-97229999D01*
X74754914Y-97000808D01*
X74768681Y-96932308D01*
X74817296Y-96882124D01*
X74878442Y-96866000D01*
X75345433Y-96866000D01*
X75412472Y-96885685D01*
G37*
%TD.AperFunction*%
%TA.AperFunction,Conductor*%
G36*
X42283452Y-46550776D02*
G01*
X42301261Y-46564665D01*
X42397632Y-46655091D01*
X42971366Y-47193435D01*
X44409255Y-48490486D01*
X45872342Y-49759044D01*
X47360063Y-50998622D01*
X48871843Y-52208740D01*
X50407100Y-53388932D01*
X51965240Y-54538742D01*
X53545664Y-55657727D01*
X55147760Y-56745455D01*
X56770912Y-57801507D01*
X58414492Y-58825475D01*
X60077867Y-59816963D01*
X61760395Y-60775590D01*
X63461427Y-61700986D01*
X65180306Y-62592793D01*
X66916369Y-63450667D01*
X68668948Y-64274279D01*
X70437364Y-65063308D01*
X72220937Y-65817453D01*
X74018978Y-66536420D01*
X75830793Y-67219934D01*
X77655684Y-67867730D01*
X79492946Y-68479559D01*
X81341871Y-69055183D01*
X83201744Y-69594382D01*
X85071849Y-70096948D01*
X86951465Y-70562685D01*
X88839865Y-70991416D01*
X90736322Y-71382973D01*
X92640104Y-71737207D01*
X94550475Y-72053981D01*
X96466700Y-72333171D01*
X98388039Y-72574672D01*
X100313751Y-72778388D01*
X102243092Y-72944243D01*
X104175319Y-73072171D01*
X106109686Y-73162124D01*
X108045446Y-73214067D01*
X108888540Y-73220124D01*
X108889120Y-73220299D01*
X108907312Y-73220259D01*
X109981853Y-73227979D01*
X110823948Y-73217490D01*
X110891226Y-73236338D01*
X110937635Y-73288568D01*
X110949491Y-73341487D01*
X110946707Y-122862307D01*
X110927019Y-122929345D01*
X110874212Y-122975097D01*
X110822707Y-122986300D01*
X35227300Y-122986300D01*
X35160261Y-122966615D01*
X35114506Y-122913811D01*
X35103300Y-122862300D01*
X35103300Y-113569999D01*
X38790976Y-113569999D01*
X38790978Y-113570000D01*
X39656653Y-113570000D01*
X39723692Y-113589685D01*
X39769447Y-113642489D01*
X39779391Y-113711647D01*
X39775631Y-113728933D01*
X39770000Y-113748111D01*
X39770000Y-113891888D01*
X39775631Y-113911067D01*
X39775630Y-113980936D01*
X39737855Y-114039714D01*
X39674299Y-114068738D01*
X39656653Y-114070000D01*
X38790977Y-114070000D01*
X38810916Y-114189492D01*
X38891630Y-114424603D01*
X38891635Y-114424614D01*
X39009942Y-114643228D01*
X39009948Y-114643237D01*
X39162626Y-114839397D01*
X39162635Y-114839407D01*
X39345522Y-115007767D01*
X39345521Y-115007767D01*
X39553632Y-115143732D01*
X39781282Y-115243587D01*
X40022261Y-115304612D01*
X40022269Y-115304614D01*
X40207959Y-115320000D01*
X40770000Y-115320000D01*
X40770000Y-114444000D01*
X40789685Y-114376961D01*
X40842489Y-114331206D01*
X40894000Y-114320000D01*
X41146000Y-114320000D01*
X41213039Y-114339685D01*
X41258794Y-114392489D01*
X41270000Y-114444000D01*
X41270000Y-115320000D01*
X41832041Y-115320000D01*
X42017730Y-115304614D01*
X42017738Y-115304612D01*
X42258717Y-115243587D01*
X42486367Y-115143732D01*
X42694478Y-115007767D01*
X42877364Y-114839407D01*
X42877373Y-114839397D01*
X43030051Y-114643237D01*
X43030057Y-114643228D01*
X43148364Y-114424614D01*
X43148369Y-114424603D01*
X43229083Y-114189492D01*
X43249023Y-114070000D01*
X42383347Y-114070000D01*
X42316308Y-114050315D01*
X42270553Y-113997511D01*
X42260609Y-113928353D01*
X42264369Y-113911067D01*
X42270000Y-113891888D01*
X42270000Y-113748111D01*
X42264369Y-113728933D01*
X42264370Y-113659064D01*
X42302145Y-113600286D01*
X42365701Y-113571262D01*
X42383347Y-113570000D01*
X43249022Y-113570000D01*
X43249023Y-113569999D01*
X43229083Y-113450507D01*
X43148369Y-113215396D01*
X43148364Y-113215385D01*
X43030057Y-112996771D01*
X43030051Y-112996762D01*
X42877373Y-112800602D01*
X42877364Y-112800592D01*
X42694477Y-112632232D01*
X42694478Y-112632232D01*
X42486367Y-112496267D01*
X42258717Y-112396412D01*
X42017738Y-112335387D01*
X42017730Y-112335385D01*
X41832041Y-112320000D01*
X41270000Y-112320000D01*
X41270000Y-113196000D01*
X41250315Y-113263039D01*
X41197511Y-113308794D01*
X41146000Y-113320000D01*
X40894000Y-113320000D01*
X40826961Y-113300315D01*
X40781206Y-113247511D01*
X40770000Y-113196000D01*
X40770000Y-112320000D01*
X40207959Y-112320000D01*
X40022269Y-112335385D01*
X40022261Y-112335387D01*
X39781282Y-112396412D01*
X39553632Y-112496267D01*
X39345521Y-112632232D01*
X39162635Y-112800592D01*
X39162626Y-112800602D01*
X39009948Y-112996762D01*
X39009942Y-112996771D01*
X38891635Y-113215385D01*
X38891630Y-113215396D01*
X38810916Y-113450507D01*
X38790976Y-113569999D01*
X35103300Y-113569999D01*
X35103300Y-108032041D01*
X38720000Y-108032041D01*
X38735385Y-108217730D01*
X38735387Y-108217738D01*
X38796412Y-108458717D01*
X38896267Y-108686367D01*
X39032232Y-108894478D01*
X39200592Y-109077364D01*
X39200602Y-109077373D01*
X39396762Y-109230051D01*
X39396771Y-109230057D01*
X39615385Y-109348364D01*
X39615396Y-109348369D01*
X39850507Y-109429083D01*
X39969999Y-109449023D01*
X39970000Y-109449022D01*
X39970000Y-108583346D01*
X39989685Y-108516307D01*
X40042489Y-108470552D01*
X40111647Y-108460608D01*
X40128937Y-108464370D01*
X40148108Y-108469999D01*
X40148110Y-108470000D01*
X40148111Y-108470000D01*
X40291890Y-108470000D01*
X40291890Y-108469999D01*
X40311063Y-108464369D01*
X40380932Y-108464368D01*
X40439711Y-108502141D01*
X40468737Y-108565696D01*
X40470000Y-108583346D01*
X40470000Y-109449023D01*
X40589492Y-109429083D01*
X40824603Y-109348369D01*
X40824614Y-109348364D01*
X41043228Y-109230057D01*
X41043237Y-109230051D01*
X41239397Y-109077373D01*
X41239407Y-109077364D01*
X41407767Y-108894478D01*
X41543732Y-108686367D01*
X41643587Y-108458717D01*
X41704612Y-108217738D01*
X41704614Y-108217730D01*
X41720000Y-108032041D01*
X41720000Y-107220000D01*
X40844000Y-107220000D01*
X40776961Y-107200315D01*
X40731206Y-107147511D01*
X40720000Y-107096000D01*
X40720000Y-106844000D01*
X40739685Y-106776961D01*
X40792489Y-106731206D01*
X40844000Y-106720000D01*
X41720000Y-106720000D01*
X41720000Y-105907959D01*
X41704614Y-105722269D01*
X41704612Y-105722261D01*
X41643587Y-105481282D01*
X41543732Y-105253632D01*
X41407767Y-105045521D01*
X41239407Y-104862635D01*
X41239397Y-104862626D01*
X41043237Y-104709948D01*
X41043228Y-104709942D01*
X40824614Y-104591635D01*
X40824603Y-104591630D01*
X40589492Y-104510916D01*
X40470000Y-104490976D01*
X40470000Y-105356653D01*
X40450315Y-105423692D01*
X40397511Y-105469447D01*
X40328353Y-105479391D01*
X40311067Y-105475631D01*
X40291889Y-105470000D01*
X40148111Y-105470000D01*
X40128933Y-105475631D01*
X40059064Y-105475630D01*
X40000286Y-105437855D01*
X39971262Y-105374299D01*
X39970000Y-105356653D01*
X39970000Y-104490976D01*
X39969999Y-104490976D01*
X39850507Y-104510916D01*
X39615396Y-104591630D01*
X39615385Y-104591635D01*
X39396771Y-104709942D01*
X39396762Y-104709948D01*
X39200602Y-104862626D01*
X39200592Y-104862635D01*
X39032232Y-105045521D01*
X38896267Y-105253632D01*
X38796412Y-105481282D01*
X38735387Y-105722261D01*
X38735385Y-105722269D01*
X38720000Y-105907959D01*
X38720000Y-106720000D01*
X39596000Y-106720000D01*
X39663039Y-106739685D01*
X39708794Y-106792489D01*
X39720000Y-106844000D01*
X39720000Y-107096000D01*
X39700315Y-107163039D01*
X39647511Y-107208794D01*
X39596000Y-107220000D01*
X38720000Y-107220000D01*
X38720000Y-108032041D01*
X35103300Y-108032041D01*
X35103300Y-99869999D01*
X38790976Y-99869999D01*
X38790978Y-99870000D01*
X39656653Y-99870000D01*
X39723692Y-99889685D01*
X39769447Y-99942489D01*
X39779391Y-100011647D01*
X39775631Y-100028933D01*
X39770000Y-100048111D01*
X39770000Y-100191888D01*
X39775631Y-100211067D01*
X39775630Y-100280936D01*
X39737855Y-100339714D01*
X39674299Y-100368738D01*
X39656653Y-100370000D01*
X38790977Y-100370000D01*
X38810916Y-100489492D01*
X38891630Y-100724603D01*
X38891635Y-100724614D01*
X39009942Y-100943228D01*
X39009948Y-100943237D01*
X39162626Y-101139397D01*
X39162635Y-101139407D01*
X39345522Y-101307767D01*
X39345521Y-101307767D01*
X39553632Y-101443732D01*
X39781282Y-101543587D01*
X40022261Y-101604612D01*
X40022269Y-101604614D01*
X40207959Y-101620000D01*
X40770000Y-101620000D01*
X40770000Y-100744000D01*
X40789685Y-100676961D01*
X40842489Y-100631206D01*
X40894000Y-100620000D01*
X41146000Y-100620000D01*
X41213039Y-100639685D01*
X41258794Y-100692489D01*
X41270000Y-100744000D01*
X41270000Y-101620000D01*
X41832041Y-101620000D01*
X42017730Y-101604614D01*
X42017738Y-101604612D01*
X42258717Y-101543587D01*
X42486367Y-101443732D01*
X42694478Y-101307767D01*
X42877364Y-101139407D01*
X42877373Y-101139397D01*
X43030051Y-100943237D01*
X43030057Y-100943228D01*
X43148364Y-100724614D01*
X43148369Y-100724603D01*
X43229083Y-100489492D01*
X43249023Y-100370000D01*
X42383347Y-100370000D01*
X42316308Y-100350315D01*
X42270553Y-100297511D01*
X42260609Y-100228353D01*
X42264369Y-100211067D01*
X42270000Y-100191888D01*
X42270000Y-100048111D01*
X42264369Y-100028933D01*
X42264370Y-99959064D01*
X42302145Y-99900286D01*
X42365701Y-99871262D01*
X42383347Y-99870000D01*
X43249022Y-99870000D01*
X43249023Y-99869999D01*
X43229083Y-99750507D01*
X43148369Y-99515396D01*
X43148364Y-99515385D01*
X43030057Y-99296771D01*
X43030051Y-99296762D01*
X42877373Y-99100602D01*
X42877364Y-99100592D01*
X42694477Y-98932232D01*
X42694478Y-98932232D01*
X42486367Y-98796267D01*
X42258717Y-98696412D01*
X42017738Y-98635387D01*
X42017730Y-98635385D01*
X41832041Y-98620000D01*
X41270000Y-98620000D01*
X41270000Y-99496000D01*
X41250315Y-99563039D01*
X41197511Y-99608794D01*
X41146000Y-99620000D01*
X40894000Y-99620000D01*
X40826961Y-99600315D01*
X40781206Y-99547511D01*
X40770000Y-99496000D01*
X40770000Y-98620000D01*
X40207959Y-98620000D01*
X40022269Y-98635385D01*
X40022261Y-98635387D01*
X39781282Y-98696412D01*
X39553632Y-98796267D01*
X39345521Y-98932232D01*
X39162635Y-99100592D01*
X39162626Y-99100602D01*
X39009948Y-99296762D01*
X39009942Y-99296771D01*
X38891635Y-99515385D01*
X38891630Y-99515396D01*
X38810916Y-99750507D01*
X38790976Y-99869999D01*
X35103300Y-99869999D01*
X35103300Y-98320002D01*
X55376693Y-98320002D01*
X55395884Y-98539365D01*
X55395885Y-98539372D01*
X55406205Y-98577884D01*
X55452880Y-98752076D01*
X55452881Y-98752079D01*
X55452882Y-98752081D01*
X55500102Y-98853345D01*
X55545944Y-98951654D01*
X55672251Y-99132038D01*
X55827962Y-99287749D01*
X56008346Y-99414056D01*
X56207924Y-99507120D01*
X56420629Y-99564115D01*
X56577322Y-99577823D01*
X56639998Y-99583307D01*
X56640000Y-99583307D01*
X56640002Y-99583307D01*
X56694842Y-99578509D01*
X56859371Y-99564115D01*
X57072076Y-99507120D01*
X57271654Y-99414056D01*
X57452038Y-99287749D01*
X57607749Y-99132038D01*
X57734056Y-98951654D01*
X57827120Y-98752076D01*
X57884115Y-98539371D01*
X57900229Y-98355181D01*
X57903307Y-98320002D01*
X57903307Y-98319997D01*
X57890877Y-98177923D01*
X57884115Y-98100629D01*
X57827120Y-97887924D01*
X57734056Y-97688347D01*
X57734054Y-97688344D01*
X57734053Y-97688342D01*
X57643670Y-97559263D01*
X57607749Y-97507962D01*
X57452038Y-97352251D01*
X57271654Y-97225944D01*
X57173137Y-97180005D01*
X57072081Y-97132882D01*
X57072079Y-97132881D01*
X57072076Y-97132880D01*
X56919538Y-97092007D01*
X56859372Y-97075885D01*
X56859365Y-97075884D01*
X56640002Y-97056693D01*
X56639998Y-97056693D01*
X56420634Y-97075884D01*
X56420627Y-97075885D01*
X56207920Y-97132881D01*
X56008346Y-97225944D01*
X56008342Y-97225946D01*
X55827967Y-97352247D01*
X55827960Y-97352252D01*
X55672252Y-97507960D01*
X55672247Y-97507967D01*
X55545946Y-97688342D01*
X55545944Y-97688346D01*
X55452881Y-97887920D01*
X55395885Y-98100627D01*
X55395884Y-98100634D01*
X55376693Y-98319997D01*
X55376693Y-98320002D01*
X35103300Y-98320002D01*
X35103300Y-93830001D01*
X37296502Y-93830001D01*
X37316456Y-94058081D01*
X37316457Y-94058089D01*
X37375714Y-94279238D01*
X37375718Y-94279249D01*
X37452381Y-94443653D01*
X37472477Y-94486749D01*
X37603802Y-94674300D01*
X37765700Y-94836198D01*
X37953251Y-94967523D01*
X38063256Y-95018819D01*
X38160750Y-95064281D01*
X38160752Y-95064281D01*
X38160757Y-95064284D01*
X38381913Y-95123543D01*
X38544832Y-95137796D01*
X38609998Y-95143498D01*
X38610000Y-95143498D01*
X38610002Y-95143498D01*
X38669013Y-95138335D01*
X38838087Y-95123543D01*
X39059243Y-95064284D01*
X39266749Y-94967523D01*
X39454300Y-94836198D01*
X39616198Y-94674300D01*
X39747523Y-94486749D01*
X39767617Y-94443655D01*
X39813790Y-94391215D01*
X39880983Y-94372063D01*
X39947864Y-94392278D01*
X39992382Y-94443655D01*
X40012477Y-94486749D01*
X40143802Y-94674300D01*
X40305700Y-94836198D01*
X40493251Y-94967523D01*
X40603256Y-95018819D01*
X40700750Y-95064281D01*
X40700752Y-95064281D01*
X40700757Y-95064284D01*
X40921913Y-95123543D01*
X41084832Y-95137796D01*
X41149998Y-95143498D01*
X41150000Y-95143498D01*
X41150002Y-95143498D01*
X41209013Y-95138335D01*
X41378087Y-95123543D01*
X41599243Y-95064284D01*
X41806749Y-94967523D01*
X41994300Y-94836198D01*
X42156198Y-94674300D01*
X42287523Y-94486749D01*
X42307617Y-94443655D01*
X42353790Y-94391215D01*
X42420983Y-94372063D01*
X42487864Y-94392278D01*
X42532382Y-94443655D01*
X42552477Y-94486749D01*
X42683802Y-94674300D01*
X42845700Y-94836198D01*
X43033251Y-94967523D01*
X43143256Y-95018819D01*
X43240750Y-95064281D01*
X43240752Y-95064281D01*
X43240757Y-95064284D01*
X43461913Y-95123543D01*
X43624832Y-95137796D01*
X43689998Y-95143498D01*
X43690000Y-95143498D01*
X43690002Y-95143498D01*
X43749013Y-95138335D01*
X43918087Y-95123543D01*
X44139243Y-95064284D01*
X44346749Y-94967523D01*
X44534300Y-94836198D01*
X44696198Y-94674300D01*
X44827523Y-94486749D01*
X44847617Y-94443655D01*
X44893790Y-94391215D01*
X44960983Y-94372063D01*
X45027864Y-94392278D01*
X45072382Y-94443655D01*
X45092477Y-94486749D01*
X45223802Y-94674300D01*
X45385700Y-94836198D01*
X45573251Y-94967523D01*
X45683256Y-95018819D01*
X45780750Y-95064281D01*
X45780752Y-95064281D01*
X45780757Y-95064284D01*
X46001913Y-95123543D01*
X46164832Y-95137796D01*
X46229998Y-95143498D01*
X46230000Y-95143498D01*
X46230002Y-95143498D01*
X46289013Y-95138335D01*
X46458087Y-95123543D01*
X46679243Y-95064284D01*
X46886749Y-94967523D01*
X47074300Y-94836198D01*
X47236198Y-94674300D01*
X47367523Y-94486749D01*
X47387617Y-94443655D01*
X47433790Y-94391215D01*
X47500983Y-94372063D01*
X47567864Y-94392278D01*
X47612382Y-94443655D01*
X47632477Y-94486749D01*
X47763802Y-94674300D01*
X47925700Y-94836198D01*
X48113251Y-94967523D01*
X48223256Y-95018819D01*
X48320750Y-95064281D01*
X48320752Y-95064281D01*
X48320757Y-95064284D01*
X48541913Y-95123543D01*
X48704832Y-95137796D01*
X48769998Y-95143498D01*
X48770000Y-95143498D01*
X48770002Y-95143498D01*
X48829013Y-95138335D01*
X48998087Y-95123543D01*
X49219243Y-95064284D01*
X49426749Y-94967523D01*
X49614300Y-94836198D01*
X49776198Y-94674300D01*
X49907523Y-94486749D01*
X49927617Y-94443655D01*
X49973790Y-94391215D01*
X50040983Y-94372063D01*
X50107864Y-94392278D01*
X50152382Y-94443655D01*
X50172477Y-94486749D01*
X50303802Y-94674300D01*
X50465700Y-94836198D01*
X50653251Y-94967523D01*
X50763256Y-95018819D01*
X50860750Y-95064281D01*
X50860752Y-95064281D01*
X50860757Y-95064284D01*
X51081913Y-95123543D01*
X51244832Y-95137796D01*
X51309998Y-95143498D01*
X51310000Y-95143498D01*
X51310002Y-95143498D01*
X51369013Y-95138335D01*
X51538087Y-95123543D01*
X51759243Y-95064284D01*
X51966749Y-94967523D01*
X52154300Y-94836198D01*
X52316198Y-94674300D01*
X52447523Y-94486749D01*
X52467617Y-94443655D01*
X52513790Y-94391215D01*
X52580983Y-94372063D01*
X52647864Y-94392278D01*
X52692382Y-94443655D01*
X52712477Y-94486749D01*
X52843802Y-94674300D01*
X53005700Y-94836198D01*
X53193251Y-94967523D01*
X53303256Y-95018819D01*
X53400750Y-95064281D01*
X53400752Y-95064281D01*
X53400757Y-95064284D01*
X53621913Y-95123543D01*
X53784832Y-95137796D01*
X53849998Y-95143498D01*
X53850000Y-95143498D01*
X53850002Y-95143498D01*
X53909013Y-95138335D01*
X54078087Y-95123543D01*
X54299243Y-95064284D01*
X54506749Y-94967523D01*
X54694300Y-94836198D01*
X54856198Y-94674300D01*
X54987523Y-94486749D01*
X55007617Y-94443655D01*
X55053790Y-94391215D01*
X55120983Y-94372063D01*
X55187864Y-94392278D01*
X55232382Y-94443655D01*
X55252477Y-94486749D01*
X55383802Y-94674300D01*
X55545700Y-94836198D01*
X55706240Y-94948609D01*
X55749862Y-95003184D01*
X55759053Y-95046284D01*
X55759326Y-95054988D01*
X55759327Y-95054991D01*
X55765022Y-95074595D01*
X55768967Y-95093642D01*
X55771526Y-95113897D01*
X55771527Y-95113900D01*
X55771528Y-95113903D01*
X55788914Y-95157816D01*
X55790806Y-95163344D01*
X55803981Y-95208692D01*
X55814372Y-95226262D01*
X55822932Y-95243735D01*
X55830447Y-95262717D01*
X55858209Y-95300927D01*
X55861416Y-95305810D01*
X55885458Y-95346462D01*
X55885462Y-95346466D01*
X55899889Y-95360893D01*
X55912526Y-95375688D01*
X55924528Y-95392207D01*
X55960931Y-95422322D01*
X55965231Y-95426235D01*
X58565686Y-98026690D01*
X61139910Y-100600914D01*
X61149816Y-100613278D01*
X61150026Y-100613105D01*
X61155001Y-100619119D01*
X61206095Y-100667100D01*
X61227224Y-100688229D01*
X61227228Y-100688232D01*
X61227231Y-100688235D01*
X61232805Y-100692558D01*
X61237245Y-100696351D01*
X61252021Y-100710226D01*
X61271678Y-100728685D01*
X61271681Y-100728687D01*
X61289563Y-100738517D01*
X61305830Y-100749202D01*
X61321959Y-100761714D01*
X61365307Y-100780471D01*
X61370533Y-100783031D01*
X61411940Y-100805795D01*
X61431716Y-100810872D01*
X61450124Y-100817175D01*
X61468850Y-100825279D01*
X61468852Y-100825280D01*
X61468853Y-100825280D01*
X61468855Y-100825281D01*
X61509784Y-100831763D01*
X61515503Y-100832669D01*
X61521212Y-100833851D01*
X61566970Y-100845600D01*
X61587384Y-100845600D01*
X61606783Y-100847127D01*
X61626943Y-100850320D01*
X61673965Y-100845875D01*
X61679804Y-100845600D01*
X62123470Y-100845600D01*
X62190509Y-100865285D01*
X62236264Y-100918089D01*
X62246208Y-100987247D01*
X62217183Y-101050803D01*
X62175874Y-101081982D01*
X62003254Y-101162475D01*
X62003252Y-101162476D01*
X61955301Y-101196052D01*
X61815700Y-101293802D01*
X61815698Y-101293803D01*
X61815695Y-101293806D01*
X61653806Y-101455695D01*
X61653803Y-101455698D01*
X61653802Y-101455700D01*
X61583493Y-101556112D01*
X61522476Y-101643252D01*
X61522474Y-101643255D01*
X61517689Y-101653517D01*
X61471514Y-101705954D01*
X61404320Y-101725102D01*
X61337440Y-101704883D01*
X61292925Y-101653504D01*
X61290133Y-101647516D01*
X61290131Y-101647512D01*
X61239026Y-101574526D01*
X61239025Y-101574526D01*
X60697419Y-102116132D01*
X60636096Y-102149617D01*
X60566404Y-102144633D01*
X60510471Y-102102761D01*
X60499256Y-102084751D01*
X60487641Y-102061955D01*
X60487637Y-102061951D01*
X60487636Y-102061949D01*
X60398050Y-101972363D01*
X60398044Y-101972358D01*
X60388109Y-101967296D01*
X60375250Y-101960744D01*
X60324456Y-101912773D01*
X60307660Y-101844952D01*
X60330197Y-101778817D01*
X60343865Y-101762580D01*
X60885472Y-101220973D01*
X60812483Y-101169866D01*
X60812481Y-101169865D01*
X60606326Y-101073734D01*
X60606317Y-101073730D01*
X60386610Y-101014860D01*
X60386599Y-101014858D01*
X60160002Y-100995034D01*
X60159998Y-100995034D01*
X59933400Y-101014858D01*
X59933389Y-101014860D01*
X59713682Y-101073730D01*
X59713673Y-101073734D01*
X59507513Y-101169868D01*
X59434526Y-101220973D01*
X59976133Y-101762580D01*
X60009618Y-101823903D01*
X60004634Y-101893595D01*
X59962762Y-101949528D01*
X59944748Y-101960745D01*
X59921956Y-101972358D01*
X59921949Y-101972363D01*
X59832363Y-102061949D01*
X59832358Y-102061956D01*
X59820745Y-102084748D01*
X59772770Y-102135544D01*
X59704949Y-102152338D01*
X59638814Y-102129800D01*
X59622580Y-102116133D01*
X59072768Y-101566322D01*
X59035196Y-101558771D01*
X58991315Y-101520134D01*
X58962515Y-101479004D01*
X58946198Y-101455700D01*
X58784300Y-101293802D01*
X58596749Y-101162477D01*
X58593938Y-101161166D01*
X58389249Y-101065718D01*
X58389238Y-101065714D01*
X58168089Y-101006457D01*
X58168081Y-101006456D01*
X57940002Y-100986502D01*
X57939998Y-100986502D01*
X57711918Y-101006456D01*
X57711910Y-101006457D01*
X57490761Y-101065714D01*
X57490750Y-101065718D01*
X57283254Y-101162475D01*
X57283252Y-101162476D01*
X57235301Y-101196052D01*
X57095700Y-101293802D01*
X57095698Y-101293803D01*
X57095695Y-101293806D01*
X56933806Y-101455695D01*
X56933803Y-101455698D01*
X56933802Y-101455700D01*
X56863493Y-101556112D01*
X56802476Y-101643252D01*
X56802474Y-101643255D01*
X56797689Y-101653517D01*
X56751514Y-101705954D01*
X56684320Y-101725102D01*
X56617440Y-101704883D01*
X56572925Y-101653504D01*
X56570133Y-101647516D01*
X56570131Y-101647512D01*
X56519026Y-101574526D01*
X56519025Y-101574526D01*
X55977419Y-102116132D01*
X55916096Y-102149617D01*
X55846404Y-102144633D01*
X55790471Y-102102761D01*
X55779256Y-102084751D01*
X55767641Y-102061955D01*
X55767637Y-102061951D01*
X55767636Y-102061949D01*
X55678050Y-101972363D01*
X55678044Y-101972358D01*
X55668109Y-101967296D01*
X55655250Y-101960744D01*
X55604456Y-101912773D01*
X55587660Y-101844952D01*
X55610197Y-101778817D01*
X55623865Y-101762580D01*
X56165472Y-101220973D01*
X56092483Y-101169866D01*
X56092481Y-101169865D01*
X55886326Y-101073734D01*
X55886317Y-101073730D01*
X55666610Y-101014860D01*
X55666599Y-101014858D01*
X55440002Y-100995034D01*
X55439998Y-100995034D01*
X55213400Y-101014858D01*
X55213389Y-101014860D01*
X54993682Y-101073730D01*
X54993673Y-101073734D01*
X54787513Y-101169868D01*
X54714526Y-101220973D01*
X55256133Y-101762580D01*
X55289618Y-101823903D01*
X55284634Y-101893595D01*
X55242762Y-101949528D01*
X55224748Y-101960745D01*
X55201956Y-101972358D01*
X55201949Y-101972363D01*
X55112363Y-102061949D01*
X55112358Y-102061956D01*
X55100745Y-102084748D01*
X55052770Y-102135544D01*
X54984949Y-102152338D01*
X54918814Y-102129800D01*
X54902580Y-102116133D01*
X54360973Y-101574526D01*
X54309868Y-101647513D01*
X54213734Y-101853673D01*
X54213730Y-101853682D01*
X54154860Y-102073389D01*
X54154858Y-102073400D01*
X54135034Y-102299997D01*
X54135034Y-102300002D01*
X54154858Y-102526599D01*
X54154860Y-102526610D01*
X54213730Y-102746317D01*
X54213734Y-102746326D01*
X54309865Y-102952481D01*
X54309866Y-102952483D01*
X54360973Y-103025471D01*
X54360973Y-103025472D01*
X54902580Y-102483865D01*
X54963903Y-102450380D01*
X55033594Y-102455364D01*
X55089528Y-102497235D01*
X55100742Y-102515246D01*
X55106527Y-102526599D01*
X55112358Y-102538044D01*
X55112363Y-102538050D01*
X55201949Y-102627636D01*
X55201951Y-102627637D01*
X55201955Y-102627641D01*
X55224747Y-102639254D01*
X55275542Y-102687228D01*
X55292337Y-102755049D01*
X55269799Y-102821184D01*
X55256132Y-102837419D01*
X54738681Y-103354871D01*
X54677358Y-103388356D01*
X54661808Y-103390718D01*
X54481917Y-103406456D01*
X54481910Y-103406457D01*
X54260761Y-103465714D01*
X54260750Y-103465718D01*
X54053254Y-103562475D01*
X54053252Y-103562476D01*
X54027737Y-103580342D01*
X53865700Y-103693802D01*
X53865698Y-103693803D01*
X53865695Y-103693806D01*
X53703806Y-103855695D01*
X53572476Y-104043251D01*
X53552382Y-104086345D01*
X53506209Y-104138784D01*
X53439016Y-104157936D01*
X53372135Y-104137720D01*
X53327618Y-104086345D01*
X53307523Y-104043251D01*
X53288670Y-104016326D01*
X53176198Y-103855700D01*
X53014300Y-103693802D01*
X52826749Y-103562477D01*
X52765281Y-103533814D01*
X52619249Y-103465718D01*
X52619238Y-103465714D01*
X52398089Y-103406457D01*
X52398081Y-103406456D01*
X52170002Y-103386502D01*
X52169998Y-103386502D01*
X51941918Y-103406456D01*
X51941910Y-103406457D01*
X51720761Y-103465714D01*
X51720750Y-103465718D01*
X51513254Y-103562475D01*
X51513252Y-103562476D01*
X51487737Y-103580342D01*
X51325700Y-103693802D01*
X51325698Y-103693803D01*
X51325695Y-103693806D01*
X51163806Y-103855695D01*
X51163803Y-103855698D01*
X51163802Y-103855700D01*
X51116367Y-103923444D01*
X51032476Y-104043252D01*
X51032475Y-104043254D01*
X50935718Y-104250750D01*
X50935714Y-104250761D01*
X50876457Y-104471910D01*
X50876456Y-104471918D01*
X50856502Y-104699998D01*
X50856502Y-104700001D01*
X50876456Y-104928081D01*
X50876457Y-104928089D01*
X50935714Y-105149238D01*
X50935718Y-105149249D01*
X51007692Y-105303597D01*
X51032477Y-105356749D01*
X51163802Y-105544300D01*
X51325700Y-105706198D01*
X51513251Y-105837523D01*
X51609197Y-105882263D01*
X51720750Y-105934281D01*
X51720752Y-105934281D01*
X51720757Y-105934284D01*
X51941913Y-105993543D01*
X52104832Y-106007796D01*
X52169998Y-106013498D01*
X52170000Y-106013498D01*
X52170002Y-106013498D01*
X52227139Y-106008499D01*
X52398087Y-105993543D01*
X52619243Y-105934284D01*
X52826749Y-105837523D01*
X53014300Y-105706198D01*
X53176198Y-105544300D01*
X53307523Y-105356749D01*
X53327617Y-105313655D01*
X53373790Y-105261215D01*
X53440983Y-105242063D01*
X53507864Y-105262278D01*
X53552382Y-105313655D01*
X53572477Y-105356749D01*
X53703802Y-105544300D01*
X53865700Y-105706198D01*
X54053251Y-105837523D01*
X54149197Y-105882263D01*
X54260750Y-105934281D01*
X54260752Y-105934281D01*
X54260757Y-105934284D01*
X54481913Y-105993543D01*
X54644832Y-106007796D01*
X54709998Y-106013498D01*
X54710000Y-106013498D01*
X54710002Y-106013498D01*
X54767139Y-106008499D01*
X54938087Y-105993543D01*
X55159243Y-105934284D01*
X55366749Y-105837523D01*
X55554300Y-105706198D01*
X55716198Y-105544300D01*
X55847523Y-105356749D01*
X55867617Y-105313655D01*
X55913790Y-105261215D01*
X55980983Y-105242063D01*
X56047864Y-105262278D01*
X56092382Y-105313655D01*
X56112477Y-105356749D01*
X56243802Y-105544300D01*
X56405700Y-105706198D01*
X56593251Y-105837523D01*
X56689197Y-105882263D01*
X56800750Y-105934281D01*
X56800752Y-105934281D01*
X56800757Y-105934284D01*
X57021913Y-105993543D01*
X57184832Y-106007796D01*
X57249998Y-106013498D01*
X57250000Y-106013498D01*
X57250002Y-106013498D01*
X57307139Y-106008499D01*
X57478087Y-105993543D01*
X57699243Y-105934284D01*
X57906749Y-105837523D01*
X58094300Y-105706198D01*
X58256198Y-105544300D01*
X58387523Y-105356749D01*
X58407617Y-105313655D01*
X58453790Y-105261215D01*
X58520983Y-105242063D01*
X58587864Y-105262278D01*
X58632382Y-105313655D01*
X58652477Y-105356749D01*
X58783802Y-105544300D01*
X58843055Y-105603553D01*
X58901488Y-105661986D01*
X58934972Y-105723309D01*
X58929988Y-105793001D01*
X58914130Y-105822545D01*
X58912959Y-105824156D01*
X58817473Y-105989543D01*
X58817470Y-105989550D01*
X58758459Y-106171168D01*
X58758458Y-106171172D01*
X58738496Y-106361100D01*
X58758458Y-106551028D01*
X58758459Y-106551031D01*
X58817470Y-106732649D01*
X58817473Y-106732656D01*
X58913468Y-106898924D01*
X58929941Y-106966824D01*
X58907088Y-107032851D01*
X58852167Y-107076042D01*
X58782614Y-107082683D01*
X58780305Y-107082215D01*
X58766588Y-107079300D01*
X58766587Y-107079300D01*
X58575613Y-107079300D01*
X58388814Y-107119005D01*
X58388811Y-107119006D01*
X58388812Y-107119006D01*
X58243500Y-107183703D01*
X58214346Y-107196683D01*
X58059845Y-107308935D01*
X57932059Y-107450857D01*
X57836573Y-107616243D01*
X57836570Y-107616250D01*
X57777559Y-107797868D01*
X57777558Y-107797872D01*
X57757596Y-107987800D01*
X57777558Y-108177728D01*
X57777559Y-108177731D01*
X57836570Y-108359349D01*
X57836573Y-108359356D01*
X57900453Y-108470000D01*
X57925222Y-108512900D01*
X57941695Y-108580800D01*
X57918842Y-108646827D01*
X57863921Y-108690018D01*
X57817835Y-108698900D01*
X52746167Y-108698900D01*
X52679128Y-108679215D01*
X52658486Y-108662581D01*
X47978335Y-103982430D01*
X47944850Y-103921107D01*
X47946242Y-103862654D01*
X47963541Y-103798094D01*
X47963540Y-103798094D01*
X47963543Y-103798087D01*
X47983498Y-103570000D01*
X47979823Y-103528000D01*
X47977122Y-103497121D01*
X47963543Y-103341913D01*
X47904284Y-103120757D01*
X47898646Y-103108667D01*
X47824418Y-102949483D01*
X47807523Y-102913251D01*
X47676198Y-102725700D01*
X47514300Y-102563802D01*
X47326749Y-102432477D01*
X47311032Y-102425148D01*
X47119249Y-102335718D01*
X47119238Y-102335714D01*
X46898089Y-102276457D01*
X46898081Y-102276456D01*
X46670002Y-102256502D01*
X46669998Y-102256502D01*
X46441918Y-102276456D01*
X46441910Y-102276457D01*
X46220761Y-102335714D01*
X46220750Y-102335718D01*
X46013254Y-102432475D01*
X46013252Y-102432476D01*
X45959381Y-102470197D01*
X45825700Y-102563802D01*
X45825698Y-102563803D01*
X45825695Y-102563806D01*
X45663806Y-102725695D01*
X45663803Y-102725698D01*
X45663802Y-102725700D01*
X45626411Y-102779100D01*
X45532476Y-102913252D01*
X45532475Y-102913254D01*
X45435718Y-103120750D01*
X45435714Y-103120762D01*
X45389136Y-103294594D01*
X45352771Y-103354254D01*
X45289924Y-103384783D01*
X45269361Y-103386500D01*
X45261840Y-103386500D01*
X45194801Y-103366815D01*
X45149046Y-103314011D01*
X45142065Y-103294594D01*
X45096268Y-103123680D01*
X45096265Y-103123673D01*
X45000133Y-102917516D01*
X45000131Y-102917512D01*
X44949026Y-102844526D01*
X44949025Y-102844526D01*
X44407419Y-103386132D01*
X44346096Y-103419617D01*
X44276404Y-103414633D01*
X44220471Y-103372761D01*
X44209256Y-103354751D01*
X44197641Y-103331955D01*
X44197637Y-103331951D01*
X44197636Y-103331949D01*
X44108050Y-103242363D01*
X44108044Y-103242358D01*
X44098109Y-103237296D01*
X44085250Y-103230744D01*
X44034456Y-103182773D01*
X44017660Y-103114952D01*
X44040197Y-103048817D01*
X44053865Y-103032580D01*
X44595472Y-102490973D01*
X44522483Y-102439866D01*
X44522481Y-102439865D01*
X44316326Y-102343734D01*
X44316317Y-102343730D01*
X44096610Y-102284860D01*
X44096599Y-102284858D01*
X43870002Y-102265034D01*
X43869998Y-102265034D01*
X43643400Y-102284858D01*
X43643389Y-102284860D01*
X43423682Y-102343730D01*
X43423673Y-102343734D01*
X43217513Y-102439868D01*
X43144526Y-102490973D01*
X43686133Y-103032580D01*
X43719618Y-103093903D01*
X43714634Y-103163595D01*
X43672762Y-103219528D01*
X43654748Y-103230745D01*
X43631956Y-103242358D01*
X43631949Y-103242363D01*
X43542363Y-103331949D01*
X43542358Y-103331956D01*
X43530745Y-103354748D01*
X43482770Y-103405544D01*
X43414949Y-103422338D01*
X43348814Y-103399800D01*
X43332580Y-103386133D01*
X42790973Y-102844526D01*
X42739868Y-102917513D01*
X42643734Y-103123673D01*
X42643730Y-103123682D01*
X42584860Y-103343389D01*
X42584858Y-103343400D01*
X42565034Y-103569997D01*
X42565034Y-103570002D01*
X42584858Y-103796599D01*
X42584860Y-103796610D01*
X42643730Y-104016317D01*
X42643734Y-104016326D01*
X42739865Y-104222482D01*
X42790160Y-104294309D01*
X42812487Y-104360515D01*
X42795477Y-104428283D01*
X42762897Y-104464699D01*
X42706739Y-104506738D01*
X42619111Y-104623795D01*
X42568011Y-104760795D01*
X42568011Y-104760797D01*
X42561500Y-104821345D01*
X42561500Y-106518654D01*
X42568011Y-106579202D01*
X42568011Y-106579204D01*
X42619111Y-106716204D01*
X42706739Y-106833261D01*
X42823796Y-106920889D01*
X42960799Y-106971989D01*
X42988050Y-106974918D01*
X43021345Y-106978499D01*
X43021362Y-106978500D01*
X43039876Y-106978500D01*
X43106915Y-106998185D01*
X43152670Y-107050989D01*
X43162614Y-107120147D01*
X43133589Y-107183703D01*
X43111004Y-107204071D01*
X43025700Y-107263802D01*
X43025698Y-107263803D01*
X43025695Y-107263806D01*
X42863806Y-107425695D01*
X42863803Y-107425698D01*
X42863802Y-107425700D01*
X42798209Y-107519376D01*
X42732476Y-107613252D01*
X42732475Y-107613254D01*
X42635718Y-107820750D01*
X42635714Y-107820761D01*
X42576457Y-108041910D01*
X42576456Y-108041918D01*
X42556502Y-108269998D01*
X42556502Y-108270001D01*
X42576456Y-108498081D01*
X42576457Y-108498089D01*
X42635714Y-108719238D01*
X42635718Y-108719249D01*
X42732475Y-108926745D01*
X42732477Y-108926749D01*
X42863802Y-109114300D01*
X42981823Y-109232321D01*
X43015306Y-109293640D01*
X43010322Y-109363332D01*
X42981822Y-109407680D01*
X42863802Y-109525700D01*
X42853149Y-109540914D01*
X42732476Y-109713252D01*
X42732475Y-109713254D01*
X42635718Y-109920750D01*
X42635714Y-109920761D01*
X42576457Y-110141910D01*
X42576456Y-110141918D01*
X42556502Y-110369998D01*
X42556502Y-110370001D01*
X42576456Y-110598081D01*
X42576457Y-110598089D01*
X42635714Y-110819238D01*
X42635718Y-110819249D01*
X42731724Y-111025135D01*
X42732477Y-111026749D01*
X42863802Y-111214300D01*
X43025700Y-111376198D01*
X43213251Y-111507523D01*
X43338091Y-111565736D01*
X43420750Y-111604281D01*
X43420752Y-111604281D01*
X43420757Y-111604284D01*
X43641913Y-111663543D01*
X43804832Y-111677796D01*
X43869998Y-111683498D01*
X43870000Y-111683498D01*
X43870002Y-111683498D01*
X43927021Y-111678509D01*
X44098087Y-111663543D01*
X44319243Y-111604284D01*
X44526749Y-111507523D01*
X44714300Y-111376198D01*
X44876198Y-111214300D01*
X45007523Y-111026749D01*
X45104284Y-110819243D01*
X45150225Y-110647788D01*
X45186590Y-110588129D01*
X45249437Y-110557600D01*
X45318813Y-110565895D01*
X45372690Y-110610380D01*
X45389774Y-110647787D01*
X45395908Y-110670679D01*
X45435714Y-110819238D01*
X45435718Y-110819249D01*
X45531724Y-111025135D01*
X45532477Y-111026749D01*
X45663802Y-111214300D01*
X45825700Y-111376198D01*
X46013251Y-111507523D01*
X46138091Y-111565736D01*
X46220750Y-111604281D01*
X46220752Y-111604281D01*
X46220757Y-111604284D01*
X46441913Y-111663543D01*
X46604832Y-111677796D01*
X46669998Y-111683498D01*
X46670000Y-111683498D01*
X46670002Y-111683498D01*
X46727021Y-111678509D01*
X46898087Y-111663543D01*
X47119243Y-111604284D01*
X47326749Y-111507523D01*
X47514300Y-111376198D01*
X47676198Y-111214300D01*
X47807523Y-111026749D01*
X47904284Y-110819243D01*
X47963543Y-110598087D01*
X47983498Y-110370000D01*
X47963543Y-110141913D01*
X47904284Y-109920757D01*
X47807523Y-109713251D01*
X47676198Y-109525700D01*
X47514300Y-109363802D01*
X47326749Y-109232477D01*
X47326406Y-109232317D01*
X47119249Y-109135718D01*
X47119238Y-109135714D01*
X46898089Y-109076457D01*
X46898081Y-109076456D01*
X46670002Y-109056502D01*
X46669998Y-109056502D01*
X46441918Y-109076456D01*
X46441910Y-109076457D01*
X46220761Y-109135714D01*
X46220750Y-109135718D01*
X46013254Y-109232475D01*
X46013252Y-109232476D01*
X45968953Y-109263495D01*
X45825700Y-109363802D01*
X45825698Y-109363803D01*
X45825695Y-109363806D01*
X45663806Y-109525695D01*
X45663803Y-109525698D01*
X45663802Y-109525700D01*
X45624826Y-109581363D01*
X45532476Y-109713252D01*
X45532475Y-109713254D01*
X45435718Y-109920750D01*
X45435714Y-109920762D01*
X45389774Y-110092210D01*
X45353408Y-110151870D01*
X45290561Y-110182399D01*
X45221186Y-110174104D01*
X45167308Y-110129618D01*
X45150225Y-110092213D01*
X45104284Y-109920757D01*
X45007523Y-109713251D01*
X44876198Y-109525700D01*
X44758179Y-109407680D01*
X44724694Y-109346358D01*
X44729678Y-109276666D01*
X44758179Y-109232319D01*
X44810778Y-109179720D01*
X44876198Y-109114300D01*
X45007523Y-108926749D01*
X45104284Y-108719243D01*
X45163543Y-108498087D01*
X45183498Y-108270000D01*
X45163543Y-108041913D01*
X45104284Y-107820757D01*
X45007523Y-107613251D01*
X44876198Y-107425700D01*
X44714300Y-107263802D01*
X44628998Y-107204073D01*
X44585375Y-107149497D01*
X44578183Y-107079999D01*
X44609705Y-107017644D01*
X44669935Y-106982231D01*
X44700124Y-106978500D01*
X44718638Y-106978500D01*
X44718654Y-106978499D01*
X44745692Y-106975591D01*
X44779201Y-106971989D01*
X44916204Y-106920889D01*
X45033261Y-106833261D01*
X45120889Y-106716204D01*
X45171989Y-106579201D01*
X45175591Y-106545692D01*
X45178499Y-106518654D01*
X45178500Y-106518637D01*
X45178500Y-105398666D01*
X45198185Y-105331627D01*
X45250989Y-105285872D01*
X45320147Y-105275928D01*
X45383703Y-105304953D01*
X45390181Y-105310985D01*
X50525510Y-110446314D01*
X50535416Y-110458678D01*
X50535626Y-110458505D01*
X50540601Y-110464519D01*
X50591695Y-110512500D01*
X50612824Y-110533629D01*
X50612828Y-110533632D01*
X50612831Y-110533635D01*
X50618405Y-110537958D01*
X50622847Y-110541752D01*
X50657279Y-110574086D01*
X50657283Y-110574089D01*
X50675163Y-110583918D01*
X50691427Y-110594601D01*
X50707560Y-110607114D01*
X50750901Y-110625869D01*
X50756150Y-110628441D01*
X50776227Y-110639478D01*
X50797540Y-110651195D01*
X50817318Y-110656273D01*
X50835719Y-110662573D01*
X50854455Y-110670681D01*
X50898962Y-110677729D01*
X50901103Y-110678069D01*
X50906812Y-110679251D01*
X50952570Y-110691000D01*
X50972984Y-110691000D01*
X50992383Y-110692527D01*
X51012543Y-110695720D01*
X51059565Y-110691275D01*
X51065404Y-110691000D01*
X54049211Y-110691000D01*
X54116250Y-110710685D01*
X54162005Y-110763489D01*
X54171835Y-110823702D01*
X54172296Y-110823702D01*
X54172296Y-110826527D01*
X54172530Y-110827965D01*
X54172296Y-110830200D01*
X54192258Y-111020128D01*
X54192259Y-111020131D01*
X54192785Y-111025135D01*
X54180216Y-111093865D01*
X54132484Y-111144889D01*
X54121870Y-111150479D01*
X54053251Y-111182476D01*
X54007797Y-111214304D01*
X53865700Y-111313802D01*
X53865698Y-111313803D01*
X53865695Y-111313806D01*
X53703806Y-111475695D01*
X53572476Y-111663251D01*
X53552382Y-111706345D01*
X53506209Y-111758784D01*
X53439016Y-111777936D01*
X53372135Y-111757720D01*
X53327618Y-111706345D01*
X53307523Y-111663251D01*
X53266234Y-111604285D01*
X53176198Y-111475700D01*
X53014300Y-111313802D01*
X52826749Y-111182477D01*
X52826745Y-111182475D01*
X52619249Y-111085718D01*
X52619238Y-111085714D01*
X52398089Y-111026457D01*
X52398081Y-111026456D01*
X52170002Y-111006502D01*
X52169998Y-111006502D01*
X51941918Y-111026456D01*
X51941910Y-111026457D01*
X51720761Y-111085714D01*
X51720750Y-111085718D01*
X51513254Y-111182475D01*
X51513252Y-111182476D01*
X51513249Y-111182477D01*
X51513251Y-111182477D01*
X51325700Y-111313802D01*
X51325698Y-111313803D01*
X51325695Y-111313806D01*
X51163806Y-111475695D01*
X51163803Y-111475698D01*
X51163802Y-111475700D01*
X51141519Y-111507524D01*
X51032476Y-111663252D01*
X51032475Y-111663254D01*
X50935718Y-111870750D01*
X50935714Y-111870761D01*
X50876457Y-112091910D01*
X50876456Y-112091918D01*
X50856502Y-112319998D01*
X50856502Y-112320000D01*
X50876456Y-112548081D01*
X50876457Y-112548089D01*
X50935714Y-112769238D01*
X50935718Y-112769249D01*
X51022866Y-112956138D01*
X51032477Y-112976749D01*
X51163802Y-113164300D01*
X51325700Y-113326198D01*
X51513251Y-113457523D01*
X51603081Y-113499411D01*
X51720750Y-113554281D01*
X51720752Y-113554281D01*
X51720757Y-113554284D01*
X51941913Y-113613543D01*
X52088744Y-113626389D01*
X52169998Y-113633498D01*
X52170000Y-113633498D01*
X52170002Y-113633498D01*
X52251256Y-113626389D01*
X52398087Y-113613543D01*
X52619243Y-113554284D01*
X52826749Y-113457523D01*
X53014300Y-113326198D01*
X53176198Y-113164300D01*
X53307523Y-112976749D01*
X53327617Y-112933655D01*
X53373790Y-112881215D01*
X53440983Y-112862063D01*
X53507864Y-112882278D01*
X53552382Y-112933655D01*
X53562540Y-112955440D01*
X53572477Y-112976749D01*
X53703802Y-113164300D01*
X53865700Y-113326198D01*
X54053251Y-113457523D01*
X54143081Y-113499411D01*
X54260750Y-113554281D01*
X54260752Y-113554281D01*
X54260757Y-113554284D01*
X54474416Y-113611534D01*
X54534076Y-113647899D01*
X54564605Y-113710746D01*
X54556310Y-113780122D01*
X54530003Y-113818990D01*
X53971179Y-114377814D01*
X53958820Y-114387718D01*
X53958993Y-114387927D01*
X53952983Y-114392899D01*
X53905016Y-114443978D01*
X53883872Y-114465122D01*
X53883857Y-114465139D01*
X53879531Y-114470714D01*
X53875747Y-114475144D01*
X53843419Y-114509571D01*
X53843412Y-114509581D01*
X53833579Y-114527467D01*
X53822903Y-114543720D01*
X53810386Y-114559857D01*
X53810385Y-114559859D01*
X53791625Y-114603210D01*
X53789055Y-114608456D01*
X53766303Y-114649841D01*
X53766303Y-114649842D01*
X53761225Y-114669620D01*
X53754925Y-114688022D01*
X53746818Y-114706757D01*
X53739431Y-114753395D01*
X53738246Y-114759116D01*
X53724560Y-114812425D01*
X53721671Y-114811683D01*
X53699323Y-114862919D01*
X53663254Y-114892385D01*
X53614425Y-114918810D01*
X53614420Y-114918813D01*
X53436761Y-115057092D01*
X53436756Y-115057097D01*
X53284284Y-115222723D01*
X53284276Y-115222734D01*
X53193807Y-115361206D01*
X53140660Y-115406563D01*
X53071429Y-115415986D01*
X53008093Y-115386483D01*
X52986191Y-115361206D01*
X52895722Y-115222732D01*
X52895717Y-115222727D01*
X52895715Y-115222723D01*
X52743243Y-115057097D01*
X52743238Y-115057092D01*
X52579354Y-114929535D01*
X52565576Y-114918811D01*
X52565575Y-114918810D01*
X52565572Y-114918808D01*
X52367580Y-114811661D01*
X52367577Y-114811659D01*
X52367574Y-114811658D01*
X52367571Y-114811657D01*
X52367569Y-114811656D01*
X52154637Y-114738556D01*
X51932569Y-114701500D01*
X51707431Y-114701500D01*
X51485362Y-114738556D01*
X51272430Y-114811656D01*
X51272419Y-114811661D01*
X51074427Y-114918808D01*
X51074422Y-114918812D01*
X50896761Y-115057092D01*
X50896756Y-115057097D01*
X50744284Y-115222723D01*
X50744276Y-115222734D01*
X50621140Y-115411207D01*
X50530703Y-115617385D01*
X50475436Y-115835628D01*
X50475434Y-115835640D01*
X50456844Y-116059994D01*
X50456844Y-116060005D01*
X50475434Y-116284359D01*
X50475436Y-116284371D01*
X50530703Y-116502614D01*
X50621140Y-116708792D01*
X50744276Y-116897265D01*
X50744284Y-116897276D01*
X50889489Y-117055008D01*
X50920412Y-117117662D01*
X50912552Y-117187088D01*
X50868405Y-117241244D01*
X50841596Y-117255172D01*
X50723794Y-117299111D01*
X50606739Y-117386739D01*
X50519111Y-117503795D01*
X50468011Y-117640795D01*
X50468011Y-117640797D01*
X50461500Y-117701345D01*
X50461500Y-119498654D01*
X50468011Y-119559202D01*
X50468011Y-119559204D01*
X50519111Y-119696203D01*
X50519111Y-119696204D01*
X50606739Y-119813261D01*
X50723796Y-119900889D01*
X50860799Y-119951989D01*
X50888050Y-119954918D01*
X50921345Y-119958499D01*
X50921362Y-119958500D01*
X52718638Y-119958500D01*
X52718654Y-119958499D01*
X52745692Y-119955591D01*
X52779201Y-119951989D01*
X52916204Y-119900889D01*
X53033261Y-119813261D01*
X53120889Y-119696204D01*
X53166138Y-119574887D01*
X53208009Y-119518956D01*
X53273474Y-119494539D01*
X53341746Y-119509391D01*
X53373545Y-119534236D01*
X53436760Y-119602906D01*
X53614424Y-119741189D01*
X53614425Y-119741189D01*
X53614427Y-119741191D01*
X53741135Y-119809761D01*
X53812426Y-119848342D01*
X54025365Y-119921444D01*
X54247431Y-119958500D01*
X54472569Y-119958500D01*
X54694635Y-119921444D01*
X54907574Y-119848342D01*
X55105576Y-119741189D01*
X55283240Y-119602906D01*
X55435722Y-119437268D01*
X55526193Y-119298791D01*
X55579336Y-119253437D01*
X55648567Y-119244013D01*
X55711903Y-119273515D01*
X55733807Y-119298793D01*
X55824276Y-119437265D01*
X55824284Y-119437276D01*
X55950968Y-119574889D01*
X55976760Y-119602906D01*
X56154424Y-119741189D01*
X56154425Y-119741189D01*
X56154427Y-119741191D01*
X56281135Y-119809761D01*
X56352426Y-119848342D01*
X56565365Y-119921444D01*
X56787431Y-119958500D01*
X57012569Y-119958500D01*
X57234635Y-119921444D01*
X57447574Y-119848342D01*
X57645576Y-119741189D01*
X57823240Y-119602906D01*
X57975722Y-119437268D01*
X58098860Y-119248791D01*
X58189296Y-119042616D01*
X58244564Y-118824368D01*
X58263156Y-118600000D01*
X58244564Y-118375632D01*
X58189296Y-118157384D01*
X58098860Y-117951209D01*
X58066191Y-117901206D01*
X57975723Y-117762734D01*
X57975715Y-117762723D01*
X57823243Y-117597097D01*
X57823238Y-117597092D01*
X57645577Y-117458812D01*
X57645577Y-117458811D01*
X57602303Y-117435393D01*
X57552713Y-117386173D01*
X57537605Y-117317957D01*
X57561775Y-117252401D01*
X57590198Y-117224763D01*
X57771079Y-117098108D01*
X57938105Y-116931082D01*
X58073600Y-116737578D01*
X58173429Y-116523492D01*
X58173432Y-116523486D01*
X58230636Y-116310000D01*
X57513347Y-116310000D01*
X57446308Y-116290315D01*
X57400553Y-116237511D01*
X57390609Y-116168353D01*
X57394369Y-116151067D01*
X57400000Y-116131888D01*
X57400000Y-116050005D01*
X61151844Y-116050005D01*
X61170434Y-116274359D01*
X61170436Y-116274371D01*
X61225703Y-116492614D01*
X61316140Y-116698792D01*
X61439276Y-116887265D01*
X61439284Y-116887276D01*
X61591756Y-117052902D01*
X61591761Y-117052907D01*
X61604608Y-117062906D01*
X61769424Y-117191189D01*
X61769425Y-117191189D01*
X61769427Y-117191191D01*
X61861918Y-117241244D01*
X61967426Y-117298342D01*
X62180365Y-117371444D01*
X62402431Y-117408500D01*
X62627569Y-117408500D01*
X62849635Y-117371444D01*
X63062574Y-117298342D01*
X63260576Y-117191189D01*
X63438240Y-117052906D01*
X63501452Y-116984239D01*
X63561337Y-116948250D01*
X63631175Y-116950349D01*
X63688791Y-116989873D01*
X63708861Y-117024888D01*
X63736172Y-117098108D01*
X63754111Y-117146204D01*
X63841739Y-117263261D01*
X63958796Y-117350889D01*
X64053395Y-117386173D01*
X64090463Y-117399999D01*
X64095799Y-117401989D01*
X64123050Y-117404918D01*
X64156345Y-117408499D01*
X64156362Y-117408500D01*
X65953638Y-117408500D01*
X65953654Y-117408499D01*
X65980692Y-117405591D01*
X66014201Y-117401989D01*
X66019537Y-117399999D01*
X66055087Y-117386739D01*
X66151204Y-117350889D01*
X66268261Y-117263261D01*
X66355889Y-117146204D01*
X66406989Y-117009201D01*
X66410591Y-116975692D01*
X66413499Y-116948654D01*
X66413500Y-116948637D01*
X66413500Y-115151362D01*
X66413499Y-115151345D01*
X66408285Y-115102855D01*
X66406989Y-115090799D01*
X66403820Y-115082304D01*
X66383623Y-115028152D01*
X66355889Y-114953796D01*
X66268261Y-114836739D01*
X66151204Y-114749111D01*
X66151204Y-114749110D01*
X66014203Y-114698011D01*
X65953654Y-114691500D01*
X65953638Y-114691500D01*
X64156362Y-114691500D01*
X64156345Y-114691500D01*
X64095797Y-114698011D01*
X64095795Y-114698011D01*
X63958795Y-114749111D01*
X63841739Y-114836739D01*
X63754111Y-114953795D01*
X63708861Y-115075111D01*
X63666989Y-115131044D01*
X63601524Y-115155460D01*
X63533252Y-115140607D01*
X63501454Y-115115762D01*
X63438240Y-115047094D01*
X63260576Y-114908811D01*
X63260575Y-114908810D01*
X63260572Y-114908808D01*
X63062580Y-114801661D01*
X63062577Y-114801659D01*
X63062574Y-114801658D01*
X63062571Y-114801657D01*
X63062569Y-114801656D01*
X62849637Y-114728556D01*
X62627569Y-114691500D01*
X62402431Y-114691500D01*
X62180362Y-114728556D01*
X61967430Y-114801656D01*
X61967419Y-114801661D01*
X61769427Y-114908808D01*
X61769422Y-114908812D01*
X61591761Y-115047092D01*
X61591756Y-115047097D01*
X61439284Y-115212723D01*
X61439276Y-115212734D01*
X61316140Y-115401207D01*
X61225703Y-115607385D01*
X61170436Y-115825628D01*
X61170434Y-115825640D01*
X61151844Y-116049994D01*
X61151844Y-116050005D01*
X57400000Y-116050005D01*
X57400000Y-115988111D01*
X57394369Y-115968933D01*
X57394370Y-115899064D01*
X57432145Y-115840286D01*
X57495701Y-115811262D01*
X57513347Y-115810000D01*
X58230636Y-115810000D01*
X58230635Y-115809999D01*
X58173432Y-115596513D01*
X58173429Y-115596507D01*
X58073600Y-115382422D01*
X58073599Y-115382420D01*
X57938113Y-115188926D01*
X57938108Y-115188920D01*
X57771082Y-115021894D01*
X57577578Y-114886399D01*
X57363492Y-114786570D01*
X57363486Y-114786567D01*
X57150000Y-114729364D01*
X57150000Y-115447698D01*
X57130315Y-115514737D01*
X57077511Y-115560492D01*
X57008355Y-115570436D01*
X56935766Y-115560000D01*
X56935763Y-115560000D01*
X56864237Y-115560000D01*
X56791646Y-115570437D01*
X56722487Y-115560493D01*
X56669683Y-115514738D01*
X56649999Y-115447699D01*
X56649999Y-114729364D01*
X56436505Y-114786570D01*
X56222422Y-114886399D01*
X56222420Y-114886400D01*
X56028926Y-115021886D01*
X56028920Y-115021891D01*
X55861891Y-115188920D01*
X55861890Y-115188922D01*
X55735131Y-115369952D01*
X55680554Y-115413577D01*
X55611055Y-115420769D01*
X55548701Y-115389247D01*
X55529752Y-115366656D01*
X55435722Y-115222732D01*
X55435715Y-115222725D01*
X55435715Y-115222723D01*
X55283243Y-115057097D01*
X55283240Y-115057094D01*
X55283237Y-115057092D01*
X55281852Y-115056013D01*
X55281431Y-115055429D01*
X55279464Y-115053618D01*
X55279836Y-115053213D01*
X55241036Y-114999308D01*
X55237356Y-114929535D01*
X55270325Y-114870477D01*
X56593256Y-113547546D01*
X56654577Y-113514063D01*
X56724269Y-113519047D01*
X56733339Y-113522847D01*
X56800750Y-113554281D01*
X56800752Y-113554281D01*
X56800757Y-113554284D01*
X57021913Y-113613543D01*
X57168744Y-113626389D01*
X57249998Y-113633498D01*
X57250000Y-113633498D01*
X57250002Y-113633498D01*
X57331256Y-113626389D01*
X57478087Y-113613543D01*
X57699243Y-113554284D01*
X57906749Y-113457523D01*
X58094300Y-113326198D01*
X58256198Y-113164300D01*
X58387523Y-112976749D01*
X58407617Y-112933655D01*
X58453790Y-112881215D01*
X58520983Y-112862063D01*
X58587864Y-112882278D01*
X58632382Y-112933655D01*
X58642540Y-112955440D01*
X58652477Y-112976749D01*
X58783802Y-113164300D01*
X58945700Y-113326198D01*
X59133251Y-113457523D01*
X59223081Y-113499411D01*
X59340750Y-113554281D01*
X59340752Y-113554281D01*
X59340757Y-113554284D01*
X59561913Y-113613543D01*
X59708744Y-113626389D01*
X59789998Y-113633498D01*
X59790000Y-113633498D01*
X59790002Y-113633498D01*
X59871256Y-113626389D01*
X60018087Y-113613543D01*
X60239243Y-113554284D01*
X60446749Y-113457523D01*
X60634300Y-113326198D01*
X60796198Y-113164300D01*
X60927523Y-112976749D01*
X60947618Y-112933654D01*
X60993787Y-112881216D01*
X61060980Y-112862063D01*
X61127862Y-112882277D01*
X61172380Y-112933653D01*
X61183396Y-112957275D01*
X61192477Y-112976749D01*
X61323802Y-113164300D01*
X61485700Y-113326198D01*
X61673251Y-113457523D01*
X61763081Y-113499411D01*
X61880750Y-113554281D01*
X61880752Y-113554281D01*
X61880757Y-113554284D01*
X62101913Y-113613543D01*
X62248744Y-113626389D01*
X62329998Y-113633498D01*
X62330000Y-113633498D01*
X62330002Y-113633498D01*
X62411256Y-113626389D01*
X62558087Y-113613543D01*
X62779243Y-113554284D01*
X62986749Y-113457523D01*
X63174300Y-113326198D01*
X63336198Y-113164300D01*
X63467523Y-112976749D01*
X63487618Y-112933654D01*
X63533787Y-112881216D01*
X63600980Y-112862063D01*
X63667862Y-112882277D01*
X63712380Y-112933653D01*
X63723396Y-112957275D01*
X63732477Y-112976749D01*
X63863802Y-113164300D01*
X64025700Y-113326198D01*
X64213251Y-113457523D01*
X64303081Y-113499411D01*
X64420750Y-113554281D01*
X64420752Y-113554281D01*
X64420757Y-113554284D01*
X64641913Y-113613543D01*
X64788744Y-113626389D01*
X64869998Y-113633498D01*
X64870000Y-113633498D01*
X64870002Y-113633498D01*
X64951256Y-113626389D01*
X65098087Y-113613543D01*
X65319243Y-113554284D01*
X65526749Y-113457523D01*
X65714300Y-113326198D01*
X65876198Y-113164300D01*
X66007523Y-112976749D01*
X66027618Y-112933654D01*
X66073787Y-112881216D01*
X66140980Y-112862063D01*
X66207862Y-112882277D01*
X66252380Y-112933653D01*
X66263396Y-112957275D01*
X66272477Y-112976749D01*
X66403802Y-113164300D01*
X66565700Y-113326198D01*
X66753251Y-113457523D01*
X66843081Y-113499411D01*
X66960750Y-113554281D01*
X66960752Y-113554281D01*
X66960757Y-113554284D01*
X67181913Y-113613543D01*
X67328744Y-113626389D01*
X67409998Y-113633498D01*
X67410000Y-113633498D01*
X67410002Y-113633498D01*
X67491256Y-113626389D01*
X67638087Y-113613543D01*
X67859243Y-113554284D01*
X68066749Y-113457523D01*
X68254300Y-113326198D01*
X68416198Y-113164300D01*
X68547523Y-112976749D01*
X68572307Y-112923598D01*
X68618479Y-112871159D01*
X68685672Y-112852007D01*
X68752553Y-112872222D01*
X68797071Y-112923599D01*
X68819864Y-112972479D01*
X68819865Y-112972481D01*
X68950342Y-113158820D01*
X69111179Y-113319657D01*
X69297517Y-113450134D01*
X69503673Y-113546265D01*
X69503682Y-113546269D01*
X69699999Y-113598872D01*
X69700000Y-113598871D01*
X69700000Y-112830575D01*
X69719685Y-112763536D01*
X69772489Y-112717781D01*
X69841647Y-112707837D01*
X69843331Y-112708091D01*
X69875699Y-112713218D01*
X69918515Y-112720000D01*
X69918519Y-112720000D01*
X69981485Y-112720000D01*
X70024300Y-112713218D01*
X70056602Y-112708102D01*
X70125894Y-112717056D01*
X70179347Y-112762052D01*
X70199987Y-112828803D01*
X70200000Y-112830575D01*
X70200000Y-113598872D01*
X70396317Y-113546269D01*
X70396326Y-113546265D01*
X70602482Y-113450133D01*
X70788818Y-113319659D01*
X70789495Y-113319092D01*
X70789853Y-113318935D01*
X70793251Y-113316556D01*
X70793728Y-113317238D01*
X70853501Y-113291074D01*
X70922494Y-113302108D01*
X70956889Y-113326394D01*
X72282765Y-114652270D01*
X72316250Y-114713593D01*
X72311266Y-114783285D01*
X72269394Y-114839218D01*
X72203930Y-114863635D01*
X72136067Y-114849006D01*
X72048580Y-114801661D01*
X72048577Y-114801659D01*
X72048574Y-114801658D01*
X72048571Y-114801657D01*
X72048569Y-114801656D01*
X71835637Y-114728556D01*
X71613569Y-114691500D01*
X71388431Y-114691500D01*
X71166362Y-114728556D01*
X70953430Y-114801656D01*
X70953419Y-114801661D01*
X70755427Y-114908808D01*
X70755422Y-114908812D01*
X70577761Y-115047092D01*
X70577756Y-115047097D01*
X70425284Y-115212723D01*
X70425276Y-115212734D01*
X70334807Y-115351206D01*
X70281660Y-115396563D01*
X70212429Y-115405986D01*
X70149093Y-115376483D01*
X70127191Y-115351206D01*
X70036722Y-115212732D01*
X70036717Y-115212727D01*
X70036715Y-115212723D01*
X69884243Y-115047097D01*
X69884238Y-115047092D01*
X69719424Y-114918811D01*
X69706576Y-114908811D01*
X69706575Y-114908810D01*
X69706572Y-114908808D01*
X69508580Y-114801661D01*
X69508577Y-114801659D01*
X69508574Y-114801658D01*
X69508571Y-114801657D01*
X69508569Y-114801656D01*
X69295637Y-114728556D01*
X69073569Y-114691500D01*
X68848431Y-114691500D01*
X68626362Y-114728556D01*
X68413430Y-114801656D01*
X68413419Y-114801661D01*
X68215427Y-114908808D01*
X68215422Y-114908812D01*
X68037761Y-115047092D01*
X68037756Y-115047097D01*
X67885284Y-115212723D01*
X67885276Y-115212734D01*
X67762140Y-115401207D01*
X67671703Y-115607385D01*
X67616436Y-115825628D01*
X67616434Y-115825640D01*
X67597844Y-116049994D01*
X67597844Y-116050005D01*
X67616434Y-116274359D01*
X67616436Y-116274371D01*
X67671703Y-116492614D01*
X67762140Y-116698792D01*
X67885276Y-116887265D01*
X67885284Y-116887276D01*
X68037756Y-117052902D01*
X68037761Y-117052907D01*
X68050608Y-117062906D01*
X68215424Y-117191189D01*
X68215425Y-117191189D01*
X68215427Y-117191191D01*
X68307918Y-117241244D01*
X68413426Y-117298342D01*
X68626365Y-117371444D01*
X68848431Y-117408500D01*
X69073569Y-117408500D01*
X69295635Y-117371444D01*
X69508574Y-117298342D01*
X69706576Y-117191189D01*
X69884240Y-117052906D01*
X70027512Y-116897273D01*
X70036715Y-116887276D01*
X70036715Y-116887275D01*
X70036722Y-116887268D01*
X70127193Y-116748790D01*
X70180338Y-116703437D01*
X70249569Y-116694013D01*
X70312905Y-116723515D01*
X70334804Y-116748787D01*
X70425278Y-116887268D01*
X70425283Y-116887273D01*
X70425284Y-116887276D01*
X70577756Y-117052902D01*
X70577761Y-117052907D01*
X70590608Y-117062906D01*
X70755424Y-117191189D01*
X70755425Y-117191189D01*
X70755427Y-117191191D01*
X70847918Y-117241244D01*
X70953426Y-117298342D01*
X71166365Y-117371444D01*
X71388431Y-117408500D01*
X71613569Y-117408500D01*
X71835635Y-117371444D01*
X72048574Y-117298342D01*
X72246576Y-117191189D01*
X72424240Y-117052906D01*
X72567512Y-116897273D01*
X72576715Y-116887276D01*
X72576715Y-116887275D01*
X72576722Y-116887268D01*
X72667193Y-116748790D01*
X72720338Y-116703437D01*
X72789569Y-116694013D01*
X72852905Y-116723515D01*
X72874804Y-116748787D01*
X72965278Y-116887268D01*
X72965283Y-116887273D01*
X72965284Y-116887276D01*
X73117756Y-117052902D01*
X73117761Y-117052907D01*
X73130608Y-117062906D01*
X73295424Y-117191189D01*
X73295425Y-117191189D01*
X73295427Y-117191191D01*
X73387918Y-117241244D01*
X73493426Y-117298342D01*
X73706365Y-117371444D01*
X73928431Y-117408500D01*
X74153569Y-117408500D01*
X74375635Y-117371444D01*
X74588574Y-117298342D01*
X74786576Y-117191189D01*
X74964240Y-117052906D01*
X75107512Y-116897273D01*
X75116715Y-116887276D01*
X75116715Y-116887275D01*
X75116722Y-116887268D01*
X75207193Y-116748790D01*
X75260338Y-116703437D01*
X75329569Y-116694013D01*
X75392905Y-116723515D01*
X75414804Y-116748787D01*
X75505278Y-116887268D01*
X75505283Y-116887273D01*
X75505284Y-116887276D01*
X75657756Y-117052902D01*
X75657761Y-117052907D01*
X75670608Y-117062906D01*
X75835424Y-117191189D01*
X75835425Y-117191189D01*
X75835427Y-117191191D01*
X75927918Y-117241244D01*
X76033426Y-117298342D01*
X76246365Y-117371444D01*
X76468431Y-117408500D01*
X76693569Y-117408500D01*
X76915635Y-117371444D01*
X77128574Y-117298342D01*
X77326576Y-117191189D01*
X77504240Y-117052906D01*
X77647512Y-116897273D01*
X77656715Y-116887276D01*
X77656715Y-116887275D01*
X77656722Y-116887268D01*
X77747193Y-116748790D01*
X77800338Y-116703437D01*
X77869569Y-116694013D01*
X77932905Y-116723515D01*
X77954804Y-116748787D01*
X78045278Y-116887268D01*
X78045283Y-116887273D01*
X78045284Y-116887276D01*
X78197756Y-117052902D01*
X78197761Y-117052907D01*
X78210608Y-117062906D01*
X78375424Y-117191189D01*
X78375425Y-117191189D01*
X78375427Y-117191191D01*
X78467918Y-117241244D01*
X78573426Y-117298342D01*
X78786365Y-117371444D01*
X79008431Y-117408500D01*
X79233569Y-117408500D01*
X79455630Y-117371445D01*
X79455631Y-117371444D01*
X79455635Y-117371444D01*
X79455637Y-117371442D01*
X79459849Y-117370376D01*
X79529669Y-117372988D01*
X79577991Y-117402895D01*
X80267210Y-118092114D01*
X80277116Y-118104478D01*
X80277326Y-118104305D01*
X80282301Y-118110319D01*
X80333394Y-118158299D01*
X80354525Y-118179429D01*
X80354530Y-118179434D01*
X80360102Y-118183756D01*
X80364542Y-118187549D01*
X80398978Y-118219886D01*
X80416867Y-118229720D01*
X80433133Y-118240404D01*
X80449259Y-118252913D01*
X80492598Y-118271667D01*
X80497845Y-118274237D01*
X80539240Y-118296995D01*
X80559018Y-118302073D01*
X80577419Y-118308373D01*
X80596155Y-118316481D01*
X80640662Y-118323529D01*
X80642803Y-118323869D01*
X80648512Y-118325051D01*
X80694270Y-118336800D01*
X80714684Y-118336800D01*
X80734083Y-118338327D01*
X80754243Y-118341520D01*
X80801265Y-118337075D01*
X80807104Y-118336800D01*
X96850166Y-118336800D01*
X96865913Y-118338538D01*
X96865939Y-118338268D01*
X96873705Y-118339001D01*
X96873709Y-118339002D01*
X96943758Y-118336800D01*
X96973656Y-118336800D01*
X96973657Y-118336800D01*
X96975022Y-118336627D01*
X96980662Y-118335914D01*
X96986485Y-118335456D01*
X97012508Y-118334638D01*
X97033690Y-118333973D01*
X97043481Y-118331127D01*
X97053281Y-118328280D01*
X97072338Y-118324332D01*
X97092597Y-118321774D01*
X97136521Y-118304382D01*
X97142021Y-118302499D01*
X97187393Y-118289318D01*
X97204965Y-118278925D01*
X97222432Y-118270368D01*
X97241417Y-118262852D01*
X97279626Y-118235090D01*
X97284504Y-118231885D01*
X97325162Y-118207842D01*
X97339602Y-118193400D01*
X97354392Y-118180770D01*
X97370907Y-118168772D01*
X97401022Y-118132367D01*
X97404926Y-118128076D01*
X98419154Y-117113849D01*
X98480473Y-117080367D01*
X98550165Y-117085351D01*
X98582992Y-117103679D01*
X98695424Y-117191189D01*
X98695425Y-117191189D01*
X98695427Y-117191191D01*
X98787918Y-117241244D01*
X98893426Y-117298342D01*
X99106365Y-117371444D01*
X99328431Y-117408500D01*
X99553569Y-117408500D01*
X99775635Y-117371444D01*
X99988574Y-117298342D01*
X100186576Y-117191189D01*
X100364240Y-117052906D01*
X100507512Y-116897273D01*
X100516715Y-116887276D01*
X100516715Y-116887275D01*
X100516722Y-116887268D01*
X100607193Y-116748790D01*
X100660338Y-116703437D01*
X100729569Y-116694013D01*
X100792905Y-116723515D01*
X100814804Y-116748787D01*
X100905278Y-116887268D01*
X100905283Y-116887273D01*
X100905284Y-116887276D01*
X101057756Y-117052902D01*
X101057761Y-117052907D01*
X101070608Y-117062906D01*
X101235424Y-117191189D01*
X101235425Y-117191189D01*
X101235427Y-117191191D01*
X101327918Y-117241244D01*
X101433426Y-117298342D01*
X101646365Y-117371444D01*
X101868431Y-117408500D01*
X102093569Y-117408500D01*
X102315635Y-117371444D01*
X102528574Y-117298342D01*
X102726576Y-117191189D01*
X102904240Y-117052906D01*
X102973908Y-116977226D01*
X103033793Y-116941237D01*
X103103631Y-116943337D01*
X103161247Y-116982860D01*
X103181318Y-117017877D01*
X103227645Y-117142086D01*
X103227649Y-117142093D01*
X103313809Y-117257187D01*
X103313812Y-117257190D01*
X103428906Y-117343350D01*
X103428913Y-117343354D01*
X103563620Y-117393596D01*
X103563627Y-117393598D01*
X103623155Y-117399999D01*
X103623172Y-117400000D01*
X104271000Y-117400000D01*
X104271000Y-116662301D01*
X104290685Y-116595262D01*
X104343489Y-116549507D01*
X104412647Y-116539563D01*
X104485237Y-116550000D01*
X104485238Y-116550000D01*
X104556762Y-116550000D01*
X104556763Y-116550000D01*
X104629353Y-116539563D01*
X104698512Y-116549507D01*
X104751315Y-116595262D01*
X104771000Y-116662301D01*
X104771000Y-117400000D01*
X105418828Y-117400000D01*
X105418844Y-117399999D01*
X105478372Y-117393598D01*
X105478379Y-117393596D01*
X105613086Y-117343354D01*
X105613093Y-117343350D01*
X105728187Y-117257190D01*
X105728190Y-117257187D01*
X105814350Y-117142093D01*
X105814354Y-117142086D01*
X105864596Y-117007379D01*
X105864598Y-117007372D01*
X105870999Y-116947844D01*
X105871000Y-116947827D01*
X105871000Y-116300000D01*
X105134347Y-116300000D01*
X105067308Y-116280315D01*
X105021553Y-116227511D01*
X105011609Y-116158353D01*
X105015369Y-116141067D01*
X105021000Y-116121888D01*
X105021000Y-115978111D01*
X105015369Y-115958933D01*
X105015370Y-115889064D01*
X105053145Y-115830286D01*
X105116701Y-115801262D01*
X105134347Y-115800000D01*
X105871000Y-115800000D01*
X105871000Y-115152172D01*
X105870999Y-115152155D01*
X105864598Y-115092627D01*
X105864596Y-115092620D01*
X105814354Y-114957913D01*
X105814350Y-114957906D01*
X105728190Y-114842812D01*
X105728187Y-114842809D01*
X105613093Y-114756649D01*
X105613086Y-114756645D01*
X105478379Y-114706403D01*
X105478372Y-114706401D01*
X105418844Y-114700000D01*
X104771000Y-114700000D01*
X104771000Y-115437698D01*
X104751315Y-115504737D01*
X104698511Y-115550492D01*
X104629355Y-115560436D01*
X104556766Y-115550000D01*
X104556763Y-115550000D01*
X104485237Y-115550000D01*
X104485233Y-115550000D01*
X104412645Y-115560436D01*
X104343487Y-115550492D01*
X104290684Y-115504736D01*
X104271000Y-115437698D01*
X104271000Y-114700000D01*
X103623155Y-114700000D01*
X103563627Y-114706401D01*
X103563620Y-114706403D01*
X103428913Y-114756645D01*
X103428906Y-114756649D01*
X103313812Y-114842809D01*
X103313809Y-114842812D01*
X103227649Y-114957906D01*
X103227646Y-114957911D01*
X103181318Y-115082123D01*
X103139446Y-115138056D01*
X103073982Y-115162473D01*
X103005709Y-115147621D01*
X102973910Y-115122775D01*
X102904240Y-115047094D01*
X102726576Y-114908811D01*
X102726575Y-114908810D01*
X102726572Y-114908808D01*
X102528580Y-114801661D01*
X102528577Y-114801659D01*
X102528574Y-114801658D01*
X102528571Y-114801657D01*
X102528569Y-114801656D01*
X102315637Y-114728556D01*
X102093569Y-114691500D01*
X101868431Y-114691500D01*
X101646362Y-114728556D01*
X101433430Y-114801656D01*
X101433419Y-114801661D01*
X101235427Y-114908808D01*
X101235422Y-114908812D01*
X101057761Y-115047092D01*
X101057756Y-115047097D01*
X100905284Y-115212723D01*
X100905276Y-115212734D01*
X100814808Y-115351206D01*
X100761662Y-115396562D01*
X100692431Y-115405986D01*
X100629095Y-115376484D01*
X100607192Y-115351206D01*
X100540365Y-115248920D01*
X100516722Y-115212732D01*
X100516719Y-115212729D01*
X100516715Y-115212723D01*
X100364243Y-115047097D01*
X100364238Y-115047092D01*
X100199424Y-114918811D01*
X100186576Y-114908811D01*
X100186575Y-114908810D01*
X100186572Y-114908808D01*
X99988580Y-114801661D01*
X99988577Y-114801659D01*
X99988574Y-114801658D01*
X99988571Y-114801657D01*
X99988569Y-114801656D01*
X99775637Y-114728556D01*
X99553569Y-114691500D01*
X99328431Y-114691500D01*
X99106362Y-114728556D01*
X98968763Y-114775794D01*
X98898964Y-114778944D01*
X98838543Y-114743858D01*
X98806682Y-114681675D01*
X98804500Y-114658513D01*
X98804500Y-114070749D01*
X98824185Y-114003710D01*
X98838103Y-113985870D01*
X98869984Y-113951920D01*
X98891135Y-113930770D01*
X98895461Y-113925192D01*
X98899250Y-113920755D01*
X98931586Y-113886321D01*
X98941419Y-113868432D01*
X98952102Y-113852169D01*
X98964614Y-113836041D01*
X98983371Y-113792691D01*
X98985941Y-113787447D01*
X99008693Y-113746064D01*
X99008693Y-113746063D01*
X99008695Y-113746060D01*
X99013774Y-113726273D01*
X99020070Y-113707885D01*
X99028181Y-113689145D01*
X99035569Y-113642498D01*
X99036754Y-113636775D01*
X99038223Y-113631052D01*
X99039804Y-113624894D01*
X99075541Y-113564859D01*
X99138064Y-113533672D01*
X99207523Y-113541239D01*
X99212280Y-113543337D01*
X99235757Y-113554284D01*
X99456913Y-113613543D01*
X99603744Y-113626389D01*
X99684998Y-113633498D01*
X99685000Y-113633498D01*
X99685002Y-113633498D01*
X99766256Y-113626389D01*
X99913087Y-113613543D01*
X100134243Y-113554284D01*
X100341749Y-113457523D01*
X100529300Y-113326198D01*
X100691198Y-113164300D01*
X100822523Y-112976749D01*
X100842617Y-112933655D01*
X100888790Y-112881215D01*
X100955983Y-112862063D01*
X101022864Y-112882278D01*
X101067382Y-112933655D01*
X101077540Y-112955440D01*
X101087477Y-112976749D01*
X101218802Y-113164300D01*
X101380700Y-113326198D01*
X101568251Y-113457523D01*
X101658081Y-113499411D01*
X101775750Y-113554281D01*
X101775752Y-113554281D01*
X101775757Y-113554284D01*
X101996913Y-113613543D01*
X102143744Y-113626389D01*
X102224998Y-113633498D01*
X102225000Y-113633498D01*
X102225002Y-113633498D01*
X102306256Y-113626389D01*
X102453087Y-113613543D01*
X102674243Y-113554284D01*
X102881749Y-113457523D01*
X103069300Y-113326198D01*
X103231198Y-113164300D01*
X103362523Y-112976749D01*
X103382617Y-112933655D01*
X103428790Y-112881215D01*
X103495983Y-112862063D01*
X103562864Y-112882278D01*
X103607382Y-112933655D01*
X103617540Y-112955440D01*
X103627477Y-112976749D01*
X103758802Y-113164300D01*
X103920700Y-113326198D01*
X104108251Y-113457523D01*
X104198081Y-113499411D01*
X104315750Y-113554281D01*
X104315752Y-113554281D01*
X104315757Y-113554284D01*
X104536913Y-113613543D01*
X104683744Y-113626389D01*
X104764998Y-113633498D01*
X104765000Y-113633498D01*
X104765002Y-113633498D01*
X104846256Y-113626389D01*
X104993087Y-113613543D01*
X105214243Y-113554284D01*
X105421749Y-113457523D01*
X105609300Y-113326198D01*
X105771198Y-113164300D01*
X105902523Y-112976749D01*
X105922617Y-112933655D01*
X105968790Y-112881215D01*
X106035983Y-112862063D01*
X106102864Y-112882278D01*
X106147382Y-112933655D01*
X106157540Y-112955440D01*
X106167477Y-112976749D01*
X106298802Y-113164300D01*
X106460700Y-113326198D01*
X106648251Y-113457523D01*
X106738081Y-113499411D01*
X106855750Y-113554281D01*
X106855752Y-113554281D01*
X106855757Y-113554284D01*
X107076913Y-113613543D01*
X107223744Y-113626389D01*
X107304998Y-113633498D01*
X107305000Y-113633498D01*
X107305002Y-113633498D01*
X107386256Y-113626389D01*
X107533087Y-113613543D01*
X107754243Y-113554284D01*
X107961749Y-113457523D01*
X108149300Y-113326198D01*
X108311198Y-113164300D01*
X108442523Y-112976749D01*
X108539284Y-112769243D01*
X108598543Y-112548087D01*
X108618498Y-112320000D01*
X108598543Y-112091913D01*
X108539284Y-111870757D01*
X108442523Y-111663251D01*
X108311198Y-111475700D01*
X108149300Y-111313802D01*
X107961749Y-111182477D01*
X107961745Y-111182475D01*
X107754249Y-111085718D01*
X107754238Y-111085714D01*
X107533089Y-111026457D01*
X107533081Y-111026456D01*
X107305002Y-111006502D01*
X107304998Y-111006502D01*
X107076918Y-111026456D01*
X107076910Y-111026457D01*
X106855761Y-111085714D01*
X106855750Y-111085718D01*
X106648254Y-111182475D01*
X106648252Y-111182476D01*
X106648249Y-111182477D01*
X106648251Y-111182477D01*
X106460700Y-111313802D01*
X106460698Y-111313803D01*
X106460695Y-111313806D01*
X106298806Y-111475695D01*
X106167476Y-111663251D01*
X106147382Y-111706345D01*
X106101209Y-111758784D01*
X106034016Y-111777936D01*
X105967135Y-111757720D01*
X105922618Y-111706345D01*
X105902523Y-111663251D01*
X105861234Y-111604285D01*
X105771198Y-111475700D01*
X105609300Y-111313802D01*
X105421749Y-111182477D01*
X105421745Y-111182475D01*
X105214249Y-111085718D01*
X105214238Y-111085714D01*
X104993089Y-111026457D01*
X104993081Y-111026456D01*
X104765002Y-111006502D01*
X104764998Y-111006502D01*
X104536918Y-111026456D01*
X104536910Y-111026457D01*
X104315761Y-111085714D01*
X104315750Y-111085718D01*
X104108254Y-111182475D01*
X104108252Y-111182476D01*
X104108249Y-111182477D01*
X104108251Y-111182477D01*
X103920700Y-111313802D01*
X103920698Y-111313803D01*
X103920695Y-111313806D01*
X103758806Y-111475695D01*
X103627476Y-111663251D01*
X103607382Y-111706345D01*
X103561209Y-111758784D01*
X103494016Y-111777936D01*
X103427135Y-111757720D01*
X103382618Y-111706345D01*
X103362523Y-111663251D01*
X103321234Y-111604285D01*
X103231198Y-111475700D01*
X103069300Y-111313802D01*
X102881749Y-111182477D01*
X102881745Y-111182475D01*
X102674249Y-111085718D01*
X102674238Y-111085714D01*
X102453089Y-111026457D01*
X102453081Y-111026456D01*
X102225002Y-111006502D01*
X102224998Y-111006502D01*
X101996918Y-111026456D01*
X101996910Y-111026457D01*
X101775761Y-111085714D01*
X101775750Y-111085718D01*
X101568254Y-111182475D01*
X101568252Y-111182476D01*
X101568249Y-111182477D01*
X101568251Y-111182477D01*
X101380700Y-111313802D01*
X101380698Y-111313803D01*
X101380695Y-111313806D01*
X101218806Y-111475695D01*
X101087476Y-111663251D01*
X101067382Y-111706345D01*
X101021209Y-111758784D01*
X100954016Y-111777936D01*
X100887135Y-111757720D01*
X100842618Y-111706345D01*
X100822523Y-111663251D01*
X100781234Y-111604285D01*
X100691198Y-111475700D01*
X100529300Y-111313802D01*
X100341749Y-111182477D01*
X100341745Y-111182475D01*
X100134249Y-111085718D01*
X100134238Y-111085714D01*
X99913089Y-111026457D01*
X99913081Y-111026456D01*
X99685002Y-111006502D01*
X99684998Y-111006502D01*
X99456918Y-111026456D01*
X99456910Y-111026457D01*
X99235760Y-111085715D01*
X99235759Y-111085715D01*
X99235757Y-111085716D01*
X99226878Y-111089855D01*
X99224899Y-111090779D01*
X99155821Y-111101267D01*
X99092038Y-111072744D01*
X99053802Y-111014265D01*
X99048500Y-110978394D01*
X99048500Y-109708766D01*
X99068185Y-109641727D01*
X99084819Y-109621085D01*
X99941085Y-108764819D01*
X100002408Y-108731334D01*
X100028766Y-108728500D01*
X105225632Y-108728500D01*
X105292671Y-108748185D01*
X105333019Y-108790500D01*
X105384149Y-108879058D01*
X105395100Y-108898027D01*
X105399959Y-108906442D01*
X105399958Y-108906442D01*
X105518024Y-109037567D01*
X105527747Y-109048366D01*
X105682248Y-109160618D01*
X105856712Y-109238294D01*
X106043513Y-109278000D01*
X106234487Y-109278000D01*
X106421288Y-109238294D01*
X106595752Y-109160618D01*
X106750253Y-109048366D01*
X106878040Y-108906444D01*
X106973527Y-108741056D01*
X107032542Y-108559428D01*
X107052504Y-108369500D01*
X107032542Y-108179572D01*
X106973527Y-107997944D01*
X106878040Y-107832556D01*
X106753462Y-107694198D01*
X106750254Y-107690635D01*
X106746880Y-107688183D01*
X106595752Y-107578382D01*
X106421288Y-107500706D01*
X106421286Y-107500705D01*
X106234487Y-107461000D01*
X106043513Y-107461000D01*
X106043511Y-107461000D01*
X106016739Y-107466690D01*
X105960126Y-107465504D01*
X105944533Y-107461500D01*
X105944530Y-107461500D01*
X105924116Y-107461500D01*
X105904717Y-107459973D01*
X105884558Y-107456780D01*
X105884557Y-107456780D01*
X105837534Y-107461225D01*
X105831696Y-107461500D01*
X99798632Y-107461500D01*
X99782880Y-107459760D01*
X99782855Y-107460032D01*
X99775093Y-107459298D01*
X99775092Y-107459298D01*
X99705029Y-107461500D01*
X99675144Y-107461500D01*
X99675141Y-107461500D01*
X99675129Y-107461501D01*
X99668137Y-107462384D01*
X99662320Y-107462841D01*
X99615111Y-107464325D01*
X99615109Y-107464326D01*
X99595496Y-107470023D01*
X99576459Y-107473965D01*
X99556208Y-107476524D01*
X99556202Y-107476526D01*
X99512299Y-107493907D01*
X99506775Y-107495798D01*
X99461406Y-107508981D01*
X99461401Y-107508983D01*
X99443827Y-107519376D01*
X99426362Y-107527932D01*
X99407387Y-107535445D01*
X99407385Y-107535446D01*
X99369176Y-107563206D01*
X99364294Y-107566412D01*
X99323635Y-107590458D01*
X99309200Y-107604894D01*
X99294412Y-107617525D01*
X99277894Y-107629526D01*
X99277888Y-107629532D01*
X99247780Y-107665925D01*
X99243849Y-107670246D01*
X98026179Y-108887914D01*
X98013820Y-108897818D01*
X98013993Y-108898027D01*
X98007983Y-108902999D01*
X97960015Y-108954079D01*
X97938872Y-108975222D01*
X97938857Y-108975239D01*
X97934531Y-108980814D01*
X97930747Y-108985244D01*
X97898419Y-109019671D01*
X97898412Y-109019681D01*
X97888579Y-109037567D01*
X97877903Y-109053820D01*
X97865386Y-109069957D01*
X97865385Y-109069959D01*
X97846625Y-109113310D01*
X97844055Y-109118556D01*
X97821303Y-109159941D01*
X97821303Y-109159942D01*
X97816225Y-109179720D01*
X97809925Y-109198122D01*
X97801818Y-109216857D01*
X97794431Y-109263495D01*
X97793246Y-109269216D01*
X97781500Y-109314965D01*
X97781500Y-109335384D01*
X97779973Y-109354783D01*
X97776780Y-109374941D01*
X97776780Y-109374942D01*
X97781225Y-109421966D01*
X97781500Y-109427804D01*
X97781500Y-110978394D01*
X97761815Y-111045433D01*
X97709011Y-111091188D01*
X97639853Y-111101132D01*
X97605101Y-111090779D01*
X97604088Y-111090307D01*
X97594243Y-111085716D01*
X97545831Y-111072744D01*
X97373089Y-111026457D01*
X97373081Y-111026456D01*
X97145002Y-111006502D01*
X97144998Y-111006502D01*
X96916918Y-111026456D01*
X96916910Y-111026457D01*
X96695761Y-111085714D01*
X96695750Y-111085718D01*
X96488254Y-111182475D01*
X96488252Y-111182476D01*
X96488249Y-111182477D01*
X96488251Y-111182477D01*
X96300700Y-111313802D01*
X96300698Y-111313803D01*
X96300695Y-111313806D01*
X96138806Y-111475695D01*
X96007476Y-111663251D01*
X95987382Y-111706345D01*
X95941209Y-111758784D01*
X95874016Y-111777936D01*
X95807135Y-111757720D01*
X95762618Y-111706345D01*
X95742523Y-111663251D01*
X95701234Y-111604285D01*
X95611198Y-111475700D01*
X95449300Y-111313802D01*
X95261749Y-111182477D01*
X95261745Y-111182475D01*
X95054249Y-111085718D01*
X95054238Y-111085714D01*
X94833089Y-111026457D01*
X94833081Y-111026456D01*
X94605002Y-111006502D01*
X94604998Y-111006502D01*
X94376918Y-111026456D01*
X94376910Y-111026457D01*
X94155761Y-111085714D01*
X94155750Y-111085718D01*
X93948254Y-111182475D01*
X93948252Y-111182476D01*
X93948249Y-111182477D01*
X93948251Y-111182477D01*
X93760700Y-111313802D01*
X93760698Y-111313803D01*
X93760695Y-111313806D01*
X93598806Y-111475695D01*
X93467476Y-111663251D01*
X93447382Y-111706345D01*
X93401209Y-111758784D01*
X93334016Y-111777936D01*
X93267135Y-111757720D01*
X93222618Y-111706345D01*
X93202523Y-111663251D01*
X93161234Y-111604285D01*
X93071198Y-111475700D01*
X92909300Y-111313802D01*
X92721749Y-111182477D01*
X92721745Y-111182475D01*
X92514249Y-111085718D01*
X92514238Y-111085714D01*
X92293089Y-111026457D01*
X92293081Y-111026456D01*
X92065002Y-111006502D01*
X92064998Y-111006502D01*
X91836918Y-111026456D01*
X91836910Y-111026457D01*
X91615761Y-111085714D01*
X91615750Y-111085718D01*
X91408254Y-111182475D01*
X91408252Y-111182476D01*
X91408249Y-111182477D01*
X91408251Y-111182477D01*
X91243671Y-111297718D01*
X91216266Y-111316907D01*
X91215403Y-111315674D01*
X91157779Y-111340868D01*
X91088791Y-111329803D01*
X91054446Y-111305541D01*
X87455288Y-107706383D01*
X87445387Y-107694023D01*
X87445177Y-107694198D01*
X87440202Y-107688186D01*
X87440200Y-107688182D01*
X87413858Y-107663445D01*
X87389122Y-107640216D01*
X87367968Y-107619063D01*
X87364341Y-107616250D01*
X87362383Y-107614731D01*
X87357950Y-107610944D01*
X87323521Y-107578614D01*
X87323519Y-107578612D01*
X87305631Y-107568778D01*
X87289370Y-107558097D01*
X87273239Y-107545584D01*
X87229893Y-107526827D01*
X87224645Y-107524256D01*
X87196859Y-107508981D01*
X87183260Y-107501505D01*
X87179860Y-107500632D01*
X87163487Y-107496428D01*
X87145081Y-107490126D01*
X87126344Y-107482018D01*
X87126346Y-107482018D01*
X87079696Y-107474630D01*
X87073981Y-107473446D01*
X87053812Y-107468268D01*
X87028232Y-107461700D01*
X87028230Y-107461700D01*
X87007816Y-107461700D01*
X86988417Y-107460173D01*
X86968258Y-107456980D01*
X86968257Y-107456980D01*
X86921234Y-107461425D01*
X86915396Y-107461700D01*
X61699866Y-107461700D01*
X61632827Y-107442015D01*
X61612185Y-107425381D01*
X60598620Y-106411815D01*
X60565135Y-106350492D01*
X60562982Y-106337112D01*
X60545542Y-106171172D01*
X60486527Y-105989544D01*
X60469385Y-105959853D01*
X60452912Y-105891957D01*
X60475763Y-105825929D01*
X60505643Y-105796284D01*
X60634300Y-105706198D01*
X60796198Y-105544300D01*
X60927523Y-105356749D01*
X60947618Y-105313654D01*
X60993787Y-105261216D01*
X61060980Y-105242063D01*
X61127862Y-105262277D01*
X61172380Y-105313653D01*
X61192432Y-105356653D01*
X61192477Y-105356749D01*
X61323802Y-105544300D01*
X61485700Y-105706198D01*
X61673251Y-105837523D01*
X61769197Y-105882263D01*
X61880750Y-105934281D01*
X61880752Y-105934281D01*
X61880757Y-105934284D01*
X62101913Y-105993543D01*
X62264832Y-106007796D01*
X62329998Y-106013498D01*
X62330000Y-106013498D01*
X62330002Y-106013498D01*
X62387139Y-106008499D01*
X62558087Y-105993543D01*
X62779243Y-105934284D01*
X62986749Y-105837523D01*
X63174300Y-105706198D01*
X63336198Y-105544300D01*
X63467523Y-105356749D01*
X63487618Y-105313654D01*
X63533787Y-105261216D01*
X63600980Y-105242063D01*
X63667862Y-105262277D01*
X63712380Y-105313653D01*
X63732432Y-105356653D01*
X63732477Y-105356749D01*
X63863802Y-105544300D01*
X64025700Y-105706198D01*
X64213251Y-105837523D01*
X64309197Y-105882263D01*
X64420750Y-105934281D01*
X64420752Y-105934281D01*
X64420757Y-105934284D01*
X64641913Y-105993543D01*
X64804832Y-106007796D01*
X64869998Y-106013498D01*
X64870000Y-106013498D01*
X64870002Y-106013498D01*
X64927139Y-106008499D01*
X65098087Y-105993543D01*
X65319243Y-105934284D01*
X65526749Y-105837523D01*
X65714300Y-105706198D01*
X65876198Y-105544300D01*
X66007523Y-105356749D01*
X66032307Y-105303598D01*
X66078479Y-105251159D01*
X66145672Y-105232007D01*
X66212553Y-105252222D01*
X66257071Y-105303599D01*
X66279864Y-105352479D01*
X66279865Y-105352481D01*
X66410342Y-105538820D01*
X66571179Y-105699657D01*
X66757517Y-105830134D01*
X66963673Y-105926265D01*
X66963682Y-105926269D01*
X67159999Y-105978872D01*
X67160000Y-105978871D01*
X67160000Y-105210575D01*
X67179685Y-105143536D01*
X67232489Y-105097781D01*
X67301647Y-105087837D01*
X67303331Y-105088091D01*
X67335699Y-105093218D01*
X67378515Y-105100000D01*
X67378519Y-105100000D01*
X67441485Y-105100000D01*
X67484300Y-105093218D01*
X67516602Y-105088102D01*
X67585894Y-105097056D01*
X67639347Y-105142052D01*
X67659987Y-105208803D01*
X67660000Y-105210575D01*
X67660000Y-105978871D01*
X67815579Y-105937184D01*
X67885429Y-105938847D01*
X67943292Y-105978009D01*
X67970796Y-106042237D01*
X67970993Y-106069915D01*
X67953496Y-106236400D01*
X67973458Y-106426328D01*
X67973459Y-106426331D01*
X68032470Y-106607949D01*
X68032473Y-106607956D01*
X68127960Y-106773344D01*
X68255747Y-106915266D01*
X68410248Y-107027518D01*
X68584712Y-107105194D01*
X68771513Y-107144900D01*
X68962487Y-107144900D01*
X69149288Y-107105194D01*
X69323752Y-107027518D01*
X69385051Y-106982981D01*
X69450857Y-106959502D01*
X69457936Y-106959300D01*
X83480566Y-106959300D01*
X83496313Y-106961038D01*
X83496339Y-106960768D01*
X83504105Y-106961501D01*
X83504109Y-106961502D01*
X83574158Y-106959300D01*
X83604056Y-106959300D01*
X83604057Y-106959300D01*
X83605422Y-106959127D01*
X83611062Y-106958414D01*
X83616885Y-106957956D01*
X83642908Y-106957138D01*
X83664090Y-106956473D01*
X83673881Y-106953627D01*
X83683681Y-106950780D01*
X83702738Y-106946832D01*
X83722997Y-106944274D01*
X83766921Y-106926882D01*
X83772421Y-106924999D01*
X83817793Y-106911818D01*
X83835365Y-106901425D01*
X83852832Y-106892868D01*
X83871817Y-106885352D01*
X83910026Y-106857590D01*
X83914904Y-106854385D01*
X83955562Y-106830342D01*
X83970002Y-106815900D01*
X83984792Y-106803270D01*
X84001307Y-106791272D01*
X84031422Y-106754867D01*
X84035326Y-106750576D01*
X84741084Y-106044819D01*
X84802408Y-106011334D01*
X84828766Y-106008500D01*
X86038638Y-106008500D01*
X86038654Y-106008499D01*
X86065692Y-106005591D01*
X86099201Y-106001989D01*
X86236204Y-105950889D01*
X86353261Y-105863261D01*
X86440889Y-105746204D01*
X86491989Y-105609201D01*
X86497544Y-105557534D01*
X86498499Y-105548654D01*
X86498499Y-105548647D01*
X86498500Y-105548638D01*
X86498500Y-104293000D01*
X86518185Y-104225961D01*
X86570989Y-104180206D01*
X86622500Y-104169000D01*
X88159821Y-104169000D01*
X88226860Y-104188685D01*
X88272615Y-104241489D01*
X88282559Y-104310647D01*
X88279596Y-104325093D01*
X88246127Y-104449999D01*
X88246128Y-104450000D01*
X89014424Y-104450000D01*
X89081463Y-104469685D01*
X89127218Y-104522489D01*
X89137162Y-104591647D01*
X89136897Y-104593397D01*
X89120014Y-104699996D01*
X89120014Y-104700003D01*
X89136897Y-104806603D01*
X89127942Y-104875896D01*
X89082946Y-104929348D01*
X89016194Y-104949987D01*
X89014424Y-104950000D01*
X88246128Y-104950000D01*
X88298730Y-105146317D01*
X88298734Y-105146326D01*
X88394865Y-105352482D01*
X88525342Y-105538820D01*
X88686179Y-105699657D01*
X88872517Y-105830134D01*
X89078673Y-105926265D01*
X89078682Y-105926269D01*
X89274999Y-105978872D01*
X89275000Y-105978871D01*
X89275000Y-105210575D01*
X89294685Y-105143536D01*
X89347489Y-105097781D01*
X89416647Y-105087837D01*
X89418331Y-105088091D01*
X89450699Y-105093218D01*
X89493515Y-105100000D01*
X89493519Y-105100000D01*
X89556485Y-105100000D01*
X89599300Y-105093218D01*
X89631602Y-105088102D01*
X89700894Y-105097056D01*
X89754347Y-105142052D01*
X89774987Y-105208803D01*
X89775000Y-105210575D01*
X89775000Y-105978872D01*
X89971317Y-105926269D01*
X89971326Y-105926265D01*
X90177482Y-105830134D01*
X90363820Y-105699657D01*
X90524657Y-105538820D01*
X90655133Y-105352483D01*
X90677927Y-105303600D01*
X90724098Y-105251160D01*
X90791292Y-105232007D01*
X90858173Y-105252221D01*
X90902691Y-105303596D01*
X90927477Y-105356749D01*
X91058802Y-105544300D01*
X91220700Y-105706198D01*
X91408251Y-105837523D01*
X91504197Y-105882263D01*
X91615750Y-105934281D01*
X91615752Y-105934281D01*
X91615757Y-105934284D01*
X91723182Y-105963068D01*
X91782842Y-105999433D01*
X91813371Y-106062280D01*
X91809019Y-106121161D01*
X91768759Y-106245068D01*
X91768758Y-106245072D01*
X91748796Y-106435000D01*
X91768758Y-106624928D01*
X91768759Y-106624931D01*
X91827770Y-106806549D01*
X91827773Y-106806556D01*
X91923260Y-106971944D01*
X92051047Y-107113866D01*
X92205548Y-107226118D01*
X92380012Y-107303794D01*
X92566813Y-107343500D01*
X92757787Y-107343500D01*
X92944588Y-107303794D01*
X93119052Y-107226118D01*
X93273553Y-107113866D01*
X93277459Y-107109527D01*
X93336946Y-107072879D01*
X93369609Y-107068500D01*
X107558766Y-107068500D01*
X107574513Y-107070238D01*
X107574539Y-107069968D01*
X107582305Y-107070701D01*
X107582309Y-107070702D01*
X107652358Y-107068500D01*
X107682256Y-107068500D01*
X107682257Y-107068500D01*
X107683622Y-107068327D01*
X107689262Y-107067614D01*
X107695085Y-107067156D01*
X107721108Y-107066338D01*
X107742290Y-107065673D01*
X107752081Y-107062827D01*
X107761881Y-107059980D01*
X107780938Y-107056032D01*
X107801197Y-107053474D01*
X107845121Y-107036082D01*
X107850621Y-107034199D01*
X107895993Y-107021018D01*
X107913565Y-107010625D01*
X107931032Y-107002068D01*
X107950017Y-106994552D01*
X107988226Y-106966790D01*
X107993104Y-106963585D01*
X108033762Y-106939542D01*
X108048202Y-106925100D01*
X108062992Y-106912470D01*
X108079507Y-106900472D01*
X108109622Y-106864067D01*
X108113526Y-106859776D01*
X108819015Y-106154287D01*
X108831380Y-106144383D01*
X108831206Y-106144173D01*
X108837212Y-106139203D01*
X108837218Y-106139200D01*
X108885199Y-106088104D01*
X108906334Y-106066970D01*
X108910663Y-106061387D01*
X108914442Y-106056963D01*
X108946786Y-106022521D01*
X108956623Y-106004624D01*
X108967297Y-105988374D01*
X108979813Y-105972241D01*
X108998572Y-105928889D01*
X109001133Y-105923662D01*
X109023895Y-105882260D01*
X109028974Y-105862474D01*
X109035272Y-105844082D01*
X109043381Y-105825345D01*
X109050768Y-105778701D01*
X109051948Y-105772994D01*
X109063700Y-105727230D01*
X109063700Y-105706809D01*
X109065227Y-105687409D01*
X109068419Y-105667257D01*
X109063975Y-105620240D01*
X109063700Y-105614403D01*
X109063700Y-103060532D01*
X109065439Y-103044780D01*
X109065168Y-103044755D01*
X109065900Y-103036999D01*
X109065902Y-103036992D01*
X109063700Y-102966928D01*
X109063700Y-102937044D01*
X109062814Y-102930041D01*
X109062357Y-102924222D01*
X109062012Y-102913254D01*
X109060874Y-102877011D01*
X109055174Y-102857392D01*
X109051231Y-102838346D01*
X109048674Y-102818104D01*
X109047512Y-102815168D01*
X109031281Y-102774174D01*
X109029404Y-102768692D01*
X109016219Y-102723307D01*
X109005820Y-102705724D01*
X108997266Y-102688263D01*
X108989752Y-102669283D01*
X108961993Y-102631076D01*
X108958786Y-102626194D01*
X108934744Y-102585541D01*
X108934743Y-102585540D01*
X108934742Y-102585538D01*
X108920308Y-102571104D01*
X108907671Y-102556309D01*
X108895672Y-102539793D01*
X108895670Y-102539790D01*
X108859273Y-102509681D01*
X108854951Y-102505747D01*
X107435062Y-101085857D01*
X107401577Y-101024534D01*
X107406561Y-100954842D01*
X107448433Y-100898909D01*
X107451619Y-100896601D01*
X107496572Y-100865124D01*
X106990866Y-100359419D01*
X106957381Y-100298096D01*
X106962365Y-100228405D01*
X107004236Y-100172471D01*
X107022245Y-100161258D01*
X107045045Y-100149641D01*
X107134641Y-100060045D01*
X107146254Y-100037252D01*
X107194225Y-99986458D01*
X107262046Y-99969661D01*
X107328181Y-99992197D01*
X107344419Y-100005866D01*
X107850124Y-100511572D01*
X107893666Y-100449387D01*
X107986101Y-100251159D01*
X107986105Y-100251150D01*
X108042710Y-100039894D01*
X108042712Y-100039884D01*
X108061775Y-99822000D01*
X108061775Y-99821999D01*
X108042712Y-99604115D01*
X108042710Y-99604105D01*
X107986105Y-99392849D01*
X107986101Y-99392840D01*
X107893668Y-99194615D01*
X107850123Y-99132427D01*
X107344419Y-99638132D01*
X107283096Y-99671617D01*
X107213404Y-99666633D01*
X107157471Y-99624761D01*
X107146256Y-99606751D01*
X107134641Y-99583955D01*
X107134637Y-99583951D01*
X107134636Y-99583949D01*
X107045050Y-99494363D01*
X107045047Y-99494361D01*
X107045045Y-99494359D01*
X107022250Y-99482744D01*
X106971456Y-99434771D01*
X106954661Y-99366950D01*
X106977198Y-99300815D01*
X106990866Y-99284580D01*
X107496572Y-98778874D01*
X107496571Y-98778873D01*
X107434391Y-98735335D01*
X107236159Y-98642898D01*
X107236150Y-98642894D01*
X107024894Y-98586289D01*
X107024884Y-98586287D01*
X106807001Y-98567225D01*
X106806999Y-98567225D01*
X106589115Y-98586287D01*
X106589105Y-98586289D01*
X106377849Y-98642894D01*
X106377835Y-98642899D01*
X106344112Y-98658625D01*
X106275035Y-98669117D01*
X106211251Y-98640597D01*
X106173012Y-98582120D01*
X106167769Y-98550136D01*
X106167709Y-98548236D01*
X106167674Y-98547111D01*
X106161976Y-98527499D01*
X106158033Y-98508466D01*
X106155474Y-98488203D01*
X106138085Y-98444286D01*
X106136196Y-98438766D01*
X106123018Y-98393407D01*
X106112626Y-98375835D01*
X106104066Y-98358362D01*
X106096552Y-98339383D01*
X106068794Y-98301179D01*
X106065587Y-98296296D01*
X106055873Y-98279871D01*
X106041542Y-98255638D01*
X106027108Y-98241204D01*
X106014471Y-98226409D01*
X106002472Y-98209893D01*
X106002470Y-98209890D01*
X105966073Y-98179781D01*
X105961751Y-98175847D01*
X103838388Y-96052483D01*
X103828484Y-96040119D01*
X103828274Y-96040294D01*
X103823301Y-96034283D01*
X103823300Y-96034282D01*
X103772220Y-95986316D01*
X103761646Y-95975741D01*
X103751073Y-95965167D01*
X103751070Y-95965165D01*
X103745488Y-95960834D01*
X103741051Y-95957044D01*
X103706622Y-95924714D01*
X103706619Y-95924712D01*
X103688731Y-95914878D01*
X103672470Y-95904197D01*
X103656339Y-95891684D01*
X103612993Y-95872927D01*
X103607745Y-95870356D01*
X103580551Y-95855406D01*
X103566360Y-95847605D01*
X103562960Y-95846732D01*
X103546587Y-95842528D01*
X103528181Y-95836226D01*
X103509444Y-95828118D01*
X103509446Y-95828118D01*
X103462796Y-95820730D01*
X103457081Y-95819546D01*
X103436912Y-95814368D01*
X103411332Y-95807800D01*
X103411330Y-95807800D01*
X103390916Y-95807800D01*
X103371517Y-95806273D01*
X103351358Y-95803080D01*
X103351357Y-95803080D01*
X103304334Y-95807525D01*
X103298496Y-95807800D01*
X92734350Y-95807800D01*
X92667311Y-95788115D01*
X92621556Y-95735311D01*
X92611612Y-95666153D01*
X92616419Y-95645482D01*
X92635973Y-95585298D01*
X92663842Y-95499528D01*
X92683804Y-95309600D01*
X92663842Y-95119672D01*
X92604827Y-94938044D01*
X92509340Y-94772656D01*
X92381553Y-94630734D01*
X92227052Y-94518482D01*
X92052588Y-94440806D01*
X92052586Y-94440805D01*
X91865787Y-94401100D01*
X91674813Y-94401100D01*
X91488302Y-94440744D01*
X91418635Y-94435428D01*
X91374840Y-94407135D01*
X91287886Y-94320181D01*
X91254401Y-94258858D01*
X91259385Y-94189166D01*
X91301257Y-94133233D01*
X91366721Y-94108816D01*
X91375567Y-94108500D01*
X92138638Y-94108500D01*
X92138654Y-94108499D01*
X92165692Y-94105591D01*
X92199201Y-94101989D01*
X92336204Y-94050889D01*
X92453261Y-93963261D01*
X92460907Y-93953046D01*
X92516840Y-93911174D01*
X92586531Y-93906188D01*
X92631302Y-93925782D01*
X92637514Y-93930132D01*
X92637516Y-93930133D01*
X92843673Y-94026265D01*
X92843682Y-94026269D01*
X93063389Y-94085139D01*
X93063400Y-94085141D01*
X93289998Y-94104966D01*
X93290002Y-94104966D01*
X93516599Y-94085141D01*
X93516610Y-94085139D01*
X93736317Y-94026269D01*
X93736331Y-94026264D01*
X93942478Y-93930136D01*
X94015472Y-93879025D01*
X93473866Y-93337419D01*
X93440381Y-93276096D01*
X93445365Y-93206404D01*
X93487237Y-93150471D01*
X93505245Y-93139258D01*
X93528045Y-93127641D01*
X93617641Y-93038045D01*
X93629254Y-93015252D01*
X93677225Y-92964458D01*
X93745046Y-92947661D01*
X93811181Y-92970197D01*
X93827419Y-92983866D01*
X94369025Y-93525472D01*
X94420136Y-93452478D01*
X94516264Y-93246331D01*
X94516269Y-93246317D01*
X94575139Y-93026610D01*
X94575141Y-93026599D01*
X94594966Y-92800002D01*
X94594966Y-92799997D01*
X94575141Y-92573400D01*
X94575139Y-92573389D01*
X94516269Y-92353682D01*
X94516265Y-92353673D01*
X94420133Y-92147516D01*
X94420131Y-92147512D01*
X94369026Y-92074526D01*
X94369025Y-92074526D01*
X93827419Y-92616132D01*
X93766096Y-92649617D01*
X93696404Y-92644633D01*
X93640471Y-92602761D01*
X93629256Y-92584751D01*
X93617641Y-92561955D01*
X93617637Y-92561951D01*
X93617636Y-92561949D01*
X93528050Y-92472363D01*
X93528044Y-92472358D01*
X93518109Y-92467296D01*
X93505250Y-92460744D01*
X93454456Y-92412773D01*
X93437660Y-92344952D01*
X93460197Y-92278817D01*
X93473865Y-92262580D01*
X94015472Y-91720973D01*
X93942483Y-91669866D01*
X93942481Y-91669865D01*
X93736326Y-91573734D01*
X93736317Y-91573730D01*
X93516610Y-91514860D01*
X93516599Y-91514858D01*
X93290002Y-91495034D01*
X93289998Y-91495034D01*
X93063400Y-91514858D01*
X93063389Y-91514860D01*
X92843682Y-91573730D01*
X92843673Y-91573734D01*
X92637518Y-91669865D01*
X92637515Y-91669867D01*
X92631291Y-91674225D01*
X92565083Y-91696547D01*
X92497317Y-91679531D01*
X92460909Y-91646955D01*
X92453263Y-91636742D01*
X92453261Y-91636739D01*
X92336204Y-91549111D01*
X92336203Y-91549110D01*
X92199203Y-91498011D01*
X92138654Y-91491500D01*
X92138638Y-91491500D01*
X90441362Y-91491500D01*
X90441345Y-91491500D01*
X90380797Y-91498011D01*
X90380795Y-91498011D01*
X90243795Y-91549111D01*
X90126739Y-91636739D01*
X90039111Y-91753795D01*
X89988011Y-91890795D01*
X89988011Y-91890797D01*
X89981500Y-91951345D01*
X89981500Y-92714433D01*
X89961815Y-92781472D01*
X89909011Y-92827227D01*
X89839853Y-92837171D01*
X89776297Y-92808146D01*
X89769819Y-92802114D01*
X86147706Y-89180001D01*
X95436884Y-89180001D01*
X95455313Y-89390649D01*
X95455315Y-89390660D01*
X95510041Y-89594902D01*
X95510043Y-89594906D01*
X95510044Y-89594910D01*
X95589391Y-89765071D01*
X95599410Y-89786556D01*
X95599411Y-89786558D01*
X95720700Y-89959778D01*
X95870221Y-90109299D01*
X95870224Y-90109301D01*
X96043442Y-90230589D01*
X96235090Y-90319956D01*
X96439345Y-90374686D01*
X96589812Y-90387850D01*
X96649998Y-90393116D01*
X96650000Y-90393116D01*
X96650002Y-90393116D01*
X96702663Y-90388508D01*
X96860655Y-90374686D01*
X97064910Y-90319956D01*
X97256558Y-90230589D01*
X97429776Y-90109301D01*
X97579301Y-89959776D01*
X97700589Y-89786558D01*
X97789956Y-89594910D01*
X97844686Y-89390655D01*
X97863116Y-89180001D01*
X103056884Y-89180001D01*
X103075313Y-89390649D01*
X103075315Y-89390660D01*
X103130041Y-89594902D01*
X103130043Y-89594906D01*
X103130044Y-89594910D01*
X103209391Y-89765071D01*
X103219410Y-89786556D01*
X103219411Y-89786558D01*
X103340700Y-89959778D01*
X103490221Y-90109299D01*
X103490224Y-90109301D01*
X103663442Y-90230589D01*
X103855090Y-90319956D01*
X104059345Y-90374686D01*
X104209812Y-90387850D01*
X104269998Y-90393116D01*
X104270000Y-90393116D01*
X104270002Y-90393116D01*
X104322663Y-90388508D01*
X104480655Y-90374686D01*
X104684910Y-90319956D01*
X104876558Y-90230589D01*
X105049776Y-90109301D01*
X105199301Y-89959776D01*
X105320589Y-89786558D01*
X105409956Y-89594910D01*
X105464686Y-89390655D01*
X105483116Y-89180000D01*
X105464686Y-88969345D01*
X105409956Y-88765090D01*
X105320589Y-88573442D01*
X105229776Y-88443747D01*
X105199299Y-88400221D01*
X105049778Y-88250700D01*
X104979619Y-88201575D01*
X104935994Y-88146999D01*
X104928800Y-88077500D01*
X104960322Y-88015146D01*
X104979619Y-87998425D01*
X104997378Y-87985990D01*
X105049776Y-87949301D01*
X105199301Y-87799776D01*
X105320589Y-87626558D01*
X105409956Y-87434910D01*
X105464686Y-87230655D01*
X105483116Y-87020000D01*
X105464686Y-86809345D01*
X105409956Y-86605090D01*
X105320589Y-86413442D01*
X105199301Y-86240224D01*
X105199299Y-86240221D01*
X105049778Y-86090700D01*
X104876558Y-85969411D01*
X104876556Y-85969410D01*
X104855071Y-85959391D01*
X104684910Y-85880044D01*
X104684906Y-85880043D01*
X104684902Y-85880041D01*
X104480660Y-85825315D01*
X104480656Y-85825314D01*
X104480655Y-85825314D01*
X104480654Y-85825313D01*
X104480649Y-85825313D01*
X104270002Y-85806884D01*
X104269998Y-85806884D01*
X104059350Y-85825313D01*
X104059339Y-85825315D01*
X103855097Y-85880041D01*
X103855088Y-85880045D01*
X103663443Y-85969410D01*
X103663441Y-85969411D01*
X103490221Y-86090700D01*
X103340700Y-86240221D01*
X103219411Y-86413441D01*
X103219410Y-86413443D01*
X103130045Y-86605088D01*
X103130041Y-86605097D01*
X103075315Y-86809339D01*
X103075313Y-86809350D01*
X103056884Y-87019998D01*
X103056884Y-87020001D01*
X103075313Y-87230649D01*
X103075315Y-87230660D01*
X103130041Y-87434902D01*
X103130043Y-87434906D01*
X103130044Y-87434910D01*
X103209391Y-87605071D01*
X103219410Y-87626556D01*
X103219411Y-87626558D01*
X103340700Y-87799778D01*
X103490222Y-87949300D01*
X103560380Y-87998425D01*
X103604005Y-88053002D01*
X103611199Y-88122500D01*
X103579676Y-88184855D01*
X103560380Y-88201575D01*
X103490222Y-88250699D01*
X103340700Y-88400221D01*
X103219411Y-88573441D01*
X103219410Y-88573443D01*
X103144036Y-88735084D01*
X103133221Y-88758278D01*
X103130045Y-88765088D01*
X103130041Y-88765097D01*
X103075315Y-88969339D01*
X103075313Y-88969350D01*
X103056884Y-89179998D01*
X103056884Y-89180001D01*
X97863116Y-89180001D01*
X97863116Y-89180000D01*
X97844686Y-88969345D01*
X97789956Y-88765090D01*
X97700589Y-88573442D01*
X97609776Y-88443747D01*
X97579299Y-88400221D01*
X97429778Y-88250700D01*
X97359619Y-88201575D01*
X97315994Y-88146999D01*
X97308800Y-88077500D01*
X97340322Y-88015146D01*
X97359619Y-87998425D01*
X97377378Y-87985990D01*
X97429776Y-87949301D01*
X97579301Y-87799776D01*
X97700589Y-87626558D01*
X97789956Y-87434910D01*
X97844686Y-87230655D01*
X97863116Y-87020000D01*
X97844686Y-86809345D01*
X97789956Y-86605090D01*
X97700589Y-86413442D01*
X97579301Y-86240224D01*
X97579299Y-86240221D01*
X97429778Y-86090700D01*
X97256558Y-85969411D01*
X97256556Y-85969410D01*
X97235071Y-85959391D01*
X97064910Y-85880044D01*
X97064906Y-85880043D01*
X97064902Y-85880041D01*
X96860660Y-85825315D01*
X96860656Y-85825314D01*
X96860655Y-85825314D01*
X96860654Y-85825313D01*
X96860649Y-85825313D01*
X96650002Y-85806884D01*
X96649998Y-85806884D01*
X96439350Y-85825313D01*
X96439339Y-85825315D01*
X96235097Y-85880041D01*
X96235088Y-85880045D01*
X96043443Y-85969410D01*
X96043441Y-85969411D01*
X95870221Y-86090700D01*
X95720700Y-86240221D01*
X95599411Y-86413441D01*
X95599410Y-86413443D01*
X95510045Y-86605088D01*
X95510041Y-86605097D01*
X95455315Y-86809339D01*
X95455313Y-86809350D01*
X95436884Y-87019998D01*
X95436884Y-87020001D01*
X95455313Y-87230649D01*
X95455315Y-87230660D01*
X95510041Y-87434902D01*
X95510043Y-87434906D01*
X95510044Y-87434910D01*
X95589391Y-87605071D01*
X95599410Y-87626556D01*
X95599411Y-87626558D01*
X95720700Y-87799778D01*
X95870222Y-87949300D01*
X95940380Y-87998425D01*
X95984005Y-88053002D01*
X95991199Y-88122500D01*
X95959676Y-88184855D01*
X95940380Y-88201575D01*
X95870222Y-88250699D01*
X95720700Y-88400221D01*
X95599411Y-88573441D01*
X95599410Y-88573443D01*
X95524036Y-88735084D01*
X95513221Y-88758278D01*
X95510045Y-88765088D01*
X95510041Y-88765097D01*
X95455315Y-88969339D01*
X95455313Y-88969350D01*
X95436884Y-89179998D01*
X95436884Y-89180001D01*
X86147706Y-89180001D01*
X85863588Y-88895883D01*
X85853687Y-88883523D01*
X85853477Y-88883698D01*
X85848502Y-88877686D01*
X85848500Y-88877682D01*
X85822158Y-88852945D01*
X85797422Y-88829716D01*
X85776268Y-88808563D01*
X85774292Y-88807031D01*
X85770683Y-88804231D01*
X85766250Y-88800444D01*
X85731821Y-88768114D01*
X85731819Y-88768112D01*
X85713931Y-88758278D01*
X85697670Y-88747597D01*
X85681539Y-88735084D01*
X85638193Y-88716327D01*
X85632945Y-88713756D01*
X85605751Y-88698806D01*
X85591560Y-88691005D01*
X85588160Y-88690132D01*
X85571787Y-88685928D01*
X85553381Y-88679626D01*
X85534644Y-88671518D01*
X85534646Y-88671518D01*
X85487996Y-88664130D01*
X85482281Y-88662946D01*
X85462112Y-88657768D01*
X85436532Y-88651200D01*
X85436530Y-88651200D01*
X85416116Y-88651200D01*
X85396717Y-88649673D01*
X85376558Y-88646480D01*
X85376557Y-88646480D01*
X85329534Y-88650925D01*
X85323696Y-88651200D01*
X74511054Y-88651200D01*
X74444015Y-88631515D01*
X74423373Y-88614881D01*
X69759819Y-83951326D01*
X69726334Y-83890003D01*
X69723500Y-83863645D01*
X69723500Y-79808352D01*
X69743185Y-79741313D01*
X69776373Y-79706779D01*
X69934300Y-79596198D01*
X70096198Y-79434300D01*
X70227523Y-79246749D01*
X70247617Y-79203655D01*
X70293790Y-79151215D01*
X70360983Y-79132063D01*
X70427864Y-79152278D01*
X70472382Y-79203655D01*
X70487652Y-79236403D01*
X70492477Y-79246749D01*
X70623802Y-79434300D01*
X70785700Y-79596198D01*
X70973251Y-79727523D01*
X71047010Y-79761917D01*
X71180750Y-79824281D01*
X71180752Y-79824281D01*
X71180757Y-79824284D01*
X71401913Y-79883543D01*
X71564832Y-79897796D01*
X71629998Y-79903498D01*
X71630000Y-79903498D01*
X71630002Y-79903498D01*
X71689013Y-79898335D01*
X71858087Y-79883543D01*
X72079243Y-79824284D01*
X72286749Y-79727523D01*
X72474300Y-79596198D01*
X72636198Y-79434300D01*
X72767523Y-79246749D01*
X72787617Y-79203655D01*
X72833790Y-79151215D01*
X72900983Y-79132063D01*
X72967864Y-79152278D01*
X73012382Y-79203655D01*
X73027652Y-79236403D01*
X73032477Y-79246749D01*
X73163802Y-79434300D01*
X73325700Y-79596198D01*
X73513251Y-79727523D01*
X73587010Y-79761917D01*
X73720750Y-79824281D01*
X73720752Y-79824281D01*
X73720757Y-79824284D01*
X73941913Y-79883543D01*
X74104832Y-79897796D01*
X74169998Y-79903498D01*
X74170000Y-79903498D01*
X74170002Y-79903498D01*
X74229013Y-79898335D01*
X74398087Y-79883543D01*
X74619243Y-79824284D01*
X74826749Y-79727523D01*
X75014300Y-79596198D01*
X75176198Y-79434300D01*
X75307523Y-79246749D01*
X75327617Y-79203655D01*
X75373790Y-79151215D01*
X75440983Y-79132063D01*
X75507864Y-79152278D01*
X75552382Y-79203655D01*
X75567652Y-79236403D01*
X75572477Y-79246749D01*
X75703802Y-79434300D01*
X75865700Y-79596198D01*
X76053251Y-79727523D01*
X76127010Y-79761917D01*
X76260750Y-79824281D01*
X76260752Y-79824281D01*
X76260757Y-79824284D01*
X76481913Y-79883543D01*
X76644832Y-79897796D01*
X76709998Y-79903498D01*
X76710000Y-79903498D01*
X76710002Y-79903498D01*
X76769013Y-79898335D01*
X76938087Y-79883543D01*
X77159243Y-79824284D01*
X77366749Y-79727523D01*
X77554300Y-79596198D01*
X77716198Y-79434300D01*
X77847523Y-79246749D01*
X77867617Y-79203655D01*
X77913790Y-79151215D01*
X77980983Y-79132063D01*
X78047864Y-79152278D01*
X78092382Y-79203655D01*
X78107652Y-79236403D01*
X78112477Y-79246749D01*
X78243802Y-79434300D01*
X78405700Y-79596198D01*
X78593251Y-79727523D01*
X78667010Y-79761917D01*
X78800750Y-79824281D01*
X78800752Y-79824281D01*
X78800757Y-79824284D01*
X79021913Y-79883543D01*
X79184832Y-79897796D01*
X79249998Y-79903498D01*
X79250000Y-79903498D01*
X79250002Y-79903498D01*
X79309013Y-79898335D01*
X79478087Y-79883543D01*
X79699243Y-79824284D01*
X79906749Y-79727523D01*
X80094300Y-79596198D01*
X80256198Y-79434300D01*
X80387523Y-79246749D01*
X80407617Y-79203655D01*
X80453790Y-79151215D01*
X80520983Y-79132063D01*
X80587864Y-79152278D01*
X80632382Y-79203655D01*
X80647652Y-79236403D01*
X80652477Y-79246749D01*
X80783802Y-79434300D01*
X80945700Y-79596198D01*
X81133251Y-79727523D01*
X81207010Y-79761917D01*
X81340750Y-79824281D01*
X81340752Y-79824281D01*
X81340757Y-79824284D01*
X81561913Y-79883543D01*
X81724832Y-79897796D01*
X81789998Y-79903498D01*
X81790000Y-79903498D01*
X81790002Y-79903498D01*
X81849013Y-79898335D01*
X82018087Y-79883543D01*
X82239243Y-79824284D01*
X82446749Y-79727523D01*
X82634300Y-79596198D01*
X82796198Y-79434300D01*
X82927523Y-79246749D01*
X82947617Y-79203655D01*
X82993790Y-79151215D01*
X83060983Y-79132063D01*
X83127864Y-79152278D01*
X83172382Y-79203655D01*
X83187652Y-79236403D01*
X83192477Y-79246749D01*
X83323802Y-79434300D01*
X83485700Y-79596198D01*
X83673251Y-79727523D01*
X83747010Y-79761917D01*
X83880750Y-79824281D01*
X83880752Y-79824281D01*
X83880757Y-79824284D01*
X84101913Y-79883543D01*
X84264832Y-79897796D01*
X84329998Y-79903498D01*
X84330000Y-79903498D01*
X84330002Y-79903498D01*
X84389013Y-79898335D01*
X84558087Y-79883543D01*
X84779243Y-79824284D01*
X84986749Y-79727523D01*
X85174300Y-79596198D01*
X85336198Y-79434300D01*
X85341566Y-79426632D01*
X85396139Y-79383008D01*
X85465637Y-79375813D01*
X85527993Y-79407333D01*
X85563409Y-79467562D01*
X85566430Y-79484498D01*
X85568011Y-79499202D01*
X85568011Y-79499204D01*
X85618595Y-79634821D01*
X85619111Y-79636204D01*
X85706739Y-79753261D01*
X85823796Y-79840889D01*
X85960799Y-79891989D01*
X85988050Y-79894918D01*
X86021345Y-79898499D01*
X86021362Y-79898500D01*
X87718638Y-79898500D01*
X87718654Y-79898499D01*
X87745692Y-79895591D01*
X87779201Y-79891989D01*
X87916204Y-79840889D01*
X88033261Y-79753261D01*
X88120889Y-79636204D01*
X88171989Y-79499201D01*
X88175591Y-79465692D01*
X88178499Y-79438654D01*
X88178500Y-79438637D01*
X88178500Y-79347500D01*
X88198185Y-79280461D01*
X88250989Y-79234706D01*
X88302500Y-79223500D01*
X93854609Y-79223500D01*
X93921648Y-79243185D01*
X93961997Y-79285501D01*
X93967160Y-79294444D01*
X94093088Y-79434302D01*
X94094947Y-79436366D01*
X94165898Y-79487915D01*
X94249451Y-79548620D01*
X94297520Y-79570021D01*
X94341435Y-79589573D01*
X94394672Y-79634821D01*
X94414994Y-79701670D01*
X94415000Y-79702852D01*
X94415000Y-80380000D01*
X95254997Y-80380000D01*
X95322036Y-80399685D01*
X95367791Y-80452489D01*
X95377735Y-80521647D01*
X95375888Y-80531592D01*
X95361189Y-80595992D01*
X95361189Y-80595993D01*
X95372021Y-80740532D01*
X95369920Y-80740689D01*
X95366405Y-80798139D01*
X95325110Y-80854499D01*
X95259899Y-80879587D01*
X95249784Y-80880000D01*
X94415000Y-80880000D01*
X94415000Y-81577844D01*
X94421401Y-81637372D01*
X94421403Y-81637379D01*
X94471645Y-81772086D01*
X94471649Y-81772093D01*
X94557809Y-81887187D01*
X94557812Y-81887190D01*
X94672906Y-81973350D01*
X94672913Y-81973354D01*
X94807620Y-82023596D01*
X94807627Y-82023598D01*
X94867155Y-82029999D01*
X94867172Y-82030000D01*
X95565000Y-82030000D01*
X95565000Y-81191821D01*
X95584685Y-81124782D01*
X95637489Y-81079027D01*
X95706647Y-81069083D01*
X95725547Y-81073329D01*
X95747173Y-81080000D01*
X95848723Y-81080000D01*
X95848724Y-81080000D01*
X95922519Y-81068877D01*
X95991742Y-81078350D01*
X96044857Y-81123744D01*
X96064997Y-81190648D01*
X96065000Y-81191492D01*
X96065000Y-82030000D01*
X96762828Y-82030000D01*
X96762844Y-82029999D01*
X96822372Y-82023598D01*
X96822379Y-82023596D01*
X96957086Y-81973354D01*
X96957093Y-81973350D01*
X97072187Y-81887190D01*
X97072190Y-81887187D01*
X97158350Y-81772093D01*
X97158355Y-81772084D01*
X97183940Y-81703486D01*
X97225810Y-81647552D01*
X97291274Y-81623134D01*
X97359547Y-81637985D01*
X97391349Y-81662832D01*
X97397780Y-81669818D01*
X97581983Y-81813190D01*
X97581985Y-81813191D01*
X97581988Y-81813193D01*
X97701331Y-81877777D01*
X97787273Y-81924287D01*
X97891420Y-81960041D01*
X98008045Y-82000079D01*
X98008047Y-82000079D01*
X98008049Y-82000080D01*
X98238288Y-82038500D01*
X98238289Y-82038500D01*
X98471711Y-82038500D01*
X98471712Y-82038500D01*
X98701951Y-82000080D01*
X98922727Y-81924287D01*
X99128017Y-81813190D01*
X99312220Y-81669818D01*
X99396888Y-81577844D01*
X100240000Y-81577844D01*
X100246401Y-81637372D01*
X100246403Y-81637379D01*
X100296645Y-81772086D01*
X100296649Y-81772093D01*
X100382809Y-81887187D01*
X100382812Y-81887190D01*
X100497906Y-81973350D01*
X100497913Y-81973354D01*
X100632620Y-82023596D01*
X100632627Y-82023598D01*
X100692155Y-82029999D01*
X100692172Y-82030000D01*
X101389999Y-82030000D01*
X101389999Y-81191820D01*
X101409683Y-81124781D01*
X101462487Y-81079026D01*
X101531646Y-81069082D01*
X101550544Y-81073328D01*
X101572173Y-81080000D01*
X101673723Y-81080000D01*
X101673724Y-81080000D01*
X101747518Y-81068877D01*
X101816741Y-81078349D01*
X101869855Y-81123744D01*
X101889996Y-81190648D01*
X101889999Y-81191492D01*
X101889999Y-82029999D01*
X101890001Y-82030000D01*
X102587828Y-82030000D01*
X102587844Y-82029999D01*
X102647372Y-82023598D01*
X102647379Y-82023596D01*
X102782086Y-81973354D01*
X102782093Y-81973350D01*
X102897187Y-81887190D01*
X102897190Y-81887187D01*
X102983350Y-81772093D01*
X102983355Y-81772084D01*
X103008940Y-81703486D01*
X103050810Y-81647552D01*
X103116274Y-81623134D01*
X103184547Y-81637985D01*
X103216349Y-81662832D01*
X103222780Y-81669818D01*
X103406983Y-81813190D01*
X103406985Y-81813191D01*
X103406988Y-81813193D01*
X103526331Y-81877777D01*
X103612273Y-81924287D01*
X103716420Y-81960041D01*
X103833045Y-82000079D01*
X103833047Y-82000079D01*
X103833049Y-82000080D01*
X104063288Y-82038500D01*
X104063289Y-82038500D01*
X104296711Y-82038500D01*
X104296712Y-82038500D01*
X104526951Y-82000080D01*
X104747727Y-81924287D01*
X104953017Y-81813190D01*
X105137220Y-81669818D01*
X105295314Y-81498083D01*
X105422984Y-81302669D01*
X105516749Y-81088907D01*
X105574051Y-80862626D01*
X105593327Y-80630000D01*
X105574051Y-80397374D01*
X105516749Y-80171093D01*
X105422984Y-79957331D01*
X105380294Y-79891989D01*
X105295313Y-79761915D01*
X105137223Y-79590185D01*
X105137222Y-79590184D01*
X105137220Y-79590182D01*
X104953017Y-79446810D01*
X104953015Y-79446809D01*
X104953014Y-79446808D01*
X104953011Y-79446806D01*
X104747733Y-79335716D01*
X104747730Y-79335715D01*
X104747727Y-79335713D01*
X104747721Y-79335711D01*
X104747719Y-79335710D01*
X104526954Y-79259920D01*
X104308697Y-79223500D01*
X104296712Y-79221500D01*
X104063288Y-79221500D01*
X104051303Y-79223500D01*
X103833045Y-79259920D01*
X103612280Y-79335710D01*
X103612266Y-79335716D01*
X103406988Y-79446806D01*
X103406985Y-79446808D01*
X103222781Y-79590181D01*
X103222776Y-79590185D01*
X103216346Y-79597170D01*
X103156457Y-79633157D01*
X103086619Y-79631052D01*
X103029005Y-79591524D01*
X103008940Y-79556513D01*
X102983355Y-79487915D01*
X102983350Y-79487906D01*
X102897190Y-79372812D01*
X102897187Y-79372809D01*
X102782093Y-79286649D01*
X102782086Y-79286645D01*
X102647379Y-79236403D01*
X102647372Y-79236401D01*
X102587844Y-79230000D01*
X101890000Y-79230000D01*
X101890000Y-80068178D01*
X101870315Y-80135217D01*
X101817511Y-80180972D01*
X101748353Y-80190916D01*
X101729454Y-80186670D01*
X101707829Y-80180000D01*
X101707827Y-80180000D01*
X101606276Y-80180000D01*
X101606266Y-80180000D01*
X101532479Y-80191122D01*
X101463255Y-80181649D01*
X101410141Y-80136254D01*
X101390002Y-80069349D01*
X101389999Y-80068507D01*
X101390000Y-79230000D01*
X100692155Y-79230000D01*
X100632627Y-79236401D01*
X100632620Y-79236403D01*
X100497913Y-79286645D01*
X100497906Y-79286649D01*
X100382812Y-79372809D01*
X100382809Y-79372812D01*
X100296649Y-79487906D01*
X100296645Y-79487913D01*
X100246403Y-79622620D01*
X100246401Y-79622627D01*
X100240000Y-79682155D01*
X100240000Y-80380000D01*
X101079997Y-80380000D01*
X101147036Y-80399685D01*
X101192791Y-80452489D01*
X101202735Y-80521647D01*
X101200888Y-80531592D01*
X101186189Y-80595992D01*
X101186189Y-80595993D01*
X101197021Y-80740532D01*
X101194920Y-80740689D01*
X101191405Y-80798139D01*
X101150110Y-80854499D01*
X101084899Y-80879587D01*
X101074784Y-80880000D01*
X100240000Y-80880000D01*
X100240000Y-81577844D01*
X99396888Y-81577844D01*
X99470314Y-81498083D01*
X99597984Y-81302669D01*
X99691749Y-81088907D01*
X99749051Y-80862626D01*
X99768327Y-80630000D01*
X99749051Y-80397374D01*
X99691749Y-80171093D01*
X99597984Y-79957331D01*
X99555294Y-79891989D01*
X99470313Y-79761915D01*
X99312223Y-79590185D01*
X99312222Y-79590184D01*
X99312220Y-79590182D01*
X99128017Y-79446810D01*
X99128015Y-79446809D01*
X99128014Y-79446808D01*
X99128011Y-79446806D01*
X98922733Y-79335716D01*
X98922730Y-79335715D01*
X98922727Y-79335713D01*
X98922721Y-79335711D01*
X98922719Y-79335710D01*
X98701954Y-79259920D01*
X98483697Y-79223500D01*
X98471712Y-79221500D01*
X98238288Y-79221500D01*
X98226303Y-79223500D01*
X98008045Y-79259920D01*
X97787280Y-79335710D01*
X97787266Y-79335716D01*
X97581988Y-79446806D01*
X97581985Y-79446808D01*
X97397781Y-79590181D01*
X97397776Y-79590185D01*
X97391346Y-79597170D01*
X97331457Y-79633157D01*
X97261619Y-79631052D01*
X97204005Y-79591524D01*
X97183940Y-79556513D01*
X97158355Y-79487915D01*
X97158350Y-79487906D01*
X97072190Y-79372812D01*
X97072187Y-79372809D01*
X96957093Y-79286649D01*
X96957086Y-79286645D01*
X96822379Y-79236403D01*
X96822372Y-79236401D01*
X96762844Y-79230000D01*
X96065000Y-79230000D01*
X96065000Y-80068178D01*
X96045315Y-80135217D01*
X95992511Y-80180972D01*
X95923353Y-80190916D01*
X95904454Y-80186670D01*
X95882829Y-80180000D01*
X95882827Y-80180000D01*
X95781276Y-80180000D01*
X95781268Y-80180000D01*
X95707481Y-80191122D01*
X95638256Y-80181649D01*
X95585143Y-80136254D01*
X95565003Y-80069350D01*
X95565000Y-80068507D01*
X95565000Y-79221141D01*
X95542170Y-79179332D01*
X95545404Y-79114659D01*
X95599742Y-78947428D01*
X95619704Y-78757500D01*
X95599742Y-78567572D01*
X95540727Y-78385944D01*
X95445240Y-78220556D01*
X95317453Y-78078634D01*
X95162952Y-77966382D01*
X94988488Y-77888706D01*
X94988486Y-77888705D01*
X94801687Y-77849000D01*
X94610713Y-77849000D01*
X94423914Y-77888705D01*
X94295721Y-77945780D01*
X94245286Y-77956500D01*
X88302500Y-77956500D01*
X88235461Y-77936815D01*
X88189706Y-77884011D01*
X88178500Y-77832500D01*
X88178500Y-77741362D01*
X88178499Y-77741345D01*
X88175157Y-77710270D01*
X88171989Y-77680799D01*
X88120889Y-77543796D01*
X88033261Y-77426739D01*
X87916204Y-77339111D01*
X87916203Y-77339110D01*
X87779203Y-77288011D01*
X87718654Y-77281500D01*
X87718638Y-77281500D01*
X86508767Y-77281500D01*
X86441728Y-77261815D01*
X86421086Y-77245181D01*
X86251988Y-77076083D01*
X86242087Y-77063723D01*
X86241877Y-77063898D01*
X86236902Y-77057886D01*
X86236900Y-77057882D01*
X86210557Y-77033145D01*
X86185821Y-77009915D01*
X86164668Y-76988763D01*
X86162692Y-76987231D01*
X86159083Y-76984431D01*
X86154650Y-76980644D01*
X86120221Y-76948314D01*
X86120219Y-76948312D01*
X86102331Y-76938478D01*
X86086070Y-76927797D01*
X86069939Y-76915284D01*
X86026593Y-76896527D01*
X86021345Y-76893956D01*
X85994151Y-76879006D01*
X85979960Y-76871205D01*
X85976560Y-76870332D01*
X85960187Y-76866128D01*
X85941781Y-76859826D01*
X85923044Y-76851718D01*
X85923046Y-76851718D01*
X85876396Y-76844330D01*
X85870681Y-76843146D01*
X85850512Y-76837968D01*
X85824932Y-76831400D01*
X85824930Y-76831400D01*
X85804516Y-76831400D01*
X85785117Y-76829873D01*
X85764958Y-76826680D01*
X85764957Y-76826680D01*
X85717934Y-76831125D01*
X85712096Y-76831400D01*
X60217555Y-76831400D01*
X60150516Y-76811715D01*
X60104761Y-76758911D01*
X60094817Y-76689753D01*
X60123842Y-76626197D01*
X60143244Y-76608133D01*
X60148390Y-76604281D01*
X60243261Y-76533261D01*
X60330889Y-76416204D01*
X60381989Y-76279201D01*
X60385591Y-76245692D01*
X60388499Y-76218654D01*
X60388500Y-76218637D01*
X60388500Y-74521362D01*
X60388499Y-74521345D01*
X60385157Y-74490270D01*
X60381989Y-74460799D01*
X60330889Y-74323796D01*
X60243261Y-74206739D01*
X60126204Y-74119111D01*
X60126203Y-74119110D01*
X59989203Y-74068011D01*
X59928654Y-74061500D01*
X59928638Y-74061500D01*
X58231362Y-74061500D01*
X58231345Y-74061500D01*
X58170797Y-74068011D01*
X58170795Y-74068011D01*
X58033795Y-74119111D01*
X57916739Y-74206739D01*
X57829111Y-74323795D01*
X57778011Y-74460795D01*
X57778011Y-74460797D01*
X57776430Y-74475501D01*
X57749691Y-74540052D01*
X57692298Y-74579899D01*
X57622473Y-74582392D01*
X57562384Y-74546738D01*
X57551574Y-74533379D01*
X57546198Y-74525700D01*
X57384300Y-74363802D01*
X57196749Y-74232477D01*
X57196745Y-74232475D01*
X56989249Y-74135718D01*
X56989238Y-74135714D01*
X56768089Y-74076457D01*
X56768081Y-74076456D01*
X56540002Y-74056502D01*
X56539998Y-74056502D01*
X56311918Y-74076456D01*
X56311910Y-74076457D01*
X56090761Y-74135714D01*
X56090750Y-74135718D01*
X55883254Y-74232475D01*
X55883252Y-74232476D01*
X55883249Y-74232477D01*
X55883251Y-74232477D01*
X55695700Y-74363802D01*
X55695698Y-74363803D01*
X55695695Y-74363806D01*
X55533806Y-74525695D01*
X55402476Y-74713251D01*
X55382382Y-74756345D01*
X55336209Y-74808784D01*
X55269016Y-74827936D01*
X55202135Y-74807720D01*
X55157618Y-74756345D01*
X55137523Y-74713251D01*
X55006198Y-74525700D01*
X54844300Y-74363802D01*
X54656749Y-74232477D01*
X54656745Y-74232475D01*
X54449249Y-74135718D01*
X54449238Y-74135714D01*
X54228089Y-74076457D01*
X54228081Y-74076456D01*
X54000002Y-74056502D01*
X53999998Y-74056502D01*
X53771918Y-74076456D01*
X53771910Y-74076457D01*
X53550761Y-74135714D01*
X53550750Y-74135718D01*
X53343254Y-74232475D01*
X53343252Y-74232476D01*
X53343249Y-74232477D01*
X53343251Y-74232477D01*
X53155700Y-74363802D01*
X53155698Y-74363803D01*
X53155695Y-74363806D01*
X52993806Y-74525695D01*
X52862476Y-74713251D01*
X52842382Y-74756345D01*
X52796209Y-74808784D01*
X52729016Y-74827936D01*
X52662135Y-74807720D01*
X52617618Y-74756345D01*
X52597523Y-74713251D01*
X52466198Y-74525700D01*
X52304300Y-74363802D01*
X52116749Y-74232477D01*
X52116745Y-74232475D01*
X51909249Y-74135718D01*
X51909238Y-74135714D01*
X51688089Y-74076457D01*
X51688081Y-74076456D01*
X51460002Y-74056502D01*
X51459998Y-74056502D01*
X51231918Y-74076456D01*
X51231910Y-74076457D01*
X51010761Y-74135714D01*
X51010750Y-74135718D01*
X50803254Y-74232475D01*
X50803252Y-74232476D01*
X50803249Y-74232477D01*
X50803251Y-74232477D01*
X50615700Y-74363802D01*
X50615698Y-74363803D01*
X50615695Y-74363806D01*
X50453806Y-74525695D01*
X50322476Y-74713251D01*
X50302382Y-74756345D01*
X50256209Y-74808784D01*
X50189016Y-74827936D01*
X50122135Y-74807720D01*
X50077618Y-74756345D01*
X50057523Y-74713251D01*
X49926198Y-74525700D01*
X49764300Y-74363802D01*
X49576749Y-74232477D01*
X49576745Y-74232475D01*
X49369249Y-74135718D01*
X49369238Y-74135714D01*
X49148089Y-74076457D01*
X49148081Y-74076456D01*
X48920002Y-74056502D01*
X48919998Y-74056502D01*
X48691918Y-74076456D01*
X48691910Y-74076457D01*
X48470761Y-74135714D01*
X48470750Y-74135718D01*
X48263254Y-74232475D01*
X48263252Y-74232476D01*
X48263249Y-74232477D01*
X48263251Y-74232477D01*
X48075700Y-74363802D01*
X48075698Y-74363803D01*
X48075695Y-74363806D01*
X47913806Y-74525695D01*
X47782476Y-74713251D01*
X47762382Y-74756345D01*
X47716209Y-74808784D01*
X47649016Y-74827936D01*
X47582135Y-74807720D01*
X47537618Y-74756345D01*
X47517523Y-74713251D01*
X47386198Y-74525700D01*
X47224300Y-74363802D01*
X47036749Y-74232477D01*
X47036745Y-74232475D01*
X46829249Y-74135718D01*
X46829238Y-74135714D01*
X46608089Y-74076457D01*
X46608081Y-74076456D01*
X46380002Y-74056502D01*
X46379998Y-74056502D01*
X46151918Y-74076456D01*
X46151910Y-74076457D01*
X45930761Y-74135714D01*
X45930750Y-74135718D01*
X45723254Y-74232475D01*
X45723252Y-74232476D01*
X45723249Y-74232477D01*
X45723251Y-74232477D01*
X45535700Y-74363802D01*
X45535698Y-74363803D01*
X45535695Y-74363806D01*
X45373806Y-74525695D01*
X45242476Y-74713251D01*
X45222382Y-74756345D01*
X45176209Y-74808784D01*
X45109016Y-74827936D01*
X45042135Y-74807720D01*
X44997618Y-74756345D01*
X44977523Y-74713251D01*
X44846198Y-74525700D01*
X44684300Y-74363802D01*
X44496749Y-74232477D01*
X44496745Y-74232475D01*
X44289249Y-74135718D01*
X44289238Y-74135714D01*
X44068089Y-74076457D01*
X44068081Y-74076456D01*
X43840002Y-74056502D01*
X43839998Y-74056502D01*
X43611918Y-74076456D01*
X43611910Y-74076457D01*
X43390761Y-74135714D01*
X43390750Y-74135718D01*
X43183254Y-74232475D01*
X43183252Y-74232476D01*
X43183249Y-74232477D01*
X43183251Y-74232477D01*
X42995700Y-74363802D01*
X42995698Y-74363803D01*
X42995695Y-74363806D01*
X42833806Y-74525695D01*
X42702476Y-74713251D01*
X42682382Y-74756345D01*
X42636209Y-74808784D01*
X42569016Y-74827936D01*
X42502135Y-74807720D01*
X42457618Y-74756345D01*
X42437523Y-74713251D01*
X42306198Y-74525700D01*
X42144300Y-74363802D01*
X41956749Y-74232477D01*
X41956745Y-74232475D01*
X41749249Y-74135718D01*
X41749238Y-74135714D01*
X41528089Y-74076457D01*
X41528081Y-74076456D01*
X41300002Y-74056502D01*
X41299998Y-74056502D01*
X41071918Y-74076456D01*
X41071910Y-74076457D01*
X40850761Y-74135714D01*
X40850750Y-74135718D01*
X40643254Y-74232475D01*
X40643252Y-74232476D01*
X40643249Y-74232477D01*
X40643251Y-74232477D01*
X40455700Y-74363802D01*
X40455698Y-74363803D01*
X40455695Y-74363806D01*
X40293806Y-74525695D01*
X40162476Y-74713251D01*
X40142382Y-74756345D01*
X40096209Y-74808784D01*
X40029016Y-74827936D01*
X39962135Y-74807720D01*
X39917618Y-74756345D01*
X39897523Y-74713251D01*
X39766198Y-74525700D01*
X39604300Y-74363802D01*
X39416749Y-74232477D01*
X39416745Y-74232475D01*
X39209249Y-74135718D01*
X39209238Y-74135714D01*
X38988089Y-74076457D01*
X38988081Y-74076456D01*
X38760002Y-74056502D01*
X38759998Y-74056502D01*
X38531918Y-74076456D01*
X38531910Y-74076457D01*
X38310761Y-74135714D01*
X38310750Y-74135718D01*
X38103254Y-74232475D01*
X38103252Y-74232476D01*
X38103249Y-74232477D01*
X38103251Y-74232477D01*
X37915700Y-74363802D01*
X37915698Y-74363803D01*
X37915695Y-74363806D01*
X37753806Y-74525695D01*
X37753803Y-74525698D01*
X37753802Y-74525700D01*
X37714106Y-74582392D01*
X37622476Y-74713252D01*
X37622475Y-74713254D01*
X37525718Y-74920750D01*
X37525714Y-74920761D01*
X37466457Y-75141910D01*
X37466456Y-75141918D01*
X37446502Y-75369998D01*
X37446502Y-75370001D01*
X37466456Y-75598081D01*
X37466457Y-75598089D01*
X37525714Y-75819238D01*
X37525718Y-75819249D01*
X37602381Y-75983653D01*
X37622477Y-76026749D01*
X37753802Y-76214300D01*
X37915700Y-76376198D01*
X38103251Y-76507523D01*
X38158445Y-76533260D01*
X38310750Y-76604281D01*
X38310752Y-76604281D01*
X38310757Y-76604284D01*
X38531913Y-76663543D01*
X38694832Y-76677796D01*
X38759998Y-76683498D01*
X38760000Y-76683498D01*
X38760002Y-76683498D01*
X38817127Y-76678500D01*
X38988087Y-76663543D01*
X39209243Y-76604284D01*
X39416749Y-76507523D01*
X39604300Y-76376198D01*
X39766198Y-76214300D01*
X39897523Y-76026749D01*
X39917617Y-75983655D01*
X39963790Y-75931215D01*
X40030983Y-75912063D01*
X40097864Y-75932278D01*
X40142382Y-75983655D01*
X40162477Y-76026749D01*
X40293802Y-76214300D01*
X40455700Y-76376198D01*
X40643251Y-76507523D01*
X40698445Y-76533260D01*
X40850750Y-76604281D01*
X40850752Y-76604281D01*
X40850757Y-76604284D01*
X41071913Y-76663543D01*
X41234832Y-76677796D01*
X41299998Y-76683498D01*
X41300000Y-76683498D01*
X41300002Y-76683498D01*
X41357127Y-76678500D01*
X41528087Y-76663543D01*
X41749243Y-76604284D01*
X41956749Y-76507523D01*
X42144300Y-76376198D01*
X42306198Y-76214300D01*
X42437523Y-76026749D01*
X42457617Y-75983655D01*
X42503790Y-75931215D01*
X42570983Y-75912063D01*
X42637864Y-75932278D01*
X42682382Y-75983655D01*
X42702477Y-76026749D01*
X42833802Y-76214300D01*
X42995700Y-76376198D01*
X43183251Y-76507523D01*
X43238445Y-76533260D01*
X43390750Y-76604281D01*
X43390752Y-76604281D01*
X43390757Y-76604284D01*
X43611913Y-76663543D01*
X43774832Y-76677796D01*
X43839998Y-76683498D01*
X43840000Y-76683498D01*
X43840002Y-76683498D01*
X43897127Y-76678500D01*
X44068087Y-76663543D01*
X44289243Y-76604284D01*
X44496749Y-76507523D01*
X44684300Y-76376198D01*
X44846198Y-76214300D01*
X44977523Y-76026749D01*
X44997617Y-75983655D01*
X45043790Y-75931215D01*
X45110983Y-75912063D01*
X45177864Y-75932278D01*
X45222382Y-75983655D01*
X45242477Y-76026749D01*
X45373802Y-76214300D01*
X45535700Y-76376198D01*
X45723251Y-76507523D01*
X45778445Y-76533260D01*
X45930750Y-76604281D01*
X45930752Y-76604281D01*
X45930757Y-76604284D01*
X46151913Y-76663543D01*
X46314832Y-76677796D01*
X46379998Y-76683498D01*
X46380000Y-76683498D01*
X46380002Y-76683498D01*
X46437127Y-76678500D01*
X46608087Y-76663543D01*
X46829243Y-76604284D01*
X47036749Y-76507523D01*
X47130831Y-76441645D01*
X47197035Y-76419318D01*
X47264803Y-76436328D01*
X47289635Y-76455539D01*
X48116800Y-77282705D01*
X48150285Y-77344028D01*
X48145301Y-77413720D01*
X48103429Y-77469653D01*
X48100243Y-77471960D01*
X47931183Y-77590338D01*
X47770342Y-77751179D01*
X47639865Y-77937517D01*
X47617071Y-77986401D01*
X47570898Y-78038840D01*
X47503705Y-78057992D01*
X47436824Y-78037776D01*
X47392307Y-77986401D01*
X47367523Y-77933251D01*
X47336331Y-77888705D01*
X47236198Y-77745700D01*
X47074300Y-77583802D01*
X46886749Y-77452477D01*
X46886745Y-77452475D01*
X46679249Y-77355718D01*
X46679238Y-77355714D01*
X46458089Y-77296457D01*
X46458081Y-77296456D01*
X46230002Y-77276502D01*
X46229998Y-77276502D01*
X46001918Y-77296456D01*
X46001910Y-77296457D01*
X45780761Y-77355714D01*
X45780750Y-77355718D01*
X45573254Y-77452475D01*
X45573252Y-77452476D01*
X45573249Y-77452477D01*
X45573251Y-77452477D01*
X45385700Y-77583802D01*
X45385698Y-77583803D01*
X45385695Y-77583806D01*
X45223806Y-77745695D01*
X45092476Y-77933251D01*
X45072382Y-77976345D01*
X45026209Y-78028784D01*
X44959016Y-78047936D01*
X44892135Y-78027720D01*
X44847618Y-77976345D01*
X44827523Y-77933251D01*
X44796331Y-77888705D01*
X44696198Y-77745700D01*
X44534300Y-77583802D01*
X44346749Y-77452477D01*
X44346745Y-77452475D01*
X44139249Y-77355718D01*
X44139238Y-77355714D01*
X43918089Y-77296457D01*
X43918081Y-77296456D01*
X43690002Y-77276502D01*
X43689998Y-77276502D01*
X43461918Y-77296456D01*
X43461910Y-77296457D01*
X43240761Y-77355714D01*
X43240750Y-77355718D01*
X43033254Y-77452475D01*
X43033252Y-77452476D01*
X43033249Y-77452477D01*
X43033251Y-77452477D01*
X42845700Y-77583802D01*
X42845698Y-77583803D01*
X42845695Y-77583806D01*
X42683806Y-77745695D01*
X42552476Y-77933251D01*
X42532382Y-77976345D01*
X42486209Y-78028784D01*
X42419016Y-78047936D01*
X42352135Y-78027720D01*
X42307618Y-77976345D01*
X42287523Y-77933251D01*
X42256331Y-77888705D01*
X42156198Y-77745700D01*
X41994300Y-77583802D01*
X41806749Y-77452477D01*
X41806745Y-77452475D01*
X41599249Y-77355718D01*
X41599238Y-77355714D01*
X41378089Y-77296457D01*
X41378081Y-77296456D01*
X41150002Y-77276502D01*
X41149998Y-77276502D01*
X40921918Y-77296456D01*
X40921910Y-77296457D01*
X40700761Y-77355714D01*
X40700750Y-77355718D01*
X40493254Y-77452475D01*
X40493252Y-77452476D01*
X40493249Y-77452477D01*
X40493251Y-77452477D01*
X40305700Y-77583802D01*
X40305698Y-77583803D01*
X40305695Y-77583806D01*
X40143806Y-77745695D01*
X40012476Y-77933252D01*
X40012474Y-77933256D01*
X39987691Y-77986402D01*
X39941518Y-78038841D01*
X39874324Y-78057992D01*
X39807444Y-78037775D01*
X39762927Y-77986399D01*
X39740133Y-77937517D01*
X39609657Y-77751179D01*
X39448820Y-77590342D01*
X39262482Y-77459865D01*
X39056328Y-77363734D01*
X38860000Y-77311127D01*
X38860000Y-78079424D01*
X38840315Y-78146463D01*
X38787511Y-78192218D01*
X38718353Y-78202162D01*
X38716602Y-78201897D01*
X38641486Y-78190000D01*
X38641481Y-78190000D01*
X38578519Y-78190000D01*
X38578514Y-78190000D01*
X38503398Y-78201897D01*
X38434104Y-78192942D01*
X38380652Y-78147946D01*
X38360013Y-78081194D01*
X38360000Y-78079424D01*
X38360000Y-77311127D01*
X38163671Y-77363734D01*
X37957517Y-77459865D01*
X37771179Y-77590342D01*
X37610342Y-77751179D01*
X37479865Y-77937517D01*
X37383734Y-78143673D01*
X37383730Y-78143682D01*
X37331127Y-78339999D01*
X37331128Y-78340000D01*
X38099424Y-78340000D01*
X38166463Y-78359685D01*
X38212218Y-78412489D01*
X38222162Y-78481647D01*
X38221897Y-78483397D01*
X38205014Y-78589996D01*
X38205014Y-78590003D01*
X38221897Y-78696603D01*
X38212942Y-78765896D01*
X38167946Y-78819348D01*
X38101194Y-78839987D01*
X38099424Y-78840000D01*
X37331128Y-78840000D01*
X37383730Y-79036317D01*
X37383734Y-79036326D01*
X37479865Y-79242482D01*
X37610342Y-79428820D01*
X37771179Y-79589657D01*
X37957517Y-79720134D01*
X38163673Y-79816265D01*
X38163682Y-79816269D01*
X38359999Y-79868872D01*
X38360000Y-79868871D01*
X38360000Y-79100575D01*
X38379685Y-79033536D01*
X38432489Y-78987781D01*
X38501647Y-78977837D01*
X38503331Y-78978091D01*
X38535699Y-78983218D01*
X38578515Y-78990000D01*
X38578519Y-78990000D01*
X38641485Y-78990000D01*
X38684300Y-78983218D01*
X38716602Y-78978102D01*
X38785894Y-78987056D01*
X38839347Y-79032052D01*
X38859987Y-79098803D01*
X38860000Y-79100575D01*
X38860000Y-79868872D01*
X39056317Y-79816269D01*
X39056326Y-79816265D01*
X39262482Y-79720134D01*
X39448820Y-79589657D01*
X39609657Y-79428820D01*
X39740133Y-79242483D01*
X39762927Y-79193600D01*
X39809098Y-79141160D01*
X39876292Y-79122007D01*
X39943173Y-79142221D01*
X39987691Y-79193596D01*
X40012477Y-79246749D01*
X40143802Y-79434300D01*
X40305700Y-79596198D01*
X40493251Y-79727523D01*
X40567010Y-79761917D01*
X40700750Y-79824281D01*
X40700752Y-79824281D01*
X40700757Y-79824284D01*
X40921913Y-79883543D01*
X41084832Y-79897796D01*
X41149998Y-79903498D01*
X41150000Y-79903498D01*
X41150002Y-79903498D01*
X41181614Y-79900732D01*
X41378087Y-79883543D01*
X41426881Y-79870468D01*
X41496730Y-79872129D01*
X41546657Y-79902561D01*
X45140210Y-83496114D01*
X45150116Y-83508478D01*
X45150326Y-83508305D01*
X45155301Y-83514319D01*
X45206395Y-83562300D01*
X45227524Y-83583429D01*
X45227528Y-83583432D01*
X45227531Y-83583435D01*
X45233105Y-83587758D01*
X45237547Y-83591552D01*
X45271979Y-83623886D01*
X45271983Y-83623889D01*
X45289863Y-83633718D01*
X45306127Y-83644401D01*
X45322260Y-83656914D01*
X45365601Y-83675669D01*
X45370850Y-83678241D01*
X45390927Y-83689278D01*
X45412240Y-83700995D01*
X45432018Y-83706073D01*
X45450419Y-83712373D01*
X45469155Y-83720481D01*
X45510481Y-83727026D01*
X45515803Y-83727869D01*
X45521512Y-83729051D01*
X45567270Y-83740800D01*
X45587684Y-83740800D01*
X45607083Y-83742327D01*
X45627243Y-83745520D01*
X45674265Y-83741075D01*
X45680104Y-83740800D01*
X50578791Y-83740800D01*
X50645830Y-83760485D01*
X50670940Y-83781827D01*
X50674847Y-83786166D01*
X50829348Y-83898418D01*
X51003812Y-83976094D01*
X51190613Y-84015800D01*
X51381587Y-84015800D01*
X51568388Y-83976094D01*
X51742852Y-83898418D01*
X51897353Y-83786166D01*
X51918800Y-83762345D01*
X51978286Y-83725697D01*
X52048143Y-83727026D01*
X52098632Y-83757636D01*
X56990181Y-88649185D01*
X57023666Y-88710508D01*
X57026500Y-88736866D01*
X57026500Y-92488394D01*
X57006815Y-92555433D01*
X56954011Y-92601188D01*
X56884853Y-92611132D01*
X56850101Y-92600779D01*
X56849088Y-92600307D01*
X56839243Y-92595716D01*
X56790831Y-92582744D01*
X56618089Y-92536457D01*
X56618081Y-92536456D01*
X56390002Y-92516502D01*
X56389998Y-92516502D01*
X56161918Y-92536456D01*
X56161910Y-92536457D01*
X55940761Y-92595714D01*
X55940750Y-92595718D01*
X55733254Y-92692475D01*
X55733252Y-92692476D01*
X55675260Y-92733083D01*
X55545700Y-92823802D01*
X55545698Y-92823803D01*
X55545695Y-92823806D01*
X55383806Y-92985695D01*
X55383803Y-92985698D01*
X55383802Y-92985700D01*
X55347150Y-93038045D01*
X55252476Y-93173252D01*
X55232380Y-93216347D01*
X55186207Y-93268785D01*
X55119013Y-93287936D01*
X55052132Y-93267719D01*
X55007618Y-93216345D01*
X54987523Y-93173251D01*
X54856198Y-92985700D01*
X54694300Y-92823802D01*
X54506749Y-92692477D01*
X54506745Y-92692475D01*
X54299249Y-92595718D01*
X54299238Y-92595714D01*
X54078089Y-92536457D01*
X54078081Y-92536456D01*
X53850002Y-92516502D01*
X53849998Y-92516502D01*
X53621918Y-92536456D01*
X53621910Y-92536457D01*
X53400761Y-92595714D01*
X53400750Y-92595718D01*
X53193254Y-92692475D01*
X53193252Y-92692476D01*
X53135260Y-92733083D01*
X53005700Y-92823802D01*
X53005698Y-92823803D01*
X53005695Y-92823806D01*
X52843806Y-92985695D01*
X52843803Y-92985698D01*
X52843802Y-92985700D01*
X52807150Y-93038045D01*
X52712476Y-93173252D01*
X52692380Y-93216347D01*
X52646207Y-93268785D01*
X52579013Y-93287936D01*
X52512132Y-93267719D01*
X52467618Y-93216345D01*
X52447523Y-93173251D01*
X52316198Y-92985700D01*
X52154300Y-92823802D01*
X51966749Y-92692477D01*
X51966745Y-92692475D01*
X51759249Y-92595718D01*
X51759238Y-92595714D01*
X51538089Y-92536457D01*
X51538081Y-92536456D01*
X51310002Y-92516502D01*
X51309998Y-92516502D01*
X51081918Y-92536456D01*
X51081910Y-92536457D01*
X50860761Y-92595714D01*
X50860750Y-92595718D01*
X50653254Y-92692475D01*
X50653252Y-92692476D01*
X50595260Y-92733083D01*
X50465700Y-92823802D01*
X50465698Y-92823803D01*
X50465695Y-92823806D01*
X50303806Y-92985695D01*
X50303803Y-92985698D01*
X50303802Y-92985700D01*
X50267150Y-93038044D01*
X50172476Y-93173251D01*
X50152382Y-93216345D01*
X50106209Y-93268784D01*
X50039016Y-93287936D01*
X49972135Y-93267720D01*
X49927618Y-93216345D01*
X49907523Y-93173251D01*
X49891572Y-93150471D01*
X49776198Y-92985700D01*
X49614300Y-92823802D01*
X49426749Y-92692477D01*
X49426745Y-92692475D01*
X49219249Y-92595718D01*
X49219238Y-92595714D01*
X48998089Y-92536457D01*
X48998081Y-92536456D01*
X48770002Y-92516502D01*
X48769998Y-92516502D01*
X48541918Y-92536456D01*
X48541910Y-92536457D01*
X48320761Y-92595714D01*
X48320750Y-92595718D01*
X48113254Y-92692475D01*
X48113252Y-92692476D01*
X48055260Y-92733083D01*
X47925700Y-92823802D01*
X47925698Y-92823803D01*
X47925695Y-92823806D01*
X47763806Y-92985695D01*
X47763803Y-92985698D01*
X47763802Y-92985700D01*
X47727150Y-93038044D01*
X47632476Y-93173251D01*
X47612382Y-93216345D01*
X47566209Y-93268784D01*
X47499016Y-93287936D01*
X47432135Y-93267720D01*
X47387618Y-93216345D01*
X47367523Y-93173251D01*
X47351572Y-93150471D01*
X47236198Y-92985700D01*
X47074300Y-92823802D01*
X46886749Y-92692477D01*
X46886745Y-92692475D01*
X46679249Y-92595718D01*
X46679238Y-92595714D01*
X46458089Y-92536457D01*
X46458081Y-92536456D01*
X46230002Y-92516502D01*
X46229998Y-92516502D01*
X46001918Y-92536456D01*
X46001910Y-92536457D01*
X45780761Y-92595714D01*
X45780750Y-92595718D01*
X45573254Y-92692475D01*
X45573252Y-92692476D01*
X45515260Y-92733083D01*
X45385700Y-92823802D01*
X45385698Y-92823803D01*
X45385695Y-92823806D01*
X45223806Y-92985695D01*
X45223803Y-92985698D01*
X45223802Y-92985700D01*
X45187150Y-93038044D01*
X45092476Y-93173251D01*
X45072382Y-93216345D01*
X45026209Y-93268784D01*
X44959016Y-93287936D01*
X44892135Y-93267720D01*
X44847618Y-93216345D01*
X44827523Y-93173251D01*
X44811572Y-93150471D01*
X44696198Y-92985700D01*
X44534300Y-92823802D01*
X44346749Y-92692477D01*
X44346745Y-92692475D01*
X44139249Y-92595718D01*
X44139238Y-92595714D01*
X43918089Y-92536457D01*
X43918081Y-92536456D01*
X43690002Y-92516502D01*
X43689998Y-92516502D01*
X43461918Y-92536456D01*
X43461910Y-92536457D01*
X43240761Y-92595714D01*
X43240750Y-92595718D01*
X43033254Y-92692475D01*
X43033252Y-92692476D01*
X42975260Y-92733083D01*
X42845700Y-92823802D01*
X42845698Y-92823803D01*
X42845695Y-92823806D01*
X42683806Y-92985695D01*
X42683803Y-92985698D01*
X42683802Y-92985700D01*
X42647150Y-93038044D01*
X42552476Y-93173251D01*
X42532382Y-93216345D01*
X42486209Y-93268784D01*
X42419016Y-93287936D01*
X42352135Y-93267720D01*
X42307618Y-93216345D01*
X42287523Y-93173251D01*
X42271572Y-93150471D01*
X42156198Y-92985700D01*
X41994300Y-92823802D01*
X41806749Y-92692477D01*
X41806745Y-92692475D01*
X41599249Y-92595718D01*
X41599238Y-92595714D01*
X41378089Y-92536457D01*
X41378081Y-92536456D01*
X41150002Y-92516502D01*
X41149998Y-92516502D01*
X40921918Y-92536456D01*
X40921910Y-92536457D01*
X40700761Y-92595714D01*
X40700750Y-92595718D01*
X40493254Y-92692475D01*
X40493252Y-92692476D01*
X40435260Y-92733083D01*
X40305700Y-92823802D01*
X40305698Y-92823803D01*
X40305695Y-92823806D01*
X40143806Y-92985695D01*
X40143803Y-92985698D01*
X40143802Y-92985700D01*
X40107150Y-93038044D01*
X40012476Y-93173251D01*
X39992382Y-93216345D01*
X39946209Y-93268784D01*
X39879016Y-93287936D01*
X39812135Y-93267720D01*
X39767618Y-93216345D01*
X39747523Y-93173251D01*
X39731572Y-93150471D01*
X39616198Y-92985700D01*
X39454300Y-92823802D01*
X39266749Y-92692477D01*
X39266745Y-92692475D01*
X39059249Y-92595718D01*
X39059238Y-92595714D01*
X38838089Y-92536457D01*
X38838081Y-92536456D01*
X38610002Y-92516502D01*
X38609998Y-92516502D01*
X38381918Y-92536456D01*
X38381910Y-92536457D01*
X38160761Y-92595714D01*
X38160750Y-92595718D01*
X37953254Y-92692475D01*
X37953252Y-92692476D01*
X37895260Y-92733083D01*
X37765700Y-92823802D01*
X37765698Y-92823803D01*
X37765695Y-92823806D01*
X37603806Y-92985695D01*
X37603803Y-92985698D01*
X37603802Y-92985700D01*
X37567150Y-93038045D01*
X37472476Y-93173252D01*
X37472475Y-93173254D01*
X37375718Y-93380750D01*
X37375714Y-93380761D01*
X37316457Y-93601910D01*
X37316456Y-93601918D01*
X37296502Y-93829998D01*
X37296502Y-93830001D01*
X35103300Y-93830001D01*
X35103300Y-52525000D01*
X36869935Y-52525000D01*
X36890185Y-52937176D01*
X36950735Y-53345373D01*
X37051007Y-53745676D01*
X37190019Y-54134189D01*
X37190027Y-54134209D01*
X37366466Y-54507257D01*
X37578614Y-54861206D01*
X37824441Y-55192664D01*
X37933478Y-55312967D01*
X39504712Y-53741733D01*
X39566035Y-53708248D01*
X39635727Y-53713232D01*
X39687705Y-53750094D01*
X39739616Y-53812472D01*
X39853804Y-53914784D01*
X39890595Y-53974178D01*
X39889436Y-54044038D01*
X39858736Y-54094815D01*
X38287031Y-55666520D01*
X38407335Y-55775558D01*
X38738793Y-56021385D01*
X39092742Y-56233533D01*
X39465790Y-56409972D01*
X39465810Y-56409980D01*
X39854323Y-56548992D01*
X40254626Y-56649264D01*
X40662823Y-56709814D01*
X41075000Y-56730064D01*
X41487176Y-56709814D01*
X41895373Y-56649264D01*
X42295676Y-56548992D01*
X42684189Y-56409980D01*
X42684209Y-56409972D01*
X43057257Y-56233533D01*
X43411206Y-56021385D01*
X43742670Y-55775554D01*
X43862967Y-55666521D01*
X43862967Y-55666519D01*
X42294085Y-54097638D01*
X42260600Y-54036315D01*
X42265584Y-53966623D01*
X42305981Y-53911811D01*
X42312842Y-53906514D01*
X42469262Y-53744271D01*
X42529962Y-53709674D01*
X42599733Y-53713384D01*
X42646210Y-53742657D01*
X44216519Y-55312967D01*
X44216521Y-55312967D01*
X44325554Y-55192670D01*
X44571385Y-54861206D01*
X44783533Y-54507257D01*
X44959972Y-54134209D01*
X44959980Y-54134189D01*
X45098992Y-53745676D01*
X45199264Y-53345373D01*
X45259814Y-52937176D01*
X45280064Y-52525000D01*
X45259814Y-52112823D01*
X45199264Y-51704626D01*
X45098992Y-51304323D01*
X44959980Y-50915810D01*
X44959972Y-50915790D01*
X44783533Y-50542742D01*
X44571385Y-50188793D01*
X44325558Y-49857335D01*
X44216520Y-49737031D01*
X42645286Y-51308265D01*
X42583963Y-51341750D01*
X42514271Y-51336766D01*
X42462292Y-51299902D01*
X42410386Y-51237529D01*
X42410385Y-51237528D01*
X42296196Y-51135216D01*
X42259403Y-51075820D01*
X42260562Y-51005960D01*
X42291262Y-50955183D01*
X43862967Y-49383478D01*
X43742664Y-49274441D01*
X43411206Y-49028614D01*
X43057257Y-48816466D01*
X42684209Y-48640027D01*
X42684189Y-48640019D01*
X42295676Y-48501007D01*
X41895373Y-48400735D01*
X41487176Y-48340185D01*
X41075000Y-48319935D01*
X40662823Y-48340185D01*
X40254626Y-48400735D01*
X39854323Y-48501007D01*
X39465810Y-48640019D01*
X39465790Y-48640027D01*
X39092742Y-48816466D01*
X38738793Y-49028614D01*
X38407329Y-49274445D01*
X38287031Y-49383477D01*
X38287031Y-49383478D01*
X39855914Y-50952361D01*
X39889399Y-51013684D01*
X39884415Y-51083376D01*
X39844020Y-51138186D01*
X39837165Y-51143479D01*
X39837160Y-51143483D01*
X39680739Y-51305727D01*
X39620038Y-51340327D01*
X39550267Y-51336616D01*
X39503790Y-51307343D01*
X37933478Y-49737031D01*
X37933477Y-49737031D01*
X37824445Y-49857329D01*
X37578614Y-50188793D01*
X37366466Y-50542742D01*
X37190027Y-50915790D01*
X37190019Y-50915810D01*
X37051007Y-51304323D01*
X36950735Y-51704626D01*
X36890185Y-52112823D01*
X36869935Y-52525000D01*
X35103300Y-52525000D01*
X35103300Y-46655091D01*
X35122985Y-46588052D01*
X35175789Y-46542297D01*
X35227300Y-46531091D01*
X42216413Y-46531091D01*
X42283452Y-46550776D01*
G37*
%TD.AperFunction*%
%TD*%
M02*
