M48
; DRILL file {KiCad 7.0.7} date Tue Nov 28 10:30:50 2023
; FORMAT={-:-/ absolute / inch / decimal}
; #@! TF.CreationDate,2023-11-28T10:30:50+00:00
; #@! TF.GenerationSoftware,Kicad,Pcbnew,7.0.7
; #@! TF.FileFunction,Plated,1,2,PTH
FMAT,2
INCH
; #@! TA.AperFunction,Plated,PTH,ViaDrill
T1C0.0157
; #@! TA.AperFunction,Plated,PTH,ComponentDrill
T2C0.0276
; #@! TA.AperFunction,Plated,PTH,ComponentDrill
T3C0.0315
; #@! TA.AperFunction,Plated,PTH,ComponentDrill
T4C0.0354
; #@! TA.AperFunction,Plated,PTH,ComponentDrill
T5C0.0394
; #@! TA.AperFunction,Plated,PTH,ComponentDrill
T6C0.1457
%
G90
G05
T1
X1.7823Y-4.1061
X1.838Y-3.1592
X1.8703Y-3.1927
X1.9256Y-3.1673
X2.0191Y-3.2719
X2.1679Y-3.1357
X2.1687Y-4.3634
X2.3099Y-4.2515
X2.3485Y-4.1874
X2.4725Y-3.7514
X2.7113Y-4.1825
X2.8474Y-4.0321
X2.9158Y-4.3044
X2.9563Y-3.7404
X3.5506Y-3.8367
X3.613Y-3.7523
X3.6481Y-4.1904
X3.7047Y-3.8283
X3.7286Y-3.1007
X4.1787Y-4.2665
T2
X2.722Y-3.9449
X2.722Y-4.0303
X3.022Y-3.9449
X3.022Y-4.0303
X3.4399Y-3.9002
X3.4399Y-3.9848
X3.7399Y-3.9002
X3.7399Y-3.9848
X3.8051Y-3.426
X3.8051Y-3.511
X4.1051Y-3.426
X4.1051Y-3.511
T3
X1.5201Y-3.0941
X1.5201Y-3.6941
X1.526Y-2.9673
X1.6201Y-3.0941
X1.6201Y-3.6941
X1.626Y-2.9673
X1.7201Y-3.0941
X1.7201Y-3.6941
X1.726Y-2.9673
X1.7272Y-4.0776
X1.7272Y-4.1602
X1.7272Y-4.2626
X1.7272Y-4.3453
X1.8201Y-3.0941
X1.8201Y-3.6941
X1.826Y-2.9673
X1.8374Y-4.0776
X1.8374Y-4.3453
X1.9201Y-3.0941
X1.9201Y-3.6941
X1.926Y-2.9673
X2.0201Y-3.0941
X2.0201Y-3.6941
X2.026Y-2.9673
X2.0539Y-4.122
X2.0539Y-4.422
X2.1201Y-3.0941
X2.1201Y-3.6941
X2.126Y-2.9673
X2.1539Y-4.122
X2.1539Y-4.422
X2.1827Y-4.0276
X2.2201Y-3.0941
X2.2201Y-3.6941
X2.226Y-2.9673
X2.2299Y-3.8709
X2.2539Y-4.122
X2.2539Y-4.422
X2.2811Y-4.0276
X2.3201Y-3.0941
X2.3201Y-3.6941
X2.326Y-2.9673
X2.3539Y-4.122
X2.3539Y-4.422
X2.3685Y-4.0276
X2.4201Y-3.0941
X2.4201Y-3.6941
X2.422Y-3.8709
X2.4539Y-4.122
X2.4539Y-4.422
X2.4669Y-4.0276
X2.5201Y-3.0941
X2.5201Y-3.6941
X2.5539Y-4.122
X2.5539Y-4.422
X2.6201Y-3.0941
X2.6201Y-3.6941
X2.6539Y-4.122
X2.6539Y-4.422
X2.6957Y-3.828
X2.7201Y-3.0941
X2.7201Y-3.6941
X2.7539Y-4.122
X2.7539Y-4.422
X2.8201Y-3.0941
X2.8201Y-3.6941
X2.8539Y-4.122
X2.8539Y-4.422
X2.8925Y-3.828
X2.9201Y-3.0941
X2.9201Y-3.6941
X2.9539Y-4.122
X2.9539Y-4.422
X3.0201Y-3.0941
X3.0201Y-3.6941
X3.0217Y-3.8287
X3.0539Y-4.122
X3.0539Y-4.422
X3.1201Y-3.0941
X3.1201Y-3.6941
X3.1539Y-4.122
X3.1539Y-4.422
X3.2185Y-3.8287
X3.2201Y-3.0941
X3.2201Y-3.6941
X3.2539Y-4.122
X3.2539Y-4.422
X3.3201Y-3.0941
X3.3201Y-3.6941
X3.3539Y-4.122
X3.3539Y-4.422
X3.4201Y-3.0941
X3.4201Y-3.6941
X3.5246Y-4.122
X3.5246Y-4.422
X3.5941Y-3.6535
X3.6246Y-4.122
X3.6246Y-4.422
X3.6728Y-3.6535
X3.7246Y-4.122
X3.7246Y-4.422
X3.8246Y-4.122
X3.8246Y-4.422
X3.9246Y-4.122
X3.9246Y-4.422
X4.005Y-3.93
X4.0246Y-4.122
X4.0246Y-4.422
X4.105Y-3.93
X4.1246Y-4.122
X4.1246Y-4.422
X4.205Y-3.93
X4.2246Y-4.122
X4.2246Y-4.422
T4
X3.7722Y-3.1744
X3.8722Y-3.1744
X4.0016Y-3.1744
X4.1016Y-3.1744
T5
X2.0402Y-4.5693
X2.0402Y-4.6693
X2.1402Y-4.5693
X2.1402Y-4.6693
X2.2402Y-4.5693
X2.2402Y-4.6693
X2.4612Y-4.5689
X2.5612Y-4.5689
X2.715Y-4.5689
X2.815Y-4.5689
X2.915Y-4.5689
X3.015Y-4.5689
X3.115Y-4.5689
X3.215Y-4.5689
X3.315Y-4.5689
X3.415Y-4.5689
X3.515Y-4.5689
X3.615Y-4.5689
X3.715Y-4.5689
X3.815Y-4.5689
X3.915Y-4.5689
X4.015Y-4.5689
X4.115Y-4.5689
T6
X1.6171Y-2.0679
T5
G00X1.5835Y-4.2508
M15
G01X1.5835Y-4.172
M16
G05
G00X1.5854Y-3.9417
M15
G01X1.6445Y-3.9417
M16
G05
G00X1.5854Y-4.4811
M15
G01X1.6445Y-4.4811
M16
G05
T0
M30
