%TF.GenerationSoftware,KiCad,Pcbnew,7.0.7*%
%TF.CreationDate,2023-11-28T10:30:52+00:00*%
%TF.ProjectId,Lynx-PS2,4c796e78-2d50-4533-922e-6b696361645f,rev?*%
%TF.SameCoordinates,Original*%
%TF.FileFunction,Soldermask,Bot*%
%TF.FilePolarity,Negative*%
%FSLAX46Y46*%
G04 Gerber Fmt 4.6, Leading zero omitted, Abs format (unit mm)*
G04 Created by KiCad (PCBNEW 7.0.7) date 2023-11-28 10:30:52*
%MOMM*%
%LPD*%
G01*
G04 APERTURE LIST*
%ADD10C,1.600000*%
%ADD11C,1.400000*%
%ADD12O,1.400000X1.400000*%
%ADD13R,1.700000X1.700000*%
%ADD14O,1.700000X1.700000*%
%ADD15C,7.400000*%
%ADD16R,1.800000X1.800000*%
%ADD17C,1.800000*%
%ADD18R,1.500000X1.500000*%
%ADD19C,1.500000*%
%ADD20R,1.600000X1.600000*%
%ADD21O,1.600000X1.600000*%
%ADD22O,3.500000X2.000000*%
%ADD23O,2.000000X4.000000*%
G04 APERTURE END LIST*
D10*
%TO.C,C4*%
X62660000Y-102300000D03*
X60160000Y-102300000D03*
%TD*%
D11*
%TO.C,R17*%
X104270000Y-89180000D03*
D12*
X96650000Y-89180000D03*
%TD*%
D13*
%TO.C,J800*%
X51820000Y-118600000D03*
D14*
X51820000Y-116060000D03*
X54360000Y-118600000D03*
X54360000Y-116060000D03*
X56900000Y-118600000D03*
X56900000Y-116060000D03*
%TD*%
D10*
%TO.C,C1*%
X76750000Y-97250000D03*
X81750000Y-97250000D03*
%TD*%
D11*
%TO.C,R10*%
X69140000Y-102370000D03*
D12*
X76760000Y-102370000D03*
%TD*%
D15*
%TO.C,H1*%
X41075000Y-52525000D03*
%TD*%
D16*
%TO.C,D18*%
X95815000Y-80630000D03*
D17*
X98355000Y-80630000D03*
%TD*%
D18*
%TO.C,Q1*%
X101727000Y-99822000D03*
D19*
X104267000Y-99822000D03*
X106807000Y-99822000D03*
%TD*%
D11*
%TO.C,R9*%
X94994000Y-99064000D03*
D12*
X87374000Y-99064000D03*
%TD*%
D16*
%TO.C,D19*%
X101640000Y-80630000D03*
D17*
X104180000Y-80630000D03*
%TD*%
D13*
%TO.C,J1*%
X65055000Y-116050000D03*
D14*
X62515000Y-116050000D03*
%TD*%
D11*
%TO.C,R15*%
X69140000Y-100200000D03*
D12*
X76760000Y-100200000D03*
%TD*%
D11*
%TO.C,R16*%
X87374000Y-101214000D03*
D12*
X94994000Y-101214000D03*
%TD*%
D20*
%TO.C,RN1*%
X59080000Y-75370000D03*
D21*
X56540000Y-75370000D03*
X54000000Y-75370000D03*
X51460000Y-75370000D03*
X48920000Y-75370000D03*
X46380000Y-75370000D03*
X43840000Y-75370000D03*
X41300000Y-75370000D03*
X38760000Y-75370000D03*
%TD*%
D20*
%TO.C,C2*%
X91290000Y-92800000D03*
D10*
X93290000Y-92800000D03*
%TD*%
D20*
%TO.C,U3*%
X107305000Y-104700000D03*
D21*
X104765000Y-104700000D03*
X102225000Y-104700000D03*
X99685000Y-104700000D03*
X97145000Y-104700000D03*
X94605000Y-104700000D03*
X92065000Y-104700000D03*
X89525000Y-104700000D03*
X89525000Y-112320000D03*
X92065000Y-112320000D03*
X94605000Y-112320000D03*
X97145000Y-112320000D03*
X99685000Y-112320000D03*
X102225000Y-112320000D03*
X104765000Y-112320000D03*
X107305000Y-112320000D03*
%TD*%
D20*
%TO.C,U4*%
X85190000Y-104700000D03*
D21*
X82650000Y-104700000D03*
X80110000Y-104700000D03*
X77570000Y-104700000D03*
X75030000Y-104700000D03*
X72490000Y-104700000D03*
X69950000Y-104700000D03*
X67410000Y-104700000D03*
X64870000Y-104700000D03*
X62330000Y-104700000D03*
X59790000Y-104700000D03*
X57250000Y-104700000D03*
X54710000Y-104700000D03*
X52170000Y-104700000D03*
X52170000Y-112320000D03*
X54710000Y-112320000D03*
X57250000Y-112320000D03*
X59790000Y-112320000D03*
X62330000Y-112320000D03*
X64870000Y-112320000D03*
X67410000Y-112320000D03*
X69950000Y-112320000D03*
X72490000Y-112320000D03*
X75030000Y-112320000D03*
X77570000Y-112320000D03*
X80110000Y-112320000D03*
X82650000Y-112320000D03*
X85190000Y-112320000D03*
%TD*%
D10*
%TO.C,C5*%
X68470000Y-97230000D03*
X73470000Y-97230000D03*
%TD*%
D13*
%TO.C,PL1*%
X104521000Y-116050000D03*
D14*
X101981000Y-116050000D03*
X99441000Y-116050000D03*
X96901000Y-116050000D03*
X94361000Y-116050000D03*
X91821000Y-116050000D03*
X89281000Y-116050000D03*
X86741000Y-116050000D03*
X84201000Y-116050000D03*
X81661000Y-116050000D03*
X79121000Y-116050000D03*
X76581000Y-116050000D03*
X74041000Y-116050000D03*
X71501000Y-116050000D03*
X68961000Y-116050000D03*
%TD*%
D10*
%TO.C,C3*%
X57940000Y-102300000D03*
X55440000Y-102300000D03*
%TD*%
D19*
%TO.C,Y1*%
X56640000Y-98320000D03*
X61520000Y-98320000D03*
%TD*%
D11*
%TO.C,R18*%
X96650000Y-87020000D03*
D12*
X104270000Y-87020000D03*
%TD*%
D20*
%TO.C,U1*%
X86870000Y-78590000D03*
D21*
X84330000Y-78590000D03*
X81790000Y-78590000D03*
X79250000Y-78590000D03*
X76710000Y-78590000D03*
X74170000Y-78590000D03*
X71630000Y-78590000D03*
X69090000Y-78590000D03*
X66550000Y-78590000D03*
X64010000Y-78590000D03*
X61470000Y-78590000D03*
X58930000Y-78590000D03*
X56390000Y-78590000D03*
X53850000Y-78590000D03*
X51310000Y-78590000D03*
X48770000Y-78590000D03*
X46230000Y-78590000D03*
X43690000Y-78590000D03*
X41150000Y-78590000D03*
X38610000Y-78590000D03*
X38610000Y-93830000D03*
X41150000Y-93830000D03*
X43690000Y-93830000D03*
X46230000Y-93830000D03*
X48770000Y-93830000D03*
X51310000Y-93830000D03*
X53850000Y-93830000D03*
X56390000Y-93830000D03*
X58930000Y-93830000D03*
X61470000Y-93830000D03*
X64010000Y-93830000D03*
X66550000Y-93830000D03*
X69090000Y-93830000D03*
X71630000Y-93830000D03*
X74170000Y-93830000D03*
X76710000Y-93830000D03*
X79250000Y-93830000D03*
X81790000Y-93830000D03*
X84330000Y-93830000D03*
X86870000Y-93830000D03*
%TD*%
D20*
%TO.C,J3*%
X43870000Y-105670000D03*
D10*
X43870000Y-108270000D03*
X43870000Y-103570000D03*
X43870000Y-110370000D03*
X46670000Y-103570000D03*
X46670000Y-110370000D03*
D22*
X41020000Y-113820000D03*
D23*
X40220000Y-106970000D03*
D22*
X41020000Y-100120000D03*
%TD*%
M02*
