M48
; DRILL file {KiCad 7.0.7} date Sun Jan 28 23:49:51 2024
; FORMAT={-:-/ absolute / inch / decimal}
; #@! TF.CreationDate,2024-01-28T23:49:51+00:00
; #@! TF.GenerationSoftware,Kicad,Pcbnew,7.0.7
; #@! TF.FileFunction,Plated,1,2,PTH
FMAT,2
INCH
; #@! TA.AperFunction,Plated,PTH,ViaDrill
T1C0.0157
; #@! TA.AperFunction,Plated,PTH,ComponentDrill
T2C0.0276
; #@! TA.AperFunction,Plated,PTH,ComponentDrill
T3C0.0315
; #@! TA.AperFunction,Plated,PTH,ComponentDrill
T4C0.0354
; #@! TA.AperFunction,Plated,PTH,ComponentDrill
T5C0.0394
; #@! TA.AperFunction,Plated,PTH,ComponentDrill
T6C0.0472
; #@! TA.AperFunction,Plated,PTH,ComponentDrill
T7C0.0591
%
G90
G05
T1
X1.6697Y-3.0315
T2
X13.1913Y-3.3744
X13.1913Y-3.6744
T3
X1.9331Y-5.1213
X2.0331Y-5.1213
X2.1331Y-5.1213
X2.2331Y-5.1213
X2.3331Y-5.1213
X2.4331Y-5.1213
X2.5331Y-5.1213
X2.6331Y-5.1213
X2.7331Y-5.1213
X2.8331Y-5.1213
X11.3098Y-4.9028
X11.3098Y-5.2028
X11.4098Y-4.9028
X11.4098Y-5.2028
X11.5098Y-4.9028
X11.5098Y-5.2028
X11.6098Y-4.9028
X11.6098Y-5.2028
X11.7098Y-4.9028
X11.7098Y-5.2028
X11.8098Y-4.9028
X11.8098Y-5.2028
X11.9098Y-4.9028
X11.9098Y-5.2028
X12.0098Y-4.9028
X12.0098Y-5.2028
X12.2516Y-4.9539
X12.2516Y-5.1508
T4
X12.937Y-1.9957
X13.037Y-1.9957
T5
X1.8335Y-5.3799
X1.9335Y-5.3799
X2.0335Y-5.3799
X2.1335Y-5.3799
X2.2335Y-5.3799
X2.3335Y-5.3799
X2.4335Y-5.3799
X2.5335Y-5.3799
X2.6335Y-5.3799
X2.7335Y-5.3799
X2.8335Y-5.3799
X2.9335Y-5.3799
X3.0335Y-5.3799
X3.1335Y-5.3799
X3.2335Y-5.3799
T6
X12.5138Y-5.0438
X13.2224Y-5.0438
T7
X1.813Y-4.222
X1.998Y-3.474
X2.063Y-4.122
X2.1752Y-1.978
X2.248Y-3.374
X2.3642Y-2.726
X2.4252Y-1.878
X2.6142Y-2.626
X2.7461Y-3.474
X2.9232Y-1.978
X2.939Y-4.222
X2.9961Y-3.374
X3.1732Y-1.878
X3.189Y-4.122
X3.3012Y-2.726
X3.4941Y-3.474
X3.5512Y-2.626
X3.6713Y-1.978
X3.7441Y-3.374
X3.876Y-4.222
X3.9213Y-1.878
X4.0492Y-2.726
X4.126Y-4.122
X4.2421Y-3.474
X4.2992Y-2.626
X4.4193Y-1.978
X4.4921Y-3.374
X4.624Y-4.222
X4.6693Y-1.878
X4.7972Y-2.726
X4.874Y-4.122
X4.9902Y-3.474
X5.0472Y-2.626
X5.1673Y-1.978
X5.2402Y-3.374
X5.372Y-4.222
X5.4173Y-1.878
X5.5453Y-2.726
X5.622Y-4.122
X5.6673Y-4.9701
X5.7382Y-3.474
X5.7953Y-2.626
X5.9154Y-1.978
X5.9173Y-4.8701
X5.9882Y-3.374
X6.1201Y-4.222
X6.1654Y-1.878
X6.2933Y-2.726
X6.3701Y-4.122
X6.4862Y-3.474
X6.5433Y-2.626
X6.6634Y-1.978
X6.7362Y-3.374
X6.8681Y-4.222
X6.9134Y-1.878
X7.0413Y-2.726
X7.1181Y-4.122
X7.2343Y-3.474
X7.2421Y-4.9701
X7.2913Y-2.626
X7.4114Y-1.978
X7.4843Y-3.374
X7.4921Y-4.8701
X7.6161Y-4.222
X7.6614Y-1.878
X7.7894Y-2.726
X7.8661Y-4.122
X7.9823Y-3.474
X8.0394Y-2.626
X8.1594Y-1.978
X8.2323Y-3.374
X8.3642Y-4.222
X8.4094Y-1.878
X8.5374Y-2.726
X8.6142Y-4.122
X8.7303Y-3.474
X8.7874Y-2.626
X8.8169Y-4.9701
X8.9075Y-1.978
X8.9803Y-3.374
X9.0669Y-4.8701
X9.1122Y-4.222
X9.1575Y-1.878
X9.2854Y-2.726
X9.3622Y-4.122
X9.4783Y-3.474
X9.5354Y-2.626
X9.6555Y-1.978
X9.7283Y-3.374
X9.8602Y-4.222
X9.9055Y-1.878
X10.0335Y-2.726
X10.1102Y-4.122
X10.2264Y-3.474
X10.2835Y-2.626
X10.4035Y-1.978
X10.4764Y-3.374
X10.6083Y-4.222
X10.6535Y-1.878
X10.7815Y-2.726
X10.8583Y-4.122
X10.9744Y-3.474
X11.0315Y-2.626
X11.1516Y-1.978
X11.2244Y-3.374
X11.4016Y-1.878
X11.5295Y-2.726
X11.5453Y-4.222
X11.7224Y-3.474
X11.7795Y-2.626
X11.7953Y-4.122
X11.9724Y-3.374
X12.0886Y-1.978
X12.2776Y-2.726
X12.3386Y-1.878
X12.4705Y-3.474
X12.5276Y-2.626
X12.6713Y-4.222
X12.7205Y-3.374
X12.9213Y-4.122
T0
M30
