%TF.GenerationSoftware,KiCad,Pcbnew,7.0.7*%
%TF.CreationDate,2024-01-28T23:49:53+00:00*%
%TF.ProjectId,Lynx-Keyboard,4c796e78-2d4b-4657-9962-6f6172642e6b,rev?*%
%TF.SameCoordinates,Original*%
%TF.FileFunction,Soldermask,Top*%
%TF.FilePolarity,Negative*%
%FSLAX46Y46*%
G04 Gerber Fmt 4.6, Leading zero omitted, Abs format (unit mm)*
G04 Created by KiCad (PCBNEW 7.0.7) date 2024-01-28 23:49:53*
%MOMM*%
%LPD*%
G01*
G04 APERTURE LIST*
%ADD10C,3.700000*%
%ADD11R,1.800000X1.800000*%
%ADD12C,1.800000*%
%ADD13R,2.400000X2.400000*%
%ADD14O,2.400000X2.400000*%
%ADD15C,1.700000*%
%ADD16C,4.000000*%
%ADD17C,2.200000*%
%ADD18R,1.600000X1.600000*%
%ADD19O,1.600000X1.600000*%
%ADD20C,1.600000*%
%ADD21C,1.400000*%
%ADD22O,1.400000X1.400000*%
%ADD23R,1.700000X1.700000*%
%ADD24O,1.700000X1.700000*%
G04 APERTURE END LIST*
D10*
%TO.C,H8*%
X101000000Y-129000000D03*
%TD*%
%TO.C,H7*%
X280000000Y-129000000D03*
%TD*%
D11*
%TO.C,D18*%
X328600000Y-50690000D03*
D12*
X331140000Y-50690000D03*
%TD*%
D13*
%TO.C,C2*%
X317850000Y-128112500D03*
D14*
X335850000Y-128112500D03*
%TD*%
D10*
%TO.C,H6*%
X239000000Y-39000000D03*
%TD*%
%TO.C,H5*%
X139000000Y-38920000D03*
%TD*%
%TO.C,H4*%
X338000000Y-39000000D03*
%TD*%
%TO.C,H3*%
X39000000Y-39000000D03*
%TD*%
%TO.C,H2*%
X338000000Y-139000000D03*
%TD*%
%TO.C,H1*%
X39000000Y-139000000D03*
%TD*%
D15*
%TO.C,SW41*%
X68480000Y-90780000D03*
D16*
X73560000Y-90780000D03*
D15*
X78640000Y-90780000D03*
D17*
X76100000Y-85700000D03*
X69750000Y-88240000D03*
%TD*%
D15*
%TO.C,SW74*%
X305780000Y-52780000D03*
D16*
X310860000Y-52780000D03*
D15*
X315940000Y-52780000D03*
D17*
X313400000Y-47700000D03*
X307050000Y-50240000D03*
%TD*%
D15*
%TO.C,SW5*%
X167980000Y-52780000D03*
D16*
X173060000Y-52780000D03*
D15*
X178140000Y-52780000D03*
D17*
X175600000Y-47700000D03*
X169250000Y-50240000D03*
%TD*%
D15*
%TO.C,SW56*%
X201480000Y-90780000D03*
D16*
X206560000Y-90780000D03*
D15*
X211640000Y-90780000D03*
D17*
X209100000Y-85700000D03*
X202750000Y-88240000D03*
%TD*%
D15*
%TO.C,SW4*%
X148980000Y-52780000D03*
D16*
X154060000Y-52780000D03*
D15*
X159140000Y-52780000D03*
D17*
X156600000Y-47700000D03*
X150250000Y-50240000D03*
%TD*%
D15*
%TO.C,SW22*%
X120580000Y-71780000D03*
D16*
X125660000Y-71780000D03*
D15*
X130740000Y-71780000D03*
D17*
X128200000Y-66700000D03*
X121850000Y-69240000D03*
%TD*%
D15*
%TO.C,SW44*%
X163480000Y-90780000D03*
D16*
X168560000Y-90780000D03*
D15*
X173640000Y-90780000D03*
D17*
X171100000Y-85700000D03*
X164750000Y-88240000D03*
%TD*%
D15*
%TO.C,SW64*%
X154180000Y-109780000D03*
D16*
X159260000Y-109780000D03*
D15*
X164340000Y-109780000D03*
D17*
X161800000Y-104700000D03*
X155450000Y-107240000D03*
%TD*%
D15*
%TO.C,SW72*%
X142680000Y-128780000D03*
D16*
X147760000Y-128780000D03*
D15*
X152840000Y-128780000D03*
D17*
X150300000Y-123700000D03*
X143950000Y-126240000D03*
%TD*%
D15*
%TO.C,SW69*%
X268180000Y-109780000D03*
D16*
X273260000Y-109780000D03*
D15*
X278340000Y-109780000D03*
D17*
X275800000Y-104700000D03*
X269450000Y-107240000D03*
%TD*%
D15*
%TO.C,SW71*%
X73380000Y-109780000D03*
D16*
X78460000Y-109780000D03*
D15*
X83540000Y-109780000D03*
D17*
X81000000Y-104700000D03*
X74650000Y-107240000D03*
%TD*%
D15*
%TO.C,SW68*%
X249180000Y-109780000D03*
D16*
X254260000Y-109780000D03*
D15*
X259340000Y-109780000D03*
D17*
X256800000Y-104700000D03*
X250450000Y-107240000D03*
%TD*%
D15*
%TO.C,SW66*%
X211180000Y-109780000D03*
D16*
X216260000Y-109780000D03*
D15*
X221340000Y-109780000D03*
D17*
X218800000Y-104700000D03*
X212450000Y-107240000D03*
%TD*%
D15*
%TO.C,SW3*%
X91980000Y-52780000D03*
D16*
X97060000Y-52780000D03*
D15*
X102140000Y-52780000D03*
D17*
X99600000Y-47700000D03*
X93250000Y-50240000D03*
%TD*%
D15*
%TO.C,SW18*%
X253580000Y-71780000D03*
D16*
X258660000Y-71780000D03*
D15*
X263740000Y-71780000D03*
D17*
X261200000Y-66700000D03*
X254850000Y-69240000D03*
%TD*%
D15*
%TO.C,SW59*%
X277480000Y-90780000D03*
D16*
X282560000Y-90780000D03*
D15*
X287640000Y-90780000D03*
D17*
X285100000Y-85700000D03*
X278750000Y-88240000D03*
%TD*%
D18*
%TO.C,IC1*%
X305050000Y-124530000D03*
D19*
X302510000Y-124530000D03*
X299970000Y-124530000D03*
X297430000Y-124530000D03*
X294890000Y-124530000D03*
X292350000Y-124530000D03*
X289810000Y-124530000D03*
X287270000Y-124530000D03*
X287270000Y-132150000D03*
X289810000Y-132150000D03*
X292350000Y-132150000D03*
X294890000Y-132150000D03*
X297430000Y-132150000D03*
X299970000Y-132150000D03*
X302510000Y-132150000D03*
X305050000Y-132150000D03*
%TD*%
D15*
%TO.C,SW53*%
X87480000Y-90780000D03*
D16*
X92560000Y-90780000D03*
D15*
X97640000Y-90780000D03*
D17*
X95100000Y-85700000D03*
X88750000Y-88240000D03*
%TD*%
D15*
%TO.C,SW55*%
X173180000Y-109780000D03*
D16*
X178260000Y-109780000D03*
D15*
X183340000Y-109780000D03*
D17*
X180800000Y-104700000D03*
X174450000Y-107240000D03*
%TD*%
D15*
%TO.C,SW75*%
X291980000Y-109780000D03*
D16*
X297060000Y-109780000D03*
D15*
X302140000Y-109780000D03*
D17*
X299600000Y-104700000D03*
X293250000Y-107240000D03*
%TD*%
D15*
%TO.C,SW30*%
X296480000Y-90780000D03*
D16*
X301560000Y-90780000D03*
D15*
X306640000Y-90780000D03*
D17*
X304100000Y-85700000D03*
X297750000Y-88240000D03*
%TD*%
D15*
%TO.C,SW51*%
X49480000Y-90780000D03*
D16*
X54560000Y-90780000D03*
D15*
X59640000Y-90780000D03*
D17*
X57100000Y-85700000D03*
X50750000Y-88240000D03*
%TD*%
D15*
%TO.C,SW26*%
X196580000Y-71780000D03*
D16*
X201660000Y-71780000D03*
D15*
X206740000Y-71780000D03*
D17*
X204200000Y-66700000D03*
X197850000Y-69240000D03*
%TD*%
D15*
%TO.C,SW45*%
X192180000Y-109780000D03*
D16*
X197260000Y-109780000D03*
D15*
X202340000Y-109780000D03*
D17*
X199800000Y-104700000D03*
X193450000Y-107240000D03*
%TD*%
D20*
%TO.C,C1*%
X311190000Y-125830000D03*
X311190000Y-130830000D03*
%TD*%
D15*
%TO.C,SW15*%
X177580000Y-71780000D03*
D16*
X182660000Y-71780000D03*
D15*
X187740000Y-71780000D03*
D17*
X185200000Y-66700000D03*
X178850000Y-69240000D03*
%TD*%
D15*
%TO.C,SW42*%
X125480000Y-90780000D03*
D16*
X130560000Y-90780000D03*
D15*
X135640000Y-90780000D03*
D17*
X133100000Y-85700000D03*
X126750000Y-88240000D03*
%TD*%
D15*
%TO.C,SW2*%
X110980000Y-52780000D03*
D16*
X116060000Y-52780000D03*
D15*
X121140000Y-52780000D03*
D17*
X118600000Y-47700000D03*
X112250000Y-50240000D03*
%TD*%
D15*
%TO.C,SW54*%
X144480000Y-90780000D03*
D16*
X149560000Y-90780000D03*
D15*
X154640000Y-90780000D03*
D17*
X152100000Y-85700000D03*
X145750000Y-88240000D03*
%TD*%
D15*
%TO.C,SW23*%
X101580000Y-71780000D03*
D16*
X106660000Y-71780000D03*
D15*
X111740000Y-71780000D03*
D17*
X109200000Y-66700000D03*
X102850000Y-69240000D03*
%TD*%
D15*
%TO.C,SW25*%
X182480000Y-90780000D03*
D16*
X187560000Y-90780000D03*
D15*
X192640000Y-90780000D03*
D17*
X190100000Y-85700000D03*
X183750000Y-88240000D03*
%TD*%
D15*
%TO.C,SW6*%
X186980000Y-52780000D03*
D16*
X192060000Y-52780000D03*
D15*
X197140000Y-52780000D03*
D17*
X194600000Y-47700000D03*
X188250000Y-50240000D03*
%TD*%
D15*
%TO.C,SW63*%
X97180000Y-109780000D03*
D16*
X102260000Y-109780000D03*
D15*
X107340000Y-109780000D03*
D17*
X104800000Y-104700000D03*
X98450000Y-107240000D03*
%TD*%
D15*
%TO.C,SW65*%
X182680000Y-128780000D03*
D16*
X187760000Y-128780000D03*
D15*
X192840000Y-128780000D03*
D17*
X190300000Y-123700000D03*
X183950000Y-126240000D03*
%TD*%
D15*
%TO.C,SW24*%
X158580000Y-71780000D03*
D16*
X163660000Y-71780000D03*
D15*
X168740000Y-71780000D03*
D17*
X166200000Y-66700000D03*
X159850000Y-69240000D03*
%TD*%
D15*
%TO.C,SW28*%
X239480000Y-90780000D03*
D16*
X244560000Y-90780000D03*
D15*
X249640000Y-90780000D03*
D17*
X247100000Y-85700000D03*
X240750000Y-88240000D03*
%TD*%
D15*
%TO.C,SW29*%
X272580000Y-71780000D03*
D16*
X277660000Y-71780000D03*
D15*
X282740000Y-71780000D03*
D17*
X280200000Y-66700000D03*
X273850000Y-69240000D03*
%TD*%
D15*
%TO.C,SW70*%
X320580000Y-109780000D03*
D16*
X325660000Y-109780000D03*
D15*
X330740000Y-109780000D03*
D17*
X328200000Y-104700000D03*
X321850000Y-107240000D03*
%TD*%
D15*
%TO.C,SW16*%
X205980000Y-52780000D03*
D16*
X211060000Y-52780000D03*
D15*
X216140000Y-52780000D03*
D17*
X213600000Y-47700000D03*
X207250000Y-50240000D03*
%TD*%
D15*
%TO.C,SW60*%
X315480000Y-90780000D03*
D16*
X320560000Y-90780000D03*
D15*
X325640000Y-90780000D03*
D17*
X323100000Y-85700000D03*
X316750000Y-88240000D03*
%TD*%
D15*
%TO.C,SW43*%
X106480000Y-90780000D03*
D16*
X111560000Y-90780000D03*
D15*
X116640000Y-90780000D03*
D17*
X114100000Y-85700000D03*
X107750000Y-88240000D03*
%TD*%
D18*
%TO.C,RN1*%
X71960000Y-130080000D03*
D19*
X69420000Y-130080000D03*
X66880000Y-130080000D03*
X64340000Y-130080000D03*
X61800000Y-130080000D03*
X59260000Y-130080000D03*
X56720000Y-130080000D03*
X54180000Y-130080000D03*
X51640000Y-130080000D03*
X49100000Y-130080000D03*
%TD*%
D15*
%TO.C,SW13*%
X82580000Y-71780000D03*
D16*
X87660000Y-71780000D03*
D15*
X92740000Y-71780000D03*
D17*
X90200000Y-66700000D03*
X83850000Y-69240000D03*
%TD*%
D15*
%TO.C,SW1*%
X72980000Y-52780000D03*
D16*
X78060000Y-52780000D03*
D15*
X83140000Y-52780000D03*
D17*
X80600000Y-47700000D03*
X74250000Y-50240000D03*
%TD*%
D15*
%TO.C,SW62*%
X116180000Y-109780000D03*
D16*
X121260000Y-109780000D03*
D15*
X126340000Y-109780000D03*
D17*
X123800000Y-104700000D03*
X117450000Y-107240000D03*
%TD*%
D15*
%TO.C,SW7*%
X224980000Y-52780000D03*
D16*
X230060000Y-52780000D03*
D15*
X235140000Y-52780000D03*
D17*
X232600000Y-47700000D03*
X226250000Y-50240000D03*
%TD*%
D21*
%TO.C,R18*%
X335060000Y-85710000D03*
D22*
X335060000Y-93330000D03*
%TD*%
D15*
%TO.C,SW67*%
X230180000Y-109780000D03*
D16*
X235260000Y-109780000D03*
D15*
X240340000Y-109780000D03*
D17*
X237800000Y-104700000D03*
X231450000Y-107240000D03*
%TD*%
D15*
%TO.C,SW19*%
X281980000Y-52780000D03*
D16*
X287060000Y-52780000D03*
D15*
X292140000Y-52780000D03*
D17*
X289600000Y-47700000D03*
X283250000Y-50240000D03*
%TD*%
D15*
%TO.C,SW58*%
X258480000Y-90780000D03*
D16*
X263560000Y-90780000D03*
D15*
X268640000Y-90780000D03*
D17*
X266100000Y-85700000D03*
X259750000Y-88240000D03*
%TD*%
D15*
%TO.C,SW14*%
X139580000Y-71780000D03*
D16*
X144660000Y-71780000D03*
D15*
X149740000Y-71780000D03*
D17*
X147200000Y-66700000D03*
X140850000Y-69240000D03*
%TD*%
D15*
%TO.C,SW20*%
X291580000Y-71780000D03*
D16*
X296660000Y-71780000D03*
D15*
X301740000Y-71780000D03*
D17*
X299200000Y-66700000D03*
X292850000Y-69240000D03*
%TD*%
D15*
%TO.C,SW73*%
X222680000Y-128780000D03*
D16*
X227760000Y-128780000D03*
D15*
X232840000Y-128780000D03*
D17*
X230300000Y-123700000D03*
X223950000Y-126240000D03*
%TD*%
D15*
%TO.C,SW17*%
X215580000Y-71780000D03*
D16*
X220660000Y-71780000D03*
D15*
X225740000Y-71780000D03*
D17*
X223200000Y-66700000D03*
X216850000Y-69240000D03*
%TD*%
D15*
%TO.C,SW8*%
X243980000Y-52780000D03*
D16*
X249060000Y-52780000D03*
D15*
X254140000Y-52780000D03*
D17*
X251600000Y-47700000D03*
X245250000Y-50240000D03*
%TD*%
D23*
%TO.C,PL1*%
X82130000Y-136650000D03*
D24*
X79590000Y-136650000D03*
X77050000Y-136650000D03*
X74510000Y-136650000D03*
X71970000Y-136650000D03*
X69430000Y-136650000D03*
X66890000Y-136650000D03*
X64350000Y-136650000D03*
X61810000Y-136650000D03*
X59270000Y-136650000D03*
X56730000Y-136650000D03*
X54190000Y-136650000D03*
X51650000Y-136650000D03*
X49110000Y-136650000D03*
X46570000Y-136650000D03*
%TD*%
D15*
%TO.C,SW33*%
X58780000Y-71780000D03*
D16*
X63860000Y-71780000D03*
D15*
X68940000Y-71780000D03*
D17*
X66400000Y-66700000D03*
X60050000Y-69240000D03*
%TD*%
D15*
%TO.C,SW9*%
X262980000Y-52780000D03*
D16*
X268060000Y-52780000D03*
D15*
X273140000Y-52780000D03*
D17*
X270600000Y-47700000D03*
X264250000Y-50240000D03*
%TD*%
D15*
%TO.C,SW52*%
X135180000Y-109780000D03*
D16*
X140260000Y-109780000D03*
D15*
X145340000Y-109780000D03*
D17*
X142800000Y-104700000D03*
X136450000Y-107240000D03*
%TD*%
D15*
%TO.C,SW31*%
X53980000Y-52780000D03*
D16*
X59060000Y-52780000D03*
D15*
X64140000Y-52780000D03*
D17*
X61600000Y-47700000D03*
X55250000Y-50240000D03*
%TD*%
D15*
%TO.C,SW61*%
X44780000Y-109780000D03*
D16*
X49860000Y-109780000D03*
D15*
X54940000Y-109780000D03*
D17*
X52400000Y-104700000D03*
X46050000Y-107240000D03*
%TD*%
D15*
%TO.C,SW12*%
X129980000Y-52780000D03*
D16*
X135060000Y-52780000D03*
D15*
X140140000Y-52780000D03*
D17*
X137600000Y-47700000D03*
X131250000Y-50240000D03*
%TD*%
D15*
%TO.C,SW57*%
X220480000Y-90780000D03*
D16*
X225560000Y-90780000D03*
D15*
X230640000Y-90780000D03*
D17*
X228100000Y-85700000D03*
X221750000Y-88240000D03*
%TD*%
D15*
%TO.C,SW10*%
X310580000Y-71780000D03*
D16*
X315660000Y-71780000D03*
D15*
X320740000Y-71780000D03*
D17*
X318200000Y-66700000D03*
X311850000Y-69240000D03*
%TD*%
D15*
%TO.C,SW27*%
X234580000Y-71780000D03*
D16*
X239660000Y-71780000D03*
D15*
X244740000Y-71780000D03*
D17*
X242200000Y-66700000D03*
X235850000Y-69240000D03*
%TD*%
M02*
