%TF.GenerationSoftware,KiCad,Pcbnew,7.0.7*%
%TF.CreationDate,2024-01-28T23:49:53+00:00*%
%TF.ProjectId,Lynx-Keyboard,4c796e78-2d4b-4657-9962-6f6172642e6b,rev?*%
%TF.SameCoordinates,Original*%
%TF.FileFunction,Legend,Bot*%
%TF.FilePolarity,Positive*%
%FSLAX46Y46*%
G04 Gerber Fmt 4.6, Leading zero omitted, Abs format (unit mm)*
G04 Created by KiCad (PCBNEW 7.0.7) date 2024-01-28 23:49:53*
%MOMM*%
%LPD*%
G01*
G04 APERTURE LIST*
%ADD10C,0.150000*%
G04 APERTURE END LIST*
D10*
X62064173Y-139653628D02*
X62111792Y-139606009D01*
X62111792Y-139606009D02*
X62207030Y-139558390D01*
X62207030Y-139558390D02*
X62302268Y-139558390D01*
X62302268Y-139558390D02*
X62397506Y-139606009D01*
X62397506Y-139606009D02*
X62445125Y-139653628D01*
X62445125Y-139653628D02*
X62492744Y-139748866D01*
X62492744Y-139748866D02*
X62492744Y-139844104D01*
X62492744Y-139844104D02*
X62445125Y-139939342D01*
X62445125Y-139939342D02*
X62397506Y-139986961D01*
X62397506Y-139986961D02*
X62302268Y-140034580D01*
X62302268Y-140034580D02*
X62207030Y-140034580D01*
X62207030Y-140034580D02*
X62111792Y-139986961D01*
X62111792Y-139986961D02*
X62064173Y-139939342D01*
X62064173Y-139558390D02*
X62064173Y-139939342D01*
X62064173Y-139939342D02*
X62016554Y-139986961D01*
X62016554Y-139986961D02*
X61968935Y-139986961D01*
X61968935Y-139986961D02*
X61873696Y-139939342D01*
X61873696Y-139939342D02*
X61826077Y-139844104D01*
X61826077Y-139844104D02*
X61826077Y-139606009D01*
X61826077Y-139606009D02*
X61921316Y-139463152D01*
X61921316Y-139463152D02*
X62064173Y-139367914D01*
X62064173Y-139367914D02*
X62254649Y-139320295D01*
X62254649Y-139320295D02*
X62445125Y-139367914D01*
X62445125Y-139367914D02*
X62587982Y-139463152D01*
X62587982Y-139463152D02*
X62683220Y-139606009D01*
X62683220Y-139606009D02*
X62730839Y-139796485D01*
X62730839Y-139796485D02*
X62683220Y-139986961D01*
X62683220Y-139986961D02*
X62587982Y-140129819D01*
X62587982Y-140129819D02*
X62445125Y-140225057D01*
X62445125Y-140225057D02*
X62254649Y-140272676D01*
X62254649Y-140272676D02*
X62064173Y-140225057D01*
X62064173Y-140225057D02*
X61921316Y-140129819D01*
X60968935Y-139463152D02*
X60968935Y-140272676D01*
X60968935Y-140272676D02*
X61016554Y-140367914D01*
X61016554Y-140367914D02*
X61064173Y-140415533D01*
X61064173Y-140415533D02*
X61159411Y-140463152D01*
X61159411Y-140463152D02*
X61302268Y-140463152D01*
X61302268Y-140463152D02*
X61397506Y-140415533D01*
X60968935Y-140082200D02*
X61064173Y-140129819D01*
X61064173Y-140129819D02*
X61254649Y-140129819D01*
X61254649Y-140129819D02*
X61349887Y-140082200D01*
X61349887Y-140082200D02*
X61397506Y-140034580D01*
X61397506Y-140034580D02*
X61445125Y-139939342D01*
X61445125Y-139939342D02*
X61445125Y-139653628D01*
X61445125Y-139653628D02*
X61397506Y-139558390D01*
X61397506Y-139558390D02*
X61349887Y-139510771D01*
X61349887Y-139510771D02*
X61254649Y-139463152D01*
X61254649Y-139463152D02*
X61064173Y-139463152D01*
X61064173Y-139463152D02*
X60968935Y-139510771D01*
X60492744Y-140129819D02*
X60492744Y-139463152D01*
X60492744Y-139653628D02*
X60445125Y-139558390D01*
X60445125Y-139558390D02*
X60397506Y-139510771D01*
X60397506Y-139510771D02*
X60302268Y-139463152D01*
X60302268Y-139463152D02*
X60207030Y-139463152D01*
X59445125Y-140129819D02*
X59445125Y-139606009D01*
X59445125Y-139606009D02*
X59492744Y-139510771D01*
X59492744Y-139510771D02*
X59587982Y-139463152D01*
X59587982Y-139463152D02*
X59778458Y-139463152D01*
X59778458Y-139463152D02*
X59873696Y-139510771D01*
X59445125Y-140082200D02*
X59540363Y-140129819D01*
X59540363Y-140129819D02*
X59778458Y-140129819D01*
X59778458Y-140129819D02*
X59873696Y-140082200D01*
X59873696Y-140082200D02*
X59921315Y-139986961D01*
X59921315Y-139986961D02*
X59921315Y-139891723D01*
X59921315Y-139891723D02*
X59873696Y-139796485D01*
X59873696Y-139796485D02*
X59778458Y-139748866D01*
X59778458Y-139748866D02*
X59540363Y-139748866D01*
X59540363Y-139748866D02*
X59445125Y-139701247D01*
X58968934Y-139463152D02*
X58968934Y-140129819D01*
X58968934Y-139558390D02*
X58921315Y-139510771D01*
X58921315Y-139510771D02*
X58826077Y-139463152D01*
X58826077Y-139463152D02*
X58683220Y-139463152D01*
X58683220Y-139463152D02*
X58587982Y-139510771D01*
X58587982Y-139510771D02*
X58540363Y-139606009D01*
X58540363Y-139606009D02*
X58540363Y-140129819D01*
X57635601Y-140129819D02*
X57635601Y-139129819D01*
X57635601Y-140082200D02*
X57730839Y-140129819D01*
X57730839Y-140129819D02*
X57921315Y-140129819D01*
X57921315Y-140129819D02*
X58016553Y-140082200D01*
X58016553Y-140082200D02*
X58064172Y-140034580D01*
X58064172Y-140034580D02*
X58111791Y-139939342D01*
X58111791Y-139939342D02*
X58111791Y-139653628D01*
X58111791Y-139653628D02*
X58064172Y-139558390D01*
X58064172Y-139558390D02*
X58016553Y-139510771D01*
X58016553Y-139510771D02*
X57921315Y-139463152D01*
X57921315Y-139463152D02*
X57730839Y-139463152D01*
X57730839Y-139463152D02*
X57635601Y-139510771D01*
X57016553Y-140129819D02*
X57111791Y-140082200D01*
X57111791Y-140082200D02*
X57159410Y-140034580D01*
X57159410Y-140034580D02*
X57207029Y-139939342D01*
X57207029Y-139939342D02*
X57207029Y-139653628D01*
X57207029Y-139653628D02*
X57159410Y-139558390D01*
X57159410Y-139558390D02*
X57111791Y-139510771D01*
X57111791Y-139510771D02*
X57016553Y-139463152D01*
X57016553Y-139463152D02*
X56873696Y-139463152D01*
X56873696Y-139463152D02*
X56778458Y-139510771D01*
X56778458Y-139510771D02*
X56730839Y-139558390D01*
X56730839Y-139558390D02*
X56683220Y-139653628D01*
X56683220Y-139653628D02*
X56683220Y-139939342D01*
X56683220Y-139939342D02*
X56730839Y-140034580D01*
X56730839Y-140034580D02*
X56778458Y-140082200D01*
X56778458Y-140082200D02*
X56873696Y-140129819D01*
X56873696Y-140129819D02*
X57016553Y-140129819D01*
X56111791Y-140129819D02*
X56207029Y-140082200D01*
X56207029Y-140082200D02*
X56254648Y-139986961D01*
X56254648Y-139986961D02*
X56254648Y-139129819D01*
X55302267Y-140129819D02*
X55302267Y-139129819D01*
X55302267Y-140082200D02*
X55397505Y-140129819D01*
X55397505Y-140129819D02*
X55587981Y-140129819D01*
X55587981Y-140129819D02*
X55683219Y-140082200D01*
X55683219Y-140082200D02*
X55730838Y-140034580D01*
X55730838Y-140034580D02*
X55778457Y-139939342D01*
X55778457Y-139939342D02*
X55778457Y-139653628D01*
X55778457Y-139653628D02*
X55730838Y-139558390D01*
X55730838Y-139558390D02*
X55683219Y-139510771D01*
X55683219Y-139510771D02*
X55587981Y-139463152D01*
X55587981Y-139463152D02*
X55397505Y-139463152D01*
X55397505Y-139463152D02*
X55302267Y-139510771D01*
X54826076Y-140129819D02*
X54826076Y-139463152D01*
X54826076Y-139129819D02*
X54873695Y-139177438D01*
X54873695Y-139177438D02*
X54826076Y-139225057D01*
X54826076Y-139225057D02*
X54778457Y-139177438D01*
X54778457Y-139177438D02*
X54826076Y-139129819D01*
X54826076Y-139129819D02*
X54826076Y-139225057D01*
X53921315Y-140129819D02*
X53921315Y-139606009D01*
X53921315Y-139606009D02*
X53968934Y-139510771D01*
X53968934Y-139510771D02*
X54064172Y-139463152D01*
X54064172Y-139463152D02*
X54254648Y-139463152D01*
X54254648Y-139463152D02*
X54349886Y-139510771D01*
X53921315Y-140082200D02*
X54016553Y-140129819D01*
X54016553Y-140129819D02*
X54254648Y-140129819D01*
X54254648Y-140129819D02*
X54349886Y-140082200D01*
X54349886Y-140082200D02*
X54397505Y-139986961D01*
X54397505Y-139986961D02*
X54397505Y-139891723D01*
X54397505Y-139891723D02*
X54349886Y-139796485D01*
X54349886Y-139796485D02*
X54254648Y-139748866D01*
X54254648Y-139748866D02*
X54016553Y-139748866D01*
X54016553Y-139748866D02*
X53921315Y-139701247D01*
X53445124Y-139463152D02*
X53445124Y-140129819D01*
X53445124Y-139558390D02*
X53397505Y-139510771D01*
X53397505Y-139510771D02*
X53302267Y-139463152D01*
X53302267Y-139463152D02*
X53159410Y-139463152D01*
X53159410Y-139463152D02*
X53064172Y-139510771D01*
X53064172Y-139510771D02*
X53016553Y-139606009D01*
X53016553Y-139606009D02*
X53016553Y-140129819D01*
X51587981Y-139129819D02*
X51492743Y-139129819D01*
X51492743Y-139129819D02*
X51397505Y-139177438D01*
X51397505Y-139177438D02*
X51349886Y-139225057D01*
X51349886Y-139225057D02*
X51302267Y-139320295D01*
X51302267Y-139320295D02*
X51254648Y-139510771D01*
X51254648Y-139510771D02*
X51254648Y-139748866D01*
X51254648Y-139748866D02*
X51302267Y-139939342D01*
X51302267Y-139939342D02*
X51349886Y-140034580D01*
X51349886Y-140034580D02*
X51397505Y-140082200D01*
X51397505Y-140082200D02*
X51492743Y-140129819D01*
X51492743Y-140129819D02*
X51587981Y-140129819D01*
X51587981Y-140129819D02*
X51683219Y-140082200D01*
X51683219Y-140082200D02*
X51730838Y-140034580D01*
X51730838Y-140034580D02*
X51778457Y-139939342D01*
X51778457Y-139939342D02*
X51826076Y-139748866D01*
X51826076Y-139748866D02*
X51826076Y-139510771D01*
X51826076Y-139510771D02*
X51778457Y-139320295D01*
X51778457Y-139320295D02*
X51730838Y-139225057D01*
X51730838Y-139225057D02*
X51683219Y-139177438D01*
X51683219Y-139177438D02*
X51587981Y-139129819D01*
X50302267Y-140129819D02*
X50873695Y-140129819D01*
X50587981Y-140129819D02*
X50587981Y-139129819D01*
X50587981Y-139129819D02*
X50683219Y-139272676D01*
X50683219Y-139272676D02*
X50778457Y-139367914D01*
X50778457Y-139367914D02*
X50873695Y-139415533D01*
X49159410Y-139082200D02*
X50016552Y-140367914D01*
X48873695Y-139225057D02*
X48826076Y-139177438D01*
X48826076Y-139177438D02*
X48730838Y-139129819D01*
X48730838Y-139129819D02*
X48492743Y-139129819D01*
X48492743Y-139129819D02*
X48397505Y-139177438D01*
X48397505Y-139177438D02*
X48349886Y-139225057D01*
X48349886Y-139225057D02*
X48302267Y-139320295D01*
X48302267Y-139320295D02*
X48302267Y-139415533D01*
X48302267Y-139415533D02*
X48349886Y-139558390D01*
X48349886Y-139558390D02*
X48921314Y-140129819D01*
X48921314Y-140129819D02*
X48302267Y-140129819D01*
X47683219Y-139129819D02*
X47587981Y-139129819D01*
X47587981Y-139129819D02*
X47492743Y-139177438D01*
X47492743Y-139177438D02*
X47445124Y-139225057D01*
X47445124Y-139225057D02*
X47397505Y-139320295D01*
X47397505Y-139320295D02*
X47349886Y-139510771D01*
X47349886Y-139510771D02*
X47349886Y-139748866D01*
X47349886Y-139748866D02*
X47397505Y-139939342D01*
X47397505Y-139939342D02*
X47445124Y-140034580D01*
X47445124Y-140034580D02*
X47492743Y-140082200D01*
X47492743Y-140082200D02*
X47587981Y-140129819D01*
X47587981Y-140129819D02*
X47683219Y-140129819D01*
X47683219Y-140129819D02*
X47778457Y-140082200D01*
X47778457Y-140082200D02*
X47826076Y-140034580D01*
X47826076Y-140034580D02*
X47873695Y-139939342D01*
X47873695Y-139939342D02*
X47921314Y-139748866D01*
X47921314Y-139748866D02*
X47921314Y-139510771D01*
X47921314Y-139510771D02*
X47873695Y-139320295D01*
X47873695Y-139320295D02*
X47826076Y-139225057D01*
X47826076Y-139225057D02*
X47778457Y-139177438D01*
X47778457Y-139177438D02*
X47683219Y-139129819D01*
X46968933Y-139225057D02*
X46921314Y-139177438D01*
X46921314Y-139177438D02*
X46826076Y-139129819D01*
X46826076Y-139129819D02*
X46587981Y-139129819D01*
X46587981Y-139129819D02*
X46492743Y-139177438D01*
X46492743Y-139177438D02*
X46445124Y-139225057D01*
X46445124Y-139225057D02*
X46397505Y-139320295D01*
X46397505Y-139320295D02*
X46397505Y-139415533D01*
X46397505Y-139415533D02*
X46445124Y-139558390D01*
X46445124Y-139558390D02*
X47016552Y-140129819D01*
X47016552Y-140129819D02*
X46397505Y-140129819D01*
X45540362Y-139463152D02*
X45540362Y-140129819D01*
X45778457Y-139082200D02*
X46016552Y-139796485D01*
X46016552Y-139796485D02*
X45397505Y-139796485D01*
X333656077Y-141059819D02*
X333084649Y-141059819D01*
X333370363Y-142059819D02*
X333370363Y-141059819D01*
X332751315Y-142059819D02*
X332751315Y-141059819D01*
X332322744Y-142059819D02*
X332322744Y-141536009D01*
X332322744Y-141536009D02*
X332370363Y-141440771D01*
X332370363Y-141440771D02*
X332465601Y-141393152D01*
X332465601Y-141393152D02*
X332608458Y-141393152D01*
X332608458Y-141393152D02*
X332703696Y-141440771D01*
X332703696Y-141440771D02*
X332751315Y-141488390D01*
X331417982Y-142059819D02*
X331417982Y-141536009D01*
X331417982Y-141536009D02*
X331465601Y-141440771D01*
X331465601Y-141440771D02*
X331560839Y-141393152D01*
X331560839Y-141393152D02*
X331751315Y-141393152D01*
X331751315Y-141393152D02*
X331846553Y-141440771D01*
X331417982Y-142012200D02*
X331513220Y-142059819D01*
X331513220Y-142059819D02*
X331751315Y-142059819D01*
X331751315Y-142059819D02*
X331846553Y-142012200D01*
X331846553Y-142012200D02*
X331894172Y-141916961D01*
X331894172Y-141916961D02*
X331894172Y-141821723D01*
X331894172Y-141821723D02*
X331846553Y-141726485D01*
X331846553Y-141726485D02*
X331751315Y-141678866D01*
X331751315Y-141678866D02*
X331513220Y-141678866D01*
X331513220Y-141678866D02*
X331417982Y-141631247D01*
X330941791Y-141393152D02*
X330941791Y-142059819D01*
X330941791Y-141488390D02*
X330894172Y-141440771D01*
X330894172Y-141440771D02*
X330798934Y-141393152D01*
X330798934Y-141393152D02*
X330656077Y-141393152D01*
X330656077Y-141393152D02*
X330560839Y-141440771D01*
X330560839Y-141440771D02*
X330513220Y-141536009D01*
X330513220Y-141536009D02*
X330513220Y-142059819D01*
X330037029Y-142059819D02*
X330037029Y-141059819D01*
X329941791Y-141678866D02*
X329656077Y-142059819D01*
X329656077Y-141393152D02*
X330037029Y-141774104D01*
X329275124Y-142012200D02*
X329179886Y-142059819D01*
X329179886Y-142059819D02*
X328989410Y-142059819D01*
X328989410Y-142059819D02*
X328894172Y-142012200D01*
X328894172Y-142012200D02*
X328846553Y-141916961D01*
X328846553Y-141916961D02*
X328846553Y-141869342D01*
X328846553Y-141869342D02*
X328894172Y-141774104D01*
X328894172Y-141774104D02*
X328989410Y-141726485D01*
X328989410Y-141726485D02*
X329132267Y-141726485D01*
X329132267Y-141726485D02*
X329227505Y-141678866D01*
X329227505Y-141678866D02*
X329275124Y-141583628D01*
X329275124Y-141583628D02*
X329275124Y-141536009D01*
X329275124Y-141536009D02*
X329227505Y-141440771D01*
X329227505Y-141440771D02*
X329132267Y-141393152D01*
X329132267Y-141393152D02*
X328989410Y-141393152D01*
X328989410Y-141393152D02*
X328894172Y-141440771D01*
X327798933Y-141393152D02*
X327417981Y-141393152D01*
X327656076Y-141059819D02*
X327656076Y-141916961D01*
X327656076Y-141916961D02*
X327608457Y-142012200D01*
X327608457Y-142012200D02*
X327513219Y-142059819D01*
X327513219Y-142059819D02*
X327417981Y-142059819D01*
X326941790Y-142059819D02*
X327037028Y-142012200D01*
X327037028Y-142012200D02*
X327084647Y-141964580D01*
X327084647Y-141964580D02*
X327132266Y-141869342D01*
X327132266Y-141869342D02*
X327132266Y-141583628D01*
X327132266Y-141583628D02*
X327084647Y-141488390D01*
X327084647Y-141488390D02*
X327037028Y-141440771D01*
X327037028Y-141440771D02*
X326941790Y-141393152D01*
X326941790Y-141393152D02*
X326798933Y-141393152D01*
X326798933Y-141393152D02*
X326703695Y-141440771D01*
X326703695Y-141440771D02*
X326656076Y-141488390D01*
X326656076Y-141488390D02*
X326608457Y-141583628D01*
X326608457Y-141583628D02*
X326608457Y-141869342D01*
X326608457Y-141869342D02*
X326656076Y-141964580D01*
X326656076Y-141964580D02*
X326703695Y-142012200D01*
X326703695Y-142012200D02*
X326798933Y-142059819D01*
X326798933Y-142059819D02*
X326941790Y-142059819D01*
X324846552Y-142059819D02*
X325179885Y-141583628D01*
X325417980Y-142059819D02*
X325417980Y-141059819D01*
X325417980Y-141059819D02*
X325037028Y-141059819D01*
X325037028Y-141059819D02*
X324941790Y-141107438D01*
X324941790Y-141107438D02*
X324894171Y-141155057D01*
X324894171Y-141155057D02*
X324846552Y-141250295D01*
X324846552Y-141250295D02*
X324846552Y-141393152D01*
X324846552Y-141393152D02*
X324894171Y-141488390D01*
X324894171Y-141488390D02*
X324941790Y-141536009D01*
X324941790Y-141536009D02*
X325037028Y-141583628D01*
X325037028Y-141583628D02*
X325417980Y-141583628D01*
X324275123Y-142059819D02*
X324370361Y-142012200D01*
X324370361Y-142012200D02*
X324417980Y-141964580D01*
X324417980Y-141964580D02*
X324465599Y-141869342D01*
X324465599Y-141869342D02*
X324465599Y-141583628D01*
X324465599Y-141583628D02*
X324417980Y-141488390D01*
X324417980Y-141488390D02*
X324370361Y-141440771D01*
X324370361Y-141440771D02*
X324275123Y-141393152D01*
X324275123Y-141393152D02*
X324132266Y-141393152D01*
X324132266Y-141393152D02*
X324037028Y-141440771D01*
X324037028Y-141440771D02*
X323989409Y-141488390D01*
X323989409Y-141488390D02*
X323941790Y-141583628D01*
X323941790Y-141583628D02*
X323941790Y-141869342D01*
X323941790Y-141869342D02*
X323989409Y-141964580D01*
X323989409Y-141964580D02*
X324037028Y-142012200D01*
X324037028Y-142012200D02*
X324132266Y-142059819D01*
X324132266Y-142059819D02*
X324275123Y-142059819D01*
X323513218Y-142059819D02*
X323513218Y-141059819D01*
X323513218Y-141440771D02*
X323417980Y-141393152D01*
X323417980Y-141393152D02*
X323227504Y-141393152D01*
X323227504Y-141393152D02*
X323132266Y-141440771D01*
X323132266Y-141440771D02*
X323084647Y-141488390D01*
X323084647Y-141488390D02*
X323037028Y-141583628D01*
X323037028Y-141583628D02*
X323037028Y-141869342D01*
X323037028Y-141869342D02*
X323084647Y-141964580D01*
X323084647Y-141964580D02*
X323132266Y-142012200D01*
X323132266Y-142012200D02*
X323227504Y-142059819D01*
X323227504Y-142059819D02*
X323417980Y-142059819D01*
X323417980Y-142059819D02*
X323513218Y-142012200D01*
X321894170Y-141059819D02*
X321894170Y-141250295D01*
X321513218Y-141059819D02*
X321513218Y-141250295D01*
X321084646Y-142059819D02*
X321084646Y-141059819D01*
X321084646Y-141059819D02*
X320703694Y-141059819D01*
X320703694Y-141059819D02*
X320608456Y-141107438D01*
X320608456Y-141107438D02*
X320560837Y-141155057D01*
X320560837Y-141155057D02*
X320513218Y-141250295D01*
X320513218Y-141250295D02*
X320513218Y-141393152D01*
X320513218Y-141393152D02*
X320560837Y-141488390D01*
X320560837Y-141488390D02*
X320608456Y-141536009D01*
X320608456Y-141536009D02*
X320703694Y-141583628D01*
X320703694Y-141583628D02*
X321084646Y-141583628D01*
X319703694Y-142012200D02*
X319798932Y-142059819D01*
X319798932Y-142059819D02*
X319989408Y-142059819D01*
X319989408Y-142059819D02*
X320084646Y-142012200D01*
X320084646Y-142012200D02*
X320132265Y-141916961D01*
X320132265Y-141916961D02*
X320132265Y-141536009D01*
X320132265Y-141536009D02*
X320084646Y-141440771D01*
X320084646Y-141440771D02*
X319989408Y-141393152D01*
X319989408Y-141393152D02*
X319798932Y-141393152D01*
X319798932Y-141393152D02*
X319703694Y-141440771D01*
X319703694Y-141440771D02*
X319656075Y-141536009D01*
X319656075Y-141536009D02*
X319656075Y-141631247D01*
X319656075Y-141631247D02*
X320132265Y-141726485D01*
X318846551Y-142012200D02*
X318941789Y-142059819D01*
X318941789Y-142059819D02*
X319132265Y-142059819D01*
X319132265Y-142059819D02*
X319227503Y-142012200D01*
X319227503Y-142012200D02*
X319275122Y-141916961D01*
X319275122Y-141916961D02*
X319275122Y-141536009D01*
X319275122Y-141536009D02*
X319227503Y-141440771D01*
X319227503Y-141440771D02*
X319132265Y-141393152D01*
X319132265Y-141393152D02*
X318941789Y-141393152D01*
X318941789Y-141393152D02*
X318846551Y-141440771D01*
X318846551Y-141440771D02*
X318798932Y-141536009D01*
X318798932Y-141536009D02*
X318798932Y-141631247D01*
X318798932Y-141631247D02*
X319275122Y-141726485D01*
X318370360Y-141393152D02*
X318370360Y-142393152D01*
X318370360Y-141440771D02*
X318275122Y-141393152D01*
X318275122Y-141393152D02*
X318084646Y-141393152D01*
X318084646Y-141393152D02*
X317989408Y-141440771D01*
X317989408Y-141440771D02*
X317941789Y-141488390D01*
X317941789Y-141488390D02*
X317894170Y-141583628D01*
X317894170Y-141583628D02*
X317894170Y-141869342D01*
X317894170Y-141869342D02*
X317941789Y-141964580D01*
X317941789Y-141964580D02*
X317989408Y-142012200D01*
X317989408Y-142012200D02*
X318084646Y-142059819D01*
X318084646Y-142059819D02*
X318275122Y-142059819D01*
X318275122Y-142059819D02*
X318370360Y-142012200D01*
X317322741Y-142059819D02*
X317417979Y-142012200D01*
X317417979Y-142012200D02*
X317465598Y-141964580D01*
X317465598Y-141964580D02*
X317513217Y-141869342D01*
X317513217Y-141869342D02*
X317513217Y-141583628D01*
X317513217Y-141583628D02*
X317465598Y-141488390D01*
X317465598Y-141488390D02*
X317417979Y-141440771D01*
X317417979Y-141440771D02*
X317322741Y-141393152D01*
X317322741Y-141393152D02*
X317179884Y-141393152D01*
X317179884Y-141393152D02*
X317084646Y-141440771D01*
X317084646Y-141440771D02*
X317037027Y-141488390D01*
X317037027Y-141488390D02*
X316989408Y-141583628D01*
X316989408Y-141583628D02*
X316989408Y-141869342D01*
X316989408Y-141869342D02*
X317037027Y-141964580D01*
X317037027Y-141964580D02*
X317084646Y-142012200D01*
X317084646Y-142012200D02*
X317179884Y-142059819D01*
X317179884Y-142059819D02*
X317322741Y-142059819D01*
X316608455Y-141059819D02*
X316608455Y-141250295D01*
X316227503Y-141059819D02*
X316227503Y-141250295D01*
X315179883Y-141059819D02*
X314608455Y-141059819D01*
X314894169Y-142059819D02*
X314894169Y-141059819D01*
X313846550Y-142059819D02*
X313846550Y-141536009D01*
X313846550Y-141536009D02*
X313894169Y-141440771D01*
X313894169Y-141440771D02*
X313989407Y-141393152D01*
X313989407Y-141393152D02*
X314179883Y-141393152D01*
X314179883Y-141393152D02*
X314275121Y-141440771D01*
X313846550Y-142012200D02*
X313941788Y-142059819D01*
X313941788Y-142059819D02*
X314179883Y-142059819D01*
X314179883Y-142059819D02*
X314275121Y-142012200D01*
X314275121Y-142012200D02*
X314322740Y-141916961D01*
X314322740Y-141916961D02*
X314322740Y-141821723D01*
X314322740Y-141821723D02*
X314275121Y-141726485D01*
X314275121Y-141726485D02*
X314179883Y-141678866D01*
X314179883Y-141678866D02*
X313941788Y-141678866D01*
X313941788Y-141678866D02*
X313846550Y-141631247D01*
X313465597Y-141393152D02*
X313227502Y-142059819D01*
X312989407Y-141393152D02*
X313227502Y-142059819D01*
X313227502Y-142059819D02*
X313322740Y-142297914D01*
X313322740Y-142297914D02*
X313370359Y-142345533D01*
X313370359Y-142345533D02*
X313465597Y-142393152D01*
X312465597Y-142059819D02*
X312560835Y-142012200D01*
X312560835Y-142012200D02*
X312608454Y-141916961D01*
X312608454Y-141916961D02*
X312608454Y-141059819D01*
X311941787Y-142059819D02*
X312037025Y-142012200D01*
X312037025Y-142012200D02*
X312084644Y-141964580D01*
X312084644Y-141964580D02*
X312132263Y-141869342D01*
X312132263Y-141869342D02*
X312132263Y-141583628D01*
X312132263Y-141583628D02*
X312084644Y-141488390D01*
X312084644Y-141488390D02*
X312037025Y-141440771D01*
X312037025Y-141440771D02*
X311941787Y-141393152D01*
X311941787Y-141393152D02*
X311798930Y-141393152D01*
X311798930Y-141393152D02*
X311703692Y-141440771D01*
X311703692Y-141440771D02*
X311656073Y-141488390D01*
X311656073Y-141488390D02*
X311608454Y-141583628D01*
X311608454Y-141583628D02*
X311608454Y-141869342D01*
X311608454Y-141869342D02*
X311656073Y-141964580D01*
X311656073Y-141964580D02*
X311703692Y-142012200D01*
X311703692Y-142012200D02*
X311798930Y-142059819D01*
X311798930Y-142059819D02*
X311941787Y-142059819D01*
X311179882Y-142059819D02*
X311179882Y-141393152D01*
X311179882Y-141583628D02*
X311132263Y-141488390D01*
X311132263Y-141488390D02*
X311084644Y-141440771D01*
X311084644Y-141440771D02*
X310989406Y-141393152D01*
X310989406Y-141393152D02*
X310894168Y-141393152D01*
X310513215Y-142012200D02*
X310513215Y-142059819D01*
X310513215Y-142059819D02*
X310560834Y-142155057D01*
X310560834Y-142155057D02*
X310608453Y-142202676D01*
X308751311Y-141964580D02*
X308798930Y-142012200D01*
X308798930Y-142012200D02*
X308941787Y-142059819D01*
X308941787Y-142059819D02*
X309037025Y-142059819D01*
X309037025Y-142059819D02*
X309179882Y-142012200D01*
X309179882Y-142012200D02*
X309275120Y-141916961D01*
X309275120Y-141916961D02*
X309322739Y-141821723D01*
X309322739Y-141821723D02*
X309370358Y-141631247D01*
X309370358Y-141631247D02*
X309370358Y-141488390D01*
X309370358Y-141488390D02*
X309322739Y-141297914D01*
X309322739Y-141297914D02*
X309275120Y-141202676D01*
X309275120Y-141202676D02*
X309179882Y-141107438D01*
X309179882Y-141107438D02*
X309037025Y-141059819D01*
X309037025Y-141059819D02*
X308941787Y-141059819D01*
X308941787Y-141059819D02*
X308798930Y-141107438D01*
X308798930Y-141107438D02*
X308751311Y-141155057D01*
X308322739Y-142059819D02*
X308322739Y-141059819D01*
X307894168Y-142059819D02*
X307894168Y-141536009D01*
X307894168Y-141536009D02*
X307941787Y-141440771D01*
X307941787Y-141440771D02*
X308037025Y-141393152D01*
X308037025Y-141393152D02*
X308179882Y-141393152D01*
X308179882Y-141393152D02*
X308275120Y-141440771D01*
X308275120Y-141440771D02*
X308322739Y-141488390D01*
X307417977Y-142059819D02*
X307417977Y-141393152D01*
X307417977Y-141583628D02*
X307370358Y-141488390D01*
X307370358Y-141488390D02*
X307322739Y-141440771D01*
X307322739Y-141440771D02*
X307227501Y-141393152D01*
X307227501Y-141393152D02*
X307132263Y-141393152D01*
X306798929Y-142059819D02*
X306798929Y-141393152D01*
X306798929Y-141059819D02*
X306846548Y-141107438D01*
X306846548Y-141107438D02*
X306798929Y-141155057D01*
X306798929Y-141155057D02*
X306751310Y-141107438D01*
X306751310Y-141107438D02*
X306798929Y-141059819D01*
X306798929Y-141059819D02*
X306798929Y-141155057D01*
X306370358Y-142012200D02*
X306275120Y-142059819D01*
X306275120Y-142059819D02*
X306084644Y-142059819D01*
X306084644Y-142059819D02*
X305989406Y-142012200D01*
X305989406Y-142012200D02*
X305941787Y-141916961D01*
X305941787Y-141916961D02*
X305941787Y-141869342D01*
X305941787Y-141869342D02*
X305989406Y-141774104D01*
X305989406Y-141774104D02*
X306084644Y-141726485D01*
X306084644Y-141726485D02*
X306227501Y-141726485D01*
X306227501Y-141726485D02*
X306322739Y-141678866D01*
X306322739Y-141678866D02*
X306370358Y-141583628D01*
X306370358Y-141583628D02*
X306370358Y-141536009D01*
X306370358Y-141536009D02*
X306322739Y-141440771D01*
X306322739Y-141440771D02*
X306227501Y-141393152D01*
X306227501Y-141393152D02*
X306084644Y-141393152D01*
X306084644Y-141393152D02*
X305989406Y-141440771D01*
X305560834Y-142012200D02*
X305465596Y-142059819D01*
X305465596Y-142059819D02*
X305275120Y-142059819D01*
X305275120Y-142059819D02*
X305179882Y-142012200D01*
X305179882Y-142012200D02*
X305132263Y-141916961D01*
X305132263Y-141916961D02*
X305132263Y-141869342D01*
X305132263Y-141869342D02*
X305179882Y-141774104D01*
X305179882Y-141774104D02*
X305275120Y-141726485D01*
X305275120Y-141726485D02*
X305417977Y-141726485D01*
X305417977Y-141726485D02*
X305513215Y-141678866D01*
X305513215Y-141678866D02*
X305560834Y-141583628D01*
X305560834Y-141583628D02*
X305560834Y-141536009D01*
X305560834Y-141536009D02*
X305513215Y-141440771D01*
X305513215Y-141440771D02*
X305417977Y-141393152D01*
X305417977Y-141393152D02*
X305275120Y-141393152D01*
X305275120Y-141393152D02*
X305179882Y-141440771D01*
X304798929Y-141393152D02*
X304560834Y-142059819D01*
X304322739Y-141393152D02*
X304560834Y-142059819D01*
X304560834Y-142059819D02*
X304656072Y-142297914D01*
X304656072Y-142297914D02*
X304703691Y-142345533D01*
X304703691Y-142345533D02*
X304798929Y-142393152D01*
X303894167Y-142012200D02*
X303894167Y-142059819D01*
X303894167Y-142059819D02*
X303941786Y-142155057D01*
X303941786Y-142155057D02*
X303989405Y-142202676D01*
X302179882Y-141107438D02*
X302275120Y-141059819D01*
X302275120Y-141059819D02*
X302417977Y-141059819D01*
X302417977Y-141059819D02*
X302560834Y-141107438D01*
X302560834Y-141107438D02*
X302656072Y-141202676D01*
X302656072Y-141202676D02*
X302703691Y-141297914D01*
X302703691Y-141297914D02*
X302751310Y-141488390D01*
X302751310Y-141488390D02*
X302751310Y-141631247D01*
X302751310Y-141631247D02*
X302703691Y-141821723D01*
X302703691Y-141821723D02*
X302656072Y-141916961D01*
X302656072Y-141916961D02*
X302560834Y-142012200D01*
X302560834Y-142012200D02*
X302417977Y-142059819D01*
X302417977Y-142059819D02*
X302322739Y-142059819D01*
X302322739Y-142059819D02*
X302179882Y-142012200D01*
X302179882Y-142012200D02*
X302132263Y-141964580D01*
X302132263Y-141964580D02*
X302132263Y-141631247D01*
X302132263Y-141631247D02*
X302322739Y-141631247D01*
X301703691Y-142059819D02*
X301703691Y-141393152D01*
X301703691Y-141583628D02*
X301656072Y-141488390D01*
X301656072Y-141488390D02*
X301608453Y-141440771D01*
X301608453Y-141440771D02*
X301513215Y-141393152D01*
X301513215Y-141393152D02*
X301417977Y-141393152D01*
X300656072Y-142059819D02*
X300656072Y-141536009D01*
X300656072Y-141536009D02*
X300703691Y-141440771D01*
X300703691Y-141440771D02*
X300798929Y-141393152D01*
X300798929Y-141393152D02*
X300989405Y-141393152D01*
X300989405Y-141393152D02*
X301084643Y-141440771D01*
X300656072Y-142012200D02*
X300751310Y-142059819D01*
X300751310Y-142059819D02*
X300989405Y-142059819D01*
X300989405Y-142059819D02*
X301084643Y-142012200D01*
X301084643Y-142012200D02*
X301132262Y-141916961D01*
X301132262Y-141916961D02*
X301132262Y-141821723D01*
X301132262Y-141821723D02*
X301084643Y-141726485D01*
X301084643Y-141726485D02*
X300989405Y-141678866D01*
X300989405Y-141678866D02*
X300751310Y-141678866D01*
X300751310Y-141678866D02*
X300656072Y-141631247D01*
X300179881Y-142059819D02*
X300179881Y-141059819D01*
X299751310Y-142059819D02*
X299751310Y-141536009D01*
X299751310Y-141536009D02*
X299798929Y-141440771D01*
X299798929Y-141440771D02*
X299894167Y-141393152D01*
X299894167Y-141393152D02*
X300037024Y-141393152D01*
X300037024Y-141393152D02*
X300132262Y-141440771D01*
X300132262Y-141440771D02*
X300179881Y-141488390D01*
X298846548Y-142059819D02*
X298846548Y-141536009D01*
X298846548Y-141536009D02*
X298894167Y-141440771D01*
X298894167Y-141440771D02*
X298989405Y-141393152D01*
X298989405Y-141393152D02*
X299179881Y-141393152D01*
X299179881Y-141393152D02*
X299275119Y-141440771D01*
X298846548Y-142012200D02*
X298941786Y-142059819D01*
X298941786Y-142059819D02*
X299179881Y-142059819D01*
X299179881Y-142059819D02*
X299275119Y-142012200D01*
X299275119Y-142012200D02*
X299322738Y-141916961D01*
X299322738Y-141916961D02*
X299322738Y-141821723D01*
X299322738Y-141821723D02*
X299275119Y-141726485D01*
X299275119Y-141726485D02*
X299179881Y-141678866D01*
X299179881Y-141678866D02*
X298941786Y-141678866D01*
X298941786Y-141678866D02*
X298846548Y-141631247D01*
X298370357Y-142059819D02*
X298370357Y-141393152D01*
X298370357Y-141488390D02*
X298322738Y-141440771D01*
X298322738Y-141440771D02*
X298227500Y-141393152D01*
X298227500Y-141393152D02*
X298084643Y-141393152D01*
X298084643Y-141393152D02*
X297989405Y-141440771D01*
X297989405Y-141440771D02*
X297941786Y-141536009D01*
X297941786Y-141536009D02*
X297941786Y-142059819D01*
X297941786Y-141536009D02*
X297894167Y-141440771D01*
X297894167Y-141440771D02*
X297798929Y-141393152D01*
X297798929Y-141393152D02*
X297656072Y-141393152D01*
X297656072Y-141393152D02*
X297560833Y-141440771D01*
X297560833Y-141440771D02*
X297513214Y-141536009D01*
X297513214Y-141536009D02*
X297513214Y-142059819D01*
X296417976Y-141059819D02*
X295846548Y-141059819D01*
X296132262Y-142059819D02*
X296132262Y-141059819D01*
X295513214Y-142059819D02*
X295513214Y-141059819D01*
X295084643Y-142059819D02*
X295084643Y-141536009D01*
X295084643Y-141536009D02*
X295132262Y-141440771D01*
X295132262Y-141440771D02*
X295227500Y-141393152D01*
X295227500Y-141393152D02*
X295370357Y-141393152D01*
X295370357Y-141393152D02*
X295465595Y-141440771D01*
X295465595Y-141440771D02*
X295513214Y-141488390D01*
X294465595Y-142059819D02*
X294560833Y-142012200D01*
X294560833Y-142012200D02*
X294608452Y-141964580D01*
X294608452Y-141964580D02*
X294656071Y-141869342D01*
X294656071Y-141869342D02*
X294656071Y-141583628D01*
X294656071Y-141583628D02*
X294608452Y-141488390D01*
X294608452Y-141488390D02*
X294560833Y-141440771D01*
X294560833Y-141440771D02*
X294465595Y-141393152D01*
X294465595Y-141393152D02*
X294322738Y-141393152D01*
X294322738Y-141393152D02*
X294227500Y-141440771D01*
X294227500Y-141440771D02*
X294179881Y-141488390D01*
X294179881Y-141488390D02*
X294132262Y-141583628D01*
X294132262Y-141583628D02*
X294132262Y-141869342D01*
X294132262Y-141869342D02*
X294179881Y-141964580D01*
X294179881Y-141964580D02*
X294227500Y-142012200D01*
X294227500Y-142012200D02*
X294322738Y-142059819D01*
X294322738Y-142059819D02*
X294465595Y-142059819D01*
X293703690Y-142059819D02*
X293703690Y-141393152D01*
X293703690Y-141583628D02*
X293656071Y-141488390D01*
X293656071Y-141488390D02*
X293608452Y-141440771D01*
X293608452Y-141440771D02*
X293513214Y-141393152D01*
X293513214Y-141393152D02*
X293417976Y-141393152D01*
X293084642Y-141393152D02*
X293084642Y-142059819D01*
X293084642Y-141488390D02*
X293037023Y-141440771D01*
X293037023Y-141440771D02*
X292941785Y-141393152D01*
X292941785Y-141393152D02*
X292798928Y-141393152D01*
X292798928Y-141393152D02*
X292703690Y-141440771D01*
X292703690Y-141440771D02*
X292656071Y-141536009D01*
X292656071Y-141536009D02*
X292656071Y-142059819D01*
X292322737Y-141393152D02*
X291941785Y-141393152D01*
X292179880Y-141059819D02*
X292179880Y-141916961D01*
X292179880Y-141916961D02*
X292132261Y-142012200D01*
X292132261Y-142012200D02*
X292037023Y-142059819D01*
X292037023Y-142059819D02*
X291941785Y-142059819D01*
X291465594Y-142059819D02*
X291560832Y-142012200D01*
X291560832Y-142012200D02*
X291608451Y-141964580D01*
X291608451Y-141964580D02*
X291656070Y-141869342D01*
X291656070Y-141869342D02*
X291656070Y-141583628D01*
X291656070Y-141583628D02*
X291608451Y-141488390D01*
X291608451Y-141488390D02*
X291560832Y-141440771D01*
X291560832Y-141440771D02*
X291465594Y-141393152D01*
X291465594Y-141393152D02*
X291322737Y-141393152D01*
X291322737Y-141393152D02*
X291227499Y-141440771D01*
X291227499Y-141440771D02*
X291179880Y-141488390D01*
X291179880Y-141488390D02*
X291132261Y-141583628D01*
X291132261Y-141583628D02*
X291132261Y-141869342D01*
X291132261Y-141869342D02*
X291179880Y-141964580D01*
X291179880Y-141964580D02*
X291227499Y-142012200D01*
X291227499Y-142012200D02*
X291322737Y-142059819D01*
X291322737Y-142059819D02*
X291465594Y-142059819D01*
X290703689Y-141393152D02*
X290703689Y-142059819D01*
X290703689Y-141488390D02*
X290656070Y-141440771D01*
X290656070Y-141440771D02*
X290560832Y-141393152D01*
X290560832Y-141393152D02*
X290417975Y-141393152D01*
X290417975Y-141393152D02*
X290322737Y-141440771D01*
X290322737Y-141440771D02*
X290275118Y-141536009D01*
X290275118Y-141536009D02*
X290275118Y-142059819D01*
X288608451Y-142059819D02*
X288608451Y-141536009D01*
X288608451Y-141536009D02*
X288656070Y-141440771D01*
X288656070Y-141440771D02*
X288751308Y-141393152D01*
X288751308Y-141393152D02*
X288941784Y-141393152D01*
X288941784Y-141393152D02*
X289037022Y-141440771D01*
X288608451Y-142012200D02*
X288703689Y-142059819D01*
X288703689Y-142059819D02*
X288941784Y-142059819D01*
X288941784Y-142059819D02*
X289037022Y-142012200D01*
X289037022Y-142012200D02*
X289084641Y-141916961D01*
X289084641Y-141916961D02*
X289084641Y-141821723D01*
X289084641Y-141821723D02*
X289037022Y-141726485D01*
X289037022Y-141726485D02*
X288941784Y-141678866D01*
X288941784Y-141678866D02*
X288703689Y-141678866D01*
X288703689Y-141678866D02*
X288608451Y-141631247D01*
X288132260Y-141393152D02*
X288132260Y-142059819D01*
X288132260Y-141488390D02*
X288084641Y-141440771D01*
X288084641Y-141440771D02*
X287989403Y-141393152D01*
X287989403Y-141393152D02*
X287846546Y-141393152D01*
X287846546Y-141393152D02*
X287751308Y-141440771D01*
X287751308Y-141440771D02*
X287703689Y-141536009D01*
X287703689Y-141536009D02*
X287703689Y-142059819D01*
X286798927Y-142059819D02*
X286798927Y-141059819D01*
X286798927Y-142012200D02*
X286894165Y-142059819D01*
X286894165Y-142059819D02*
X287084641Y-142059819D01*
X287084641Y-142059819D02*
X287179879Y-142012200D01*
X287179879Y-142012200D02*
X287227498Y-141964580D01*
X287227498Y-141964580D02*
X287275117Y-141869342D01*
X287275117Y-141869342D02*
X287275117Y-141583628D01*
X287275117Y-141583628D02*
X287227498Y-141488390D01*
X287227498Y-141488390D02*
X287179879Y-141440771D01*
X287179879Y-141440771D02*
X287084641Y-141393152D01*
X287084641Y-141393152D02*
X286894165Y-141393152D01*
X286894165Y-141393152D02*
X286798927Y-141440771D01*
X285703688Y-141393152D02*
X285322736Y-141393152D01*
X285560831Y-141059819D02*
X285560831Y-141916961D01*
X285560831Y-141916961D02*
X285513212Y-142012200D01*
X285513212Y-142012200D02*
X285417974Y-142059819D01*
X285417974Y-142059819D02*
X285322736Y-142059819D01*
X284989402Y-142059819D02*
X284989402Y-141059819D01*
X284560831Y-142059819D02*
X284560831Y-141536009D01*
X284560831Y-141536009D02*
X284608450Y-141440771D01*
X284608450Y-141440771D02*
X284703688Y-141393152D01*
X284703688Y-141393152D02*
X284846545Y-141393152D01*
X284846545Y-141393152D02*
X284941783Y-141440771D01*
X284941783Y-141440771D02*
X284989402Y-141488390D01*
X283703688Y-142012200D02*
X283798926Y-142059819D01*
X283798926Y-142059819D02*
X283989402Y-142059819D01*
X283989402Y-142059819D02*
X284084640Y-142012200D01*
X284084640Y-142012200D02*
X284132259Y-141916961D01*
X284132259Y-141916961D02*
X284132259Y-141536009D01*
X284132259Y-141536009D02*
X284084640Y-141440771D01*
X284084640Y-141440771D02*
X283989402Y-141393152D01*
X283989402Y-141393152D02*
X283798926Y-141393152D01*
X283798926Y-141393152D02*
X283703688Y-141440771D01*
X283703688Y-141440771D02*
X283656069Y-141536009D01*
X283656069Y-141536009D02*
X283656069Y-141631247D01*
X283656069Y-141631247D02*
X284132259Y-141726485D01*
X282132259Y-141536009D02*
X281989402Y-141583628D01*
X281989402Y-141583628D02*
X281941783Y-141631247D01*
X281941783Y-141631247D02*
X281894164Y-141726485D01*
X281894164Y-141726485D02*
X281894164Y-141869342D01*
X281894164Y-141869342D02*
X281941783Y-141964580D01*
X281941783Y-141964580D02*
X281989402Y-142012200D01*
X281989402Y-142012200D02*
X282084640Y-142059819D01*
X282084640Y-142059819D02*
X282465592Y-142059819D01*
X282465592Y-142059819D02*
X282465592Y-141059819D01*
X282465592Y-141059819D02*
X282132259Y-141059819D01*
X282132259Y-141059819D02*
X282037021Y-141107438D01*
X282037021Y-141107438D02*
X281989402Y-141155057D01*
X281989402Y-141155057D02*
X281941783Y-141250295D01*
X281941783Y-141250295D02*
X281941783Y-141345533D01*
X281941783Y-141345533D02*
X281989402Y-141440771D01*
X281989402Y-141440771D02*
X282037021Y-141488390D01*
X282037021Y-141488390D02*
X282132259Y-141536009D01*
X282132259Y-141536009D02*
X282465592Y-141536009D01*
X281322735Y-142059819D02*
X281417973Y-142012200D01*
X281417973Y-142012200D02*
X281465592Y-141964580D01*
X281465592Y-141964580D02*
X281513211Y-141869342D01*
X281513211Y-141869342D02*
X281513211Y-141583628D01*
X281513211Y-141583628D02*
X281465592Y-141488390D01*
X281465592Y-141488390D02*
X281417973Y-141440771D01*
X281417973Y-141440771D02*
X281322735Y-141393152D01*
X281322735Y-141393152D02*
X281179878Y-141393152D01*
X281179878Y-141393152D02*
X281084640Y-141440771D01*
X281084640Y-141440771D02*
X281037021Y-141488390D01*
X281037021Y-141488390D02*
X280989402Y-141583628D01*
X280989402Y-141583628D02*
X280989402Y-141869342D01*
X280989402Y-141869342D02*
X281037021Y-141964580D01*
X281037021Y-141964580D02*
X281084640Y-142012200D01*
X281084640Y-142012200D02*
X281179878Y-142059819D01*
X281179878Y-142059819D02*
X281322735Y-142059819D01*
X280132259Y-142059819D02*
X280132259Y-141536009D01*
X280132259Y-141536009D02*
X280179878Y-141440771D01*
X280179878Y-141440771D02*
X280275116Y-141393152D01*
X280275116Y-141393152D02*
X280465592Y-141393152D01*
X280465592Y-141393152D02*
X280560830Y-141440771D01*
X280132259Y-142012200D02*
X280227497Y-142059819D01*
X280227497Y-142059819D02*
X280465592Y-142059819D01*
X280465592Y-142059819D02*
X280560830Y-142012200D01*
X280560830Y-142012200D02*
X280608449Y-141916961D01*
X280608449Y-141916961D02*
X280608449Y-141821723D01*
X280608449Y-141821723D02*
X280560830Y-141726485D01*
X280560830Y-141726485D02*
X280465592Y-141678866D01*
X280465592Y-141678866D02*
X280227497Y-141678866D01*
X280227497Y-141678866D02*
X280132259Y-141631247D01*
X279656068Y-142059819D02*
X279656068Y-141393152D01*
X279656068Y-141583628D02*
X279608449Y-141488390D01*
X279608449Y-141488390D02*
X279560830Y-141440771D01*
X279560830Y-141440771D02*
X279465592Y-141393152D01*
X279465592Y-141393152D02*
X279370354Y-141393152D01*
X278608449Y-142059819D02*
X278608449Y-141059819D01*
X278608449Y-142012200D02*
X278703687Y-142059819D01*
X278703687Y-142059819D02*
X278894163Y-142059819D01*
X278894163Y-142059819D02*
X278989401Y-142012200D01*
X278989401Y-142012200D02*
X279037020Y-141964580D01*
X279037020Y-141964580D02*
X279084639Y-141869342D01*
X279084639Y-141869342D02*
X279084639Y-141583628D01*
X279084639Y-141583628D02*
X279037020Y-141488390D01*
X279037020Y-141488390D02*
X278989401Y-141440771D01*
X278989401Y-141440771D02*
X278894163Y-141393152D01*
X278894163Y-141393152D02*
X278703687Y-141393152D01*
X278703687Y-141393152D02*
X278608449Y-141440771D01*
X277037020Y-141536009D02*
X277370353Y-141536009D01*
X277370353Y-142059819D02*
X277370353Y-141059819D01*
X277370353Y-141059819D02*
X276894163Y-141059819D01*
X276370353Y-142059819D02*
X276465591Y-142012200D01*
X276465591Y-142012200D02*
X276513210Y-141964580D01*
X276513210Y-141964580D02*
X276560829Y-141869342D01*
X276560829Y-141869342D02*
X276560829Y-141583628D01*
X276560829Y-141583628D02*
X276513210Y-141488390D01*
X276513210Y-141488390D02*
X276465591Y-141440771D01*
X276465591Y-141440771D02*
X276370353Y-141393152D01*
X276370353Y-141393152D02*
X276227496Y-141393152D01*
X276227496Y-141393152D02*
X276132258Y-141440771D01*
X276132258Y-141440771D02*
X276084639Y-141488390D01*
X276084639Y-141488390D02*
X276037020Y-141583628D01*
X276037020Y-141583628D02*
X276037020Y-141869342D01*
X276037020Y-141869342D02*
X276084639Y-141964580D01*
X276084639Y-141964580D02*
X276132258Y-142012200D01*
X276132258Y-142012200D02*
X276227496Y-142059819D01*
X276227496Y-142059819D02*
X276370353Y-142059819D01*
X275465591Y-142059819D02*
X275560829Y-142012200D01*
X275560829Y-142012200D02*
X275608448Y-141916961D01*
X275608448Y-141916961D02*
X275608448Y-141059819D01*
X275084638Y-142059819D02*
X275084638Y-141059819D01*
X274989400Y-141678866D02*
X274703686Y-142059819D01*
X274703686Y-141393152D02*
X275084638Y-141774104D01*
X273656066Y-141059819D02*
X273084638Y-141059819D01*
X273370352Y-142059819D02*
X273370352Y-141059819D01*
X272370352Y-142012200D02*
X272465590Y-142059819D01*
X272465590Y-142059819D02*
X272656066Y-142059819D01*
X272656066Y-142059819D02*
X272751304Y-142012200D01*
X272751304Y-142012200D02*
X272798923Y-141916961D01*
X272798923Y-141916961D02*
X272798923Y-141536009D01*
X272798923Y-141536009D02*
X272751304Y-141440771D01*
X272751304Y-141440771D02*
X272656066Y-141393152D01*
X272656066Y-141393152D02*
X272465590Y-141393152D01*
X272465590Y-141393152D02*
X272370352Y-141440771D01*
X272370352Y-141440771D02*
X272322733Y-141536009D01*
X272322733Y-141536009D02*
X272322733Y-141631247D01*
X272322733Y-141631247D02*
X272798923Y-141726485D01*
X271465590Y-142059819D02*
X271465590Y-141536009D01*
X271465590Y-141536009D02*
X271513209Y-141440771D01*
X271513209Y-141440771D02*
X271608447Y-141393152D01*
X271608447Y-141393152D02*
X271798923Y-141393152D01*
X271798923Y-141393152D02*
X271894161Y-141440771D01*
X271465590Y-142012200D02*
X271560828Y-142059819D01*
X271560828Y-142059819D02*
X271798923Y-142059819D01*
X271798923Y-142059819D02*
X271894161Y-142012200D01*
X271894161Y-142012200D02*
X271941780Y-141916961D01*
X271941780Y-141916961D02*
X271941780Y-141821723D01*
X271941780Y-141821723D02*
X271894161Y-141726485D01*
X271894161Y-141726485D02*
X271798923Y-141678866D01*
X271798923Y-141678866D02*
X271560828Y-141678866D01*
X271560828Y-141678866D02*
X271465590Y-141631247D01*
X270989399Y-142059819D02*
X270989399Y-141393152D01*
X270989399Y-141488390D02*
X270941780Y-141440771D01*
X270941780Y-141440771D02*
X270846542Y-141393152D01*
X270846542Y-141393152D02*
X270703685Y-141393152D01*
X270703685Y-141393152D02*
X270608447Y-141440771D01*
X270608447Y-141440771D02*
X270560828Y-141536009D01*
X270560828Y-141536009D02*
X270560828Y-142059819D01*
X270560828Y-141536009D02*
X270513209Y-141440771D01*
X270513209Y-141440771D02*
X270417971Y-141393152D01*
X270417971Y-141393152D02*
X270275114Y-141393152D01*
X270275114Y-141393152D02*
X270179875Y-141440771D01*
X270179875Y-141440771D02*
X270132256Y-141536009D01*
X270132256Y-141536009D02*
X270132256Y-142059819D01*
X269656066Y-141964580D02*
X269608447Y-142012200D01*
X269608447Y-142012200D02*
X269656066Y-142059819D01*
X269656066Y-142059819D02*
X269703685Y-142012200D01*
X269703685Y-142012200D02*
X269656066Y-141964580D01*
X269656066Y-141964580D02*
X269656066Y-142059819D01*
%TO.C,G3*%
G36*
X267850234Y-127950000D02*
G01*
X267850234Y-131264335D01*
X267850234Y-131635898D01*
X267850234Y-134920509D01*
X260850000Y-134920509D01*
X253849766Y-134920509D01*
X253849766Y-132810035D01*
X254503716Y-132810035D01*
X254696928Y-132810035D01*
X254890141Y-132810035D01*
X254890141Y-133003247D01*
X254890141Y-133196459D01*
X255083353Y-133196459D01*
X255276566Y-133196459D01*
X255276566Y-133575453D01*
X255276566Y-133954447D01*
X255083353Y-133954447D01*
X254890141Y-133954447D01*
X254890141Y-134155090D01*
X254890141Y-134355734D01*
X255090785Y-134355734D01*
X255291428Y-134355734D01*
X255291428Y-134162522D01*
X255291428Y-133969309D01*
X255677853Y-133969309D01*
X256064278Y-133969309D01*
X256064278Y-133768665D01*
X256064278Y-133568022D01*
X255871065Y-133568022D01*
X255677853Y-133568022D01*
X255677853Y-133382241D01*
X255677853Y-133196459D01*
X256064278Y-133196459D01*
X256450703Y-133196459D01*
X256450703Y-133003247D01*
X256450703Y-132810035D01*
X256829696Y-132810035D01*
X257208690Y-132810035D01*
X257208690Y-132995816D01*
X257208690Y-133181597D01*
X257015477Y-133181597D01*
X256822265Y-133181597D01*
X256822265Y-133374809D01*
X256822265Y-133568022D01*
X256629053Y-133568022D01*
X256435840Y-133568022D01*
X256435840Y-133768665D01*
X256435840Y-133969309D01*
X256636484Y-133969309D01*
X256837127Y-133969309D01*
X256837127Y-133776097D01*
X256837127Y-133582884D01*
X257022909Y-133582884D01*
X257208690Y-133582884D01*
X257208690Y-133969309D01*
X257208690Y-134355734D01*
X258375395Y-134355734D01*
X259542101Y-134355734D01*
X259542101Y-134162522D01*
X259542101Y-133969309D01*
X259727882Y-133969309D01*
X259913663Y-133969309D01*
X259913663Y-134162522D01*
X259913663Y-134355734D01*
X260114307Y-134355734D01*
X260314951Y-134355734D01*
X260314951Y-134155090D01*
X260314951Y-133954447D01*
X260121738Y-133954447D01*
X259928526Y-133954447D01*
X259928526Y-133768665D01*
X259928526Y-133582884D01*
X260121738Y-133582884D01*
X260314951Y-133582884D01*
X260314951Y-133389672D01*
X260314951Y-133196459D01*
X260500732Y-133196459D01*
X260686513Y-133196459D01*
X260686513Y-133389672D01*
X260686513Y-133582884D01*
X260879725Y-133582884D01*
X261072938Y-133582884D01*
X261072938Y-133768665D01*
X261072938Y-133954447D01*
X260879725Y-133954447D01*
X260686513Y-133954447D01*
X260686513Y-134155090D01*
X260686513Y-134355734D01*
X261080369Y-134355734D01*
X261474225Y-134355734D01*
X262232212Y-134355734D01*
X262626068Y-134355734D01*
X263019924Y-134355734D01*
X263019924Y-134155090D01*
X263019924Y-133954447D01*
X262626068Y-133954447D01*
X262232212Y-133954447D01*
X262232212Y-134155090D01*
X262232212Y-134355734D01*
X261474225Y-134355734D01*
X261474225Y-133776097D01*
X261474225Y-133196459D01*
X261660006Y-133196459D01*
X261845787Y-133196459D01*
X261845787Y-133389672D01*
X261845787Y-133582884D01*
X262046431Y-133582884D01*
X262247075Y-133582884D01*
X262247075Y-133389672D01*
X262247075Y-133196459D01*
X262626068Y-133196459D01*
X263005062Y-133196459D01*
X263005062Y-133389672D01*
X263005062Y-133582884D01*
X263198274Y-133582884D01*
X263391487Y-133582884D01*
X263391487Y-133954447D01*
X263391487Y-133969309D01*
X263391487Y-134355734D01*
X263592130Y-134355734D01*
X263792774Y-134355734D01*
X263792774Y-134340871D01*
X264565624Y-134340871D01*
X265918110Y-134340871D01*
X267270597Y-134340871D01*
X267270597Y-132988385D01*
X267270597Y-131635898D01*
X265918110Y-131635898D01*
X264565624Y-131635898D01*
X264565624Y-132988385D01*
X264565624Y-134340871D01*
X263792774Y-134340871D01*
X263792774Y-133969309D01*
X263792774Y-133582884D01*
X263985986Y-133582884D01*
X264179199Y-133582884D01*
X264179199Y-132995816D01*
X264179199Y-132408747D01*
X263985986Y-132408747D01*
X263792774Y-132408747D01*
X263792774Y-132215535D01*
X263792774Y-132022323D01*
X263599562Y-132022323D01*
X263406349Y-132022323D01*
X263406349Y-131450117D01*
X263406349Y-130877911D01*
X263592130Y-130877911D01*
X263777912Y-130877911D01*
X263777912Y-131264335D01*
X263777912Y-131650760D01*
X263978555Y-131650760D01*
X264179199Y-131650760D01*
X264179199Y-131457548D01*
X264179199Y-131264335D01*
X264758836Y-131264335D01*
X265338473Y-131264335D01*
X265338473Y-131071123D01*
X265338473Y-130877911D01*
X265524254Y-130877911D01*
X265710036Y-130877911D01*
X265710036Y-131071123D01*
X265710036Y-131264335D01*
X265910679Y-131264335D01*
X266111323Y-131264335D01*
X266111323Y-131071123D01*
X266111323Y-130877911D01*
X266304535Y-130877911D01*
X266497748Y-130877911D01*
X266497748Y-130491486D01*
X266497748Y-130105061D01*
X266683529Y-130105061D01*
X266869310Y-130105061D01*
X266869310Y-130684698D01*
X266869310Y-131264335D01*
X267069954Y-131264335D01*
X267270597Y-131264335D01*
X267270597Y-129517993D01*
X267270597Y-127771650D01*
X266490316Y-127771650D01*
X265710036Y-127771650D01*
X265710036Y-127972293D01*
X265710036Y-128172937D01*
X265903248Y-128172937D01*
X266096460Y-128172937D01*
X266096460Y-128358718D01*
X266096460Y-128544499D01*
X265137830Y-128544499D01*
X264179199Y-128544499D01*
X264179199Y-128351287D01*
X264179199Y-128158074D01*
X263985986Y-128158074D01*
X263792774Y-128158074D01*
X263792774Y-127972293D01*
X263792774Y-127786512D01*
X264171768Y-127786512D01*
X264550761Y-127786512D01*
X264550761Y-127979725D01*
X264550761Y-128172937D01*
X264944617Y-128172937D01*
X265338473Y-128172937D01*
X265338473Y-127593300D01*
X265338473Y-127013663D01*
X265524254Y-127013663D01*
X265710036Y-127013663D01*
X265710036Y-127206875D01*
X265710036Y-127400087D01*
X265910679Y-127400087D01*
X266111323Y-127400087D01*
X266111323Y-127206875D01*
X266111323Y-127013663D01*
X266297104Y-127013663D01*
X266482885Y-127013663D01*
X266482885Y-127206875D01*
X266482885Y-127400087D01*
X266876741Y-127400087D01*
X267270597Y-127400087D01*
X267270597Y-126619806D01*
X267270597Y-125839526D01*
X267077385Y-125839526D01*
X266884172Y-125839526D01*
X266884172Y-125453101D01*
X266884172Y-125066676D01*
X266690960Y-125066676D01*
X266497748Y-125066676D01*
X266497748Y-124873464D01*
X266497748Y-124680251D01*
X265910679Y-124680251D01*
X265323611Y-124680251D01*
X265323611Y-124873464D01*
X265323611Y-125066676D01*
X265137830Y-125066676D01*
X264952048Y-125066676D01*
X264952048Y-124873464D01*
X264952048Y-124680251D01*
X264751405Y-124680251D01*
X264550761Y-124680251D01*
X264550761Y-124880895D01*
X264550761Y-125081538D01*
X264743974Y-125081538D01*
X264937186Y-125081538D01*
X264937186Y-125267320D01*
X264937186Y-125453101D01*
X264743974Y-125453101D01*
X264550761Y-125453101D01*
X264550761Y-125653744D01*
X264550761Y-125854388D01*
X264743974Y-125854388D01*
X264937186Y-125854388D01*
X264937186Y-126040169D01*
X264937186Y-126225950D01*
X264743974Y-126225950D01*
X264550761Y-126225950D01*
X264550761Y-126426594D01*
X264550761Y-126627238D01*
X264937186Y-126627238D01*
X265323611Y-126627238D01*
X265323611Y-126813019D01*
X265323611Y-126998800D01*
X264558192Y-126998800D01*
X263792774Y-126998800D01*
X263792774Y-126813019D01*
X263792774Y-126627238D01*
X263985986Y-126627238D01*
X264179199Y-126627238D01*
X264179199Y-126426594D01*
X264179199Y-126225950D01*
X263978555Y-126225950D01*
X263777912Y-126225950D01*
X263777912Y-126419163D01*
X263777912Y-126612375D01*
X263398918Y-126612375D01*
X263019924Y-126612375D01*
X263019924Y-126426594D01*
X263019924Y-126240813D01*
X263213137Y-126240813D01*
X263406349Y-126240813D01*
X263406349Y-126047601D01*
X263406349Y-125854388D01*
X263792774Y-125854388D01*
X264179199Y-125854388D01*
X264179199Y-125653744D01*
X264179199Y-125453101D01*
X263792774Y-125453101D01*
X263406349Y-125453101D01*
X263406349Y-125259888D01*
X263406349Y-125081538D01*
X263777912Y-125081538D01*
X263978555Y-125081538D01*
X264179199Y-125081538D01*
X264179199Y-124301258D01*
X264179199Y-123520977D01*
X264565624Y-123520977D01*
X264565624Y-124293826D01*
X265918110Y-124293826D01*
X267270597Y-124293826D01*
X267270597Y-122941340D01*
X267270597Y-121588853D01*
X265918110Y-121588853D01*
X264565624Y-121588853D01*
X264565624Y-122941340D01*
X264565624Y-123520977D01*
X264179199Y-123520977D01*
X263978555Y-123520977D01*
X263777912Y-123520977D01*
X263777912Y-124301258D01*
X263777912Y-125081538D01*
X263406349Y-125081538D01*
X263406349Y-125066676D01*
X263213137Y-125066676D01*
X263019924Y-125066676D01*
X263019924Y-124880895D01*
X263019924Y-124695114D01*
X263213137Y-124695114D01*
X263406349Y-124695114D01*
X263406349Y-123922264D01*
X263406349Y-123149414D01*
X263599562Y-123149414D01*
X263792774Y-123149414D01*
X263792774Y-122956202D01*
X263792774Y-122762990D01*
X263985986Y-122762990D01*
X264179199Y-122762990D01*
X264179199Y-122175921D01*
X264179199Y-121588853D01*
X263978555Y-121588853D01*
X263777912Y-121588853D01*
X263777912Y-121975278D01*
X263777912Y-122361702D01*
X263198274Y-122361702D01*
X262618637Y-122361702D01*
X262618637Y-122562346D01*
X262618637Y-122762990D01*
X263005062Y-122762990D01*
X263391487Y-122762990D01*
X263391487Y-122948771D01*
X263391487Y-123134552D01*
X263005062Y-123134552D01*
X262618637Y-123134552D01*
X262618637Y-123335196D01*
X262618637Y-123535839D01*
X262811849Y-123535839D01*
X263005062Y-123535839D01*
X263005062Y-124108045D01*
X263005062Y-124680251D01*
X262626068Y-124680251D01*
X262247075Y-124680251D01*
X262247075Y-124494470D01*
X262247075Y-124308689D01*
X262440287Y-124308689D01*
X262633500Y-124308689D01*
X262633500Y-124108045D01*
X262633500Y-123907402D01*
X262432856Y-123907402D01*
X262232212Y-123907402D01*
X262232212Y-124100614D01*
X262232212Y-124293826D01*
X262046431Y-124293826D01*
X261860650Y-124293826D01*
X261860650Y-124100614D01*
X261860650Y-123907402D01*
X261660006Y-123907402D01*
X261459363Y-123907402D01*
X261459363Y-124100614D01*
X261459363Y-124293826D01*
X261273581Y-124293826D01*
X261087800Y-124293826D01*
X261087800Y-124100614D01*
X261087800Y-123907402D01*
X260887157Y-123907402D01*
X260686513Y-123907402D01*
X260686513Y-124100614D01*
X260686513Y-124293826D01*
X260500732Y-124293826D01*
X260314951Y-124293826D01*
X260314951Y-123914833D01*
X260314951Y-123535839D01*
X260701376Y-123535839D01*
X261087800Y-123535839D01*
X261087800Y-123342627D01*
X261087800Y-123149414D01*
X261273581Y-123149414D01*
X261459363Y-123149414D01*
X261459363Y-123342627D01*
X261459363Y-123535839D01*
X261853219Y-123535839D01*
X262247075Y-123535839D01*
X262247075Y-123335196D01*
X262247075Y-123134552D01*
X262053862Y-123134552D01*
X261860650Y-123134552D01*
X261860650Y-122748127D01*
X261860650Y-122361702D01*
X261281013Y-122361702D01*
X260701376Y-122361702D01*
X260701376Y-122175921D01*
X260701376Y-121990140D01*
X260894588Y-121990140D01*
X261087800Y-121990140D01*
X261087800Y-121789496D01*
X261087800Y-121588853D01*
X261459363Y-121588853D01*
X261459363Y-121789496D01*
X261459363Y-121990140D01*
X261853219Y-121990140D01*
X262247075Y-121990140D01*
X262247075Y-121789496D01*
X262247075Y-121588853D01*
X263005062Y-121588853D01*
X263005062Y-121789496D01*
X263005062Y-121990140D01*
X263205706Y-121990140D01*
X263406349Y-121990140D01*
X263406349Y-121789496D01*
X263406349Y-121588853D01*
X263205706Y-121588853D01*
X263005062Y-121588853D01*
X262247075Y-121588853D01*
X261853219Y-121588853D01*
X261459363Y-121588853D01*
X261087800Y-121588853D01*
X260500732Y-121588853D01*
X259913663Y-121588853D01*
X259913663Y-121782065D01*
X259913663Y-121975278D01*
X259727882Y-121975278D01*
X259542101Y-121975278D01*
X259542101Y-121782065D01*
X259542101Y-121588853D01*
X259341457Y-121588853D01*
X259140814Y-121588853D01*
X259140814Y-121789496D01*
X259140814Y-121990140D01*
X259334026Y-121990140D01*
X259527239Y-121990140D01*
X259527239Y-122183352D01*
X259527239Y-122376565D01*
X259720451Y-122376565D01*
X259913663Y-122376565D01*
X259913663Y-122562346D01*
X259913663Y-122748127D01*
X259720451Y-122748127D01*
X259527239Y-122748127D01*
X259527239Y-122941340D01*
X259527239Y-123134552D01*
X259148245Y-123134552D01*
X258769251Y-123134552D01*
X258769251Y-122948771D01*
X258769251Y-122762990D01*
X258962464Y-122762990D01*
X259155676Y-122762990D01*
X259155676Y-122562346D01*
X259155676Y-122361702D01*
X258962464Y-122361702D01*
X258769251Y-122361702D01*
X258769251Y-122168490D01*
X258769251Y-121975278D01*
X258576039Y-121975278D01*
X258382827Y-121975278D01*
X258382827Y-121782065D01*
X258382827Y-121588853D01*
X257988971Y-121588853D01*
X257595115Y-121588853D01*
X257595115Y-122369134D01*
X257595115Y-123149414D01*
X258174752Y-123149414D01*
X258754389Y-123149414D01*
X258754389Y-123335196D01*
X258754389Y-123520977D01*
X258174752Y-123520977D01*
X257595115Y-123520977D01*
X257595115Y-123914833D01*
X257595115Y-124308689D01*
X257788327Y-124308689D01*
X257981539Y-124308689D01*
X257981539Y-124494470D01*
X257981539Y-124680251D01*
X257208690Y-124680251D01*
X256435840Y-124680251D01*
X256435840Y-124880895D01*
X256435840Y-125081538D01*
X256629053Y-125081538D01*
X256822265Y-125081538D01*
X256822265Y-125267320D01*
X256822265Y-125453101D01*
X256629053Y-125453101D01*
X256435840Y-125453101D01*
X256435840Y-125653744D01*
X256435840Y-125854388D01*
X256829696Y-125854388D01*
X257223552Y-125854388D01*
X257223552Y-125661176D01*
X257223552Y-125467963D01*
X257409333Y-125467963D01*
X257595115Y-125467963D01*
X257595115Y-125846957D01*
X257595115Y-126225950D01*
X257401902Y-126225950D01*
X257208690Y-126225950D01*
X257208690Y-126419163D01*
X257208690Y-126612375D01*
X257022909Y-126612375D01*
X256837127Y-126612375D01*
X256837127Y-126419163D01*
X256837127Y-126225950D01*
X256636484Y-126225950D01*
X256435840Y-126225950D01*
X256435840Y-126612375D01*
X256435840Y-126998800D01*
X256250059Y-126998800D01*
X256064278Y-126998800D01*
X256064278Y-126805588D01*
X256064278Y-126612375D01*
X255863634Y-126612375D01*
X255662990Y-126612375D01*
X255662990Y-126998800D01*
X255662990Y-127385225D01*
X255477209Y-127385225D01*
X255291428Y-127385225D01*
X255291428Y-127192012D01*
X255291428Y-126998800D01*
X255098216Y-126998800D01*
X254905003Y-126998800D01*
X254905003Y-126813019D01*
X254905003Y-126627238D01*
X255098216Y-126627238D01*
X255291428Y-126627238D01*
X255291428Y-126434025D01*
X255291428Y-126240813D01*
X255484641Y-126240813D01*
X255677853Y-126240813D01*
X255677853Y-126047601D01*
X255677853Y-125854388D01*
X255871065Y-125854388D01*
X256064278Y-125854388D01*
X256064278Y-125460532D01*
X256064278Y-125066676D01*
X255871065Y-125066676D01*
X255677853Y-125066676D01*
X255677853Y-124873464D01*
X255677853Y-124680251D01*
X255090785Y-124680251D01*
X254503716Y-124680251D01*
X254503716Y-125074107D01*
X254503716Y-125467963D01*
X254696928Y-125467963D01*
X254890141Y-125467963D01*
X254890141Y-125653744D01*
X254890141Y-125839526D01*
X254696928Y-125839526D01*
X254503716Y-125839526D01*
X254503716Y-126040169D01*
X254503716Y-126240813D01*
X254696928Y-126240813D01*
X254890141Y-126240813D01*
X254890141Y-126426594D01*
X254890141Y-126612375D01*
X254696928Y-126612375D01*
X254503716Y-126612375D01*
X254503716Y-126813019D01*
X254503716Y-127013663D01*
X254696928Y-127013663D01*
X254890141Y-127013663D01*
X254890141Y-127392656D01*
X254890141Y-127771650D01*
X254696928Y-127771650D01*
X254503716Y-127771650D01*
X254503716Y-128165506D01*
X254503716Y-128559362D01*
X254696928Y-128559362D01*
X254890141Y-128559362D01*
X254890141Y-128745143D01*
X254890141Y-128930924D01*
X254696928Y-128930924D01*
X254503716Y-128930924D01*
X254503716Y-129131568D01*
X254503716Y-129332211D01*
X254696928Y-129332211D01*
X254890141Y-129332211D01*
X254890141Y-129517993D01*
X254890141Y-129703774D01*
X254696928Y-129703774D01*
X254503716Y-129703774D01*
X254503716Y-129904417D01*
X254503716Y-130105061D01*
X254696928Y-130105061D01*
X254890141Y-130105061D01*
X254890141Y-130290842D01*
X254890141Y-130476623D01*
X254696928Y-130476623D01*
X254503716Y-130476623D01*
X254503716Y-131063692D01*
X254503716Y-131650760D01*
X254696928Y-131650760D01*
X254890141Y-131650760D01*
X254890141Y-131836541D01*
X254890141Y-132022323D01*
X254696928Y-132022323D01*
X254503716Y-132022323D01*
X254503716Y-132416179D01*
X254503716Y-132810035D01*
X253849766Y-132810035D01*
X253849766Y-127950000D01*
X253849766Y-121588853D01*
X254518579Y-121588853D01*
X254518579Y-122941340D01*
X254518579Y-124293826D01*
X255871065Y-124293826D01*
X257223552Y-124293826D01*
X257223552Y-122941340D01*
X257223552Y-121588853D01*
X255871065Y-121588853D01*
X254518579Y-121588853D01*
X253849766Y-121588853D01*
X253849766Y-120979491D01*
X260850000Y-120979491D01*
X267850234Y-120979491D01*
X267850234Y-121588853D01*
X267850234Y-127950000D01*
G37*
G36*
X259140814Y-131650760D02*
G01*
X259140814Y-132037185D01*
X259341457Y-132037185D01*
X259542101Y-132037185D01*
X259542101Y-131650760D01*
X259542101Y-131264335D01*
X259727882Y-131264335D01*
X259913663Y-131264335D01*
X259913663Y-131457548D01*
X259913663Y-131650760D01*
X260300088Y-131650760D01*
X260686513Y-131650760D01*
X260686513Y-131836541D01*
X260686513Y-132022323D01*
X260493301Y-132022323D01*
X260300088Y-132022323D01*
X260300088Y-132215535D01*
X260300088Y-132408747D01*
X259913663Y-132408747D01*
X259527239Y-132408747D01*
X259527239Y-132795172D01*
X259527239Y-133181597D01*
X259334026Y-133181597D01*
X259140814Y-133181597D01*
X259140814Y-133568022D01*
X259140814Y-133954447D01*
X258375395Y-133954447D01*
X257609977Y-133954447D01*
X257609977Y-133768665D01*
X257609977Y-133582884D01*
X257803189Y-133582884D01*
X257996402Y-133582884D01*
X257996402Y-133389672D01*
X257996402Y-133196459D01*
X258189614Y-133196459D01*
X258382827Y-133196459D01*
X258382827Y-133003247D01*
X258382827Y-132810035D01*
X258769251Y-132810035D01*
X259155676Y-132810035D01*
X259155676Y-132609391D01*
X259155676Y-132408747D01*
X258769251Y-132408747D01*
X258382827Y-132408747D01*
X258382827Y-132222966D01*
X258382827Y-132037185D01*
X258576039Y-132037185D01*
X258769251Y-132037185D01*
X258769251Y-131836541D01*
X258769251Y-131635898D01*
X258576039Y-131635898D01*
X258382827Y-131635898D01*
X258382827Y-131450117D01*
X258382827Y-131264335D01*
X258761820Y-131264335D01*
X259140814Y-131264335D01*
X259140814Y-131650760D01*
G37*
G36*
X259913663Y-133382241D02*
G01*
X259913663Y-133568022D01*
X259727882Y-133568022D01*
X259542101Y-133568022D01*
X259542101Y-133382241D01*
X259542101Y-133196459D01*
X259727882Y-133196459D01*
X259913663Y-133196459D01*
X259913663Y-133382241D01*
G37*
G36*
X263777912Y-132802603D02*
G01*
X263777912Y-133181597D01*
X263592130Y-133181597D01*
X263406349Y-133181597D01*
X263406349Y-132988385D01*
X263406349Y-132795172D01*
X263213137Y-132795172D01*
X263019924Y-132795172D01*
X263019924Y-132609391D01*
X263019924Y-132423610D01*
X263398918Y-132423610D01*
X263777912Y-132423610D01*
X263777912Y-132802603D01*
G37*
G36*
X255662990Y-132995816D02*
G01*
X255662990Y-133181597D01*
X255477209Y-133181597D01*
X255291428Y-133181597D01*
X255291428Y-132995816D01*
X255291428Y-132810035D01*
X255477209Y-132810035D01*
X255662990Y-132810035D01*
X255662990Y-132995816D01*
G37*
G36*
X262618637Y-132416179D02*
G01*
X262618637Y-132795172D01*
X262239644Y-132795172D01*
X261860650Y-132795172D01*
X261860650Y-132609391D01*
X261860650Y-132423610D01*
X262053862Y-132423610D01*
X262247075Y-132423610D01*
X262247075Y-132230397D01*
X262247075Y-132037185D01*
X262432856Y-132037185D01*
X262618637Y-132037185D01*
X262618637Y-132416179D01*
G37*
G36*
X260686513Y-132609391D02*
G01*
X260686513Y-132795172D01*
X260500732Y-132795172D01*
X260314951Y-132795172D01*
X260314951Y-132609391D01*
X260314951Y-132423610D01*
X260500732Y-132423610D01*
X260686513Y-132423610D01*
X260686513Y-132609391D01*
G37*
G36*
X258367964Y-132609391D02*
G01*
X258367964Y-132795172D01*
X258182183Y-132795172D01*
X257996402Y-132795172D01*
X257996402Y-132609391D01*
X257996402Y-132423610D01*
X258182183Y-132423610D01*
X258367964Y-132423610D01*
X258367964Y-132609391D01*
G37*
G36*
X256049415Y-132609391D02*
G01*
X256049415Y-132795172D01*
X255863634Y-132795172D01*
X255677853Y-132795172D01*
X255677853Y-132609391D01*
X255677853Y-132423610D01*
X255863634Y-132423610D01*
X256049415Y-132423610D01*
X256049415Y-132609391D01*
G37*
G36*
X262232212Y-131836541D02*
G01*
X262232212Y-132022323D01*
X261845787Y-132022323D01*
X261459363Y-132022323D01*
X261459363Y-132215535D01*
X261459363Y-132408747D01*
X261080369Y-132408747D01*
X260701376Y-132408747D01*
X260701376Y-132222966D01*
X260701376Y-132037185D01*
X260894588Y-132037185D01*
X261087800Y-132037185D01*
X261087800Y-131843973D01*
X261087800Y-131650760D01*
X261660006Y-131650760D01*
X262232212Y-131650760D01*
X262232212Y-131836541D01*
G37*
G36*
X257595115Y-131836541D02*
G01*
X257595115Y-132408747D01*
X257022909Y-132408747D01*
X256450703Y-132408747D01*
X256450703Y-132037185D01*
X256822265Y-132037185D01*
X257022909Y-132037185D01*
X257223552Y-132037185D01*
X257223552Y-131836541D01*
X257223552Y-131635898D01*
X257022909Y-131635898D01*
X256822265Y-131635898D01*
X256822265Y-131836541D01*
X256822265Y-132037185D01*
X256450703Y-132037185D01*
X256450703Y-131836541D01*
X256450703Y-131264335D01*
X257022909Y-131264335D01*
X257595115Y-131264335D01*
X257595115Y-131635898D01*
X257595115Y-131836541D01*
G37*
G36*
X263005062Y-131836541D02*
G01*
X263005062Y-132022323D01*
X262819281Y-132022323D01*
X262633500Y-132022323D01*
X262633500Y-131836541D01*
X262633500Y-131650760D01*
X262819281Y-131650760D01*
X263005062Y-131650760D01*
X263005062Y-131836541D01*
G37*
G36*
X255662990Y-131450117D02*
G01*
X255662990Y-132022323D01*
X255477209Y-132022323D01*
X255291428Y-132022323D01*
X255291428Y-131829110D01*
X255291428Y-131635898D01*
X255098216Y-131635898D01*
X254905003Y-131635898D01*
X254905003Y-131450117D01*
X254905003Y-131264335D01*
X255098216Y-131264335D01*
X255291428Y-131264335D01*
X255291428Y-131071123D01*
X255291428Y-130877911D01*
X255477209Y-130877911D01*
X255662990Y-130877911D01*
X255662990Y-131450117D01*
G37*
G36*
X262633500Y-127786512D02*
G01*
X262819281Y-127786512D01*
X263005062Y-127786512D01*
X263005062Y-128358718D01*
X263005062Y-128930924D01*
X262819281Y-128930924D01*
X262633500Y-128930924D01*
X262633500Y-129131568D01*
X262633500Y-129332211D01*
X262826712Y-129332211D01*
X263019924Y-129332211D01*
X263019924Y-129138999D01*
X263019924Y-128945787D01*
X263205706Y-128945787D01*
X263391487Y-128945787D01*
X263391487Y-129138999D01*
X263391487Y-129332211D01*
X263777912Y-129332211D01*
X264164336Y-129332211D01*
X264164336Y-129517993D01*
X264164336Y-129703774D01*
X263971124Y-129703774D01*
X263777912Y-129703774D01*
X263777912Y-129904417D01*
X263777912Y-130105061D01*
X263978555Y-130105061D01*
X264179199Y-130105061D01*
X264179199Y-129911849D01*
X264179199Y-129718636D01*
X264558192Y-129718636D01*
X264937186Y-129718636D01*
X264937186Y-129904417D01*
X264937186Y-130090199D01*
X264743974Y-130090199D01*
X264550761Y-130090199D01*
X264550761Y-130290842D01*
X264550761Y-130491486D01*
X264743974Y-130491486D01*
X264937186Y-130491486D01*
X264937186Y-130677267D01*
X264937186Y-130863048D01*
X264558192Y-130863048D01*
X264179199Y-130863048D01*
X264179199Y-130669836D01*
X264179199Y-130476623D01*
X263792774Y-130476623D01*
X263406349Y-130476623D01*
X263406349Y-130283411D01*
X263406349Y-130090199D01*
X263205706Y-130090199D01*
X263005062Y-130090199D01*
X263005062Y-130669836D01*
X263005062Y-131249473D01*
X262626068Y-131249473D01*
X262247075Y-131249473D01*
X262247075Y-131063692D01*
X262247075Y-130877911D01*
X262440287Y-130877911D01*
X262633500Y-130877911D01*
X262633500Y-130677267D01*
X262633500Y-130476623D01*
X262440287Y-130476623D01*
X262247075Y-130476623D01*
X262247075Y-130283411D01*
X262247075Y-130090199D01*
X262054306Y-130090199D01*
X261861538Y-130090199D01*
X261857378Y-129900702D01*
X261853219Y-129711205D01*
X261656291Y-129707058D01*
X261459363Y-129702911D01*
X261459363Y-130089767D01*
X261459363Y-130476623D01*
X260887157Y-130476623D01*
X260314951Y-130476623D01*
X260314951Y-130290842D01*
X260314951Y-130105061D01*
X260508594Y-130105061D01*
X260702238Y-130105061D01*
X260698091Y-129908133D01*
X260693944Y-129711205D01*
X260497016Y-129707058D01*
X260300088Y-129702911D01*
X260300088Y-129896555D01*
X260300088Y-130090199D01*
X259334026Y-130090199D01*
X258367964Y-130090199D01*
X258367964Y-130669836D01*
X258367964Y-131249473D01*
X258182183Y-131249473D01*
X257996402Y-131249473D01*
X257996402Y-130863048D01*
X257996402Y-130476623D01*
X257795758Y-130476623D01*
X257595115Y-130476623D01*
X257595115Y-130669836D01*
X257595115Y-130863048D01*
X256829696Y-130863048D01*
X256064278Y-130863048D01*
X256064278Y-130491486D01*
X256435840Y-130491486D01*
X256636484Y-130491486D01*
X256837127Y-130491486D01*
X256837127Y-130290842D01*
X256837127Y-130090199D01*
X256636484Y-130090199D01*
X256435840Y-130090199D01*
X256435840Y-130290842D01*
X256435840Y-130491486D01*
X256064278Y-130491486D01*
X256064278Y-130476623D01*
X256064278Y-130090199D01*
X255484641Y-130090199D01*
X254905003Y-130090199D01*
X254905003Y-129904417D01*
X254905003Y-129718636D01*
X255098216Y-129718636D01*
X255291428Y-129718636D01*
X255291428Y-129525424D01*
X255291428Y-129332211D01*
X255477209Y-129332211D01*
X255662990Y-129332211D01*
X255662990Y-129525424D01*
X255662990Y-129718636D01*
X256629053Y-129718636D01*
X257595115Y-129718636D01*
X257595115Y-129911849D01*
X257595115Y-130090199D01*
X257595115Y-130105061D01*
X257795758Y-130105061D01*
X257996402Y-130105061D01*
X257996402Y-129904417D01*
X257996402Y-129703774D01*
X257803189Y-129703774D01*
X257609977Y-129703774D01*
X257609977Y-129517993D01*
X257609977Y-129332211D01*
X257988971Y-129332211D01*
X258367964Y-129332211D01*
X258367964Y-129525424D01*
X258367964Y-129718636D01*
X258568608Y-129718636D01*
X258769251Y-129718636D01*
X258769251Y-129525424D01*
X258769251Y-129332211D01*
X258962895Y-129332211D01*
X259156539Y-129332211D01*
X259152392Y-129135283D01*
X259148245Y-128938355D01*
X258379111Y-128934506D01*
X257609977Y-128930657D01*
X257609977Y-128745009D01*
X257609977Y-128559362D01*
X257996402Y-128559362D01*
X258382827Y-128559362D01*
X258754389Y-128559362D01*
X258955464Y-128559362D01*
X259156539Y-128559362D01*
X259152392Y-128362434D01*
X259150763Y-128285100D01*
X259447818Y-128285100D01*
X259448924Y-128287778D01*
X259460175Y-128303368D01*
X259480612Y-128315332D01*
X259513657Y-128324118D01*
X259562729Y-128330173D01*
X259631250Y-128333944D01*
X259722639Y-128335879D01*
X259840318Y-128336424D01*
X259870517Y-128336442D01*
X259960056Y-128336712D01*
X260037258Y-128337269D01*
X260097777Y-128338061D01*
X260137265Y-128339035D01*
X260151376Y-128340140D01*
X260149489Y-128346464D01*
X260139662Y-128377012D01*
X260122584Y-128429299D01*
X260099550Y-128499381D01*
X260079757Y-128559362D01*
X260071852Y-128583317D01*
X260040785Y-128677164D01*
X260005870Y-128783603D01*
X259977490Y-128873969D01*
X259958092Y-128942557D01*
X259947159Y-128992593D01*
X259944179Y-129027303D01*
X259948636Y-129049909D01*
X259960015Y-129063638D01*
X259977801Y-129071714D01*
X259988616Y-129073080D01*
X260027575Y-129075053D01*
X260090686Y-129076879D01*
X260174584Y-129078547D01*
X260275905Y-129080044D01*
X260391281Y-129081355D01*
X260517349Y-129082470D01*
X260650741Y-129083375D01*
X260788092Y-129084056D01*
X260926038Y-129084503D01*
X261061211Y-129084700D01*
X261190247Y-129084637D01*
X261309780Y-129084300D01*
X261416445Y-129083676D01*
X261506875Y-129082752D01*
X261577705Y-129081517D01*
X261625569Y-129079956D01*
X261647103Y-129078057D01*
X261652522Y-129076434D01*
X261688755Y-129060662D01*
X261721590Y-129035407D01*
X261752948Y-128997485D01*
X261784748Y-128943709D01*
X261818913Y-128870897D01*
X261857364Y-128775861D01*
X261902020Y-128655419D01*
X261928893Y-128580035D01*
X261964338Y-128475640D01*
X261989190Y-128393009D01*
X262003978Y-128328616D01*
X262009233Y-128278931D01*
X262005487Y-128240426D01*
X261993269Y-128209573D01*
X261973111Y-128182844D01*
X261936948Y-128143823D01*
X261992397Y-128128892D01*
X261995696Y-128127952D01*
X262044544Y-128105180D01*
X262085910Y-128072852D01*
X262102294Y-128046832D01*
X262126043Y-127996306D01*
X262154693Y-127927073D01*
X262186499Y-127844184D01*
X262219716Y-127752692D01*
X262252597Y-127657650D01*
X262283396Y-127564110D01*
X262310369Y-127477124D01*
X262331769Y-127401745D01*
X262345850Y-127343025D01*
X262350868Y-127306017D01*
X262349643Y-127284895D01*
X262329182Y-127211043D01*
X262288066Y-127144673D01*
X262232204Y-127096234D01*
X262225184Y-127092251D01*
X262214807Y-127087350D01*
X262201845Y-127083078D01*
X262184360Y-127079385D01*
X262160412Y-127076219D01*
X262128064Y-127073530D01*
X262085377Y-127071267D01*
X262030411Y-127069378D01*
X261961229Y-127067813D01*
X261875893Y-127066521D01*
X261772462Y-127065451D01*
X261649000Y-127064551D01*
X261503567Y-127063772D01*
X261334225Y-127063062D01*
X261139035Y-127062369D01*
X260916059Y-127061644D01*
X259651924Y-127057607D01*
X259619862Y-127091735D01*
X259616462Y-127096005D01*
X259598784Y-127127803D01*
X259575259Y-127179459D01*
X259548416Y-127244296D01*
X259520783Y-127315638D01*
X259494889Y-127386809D01*
X259473262Y-127451130D01*
X259458432Y-127501925D01*
X259452926Y-127532517D01*
X259458755Y-127554113D01*
X259480103Y-127583562D01*
X259480712Y-127584102D01*
X259492260Y-127591180D01*
X259511048Y-127596981D01*
X259540290Y-127601737D01*
X259583197Y-127605682D01*
X259642980Y-127609046D01*
X259722850Y-127612064D01*
X259826021Y-127614967D01*
X259955702Y-127617987D01*
X259999537Y-127618994D01*
X260108071Y-127621900D01*
X260204993Y-127625080D01*
X260286681Y-127628377D01*
X260349513Y-127631633D01*
X260389869Y-127634692D01*
X260404126Y-127637398D01*
X260400191Y-127653699D01*
X260388978Y-127690470D01*
X260373036Y-127739039D01*
X260341947Y-127831100D01*
X259997758Y-127831572D01*
X259921704Y-127831715D01*
X259823830Y-127832401D01*
X259749437Y-127834321D01*
X259694705Y-127838235D01*
X259655817Y-127844903D01*
X259628951Y-127855088D01*
X259610290Y-127869549D01*
X259596014Y-127889048D01*
X259582304Y-127914347D01*
X259557963Y-127965282D01*
X259530814Y-128028767D01*
X259504127Y-128096601D01*
X259480193Y-128162467D01*
X259461303Y-128220050D01*
X259449747Y-128263033D01*
X259447818Y-128285100D01*
X259150763Y-128285100D01*
X259148245Y-128165506D01*
X258951317Y-128161359D01*
X258754389Y-128157212D01*
X258754389Y-128358287D01*
X258754389Y-128559362D01*
X258382827Y-128559362D01*
X258382827Y-128358718D01*
X258382827Y-128158074D01*
X257996402Y-128158074D01*
X257609977Y-128158074D01*
X257609977Y-127972293D01*
X257609977Y-127786512D01*
X258383258Y-127786512D01*
X259156539Y-127786512D01*
X259152392Y-127589584D01*
X259148245Y-127392656D01*
X258958748Y-127388496D01*
X258769251Y-127384337D01*
X258769251Y-127005787D01*
X258769251Y-126627238D01*
X258962464Y-126627238D01*
X259155676Y-126627238D01*
X259155676Y-126426594D01*
X259155676Y-126225950D01*
X259348889Y-126225950D01*
X259542101Y-126225950D01*
X259542101Y-126040169D01*
X259542101Y-125854388D01*
X259921095Y-125854388D01*
X260300088Y-125854388D01*
X260300088Y-126040169D01*
X260300088Y-126225950D01*
X260693944Y-126225950D01*
X261087800Y-126225950D01*
X261087800Y-125646313D01*
X261087800Y-125066676D01*
X260894588Y-125066676D01*
X260701376Y-125066676D01*
X260701376Y-124687682D01*
X260701376Y-124308689D01*
X260887157Y-124308689D01*
X261072938Y-124308689D01*
X261072938Y-124501901D01*
X261072938Y-124695114D01*
X261459363Y-124695114D01*
X261845787Y-124695114D01*
X261845787Y-124888326D01*
X261845787Y-125081538D01*
X262039000Y-125081538D01*
X262232212Y-125081538D01*
X262232212Y-125267320D01*
X262232212Y-125453101D01*
X262039000Y-125453101D01*
X261845787Y-125453101D01*
X261845787Y-125653744D01*
X261845787Y-125854388D01*
X262046431Y-125854388D01*
X262247075Y-125854388D01*
X262247075Y-125661176D01*
X262247075Y-125467963D01*
X262440287Y-125467963D01*
X262633500Y-125467963D01*
X262633500Y-125274751D01*
X262633500Y-125081538D01*
X262819281Y-125081538D01*
X263005062Y-125081538D01*
X263005062Y-125274751D01*
X263005062Y-125467963D01*
X263198274Y-125467963D01*
X263391487Y-125467963D01*
X263391487Y-125653744D01*
X263391487Y-125839526D01*
X263002707Y-125839526D01*
X262613927Y-125839526D01*
X262623713Y-126131734D01*
X262624741Y-126166180D01*
X262626770Y-126257259D01*
X262628622Y-126370828D01*
X262630247Y-126502008D01*
X262631596Y-126645919D01*
X262632621Y-126797679D01*
X262633272Y-126952408D01*
X262633500Y-127105228D01*
X262633500Y-127306017D01*
X262633500Y-127786512D01*
G37*
G36*
X261845787Y-131063692D02*
G01*
X261845787Y-131249473D01*
X261080369Y-131249473D01*
X260314951Y-131249473D01*
X260314951Y-131063692D01*
X260314951Y-130877911D01*
X261080369Y-130877911D01*
X261845787Y-130877911D01*
X261845787Y-131063692D01*
G37*
G36*
X259527239Y-131063692D02*
G01*
X259527239Y-131249473D01*
X259341457Y-131249473D01*
X259155676Y-131249473D01*
X259155676Y-131063692D01*
X259155676Y-130877911D01*
X259341457Y-130877911D01*
X259527239Y-130877911D01*
X259527239Y-131063692D01*
G37*
G36*
X266869310Y-128745143D02*
G01*
X266869310Y-128930924D01*
X266676098Y-128930924D01*
X266482885Y-128930924D01*
X266482885Y-129131568D01*
X266482885Y-129332211D01*
X266676098Y-129332211D01*
X266869310Y-129332211D01*
X266869310Y-129517993D01*
X266869310Y-129703774D01*
X266482885Y-129703774D01*
X266096460Y-129703774D01*
X266096460Y-130090199D01*
X266096460Y-130476623D01*
X265910679Y-130476623D01*
X265724898Y-130476623D01*
X265724898Y-130283411D01*
X265724898Y-130090199D01*
X265531686Y-130090199D01*
X265338473Y-130090199D01*
X265338473Y-129904417D01*
X265338473Y-129718636D01*
X265531686Y-129718636D01*
X265724898Y-129718636D01*
X265724898Y-129525424D01*
X265724898Y-129332211D01*
X265918110Y-129332211D01*
X266111323Y-129332211D01*
X266111323Y-128945787D01*
X266111323Y-128559362D01*
X266490316Y-128559362D01*
X266869310Y-128559362D01*
X266869310Y-128745143D01*
G37*
G36*
X265323611Y-130290842D02*
G01*
X265323611Y-130476623D01*
X265137830Y-130476623D01*
X264952048Y-130476623D01*
X264952048Y-130290842D01*
X264952048Y-130105061D01*
X265137830Y-130105061D01*
X265323611Y-130105061D01*
X265323611Y-130290842D01*
G37*
G36*
X265710036Y-129131568D02*
G01*
X265710036Y-129317349D01*
X265524254Y-129317349D01*
X265338473Y-129317349D01*
X265338473Y-129131568D01*
X265338473Y-128945787D01*
X265524254Y-128945787D01*
X265710036Y-128945787D01*
X265710036Y-129131568D01*
G37*
G36*
X264937186Y-129131568D02*
G01*
X264937186Y-129317349D01*
X264558192Y-129317349D01*
X264179199Y-129317349D01*
X264179199Y-129131568D01*
X264179199Y-128945787D01*
X264558192Y-128945787D01*
X264937186Y-128945787D01*
X264937186Y-129131568D01*
G37*
G36*
X257595115Y-129131568D02*
G01*
X257595115Y-129317349D01*
X257409333Y-129317349D01*
X257223552Y-129317349D01*
X257223552Y-129131568D01*
X257223552Y-128945787D01*
X257409333Y-128945787D01*
X257595115Y-128945787D01*
X257595115Y-129131568D01*
G37*
G36*
X256435840Y-129131568D02*
G01*
X256435840Y-129317349D01*
X256250059Y-129317349D01*
X256064278Y-129317349D01*
X256064278Y-129131568D01*
X256064278Y-128945787D01*
X256250059Y-128945787D01*
X256435840Y-128945787D01*
X256435840Y-129131568D01*
G37*
G36*
X255276566Y-129131568D02*
G01*
X255276566Y-129317349D01*
X255090785Y-129317349D01*
X254905003Y-129317349D01*
X254905003Y-129131568D01*
X254905003Y-128945787D01*
X255090785Y-128945787D01*
X255276566Y-128945787D01*
X255276566Y-129131568D01*
G37*
G36*
X256049415Y-127979725D02*
G01*
X256049415Y-128172937D01*
X256435840Y-128172937D01*
X256822265Y-128172937D01*
X256822265Y-128358718D01*
X256822265Y-128544499D01*
X256435840Y-128544499D01*
X256049415Y-128544499D01*
X256049415Y-128737712D01*
X256049415Y-128930924D01*
X255863634Y-128930924D01*
X255677853Y-128930924D01*
X255677853Y-128737712D01*
X255677853Y-128544499D01*
X255291428Y-128544499D01*
X254905003Y-128544499D01*
X254905003Y-128358718D01*
X254905003Y-128172937D01*
X255098216Y-128172937D01*
X255291428Y-128172937D01*
X255291428Y-127979725D01*
X255291428Y-127786512D01*
X255670422Y-127786512D01*
X256049415Y-127786512D01*
X256049415Y-127979725D01*
G37*
G36*
X257595115Y-128358718D02*
G01*
X257595115Y-128544499D01*
X257409333Y-128544499D01*
X257223552Y-128544499D01*
X257223552Y-128358718D01*
X257223552Y-128172937D01*
X257409333Y-128172937D01*
X257595115Y-128172937D01*
X257595115Y-128358718D01*
G37*
G36*
X257208690Y-127972293D02*
G01*
X257208690Y-128158074D01*
X257022909Y-128158074D01*
X256837127Y-128158074D01*
X256837127Y-127972293D01*
X256837127Y-127786512D01*
X257022909Y-127786512D01*
X257208690Y-127786512D01*
X257208690Y-127972293D01*
G37*
G36*
X264937186Y-127585868D02*
G01*
X264937186Y-127771650D01*
X264751405Y-127771650D01*
X264565624Y-127771650D01*
X264565624Y-127585868D01*
X264565624Y-127400087D01*
X264751405Y-127400087D01*
X264937186Y-127400087D01*
X264937186Y-127585868D01*
G37*
G36*
X263777912Y-127199444D02*
G01*
X263777912Y-127385225D01*
X263592130Y-127385225D01*
X263406349Y-127385225D01*
X263406349Y-127199444D01*
X263406349Y-127013663D01*
X263592130Y-127013663D01*
X263777912Y-127013663D01*
X263777912Y-127199444D01*
G37*
G36*
X258367964Y-127199444D02*
G01*
X258367964Y-127385225D01*
X258182183Y-127385225D01*
X257996402Y-127385225D01*
X257996402Y-127199444D01*
X257996402Y-127013663D01*
X258182183Y-127013663D01*
X258367964Y-127013663D01*
X258367964Y-127199444D01*
G37*
G36*
X256822265Y-127199444D02*
G01*
X256822265Y-127385225D01*
X256636484Y-127385225D01*
X256450703Y-127385225D01*
X256450703Y-127199444D01*
X256450703Y-127013663D01*
X256636484Y-127013663D01*
X256822265Y-127013663D01*
X256822265Y-127199444D01*
G37*
G36*
X266869310Y-126813019D02*
G01*
X266869310Y-126998800D01*
X266683529Y-126998800D01*
X266497748Y-126998800D01*
X266497748Y-126813019D01*
X266497748Y-126627238D01*
X266683529Y-126627238D01*
X266869310Y-126627238D01*
X266869310Y-126813019D01*
G37*
G36*
X266096460Y-126619806D02*
G01*
X266096460Y-126998800D01*
X265910679Y-126998800D01*
X265724898Y-126998800D01*
X265724898Y-126805588D01*
X265724898Y-126612375D01*
X265531686Y-126612375D01*
X265338473Y-126612375D01*
X265338473Y-126426594D01*
X265338473Y-126240813D01*
X265717467Y-126240813D01*
X266096460Y-126240813D01*
X266096460Y-126619806D01*
G37*
G36*
X258754389Y-126426594D02*
G01*
X258754389Y-126612375D01*
X258375395Y-126612375D01*
X257996402Y-126612375D01*
X257996402Y-126426594D01*
X257996402Y-126240813D01*
X258375395Y-126240813D01*
X258754389Y-126240813D01*
X258754389Y-126426594D01*
G37*
G36*
X266096460Y-125653744D02*
G01*
X266096460Y-125839526D01*
X265717467Y-125839526D01*
X265338473Y-125839526D01*
X265338473Y-125653744D01*
X265338473Y-125467963D01*
X265717467Y-125467963D01*
X266096460Y-125467963D01*
X266096460Y-125653744D01*
G37*
G36*
X260686513Y-125653744D02*
G01*
X260686513Y-125839526D01*
X260500732Y-125839526D01*
X260314951Y-125839526D01*
X260314951Y-125653744D01*
X260314951Y-125467963D01*
X260500732Y-125467963D01*
X260686513Y-125467963D01*
X260686513Y-125653744D01*
G37*
G36*
X259527239Y-125460532D02*
G01*
X259527239Y-125839526D01*
X259341457Y-125839526D01*
X259155676Y-125839526D01*
X259155676Y-125460532D01*
X259155676Y-125081538D01*
X259341457Y-125081538D01*
X259527239Y-125081538D01*
X259527239Y-125460532D01*
G37*
G36*
X258754389Y-124501901D02*
G01*
X258754389Y-124695114D01*
X258947601Y-124695114D01*
X259140814Y-124695114D01*
X259140814Y-124880895D01*
X259140814Y-125066676D01*
X258947601Y-125066676D01*
X258754389Y-125066676D01*
X258754389Y-125453101D01*
X258754389Y-125839526D01*
X258375395Y-125839526D01*
X257996402Y-125839526D01*
X257996402Y-125653744D01*
X257996402Y-125467963D01*
X258189614Y-125467963D01*
X258382827Y-125467963D01*
X258382827Y-124888326D01*
X258382827Y-124308689D01*
X258568608Y-124308689D01*
X258754389Y-124308689D01*
X258754389Y-124501901D01*
G37*
G36*
X260300088Y-125074107D02*
G01*
X260300088Y-125453101D01*
X260114307Y-125453101D01*
X259928526Y-125453101D01*
X259928526Y-125259888D01*
X259928526Y-125066676D01*
X259735313Y-125066676D01*
X259542101Y-125066676D01*
X259542101Y-124880895D01*
X259542101Y-124695114D01*
X259921095Y-124695114D01*
X260300088Y-124695114D01*
X260300088Y-125074107D01*
G37*
G36*
X257981539Y-125267320D02*
G01*
X257981539Y-125453101D01*
X257795758Y-125453101D01*
X257609977Y-125453101D01*
X257609977Y-125267320D01*
X257609977Y-125081538D01*
X257795758Y-125081538D01*
X257981539Y-125081538D01*
X257981539Y-125267320D01*
G37*
G36*
X255662990Y-125267320D02*
G01*
X255662990Y-125453101D01*
X255283997Y-125453101D01*
X254905003Y-125453101D01*
X254905003Y-125267320D01*
X254905003Y-125081538D01*
X255283997Y-125081538D01*
X255662990Y-125081538D01*
X255662990Y-125267320D01*
G37*
G36*
X259527239Y-124494470D02*
G01*
X259527239Y-124680251D01*
X259341457Y-124680251D01*
X259155676Y-124680251D01*
X259155676Y-124494470D01*
X259155676Y-124308689D01*
X259341457Y-124308689D01*
X259527239Y-124308689D01*
X259527239Y-124494470D01*
G37*
G36*
X259913663Y-124108045D02*
G01*
X259913663Y-124293826D01*
X259727882Y-124293826D01*
X259542101Y-124293826D01*
X259542101Y-124108045D01*
X259542101Y-123922264D01*
X259727882Y-123922264D01*
X259913663Y-123922264D01*
X259913663Y-124108045D01*
G37*
G36*
X259140814Y-124108045D02*
G01*
X259140814Y-124293826D01*
X258955033Y-124293826D01*
X258769251Y-124293826D01*
X258769251Y-124108045D01*
X258769251Y-123922264D01*
X258955033Y-123922264D01*
X259140814Y-123922264D01*
X259140814Y-124108045D01*
G37*
G36*
X258367964Y-124108045D02*
G01*
X258367964Y-124293826D01*
X258182183Y-124293826D01*
X257996402Y-124293826D01*
X257996402Y-124108045D01*
X257996402Y-123922264D01*
X258182183Y-123922264D01*
X258367964Y-123922264D01*
X258367964Y-124108045D01*
G37*
G36*
X259913663Y-123335196D02*
G01*
X259913663Y-123520977D01*
X259727882Y-123520977D01*
X259542101Y-123520977D01*
X259542101Y-123335196D01*
X259542101Y-123149414D01*
X259727882Y-123149414D01*
X259913663Y-123149414D01*
X259913663Y-123335196D01*
G37*
G36*
X261072938Y-122948771D02*
G01*
X261072938Y-123134552D01*
X260887157Y-123134552D01*
X260701376Y-123134552D01*
X260701376Y-122948771D01*
X260701376Y-122762990D01*
X260887157Y-122762990D01*
X261072938Y-122762990D01*
X261072938Y-122948771D01*
G37*
G36*
X260300088Y-122948771D02*
G01*
X260300088Y-123134552D01*
X260114307Y-123134552D01*
X259928526Y-123134552D01*
X259928526Y-122948771D01*
X259928526Y-122762990D01*
X260114307Y-122762990D01*
X260300088Y-122762990D01*
X260300088Y-122948771D01*
G37*
G36*
X260686513Y-122562346D02*
G01*
X260686513Y-122748127D01*
X260500732Y-122748127D01*
X260314951Y-122748127D01*
X260314951Y-122562346D01*
X260314951Y-122376565D01*
X260500732Y-122376565D01*
X260686513Y-122376565D01*
X260686513Y-122562346D01*
G37*
G36*
X258754389Y-122562346D02*
G01*
X258754389Y-122748127D01*
X258568608Y-122748127D01*
X258382827Y-122748127D01*
X258382827Y-122562346D01*
X258382827Y-122376565D01*
X258568608Y-122376565D01*
X258754389Y-122376565D01*
X258754389Y-122562346D01*
G37*
G36*
X260300088Y-122175921D02*
G01*
X260300088Y-122361702D01*
X260114307Y-122361702D01*
X259928526Y-122361702D01*
X259928526Y-122175921D01*
X259928526Y-121990140D01*
X260114307Y-121990140D01*
X260300088Y-121990140D01*
X260300088Y-122175921D01*
G37*
G36*
X258367964Y-122175921D02*
G01*
X258367964Y-122361702D01*
X258182183Y-122361702D01*
X257996402Y-122361702D01*
X257996402Y-122175921D01*
X257996402Y-121990140D01*
X258182183Y-121990140D01*
X258367964Y-121990140D01*
X258367964Y-122175921D01*
G37*
G36*
X266884172Y-132988385D02*
G01*
X266884172Y-133954447D01*
X265918110Y-133954447D01*
X264952048Y-133954447D01*
X264952048Y-133568022D01*
X265338473Y-133568022D01*
X265918110Y-133568022D01*
X266497748Y-133568022D01*
X266497748Y-132988385D01*
X266497748Y-132408747D01*
X265918110Y-132408747D01*
X265338473Y-132408747D01*
X265338473Y-132988385D01*
X265338473Y-133568022D01*
X264952048Y-133568022D01*
X264952048Y-132988385D01*
X264952048Y-132022323D01*
X265918110Y-132022323D01*
X266884172Y-132022323D01*
X266884172Y-132408747D01*
X266884172Y-132988385D01*
G37*
G36*
X266884172Y-122941340D02*
G01*
X266884172Y-123907402D01*
X265918110Y-123907402D01*
X264952048Y-123907402D01*
X264952048Y-123520977D01*
X265338473Y-123520977D01*
X265918110Y-123520977D01*
X266497748Y-123520977D01*
X266497748Y-122941340D01*
X266497748Y-122361702D01*
X265918110Y-122361702D01*
X265338473Y-122361702D01*
X265338473Y-122941340D01*
X265338473Y-123520977D01*
X264952048Y-123520977D01*
X264952048Y-122941340D01*
X264952048Y-121975278D01*
X265918110Y-121975278D01*
X266884172Y-121975278D01*
X266884172Y-122361702D01*
X266884172Y-122941340D01*
G37*
G36*
X256837127Y-122941340D02*
G01*
X256837127Y-123907402D01*
X255871065Y-123907402D01*
X254905003Y-123907402D01*
X254905003Y-123520977D01*
X255291428Y-123520977D01*
X255871065Y-123520977D01*
X256450703Y-123520977D01*
X256450703Y-122941340D01*
X256450703Y-122361702D01*
X255871065Y-122361702D01*
X255291428Y-122361702D01*
X255291428Y-122941340D01*
X255291428Y-123520977D01*
X254905003Y-123520977D01*
X254905003Y-122941340D01*
X254905003Y-121975278D01*
X255871065Y-121975278D01*
X256837127Y-121975278D01*
X256837127Y-122361702D01*
X256837127Y-122941340D01*
G37*
G36*
X261057619Y-128342673D02*
G01*
X261129909Y-128345813D01*
X261205781Y-128349702D01*
X261266683Y-128353491D01*
X261307703Y-128356868D01*
X261323928Y-128359523D01*
X261324704Y-128361362D01*
X261322374Y-128383867D01*
X261312677Y-128424137D01*
X261297801Y-128473940D01*
X261279934Y-128525044D01*
X261278349Y-128529138D01*
X261272484Y-128540265D01*
X261262340Y-128548259D01*
X261243675Y-128553637D01*
X261212249Y-128556919D01*
X261163820Y-128558621D01*
X261094149Y-128559263D01*
X260998993Y-128559362D01*
X260918902Y-128558898D01*
X260843769Y-128557482D01*
X260784300Y-128555288D01*
X260745181Y-128552491D01*
X260731101Y-128549269D01*
X260731157Y-128548502D01*
X260736307Y-128527703D01*
X260748170Y-128487468D01*
X260764422Y-128435717D01*
X260797743Y-128332257D01*
X261057619Y-128342673D01*
G37*
G36*
X261592164Y-127708484D02*
G01*
X261578789Y-127747639D01*
X261564489Y-127789142D01*
X261556274Y-127812522D01*
X261555595Y-127813818D01*
X261542333Y-127820576D01*
X261511266Y-127825482D01*
X261459418Y-127828737D01*
X261383814Y-127830542D01*
X261281479Y-127831100D01*
X261201296Y-127830549D01*
X261126159Y-127828868D01*
X261066687Y-127826264D01*
X261027569Y-127822946D01*
X261013488Y-127819123D01*
X261017380Y-127801814D01*
X261028599Y-127764115D01*
X261044577Y-127715086D01*
X261075667Y-127623025D01*
X261348458Y-127623025D01*
X261621249Y-127623025D01*
X261592164Y-127708484D01*
G37*
%TD*%
M02*
