%TF.GenerationSoftware,KiCad,Pcbnew,7.0.7*%
%TF.CreationDate,2024-01-28T23:49:52+00:00*%
%TF.ProjectId,Lynx-Keyboard,4c796e78-2d4b-4657-9962-6f6172642e6b,rev?*%
%TF.SameCoordinates,Original*%
%TF.FileFunction,Copper,L2,Bot*%
%TF.FilePolarity,Positive*%
%FSLAX46Y46*%
G04 Gerber Fmt 4.6, Leading zero omitted, Abs format (unit mm)*
G04 Created by KiCad (PCBNEW 7.0.7) date 2024-01-28 23:49:52*
%MOMM*%
%LPD*%
G01*
G04 APERTURE LIST*
%TA.AperFunction,ComponentPad*%
%ADD10R,1.800000X1.800000*%
%TD*%
%TA.AperFunction,ComponentPad*%
%ADD11C,1.800000*%
%TD*%
%TA.AperFunction,ComponentPad*%
%ADD12R,2.400000X2.400000*%
%TD*%
%TA.AperFunction,ComponentPad*%
%ADD13O,2.400000X2.400000*%
%TD*%
%TA.AperFunction,ComponentPad*%
%ADD14C,2.200000*%
%TD*%
%TA.AperFunction,ComponentPad*%
%ADD15R,1.600000X1.600000*%
%TD*%
%TA.AperFunction,ComponentPad*%
%ADD16O,1.600000X1.600000*%
%TD*%
%TA.AperFunction,ComponentPad*%
%ADD17C,1.600000*%
%TD*%
%TA.AperFunction,ComponentPad*%
%ADD18C,1.400000*%
%TD*%
%TA.AperFunction,ComponentPad*%
%ADD19O,1.400000X1.400000*%
%TD*%
%TA.AperFunction,ComponentPad*%
%ADD20R,1.700000X1.700000*%
%TD*%
%TA.AperFunction,ComponentPad*%
%ADD21O,1.700000X1.700000*%
%TD*%
%TA.AperFunction,ViaPad*%
%ADD22C,0.800000*%
%TD*%
%TA.AperFunction,Conductor*%
%ADD23C,1.500000*%
%TD*%
%TA.AperFunction,Conductor*%
%ADD24C,0.500000*%
%TD*%
%TA.AperFunction,Conductor*%
%ADD25C,0.400000*%
%TD*%
G04 APERTURE END LIST*
D10*
%TO.P,D18,1,K*%
%TO.N,GND*%
X328600000Y-50690000D03*
D11*
%TO.P,D18,2,A*%
%TO.N,Net-(D18-A)*%
X331140000Y-50690000D03*
%TD*%
D12*
%TO.P,C2,1*%
%TO.N,+5V*%
X317850000Y-128112500D03*
D13*
%TO.P,C2,2*%
%TO.N,GND*%
X335850000Y-128112500D03*
%TD*%
D14*
%TO.P,SW41,1,A*%
%TO.N,ROW4*%
X76100000Y-85700000D03*
%TO.P,SW41,2,B*%
%TO.N,COL0*%
X69750000Y-88240000D03*
%TD*%
%TO.P,SW74,1,A*%
%TO.N,!RST*%
X313400000Y-47700000D03*
%TO.P,SW74,2,B*%
%TO.N,GND*%
X307050000Y-50240000D03*
%TD*%
%TO.P,SW5,1,A*%
%TO.N,ROW0*%
X175600000Y-47700000D03*
%TO.P,SW5,2,B*%
%TO.N,COL4*%
X169250000Y-50240000D03*
%TD*%
%TO.P,SW56,1,A*%
%TO.N,ROW5*%
X209100000Y-85700000D03*
%TO.P,SW56,2,B*%
%TO.N,COL5*%
X202750000Y-88240000D03*
%TD*%
%TO.P,SW4,1,A*%
%TO.N,ROW0*%
X156600000Y-47700000D03*
%TO.P,SW4,2,B*%
%TO.N,COL3*%
X150250000Y-50240000D03*
%TD*%
%TO.P,SW22,1,A*%
%TO.N,ROW2*%
X128200000Y-66700000D03*
%TO.P,SW22,2,B*%
%TO.N,COL1*%
X121850000Y-69240000D03*
%TD*%
%TO.P,SW44,1,A*%
%TO.N,ROW4*%
X171100000Y-85700000D03*
%TO.P,SW44,2,B*%
%TO.N,COL3*%
X164750000Y-88240000D03*
%TD*%
%TO.P,SW64,1,A*%
%TO.N,ROW6*%
X161800000Y-104700000D03*
%TO.P,SW64,2,B*%
%TO.N,COL3*%
X155450000Y-107240000D03*
%TD*%
%TO.P,SW72,1,A*%
%TO.N,ROW6*%
X150300000Y-123700000D03*
%TO.P,SW72,2,B*%
%TO.N,COL4*%
X143950000Y-126240000D03*
%TD*%
%TO.P,SW69,1,A*%
%TO.N,ROW6*%
X275800000Y-104700000D03*
%TO.P,SW69,2,B*%
%TO.N,COL8*%
X269450000Y-107240000D03*
%TD*%
%TO.P,SW71,1,A*%
%TO.N,ROW7*%
X81000000Y-104700000D03*
%TO.P,SW71,2,B*%
%TO.N,COL0*%
X74650000Y-107240000D03*
%TD*%
%TO.P,SW68,1,A*%
%TO.N,ROW6*%
X256800000Y-104700000D03*
%TO.P,SW68,2,B*%
%TO.N,COL7*%
X250450000Y-107240000D03*
%TD*%
%TO.P,SW66,1,A*%
%TO.N,ROW6*%
X218800000Y-104700000D03*
%TO.P,SW66,2,B*%
%TO.N,COL5*%
X212450000Y-107240000D03*
%TD*%
%TO.P,SW3,1,A*%
%TO.N,ROW0*%
X99600000Y-47700000D03*
%TO.P,SW3,2,B*%
%TO.N,COL2*%
X93250000Y-50240000D03*
%TD*%
%TO.P,SW18,1,A*%
%TO.N,ROW1*%
X261200000Y-66700000D03*
%TO.P,SW18,2,B*%
%TO.N,COL7*%
X254850000Y-69240000D03*
%TD*%
%TO.P,SW59,1,A*%
%TO.N,ROW5*%
X285100000Y-85700000D03*
%TO.P,SW59,2,B*%
%TO.N,COL8*%
X278750000Y-88240000D03*
%TD*%
D15*
%TO.P,IC1,1,~{Q0}*%
%TO.N,COL0*%
X305050000Y-124530000D03*
D16*
%TO.P,IC1,2,~{Q1}*%
%TO.N,COL1*%
X302510000Y-124530000D03*
%TO.P,IC1,3,~{Q2}*%
%TO.N,COL2*%
X299970000Y-124530000D03*
%TO.P,IC1,4,~{Q3}*%
%TO.N,COL3*%
X297430000Y-124530000D03*
%TO.P,IC1,5,~{Q4}*%
%TO.N,COL4*%
X294890000Y-124530000D03*
%TO.P,IC1,6,~{Q5}*%
%TO.N,COL5*%
X292350000Y-124530000D03*
%TO.P,IC1,7,~{Q6}*%
%TO.N,COL6*%
X289810000Y-124530000D03*
%TO.P,IC1,8,GND*%
%TO.N,GND*%
X287270000Y-124530000D03*
%TO.P,IC1,9,~{Q7}*%
%TO.N,COL7*%
X287270000Y-132150000D03*
%TO.P,IC1,10,~{Q8}*%
%TO.N,COL8*%
X289810000Y-132150000D03*
%TO.P,IC1,11,~{Q9}*%
%TO.N,COL9*%
X292350000Y-132150000D03*
%TO.P,IC1,12,D*%
%TO.N,/KBA3*%
X294890000Y-132150000D03*
%TO.P,IC1,13,C*%
%TO.N,/KBA2*%
X297430000Y-132150000D03*
%TO.P,IC1,14,B*%
%TO.N,/KBA1*%
X299970000Y-132150000D03*
%TO.P,IC1,15,A*%
%TO.N,/KBA0*%
X302510000Y-132150000D03*
%TO.P,IC1,16,VCC*%
%TO.N,+5V*%
X305050000Y-132150000D03*
%TD*%
D14*
%TO.P,SW53,1,A*%
%TO.N,ROW5*%
X95100000Y-85700000D03*
%TO.P,SW53,2,B*%
%TO.N,COL2*%
X88750000Y-88240000D03*
%TD*%
%TO.P,SW55,1,A*%
%TO.N,ROW5*%
X180800000Y-104700000D03*
%TO.P,SW55,2,B*%
%TO.N,COL4*%
X174450000Y-107240000D03*
%TD*%
%TO.P,SW75,1,A*%
%TO.N,ROW7*%
X299600000Y-104700000D03*
%TO.P,SW75,2,B*%
%TO.N,COL0*%
X293250000Y-107240000D03*
%TD*%
%TO.P,SW30,1,A*%
%TO.N,ROW2*%
X304100000Y-85700000D03*
%TO.P,SW30,2,B*%
%TO.N,COL9*%
X297750000Y-88240000D03*
%TD*%
%TO.P,SW51,1,A*%
%TO.N,ROW5*%
X57100000Y-85700000D03*
%TO.P,SW51,2,B*%
%TO.N,COL0*%
X50750000Y-88240000D03*
%TD*%
%TO.P,SW26,1,A*%
%TO.N,ROW2*%
X204200000Y-66700000D03*
%TO.P,SW26,2,B*%
%TO.N,COL5*%
X197850000Y-69240000D03*
%TD*%
%TO.P,SW45,1,A*%
%TO.N,ROW4*%
X199800000Y-104700000D03*
%TO.P,SW45,2,B*%
%TO.N,COL4*%
X193450000Y-107240000D03*
%TD*%
D17*
%TO.P,C1,1*%
%TO.N,GND*%
X311190000Y-125830000D03*
%TO.P,C1,2*%
%TO.N,+5V*%
X311190000Y-130830000D03*
%TD*%
D14*
%TO.P,SW15,1,A*%
%TO.N,ROW1*%
X185200000Y-66700000D03*
%TO.P,SW15,2,B*%
%TO.N,COL4*%
X178850000Y-69240000D03*
%TD*%
%TO.P,SW42,1,A*%
%TO.N,ROW4*%
X133100000Y-85700000D03*
%TO.P,SW42,2,B*%
%TO.N,COL1*%
X126750000Y-88240000D03*
%TD*%
%TO.P,SW2,1,A*%
%TO.N,ROW0*%
X118600000Y-47700000D03*
%TO.P,SW2,2,B*%
%TO.N,COL1*%
X112250000Y-50240000D03*
%TD*%
%TO.P,SW54,1,A*%
%TO.N,ROW5*%
X152100000Y-85700000D03*
%TO.P,SW54,2,B*%
%TO.N,COL3*%
X145750000Y-88240000D03*
%TD*%
%TO.P,SW23,1,A*%
%TO.N,ROW2*%
X109200000Y-66700000D03*
%TO.P,SW23,2,B*%
%TO.N,COL2*%
X102850000Y-69240000D03*
%TD*%
%TO.P,SW25,1,A*%
%TO.N,ROW2*%
X190100000Y-85700000D03*
%TO.P,SW25,2,B*%
%TO.N,COL4*%
X183750000Y-88240000D03*
%TD*%
%TO.P,SW6,1,A*%
%TO.N,ROW0*%
X194600000Y-47700000D03*
%TO.P,SW6,2,B*%
%TO.N,COL5*%
X188250000Y-50240000D03*
%TD*%
%TO.P,SW63,1,A*%
%TO.N,ROW6*%
X104800000Y-104700000D03*
%TO.P,SW63,2,B*%
%TO.N,COL2*%
X98450000Y-107240000D03*
%TD*%
%TO.P,SW65,1,A*%
%TO.N,ROW6*%
X190300000Y-123700000D03*
%TO.P,SW65,2,B*%
%TO.N,COL4*%
X183950000Y-126240000D03*
%TD*%
%TO.P,SW24,1,A*%
%TO.N,ROW2*%
X166200000Y-66700000D03*
%TO.P,SW24,2,B*%
%TO.N,COL3*%
X159850000Y-69240000D03*
%TD*%
%TO.P,SW28,1,A*%
%TO.N,ROW2*%
X247100000Y-85700000D03*
%TO.P,SW28,2,B*%
%TO.N,COL7*%
X240750000Y-88240000D03*
%TD*%
%TO.P,SW29,1,A*%
%TO.N,ROW2*%
X280200000Y-66700000D03*
%TO.P,SW29,2,B*%
%TO.N,COL8*%
X273850000Y-69240000D03*
%TD*%
%TO.P,SW70,1,A*%
%TO.N,ROW6*%
X328200000Y-104700000D03*
%TO.P,SW70,2,B*%
%TO.N,COL9*%
X321850000Y-107240000D03*
%TD*%
%TO.P,SW16,1,A*%
%TO.N,ROW1*%
X213600000Y-47700000D03*
%TO.P,SW16,2,B*%
%TO.N,COL5*%
X207250000Y-50240000D03*
%TD*%
%TO.P,SW60,1,A*%
%TO.N,ROW5*%
X323100000Y-85700000D03*
%TO.P,SW60,2,B*%
%TO.N,COL9*%
X316750000Y-88240000D03*
%TD*%
%TO.P,SW43,1,A*%
%TO.N,ROW4*%
X114100000Y-85700000D03*
%TO.P,SW43,2,B*%
%TO.N,COL2*%
X107750000Y-88240000D03*
%TD*%
D15*
%TO.P,RN1,1,common*%
%TO.N,+5V*%
X71960000Y-130080000D03*
D16*
%TO.P,RN1,2,R1*%
%TO.N,!RST*%
X69420000Y-130080000D03*
%TO.P,RN1,3,R2*%
%TO.N,ROW7*%
X66880000Y-130080000D03*
%TO.P,RN1,4,R3*%
%TO.N,ROW6*%
X64340000Y-130080000D03*
%TO.P,RN1,5,R4*%
%TO.N,ROW5*%
X61800000Y-130080000D03*
%TO.P,RN1,6,R5*%
%TO.N,ROW4*%
X59260000Y-130080000D03*
%TO.P,RN1,7,R6*%
%TO.N,ROW3*%
X56720000Y-130080000D03*
%TO.P,RN1,8,R7*%
%TO.N,ROW2*%
X54180000Y-130080000D03*
%TO.P,RN1,9,R8*%
%TO.N,ROW1*%
X51640000Y-130080000D03*
%TO.P,RN1,10,R9*%
%TO.N,ROW0*%
X49100000Y-130080000D03*
%TD*%
D14*
%TO.P,SW13,1,A*%
%TO.N,ROW1*%
X90200000Y-66700000D03*
%TO.P,SW13,2,B*%
%TO.N,COL2*%
X83850000Y-69240000D03*
%TD*%
%TO.P,SW1,1,A*%
%TO.N,ROW0*%
X80600000Y-47700000D03*
%TO.P,SW1,2,B*%
%TO.N,COL0*%
X74250000Y-50240000D03*
%TD*%
%TO.P,SW62,1,A*%
%TO.N,ROW6*%
X123800000Y-104700000D03*
%TO.P,SW62,2,B*%
%TO.N,COL1*%
X117450000Y-107240000D03*
%TD*%
%TO.P,SW7,1,A*%
%TO.N,ROW0*%
X232600000Y-47700000D03*
%TO.P,SW7,2,B*%
%TO.N,COL6*%
X226250000Y-50240000D03*
%TD*%
D18*
%TO.P,R18,1*%
%TO.N,Net-(D18-A)*%
X335060000Y-85710000D03*
D19*
%TO.P,R18,2*%
%TO.N,+5V*%
X335060000Y-93330000D03*
%TD*%
D14*
%TO.P,SW67,1,A*%
%TO.N,ROW6*%
X237800000Y-104700000D03*
%TO.P,SW67,2,B*%
%TO.N,COL6*%
X231450000Y-107240000D03*
%TD*%
%TO.P,SW19,1,A*%
%TO.N,ROW1*%
X289600000Y-47700000D03*
%TO.P,SW19,2,B*%
%TO.N,COL8*%
X283250000Y-50240000D03*
%TD*%
%TO.P,SW58,1,A*%
%TO.N,ROW5*%
X266100000Y-85700000D03*
%TO.P,SW58,2,B*%
%TO.N,COL7*%
X259750000Y-88240000D03*
%TD*%
%TO.P,SW14,1,A*%
%TO.N,ROW1*%
X147200000Y-66700000D03*
%TO.P,SW14,2,B*%
%TO.N,COL3*%
X140850000Y-69240000D03*
%TD*%
%TO.P,SW20,1,A*%
%TO.N,ROW1*%
X299200000Y-66700000D03*
%TO.P,SW20,2,B*%
%TO.N,COL9*%
X292850000Y-69240000D03*
%TD*%
%TO.P,SW73,1,A*%
%TO.N,ROW6*%
X230300000Y-123700000D03*
%TO.P,SW73,2,B*%
%TO.N,COL4*%
X223950000Y-126240000D03*
%TD*%
%TO.P,SW17,1,A*%
%TO.N,ROW1*%
X223200000Y-66700000D03*
%TO.P,SW17,2,B*%
%TO.N,COL6*%
X216850000Y-69240000D03*
%TD*%
%TO.P,SW8,1,A*%
%TO.N,ROW0*%
X251600000Y-47700000D03*
%TO.P,SW8,2,B*%
%TO.N,COL7*%
X245250000Y-50240000D03*
%TD*%
D20*
%TO.P,PL1,1,Pin_1*%
%TO.N,GND*%
X82130000Y-136650000D03*
D21*
%TO.P,PL1,2,Pin_2*%
%TO.N,/KBA0*%
X79590000Y-136650000D03*
%TO.P,PL1,3,Pin_3*%
%TO.N,/KBA1*%
X77050000Y-136650000D03*
%TO.P,PL1,4,Pin_4*%
%TO.N,/KBA2*%
X74510000Y-136650000D03*
%TO.P,PL1,5,Pin_5*%
%TO.N,/KBA3*%
X71970000Y-136650000D03*
%TO.P,PL1,6,Pin_6*%
%TO.N,!RST*%
X69430000Y-136650000D03*
%TO.P,PL1,7,Pin_7*%
%TO.N,ROW7*%
X66890000Y-136650000D03*
%TO.P,PL1,8,Pin_8*%
%TO.N,ROW6*%
X64350000Y-136650000D03*
%TO.P,PL1,9,Pin_9*%
%TO.N,ROW5*%
X61810000Y-136650000D03*
%TO.P,PL1,10,Pin_10*%
%TO.N,ROW4*%
X59270000Y-136650000D03*
%TO.P,PL1,11,Pin_11*%
%TO.N,ROW3*%
X56730000Y-136650000D03*
%TO.P,PL1,12,Pin_12*%
%TO.N,ROW2*%
X54190000Y-136650000D03*
%TO.P,PL1,13,Pin_13*%
%TO.N,ROW1*%
X51650000Y-136650000D03*
%TO.P,PL1,14,Pin_14*%
%TO.N,ROW0*%
X49110000Y-136650000D03*
%TO.P,PL1,15,Pin_15*%
%TO.N,+5V*%
X46570000Y-136650000D03*
%TD*%
D14*
%TO.P,SW33,1,A*%
%TO.N,ROW3*%
X66400000Y-66700000D03*
%TO.P,SW33,2,B*%
%TO.N,COL2*%
X60050000Y-69240000D03*
%TD*%
%TO.P,SW9,1,A*%
%TO.N,ROW0*%
X270600000Y-47700000D03*
%TO.P,SW9,2,B*%
%TO.N,COL8*%
X264250000Y-50240000D03*
%TD*%
%TO.P,SW52,1,A*%
%TO.N,ROW5*%
X142800000Y-104700000D03*
%TO.P,SW52,2,B*%
%TO.N,COL1*%
X136450000Y-107240000D03*
%TD*%
%TO.P,SW31,1,A*%
%TO.N,ROW3*%
X61600000Y-47700000D03*
%TO.P,SW31,2,B*%
%TO.N,COL0*%
X55250000Y-50240000D03*
%TD*%
%TO.P,SW61,1,A*%
%TO.N,ROW6*%
X52400000Y-104700000D03*
%TO.P,SW61,2,B*%
%TO.N,COL0*%
X46050000Y-107240000D03*
%TD*%
%TO.P,SW12,1,A*%
%TO.N,ROW1*%
X137600000Y-47700000D03*
%TO.P,SW12,2,B*%
%TO.N,COL1*%
X131250000Y-50240000D03*
%TD*%
%TO.P,SW57,1,A*%
%TO.N,ROW5*%
X228100000Y-85700000D03*
%TO.P,SW57,2,B*%
%TO.N,COL6*%
X221750000Y-88240000D03*
%TD*%
%TO.P,SW10,1,A*%
%TO.N,ROW0*%
X318200000Y-66700000D03*
%TO.P,SW10,2,B*%
%TO.N,COL9*%
X311850000Y-69240000D03*
%TD*%
%TO.P,SW27,1,A*%
%TO.N,ROW2*%
X242200000Y-66700000D03*
%TO.P,SW27,2,B*%
%TO.N,COL6*%
X235850000Y-69240000D03*
%TD*%
D22*
%TO.N,ROW3*%
X42410000Y-77000000D03*
%TD*%
D23*
%TO.N,GND*%
X341250000Y-35750000D02*
X328600000Y-35750000D01*
X341250000Y-68680000D02*
X341250000Y-35750000D01*
X341142500Y-128112500D02*
X335850000Y-128112500D01*
X341250000Y-128220000D02*
X341142500Y-128112500D01*
X341250000Y-128220000D02*
X341250000Y-130020000D01*
X341250000Y-121740000D02*
X341250000Y-128220000D01*
D24*
X333567500Y-125830000D02*
X335850000Y-128112500D01*
X311190000Y-125830000D02*
X333567500Y-125830000D01*
D25*
X328600000Y-50690000D02*
X328600000Y-35750000D01*
D23*
X35750000Y-35750000D02*
X328600000Y-35750000D01*
X341250000Y-68680000D02*
X341250000Y-121740000D01*
X317660000Y-142250000D02*
X125070000Y-142250000D01*
D24*
X315670000Y-68800000D02*
X341130000Y-68800000D01*
X287270000Y-124530000D02*
X288200000Y-125460000D01*
D23*
X82130000Y-142250000D02*
X35750000Y-142250000D01*
X35750000Y-142250000D02*
X35750000Y-35750000D01*
D24*
X307590000Y-60720000D02*
X315670000Y-68800000D01*
D23*
X82130000Y-136650000D02*
X82130000Y-142250000D01*
D24*
X288580000Y-125830000D02*
X311190000Y-125830000D01*
D23*
X341250000Y-130020000D02*
X341250000Y-142250000D01*
X125070000Y-142250000D02*
X88850000Y-142250000D01*
D24*
X288200000Y-125460000D02*
X288210000Y-125460000D01*
X307050000Y-50240000D02*
X307590000Y-50780000D01*
X307590000Y-50780000D02*
X307590000Y-60720000D01*
D23*
X341250000Y-142250000D02*
X317660000Y-142250000D01*
D24*
X341130000Y-68800000D02*
X341250000Y-68680000D01*
X288210000Y-125460000D02*
X288580000Y-125830000D01*
D23*
X88850000Y-142250000D02*
X82130000Y-142250000D01*
D24*
%TO.N,/KBA0*%
X80400000Y-134430000D02*
X83780050Y-134430000D01*
X89860000Y-140509950D02*
X89860000Y-140550000D01*
X79590000Y-135240000D02*
X80400000Y-134430000D01*
X302510000Y-138650000D02*
X302510000Y-132150000D01*
X90360001Y-141050000D02*
X300110000Y-141050000D01*
X83780050Y-134430000D02*
X89860000Y-140509950D01*
X300110000Y-141050000D02*
X302510000Y-138650000D01*
X89860000Y-140550000D02*
X90360001Y-141050000D01*
X79590000Y-136650000D02*
X79590000Y-135240000D01*
%TO.N,/KBA1*%
X90560000Y-140260050D02*
X90649950Y-140350000D01*
X90649950Y-140350000D02*
X298200000Y-140350000D01*
X77050000Y-134600000D02*
X77920000Y-133730000D01*
X77920000Y-133730000D02*
X84070000Y-133730000D01*
X298200000Y-140350000D02*
X299970000Y-138580000D01*
X77050000Y-136650000D02*
X77050000Y-134600000D01*
X90560000Y-140220000D02*
X90560000Y-140260050D01*
X84070000Y-133730000D02*
X90560000Y-140220000D01*
X299970000Y-138580000D02*
X299970000Y-132150000D01*
%TO.N,/KBA2*%
X85960000Y-134620000D02*
X90990000Y-139650000D01*
X74510000Y-134450000D02*
X75930000Y-133030000D01*
X75930000Y-133030000D02*
X84410000Y-133030000D01*
X295140000Y-139650000D02*
X297430000Y-137360000D01*
X90990000Y-139650000D02*
X295140000Y-139650000D01*
X297430000Y-137360000D02*
X297430000Y-132150000D01*
X84410000Y-133030000D02*
X85960000Y-134580000D01*
X74510000Y-136650000D02*
X74510000Y-134450000D01*
X85960000Y-134580000D02*
X85960000Y-134620000D01*
%TO.N,/KBA3*%
X292400000Y-138950000D02*
X294890000Y-136460000D01*
X91390000Y-138950000D02*
X292400000Y-138950000D01*
X294890000Y-136460000D02*
X294890000Y-132150000D01*
X71970000Y-134150000D02*
X73790000Y-132330000D01*
X84770000Y-132330000D02*
X91390000Y-138950000D01*
X73790000Y-132330000D02*
X84770000Y-132330000D01*
X71970000Y-136650000D02*
X71970000Y-134150000D01*
%TO.N,!RST*%
X69420000Y-136640000D02*
X69430000Y-136650000D01*
X69420000Y-130080000D02*
X69420000Y-136640000D01*
%TO.N,ROW7*%
X171360000Y-109860000D02*
X163420000Y-101920000D01*
X66880000Y-130080000D02*
X66880000Y-136640000D01*
X140980000Y-106350000D02*
X136350000Y-101720000D01*
X154230000Y-101920000D02*
X149800000Y-106350000D01*
X202920000Y-112960000D02*
X174450812Y-112960000D01*
X209150000Y-106730000D02*
X202920000Y-112960000D01*
X295300000Y-100400000D02*
X211330000Y-100400000D01*
X136350000Y-101720000D02*
X83980000Y-101720000D01*
X299600000Y-104700000D02*
X295300000Y-100400000D01*
X149800000Y-106350000D02*
X140980000Y-106350000D01*
X209150000Y-102580000D02*
X209150000Y-106730000D01*
X163420000Y-101920000D02*
X154230000Y-101920000D01*
X171360000Y-109869188D02*
X171360000Y-109860000D01*
X174450812Y-112960000D02*
X171360000Y-109869188D01*
X83980000Y-101720000D02*
X81000000Y-104700000D01*
X66880000Y-136640000D02*
X66890000Y-136650000D01*
X211330000Y-100400000D02*
X209150000Y-102580000D01*
%TO.N,ROW6*%
X64340000Y-130080000D02*
X64340000Y-116640000D01*
X237800000Y-104700000D02*
X237800000Y-116630000D01*
X230310000Y-116640000D02*
X237790000Y-116640000D01*
X218800000Y-116570000D02*
X218870000Y-116640000D01*
X190270000Y-116640000D02*
X218870000Y-116640000D01*
X230300000Y-123700000D02*
X230300000Y-116650000D01*
X123800000Y-104700000D02*
X123800000Y-116600000D01*
X275800000Y-116620000D02*
X275820000Y-116640000D01*
X161800000Y-116630000D02*
X161790000Y-116640000D01*
X237790000Y-116640000D02*
X256850000Y-116640000D01*
X64340000Y-116640000D02*
X104730000Y-116640000D01*
X104730000Y-116640000D02*
X123840000Y-116640000D01*
X190300000Y-123700000D02*
X190300000Y-116670000D01*
X237800000Y-116630000D02*
X237790000Y-116640000D01*
X218870000Y-116640000D02*
X230310000Y-116640000D01*
X123800000Y-116600000D02*
X123840000Y-116640000D01*
X275820000Y-116640000D02*
X306870000Y-116640000D01*
X161800000Y-104700000D02*
X161800000Y-116630000D01*
X256800000Y-104700000D02*
X256800000Y-116590000D01*
X218800000Y-104700000D02*
X218800000Y-116570000D01*
X161790000Y-116640000D02*
X190270000Y-116640000D01*
X275800000Y-104700000D02*
X275800000Y-116620000D01*
X64340000Y-130080000D02*
X64340000Y-136640000D01*
X64340000Y-116640000D02*
X52400000Y-104700000D01*
X256800000Y-116590000D02*
X256850000Y-116640000D01*
X230300000Y-116650000D02*
X230310000Y-116640000D01*
X123840000Y-116640000D02*
X150310000Y-116640000D01*
X150310000Y-116640000D02*
X161790000Y-116640000D01*
X64340000Y-136640000D02*
X64350000Y-136650000D01*
X104800000Y-116570000D02*
X104730000Y-116640000D01*
X150300000Y-116650000D02*
X150310000Y-116640000D01*
X190300000Y-116670000D02*
X190270000Y-116640000D01*
X318810000Y-104700000D02*
X328200000Y-104700000D01*
X306870000Y-116640000D02*
X318810000Y-104700000D01*
X150300000Y-123700000D02*
X150300000Y-116650000D01*
X256850000Y-116640000D02*
X275820000Y-116640000D01*
X104800000Y-104700000D02*
X104800000Y-116570000D01*
%TO.N,ROW5*%
X95100000Y-85700000D02*
X95100000Y-94040000D01*
X306310000Y-93810000D02*
X314420000Y-85700000D01*
X209100000Y-85700000D02*
X211790000Y-85700000D01*
X181640000Y-105540000D02*
X195360000Y-105540000D01*
X180800000Y-104700000D02*
X181640000Y-105540000D01*
X219900000Y-93810000D02*
X228070000Y-93810000D01*
X41710000Y-119300000D02*
X41770000Y-119240000D01*
X95200000Y-94140000D02*
X142740000Y-94140000D01*
X41770000Y-119240000D02*
X41770000Y-97590000D01*
X228100000Y-85700000D02*
X228100000Y-93780000D01*
X57060000Y-94140000D02*
X95200000Y-94140000D01*
X142740000Y-94140000D02*
X152140000Y-94140000D01*
X95100000Y-94040000D02*
X95200000Y-94140000D01*
X228100000Y-93780000D02*
X228070000Y-93810000D01*
X209100000Y-98880000D02*
X209100000Y-85700000D01*
X45220000Y-94140000D02*
X57060000Y-94140000D01*
X61800000Y-130080000D02*
X61800000Y-136640000D01*
X41770000Y-97590000D02*
X45220000Y-94140000D01*
X170240000Y-94140000D02*
X180800000Y-104700000D01*
X142800000Y-94200000D02*
X142740000Y-94140000D01*
X152100000Y-85700000D02*
X152100000Y-94100000D01*
X314420000Y-85700000D02*
X323100000Y-85700000D01*
X211790000Y-85700000D02*
X219900000Y-93810000D01*
X46780000Y-124370000D02*
X41710000Y-119300000D01*
X195360000Y-105540000D02*
X196520000Y-106700000D01*
X57100000Y-94100000D02*
X57060000Y-94140000D01*
X196520000Y-106700000D02*
X201280000Y-106700000D01*
X228070000Y-93810000D02*
X266000000Y-93810000D01*
X57100000Y-85700000D02*
X57100000Y-94100000D01*
X266100000Y-93710000D02*
X266000000Y-93810000D01*
X201280000Y-106700000D02*
X209100000Y-98880000D01*
X285100000Y-85700000D02*
X285100000Y-93760000D01*
X285100000Y-93760000D02*
X285150000Y-93810000D01*
X152100000Y-94100000D02*
X152140000Y-94140000D01*
X61800000Y-136640000D02*
X61810000Y-136650000D01*
X142800000Y-104700000D02*
X142800000Y-94200000D01*
X285150000Y-93810000D02*
X306310000Y-93810000D01*
X152140000Y-94140000D02*
X170240000Y-94140000D01*
X61800000Y-130080000D02*
X56090000Y-124370000D01*
X266000000Y-93810000D02*
X285150000Y-93810000D01*
X266100000Y-85700000D02*
X266100000Y-93710000D01*
X56090000Y-124370000D02*
X46780000Y-124370000D01*
%TO.N,ROW4*%
X133100000Y-85700000D02*
X133100000Y-83700000D01*
X192990000Y-104700000D02*
X199800000Y-104700000D01*
X171060000Y-83700000D02*
X171990000Y-83700000D01*
X45990000Y-125340000D02*
X40890000Y-120240000D01*
X114090000Y-83700000D02*
X133100000Y-83700000D01*
X114100000Y-83710000D02*
X114090000Y-83700000D01*
X40890000Y-120240000D02*
X40890000Y-86520000D01*
X76100000Y-83820000D02*
X75980000Y-83700000D01*
X171990000Y-83700000D02*
X192990000Y-104700000D01*
X54520000Y-125340000D02*
X45990000Y-125340000D01*
X171100000Y-83740000D02*
X171060000Y-83700000D01*
X40890000Y-86520000D02*
X43710000Y-83700000D01*
X76100000Y-85700000D02*
X76100000Y-83820000D01*
X43710000Y-83700000D02*
X75980000Y-83700000D01*
X171100000Y-85700000D02*
X171100000Y-83740000D01*
X59260000Y-136640000D02*
X59270000Y-136650000D01*
X59260000Y-130080000D02*
X54520000Y-125340000D01*
X75980000Y-83700000D02*
X114090000Y-83700000D01*
X114100000Y-85700000D02*
X114100000Y-83710000D01*
X133100000Y-83700000D02*
X171060000Y-83700000D01*
X59260000Y-130080000D02*
X59260000Y-136640000D01*
%TO.N,ROW3*%
X56720000Y-130080000D02*
X56720000Y-136640000D01*
X45260000Y-126580000D02*
X40020000Y-121340000D01*
X56720000Y-136640000D02*
X56730000Y-136650000D01*
X56720000Y-130080000D02*
X53220000Y-126580000D01*
X40020000Y-121340000D02*
X40020000Y-79390000D01*
X40020000Y-79390000D02*
X42410000Y-77000000D01*
X53220000Y-126580000D02*
X45260000Y-126580000D01*
%TO.N,ROW2*%
X109200000Y-75280000D02*
X109130000Y-75350000D01*
X247100000Y-85700000D02*
X247100000Y-75390000D01*
X39190000Y-122230000D02*
X39190000Y-78630000D01*
X242200000Y-75260000D02*
X242110000Y-75350000D01*
X190100000Y-75410000D02*
X190160000Y-75350000D01*
X54180000Y-130080000D02*
X51800000Y-127700000D01*
X44660000Y-127700000D02*
X39190000Y-122230000D01*
X247140000Y-75350000D02*
X280250000Y-75350000D01*
X247100000Y-75390000D02*
X247140000Y-75350000D01*
X109130000Y-75350000D02*
X128170000Y-75350000D01*
X204200000Y-66700000D02*
X204200000Y-75340000D01*
X54180000Y-136640000D02*
X54190000Y-136650000D01*
X54180000Y-130080000D02*
X54180000Y-136640000D01*
X280250000Y-75350000D02*
X300900000Y-75350000D01*
X109200000Y-66700000D02*
X109200000Y-75280000D01*
X204190000Y-75350000D02*
X242110000Y-75350000D01*
X42470000Y-75350000D02*
X109130000Y-75350000D01*
X242200000Y-66700000D02*
X242200000Y-75260000D01*
X39190000Y-78630000D02*
X42470000Y-75350000D01*
X204200000Y-75340000D02*
X204190000Y-75350000D01*
X166200000Y-75280000D02*
X166270000Y-75350000D01*
X190160000Y-75350000D02*
X204190000Y-75350000D01*
X166270000Y-75350000D02*
X190160000Y-75350000D01*
X300900000Y-75350000D02*
X300900000Y-75490000D01*
X128200000Y-75320000D02*
X128170000Y-75350000D01*
X300900000Y-75490000D02*
X304100000Y-78690000D01*
X280200000Y-66700000D02*
X280200000Y-75300000D01*
X128200000Y-66700000D02*
X128200000Y-75320000D01*
X280200000Y-75300000D02*
X280250000Y-75350000D01*
X190100000Y-85700000D02*
X190100000Y-75410000D01*
X51800000Y-127700000D02*
X44660000Y-127700000D01*
X166200000Y-66700000D02*
X166200000Y-75280000D01*
X128170000Y-75350000D02*
X166270000Y-75350000D01*
X304100000Y-78690000D02*
X304100000Y-85700000D01*
X242110000Y-75350000D02*
X247140000Y-75350000D01*
%TO.N,ROW1*%
X51640000Y-136640000D02*
X51650000Y-136650000D01*
X44050000Y-128710000D02*
X38320000Y-122980000D01*
X299200000Y-60890000D02*
X299200000Y-66700000D01*
X51640000Y-130080000D02*
X50270000Y-128710000D01*
X137600000Y-58190000D02*
X137530000Y-58260000D01*
X185200000Y-66700000D02*
X185200000Y-58290000D01*
X137600000Y-47700000D02*
X137600000Y-58190000D01*
X50270000Y-128710000D02*
X44050000Y-128710000D01*
X90200000Y-58270000D02*
X90190000Y-58260000D01*
X147200000Y-58360000D02*
X147100000Y-58260000D01*
X223190000Y-58260000D02*
X261250000Y-58260000D01*
X261200000Y-58310000D02*
X261250000Y-58260000D01*
X223200000Y-58270000D02*
X223190000Y-58260000D01*
X213650000Y-58260000D02*
X223190000Y-58260000D01*
X261250000Y-58260000D02*
X289570000Y-58260000D01*
X185200000Y-58290000D02*
X185170000Y-58260000D01*
X289600000Y-58230000D02*
X289570000Y-58260000D01*
X147200000Y-66700000D02*
X147200000Y-58360000D01*
X38320000Y-122980000D02*
X38320000Y-65040000D01*
X45100000Y-58260000D02*
X90190000Y-58260000D01*
X261200000Y-66700000D02*
X261200000Y-58310000D01*
X38320000Y-65040000D02*
X45100000Y-58260000D01*
X289600000Y-47700000D02*
X289600000Y-58230000D01*
X185170000Y-58260000D02*
X213650000Y-58260000D01*
X147100000Y-58260000D02*
X185170000Y-58260000D01*
X137530000Y-58260000D02*
X147100000Y-58260000D01*
X213600000Y-58210000D02*
X213650000Y-58260000D01*
X90190000Y-58260000D02*
X137530000Y-58260000D01*
X223200000Y-66700000D02*
X223200000Y-58270000D01*
X213600000Y-47700000D02*
X213600000Y-58210000D01*
X289570000Y-58260000D02*
X296570000Y-58260000D01*
X296570000Y-58260000D02*
X299200000Y-60890000D01*
X90200000Y-66700000D02*
X90200000Y-58270000D01*
X51640000Y-130080000D02*
X51640000Y-136640000D01*
%TO.N,ROW0*%
X47910000Y-43680000D02*
X80590000Y-43680000D01*
X99600000Y-47700000D02*
X99600000Y-43810000D01*
X251500000Y-43680000D02*
X270660000Y-43680000D01*
X49100000Y-136640000D02*
X49110000Y-136650000D01*
X37410000Y-123600000D02*
X37410000Y-54180000D01*
X118660000Y-43680000D02*
X156680000Y-43680000D01*
X80590000Y-43680000D02*
X99730000Y-43680000D01*
X156600000Y-43760000D02*
X156680000Y-43680000D01*
X318200000Y-66700000D02*
X318200000Y-44610000D01*
X232600000Y-47700000D02*
X232600000Y-43770000D01*
X194710000Y-43680000D02*
X232690000Y-43680000D01*
X270600000Y-47700000D02*
X270600000Y-43740000D01*
X251600000Y-47700000D02*
X251600000Y-43780000D01*
X99730000Y-43680000D02*
X118660000Y-43680000D01*
X43890000Y-130080000D02*
X37410000Y-123600000D01*
X156680000Y-43680000D02*
X175590000Y-43680000D01*
X80600000Y-43690000D02*
X80590000Y-43680000D01*
X232690000Y-43680000D02*
X251500000Y-43680000D01*
X175600000Y-47700000D02*
X175600000Y-43690000D01*
X80600000Y-47700000D02*
X80600000Y-43690000D01*
X49100000Y-130080000D02*
X43890000Y-130080000D01*
X251600000Y-43780000D02*
X251500000Y-43680000D01*
X156600000Y-47700000D02*
X156600000Y-43760000D01*
X175590000Y-43680000D02*
X194710000Y-43680000D01*
X175600000Y-43690000D02*
X175590000Y-43680000D01*
X99600000Y-43810000D02*
X99730000Y-43680000D01*
X118600000Y-47700000D02*
X118600000Y-43740000D01*
X270660000Y-43680000D02*
X317270000Y-43680000D01*
X118600000Y-43740000D02*
X118660000Y-43680000D01*
X318200000Y-44610000D02*
X317270000Y-43680000D01*
X49100000Y-130080000D02*
X49100000Y-136640000D01*
X270600000Y-43740000D02*
X270660000Y-43680000D01*
X232600000Y-43770000D02*
X232690000Y-43680000D01*
X194600000Y-43790000D02*
X194710000Y-43680000D01*
X194600000Y-47700000D02*
X194600000Y-43790000D01*
X37410000Y-54180000D02*
X47910000Y-43680000D01*
%TO.N,COL4*%
X223950000Y-126240000D02*
X183950000Y-126240000D01*
X143950000Y-126240000D02*
X183950000Y-126240000D01*
%TO.N,COL2*%
X60050000Y-69240000D02*
X83850000Y-69240000D01*
%TO.N,COL0*%
X139560000Y-107280000D02*
X135430000Y-103150000D01*
X163220000Y-103150000D02*
X155250000Y-103150000D01*
X151120000Y-107280000D02*
X139560000Y-107280000D01*
X84730000Y-107240000D02*
X74650000Y-107240000D01*
X213120000Y-101500000D02*
X210900000Y-103720000D01*
X88820000Y-103150000D02*
X84730000Y-107240000D01*
X210900000Y-103720000D02*
X210900000Y-106970000D01*
X293250000Y-107240000D02*
X291610000Y-107240000D01*
X135430000Y-103150000D02*
X88820000Y-103150000D01*
X285870000Y-101500000D02*
X213120000Y-101500000D01*
X155250000Y-103150000D02*
X151120000Y-107280000D01*
X210900000Y-106970000D02*
X203720000Y-114150000D01*
X203720000Y-114150000D02*
X174220000Y-114150000D01*
X174220000Y-114150000D02*
X163220000Y-103150000D01*
X291610000Y-107240000D02*
X285870000Y-101500000D01*
%TD*%
M02*
