M48
; DRILL file {KiCad 7.0.7} date Sun Jan 28 23:49:51 2024
; FORMAT={-:-/ absolute / inch / decimal}
; #@! TF.CreationDate,2024-01-28T23:49:51+00:00
; #@! TF.GenerationSoftware,Kicad,Pcbnew,7.0.7
; #@! TF.FileFunction,NonPlated,1,2,NPTH
FMAT,2
INCH
; #@! TA.AperFunction,NonPlated,NPTH,ComponentDrill
T1C0.0669
; #@! TA.AperFunction,NonPlated,NPTH,ComponentDrill
T2C0.1457
; #@! TA.AperFunction,NonPlated,NPTH,ComponentDrill
T3C0.1575
%
G90
G05
T1
X1.763Y-4.322
X1.948Y-3.574
X2.1252Y-2.078
X2.163Y-4.322
X2.3142Y-2.826
X2.348Y-3.574
X2.5252Y-2.078
X2.6961Y-3.574
X2.7142Y-2.826
X2.8732Y-2.078
X2.889Y-4.322
X3.0961Y-3.574
X3.2512Y-2.826
X3.2732Y-2.078
X3.289Y-4.322
X3.4441Y-3.574
X3.6213Y-2.078
X3.6512Y-2.826
X3.826Y-4.322
X3.8441Y-3.574
X3.9992Y-2.826
X4.0213Y-2.078
X4.1921Y-3.574
X4.226Y-4.322
X4.3693Y-2.078
X4.3992Y-2.826
X4.574Y-4.322
X4.5921Y-3.574
X4.7472Y-2.826
X4.7693Y-2.078
X4.9402Y-3.574
X4.974Y-4.322
X5.1173Y-2.078
X5.1472Y-2.826
X5.322Y-4.322
X5.3402Y-3.574
X5.4953Y-2.826
X5.5173Y-2.078
X5.6173Y-5.0701
X5.6882Y-3.574
X5.722Y-4.322
X5.8654Y-2.078
X5.8953Y-2.826
X6.0173Y-5.0701
X6.0701Y-4.322
X6.0882Y-3.574
X6.2433Y-2.826
X6.2654Y-2.078
X6.4362Y-3.574
X6.4701Y-4.322
X6.6134Y-2.078
X6.6433Y-2.826
X6.8181Y-4.322
X6.8362Y-3.574
X6.9913Y-2.826
X7.0134Y-2.078
X7.1843Y-3.574
X7.1921Y-5.0701
X7.2181Y-4.322
X7.3614Y-2.078
X7.3913Y-2.826
X7.5661Y-4.322
X7.5843Y-3.574
X7.5921Y-5.0701
X7.7394Y-2.826
X7.7614Y-2.078
X7.9323Y-3.574
X7.9661Y-4.322
X8.1094Y-2.078
X8.1394Y-2.826
X8.3142Y-4.322
X8.3323Y-3.574
X8.4874Y-2.826
X8.5094Y-2.078
X8.6803Y-3.574
X8.7142Y-4.322
X8.7669Y-5.0701
X8.8575Y-2.078
X8.8874Y-2.826
X9.0622Y-4.322
X9.0803Y-3.574
X9.1669Y-5.0701
X9.2354Y-2.826
X9.2575Y-2.078
X9.4283Y-3.574
X9.4622Y-4.322
X9.6055Y-2.078
X9.6354Y-2.826
X9.8102Y-4.322
X9.8283Y-3.574
X9.9835Y-2.826
X10.0055Y-2.078
X10.1764Y-3.574
X10.2102Y-4.322
X10.3535Y-2.078
X10.3835Y-2.826
X10.5583Y-4.322
X10.5764Y-3.574
X10.7315Y-2.826
X10.7535Y-2.078
X10.9244Y-3.574
X10.9583Y-4.322
X11.1016Y-2.078
X11.1315Y-2.826
X11.3244Y-3.574
X11.4795Y-2.826
X11.4953Y-4.322
X11.5016Y-2.078
X11.6724Y-3.574
X11.8795Y-2.826
X11.8953Y-4.322
X12.0386Y-2.078
X12.0724Y-3.574
X12.2276Y-2.826
X12.4205Y-3.574
X12.4386Y-2.078
X12.6213Y-4.322
X12.6276Y-2.826
X12.8205Y-3.574
X13.0213Y-4.322
T2
X1.5354Y-1.5354
X1.5354Y-5.4724
X3.9764Y-5.0787
X5.4724Y-1.5323
X9.4094Y-1.5354
X11.0236Y-5.0787
X13.3071Y-1.5354
X13.3071Y-5.4724
T3
X1.963Y-4.322
X2.148Y-3.574
X2.3252Y-2.078
X2.5142Y-2.826
X2.8961Y-3.574
X3.0732Y-2.078
X3.089Y-4.322
X3.4512Y-2.826
X3.6441Y-3.574
X3.8213Y-2.078
X4.026Y-4.322
X4.1992Y-2.826
X4.3921Y-3.574
X4.5693Y-2.078
X4.774Y-4.322
X4.9472Y-2.826
X5.1402Y-3.574
X5.3173Y-2.078
X5.522Y-4.322
X5.6953Y-2.826
X5.8173Y-5.0701
X5.8882Y-3.574
X6.0654Y-2.078
X6.2701Y-4.322
X6.4433Y-2.826
X6.6362Y-3.574
X6.8134Y-2.078
X7.0181Y-4.322
X7.1913Y-2.826
X7.3843Y-3.574
X7.3921Y-5.0701
X7.5614Y-2.078
X7.7661Y-4.322
X7.9394Y-2.826
X8.1323Y-3.574
X8.3094Y-2.078
X8.5142Y-4.322
X8.6874Y-2.826
X8.8803Y-3.574
X8.9669Y-5.0701
X9.0575Y-2.078
X9.2622Y-4.322
X9.4354Y-2.826
X9.6283Y-3.574
X9.8055Y-2.078
X10.0102Y-4.322
X10.1835Y-2.826
X10.3764Y-3.574
X10.5535Y-2.078
X10.7583Y-4.322
X10.9315Y-2.826
X11.1244Y-3.574
X11.3016Y-2.078
X11.6795Y-2.826
X11.6953Y-4.322
X11.8724Y-3.574
X12.2386Y-2.078
X12.4276Y-2.826
X12.6205Y-3.574
X12.8213Y-4.322
T0
M30
