%TF.GenerationSoftware,KiCad,Pcbnew,7.0.7*%
%TF.CreationDate,2024-01-28T23:49:52+00:00*%
%TF.ProjectId,Lynx-Keyboard,4c796e78-2d4b-4657-9962-6f6172642e6b,rev?*%
%TF.SameCoordinates,Original*%
%TF.FileFunction,Copper,L1,Top*%
%TF.FilePolarity,Positive*%
%FSLAX46Y46*%
G04 Gerber Fmt 4.6, Leading zero omitted, Abs format (unit mm)*
G04 Created by KiCad (PCBNEW 7.0.7) date 2024-01-28 23:49:52*
%MOMM*%
%LPD*%
G01*
G04 APERTURE LIST*
%TA.AperFunction,ComponentPad*%
%ADD10R,1.800000X1.800000*%
%TD*%
%TA.AperFunction,ComponentPad*%
%ADD11C,1.800000*%
%TD*%
%TA.AperFunction,ComponentPad*%
%ADD12R,2.400000X2.400000*%
%TD*%
%TA.AperFunction,ComponentPad*%
%ADD13O,2.400000X2.400000*%
%TD*%
%TA.AperFunction,ComponentPad*%
%ADD14C,2.200000*%
%TD*%
%TA.AperFunction,ComponentPad*%
%ADD15R,1.600000X1.600000*%
%TD*%
%TA.AperFunction,ComponentPad*%
%ADD16O,1.600000X1.600000*%
%TD*%
%TA.AperFunction,ComponentPad*%
%ADD17C,1.600000*%
%TD*%
%TA.AperFunction,ComponentPad*%
%ADD18C,1.400000*%
%TD*%
%TA.AperFunction,ComponentPad*%
%ADD19O,1.400000X1.400000*%
%TD*%
%TA.AperFunction,ComponentPad*%
%ADD20R,1.700000X1.700000*%
%TD*%
%TA.AperFunction,ComponentPad*%
%ADD21O,1.700000X1.700000*%
%TD*%
%TA.AperFunction,ViaPad*%
%ADD22C,0.800000*%
%TD*%
%TA.AperFunction,Conductor*%
%ADD23C,0.500000*%
%TD*%
%TA.AperFunction,Conductor*%
%ADD24C,0.400000*%
%TD*%
%TA.AperFunction,Conductor*%
%ADD25C,1.500000*%
%TD*%
G04 APERTURE END LIST*
D10*
%TO.P,D18,1,K*%
%TO.N,GND*%
X328600000Y-50690000D03*
D11*
%TO.P,D18,2,A*%
%TO.N,Net-(D18-A)*%
X331140000Y-50690000D03*
%TD*%
D12*
%TO.P,C2,1*%
%TO.N,+5V*%
X317850000Y-128112500D03*
D13*
%TO.P,C2,2*%
%TO.N,GND*%
X335850000Y-128112500D03*
%TD*%
D14*
%TO.P,SW41,1,A*%
%TO.N,ROW4*%
X76100000Y-85700000D03*
%TO.P,SW41,2,B*%
%TO.N,COL0*%
X69750000Y-88240000D03*
%TD*%
%TO.P,SW74,1,A*%
%TO.N,!RST*%
X313400000Y-47700000D03*
%TO.P,SW74,2,B*%
%TO.N,GND*%
X307050000Y-50240000D03*
%TD*%
%TO.P,SW5,1,A*%
%TO.N,ROW0*%
X175600000Y-47700000D03*
%TO.P,SW5,2,B*%
%TO.N,COL4*%
X169250000Y-50240000D03*
%TD*%
%TO.P,SW56,1,A*%
%TO.N,ROW5*%
X209100000Y-85700000D03*
%TO.P,SW56,2,B*%
%TO.N,COL5*%
X202750000Y-88240000D03*
%TD*%
%TO.P,SW4,1,A*%
%TO.N,ROW0*%
X156600000Y-47700000D03*
%TO.P,SW4,2,B*%
%TO.N,COL3*%
X150250000Y-50240000D03*
%TD*%
%TO.P,SW22,1,A*%
%TO.N,ROW2*%
X128200000Y-66700000D03*
%TO.P,SW22,2,B*%
%TO.N,COL1*%
X121850000Y-69240000D03*
%TD*%
%TO.P,SW44,1,A*%
%TO.N,ROW4*%
X171100000Y-85700000D03*
%TO.P,SW44,2,B*%
%TO.N,COL3*%
X164750000Y-88240000D03*
%TD*%
%TO.P,SW64,1,A*%
%TO.N,ROW6*%
X161800000Y-104700000D03*
%TO.P,SW64,2,B*%
%TO.N,COL3*%
X155450000Y-107240000D03*
%TD*%
%TO.P,SW72,1,A*%
%TO.N,ROW6*%
X150300000Y-123700000D03*
%TO.P,SW72,2,B*%
%TO.N,COL4*%
X143950000Y-126240000D03*
%TD*%
%TO.P,SW69,1,A*%
%TO.N,ROW6*%
X275800000Y-104700000D03*
%TO.P,SW69,2,B*%
%TO.N,COL8*%
X269450000Y-107240000D03*
%TD*%
%TO.P,SW71,1,A*%
%TO.N,ROW7*%
X81000000Y-104700000D03*
%TO.P,SW71,2,B*%
%TO.N,COL0*%
X74650000Y-107240000D03*
%TD*%
%TO.P,SW68,1,A*%
%TO.N,ROW6*%
X256800000Y-104700000D03*
%TO.P,SW68,2,B*%
%TO.N,COL7*%
X250450000Y-107240000D03*
%TD*%
%TO.P,SW66,1,A*%
%TO.N,ROW6*%
X218800000Y-104700000D03*
%TO.P,SW66,2,B*%
%TO.N,COL5*%
X212450000Y-107240000D03*
%TD*%
%TO.P,SW3,1,A*%
%TO.N,ROW0*%
X99600000Y-47700000D03*
%TO.P,SW3,2,B*%
%TO.N,COL2*%
X93250000Y-50240000D03*
%TD*%
%TO.P,SW18,1,A*%
%TO.N,ROW1*%
X261200000Y-66700000D03*
%TO.P,SW18,2,B*%
%TO.N,COL7*%
X254850000Y-69240000D03*
%TD*%
%TO.P,SW59,1,A*%
%TO.N,ROW5*%
X285100000Y-85700000D03*
%TO.P,SW59,2,B*%
%TO.N,COL8*%
X278750000Y-88240000D03*
%TD*%
D15*
%TO.P,IC1,1,~{Q0}*%
%TO.N,COL0*%
X305050000Y-124530000D03*
D16*
%TO.P,IC1,2,~{Q1}*%
%TO.N,COL1*%
X302510000Y-124530000D03*
%TO.P,IC1,3,~{Q2}*%
%TO.N,COL2*%
X299970000Y-124530000D03*
%TO.P,IC1,4,~{Q3}*%
%TO.N,COL3*%
X297430000Y-124530000D03*
%TO.P,IC1,5,~{Q4}*%
%TO.N,COL4*%
X294890000Y-124530000D03*
%TO.P,IC1,6,~{Q5}*%
%TO.N,COL5*%
X292350000Y-124530000D03*
%TO.P,IC1,7,~{Q6}*%
%TO.N,COL6*%
X289810000Y-124530000D03*
%TO.P,IC1,8,GND*%
%TO.N,GND*%
X287270000Y-124530000D03*
%TO.P,IC1,9,~{Q7}*%
%TO.N,COL7*%
X287270000Y-132150000D03*
%TO.P,IC1,10,~{Q8}*%
%TO.N,COL8*%
X289810000Y-132150000D03*
%TO.P,IC1,11,~{Q9}*%
%TO.N,COL9*%
X292350000Y-132150000D03*
%TO.P,IC1,12,D*%
%TO.N,/KBA3*%
X294890000Y-132150000D03*
%TO.P,IC1,13,C*%
%TO.N,/KBA2*%
X297430000Y-132150000D03*
%TO.P,IC1,14,B*%
%TO.N,/KBA1*%
X299970000Y-132150000D03*
%TO.P,IC1,15,A*%
%TO.N,/KBA0*%
X302510000Y-132150000D03*
%TO.P,IC1,16,VCC*%
%TO.N,+5V*%
X305050000Y-132150000D03*
%TD*%
D14*
%TO.P,SW53,1,A*%
%TO.N,ROW5*%
X95100000Y-85700000D03*
%TO.P,SW53,2,B*%
%TO.N,COL2*%
X88750000Y-88240000D03*
%TD*%
%TO.P,SW55,1,A*%
%TO.N,ROW5*%
X180800000Y-104700000D03*
%TO.P,SW55,2,B*%
%TO.N,COL4*%
X174450000Y-107240000D03*
%TD*%
%TO.P,SW75,1,A*%
%TO.N,ROW7*%
X299600000Y-104700000D03*
%TO.P,SW75,2,B*%
%TO.N,COL0*%
X293250000Y-107240000D03*
%TD*%
%TO.P,SW30,1,A*%
%TO.N,ROW2*%
X304100000Y-85700000D03*
%TO.P,SW30,2,B*%
%TO.N,COL9*%
X297750000Y-88240000D03*
%TD*%
%TO.P,SW51,1,A*%
%TO.N,ROW5*%
X57100000Y-85700000D03*
%TO.P,SW51,2,B*%
%TO.N,COL0*%
X50750000Y-88240000D03*
%TD*%
%TO.P,SW26,1,A*%
%TO.N,ROW2*%
X204200000Y-66700000D03*
%TO.P,SW26,2,B*%
%TO.N,COL5*%
X197850000Y-69240000D03*
%TD*%
%TO.P,SW45,1,A*%
%TO.N,ROW4*%
X199800000Y-104700000D03*
%TO.P,SW45,2,B*%
%TO.N,COL4*%
X193450000Y-107240000D03*
%TD*%
D17*
%TO.P,C1,1*%
%TO.N,GND*%
X311190000Y-125830000D03*
%TO.P,C1,2*%
%TO.N,+5V*%
X311190000Y-130830000D03*
%TD*%
D14*
%TO.P,SW15,1,A*%
%TO.N,ROW1*%
X185200000Y-66700000D03*
%TO.P,SW15,2,B*%
%TO.N,COL4*%
X178850000Y-69240000D03*
%TD*%
%TO.P,SW42,1,A*%
%TO.N,ROW4*%
X133100000Y-85700000D03*
%TO.P,SW42,2,B*%
%TO.N,COL1*%
X126750000Y-88240000D03*
%TD*%
%TO.P,SW2,1,A*%
%TO.N,ROW0*%
X118600000Y-47700000D03*
%TO.P,SW2,2,B*%
%TO.N,COL1*%
X112250000Y-50240000D03*
%TD*%
%TO.P,SW54,1,A*%
%TO.N,ROW5*%
X152100000Y-85700000D03*
%TO.P,SW54,2,B*%
%TO.N,COL3*%
X145750000Y-88240000D03*
%TD*%
%TO.P,SW23,1,A*%
%TO.N,ROW2*%
X109200000Y-66700000D03*
%TO.P,SW23,2,B*%
%TO.N,COL2*%
X102850000Y-69240000D03*
%TD*%
%TO.P,SW25,1,A*%
%TO.N,ROW2*%
X190100000Y-85700000D03*
%TO.P,SW25,2,B*%
%TO.N,COL4*%
X183750000Y-88240000D03*
%TD*%
%TO.P,SW6,1,A*%
%TO.N,ROW0*%
X194600000Y-47700000D03*
%TO.P,SW6,2,B*%
%TO.N,COL5*%
X188250000Y-50240000D03*
%TD*%
%TO.P,SW63,1,A*%
%TO.N,ROW6*%
X104800000Y-104700000D03*
%TO.P,SW63,2,B*%
%TO.N,COL2*%
X98450000Y-107240000D03*
%TD*%
%TO.P,SW65,1,A*%
%TO.N,ROW6*%
X190300000Y-123700000D03*
%TO.P,SW65,2,B*%
%TO.N,COL4*%
X183950000Y-126240000D03*
%TD*%
%TO.P,SW24,1,A*%
%TO.N,ROW2*%
X166200000Y-66700000D03*
%TO.P,SW24,2,B*%
%TO.N,COL3*%
X159850000Y-69240000D03*
%TD*%
%TO.P,SW28,1,A*%
%TO.N,ROW2*%
X247100000Y-85700000D03*
%TO.P,SW28,2,B*%
%TO.N,COL7*%
X240750000Y-88240000D03*
%TD*%
%TO.P,SW29,1,A*%
%TO.N,ROW2*%
X280200000Y-66700000D03*
%TO.P,SW29,2,B*%
%TO.N,COL8*%
X273850000Y-69240000D03*
%TD*%
%TO.P,SW70,1,A*%
%TO.N,ROW6*%
X328200000Y-104700000D03*
%TO.P,SW70,2,B*%
%TO.N,COL9*%
X321850000Y-107240000D03*
%TD*%
%TO.P,SW16,1,A*%
%TO.N,ROW1*%
X213600000Y-47700000D03*
%TO.P,SW16,2,B*%
%TO.N,COL5*%
X207250000Y-50240000D03*
%TD*%
%TO.P,SW60,1,A*%
%TO.N,ROW5*%
X323100000Y-85700000D03*
%TO.P,SW60,2,B*%
%TO.N,COL9*%
X316750000Y-88240000D03*
%TD*%
%TO.P,SW43,1,A*%
%TO.N,ROW4*%
X114100000Y-85700000D03*
%TO.P,SW43,2,B*%
%TO.N,COL2*%
X107750000Y-88240000D03*
%TD*%
D15*
%TO.P,RN1,1,common*%
%TO.N,+5V*%
X71960000Y-130080000D03*
D16*
%TO.P,RN1,2,R1*%
%TO.N,!RST*%
X69420000Y-130080000D03*
%TO.P,RN1,3,R2*%
%TO.N,ROW7*%
X66880000Y-130080000D03*
%TO.P,RN1,4,R3*%
%TO.N,ROW6*%
X64340000Y-130080000D03*
%TO.P,RN1,5,R4*%
%TO.N,ROW5*%
X61800000Y-130080000D03*
%TO.P,RN1,6,R5*%
%TO.N,ROW4*%
X59260000Y-130080000D03*
%TO.P,RN1,7,R6*%
%TO.N,ROW3*%
X56720000Y-130080000D03*
%TO.P,RN1,8,R7*%
%TO.N,ROW2*%
X54180000Y-130080000D03*
%TO.P,RN1,9,R8*%
%TO.N,ROW1*%
X51640000Y-130080000D03*
%TO.P,RN1,10,R9*%
%TO.N,ROW0*%
X49100000Y-130080000D03*
%TD*%
D14*
%TO.P,SW13,1,A*%
%TO.N,ROW1*%
X90200000Y-66700000D03*
%TO.P,SW13,2,B*%
%TO.N,COL2*%
X83850000Y-69240000D03*
%TD*%
%TO.P,SW1,1,A*%
%TO.N,ROW0*%
X80600000Y-47700000D03*
%TO.P,SW1,2,B*%
%TO.N,COL0*%
X74250000Y-50240000D03*
%TD*%
%TO.P,SW62,1,A*%
%TO.N,ROW6*%
X123800000Y-104700000D03*
%TO.P,SW62,2,B*%
%TO.N,COL1*%
X117450000Y-107240000D03*
%TD*%
%TO.P,SW7,1,A*%
%TO.N,ROW0*%
X232600000Y-47700000D03*
%TO.P,SW7,2,B*%
%TO.N,COL6*%
X226250000Y-50240000D03*
%TD*%
D18*
%TO.P,R18,1*%
%TO.N,Net-(D18-A)*%
X335060000Y-85710000D03*
D19*
%TO.P,R18,2*%
%TO.N,+5V*%
X335060000Y-93330000D03*
%TD*%
D14*
%TO.P,SW67,1,A*%
%TO.N,ROW6*%
X237800000Y-104700000D03*
%TO.P,SW67,2,B*%
%TO.N,COL6*%
X231450000Y-107240000D03*
%TD*%
%TO.P,SW19,1,A*%
%TO.N,ROW1*%
X289600000Y-47700000D03*
%TO.P,SW19,2,B*%
%TO.N,COL8*%
X283250000Y-50240000D03*
%TD*%
%TO.P,SW58,1,A*%
%TO.N,ROW5*%
X266100000Y-85700000D03*
%TO.P,SW58,2,B*%
%TO.N,COL7*%
X259750000Y-88240000D03*
%TD*%
%TO.P,SW14,1,A*%
%TO.N,ROW1*%
X147200000Y-66700000D03*
%TO.P,SW14,2,B*%
%TO.N,COL3*%
X140850000Y-69240000D03*
%TD*%
%TO.P,SW20,1,A*%
%TO.N,ROW1*%
X299200000Y-66700000D03*
%TO.P,SW20,2,B*%
%TO.N,COL9*%
X292850000Y-69240000D03*
%TD*%
%TO.P,SW73,1,A*%
%TO.N,ROW6*%
X230300000Y-123700000D03*
%TO.P,SW73,2,B*%
%TO.N,COL4*%
X223950000Y-126240000D03*
%TD*%
%TO.P,SW17,1,A*%
%TO.N,ROW1*%
X223200000Y-66700000D03*
%TO.P,SW17,2,B*%
%TO.N,COL6*%
X216850000Y-69240000D03*
%TD*%
%TO.P,SW8,1,A*%
%TO.N,ROW0*%
X251600000Y-47700000D03*
%TO.P,SW8,2,B*%
%TO.N,COL7*%
X245250000Y-50240000D03*
%TD*%
D20*
%TO.P,PL1,1,Pin_1*%
%TO.N,GND*%
X82130000Y-136650000D03*
D21*
%TO.P,PL1,2,Pin_2*%
%TO.N,/KBA0*%
X79590000Y-136650000D03*
%TO.P,PL1,3,Pin_3*%
%TO.N,/KBA1*%
X77050000Y-136650000D03*
%TO.P,PL1,4,Pin_4*%
%TO.N,/KBA2*%
X74510000Y-136650000D03*
%TO.P,PL1,5,Pin_5*%
%TO.N,/KBA3*%
X71970000Y-136650000D03*
%TO.P,PL1,6,Pin_6*%
%TO.N,!RST*%
X69430000Y-136650000D03*
%TO.P,PL1,7,Pin_7*%
%TO.N,ROW7*%
X66890000Y-136650000D03*
%TO.P,PL1,8,Pin_8*%
%TO.N,ROW6*%
X64350000Y-136650000D03*
%TO.P,PL1,9,Pin_9*%
%TO.N,ROW5*%
X61810000Y-136650000D03*
%TO.P,PL1,10,Pin_10*%
%TO.N,ROW4*%
X59270000Y-136650000D03*
%TO.P,PL1,11,Pin_11*%
%TO.N,ROW3*%
X56730000Y-136650000D03*
%TO.P,PL1,12,Pin_12*%
%TO.N,ROW2*%
X54190000Y-136650000D03*
%TO.P,PL1,13,Pin_13*%
%TO.N,ROW1*%
X51650000Y-136650000D03*
%TO.P,PL1,14,Pin_14*%
%TO.N,ROW0*%
X49110000Y-136650000D03*
%TO.P,PL1,15,Pin_15*%
%TO.N,+5V*%
X46570000Y-136650000D03*
%TD*%
D14*
%TO.P,SW33,1,A*%
%TO.N,ROW3*%
X66400000Y-66700000D03*
%TO.P,SW33,2,B*%
%TO.N,COL2*%
X60050000Y-69240000D03*
%TD*%
%TO.P,SW9,1,A*%
%TO.N,ROW0*%
X270600000Y-47700000D03*
%TO.P,SW9,2,B*%
%TO.N,COL8*%
X264250000Y-50240000D03*
%TD*%
%TO.P,SW52,1,A*%
%TO.N,ROW5*%
X142800000Y-104700000D03*
%TO.P,SW52,2,B*%
%TO.N,COL1*%
X136450000Y-107240000D03*
%TD*%
%TO.P,SW31,1,A*%
%TO.N,ROW3*%
X61600000Y-47700000D03*
%TO.P,SW31,2,B*%
%TO.N,COL0*%
X55250000Y-50240000D03*
%TD*%
%TO.P,SW61,1,A*%
%TO.N,ROW6*%
X52400000Y-104700000D03*
%TO.P,SW61,2,B*%
%TO.N,COL0*%
X46050000Y-107240000D03*
%TD*%
%TO.P,SW12,1,A*%
%TO.N,ROW1*%
X137600000Y-47700000D03*
%TO.P,SW12,2,B*%
%TO.N,COL1*%
X131250000Y-50240000D03*
%TD*%
%TO.P,SW57,1,A*%
%TO.N,ROW5*%
X228100000Y-85700000D03*
%TO.P,SW57,2,B*%
%TO.N,COL6*%
X221750000Y-88240000D03*
%TD*%
%TO.P,SW10,1,A*%
%TO.N,ROW0*%
X318200000Y-66700000D03*
%TO.P,SW10,2,B*%
%TO.N,COL9*%
X311850000Y-69240000D03*
%TD*%
%TO.P,SW27,1,A*%
%TO.N,ROW2*%
X242200000Y-66700000D03*
%TO.P,SW27,2,B*%
%TO.N,COL6*%
X235850000Y-69240000D03*
%TD*%
D22*
%TO.N,ROW3*%
X42410000Y-77000000D03*
%TD*%
D23*
%TO.N,COL6*%
X231680000Y-107470000D02*
X231450000Y-107240000D01*
X231680000Y-110660000D02*
X231680000Y-107470000D01*
X266860050Y-137550000D02*
X244290050Y-114980000D01*
X244290050Y-114980000D02*
X236000000Y-114980000D01*
X284030000Y-137550000D02*
X266860050Y-137550000D01*
X285910000Y-135670000D02*
X284030000Y-137550000D01*
X285910000Y-131180000D02*
X285910000Y-135670000D01*
X289810000Y-127280000D02*
X285910000Y-131180000D01*
X289810000Y-124530000D02*
X289810000Y-127280000D01*
X236000000Y-114980000D02*
X231680000Y-110660000D01*
%TO.N,COL5*%
X287270000Y-138250000D02*
X208090000Y-138250000D01*
X288560000Y-136960000D02*
X287270000Y-138250000D01*
X204670000Y-134830000D02*
X204670000Y-107220000D01*
X288560000Y-131180000D02*
X288560000Y-136960000D01*
X292350000Y-127390000D02*
X288560000Y-131180000D01*
X208090000Y-138250000D02*
X204670000Y-134830000D01*
X292350000Y-124530000D02*
X292350000Y-127390000D01*
%TO.N,COL4*%
X175760000Y-134190000D02*
X175760000Y-126290000D01*
X289840000Y-138950000D02*
X180520000Y-138950000D01*
X291100000Y-131260000D02*
X291100000Y-137690000D01*
X291100000Y-137690000D02*
X289840000Y-138950000D01*
X294890000Y-127470000D02*
X291100000Y-131260000D01*
X294890000Y-124530000D02*
X294890000Y-127470000D01*
X180520000Y-138950000D02*
X175760000Y-134190000D01*
%TO.N,COL3*%
X160930000Y-139650000D02*
X156760000Y-135480000D01*
X293600000Y-137220000D02*
X291170000Y-139650000D01*
X293600000Y-131250000D02*
X293600000Y-137220000D01*
X297430000Y-127420000D02*
X293600000Y-131250000D01*
X291170000Y-139650000D02*
X160930000Y-139650000D01*
X297430000Y-124530000D02*
X297430000Y-127420000D01*
X156760000Y-135480000D02*
X156760000Y-107280000D01*
%TO.N,COL1*%
X118760000Y-134850000D02*
X118760000Y-107240000D01*
X124260000Y-140350000D02*
X118760000Y-134850000D01*
X298680000Y-124052233D02*
X298680000Y-127930000D01*
X296180000Y-130430000D02*
X296180000Y-138910000D01*
X299452233Y-123280000D02*
X298680000Y-124052233D01*
X298680000Y-127930000D02*
X296180000Y-130430000D01*
X301260000Y-123280000D02*
X299452233Y-123280000D01*
X294740000Y-140350000D02*
X124260000Y-140350000D01*
X302510000Y-124530000D02*
X301260000Y-123280000D01*
X296180000Y-138910000D02*
X294740000Y-140350000D01*
%TO.N,COL2*%
X86080000Y-135210050D02*
X86080000Y-107300000D01*
X296400000Y-141050000D02*
X91919950Y-141050000D01*
X298680000Y-138770000D02*
X296400000Y-141050000D01*
X298680000Y-129850000D02*
X298680000Y-138770000D01*
X91919950Y-141050000D02*
X86080000Y-135210050D01*
X299970000Y-128560000D02*
X298680000Y-129850000D01*
X299970000Y-124530000D02*
X299970000Y-128560000D01*
D24*
%TO.N,Net-(D18-A)*%
X332750000Y-50690000D02*
X331140000Y-50690000D01*
X335060000Y-85710000D02*
X335060000Y-53000000D01*
X335060000Y-53000000D02*
X332750000Y-50690000D01*
%TO.N,+5V*%
X335060000Y-120810000D02*
X327757500Y-128112500D01*
X327757500Y-128112500D02*
X317850000Y-128112500D01*
X335060000Y-93330000D02*
X335060000Y-120810000D01*
D25*
X315132500Y-130830000D02*
X317850000Y-128112500D01*
X311190000Y-130830000D02*
X315132500Y-130830000D01*
X47780000Y-142250000D02*
X46570000Y-141040000D01*
X297580000Y-142250000D02*
X47780000Y-142250000D01*
X305050000Y-134780000D02*
X297580000Y-142250000D01*
X305050000Y-132150000D02*
X305050000Y-134780000D01*
X46570000Y-141040000D02*
X46570000Y-136650000D01*
D23*
%TO.N,COL7*%
X290310000Y-122040000D02*
X252340000Y-122040000D01*
X250530000Y-120230000D02*
X250530000Y-107320000D01*
X291060000Y-127400000D02*
X291060000Y-122790000D01*
X291060000Y-122790000D02*
X290310000Y-122040000D01*
X252340000Y-122040000D02*
X250530000Y-120230000D01*
X287270000Y-131190000D02*
X291060000Y-127400000D01*
X287270000Y-132150000D02*
X287270000Y-131190000D01*
X250530000Y-107320000D02*
X250450000Y-107240000D01*
%TO.N,COL8*%
X269530000Y-107320000D02*
X269450000Y-107240000D01*
X270370000Y-121340000D02*
X269530000Y-120500000D01*
X293640000Y-127380000D02*
X293640000Y-122440000D01*
X293640000Y-122440000D02*
X292540000Y-121340000D01*
X292540000Y-121340000D02*
X270370000Y-121340000D01*
X289810000Y-131210000D02*
X293640000Y-127380000D01*
X269530000Y-120500000D02*
X269530000Y-107320000D01*
X289810000Y-132150000D02*
X289810000Y-131210000D01*
%TO.N,COL9*%
X290630000Y-115890000D02*
X290630000Y-88300000D01*
X296160000Y-121420000D02*
X290630000Y-115890000D01*
X296160000Y-127400000D02*
X296160000Y-121420000D01*
X292350000Y-131210000D02*
X296160000Y-127400000D01*
X292350000Y-132150000D02*
X292350000Y-131210000D01*
%TO.N,+5V*%
X71960000Y-131980000D02*
X70700000Y-133240000D01*
X47020000Y-133240000D02*
X46570000Y-133690000D01*
D25*
X311190000Y-130830000D02*
X306370000Y-130830000D01*
D23*
X71960000Y-130080000D02*
X71960000Y-131980000D01*
X46570000Y-133690000D02*
X46570000Y-136650000D01*
X70700000Y-133240000D02*
X47020000Y-133240000D01*
D25*
X306370000Y-130830000D02*
X305050000Y-132150000D01*
D23*
%TO.N,!RST*%
X69420000Y-130080000D02*
X69420000Y-127560000D01*
X69420000Y-127560000D02*
X85110000Y-111870000D01*
X87030000Y-43700000D02*
X309400000Y-43700000D01*
X81230000Y-77500000D02*
X81230000Y-49500000D01*
X81230000Y-49500000D02*
X87030000Y-43700000D01*
X85110000Y-81380000D02*
X81230000Y-77500000D01*
X85110000Y-111870000D02*
X85110000Y-81380000D01*
X309400000Y-43700000D02*
X313400000Y-47700000D01*
%TO.N,ROW7*%
X81400000Y-111470000D02*
X81400000Y-105100000D01*
X66880000Y-125990000D02*
X81400000Y-111470000D01*
X66880000Y-130080000D02*
X66880000Y-125990000D01*
X81400000Y-105100000D02*
X81000000Y-104700000D01*
%TO.N,ROW3*%
X52710000Y-66700000D02*
X61570000Y-66700000D01*
X61600000Y-66670000D02*
X61570000Y-66700000D01*
X61570000Y-66700000D02*
X66400000Y-66700000D01*
X61600000Y-47700000D02*
X61600000Y-66670000D01*
X42410000Y-77000000D02*
X52710000Y-66700000D01*
%TO.N,COL6*%
X216930000Y-92720000D02*
X216930000Y-88340000D01*
X216930000Y-88340000D02*
X216930000Y-69320000D01*
X217030000Y-88240000D02*
X216930000Y-88340000D01*
X224694366Y-50240000D02*
X226250000Y-50240000D01*
X216850000Y-58084366D02*
X224694366Y-50240000D01*
X231450000Y-107240000D02*
X216930000Y-92720000D01*
X216930000Y-69320000D02*
X216850000Y-69240000D01*
X216850000Y-69240000D02*
X235850000Y-69240000D01*
X221750000Y-88240000D02*
X217030000Y-88240000D01*
X216850000Y-69240000D02*
X216850000Y-58084366D01*
%TO.N,COL7*%
X240750000Y-88240000D02*
X252340000Y-88240000D01*
X252230000Y-69290000D02*
X252230000Y-61280000D01*
X252280000Y-69240000D02*
X252230000Y-69290000D01*
X245330000Y-50320000D02*
X245250000Y-50240000D01*
X259750000Y-88240000D02*
X252340000Y-88240000D01*
X254850000Y-69240000D02*
X252280000Y-69240000D01*
X252340000Y-88240000D02*
X252230000Y-88130000D01*
X252230000Y-105460000D02*
X252230000Y-88130000D01*
X245330000Y-54380000D02*
X245330000Y-50320000D01*
X252230000Y-88130000D02*
X252230000Y-69290000D01*
X252230000Y-61280000D02*
X245330000Y-54380000D01*
X250450000Y-107240000D02*
X252230000Y-105460000D01*
%TO.N,COL8*%
X270559999Y-69240000D02*
X270549999Y-69230000D01*
X270549999Y-69230000D02*
X270549999Y-61384367D01*
X264250000Y-50240000D02*
X264610000Y-50600000D01*
X264610000Y-55444368D02*
X270549999Y-61384367D01*
X270639999Y-88240000D02*
X270549999Y-88330000D01*
X270549999Y-106140001D02*
X270549999Y-88330000D01*
X270549999Y-61384367D02*
X281694366Y-50240000D01*
X281694366Y-50240000D02*
X283250000Y-50240000D01*
X269450000Y-107240000D02*
X270549999Y-106140001D01*
X273850000Y-69240000D02*
X270559999Y-69240000D01*
X278750000Y-88240000D02*
X270639999Y-88240000D01*
X264610000Y-50600000D02*
X264610000Y-55444368D01*
X270549999Y-88330000D02*
X270549999Y-69230000D01*
%TO.N,COL9*%
X290630000Y-75440000D02*
X290230000Y-75040000D01*
X290230000Y-75040000D02*
X290230000Y-70304366D01*
X291294366Y-69240000D02*
X292850000Y-69240000D01*
X297750000Y-88240000D02*
X290690000Y-88240000D01*
X321850000Y-107240000D02*
X318220000Y-107240000D01*
X317330000Y-88820000D02*
X316750000Y-88240000D01*
X290630000Y-88300000D02*
X290630000Y-75440000D01*
X290690000Y-88240000D02*
X290630000Y-88300000D01*
X318220000Y-107240000D02*
X317330000Y-106350000D01*
X317330000Y-106350000D02*
X317330000Y-88820000D01*
X297750000Y-88240000D02*
X316750000Y-88240000D01*
X292850000Y-69240000D02*
X311850000Y-69240000D01*
X290230000Y-70304366D02*
X291294366Y-69240000D01*
%TO.N,COL5*%
X202930000Y-88420000D02*
X202750000Y-88240000D01*
X212450000Y-107240000D02*
X204690000Y-107240000D01*
X193460000Y-78950000D02*
X193460000Y-69360000D01*
X188650000Y-50640000D02*
X188250000Y-50240000D01*
X202750000Y-88240000D02*
X193460000Y-78950000D01*
X197850000Y-69240000D02*
X193580000Y-69240000D01*
X193580000Y-69240000D02*
X193460000Y-69360000D01*
X204670000Y-96200000D02*
X202930000Y-94460000D01*
X188650000Y-55870000D02*
X188650000Y-50640000D01*
X204670000Y-107220000D02*
X204670000Y-96200000D01*
X202930000Y-94460000D02*
X202930000Y-88420000D01*
X193460000Y-69360000D02*
X193460000Y-60680000D01*
X203900000Y-50240000D02*
X207250000Y-50240000D01*
X193460000Y-60680000D02*
X188650000Y-55870000D01*
X204690000Y-107240000D02*
X204670000Y-107220000D01*
X193460000Y-60680000D02*
X203900000Y-50240000D01*
%TO.N,COL4*%
X170349999Y-64039999D02*
X170349999Y-55909999D01*
X169580000Y-50570000D02*
X169250000Y-50240000D01*
X175810000Y-126240000D02*
X175760000Y-126290000D01*
X175760000Y-69660000D02*
X175760000Y-69450000D01*
X175760000Y-88200000D02*
X175760000Y-69660000D01*
X178850000Y-69240000D02*
X176180000Y-69240000D01*
X176180000Y-69240000D02*
X175760000Y-69660000D01*
X183950000Y-126240000D02*
X175810000Y-126240000D01*
X175740000Y-107240000D02*
X193450000Y-107240000D01*
X175760000Y-107220000D02*
X175760000Y-88200000D01*
X175740000Y-107240000D02*
X175760000Y-107220000D01*
X174450000Y-107240000D02*
X175740000Y-107240000D01*
X183750000Y-88240000D02*
X175800000Y-88240000D01*
X169580000Y-55140000D02*
X169580000Y-50570000D01*
X170349999Y-55909999D02*
X169580000Y-55140000D01*
X175760000Y-126290000D02*
X175760000Y-107220000D01*
X175800000Y-88240000D02*
X175760000Y-88200000D01*
X175760000Y-69450000D02*
X170349999Y-64039999D01*
%TO.N,COL3*%
X150470000Y-50460000D02*
X150470000Y-53860000D01*
X150250000Y-50240000D02*
X150470000Y-50460000D01*
X156760000Y-60150000D02*
X151560000Y-54950000D01*
X156760000Y-60680000D02*
X156760000Y-60150000D01*
X159850000Y-69240000D02*
X156800000Y-69240000D01*
X156800000Y-69240000D02*
X156760000Y-69280000D01*
X156760000Y-88160000D02*
X156760000Y-69280000D01*
X164750000Y-88240000D02*
X156840000Y-88240000D01*
X156760000Y-107280000D02*
X156760000Y-88160000D01*
X156800000Y-69240000D02*
X140850000Y-69240000D01*
X156840000Y-88240000D02*
X156760000Y-88160000D01*
X155450000Y-107240000D02*
X156720000Y-107240000D01*
X156760000Y-88160000D02*
X156680000Y-88240000D01*
X156680000Y-88240000D02*
X145750000Y-88240000D01*
X156760000Y-69280000D02*
X156760000Y-60680000D01*
X150470000Y-53860000D02*
X151560000Y-54950000D01*
X156720000Y-107240000D02*
X156760000Y-107280000D01*
%TO.N,COL2*%
X86080000Y-76150000D02*
X84460000Y-74530000D01*
X88750000Y-88240000D02*
X86240000Y-88240000D01*
X83850000Y-69240000D02*
X83850000Y-57150000D01*
X86080000Y-88400000D02*
X86080000Y-76150000D01*
X98450000Y-107240000D02*
X86140000Y-107240000D01*
X84460000Y-74530000D02*
X84460000Y-69850000D01*
X107750000Y-88240000D02*
X88750000Y-88240000D01*
X84460000Y-69850000D02*
X83850000Y-69240000D01*
X83850000Y-57150000D02*
X90760000Y-50240000D01*
X86240000Y-88240000D02*
X86080000Y-88400000D01*
X102850000Y-69240000D02*
X83850000Y-69240000D01*
X86080000Y-107300000D02*
X86080000Y-88400000D01*
X90760000Y-50240000D02*
X93250000Y-50240000D01*
X86140000Y-107240000D02*
X86080000Y-107300000D01*
%TO.N,COL1*%
X118760000Y-88100000D02*
X118760000Y-69120000D01*
X118760000Y-107240000D02*
X118760000Y-88100000D01*
X118760000Y-60490000D02*
X129010000Y-50240000D01*
X118880000Y-69240000D02*
X118760000Y-69120000D01*
X118760000Y-107240000D02*
X117450000Y-107240000D01*
X136450000Y-107240000D02*
X118760000Y-107240000D01*
X112760000Y-54490000D02*
X118760000Y-60490000D01*
X118900000Y-88240000D02*
X118760000Y-88100000D01*
X126750000Y-88240000D02*
X118900000Y-88240000D01*
X121850000Y-69240000D02*
X118880000Y-69240000D01*
X112250000Y-50240000D02*
X112760000Y-50750000D01*
X118760000Y-69120000D02*
X118760000Y-60490000D01*
X112760000Y-50750000D02*
X112760000Y-54490000D01*
X129010000Y-50240000D02*
X131250000Y-50240000D01*
%TO.N,COL0*%
X69750000Y-89190000D02*
X70500000Y-89940000D01*
X293880000Y-113360000D02*
X305050000Y-124530000D01*
X69750000Y-88240000D02*
X70920000Y-87070000D01*
X59680000Y-45810000D02*
X55250000Y-50240000D01*
X69820000Y-45810000D02*
X59680000Y-45810000D01*
X69750000Y-88240000D02*
X69750000Y-89190000D01*
X71140000Y-94360000D02*
X71140000Y-103730000D01*
X70500000Y-89940000D02*
X70500000Y-93720000D01*
X49194366Y-88240000D02*
X50750000Y-88240000D01*
X71140000Y-103730000D02*
X74650000Y-107240000D01*
X70500000Y-93720000D02*
X71140000Y-94360000D01*
X293880000Y-107870000D02*
X293880000Y-113360000D01*
X50750000Y-88240000D02*
X69750000Y-88240000D01*
X74250000Y-50240000D02*
X69820000Y-45810000D01*
X70920000Y-87070000D02*
X70920000Y-52930812D01*
X46050000Y-107240000D02*
X46050000Y-91384366D01*
X73610812Y-50240000D02*
X74250000Y-50240000D01*
X70920000Y-52930812D02*
X73610812Y-50240000D01*
X46050000Y-91384366D02*
X49194366Y-88240000D01*
X293250000Y-107240000D02*
X293880000Y-107870000D01*
%TD*%
M02*
