%TF.GenerationSoftware,KiCad,Pcbnew,7.0.7*%
%TF.CreationDate,2023-11-21T20:32:33+00:00*%
%TF.ProjectId,lynx96,6c796e78-3936-42e6-9b69-6361645f7063,rev?*%
%TF.SameCoordinates,Original*%
%TF.FileFunction,Soldermask,Bot*%
%TF.FilePolarity,Negative*%
%FSLAX46Y46*%
G04 Gerber Fmt 4.6, Leading zero omitted, Abs format (unit mm)*
G04 Created by KiCad (PCBNEW 7.0.7) date 2023-11-21 20:32:33*
%MOMM*%
%LPD*%
G01*
G04 APERTURE LIST*
%ADD10R,1.600000X1.600000*%
%ADD11O,1.600000X1.600000*%
%ADD12C,1.400000*%
%ADD13O,1.400000X1.400000*%
%ADD14C,1.600000*%
%ADD15C,1.700000*%
%ADD16O,1.700000X1.700000*%
%ADD17O,1.800000X1.800000*%
%ADD18C,6.300000*%
%ADD19C,1.500000*%
%ADD20O,1.900000X1.900000*%
%ADD21C,1.900000*%
%ADD22R,1.700000X1.700000*%
%ADD23C,2.500000*%
%ADD24C,2.250000*%
%ADD25C,3.000000*%
%ADD26O,2.000000X2.000000*%
%ADD27C,2.200000*%
%ADD28C,5.500000*%
G04 APERTURE END LIST*
D10*
%TO.C,IC35*%
X268550000Y-125890000D03*
D11*
X268550000Y-128430000D03*
X268550000Y-130970000D03*
X268550000Y-133510000D03*
X268550000Y-136050000D03*
X268550000Y-138590000D03*
X268550000Y-141130000D03*
X268550000Y-143670000D03*
X276170000Y-143670000D03*
X276170000Y-141130000D03*
X276170000Y-138590000D03*
X276170000Y-136050000D03*
X276170000Y-133510000D03*
X276170000Y-130970000D03*
X276170000Y-128430000D03*
X276170000Y-125890000D03*
%TD*%
D12*
%TO.C,R10*%
X196230000Y-53450000D03*
D13*
X196230000Y-49640000D03*
%TD*%
D14*
%TO.C,D6*%
X210060000Y-70040000D03*
D11*
X199900000Y-70040000D03*
%TD*%
D10*
%TO.C,IC38*%
X314360000Y-131030000D03*
D11*
X314360000Y-133570000D03*
X314360000Y-136110000D03*
X314360000Y-138650000D03*
X314360000Y-141190000D03*
X314360000Y-143730000D03*
X314360000Y-146270000D03*
X314360000Y-148810000D03*
X321980000Y-148810000D03*
X321980000Y-146270000D03*
X321980000Y-143730000D03*
X321980000Y-141190000D03*
X321980000Y-138650000D03*
X321980000Y-136110000D03*
X321980000Y-133570000D03*
X321980000Y-131030000D03*
%TD*%
D14*
%TO.C,R35*%
X339050000Y-76450000D03*
D11*
X339050000Y-86610000D03*
%TD*%
D14*
%TO.C,R95*%
X107110000Y-71100000D03*
D11*
X117270000Y-71100000D03*
%TD*%
D15*
%TO.C,LS1*%
X118495000Y-63740000D03*
D16*
X121035000Y-63740000D03*
%TD*%
D17*
%TO.C,PL4*%
X320700000Y-119690000D03*
X320700000Y-117150000D03*
X323240000Y-119690000D03*
X323240000Y-117150000D03*
X325780000Y-119690000D03*
X325780000Y-117150000D03*
X328320000Y-119690000D03*
X328320000Y-117150000D03*
X330860000Y-119690000D03*
X330860000Y-117150000D03*
X333400000Y-119690000D03*
X333400000Y-117150000D03*
X335940000Y-119690000D03*
X335940000Y-117150000D03*
X338480000Y-119690000D03*
X338480000Y-117150000D03*
X341020000Y-119690000D03*
X341020000Y-117150000D03*
X343560000Y-119690000D03*
X343560000Y-117150000D03*
X346100000Y-119690000D03*
X346100000Y-117150000D03*
X348640000Y-119690000D03*
X348640000Y-117150000D03*
X351180000Y-119690000D03*
X351180000Y-117150000D03*
X353720000Y-119690000D03*
X353720000Y-117150000D03*
X356260000Y-119690000D03*
X356260000Y-117150000D03*
X358800000Y-119690000D03*
X358800000Y-117150000D03*
X361340000Y-119690000D03*
X361340000Y-117150000D03*
X363880000Y-119690000D03*
X363880000Y-117150000D03*
X366420000Y-119690000D03*
X366420000Y-117150000D03*
X368960000Y-119690000D03*
X368960000Y-117150000D03*
%TD*%
D10*
%TO.C,IC31*%
X198610000Y-116960000D03*
D11*
X198610000Y-119500000D03*
X198610000Y-122040000D03*
X198610000Y-124580000D03*
X198610000Y-127120000D03*
X198610000Y-129660000D03*
X198610000Y-132200000D03*
X198610000Y-134740000D03*
X198610000Y-137280000D03*
X198610000Y-139820000D03*
X206230000Y-139820000D03*
X206230000Y-137280000D03*
X206230000Y-134740000D03*
X206230000Y-132200000D03*
X206230000Y-129660000D03*
X206230000Y-127120000D03*
X206230000Y-124580000D03*
X206230000Y-122040000D03*
X206230000Y-119500000D03*
X206230000Y-116960000D03*
%TD*%
D14*
%TO.C,R16*%
X210070000Y-67520000D03*
D11*
X199910000Y-67520000D03*
%TD*%
D15*
%TO.C,LK10*%
X309590000Y-42215000D03*
D16*
X309590000Y-44755000D03*
%TD*%
D10*
%TO.C,IC20*%
X243110000Y-94138507D03*
D11*
X243110000Y-96678507D03*
X243110000Y-99218507D03*
X243110000Y-101758507D03*
X243110000Y-104298507D03*
X243110000Y-106838507D03*
X243110000Y-109378507D03*
X250730000Y-109378507D03*
X250730000Y-106838507D03*
X250730000Y-104298507D03*
X250730000Y-101758507D03*
X250730000Y-99218507D03*
X250730000Y-96678507D03*
X250730000Y-94138507D03*
%TD*%
D14*
%TO.C,A15*%
X244310000Y-148790000D03*
X239230000Y-148790000D03*
%TD*%
%TO.C,A25*%
X274890000Y-151400000D03*
X269810000Y-151400000D03*
%TD*%
D12*
%TO.C,R30*%
X343630000Y-73860000D03*
D13*
X347440000Y-73860000D03*
%TD*%
D14*
%TO.C,R7*%
X152700000Y-84000000D03*
D11*
X152700000Y-73840000D03*
%TD*%
D12*
%TO.C,R42*%
X117150000Y-94210000D03*
D13*
X117150000Y-98020000D03*
%TD*%
D10*
%TO.C,IC68*%
X129920000Y-195620000D03*
D11*
X129920000Y-198160000D03*
X129920000Y-200700000D03*
X129920000Y-203240000D03*
X129920000Y-205780000D03*
X129920000Y-208320000D03*
X129920000Y-210860000D03*
X129920000Y-213400000D03*
X129920000Y-215940000D03*
X129920000Y-218480000D03*
X137540000Y-218480000D03*
X137540000Y-215940000D03*
X137540000Y-213400000D03*
X137540000Y-210860000D03*
X137540000Y-208320000D03*
X137540000Y-205780000D03*
X137540000Y-203240000D03*
X137540000Y-200700000D03*
X137540000Y-198160000D03*
X137540000Y-195620000D03*
%TD*%
D14*
%TO.C,XTL2*%
X367750000Y-67480000D03*
X362670000Y-67480000D03*
%TD*%
%TO.C,A76*%
X72780000Y-174040000D03*
X77860000Y-174040000D03*
%TD*%
D12*
%TO.C,R18*%
X240670000Y-71210000D03*
D13*
X240670000Y-73750000D03*
%TD*%
D12*
%TO.C,C19*%
X374100000Y-166705000D03*
D13*
X374100000Y-171785000D03*
%TD*%
D10*
%TO.C,IC49*%
X253260000Y-155198507D03*
D11*
X253260000Y-157738507D03*
X253260000Y-160278507D03*
X253260000Y-162818507D03*
X253260000Y-165358507D03*
X253260000Y-167898507D03*
X253260000Y-170438507D03*
X260880000Y-170438507D03*
X260880000Y-167898507D03*
X260880000Y-165358507D03*
X260880000Y-162818507D03*
X260880000Y-160278507D03*
X260880000Y-157738507D03*
X260880000Y-155198507D03*
%TD*%
D18*
%TO.C,H2*%
X46120000Y-105540000D03*
%TD*%
D14*
%TO.C,A36*%
X140270000Y-125690000D03*
X135190000Y-125690000D03*
%TD*%
D10*
%TO.C,IC61*%
X86710000Y-177760000D03*
D11*
X86710000Y-180300000D03*
X86710000Y-182840000D03*
X86710000Y-185380000D03*
X86710000Y-187920000D03*
X86710000Y-190460000D03*
X86710000Y-193000000D03*
X86710000Y-195540000D03*
X94330000Y-195540000D03*
X94330000Y-193000000D03*
X94330000Y-190460000D03*
X94330000Y-187920000D03*
X94330000Y-185380000D03*
X94330000Y-182840000D03*
X94330000Y-180300000D03*
X94330000Y-177760000D03*
%TD*%
D15*
%TO.C,LK1*%
X52330000Y-175350000D03*
D16*
X52330000Y-177890000D03*
X52330000Y-180430000D03*
%TD*%
D10*
%TO.C,IC51*%
X268570000Y-155128507D03*
D11*
X268570000Y-157668507D03*
X268570000Y-160208507D03*
X268570000Y-162748507D03*
X268570000Y-165288507D03*
X268570000Y-167828507D03*
X268570000Y-170368507D03*
X276190000Y-170368507D03*
X276190000Y-167828507D03*
X276190000Y-165288507D03*
X276190000Y-162748507D03*
X276190000Y-160208507D03*
X276190000Y-157668507D03*
X276190000Y-155128507D03*
%TD*%
D10*
%TO.C,IC15*%
X133800000Y-106760000D03*
D11*
X133800000Y-109300000D03*
X133800000Y-111840000D03*
X133800000Y-114380000D03*
X133800000Y-116920000D03*
X133800000Y-119460000D03*
X133800000Y-122000000D03*
X141420000Y-122000000D03*
X141420000Y-119460000D03*
X141420000Y-116920000D03*
X141420000Y-114380000D03*
X141420000Y-111840000D03*
X141420000Y-109300000D03*
X141420000Y-106760000D03*
%TD*%
D14*
%TO.C,R66*%
X166800000Y-217260000D03*
D11*
X166800000Y-207100000D03*
%TD*%
D12*
%TO.C,R41*%
X113350000Y-100625000D03*
D13*
X113350000Y-96425000D03*
%TD*%
D15*
%TO.C,LK11*%
X295875000Y-49440000D03*
D16*
X293335000Y-49440000D03*
X290795000Y-49440000D03*
%TD*%
D15*
%TO.C,LK5*%
X233670000Y-124565000D03*
D16*
X233670000Y-122025000D03*
X233670000Y-119485000D03*
%TD*%
D10*
%TO.C,IC19*%
X227880000Y-94148507D03*
D11*
X227880000Y-96688507D03*
X227880000Y-99228507D03*
X227880000Y-101768507D03*
X227880000Y-104308507D03*
X227880000Y-106848507D03*
X227880000Y-109388507D03*
X235500000Y-109388507D03*
X235500000Y-106848507D03*
X235500000Y-104308507D03*
X235500000Y-101768507D03*
X235500000Y-99228507D03*
X235500000Y-96688507D03*
X235500000Y-94148507D03*
%TD*%
D15*
%TO.C,LK9*%
X369020000Y-141105000D03*
D16*
X369020000Y-143645000D03*
X369020000Y-146185000D03*
%TD*%
D14*
%TO.C,C15*%
X122260000Y-208340000D03*
X122260000Y-210880000D03*
%TD*%
D10*
%TO.C,IC74*%
X253230000Y-200890000D03*
D11*
X253230000Y-203430000D03*
X253230000Y-205970000D03*
X253230000Y-208510000D03*
X253230000Y-211050000D03*
X253230000Y-213590000D03*
X253230000Y-216130000D03*
X260850000Y-216130000D03*
X260850000Y-213590000D03*
X260850000Y-211050000D03*
X260850000Y-208510000D03*
X260850000Y-205970000D03*
X260850000Y-203430000D03*
X260850000Y-200890000D03*
%TD*%
D12*
%TO.C,R11*%
X201350000Y-40805000D03*
D13*
X201350000Y-35725000D03*
%TD*%
D10*
%TO.C,IC23*%
X286400000Y-94188507D03*
D11*
X286400000Y-96728507D03*
X286400000Y-99268507D03*
X286400000Y-101808507D03*
X286400000Y-104348507D03*
X286400000Y-106888507D03*
X286400000Y-109428507D03*
X294020000Y-109428507D03*
X294020000Y-106888507D03*
X294020000Y-104348507D03*
X294020000Y-101808507D03*
X294020000Y-99268507D03*
X294020000Y-96728507D03*
X294020000Y-94188507D03*
%TD*%
D10*
%TO.C,IC52*%
X283810000Y-155128507D03*
D11*
X283810000Y-157668507D03*
X283810000Y-160208507D03*
X283810000Y-162748507D03*
X283810000Y-165288507D03*
X283810000Y-167828507D03*
X283810000Y-170368507D03*
X291430000Y-170368507D03*
X291430000Y-167828507D03*
X291430000Y-165288507D03*
X291430000Y-162748507D03*
X291430000Y-160208507D03*
X291430000Y-157668507D03*
X291430000Y-155128507D03*
%TD*%
D15*
%TO.C,LK8*%
X357445000Y-124690000D03*
D16*
X354905000Y-124690000D03*
%TD*%
D15*
%TO.C,LK4*%
X224670000Y-100935000D03*
D16*
X224670000Y-98395000D03*
X224670000Y-95855000D03*
%TD*%
D10*
%TO.C,IC64*%
X57420000Y-203200000D03*
D11*
X57420000Y-205740000D03*
X57420000Y-208280000D03*
X57420000Y-210820000D03*
X57420000Y-213360000D03*
X57420000Y-215900000D03*
X57420000Y-218440000D03*
X57420000Y-220980000D03*
X65040000Y-220980000D03*
X65040000Y-218440000D03*
X65040000Y-215900000D03*
X65040000Y-213360000D03*
X65040000Y-210820000D03*
X65040000Y-208280000D03*
X65040000Y-205740000D03*
X65040000Y-203200000D03*
%TD*%
D12*
%TO.C,XTL1*%
X252120000Y-52320000D03*
D13*
X257200000Y-52320000D03*
%TD*%
D10*
%TO.C,IC67*%
X101950000Y-203260000D03*
D11*
X101950000Y-205800000D03*
X101950000Y-208340000D03*
X101950000Y-210880000D03*
X101950000Y-213420000D03*
X101950000Y-215960000D03*
X101950000Y-218500000D03*
X101950000Y-221040000D03*
X109570000Y-221040000D03*
X109570000Y-218500000D03*
X109570000Y-215960000D03*
X109570000Y-213420000D03*
X109570000Y-210880000D03*
X109570000Y-208340000D03*
X109570000Y-205800000D03*
X109570000Y-203260000D03*
%TD*%
D14*
%TO.C,A86*%
X62540000Y-224900000D03*
X57460000Y-224900000D03*
%TD*%
D10*
%TO.C,IC66*%
X86740000Y-203230000D03*
D11*
X86740000Y-205770000D03*
X86740000Y-208310000D03*
X86740000Y-210850000D03*
X86740000Y-213390000D03*
X86740000Y-215930000D03*
X86740000Y-218470000D03*
X86740000Y-221010000D03*
X94360000Y-221010000D03*
X94360000Y-218470000D03*
X94360000Y-215930000D03*
X94360000Y-213390000D03*
X94360000Y-210850000D03*
X94360000Y-208310000D03*
X94360000Y-205770000D03*
X94360000Y-203230000D03*
%TD*%
D14*
%TO.C,A31*%
X107080000Y-97810000D03*
X102000000Y-97810000D03*
%TD*%
%TO.C,A91*%
X207450000Y-150550000D03*
X202370000Y-150550000D03*
%TD*%
%TO.C,A94*%
X305340000Y-58550000D03*
X300260000Y-58550000D03*
%TD*%
D12*
%TO.C,C7*%
X238050000Y-66135000D03*
D13*
X238050000Y-71215000D03*
%TD*%
D12*
%TO.C,C23*%
X121030000Y-58485000D03*
D13*
X121030000Y-53405000D03*
%TD*%
D12*
%TO.C,R48*%
X117185000Y-115680000D03*
D13*
X112105000Y-115680000D03*
%TD*%
D10*
%TO.C,IC10*%
X301680000Y-63670000D03*
D11*
X301680000Y-66210000D03*
X301680000Y-68750000D03*
X301680000Y-71290000D03*
X301680000Y-73830000D03*
X301680000Y-76370000D03*
X301680000Y-78910000D03*
X309300000Y-78910000D03*
X309300000Y-76370000D03*
X309300000Y-73830000D03*
X309300000Y-71290000D03*
X309300000Y-68750000D03*
X309300000Y-66210000D03*
X309300000Y-63670000D03*
%TD*%
D14*
%TO.C,A84*%
X152880000Y-186200000D03*
X147800000Y-186200000D03*
%TD*%
D12*
%TO.C,C17*%
X357640000Y-82665000D03*
D13*
X357640000Y-77585000D03*
%TD*%
D10*
%TO.C,IC55*%
X320730000Y-162800000D03*
D11*
X320730000Y-165340000D03*
X320730000Y-167880000D03*
X320730000Y-170420000D03*
X320730000Y-172960000D03*
X320730000Y-175500000D03*
X320730000Y-178040000D03*
X320730000Y-180580000D03*
X320730000Y-183120000D03*
X320730000Y-185660000D03*
X328350000Y-185660000D03*
X328350000Y-183120000D03*
X328350000Y-180580000D03*
X328350000Y-178040000D03*
X328350000Y-175500000D03*
X328350000Y-172960000D03*
X328350000Y-170420000D03*
X328350000Y-167880000D03*
X328350000Y-165340000D03*
X328350000Y-162800000D03*
%TD*%
D14*
%TO.C,A16*%
X244370000Y-174200000D03*
X239290000Y-174200000D03*
%TD*%
%TO.C,A33*%
X307900000Y-84050000D03*
X302820000Y-84050000D03*
%TD*%
%TO.C,R67*%
X169270000Y-217260000D03*
D11*
X169270000Y-207100000D03*
%TD*%
D14*
%TO.C,A4*%
X291480000Y-151310000D03*
X286400000Y-151310000D03*
%TD*%
D12*
%TO.C,R31*%
X343590000Y-76440000D03*
D13*
X347400000Y-76440000D03*
%TD*%
D12*
%TO.C,R72*%
X368950000Y-203510000D03*
D13*
X368950000Y-199700000D03*
%TD*%
D10*
%TO.C,IC65*%
X71430000Y-203260000D03*
D11*
X71430000Y-205800000D03*
X71430000Y-208340000D03*
X71430000Y-210880000D03*
X71430000Y-213420000D03*
X71430000Y-215960000D03*
X71430000Y-218500000D03*
X71430000Y-221040000D03*
X79050000Y-221040000D03*
X79050000Y-218500000D03*
X79050000Y-215960000D03*
X79050000Y-213420000D03*
X79050000Y-210880000D03*
X79050000Y-208340000D03*
X79050000Y-205800000D03*
X79050000Y-203260000D03*
%TD*%
D12*
%TO.C,R19*%
X240630000Y-76410000D03*
D13*
X240630000Y-78950000D03*
%TD*%
D14*
%TO.C,A34*%
X277470000Y-67410000D03*
X272390000Y-67410000D03*
%TD*%
D10*
%TO.C,IC4*%
X213930000Y-67458583D03*
D11*
X213930000Y-69998583D03*
X213930000Y-72538583D03*
X213930000Y-75078583D03*
X213930000Y-77618583D03*
X213930000Y-80158583D03*
X213930000Y-82698583D03*
X213930000Y-85238583D03*
X221550000Y-85238583D03*
X221550000Y-82698583D03*
X221550000Y-80158583D03*
X221550000Y-77618583D03*
X221550000Y-75078583D03*
X221550000Y-72538583D03*
X221550000Y-69998583D03*
X221550000Y-67458583D03*
%TD*%
D14*
%TO.C,C12*%
X373697172Y-87140000D03*
X373697172Y-83330000D03*
%TD*%
D10*
%TO.C,IC76*%
X283850000Y-200938507D03*
D11*
X283850000Y-203478507D03*
X283850000Y-206018507D03*
X283850000Y-208558507D03*
X283850000Y-211098507D03*
X283850000Y-213638507D03*
X283850000Y-216178507D03*
X291470000Y-216178507D03*
X291470000Y-213638507D03*
X291470000Y-211098507D03*
X291470000Y-208558507D03*
X291470000Y-206018507D03*
X291470000Y-203478507D03*
X291470000Y-200938507D03*
%TD*%
D12*
%TO.C,R39*%
X361590000Y-63850000D03*
D13*
X365400000Y-63850000D03*
%TD*%
D14*
%TO.C,R5*%
X131100000Y-84050000D03*
D11*
X131100000Y-94210000D03*
%TD*%
D10*
%TO.C,IC73*%
X238110000Y-202138507D03*
D11*
X238110000Y-204678507D03*
X238110000Y-207218507D03*
X238110000Y-209758507D03*
X238110000Y-212298507D03*
X238110000Y-214838507D03*
X238110000Y-217378507D03*
X245730000Y-217378507D03*
X245730000Y-214838507D03*
X245730000Y-212298507D03*
X245730000Y-209758507D03*
X245730000Y-207218507D03*
X245730000Y-204678507D03*
X245730000Y-202138507D03*
%TD*%
D14*
%TO.C,R32*%
X341620000Y-68770000D03*
D11*
X341620000Y-78930000D03*
%TD*%
D10*
%TO.C,IC32*%
X217580000Y-120760000D03*
D11*
X217580000Y-123300000D03*
X217580000Y-125840000D03*
X217580000Y-128380000D03*
X217580000Y-130920000D03*
X217580000Y-133460000D03*
X217580000Y-136000000D03*
X217580000Y-138540000D03*
X217580000Y-141080000D03*
X217580000Y-143620000D03*
X225200000Y-143620000D03*
X225200000Y-141080000D03*
X225200000Y-138540000D03*
X225200000Y-136000000D03*
X225200000Y-133460000D03*
X225200000Y-130920000D03*
X225200000Y-128380000D03*
X225200000Y-125840000D03*
X225200000Y-123300000D03*
X225200000Y-120760000D03*
%TD*%
D10*
%TO.C,IC9*%
X286290000Y-71310000D03*
D11*
X286290000Y-73850000D03*
X286290000Y-76390000D03*
X286290000Y-78930000D03*
X286290000Y-81470000D03*
X286290000Y-84010000D03*
X286290000Y-86550000D03*
X293910000Y-86550000D03*
X293910000Y-84010000D03*
X293910000Y-81470000D03*
X293910000Y-78930000D03*
X293910000Y-76390000D03*
X293910000Y-73850000D03*
X293910000Y-71310000D03*
%TD*%
D14*
%TO.C,R87*%
X232880000Y-200290000D03*
D11*
X232880000Y-210450000D03*
%TD*%
D14*
%TO.C,A87*%
X93020000Y-224950000D03*
X87940000Y-224950000D03*
%TD*%
D12*
%TO.C,R57*%
X279855000Y-162725000D03*
D13*
X278905000Y-166605000D03*
%TD*%
D12*
%TO.C,R20*%
X274790000Y-57590000D03*
D13*
X278600000Y-57590000D03*
%TD*%
D14*
%TO.C,D2*%
X131170000Y-67520000D03*
D11*
X141330000Y-67520000D03*
%TD*%
D14*
%TO.C,D3*%
X131170000Y-70080000D03*
D11*
X141330000Y-70080000D03*
%TD*%
D14*
%TO.C,A3*%
X363850000Y-169130000D03*
X358770000Y-169130000D03*
%TD*%
D12*
%TO.C,R21*%
X292965000Y-63800000D03*
D13*
X297165000Y-63800000D03*
%TD*%
D12*
%TO.C,R62*%
X371820000Y-179220000D03*
D13*
X368010000Y-179220000D03*
%TD*%
D10*
%TO.C,IC33*%
X238050000Y-125810000D03*
D11*
X238050000Y-128350000D03*
X238050000Y-130890000D03*
X238050000Y-133430000D03*
X238050000Y-135970000D03*
X238050000Y-138510000D03*
X238050000Y-141050000D03*
X238050000Y-143590000D03*
X245670000Y-143590000D03*
X245670000Y-141050000D03*
X245670000Y-138510000D03*
X245670000Y-135970000D03*
X245670000Y-133430000D03*
X245670000Y-130890000D03*
X245670000Y-128350000D03*
X245670000Y-125810000D03*
%TD*%
D14*
%TO.C,R4*%
X128620000Y-72540000D03*
D11*
X128620000Y-62380000D03*
%TD*%
D15*
%TO.C,LK7*%
X296560000Y-78890000D03*
D16*
X299100000Y-78890000D03*
X296560000Y-81430000D03*
X299100000Y-81430000D03*
X296560000Y-83970000D03*
X299100000Y-83970000D03*
X296560000Y-86510000D03*
X299100000Y-86510000D03*
%TD*%
D12*
%TO.C,R52*%
X221420000Y-91560000D03*
D13*
X225230000Y-91560000D03*
%TD*%
D10*
%TO.C,IC8*%
X271150000Y-71268507D03*
D11*
X271150000Y-73808507D03*
X271150000Y-76348507D03*
X271150000Y-78888507D03*
X271150000Y-81428507D03*
X271150000Y-83968507D03*
X271150000Y-86508507D03*
X278770000Y-86508507D03*
X278770000Y-83968507D03*
X278770000Y-81428507D03*
X278770000Y-78888507D03*
X278770000Y-76348507D03*
X278770000Y-73808507D03*
X278770000Y-71268507D03*
%TD*%
D14*
%TO.C,A6*%
X326770000Y-158940000D03*
X321690000Y-158940000D03*
%TD*%
%TO.C,R84*%
X141330000Y-72550000D03*
D11*
X131170000Y-72550000D03*
%TD*%
D10*
%TO.C,IC16*%
X170740000Y-138510000D03*
D11*
X170740000Y-135970000D03*
X170740000Y-133430000D03*
X170740000Y-130890000D03*
X170740000Y-128350000D03*
X170740000Y-125810000D03*
X170740000Y-123270000D03*
X170740000Y-120730000D03*
X170740000Y-118190000D03*
X170740000Y-115650000D03*
X170740000Y-113110000D03*
X170740000Y-110570000D03*
X170740000Y-108030000D03*
X170740000Y-105490000D03*
X170740000Y-102950000D03*
X170740000Y-100410000D03*
X170740000Y-97870000D03*
X170740000Y-95330000D03*
X170740000Y-92790000D03*
X170740000Y-90250000D03*
X155500000Y-90250000D03*
X155500000Y-92790000D03*
X155500000Y-95330000D03*
X155500000Y-97870000D03*
X155500000Y-100410000D03*
X155500000Y-102950000D03*
X155500000Y-105490000D03*
X155500000Y-108030000D03*
X155500000Y-110570000D03*
X155500000Y-113110000D03*
X155500000Y-115650000D03*
X155500000Y-118190000D03*
X155500000Y-120730000D03*
X155500000Y-123270000D03*
X155500000Y-125810000D03*
X155500000Y-128350000D03*
X155500000Y-130890000D03*
X155500000Y-133430000D03*
X155500000Y-135970000D03*
X155500000Y-138510000D03*
%TD*%
D14*
%TO.C,A18*%
X197230000Y-189720000D03*
X192150000Y-189720000D03*
%TD*%
%TO.C,A72*%
X72690000Y-199480000D03*
X77770000Y-199480000D03*
%TD*%
D12*
%TO.C,C16*%
X352770000Y-76535000D03*
D13*
X352770000Y-81615000D03*
%TD*%
D14*
%TO.C,A1*%
X141140000Y-75060000D03*
X136060000Y-75060000D03*
%TD*%
D19*
%TO.C,TR1*%
X203760000Y-50950000D03*
X201220000Y-53490000D03*
X198680000Y-50950000D03*
%TD*%
D10*
%TO.C,IC82*%
X87950000Y-110460000D03*
D11*
X87950000Y-113000000D03*
X87950000Y-115540000D03*
X87950000Y-118080000D03*
X87950000Y-120620000D03*
X87950000Y-123160000D03*
X87950000Y-125700000D03*
X95570000Y-125700000D03*
X95570000Y-123160000D03*
X95570000Y-120620000D03*
X95570000Y-118080000D03*
X95570000Y-115540000D03*
X95570000Y-113000000D03*
X95570000Y-110460000D03*
%TD*%
D12*
%TO.C,R27*%
X316330000Y-57830000D03*
D13*
X316330000Y-61640000D03*
%TD*%
D14*
%TO.C,R93*%
X107190000Y-90460000D03*
D11*
X117350000Y-90460000D03*
%TD*%
D14*
%TO.C,A17*%
X355030000Y-90840000D03*
X349950000Y-90840000D03*
%TD*%
%TO.C,R94*%
X107190000Y-88080000D03*
D11*
X117350000Y-88080000D03*
%TD*%
D10*
%TO.C,IC25*%
X326000000Y-92888507D03*
D11*
X326000000Y-95428507D03*
X326000000Y-97968507D03*
X326000000Y-100508507D03*
X326000000Y-103048507D03*
X326000000Y-105588507D03*
X326000000Y-108128507D03*
X333620000Y-108128507D03*
X333620000Y-105588507D03*
X333620000Y-103048507D03*
X333620000Y-100508507D03*
X333620000Y-97968507D03*
X333620000Y-95428507D03*
X333620000Y-92888507D03*
%TD*%
D12*
%TO.C,R12*%
X205175000Y-54705000D03*
D13*
X206435000Y-50905000D03*
%TD*%
D12*
%TO.C,C24*%
X113535000Y-93050000D03*
D13*
X108455000Y-93050000D03*
%TD*%
D14*
%TO.C,A59*%
X285050000Y-147540000D03*
X290130000Y-147540000D03*
%TD*%
D20*
%TO.C,VC1*%
X353667500Y-71167500D03*
X348587500Y-71167500D03*
D21*
X348587500Y-66087500D03*
%TD*%
D14*
%TO.C,A24*%
X288870000Y-174250000D03*
X283790000Y-174250000D03*
%TD*%
D22*
%TO.C,PL1*%
X109450000Y-169080000D03*
D16*
X106910000Y-169080000D03*
X104370000Y-169080000D03*
X101830000Y-169080000D03*
X99290000Y-169080000D03*
X96750000Y-169080000D03*
X94210000Y-169080000D03*
X91670000Y-169080000D03*
X89130000Y-169080000D03*
X86590000Y-169080000D03*
X84050000Y-169080000D03*
X81510000Y-169080000D03*
X78970000Y-169080000D03*
X76430000Y-169080000D03*
X73890000Y-169080000D03*
X71350000Y-169080000D03*
%TD*%
D10*
%TO.C,IC3*%
X155360000Y-69968507D03*
D11*
X155360000Y-72508507D03*
X155360000Y-75048507D03*
X155360000Y-77588507D03*
X155360000Y-80128507D03*
X155360000Y-82668507D03*
X155360000Y-85208507D03*
X162980000Y-85208507D03*
X162980000Y-82668507D03*
X162980000Y-80128507D03*
X162980000Y-77588507D03*
X162980000Y-75048507D03*
X162980000Y-72508507D03*
X162980000Y-69968507D03*
%TD*%
D10*
%TO.C,IC48*%
X238640000Y-177938507D03*
D11*
X238640000Y-180478507D03*
X238640000Y-183018507D03*
X238640000Y-185558507D03*
X238640000Y-188098507D03*
X238640000Y-190638507D03*
X238640000Y-193178507D03*
X246260000Y-193178507D03*
X246260000Y-190638507D03*
X246260000Y-188098507D03*
X246260000Y-185558507D03*
X246260000Y-183018507D03*
X246260000Y-180478507D03*
X246260000Y-177938507D03*
%TD*%
D14*
%TO.C,A8*%
X348630000Y-158980000D03*
X343550000Y-158980000D03*
%TD*%
D15*
%TO.C,LK3*%
X191930000Y-106730000D03*
D16*
X191930000Y-109270000D03*
X191930000Y-111810000D03*
X194470000Y-106730000D03*
X194470000Y-109270000D03*
X194470000Y-111810000D03*
%TD*%
D14*
%TO.C,A79*%
X330920000Y-152690000D03*
X336000000Y-152690000D03*
%TD*%
%TO.C,A56*%
X239290000Y-121440000D03*
X244370000Y-121440000D03*
%TD*%
%TO.C,A77*%
X87910000Y-174120000D03*
X92990000Y-174120000D03*
%TD*%
D10*
%TO.C,IC62*%
X101980000Y-177960000D03*
D11*
X101980000Y-180500000D03*
X101980000Y-183040000D03*
X101980000Y-185580000D03*
X101980000Y-188120000D03*
X101980000Y-190660000D03*
X101980000Y-193200000D03*
X101980000Y-195740000D03*
X109600000Y-195740000D03*
X109600000Y-193200000D03*
X109600000Y-190660000D03*
X109600000Y-188120000D03*
X109600000Y-185580000D03*
X109600000Y-183040000D03*
X109600000Y-180500000D03*
X109600000Y-177960000D03*
%TD*%
D23*
%TO.C,D8*%
X72755000Y-40650000D03*
X85505000Y-40650000D03*
%TD*%
D12*
%TO.C,R9*%
X197510000Y-40815000D03*
D13*
X197510000Y-35735000D03*
%TD*%
D14*
%TO.C,A83*%
X137590000Y-189450000D03*
X132510000Y-189450000D03*
%TD*%
%TO.C,IC99*%
X268520000Y-178070000D03*
D11*
X268520000Y-180610000D03*
X268520000Y-183150000D03*
X268520000Y-185690000D03*
X268520000Y-188230000D03*
X268520000Y-190770000D03*
X268520000Y-193310000D03*
X276140000Y-193310000D03*
X276140000Y-190770000D03*
X276140000Y-188230000D03*
X276140000Y-185690000D03*
X276140000Y-183150000D03*
X276140000Y-180610000D03*
X276140000Y-178070000D03*
%TD*%
D12*
%TO.C,R25*%
X311970000Y-38190000D03*
D13*
X315780000Y-38190000D03*
%TD*%
D18*
%TO.C,H3*%
X46180000Y-216570000D03*
%TD*%
D12*
%TO.C,D4*%
X197420000Y-43280000D03*
D13*
X201230000Y-43280000D03*
%TD*%
D10*
%TO.C,IC7*%
X257170000Y-71308507D03*
D11*
X257170000Y-73848507D03*
X257170000Y-76388507D03*
X257170000Y-78928507D03*
X257170000Y-81468507D03*
X257170000Y-84008507D03*
X257170000Y-86548507D03*
X264790000Y-86548507D03*
X264790000Y-84008507D03*
X264790000Y-81468507D03*
X264790000Y-78928507D03*
X264790000Y-76388507D03*
X264790000Y-73848507D03*
X264790000Y-71308507D03*
%TD*%
D10*
%TO.C,IC78*%
X320750000Y-193267319D03*
D11*
X320750000Y-195807319D03*
X320750000Y-198347319D03*
X320750000Y-200887319D03*
X320750000Y-203427319D03*
X320750000Y-205967319D03*
X320750000Y-208507319D03*
X320750000Y-211047319D03*
X320750000Y-213587319D03*
X320750000Y-216127319D03*
X328370000Y-216127319D03*
X328370000Y-213587319D03*
X328370000Y-211047319D03*
X328370000Y-208507319D03*
X328370000Y-205967319D03*
X328370000Y-203427319D03*
X328370000Y-200887319D03*
X328370000Y-198347319D03*
X328370000Y-195807319D03*
X328370000Y-193267319D03*
%TD*%
D10*
%TO.C,IC11*%
X325760000Y-67420000D03*
D11*
X325760000Y-69960000D03*
X325760000Y-72500000D03*
X325760000Y-75040000D03*
X325760000Y-77580000D03*
X325760000Y-80120000D03*
X325760000Y-82660000D03*
X325760000Y-85200000D03*
X333380000Y-85200000D03*
X333380000Y-82660000D03*
X333380000Y-80120000D03*
X333380000Y-77580000D03*
X333380000Y-75040000D03*
X333380000Y-72500000D03*
X333380000Y-69960000D03*
X333380000Y-67420000D03*
%TD*%
D14*
%TO.C,R64*%
X161790000Y-217260000D03*
D11*
X161790000Y-207100000D03*
%TD*%
D10*
%TO.C,IC41*%
X357530000Y-128468507D03*
D11*
X357530000Y-131008507D03*
X357530000Y-133548507D03*
X357530000Y-136088507D03*
X357530000Y-138628507D03*
X357530000Y-141168507D03*
X357530000Y-143708507D03*
X365150000Y-143708507D03*
X365150000Y-141168507D03*
X365150000Y-138628507D03*
X365150000Y-136088507D03*
X365150000Y-133548507D03*
X365150000Y-131008507D03*
X365150000Y-128468507D03*
%TD*%
D10*
%TO.C,IC50*%
X253300000Y-178108507D03*
D11*
X253300000Y-180648507D03*
X253300000Y-183188507D03*
X253300000Y-185728507D03*
X253300000Y-188268507D03*
X253300000Y-190808507D03*
X253300000Y-193348507D03*
X260920000Y-193348507D03*
X260920000Y-190808507D03*
X260920000Y-188268507D03*
X260920000Y-185728507D03*
X260920000Y-183188507D03*
X260920000Y-180648507D03*
X260920000Y-178108507D03*
%TD*%
D10*
%TO.C,IC17*%
X174360000Y-90240000D03*
D11*
X174360000Y-92780000D03*
X174360000Y-95320000D03*
X174360000Y-97860000D03*
X174360000Y-100400000D03*
X174360000Y-102940000D03*
X174360000Y-105480000D03*
X174360000Y-108020000D03*
X174360000Y-110560000D03*
X174360000Y-113100000D03*
X174360000Y-115640000D03*
X174360000Y-118180000D03*
X174360000Y-120720000D03*
X174360000Y-123260000D03*
X174360000Y-125800000D03*
X174360000Y-128340000D03*
X174360000Y-130880000D03*
X174360000Y-133420000D03*
X174360000Y-135960000D03*
X174360000Y-138500000D03*
X189600000Y-138500000D03*
X189600000Y-135960000D03*
X189600000Y-133420000D03*
X189600000Y-130880000D03*
X189600000Y-128340000D03*
X189600000Y-125800000D03*
X189600000Y-123260000D03*
X189600000Y-120720000D03*
X189600000Y-118180000D03*
X189600000Y-115640000D03*
X189600000Y-113100000D03*
X189600000Y-110560000D03*
X189600000Y-108020000D03*
X189600000Y-105480000D03*
X189600000Y-102940000D03*
X189600000Y-100400000D03*
X189600000Y-97860000D03*
X189600000Y-95320000D03*
X189600000Y-92780000D03*
X189600000Y-90240000D03*
%TD*%
D14*
%TO.C,R38*%
X356220000Y-87670000D03*
D11*
X346060000Y-87670000D03*
%TD*%
D24*
%TO.C,SKT3*%
X248170000Y-44410000D03*
X255670000Y-44410000D03*
X263170000Y-44410000D03*
X250670000Y-46910000D03*
X260670000Y-46910000D03*
D25*
X250670000Y-34410000D03*
X253170000Y-34410000D03*
X258170000Y-34410000D03*
X260670000Y-34410000D03*
%TD*%
D10*
%TO.C,IC60*%
X71550000Y-177700000D03*
D11*
X71550000Y-180240000D03*
X71550000Y-182780000D03*
X71550000Y-185320000D03*
X71550000Y-187860000D03*
X71550000Y-190400000D03*
X71550000Y-192940000D03*
X71550000Y-195480000D03*
X79170000Y-195480000D03*
X79170000Y-192940000D03*
X79170000Y-190400000D03*
X79170000Y-187860000D03*
X79170000Y-185320000D03*
X79170000Y-182780000D03*
X79170000Y-180240000D03*
X79170000Y-177700000D03*
%TD*%
D14*
%TO.C,A22*%
X244460000Y-198340000D03*
X239380000Y-198340000D03*
%TD*%
D10*
%TO.C,IC42*%
X133780000Y-161350000D03*
D11*
X133780000Y-163890000D03*
X133780000Y-166430000D03*
X133780000Y-168970000D03*
X133780000Y-171510000D03*
X133780000Y-174050000D03*
X133780000Y-176590000D03*
X133780000Y-179130000D03*
X133780000Y-181670000D03*
X133780000Y-184210000D03*
X141400000Y-184210000D03*
X141400000Y-181670000D03*
X141400000Y-179130000D03*
X141400000Y-176590000D03*
X141400000Y-174050000D03*
X141400000Y-171510000D03*
X141400000Y-168970000D03*
X141400000Y-166430000D03*
X141400000Y-163890000D03*
X141400000Y-161350000D03*
%TD*%
D18*
%TO.C,H1*%
X46120000Y-52050000D03*
%TD*%
D10*
%TO.C,IC39*%
X329720000Y-131130000D03*
D11*
X329720000Y-133670000D03*
X329720000Y-136210000D03*
X329720000Y-138750000D03*
X329720000Y-141290000D03*
X329720000Y-143830000D03*
X329720000Y-146370000D03*
X329720000Y-148910000D03*
X337340000Y-148910000D03*
X337340000Y-146370000D03*
X337340000Y-143830000D03*
X337340000Y-141290000D03*
X337340000Y-138750000D03*
X337340000Y-136210000D03*
X337340000Y-133670000D03*
X337340000Y-131130000D03*
%TD*%
D10*
%TO.C,IC69*%
X146440000Y-193170000D03*
D11*
X146440000Y-195710000D03*
X146440000Y-198250000D03*
X146440000Y-200790000D03*
X146440000Y-203330000D03*
X146440000Y-205870000D03*
X146440000Y-208410000D03*
X146440000Y-210950000D03*
X146440000Y-213490000D03*
X146440000Y-216030000D03*
X154060000Y-216030000D03*
X154060000Y-213490000D03*
X154060000Y-210950000D03*
X154060000Y-208410000D03*
X154060000Y-205870000D03*
X154060000Y-203330000D03*
X154060000Y-200790000D03*
X154060000Y-198250000D03*
X154060000Y-195710000D03*
X154060000Y-193170000D03*
%TD*%
D14*
%TO.C,A26*%
X309260000Y-194550000D03*
X304180000Y-194550000D03*
%TD*%
D12*
%TO.C,C18*%
X357640000Y-66225000D03*
D13*
X357640000Y-71305000D03*
%TD*%
D10*
%TO.C,IC72*%
X220240000Y-198318583D03*
D11*
X220240000Y-200858583D03*
X220240000Y-203398583D03*
X220240000Y-205938583D03*
X220240000Y-208478583D03*
X220240000Y-211018583D03*
X220240000Y-213558583D03*
X220240000Y-216098583D03*
X227860000Y-216098583D03*
X227860000Y-213558583D03*
X227860000Y-211018583D03*
X227860000Y-208478583D03*
X227860000Y-205938583D03*
X227860000Y-203398583D03*
X227860000Y-200858583D03*
X227860000Y-198318583D03*
%TD*%
D14*
%TO.C,A37*%
X126190000Y-171420000D03*
X121110000Y-171420000D03*
%TD*%
D10*
%TO.C,IC26*%
X337180000Y-94088583D03*
D11*
X337180000Y-96628583D03*
X337180000Y-99168583D03*
X337180000Y-101708583D03*
X337180000Y-104248583D03*
X337180000Y-106788583D03*
X337180000Y-109328583D03*
X337180000Y-111868583D03*
X344800000Y-111868583D03*
X344800000Y-109328583D03*
X344800000Y-106788583D03*
X344800000Y-104248583D03*
X344800000Y-101708583D03*
X344800000Y-99168583D03*
X344800000Y-96628583D03*
X344800000Y-94088583D03*
%TD*%
D10*
%TO.C,IC54*%
X299040000Y-162800000D03*
D11*
X299040000Y-165340000D03*
X299040000Y-167880000D03*
X299040000Y-170420000D03*
X299040000Y-172960000D03*
X299040000Y-175500000D03*
X299040000Y-178040000D03*
X299040000Y-180580000D03*
X299040000Y-183120000D03*
X299040000Y-185660000D03*
X306660000Y-185660000D03*
X306660000Y-183120000D03*
X306660000Y-180580000D03*
X306660000Y-178040000D03*
X306660000Y-175500000D03*
X306660000Y-172960000D03*
X306660000Y-170420000D03*
X306660000Y-167880000D03*
X306660000Y-165340000D03*
X306660000Y-162800000D03*
%TD*%
D19*
%TO.C,TR5*%
X362652500Y-56040000D03*
X365192500Y-58580000D03*
X362652500Y-61120000D03*
%TD*%
D10*
%TO.C,IC80*%
X346110000Y-193520000D03*
D11*
X346110000Y-196060000D03*
X346110000Y-198600000D03*
X346110000Y-201140000D03*
X346110000Y-203680000D03*
X346110000Y-206220000D03*
X346110000Y-208760000D03*
X346110000Y-211300000D03*
X346110000Y-213840000D03*
X346110000Y-216380000D03*
X353730000Y-216380000D03*
X353730000Y-213840000D03*
X353730000Y-211300000D03*
X353730000Y-208760000D03*
X353730000Y-206220000D03*
X353730000Y-203680000D03*
X353730000Y-201140000D03*
X353730000Y-198600000D03*
X353730000Y-196060000D03*
X353730000Y-193520000D03*
%TD*%
D14*
%TO.C,A21*%
X213910000Y-195820000D03*
X208830000Y-195820000D03*
%TD*%
D10*
%TO.C,IC34*%
X253230000Y-125880000D03*
D11*
X253230000Y-128420000D03*
X253230000Y-130960000D03*
X253230000Y-133500000D03*
X253230000Y-136040000D03*
X253230000Y-138580000D03*
X253230000Y-141120000D03*
X253230000Y-143660000D03*
X260850000Y-143660000D03*
X260850000Y-141120000D03*
X260850000Y-138580000D03*
X260850000Y-136040000D03*
X260850000Y-133500000D03*
X260850000Y-130960000D03*
X260850000Y-128420000D03*
X260850000Y-125880000D03*
%TD*%
D14*
%TO.C,R6*%
X141330000Y-64950000D03*
D11*
X131170000Y-64950000D03*
%TD*%
D12*
%TO.C,D5*%
X201280000Y-45870000D03*
D13*
X197470000Y-45870000D03*
%TD*%
D10*
%TO.C,IC59*%
X56220000Y-177810000D03*
D11*
X56220000Y-180350000D03*
X56220000Y-182890000D03*
X56220000Y-185430000D03*
X56220000Y-187970000D03*
X56220000Y-190510000D03*
X56220000Y-193050000D03*
X56220000Y-195590000D03*
X63840000Y-195590000D03*
X63840000Y-193050000D03*
X63840000Y-190510000D03*
X63840000Y-187970000D03*
X63840000Y-185430000D03*
X63840000Y-182890000D03*
X63840000Y-180350000D03*
X63840000Y-177810000D03*
%TD*%
D10*
%TO.C,IC43*%
X157840000Y-155010000D03*
D11*
X157840000Y-157550000D03*
X157840000Y-160090000D03*
X157840000Y-162630000D03*
X157840000Y-165170000D03*
X157840000Y-167710000D03*
X157840000Y-170250000D03*
X157840000Y-172790000D03*
X157840000Y-175330000D03*
X157840000Y-177870000D03*
X157840000Y-180410000D03*
X157840000Y-182950000D03*
X157840000Y-185490000D03*
X157840000Y-188030000D03*
X157840000Y-190570000D03*
X157840000Y-193110000D03*
X157840000Y-195650000D03*
X157840000Y-198190000D03*
X157840000Y-200730000D03*
X157840000Y-203270000D03*
X173080000Y-203270000D03*
X173080000Y-200730000D03*
X173080000Y-198190000D03*
X173080000Y-195650000D03*
X173080000Y-193110000D03*
X173080000Y-190570000D03*
X173080000Y-188030000D03*
X173080000Y-185490000D03*
X173080000Y-182950000D03*
X173080000Y-180410000D03*
X173080000Y-177870000D03*
X173080000Y-175330000D03*
X173080000Y-172790000D03*
X173080000Y-170250000D03*
X173080000Y-167710000D03*
X173080000Y-165170000D03*
X173080000Y-162630000D03*
X173080000Y-160090000D03*
X173080000Y-157550000D03*
X173080000Y-155010000D03*
%TD*%
D12*
%TO.C,R50*%
X117185000Y-120780000D03*
D13*
X112105000Y-120780000D03*
%TD*%
D10*
%TO.C,IC27*%
X348650000Y-94130000D03*
D11*
X348650000Y-96670000D03*
X348650000Y-99210000D03*
X348650000Y-101750000D03*
X348650000Y-104290000D03*
X348650000Y-106830000D03*
X348650000Y-109370000D03*
X348650000Y-111910000D03*
X356270000Y-111910000D03*
X356270000Y-109370000D03*
X356270000Y-106830000D03*
X356270000Y-104290000D03*
X356270000Y-101750000D03*
X356270000Y-99210000D03*
X356270000Y-96670000D03*
X356270000Y-94130000D03*
%TD*%
D14*
%TO.C,A78*%
X103210000Y-174070000D03*
X108290000Y-174070000D03*
%TD*%
D10*
%TO.C,IC77*%
X302880000Y-198380000D03*
D11*
X302880000Y-200920000D03*
X302880000Y-203460000D03*
X302880000Y-206000000D03*
X302880000Y-208540000D03*
X302880000Y-211080000D03*
X302880000Y-213620000D03*
X302880000Y-216160000D03*
X310500000Y-216160000D03*
X310500000Y-213620000D03*
X310500000Y-211080000D03*
X310500000Y-208540000D03*
X310500000Y-206000000D03*
X310500000Y-203460000D03*
X310500000Y-200920000D03*
X310500000Y-198380000D03*
%TD*%
D14*
%TO.C,R91*%
X188310000Y-205850000D03*
D11*
X188310000Y-216010000D03*
%TD*%
D12*
%TO.C,R14*%
X211575000Y-44520000D03*
D13*
X207375000Y-44520000D03*
%TD*%
D14*
%TO.C,R37*%
X346060000Y-85170000D03*
D11*
X356220000Y-85170000D03*
%TD*%
D14*
%TO.C,R88*%
X174480000Y-217260000D03*
D11*
X184640000Y-217260000D03*
%TD*%
D14*
%TO.C,A35*%
X114650000Y-127070000D03*
X109570000Y-127070000D03*
%TD*%
D12*
%TO.C,R43*%
X119790000Y-96610000D03*
D13*
X119790000Y-100420000D03*
%TD*%
D12*
%TO.C,D9*%
X290310000Y-58475000D03*
D13*
X290310000Y-63555000D03*
%TD*%
D10*
%TO.C,IC45*%
X197310000Y-153850000D03*
D11*
X197310000Y-156390000D03*
X197310000Y-158930000D03*
X197310000Y-161470000D03*
X197310000Y-164010000D03*
X197310000Y-166550000D03*
X197310000Y-169090000D03*
X197310000Y-171630000D03*
X197310000Y-174170000D03*
X197310000Y-176710000D03*
X197310000Y-179250000D03*
X197310000Y-181790000D03*
X197310000Y-184330000D03*
X197310000Y-186870000D03*
X212550000Y-186870000D03*
X212550000Y-184330000D03*
X212550000Y-181790000D03*
X212550000Y-179250000D03*
X212550000Y-176710000D03*
X212550000Y-174170000D03*
X212550000Y-171630000D03*
X212550000Y-169090000D03*
X212550000Y-166550000D03*
X212550000Y-164010000D03*
X212550000Y-161470000D03*
X212550000Y-158930000D03*
X212550000Y-156390000D03*
X212550000Y-153850000D03*
%TD*%
D14*
%TO.C,A62*%
X315540000Y-152630000D03*
X320620000Y-152630000D03*
%TD*%
D12*
%TO.C,R47*%
X117115000Y-113130000D03*
D13*
X112035000Y-113130000D03*
%TD*%
D12*
%TO.C,C22*%
X267870000Y-95390000D03*
D13*
X267870000Y-90310000D03*
%TD*%
D12*
%TO.C,C4*%
X225320000Y-80155000D03*
D13*
X225320000Y-85235000D03*
%TD*%
D12*
%TO.C,R53*%
X239550000Y-89835000D03*
D13*
X239550000Y-85635000D03*
%TD*%
D12*
%TO.C,R26*%
X312040000Y-40790000D03*
D13*
X315850000Y-40790000D03*
%TD*%
D14*
%TO.C,A88*%
X152770000Y-123400000D03*
X152770000Y-118320000D03*
%TD*%
%TO.C,R15*%
X199910000Y-64980000D03*
D11*
X210070000Y-64980000D03*
%TD*%
D10*
%TO.C,IC1*%
X121060000Y-76270000D03*
D11*
X121060000Y-78810000D03*
X121060000Y-81350000D03*
X121060000Y-83890000D03*
X121060000Y-86430000D03*
X121060000Y-88970000D03*
X121060000Y-91510000D03*
X128680000Y-91510000D03*
X128680000Y-88970000D03*
X128680000Y-86430000D03*
X128680000Y-83890000D03*
X128680000Y-81350000D03*
X128680000Y-78810000D03*
X128680000Y-76270000D03*
%TD*%
D14*
%TO.C,A61*%
X346130000Y-152550000D03*
X351210000Y-152550000D03*
%TD*%
D10*
%TO.C,IC5*%
X227960000Y-67440000D03*
D11*
X227960000Y-69980000D03*
X227960000Y-72520000D03*
X227960000Y-75060000D03*
X227960000Y-77600000D03*
X227960000Y-80140000D03*
X227960000Y-82680000D03*
X227960000Y-85220000D03*
X235580000Y-85220000D03*
X235580000Y-82680000D03*
X235580000Y-80140000D03*
X235580000Y-77600000D03*
X235580000Y-75060000D03*
X235580000Y-72520000D03*
X235580000Y-69980000D03*
X235580000Y-67440000D03*
%TD*%
D12*
%TO.C,R85*%
X166960000Y-83905000D03*
D13*
X169080000Y-86735000D03*
%TD*%
D12*
%TO.C,R13*%
X208810000Y-52245000D03*
D13*
X208810000Y-47165000D03*
%TD*%
D10*
%TO.C,IC57*%
X357550000Y-150090000D03*
D11*
X357550000Y-152630000D03*
X357550000Y-155170000D03*
X357550000Y-157710000D03*
X357550000Y-160250000D03*
X357550000Y-162790000D03*
X357550000Y-165330000D03*
X365170000Y-165330000D03*
X365170000Y-162790000D03*
X365170000Y-160250000D03*
X365170000Y-157710000D03*
X365170000Y-155170000D03*
X365170000Y-152630000D03*
X365170000Y-150090000D03*
%TD*%
D12*
%TO.C,R17*%
X240680000Y-63580000D03*
D13*
X240680000Y-67390000D03*
%TD*%
D14*
%TO.C,A11*%
X363850000Y-194590000D03*
X358770000Y-194590000D03*
%TD*%
%TO.C,A9*%
X349960000Y-189680000D03*
X344880000Y-189680000D03*
%TD*%
%TO.C,A2*%
X161750000Y-66150000D03*
X156670000Y-66150000D03*
%TD*%
D10*
%TO.C,IC36*%
X283820000Y-125930000D03*
D11*
X283820000Y-128470000D03*
X283820000Y-131010000D03*
X283820000Y-133550000D03*
X283820000Y-136090000D03*
X283820000Y-138630000D03*
X283820000Y-141170000D03*
X283820000Y-143710000D03*
X291440000Y-143710000D03*
X291440000Y-141170000D03*
X291440000Y-138630000D03*
X291440000Y-136090000D03*
X291440000Y-133550000D03*
X291440000Y-131010000D03*
X291440000Y-128470000D03*
X291440000Y-125930000D03*
%TD*%
D14*
%TO.C,A12*%
X259610000Y-174210000D03*
X254530000Y-174210000D03*
%TD*%
D12*
%TO.C,R44*%
X122350000Y-100420000D03*
D13*
X122350000Y-96610000D03*
%TD*%
D14*
%TO.C,A75*%
X57480000Y-174090000D03*
X62560000Y-174090000D03*
%TD*%
D10*
%TO.C,IC30*%
X133720000Y-130880000D03*
D11*
X133720000Y-133420000D03*
X133720000Y-135960000D03*
X133720000Y-138500000D03*
X133720000Y-141040000D03*
X133720000Y-143580000D03*
X133720000Y-146120000D03*
X133720000Y-148660000D03*
X133720000Y-151200000D03*
X133720000Y-153740000D03*
X141340000Y-153740000D03*
X141340000Y-151200000D03*
X141340000Y-148660000D03*
X141340000Y-146120000D03*
X141340000Y-143580000D03*
X141340000Y-141040000D03*
X141340000Y-138500000D03*
X141340000Y-135960000D03*
X141340000Y-133420000D03*
X141340000Y-130880000D03*
%TD*%
D19*
%TO.C,TR3*%
X219137500Y-48390000D03*
X216597500Y-50930000D03*
X219137500Y-53470000D03*
%TD*%
D14*
%TO.C,A99*%
X77760000Y-224860000D03*
X72680000Y-224860000D03*
%TD*%
D10*
%TO.C,IC53*%
X283790000Y-178030000D03*
D11*
X283790000Y-180570000D03*
X283790000Y-183110000D03*
X283790000Y-185650000D03*
X283790000Y-188190000D03*
X283790000Y-190730000D03*
X283790000Y-193270000D03*
X291410000Y-193270000D03*
X291410000Y-190730000D03*
X291410000Y-188190000D03*
X291410000Y-185650000D03*
X291410000Y-183110000D03*
X291410000Y-180570000D03*
X291410000Y-178030000D03*
%TD*%
D14*
%TO.C,R65*%
X164240000Y-217260000D03*
D11*
X164240000Y-207100000D03*
%TD*%
D14*
%TO.C,A19*%
X189890000Y-150830000D03*
X184810000Y-150830000D03*
%TD*%
D12*
%TO.C,C11*%
X336060000Y-90310000D03*
D13*
X341140000Y-90310000D03*
%TD*%
D14*
%TO.C,A80*%
X300370000Y-152550000D03*
X305450000Y-152550000D03*
%TD*%
D12*
%TO.C,C13*%
X370620000Y-91485000D03*
D13*
X370620000Y-96565000D03*
%TD*%
D14*
%TO.C,A40*%
X292790000Y-67230000D03*
X287710000Y-67230000D03*
%TD*%
D12*
%TO.C,R58*%
X278690000Y-174265000D03*
D13*
X278690000Y-169185000D03*
%TD*%
D14*
%TO.C,A39*%
X263500000Y-67460000D03*
X258420000Y-67460000D03*
%TD*%
%TO.C,A101*%
X254530000Y-147510000D03*
X259610000Y-147510000D03*
%TD*%
D12*
%TO.C,R49*%
X117205000Y-118370000D03*
D13*
X112125000Y-118370000D03*
%TD*%
D10*
%TO.C,IC40*%
X344910000Y-131080000D03*
D11*
X344910000Y-133620000D03*
X344910000Y-136160000D03*
X344910000Y-138700000D03*
X344910000Y-141240000D03*
X344910000Y-143780000D03*
X344910000Y-146320000D03*
X344910000Y-148860000D03*
X352530000Y-148860000D03*
X352530000Y-146320000D03*
X352530000Y-143780000D03*
X352530000Y-141240000D03*
X352530000Y-138700000D03*
X352530000Y-136160000D03*
X352530000Y-133620000D03*
X352530000Y-131080000D03*
%TD*%
D12*
%TO.C,R55*%
X266745000Y-151370000D03*
D13*
X262545000Y-151370000D03*
%TD*%
D12*
%TO.C,C5*%
X226745000Y-52210000D03*
D13*
X231825000Y-52210000D03*
%TD*%
D26*
%TO.C,VR1*%
X320530000Y-76360000D03*
X315450000Y-76360000D03*
X317980000Y-66160000D03*
%TD*%
D14*
%TO.C,C1*%
X122270000Y-71120000D03*
X122270000Y-68580000D03*
%TD*%
%TO.C,R59*%
X370350000Y-110600000D03*
D11*
X370350000Y-100440000D03*
%TD*%
D10*
%TO.C,IC18*%
X198680000Y-88950000D03*
D11*
X198680000Y-91490000D03*
X198680000Y-94030000D03*
X198680000Y-96570000D03*
X198680000Y-99110000D03*
X198680000Y-101650000D03*
X198680000Y-104190000D03*
X198680000Y-106730000D03*
X198680000Y-109270000D03*
X198680000Y-111810000D03*
X206300000Y-111810000D03*
X206300000Y-109270000D03*
X206300000Y-106730000D03*
X206300000Y-104190000D03*
X206300000Y-101650000D03*
X206300000Y-99110000D03*
X206300000Y-96570000D03*
X206300000Y-94030000D03*
X206300000Y-91490000D03*
X206300000Y-88950000D03*
%TD*%
D14*
%TO.C,R45*%
X119740000Y-103000000D03*
D11*
X129900000Y-103000000D03*
%TD*%
D10*
%TO.C,IC47*%
X238490000Y-152610000D03*
D11*
X238490000Y-155150000D03*
X238490000Y-157690000D03*
X238490000Y-160230000D03*
X238490000Y-162770000D03*
X238490000Y-165310000D03*
X238490000Y-167850000D03*
X238490000Y-170390000D03*
X246110000Y-170390000D03*
X246110000Y-167850000D03*
X246110000Y-165310000D03*
X246110000Y-162770000D03*
X246110000Y-160230000D03*
X246110000Y-157690000D03*
X246110000Y-155150000D03*
X246110000Y-152610000D03*
%TD*%
D12*
%TO.C,C21*%
X372110000Y-151255000D03*
D13*
X372110000Y-146175000D03*
%TD*%
D12*
%TO.C,R60*%
X367905000Y-153870000D03*
D13*
X372985000Y-153870000D03*
%TD*%
D12*
%TO.C,C20*%
X371340000Y-133595000D03*
D13*
X371340000Y-128515000D03*
%TD*%
D14*
%TO.C,A7*%
X327060000Y-189530000D03*
X321980000Y-189530000D03*
%TD*%
%TO.C,R89*%
X74020000Y-125560000D03*
D11*
X74020000Y-135720000D03*
%TD*%
D10*
%TO.C,IC79*%
X333530000Y-213860000D03*
D11*
X333530000Y-216400000D03*
X333530000Y-218940000D03*
X333530000Y-221480000D03*
X333530000Y-224020000D03*
X333530000Y-226560000D03*
X333530000Y-229100000D03*
X341150000Y-229100000D03*
X341150000Y-226560000D03*
X341150000Y-224020000D03*
X341150000Y-221480000D03*
X341150000Y-218940000D03*
X341150000Y-216400000D03*
X341150000Y-213860000D03*
%TD*%
D14*
%TO.C,A38*%
X250700000Y-67500000D03*
X245620000Y-67500000D03*
%TD*%
%TO.C,A60*%
X269740000Y-147490000D03*
X274820000Y-147490000D03*
%TD*%
D12*
%TO.C,R73*%
X117065000Y-108030000D03*
D13*
X111985000Y-108030000D03*
%TD*%
D24*
%TO.C,SKT5*%
X288280000Y-44410000D03*
X290780000Y-46910000D03*
X295780000Y-44410000D03*
X300780000Y-46910000D03*
X303280000Y-44410000D03*
D25*
X290780000Y-34410000D03*
X293280000Y-34410000D03*
X298280000Y-34410000D03*
X300780000Y-34410000D03*
%TD*%
D10*
%TO.C,IC46*%
X216310000Y-153790000D03*
D11*
X216310000Y-156330000D03*
X216310000Y-158870000D03*
X216310000Y-161410000D03*
X216310000Y-163950000D03*
X216310000Y-166490000D03*
X216310000Y-169030000D03*
X216310000Y-171570000D03*
X216310000Y-174110000D03*
X216310000Y-176650000D03*
X216310000Y-179190000D03*
X216310000Y-181730000D03*
X216310000Y-184270000D03*
X216310000Y-186810000D03*
X231550000Y-186810000D03*
X231550000Y-184270000D03*
X231550000Y-181730000D03*
X231550000Y-179190000D03*
X231550000Y-176650000D03*
X231550000Y-174110000D03*
X231550000Y-171570000D03*
X231550000Y-169030000D03*
X231550000Y-166490000D03*
X231550000Y-163950000D03*
X231550000Y-161410000D03*
X231550000Y-158870000D03*
X231550000Y-156330000D03*
X231550000Y-153790000D03*
%TD*%
D12*
%TO.C,R24*%
X311930000Y-35770000D03*
D13*
X315740000Y-35770000D03*
%TD*%
D14*
%TO.C,R2*%
X117240000Y-83890000D03*
D11*
X117240000Y-73730000D03*
%TD*%
D14*
%TO.C,A10*%
X338450000Y-210020000D03*
X333370000Y-210020000D03*
%TD*%
%TO.C,D1*%
X110880000Y-73680000D03*
D11*
X110880000Y-83840000D03*
%TD*%
D12*
%TO.C,R56*%
X269835000Y-174270000D03*
D13*
X274915000Y-174270000D03*
%TD*%
D14*
%TO.C,A65*%
X315630000Y-127280000D03*
X320710000Y-127280000D03*
%TD*%
%TO.C,A27*%
X234280000Y-63490000D03*
X229200000Y-63490000D03*
%TD*%
%TO.C,A32*%
X140110000Y-100440000D03*
X135030000Y-100440000D03*
%TD*%
D12*
%TO.C,L1*%
X344855000Y-80730000D03*
D13*
X349055000Y-80730000D03*
%TD*%
D10*
%TO.C,IC12*%
X360070000Y-71250000D03*
D11*
X360070000Y-73790000D03*
X360070000Y-76330000D03*
X360070000Y-78870000D03*
X360070000Y-81410000D03*
X360070000Y-83950000D03*
X360070000Y-86490000D03*
X360070000Y-89030000D03*
X360070000Y-91570000D03*
X367690000Y-91570000D03*
X367690000Y-89030000D03*
X367690000Y-86490000D03*
X367690000Y-83950000D03*
X367690000Y-81410000D03*
X367690000Y-78870000D03*
X367690000Y-76330000D03*
X367690000Y-73790000D03*
X367690000Y-71250000D03*
%TD*%
D18*
%TO.C,H4*%
X371640000Y-52220000D03*
%TD*%
D14*
%TO.C,R68*%
X171760000Y-217260000D03*
D11*
X171760000Y-207100000D03*
%TD*%
D12*
%TO.C,C10*%
X301565000Y-56030000D03*
D13*
X296485000Y-56030000D03*
%TD*%
D14*
%TO.C,R22*%
X307350000Y-42970000D03*
D11*
X307350000Y-53130000D03*
%TD*%
D14*
%TO.C,A41*%
X277380000Y-90360000D03*
X272300000Y-90360000D03*
%TD*%
%TO.C,A71*%
X57430000Y-199460000D03*
X62510000Y-199460000D03*
%TD*%
%TO.C,R3*%
X126050000Y-72380000D03*
D11*
X126050000Y-62220000D03*
%TD*%
D27*
%TO.C,MOD1*%
X310720000Y-47410000D03*
X310720000Y-56150000D03*
X309270000Y-38350000D03*
D28*
X319530000Y-47200000D03*
X357720000Y-47410000D03*
%TD*%
D14*
%TO.C,A63*%
X285090000Y-119560000D03*
X290170000Y-119560000D03*
%TD*%
D10*
%TO.C,IC28*%
X360020000Y-96768507D03*
D11*
X360020000Y-99308507D03*
X360020000Y-101848507D03*
X360020000Y-104388507D03*
X360020000Y-106928507D03*
X360020000Y-109468507D03*
X360020000Y-112008507D03*
X367640000Y-112008507D03*
X367640000Y-109468507D03*
X367640000Y-106928507D03*
X367640000Y-104388507D03*
X367640000Y-101848507D03*
X367640000Y-99308507D03*
X367640000Y-96768507D03*
%TD*%
D12*
%TO.C,R46*%
X117135000Y-110620000D03*
D13*
X112055000Y-110620000D03*
%TD*%
D14*
%TO.C,A55*%
X269860000Y-119600000D03*
X274940000Y-119600000D03*
%TD*%
%TO.C,A73*%
X86740000Y-199450000D03*
X91820000Y-199450000D03*
%TD*%
D19*
%TO.C,TR2*%
X219117500Y-43250000D03*
X216577500Y-40710000D03*
X219117500Y-38170000D03*
%TD*%
D12*
%TO.C,C6*%
X242035000Y-52210000D03*
D13*
X236955000Y-52210000D03*
%TD*%
D12*
%TO.C,R63*%
X126080000Y-204570000D03*
D13*
X126080000Y-200760000D03*
%TD*%
D12*
%TO.C,R71*%
X367685000Y-189555000D03*
D13*
X366425000Y-193355000D03*
%TD*%
D14*
%TO.C,A81*%
X346130000Y-127210000D03*
X351210000Y-127210000D03*
%TD*%
%TO.C,A89*%
X140140000Y-157600000D03*
X135060000Y-157600000D03*
%TD*%
%TO.C,A57*%
X300380000Y-127240000D03*
X305460000Y-127240000D03*
%TD*%
D10*
%TO.C,IC56*%
X343680000Y-163030000D03*
D11*
X343680000Y-165570000D03*
X343680000Y-168110000D03*
X343680000Y-170650000D03*
X343680000Y-173190000D03*
X343680000Y-175730000D03*
X343680000Y-178270000D03*
X343680000Y-180810000D03*
X343680000Y-183350000D03*
X343680000Y-185890000D03*
X351300000Y-185890000D03*
X351300000Y-183350000D03*
X351300000Y-180810000D03*
X351300000Y-178270000D03*
X351300000Y-175730000D03*
X351300000Y-173190000D03*
X351300000Y-170650000D03*
X351300000Y-168110000D03*
X351300000Y-165570000D03*
X351300000Y-163030000D03*
%TD*%
D10*
%TO.C,IC63*%
X118530000Y-176690000D03*
D11*
X118530000Y-179230000D03*
X118530000Y-181770000D03*
X118530000Y-184310000D03*
X118530000Y-186850000D03*
X118530000Y-189390000D03*
X118530000Y-191930000D03*
X126150000Y-191930000D03*
X126150000Y-189390000D03*
X126150000Y-186850000D03*
X126150000Y-184310000D03*
X126150000Y-181770000D03*
X126150000Y-179230000D03*
X126150000Y-176690000D03*
%TD*%
D14*
%TO.C,R74*%
X324420000Y-65020000D03*
D11*
X334580000Y-65020000D03*
%TD*%
D14*
%TO.C,A74*%
X103230000Y-199500000D03*
X108310000Y-199500000D03*
%TD*%
%TO.C,C14*%
X128560000Y-97980000D03*
X126020000Y-97980000D03*
%TD*%
D10*
%TO.C,IC58*%
X357630000Y-173000000D03*
D11*
X357630000Y-175540000D03*
X357630000Y-178080000D03*
X357630000Y-180620000D03*
X357630000Y-183160000D03*
X357630000Y-185700000D03*
X357630000Y-188240000D03*
X357630000Y-190780000D03*
X365250000Y-190780000D03*
X365250000Y-188240000D03*
X365250000Y-185700000D03*
X365250000Y-183160000D03*
X365250000Y-180620000D03*
X365250000Y-178080000D03*
X365250000Y-175540000D03*
X365250000Y-173000000D03*
%TD*%
D14*
%TO.C,A29*%
X204950000Y-85230000D03*
X199870000Y-85230000D03*
%TD*%
D10*
%TO.C,IC70*%
X190920000Y-193300000D03*
D11*
X190920000Y-195840000D03*
X190920000Y-198380000D03*
X190920000Y-200920000D03*
X190920000Y-203460000D03*
X190920000Y-206000000D03*
X190920000Y-208540000D03*
X190920000Y-211080000D03*
X190920000Y-213620000D03*
X190920000Y-216160000D03*
X198540000Y-216160000D03*
X198540000Y-213620000D03*
X198540000Y-211080000D03*
X198540000Y-208540000D03*
X198540000Y-206000000D03*
X198540000Y-203460000D03*
X198540000Y-200920000D03*
X198540000Y-198380000D03*
X198540000Y-195840000D03*
X198540000Y-193300000D03*
%TD*%
D14*
%TO.C,R8*%
X177040000Y-73790000D03*
D11*
X177040000Y-63630000D03*
%TD*%
D24*
%TO.C,SKT4*%
X268190000Y-44410000D03*
X270690000Y-46910000D03*
X275690000Y-44410000D03*
X280690000Y-46910000D03*
X283190000Y-44410000D03*
D25*
X270690000Y-34410000D03*
X273190000Y-34410000D03*
X278190000Y-34410000D03*
X280690000Y-34410000D03*
%TD*%
D24*
%TO.C,SKT1*%
X95740000Y-44415000D03*
X98240000Y-46915000D03*
X103240000Y-44415000D03*
X108240000Y-46915000D03*
X110740000Y-44415000D03*
X103240000Y-49415000D03*
D25*
X98240000Y-34415000D03*
X100740000Y-34415000D03*
X105740000Y-34415000D03*
X108240000Y-34415000D03*
%TD*%
D14*
%TO.C,A13*%
X222740000Y-115730000D03*
X217660000Y-115730000D03*
%TD*%
D10*
%TO.C,IC13*%
X100770000Y-101658583D03*
D11*
X100770000Y-104198583D03*
X100770000Y-106738583D03*
X100770000Y-109278583D03*
X100770000Y-111818583D03*
X100770000Y-114358583D03*
X100770000Y-116898583D03*
X100770000Y-119438583D03*
X108390000Y-119438583D03*
X108390000Y-116898583D03*
X108390000Y-114358583D03*
X108390000Y-111818583D03*
X108390000Y-109278583D03*
X108390000Y-106738583D03*
X108390000Y-104198583D03*
X108390000Y-101658583D03*
%TD*%
D12*
%TO.C,R51*%
X117205000Y-123350000D03*
D13*
X112125000Y-123350000D03*
%TD*%
D10*
%TO.C,IC37*%
X299110000Y-131050000D03*
D11*
X299110000Y-133590000D03*
X299110000Y-136130000D03*
X299110000Y-138670000D03*
X299110000Y-141210000D03*
X299110000Y-143750000D03*
X299110000Y-146290000D03*
X299110000Y-148830000D03*
X306730000Y-148830000D03*
X306730000Y-146290000D03*
X306730000Y-143750000D03*
X306730000Y-141210000D03*
X306730000Y-138670000D03*
X306730000Y-136130000D03*
X306730000Y-133590000D03*
X306730000Y-131050000D03*
%TD*%
D14*
%TO.C,R23*%
X313480000Y-59720000D03*
D11*
X313480000Y-49560000D03*
%TD*%
D12*
%TO.C,C8*%
X238090000Y-73785000D03*
D13*
X238090000Y-78865000D03*
%TD*%
D12*
%TO.C,D7*%
X122310000Y-200790000D03*
D13*
X122310000Y-204600000D03*
%TD*%
D10*
%TO.C,IC29*%
X110890000Y-130850000D03*
D11*
X110890000Y-133390000D03*
X110890000Y-135930000D03*
X110890000Y-138470000D03*
X110890000Y-141010000D03*
X110890000Y-143550000D03*
X110890000Y-146090000D03*
X110890000Y-148630000D03*
X110890000Y-151170000D03*
X110890000Y-153710000D03*
X118510000Y-153710000D03*
X118510000Y-151170000D03*
X118510000Y-148630000D03*
X118510000Y-146090000D03*
X118510000Y-143550000D03*
X118510000Y-141010000D03*
X118510000Y-138470000D03*
X118510000Y-135930000D03*
X118510000Y-133390000D03*
X118510000Y-130850000D03*
%TD*%
D10*
%TO.C,IC71*%
X206180000Y-200848507D03*
D11*
X206180000Y-203388507D03*
X206180000Y-205928507D03*
X206180000Y-208468507D03*
X206180000Y-211008507D03*
X206180000Y-213548507D03*
X206180000Y-216088507D03*
X213800000Y-216088507D03*
X213800000Y-213548507D03*
X213800000Y-211008507D03*
X213800000Y-208468507D03*
X213800000Y-205928507D03*
X213800000Y-203388507D03*
X213800000Y-200848507D03*
%TD*%
D14*
%TO.C,A28*%
X220240000Y-63630000D03*
X215160000Y-63630000D03*
%TD*%
%TO.C,A100*%
X108290000Y-224970000D03*
X103210000Y-224970000D03*
%TD*%
D17*
%TO.C,PL2*%
X135000000Y-39380000D03*
X135000000Y-36840000D03*
X137540000Y-39380000D03*
X137540000Y-36840000D03*
X140080000Y-39380000D03*
X140080000Y-36840000D03*
X142620000Y-39380000D03*
X142620000Y-36840000D03*
X145160000Y-39380000D03*
X145160000Y-36840000D03*
X147700000Y-39380000D03*
X147700000Y-36840000D03*
X150240000Y-39380000D03*
X150240000Y-36840000D03*
X152780000Y-39380000D03*
X152780000Y-36840000D03*
X155320000Y-39380000D03*
X155320000Y-36840000D03*
X157860000Y-39380000D03*
X157860000Y-36840000D03*
X160400000Y-39380000D03*
X160400000Y-36840000D03*
X162940000Y-39380000D03*
X162940000Y-36840000D03*
X165480000Y-39380000D03*
X165480000Y-36840000D03*
X168020000Y-39380000D03*
X168020000Y-36840000D03*
X170560000Y-39380000D03*
X170560000Y-36840000D03*
X173100000Y-39380000D03*
X173100000Y-36840000D03*
X175640000Y-39380000D03*
X175640000Y-36840000D03*
X178180000Y-39380000D03*
X178180000Y-36840000D03*
X180720000Y-39380000D03*
X180720000Y-36840000D03*
X183260000Y-39380000D03*
X183260000Y-36840000D03*
%TD*%
D14*
%TO.C,A92*%
X332350000Y-89050000D03*
X327270000Y-89050000D03*
%TD*%
%TO.C,C9*%
X284862828Y-58480000D03*
X284862828Y-62290000D03*
%TD*%
D10*
%TO.C,IC21*%
X257110000Y-94108507D03*
D11*
X257110000Y-96648507D03*
X257110000Y-99188507D03*
X257110000Y-101728507D03*
X257110000Y-104268507D03*
X257110000Y-106808507D03*
X257110000Y-109348507D03*
X264730000Y-109348507D03*
X264730000Y-106808507D03*
X264730000Y-104268507D03*
X264730000Y-101728507D03*
X264730000Y-99188507D03*
X264730000Y-96648507D03*
X264730000Y-94108507D03*
%TD*%
D24*
%TO.C,SKT2*%
X230640000Y-44415000D03*
X235640000Y-44415000D03*
X240640000Y-44415000D03*
X233140000Y-46915000D03*
X238140000Y-46915000D03*
X228140000Y-46915000D03*
X243140000Y-46915000D03*
D25*
X230640000Y-34415000D03*
X233140000Y-34415000D03*
X238140000Y-34415000D03*
X240640000Y-34415000D03*
%TD*%
D14*
%TO.C,R92*%
X114690000Y-83840000D03*
D11*
X114690000Y-73680000D03*
%TD*%
D10*
%TO.C,IC81*%
X357610000Y-198390000D03*
D11*
X357610000Y-200930000D03*
X357610000Y-203470000D03*
X357610000Y-206010000D03*
X357610000Y-208550000D03*
X357610000Y-211090000D03*
X357610000Y-213630000D03*
X357610000Y-216170000D03*
X365230000Y-216170000D03*
X365230000Y-213630000D03*
X365230000Y-211090000D03*
X365230000Y-208550000D03*
X365230000Y-206010000D03*
X365230000Y-203470000D03*
X365230000Y-200930000D03*
X365230000Y-198390000D03*
%TD*%
D14*
%TO.C,A20*%
X226550000Y-194520000D03*
X221470000Y-194520000D03*
%TD*%
D12*
%TO.C,C3*%
X205130000Y-47175000D03*
D13*
X205130000Y-42095000D03*
%TD*%
D14*
%TO.C,A93*%
X292710000Y-90400000D03*
X287630000Y-90400000D03*
%TD*%
%TO.C,A64*%
X254530000Y-120880000D03*
X259610000Y-120880000D03*
%TD*%
D10*
%TO.C,IC2*%
X133710000Y-78840000D03*
D11*
X133710000Y-81380000D03*
X133710000Y-83920000D03*
X133710000Y-86460000D03*
X133710000Y-89000000D03*
X133710000Y-91540000D03*
X133710000Y-94080000D03*
X133710000Y-96620000D03*
X141330000Y-96620000D03*
X141330000Y-94080000D03*
X141330000Y-91540000D03*
X141330000Y-89000000D03*
X141330000Y-86460000D03*
X141330000Y-83920000D03*
X141330000Y-81380000D03*
X141330000Y-78840000D03*
%TD*%
D14*
%TO.C,A85*%
X249470000Y-90260000D03*
X244390000Y-90260000D03*
%TD*%
D15*
%TO.C,LK2*%
X48510000Y-193260000D03*
D16*
X48510000Y-195800000D03*
X48510000Y-198340000D03*
X52350000Y-193260000D03*
X52350000Y-195800000D03*
X52350000Y-198340000D03*
%TD*%
D10*
%TO.C,IC14*%
X122260000Y-109348583D03*
D11*
X122260000Y-111888583D03*
X122260000Y-114428583D03*
X122260000Y-116968583D03*
X122260000Y-119508583D03*
X122260000Y-122048583D03*
X122260000Y-124588583D03*
X122260000Y-127128583D03*
X129880000Y-127128583D03*
X129880000Y-124588583D03*
X129880000Y-122048583D03*
X129880000Y-119508583D03*
X129880000Y-116968583D03*
X129880000Y-114428583D03*
X129880000Y-111888583D03*
X129880000Y-109348583D03*
%TD*%
D14*
%TO.C,A14*%
X226830000Y-147260000D03*
X221750000Y-147260000D03*
%TD*%
%TO.C,A42*%
X262540000Y-90290000D03*
X257460000Y-90290000D03*
%TD*%
%TO.C,R86*%
X123640000Y-52060000D03*
D11*
X123640000Y-62220000D03*
%TD*%
D24*
%TO.C,J1*%
X275700000Y-49460000D03*
%TD*%
D17*
%TO.C,PL3*%
X135000000Y-52170000D03*
X135000000Y-49630000D03*
X137540000Y-52170000D03*
X137540000Y-49630000D03*
X140080000Y-52170000D03*
X140080000Y-49630000D03*
X142620000Y-52170000D03*
X142620000Y-49630000D03*
X145160000Y-52170000D03*
X145160000Y-49630000D03*
X147700000Y-52170000D03*
X147700000Y-49630000D03*
X150240000Y-52170000D03*
X150240000Y-49630000D03*
X152780000Y-52170000D03*
X152780000Y-49630000D03*
X155320000Y-52170000D03*
X155320000Y-49630000D03*
X157860000Y-52170000D03*
X157860000Y-49630000D03*
X160400000Y-52170000D03*
X160400000Y-49630000D03*
X162940000Y-52170000D03*
X162940000Y-49630000D03*
X165480000Y-52170000D03*
X165480000Y-49630000D03*
X168020000Y-52170000D03*
X168020000Y-49630000D03*
X170560000Y-52170000D03*
X170560000Y-49630000D03*
X173100000Y-52170000D03*
X173100000Y-49630000D03*
X175640000Y-52170000D03*
X175640000Y-49630000D03*
X178180000Y-52170000D03*
X178180000Y-49630000D03*
X180720000Y-52170000D03*
X180720000Y-49630000D03*
X183260000Y-52170000D03*
X183260000Y-49630000D03*
%TD*%
D14*
%TO.C,R69*%
X233690000Y-185450000D03*
D11*
X233690000Y-195610000D03*
%TD*%
D15*
%TO.C,LK6*%
X281620000Y-111235000D03*
D16*
X281620000Y-108695000D03*
X281620000Y-106155000D03*
%TD*%
D14*
%TO.C,A58*%
X330820000Y-127180000D03*
X335900000Y-127180000D03*
%TD*%
D10*
%TO.C,IC6*%
X243170000Y-71268507D03*
D11*
X243170000Y-73808507D03*
X243170000Y-76348507D03*
X243170000Y-78888507D03*
X243170000Y-81428507D03*
X243170000Y-83968507D03*
X243170000Y-86508507D03*
X250790000Y-86508507D03*
X250790000Y-83968507D03*
X250790000Y-81428507D03*
X250790000Y-78888507D03*
X250790000Y-76348507D03*
X250790000Y-73808507D03*
X250790000Y-71268507D03*
%TD*%
D14*
%TO.C,R54*%
X359910000Y-124720000D03*
D11*
X370070000Y-124720000D03*
%TD*%
D12*
%TO.C,R28*%
X323950000Y-69085000D03*
D13*
X321830000Y-66255000D03*
%TD*%
D12*
%TO.C,R40*%
X366720000Y-57450000D03*
D13*
X365380000Y-53500000D03*
%TD*%
D14*
%TO.C,A5*%
X305310000Y-159030000D03*
X300230000Y-159030000D03*
%TD*%
D10*
%TO.C,IC24*%
X300370000Y-89120000D03*
D11*
X300370000Y-91660000D03*
X300370000Y-94200000D03*
X300370000Y-96740000D03*
X300370000Y-99280000D03*
X300370000Y-101820000D03*
X300370000Y-104360000D03*
X300370000Y-106900000D03*
X300370000Y-109440000D03*
X300370000Y-111980000D03*
X307990000Y-111980000D03*
X307990000Y-109440000D03*
X307990000Y-106900000D03*
X307990000Y-104360000D03*
X307990000Y-101820000D03*
X307990000Y-99280000D03*
X307990000Y-96740000D03*
X307990000Y-94200000D03*
X307990000Y-91660000D03*
X307990000Y-89120000D03*
%TD*%
D14*
%TO.C,A23*%
X290120000Y-197070000D03*
X285040000Y-197070000D03*
%TD*%
D10*
%TO.C,IC22*%
X271090000Y-94148507D03*
D11*
X271090000Y-96688507D03*
X271090000Y-99228507D03*
X271090000Y-101768507D03*
X271090000Y-104308507D03*
X271090000Y-106848507D03*
X271090000Y-109388507D03*
X278710000Y-109388507D03*
X278710000Y-106848507D03*
X278710000Y-104308507D03*
X278710000Y-101768507D03*
X278710000Y-99228507D03*
X278710000Y-96688507D03*
X278710000Y-94148507D03*
%TD*%
D14*
%TO.C,A30*%
X234230000Y-90190000D03*
X229150000Y-90190000D03*
%TD*%
%TO.C,A90*%
X174020000Y-143960000D03*
X168940000Y-143960000D03*
%TD*%
D12*
%TO.C,R36*%
X347480000Y-90500000D03*
D13*
X343670000Y-90500000D03*
%TD*%
D12*
%TO.C,C2*%
X136275000Y-62370000D03*
D13*
X131195000Y-62370000D03*
%TD*%
D12*
%TO.C,R61*%
X369040000Y-172990000D03*
D13*
X369040000Y-176800000D03*
%TD*%
D10*
%TO.C,IC44*%
X178230000Y-153790000D03*
D11*
X178230000Y-156330000D03*
X178230000Y-158870000D03*
X178230000Y-161410000D03*
X178230000Y-163950000D03*
X178230000Y-166490000D03*
X178230000Y-169030000D03*
X178230000Y-171570000D03*
X178230000Y-174110000D03*
X178230000Y-176650000D03*
X178230000Y-179190000D03*
X178230000Y-181730000D03*
X178230000Y-184270000D03*
X178230000Y-186810000D03*
X193470000Y-186810000D03*
X193470000Y-184270000D03*
X193470000Y-181730000D03*
X193470000Y-179190000D03*
X193470000Y-176650000D03*
X193470000Y-174110000D03*
X193470000Y-171570000D03*
X193470000Y-169030000D03*
X193470000Y-166490000D03*
X193470000Y-163950000D03*
X193470000Y-161410000D03*
X193470000Y-158870000D03*
X193470000Y-156330000D03*
X193470000Y-153790000D03*
%TD*%
D10*
%TO.C,IC75*%
X268510000Y-200920000D03*
D11*
X268510000Y-203460000D03*
X268510000Y-206000000D03*
X268510000Y-208540000D03*
X268510000Y-211080000D03*
X268510000Y-213620000D03*
X268510000Y-216160000D03*
X276130000Y-216160000D03*
X276130000Y-213620000D03*
X276130000Y-211080000D03*
X276130000Y-208540000D03*
X276130000Y-206000000D03*
X276130000Y-203460000D03*
X276130000Y-200920000D03*
%TD*%
D14*
%TO.C,A95*%
X104570000Y-74860000D03*
X99490000Y-74860000D03*
%TD*%
D19*
%TO.C,TR6*%
X371720000Y-61302500D03*
X369180000Y-63842500D03*
X366640000Y-61302500D03*
%TD*%
M02*
