M48
; DRILL file {KiCad 7.0.7} date Tue Nov 21 20:32:29 2023
; FORMAT={-:-/ absolute / inch / decimal}
; #@! TF.CreationDate,2023-11-21T20:32:29+00:00
; #@! TF.GenerationSoftware,Kicad,Pcbnew,7.0.7
; #@! TF.FileFunction,Plated,1,2,PTH
FMAT,2
INCH
; #@! TA.AperFunction,Plated,PTH,ViaDrill
T1C0.0236
; #@! TA.AperFunction,Plated,PTH,ComponentDrill
T2C0.0276
; #@! TA.AperFunction,Plated,PTH,ComponentDrill
T3C0.0315
; #@! TA.AperFunction,Plated,PTH,ComponentDrill
T4C0.0394
; #@! TA.AperFunction,Plated,PTH,ComponentDrill
T5C0.0472
; #@! TA.AperFunction,Plated,PTH,ComponentDrill
T6C0.0512
; #@! TA.AperFunction,Plated,PTH,ComponentDrill
T7C0.0551
; #@! TA.AperFunction,Plated,PTH,ComponentDrill
T8C0.0610
; #@! TA.AperFunction,Plated,PTH,ComponentDrill
T9C0.0728
; #@! TA.AperFunction,Plated,PTH,ComponentDrill
T10C0.1063
; #@! TA.AperFunction,Plated,PTH,ComponentDrill
T11C0.1575
%
G90
G05
T1
X1.6681Y-5.2134
X2.0299Y-8.0047
X2.4142Y-6.635
X2.4689Y-5.7161
X2.6437Y-5.7602
X2.698Y-5.6972
X2.9913Y-5.1504
X3.0146Y-6.0075
X3.0201Y-2.1008
X3.0799Y-5.9232
X3.0874Y-5.7717
X3.1472Y-5.8587
X3.161Y-5.7094
X3.215Y-5.8024
X3.2626Y-5.5626
X3.2953Y-8.9909
X3.2984Y-5.387
X3.3713Y-5.4937
X3.3768Y-4.7028
X3.422Y-5.6083
X3.5118Y-5.4563
X3.515Y-8.2827
X3.5421Y-7.2791
X3.6213Y-5.6638
X3.7272Y-5.2465
X3.8606Y-8.9874
X3.8646Y-5.3591
X3.8736Y-7.2236
X3.9689Y-5.3063
X4.0303Y-6.3217
X4.0831Y-4.9126
X4.102Y-7.3567
X4.1209Y-8.3583
X4.1634Y-5.1654
X4.2134Y-7.9476
X4.2177Y-3.1646
X4.3311Y-2.6961
X4.4622Y-6.9488
X4.4626Y-8.2598
X4.4685Y-8.1815
X4.4969Y-8.9724
X4.5087Y-8.8831
X4.524Y-6.648
X4.5516Y-8.602
X4.5886Y-8.8043
X4.615Y-6.5535
X4.6465Y-8.5736
X4.6831Y-8.7917
X4.6913Y-8.6358
X4.7217Y-4.152
X4.7524Y-8.6929
X4.7969Y-5.9575
X4.8071Y-8.7508
X4.8087Y-5.1957
X4.8374Y-5.8169
X4.863Y-8.8039
X4.9071Y-5.6917
X4.9205Y-8.8642
X4.9673Y-8.1528
X4.9689Y-5.6075
X4.9768Y-3.9701
X4.9882Y-8.3335
X4.9906Y-8.9323
X5.0209Y-6.3154
X5.0303Y-5.55
X5.0594Y-5.4083
X5.0657Y-8.9807
X5.0665Y-6.3791
X5.1016Y-5.1657
X5.1067Y-5.3311
X5.1098Y-6.4528
X5.1138Y-4.1547
X5.1516Y-6.5169
X5.228Y-2.9315
X5.2398Y-4.902
X5.2472Y-3.9012
X5.2827Y-7.915
X5.2882Y-8.4642
X5.2909Y-7.7925
X5.4067Y-2.7689
X5.4268Y-5.1386
X5.4551Y-6.3531
X5.4622Y-8.95
X5.5039Y-3.5646
X5.5106Y-3.8717
X5.6035Y-5.0984
X5.613Y-6.215
X5.6646Y-2.2472
X5.6681Y-6.0181
X5.6941Y-7.0051
X5.7169Y-5.952
X5.7551Y-6.9469
X5.7602Y-5.763
X5.7732Y-6.8051
X5.8146Y-5.5642
X5.8209Y-6.7551
X5.8383Y-6.6048
X5.8665Y-5.7756
X5.8709Y-5.4055
X5.8717Y-6.522
X5.9051Y-6.6799
X5.9055Y-4.1055
X5.9091Y-6.4406
X5.9177Y-5.7102
X5.9323Y-4.7819
X5.937Y-4.5236
X5.9437Y-6.365
X5.9512Y-2.7445
X5.9571Y-6.2636
X5.9669Y-5.5673
X5.9791Y-3.576
X5.9843Y-8.6744
X5.9925Y-6.5358
X6.0118Y-5.4583
X6.0181Y-4.7535
X6.0189Y-3.3957
X6.0354Y-2.5579
X6.0543Y-6.2606
X6.0709Y-5.7563
X6.0748Y-6.1594
X6.0799Y-6.0606
X6.0969Y-7.3075
X6.1394Y-7.2343
X6.1524Y-5.6067
X6.1677Y-8.8551
X6.1736Y-8.7012
X6.1961Y-8.9843
X6.1984Y-5.9783
X6.2Y-5.4547
X6.2299Y-3.8957
X6.2362Y-3.9815
X6.2362Y-8.8106
X6.2571Y-6.0357
X6.2598Y-8.6067
X6.2622Y-5.1701
X6.2638Y-2.6496
X6.2669Y-8.4992
X6.2843Y-3.5441
X6.2866Y-5.7043
X6.287Y-8.75
X6.2965Y-7.9551
X6.2988Y-7.1283
X6.3Y-3.7669
X6.3008Y-8.9929
X6.3239Y-5.2623
X6.3303Y-3.2988
X6.3543Y-8.9063
X6.3685Y-7.7197
X6.3705Y-3.9724
X6.3866Y-4.5736
X6.4071Y-4.498
X6.4165Y-7.6043
X6.4469Y-4.7787
X6.4823Y-4.9331
X6.4902Y-4.5224
X6.5067Y-7.5417
X6.55Y-7.6106
X6.5697Y-3.4571
X6.5705Y-5.0563
X6.5894Y-6.5539
X6.5957Y-4.4453
X6.5988Y-6.0606
X6.5992Y-3.1346
X6.5992Y-4.3472
X6.6209Y-7.7197
X6.6508Y-5.9988
X6.7094Y-7.0843
X6.7402Y-3.4094
X6.7406Y-7.6661
X6.774Y-8.9929
X6.8878Y-8.2567
X6.8941Y-3.1012
X6.8954Y-8.9929
X6.9075Y-2.8413
X6.9102Y-6.463
X6.9122Y-6.2559
X6.9209Y-7.0929
X6.922Y-3.3012
X6.9228Y-7.224
X6.9248Y-2.239
X6.9925Y-2.187
X7.0237Y-5.8437
X7.0346Y-3.7067
X7.037Y-7.5831
X7.0591Y-3.0126
X7.1177Y-3.0594
X7.1272Y-8.5539
X7.1323Y-7.3976
X7.1654Y-3.7051
X7.1795Y-3.1039
X7.1803Y-8.1276
X7.2059Y-7.3059
X7.226Y-8.4626
X7.2315Y-3.1626
X7.237Y-5.6236
X7.2909Y-3.215
X7.2921Y-8.1717
X7.3087Y-1.7657
X7.3421Y-1.9571
X7.3559Y-2.4224
X7.3587Y-7.4217
X7.365Y-6.4516
X7.3673Y-3.2697
X7.3677Y-6.1154
X7.3693Y-6.5579
X7.4071Y-2.3638
X7.4079Y-1.7697
X7.4272Y-2.1622
X7.4625Y-6.6575
X7.4854Y-6.0469
X7.4878Y-6.1937
X7.5039Y-6.7567
X7.5098Y-2.0059
X7.5445Y-5.5288
X7.5642Y-4.9571
X7.5925Y-3.4945
X7.613Y-5.2902
X7.6217Y-4.8984
X7.6244Y-5.9461
X7.637Y-2.8445
X7.6579Y-8.5543
X7.661Y-5.189
X7.6736Y-5.4433
X7.6756Y-3.8988
X7.6764Y-5.6331
X7.6835Y-1.5799
X7.6882Y-4.5496
X7.6929Y-1.4161
X7.6961Y-7.8067
X7.7024Y-5.3465
X7.7154Y-2.6587
X7.7307Y-4.0543
X7.7583Y-4.4949
X7.7618Y-4.2626
X7.7677Y-3.3492
X7.7913Y-2.7197
X7.8988Y-6.2685
X7.913Y-7.4126
X7.9213Y-3.3016
X7.9248Y-8.461
X7.9748Y-7.9693
X7.9961Y-3.6535
X8.0016Y-8.3697
X8.0039Y-3.3028
X8.0122Y-2.9776
X8.0134Y-7.8992
X8.0413Y-8.0665
X8.0673Y-7.3406
X8.0701Y-7.7071
X8.0831Y-3.0075
X8.0941Y-7.6138
X8.1465Y-3.0661
X8.1512Y-6.9063
X8.1531Y-7.5606
X8.1917Y-8.0591
X8.2039Y-3.1193
X8.2075Y-6.2654
X8.2122Y-6.8547
X8.2303Y-7.5311
X8.2394Y-3.6118
X8.2535Y-3.702
X8.2563Y-8.476
X8.263Y-3.1654
X8.2768Y-4.7917
X8.2898Y-5.2445
X8.3028Y-3.2343
X8.3031Y-8.3177
X8.3071Y-3.7642
X8.3087Y-2.9051
X8.3157Y-4.7154
X8.3224Y-3.8949
X8.3382Y-4.8787
X8.3457Y-5.8992
X8.3638Y-3.9776
X8.3772Y-4.1102
X8.3823Y-2.174
X8.3862Y-2.2626
X8.3945Y-3.8626
X8.398Y-4.9862
X8.402Y-7.5654
X8.4043Y-4.1858
X8.4331Y-4.8028
X8.4421Y-6.1752
X8.4504Y-5.8217
X8.4661Y-5.7508
X8.4681Y-4.3559
X8.5122Y-5.8669
X8.5142Y-4.2835
X8.5181Y-8.4661
X8.5236Y-3.0244
X8.528Y-8.3803
X8.5307Y-3.5012
X8.5437Y-4.213
X8.5567Y-3.1071
X8.5693Y-3.9118
X8.5709Y-8.5701
X8.574Y-6.3047
X8.5992Y-6.8524
X8.6035Y-6.5248
X8.6118Y-6.6457
X8.6146Y-4.2854
X8.6591Y-4.4114
X8.6654Y-6.1476
X8.6831Y-6.3846
X8.7299Y-4.7571
X8.7449Y-4.4362
X8.7484Y-2.1272
X8.7618Y-2.2039
X8.7886Y-4.3736
X8.7941Y-7.3016
X8.8197Y-5.8028
X8.8594Y-4.4118
X8.8795Y-1.5185
X8.8827Y-6.7031
X8.8921Y-1.4346
X8.9114Y-1.7728
X8.9567Y-6.2067
X8.9602Y-1.5512
X8.9831Y-2.3752
X8.998Y-5.9673
X8.9992Y-4.8602
X9.0039Y-4.4362
X9.0291Y-4.6354
X9.0291Y-6.8921
X9.0386Y-2.9028
X9.0429Y-3.3709
X9.0709Y-3.4496
X9.1114Y-2.7839
X9.1209Y-7.502
X9.1323Y-9.055
X9.1862Y-3.9555
X9.1866Y-6.0886
X9.1984Y-6.5579
X9.2Y-9.085
X9.2098Y-6.0118
X9.2126Y-6.3882
X9.213Y-6.861
X9.2134Y-6.7898
X9.2185Y-8.4614
X9.2378Y-6.4508
X9.2638Y-6.6972
X9.2642Y-4.6071
X9.2665Y-7.2201
X9.2713Y-1.5146
X9.313Y-4.6638
X9.3291Y-7.4283
X9.3437Y-7.8445
X9.3567Y-1.5307
X9.372Y-2.3878
X9.378Y-3.0091
X9.4638Y-4.1252
X9.4654Y-4.0445
X9.4705Y-4.3882
X9.4882Y-3.7996
X9.5028Y-6.3717
X9.5228Y-6.1165
X9.5256Y-6.2728
X9.5283Y-3.2551
X9.5299Y-7.5445
X9.5441Y-8.522
X9.5488Y-7.1539
X9.5602Y-6.7213
X9.6366Y-9.1016
X9.7024Y-5.8713
X9.7031Y-4.8248
X9.7043Y-3.7622
X9.7067Y-2.3539
X9.7213Y-9.1024
X9.7232Y-4.3492
X9.7343Y-8.1165
X9.7425Y-3.0681
X9.763Y-8.5614
X9.7673Y-2.4638
X9.7673Y-4.111
X9.7744Y-4.8602
X9.7874Y-2.3768
X9.7913Y-8.176
X9.7953Y-5.1299
X9.826Y-8.0421
X9.8303Y-5.961
X9.8417Y-7.2594
X9.8531Y-4.7319
X9.8693Y-8.9311
X9.8835Y-6.0142
X9.885Y-8.3
X9.8858Y-6.9063
X9.8921Y-2.4138
X9.9067Y-6.4417
X9.9157Y-7.6736
X9.9547Y-4.6555
X9.9579Y-3.6413
X9.9894Y-3.9457
X10.0276Y-2.6421
X10.0335Y-7.7063
X10.0524Y-6.3087
X10.0524Y-7.1181
X10.063Y-8.3091
X10.0673Y-2.5094
X10.0681Y-4.3988
X10.0902Y-5.8642
X10.111Y-7.7433
X10.1213Y-7.4331
X10.1248Y-2.2795
X10.1433Y-8.0079
X10.148Y-7.9114
X10.1882Y-7.6449
X10.1945Y-2.3398
X10.1949Y-3.9563
X10.2165Y-7.7965
X10.2173Y-5.9594
X10.2272Y-4.3736
X10.2531Y-3.0146
X10.2535Y-2.9276
X10.2752Y-3.2941
X10.276Y-3.6862
X10.2925Y-7.7142
X10.2996Y-4.2157
X10.3157Y-3.8736
X10.3165Y-2.2815
X10.3217Y-2.7866
X10.3276Y-4.4638
X10.3409Y-2.0146
X10.35Y-4.7937
X10.3654Y-6.8465
X10.3709Y-7.1012
X10.3835Y-4.8976
X10.389Y-8.1378
X10.4099Y-4.4595
X10.4217Y-8.3886
X10.4248Y-6.9587
X10.4323Y-9.0343
X10.4524Y-8.2248
X10.4614Y-3.5102
X10.4661Y-6.8846
X10.4689Y-6.3043
X10.4783Y-8.9665
X10.4803Y-4.6882
X10.4961Y-2.385
X10.5083Y-3.4433
X10.5185Y-2.9894
X10.5476Y-7.7976
X10.5504Y-3.8618
X10.561Y-2.4512
X10.6067Y-9.0378
X10.6087Y-3.0579
X10.6169Y-7.7591
X10.6476Y-2.1413
X10.652Y-4.6276
X10.6709Y-5.6346
X10.6823Y-4.4126
X10.7154Y-6.5335
X10.7157Y-6.3413
X10.7181Y-6.9657
X10.7205Y-7.0449
X10.7453Y-2.3299
X10.7461Y-6.6079
X10.7476Y-7.5504
X10.7547Y-6.7079
X10.7803Y-4.6232
X10.8472Y-3.715
X10.8626Y-4.4031
X10.8677Y-4.187
X10.8736Y-8.9358
X10.8866Y-5.8823
X10.8874Y-4.0992
X10.9106Y-4.7654
X10.9193Y-4.4575
X10.9343Y-6.45
X10.9441Y-5.313
X10.9543Y-8.2331
X10.9661Y-4.6256
X10.9669Y-7.0035
X10.9717Y-8.3579
X10.9949Y-7.1437
X11.011Y-3.5563
X11.0165Y-4.726
X11.0217Y-7.3657
X11.0244Y-2.2012
X11.0469Y-6.2472
X11.0646Y-3.2551
X11.072Y-2.6236
X11.0744Y-8.2319
X11.0898Y-8.5406
X11.1028Y-6.8417
X11.1063Y-4.1047
X11.1075Y-3.0669
X11.1303Y-1.4795
X11.135Y-2.3591
X11.1361Y-4.5916
X11.1626Y-3.7689
X11.1858Y-3.6996
X11.1976Y-1.439
X11.2165Y-3.5606
X11.2453Y-1.9512
X11.2713Y-8.9063
X11.2752Y-1.6323
X11.2768Y-4.3961
X11.2929Y-7.2484
X11.3016Y-7.5177
X11.3118Y-2.2488
X11.3244Y-8.5283
X11.3453Y-6.9976
X11.3689Y-3.2094
X11.3736Y-4.413
X11.3846Y-6.2543
X11.3917Y-6.1098
X11.4Y-3.6091
X11.4205Y-2.7815
X11.4346Y-2.9945
X11.4354Y-2.1098
X11.4528Y-4.1142
X11.4689Y-3.8445
X11.4748Y-4.4358
X11.4917Y-6.8346
X11.511Y-6.9
X11.5193Y-9.0189
X11.5209Y-4.8685
X11.526Y-5.8228
X11.537Y-1.574
X11.548Y-6.4669
X11.5516Y-6.7941
X11.5622Y-2.1398
X11.5803Y-7.1173
X11.5946Y-6.6765
X11.5957Y-8.2618
X11.5976Y-7.3531
X11.6122Y-4.4587
X11.6138Y-7.0201
X11.6209Y-8.0547
X11.6331Y-6.2098
X11.6567Y-7.9677
X11.674Y-8.4217
X11.6799Y-4.4957
X11.6921Y-3.6728
X11.702Y-2.5921
X11.7031Y-8.9157
X11.7157Y-2.0567
X11.7331Y-4.5685
X11.7476Y-8.1583
X11.7685Y-7.515
X11.7748Y-2.9803
X11.7807Y-7.3965
X11.7909Y-8.5484
X11.7984Y-4.6626
X11.8339Y-7.8272
X11.8465Y-7.661
X11.8756Y-5.8189
X11.8933Y-3.5551
X11.8976Y-7.2898
X11.9236Y-6.6531
X11.926Y-5.2988
X11.9272Y-2.313
X11.9276Y-9.0311
X11.9299Y-4.4087
X11.9303Y-1.9433
X11.9343Y-4.6787
X11.9566Y-7.4915
X11.9618Y-4.0953
X11.9827Y-6.3776
X12.0031Y-9.0394
X12.0193Y-3.0012
X12.0291Y-8.5457
X12.0543Y-3.8547
X12.0657Y-7.5398
X12.0705Y-4.7063
X12.0909Y-8.922
X12.0937Y-4.9311
X12.1126Y-4.998
X12.115Y-8.6016
X12.1252Y-4.5748
X12.1293Y-6.761
X12.1378Y-7.4213
X12.1453Y-8.0272
X12.1587Y-7.8638
X12.1697Y-4.9295
X12.1878Y-8.9268
X12.1902Y-4.6988
X12.2067Y-7.0587
X12.2067Y-3.8
X12.2071Y-6.5016
X12.2378Y-2.5579
X12.2488Y-7.7138
X12.2567Y-6.7898
X12.2587Y-3.6299
X12.276Y-8.9264
X12.2776Y-4.6421
X12.2976Y-6.8953
X12.3268Y-2.8157
X12.3354Y-8.8697
X12.3374Y-1.7067
X12.3402Y-3.4252
X12.3433Y-6.9685
X12.3657Y-2.2756
X12.3661Y-4.6961
X12.3752Y-7.2598
X12.3807Y-3.5697
X12.3917Y-8.8177
X12.3945Y-4.3575
X12.3984Y-1.7567
X12.4087Y-3.9724
X12.4276Y-7.187
X12.4378Y-4.224
X12.4567Y-8.7709
X12.4685Y-3.0681
X12.4713Y-4.6819
X12.4831Y-6.7165
X12.4906Y-4.1657
X12.5Y-2.485
X12.5081Y-6.23
X12.5091Y-2.9173
X12.5173Y-8.7161
X12.5252Y-6.563
X12.5295Y-3.7531
X12.5335Y-3.8909
X12.5398Y-3.1512
X12.5661Y-4.1425
X12.5819Y-6.2713
X12.5827Y-3.9776
X12.5913Y-7.4299
X12.5929Y-8.7055
X12.6134Y-3.1492
X12.6138Y-3.2276
X12.6276Y-3.748
X12.6295Y-2.7638
X12.6299Y-8.8705
X12.6512Y-3.911
X12.6953Y-8.3567
X12.7276Y-6.0161
X12.7693Y-5.0213
X12.7799Y-8.5906
X12.7858Y-3.4579
X12.8417Y-6.172
X12.8953Y-8.8465
X12.9504Y-8.5917
X12.9559Y-9.0835
X12.976Y-2.2677
X12.9772Y-7.4445
X12.9776Y-3.0067
X12.9902Y-8.8673
X13.028Y-3.9602
X13.0287Y-7.7646
X13.0291Y-6.611
X13.0571Y-5.8209
X13.0697Y-7.0764
X13.0748Y-8.3429
X13.0878Y-8.1531
X13.1114Y-6.0051
X13.1146Y-6.0874
X13.1248Y-6.6665
X13.1268Y-7.9638
X13.163Y-7.8331
X13.1732Y-6.5591
X13.1882Y-6.8681
X13.1945Y-7.9075
X13.2043Y-6.2024
X13.2224Y-3.4646
X13.248Y-6.7319
X13.2567Y-7.674
X13.2669Y-8.1094
X13.2732Y-2.4461
X13.274Y-7.1713
X13.2756Y-4.522
X13.2831Y-6.9161
X13.2874Y-8.5429
X13.2965Y-8.8697
X13.3228Y-7.0594
X13.3374Y-7.2571
X13.3614Y-6.9913
X13.3744Y-4.3677
X13.3791Y-8.0638
X13.3811Y-6.4283
X13.3957Y-8.2154
X13.4094Y-4.8614
X13.4126Y-3.7413
X13.4324Y-8.3077
X13.4386Y-2.5717
X13.4457Y-7.5035
X13.4461Y-7.75
X13.4484Y-5.3283
X13.4622Y-4.478
X13.4728Y-4.913
X13.4886Y-5.0323
X13.4921Y-3.4874
X13.5102Y-6.0764
X13.5575Y-4.8571
X13.6602Y-5.3535
X13.663Y-6.2091
X13.6882Y-4.5362
X13.6898Y-6.4181
X13.6902Y-5.2071
X13.7075Y-4.8756
X13.8228Y-2.7346
X13.8248Y-6.1535
X13.8283Y-6.3091
X13.8504Y-4.4933
X13.8563Y-8.6268
X13.8579Y-7.5488
X13.8689Y-9.0024
X13.9531Y-3.8524
X13.9594Y-8.5992
X13.9614Y-5.4295
X13.9807Y-6.5449
X13.9898Y-5.0276
X14.022Y-3.1091
X14.1354Y-6.1551
X14.1929Y-5.8819
X14.2185Y-6.3937
X14.2307Y-8.4228
X14.3386Y-4.4642
X14.3457Y-3.9295
X14.3492Y-1.9579
X14.3531Y-3.2063
X14.402Y-3.6965
X14.4205Y-1.9154
X14.4567Y-6.228
X14.5646Y-2.6177
X14.602Y-3.0657
X14.6445Y-2.5051
X14.6465Y-6.3697
X14.6567Y-6.7161
X14.665Y-3.6799
X14.6736Y-6.1445
X14.6862Y-2.2217
X14.6862Y-4.1598
X14.7276Y-6.3122
X14.7327Y-6.4618
X14.7677Y-4.1776
T2
X4.2699Y-3.6634
X4.4089Y-4.2531
X4.4108Y-4.4539
X4.4116Y-4.3551
X4.4136Y-4.5543
X4.4136Y-4.7551
X4.4144Y-4.6602
X4.4144Y-4.8563
X4.4626Y-3.7963
X4.4626Y-3.9616
X4.4699Y-3.6634
X4.6089Y-4.2531
X4.6108Y-4.4539
X4.6116Y-4.3551
X4.6122Y-3.7091
X4.6122Y-3.8591
X4.6136Y-4.5543
X4.6136Y-4.7551
X4.6144Y-4.6602
X4.6144Y-4.8563
X4.7161Y-3.8035
X4.7161Y-3.9535
X4.765Y-2.1026
X4.765Y-2.3026
X4.8154Y-7.9051
X4.8154Y-8.0551
X4.8169Y-3.8035
X4.8169Y-3.9535
X4.9638Y-7.9039
X4.9638Y-8.0539
X5.1652Y-2.4555
X5.3652Y-2.4555
X6.5732Y-3.3033
X6.6567Y-3.4148
X7.7256Y-1.9543
X7.7256Y-2.1043
X7.7724Y-1.7039
X7.7744Y-1.8059
X7.776Y-1.4069
X7.776Y-1.6069
X7.9224Y-1.7039
X7.9244Y-1.8059
X7.9272Y-1.4065
X7.9272Y-1.6065
X8.076Y-1.6573
X8.076Y-1.8573
X8.0778Y-2.1537
X8.1274Y-2.0041
X8.1644Y-1.7528
X8.2209Y-1.8569
X8.2209Y-2.0569
X8.3297Y-1.7528
X8.7173Y-3.6047
X8.8673Y-3.6047
X8.8709Y-3.1557
X8.8709Y-3.3557
X8.927Y-2.0555
X9.127Y-2.0555
X9.3289Y-2.0555
X9.372Y-2.6037
X9.372Y-2.8037
X9.3736Y-2.9049
X9.3736Y-3.1049
X9.4311Y-3.3715
X9.4311Y-3.5368
X9.4736Y-3.0083
X9.4736Y-3.1083
X9.4752Y-2.8035
X9.4752Y-2.9035
X9.4756Y-2.5031
X9.4756Y-2.6531
X9.5289Y-2.0555
X9.926Y-2.0598
X10.126Y-2.0598
X10.3364Y-5.9594
X10.5018Y-5.9594
X10.5461Y-3.5555
X10.5461Y-3.7555
X10.6234Y-6.861
X10.8185Y-2.2673
X10.8234Y-6.861
X10.9685Y-2.2673
X10.972Y-6.6608
X10.972Y-6.8608
X10.9805Y-6.5593
X11.0179Y-6.4065
X11.4295Y-2.3022
X11.4295Y-2.5022
X11.5341Y-2.5118
X11.6726Y-2.2059
X11.6994Y-2.5118
X11.8726Y-2.2059
X12.2807Y-1.4083
X12.2823Y-1.5035
X12.285Y-1.6059
X12.4307Y-1.4083
X12.4323Y-1.5035
X12.435Y-1.6059
X12.4539Y-2.2768
X12.4539Y-2.4268
X12.6705Y-2.6085
X12.7539Y-2.7199
X13.2307Y-3.5555
X13.4307Y-3.5555
X13.5272Y-3.0094
X13.5287Y-2.9079
X13.5303Y-3.563
X13.577Y-3.1783
X13.6772Y-3.0094
X13.6787Y-2.9079
X13.6803Y-3.563
X13.7423Y-3.1783
X13.8886Y-3.0132
X13.8886Y-3.2132
X14.0803Y-2.6073
X14.0803Y-2.8073
X14.0803Y-3.0545
X14.0803Y-3.2545
X14.2358Y-2.5138
X14.385Y-2.1063
X14.3858Y-2.5138
X14.4262Y-7.6124
X14.4378Y-2.2618
X14.4758Y-7.4628
X14.4844Y-6.0579
X14.4886Y-7.0559
X14.5256Y-7.8622
X14.5256Y-8.0122
X14.5291Y-6.8106
X14.5291Y-6.9606
X14.5913Y-3.6018
X14.5913Y-3.8018
X14.6197Y-5.0596
X14.6197Y-5.2596
X14.6386Y-7.0559
X14.65Y-5.7549
X14.65Y-5.9549
X14.6844Y-6.0579
X14.7283Y-6.5632
X14.7283Y-6.7632
T3
X2.2134Y-7.0004
X2.2134Y-7.1004
X2.2134Y-7.2004
X2.2134Y-7.3004
X2.2134Y-7.4004
X2.2134Y-7.5004
X2.2134Y-7.6004
X2.2134Y-7.7004
X2.2606Y-8.0
X2.2606Y-8.1
X2.2606Y-8.2
X2.2606Y-8.3
X2.2606Y-8.4
X2.2606Y-8.5
X2.2606Y-8.6
X2.2606Y-8.7
X2.261Y-7.8528
X2.2622Y-8.8543
X2.263Y-6.8539
X2.461Y-7.8528
X2.4622Y-8.8543
X2.463Y-6.8539
X2.5134Y-7.0004
X2.5134Y-7.1004
X2.5134Y-7.2004
X2.5134Y-7.3004
X2.5134Y-7.4004
X2.5134Y-7.5004
X2.5134Y-7.6004
X2.5134Y-7.7004
X2.5606Y-8.0
X2.5606Y-8.1
X2.5606Y-8.2
X2.5606Y-8.3
X2.5606Y-8.4
X2.5606Y-8.5
X2.5606Y-8.6
X2.5606Y-8.7
X2.8122Y-8.0024
X2.8122Y-8.1024
X2.8122Y-8.2024
X2.8122Y-8.3024
X2.8122Y-8.4024
X2.8122Y-8.5024
X2.8122Y-8.6024
X2.8122Y-8.7024
X2.8169Y-6.9961
X2.8169Y-7.0961
X2.8169Y-7.1961
X2.8169Y-7.2961
X2.8169Y-7.3961
X2.8169Y-7.4961
X2.8169Y-7.5961
X2.8169Y-7.6961
X2.8614Y-8.8528
X2.8618Y-7.8535
X2.8654Y-6.852
X2.9142Y-4.9433
X2.9142Y-5.3433
X3.0614Y-8.8528
X3.0618Y-7.8535
X3.0654Y-6.852
X3.1122Y-8.0024
X3.1122Y-8.1024
X3.1122Y-8.2024
X3.1122Y-8.3024
X3.1122Y-8.4024
X3.1122Y-8.5024
X3.1122Y-8.6024
X3.1122Y-8.7024
X3.1169Y-6.9961
X3.1169Y-7.0961
X3.1169Y-7.1961
X3.1169Y-7.2961
X3.1169Y-7.3961
X3.1169Y-7.4961
X3.1169Y-7.5961
X3.1169Y-7.6961
X3.4138Y-6.9984
X3.4138Y-7.0984
X3.4138Y-7.1984
X3.4138Y-7.2984
X3.4138Y-7.3984
X3.4138Y-7.4984
X3.4138Y-7.5984
X3.4138Y-7.6984
X3.415Y-7.8524
X3.415Y-8.0012
X3.415Y-8.1012
X3.415Y-8.2012
X3.415Y-8.3012
X3.415Y-8.4012
X3.415Y-8.5012
X3.415Y-8.6012
X3.415Y-8.7012
X3.461Y-6.8551
X3.4622Y-8.8563
X3.4626Y-4.3488
X3.4626Y-4.4488
X3.4626Y-4.5488
X3.4626Y-4.6488
X3.4626Y-4.7488
X3.4626Y-4.8488
X3.4626Y-4.9488
X3.615Y-7.8524
X3.661Y-6.8551
X3.6622Y-8.8563
X3.7138Y-6.9984
X3.7138Y-7.0984
X3.7138Y-7.1984
X3.7138Y-7.2984
X3.7138Y-7.3984
X3.7138Y-7.4984
X3.7138Y-7.5984
X3.7138Y-7.6984
X3.715Y-8.0012
X3.715Y-8.1012
X3.715Y-8.2012
X3.715Y-8.3012
X3.715Y-8.4012
X3.715Y-8.5012
X3.715Y-8.6012
X3.715Y-8.7012
X3.7626Y-4.3488
X3.7626Y-4.4488
X3.7626Y-4.5488
X3.7626Y-4.6488
X3.7626Y-4.7488
X3.7626Y-4.8488
X3.7626Y-4.9488
X3.9169Y-2.9472
X3.9673Y-4.0023
X3.9673Y-4.1023
X3.9673Y-4.2023
X3.9673Y-4.3023
X3.9673Y-4.4023
X3.9673Y-4.5023
X3.9673Y-4.6023
X3.9673Y-4.7023
X4.0138Y-8.0024
X4.0138Y-8.1024
X4.0138Y-8.2024
X4.0138Y-8.3024
X4.0138Y-8.4024
X4.0138Y-8.5024
X4.0138Y-8.6024
X4.0138Y-8.7024
X4.015Y-7.0063
X4.015Y-7.1063
X4.015Y-7.2063
X4.015Y-7.3063
X4.015Y-7.4063
X4.015Y-7.5063
X4.015Y-7.6063
X4.015Y-7.7063
X4.0157Y-3.8508
X4.0634Y-6.8531
X4.0634Y-8.8571
X4.0642Y-7.8543
X4.1169Y-2.9472
X4.2157Y-3.8508
X4.2169Y-2.7992
X4.2201Y-3.4677
X4.2201Y-3.5614
X4.2634Y-6.8531
X4.2634Y-8.8571
X4.2642Y-7.8543
X4.2673Y-4.0023
X4.2673Y-4.1023
X4.2673Y-4.2023
X4.2673Y-4.3023
X4.2673Y-4.4023
X4.2673Y-4.5023
X4.2673Y-4.6023
X4.2673Y-4.7023
X4.3138Y-5.0028
X4.3138Y-8.0024
X4.3138Y-8.1024
X4.3138Y-8.2024
X4.3138Y-8.3024
X4.3138Y-8.4024
X4.3138Y-8.5024
X4.3138Y-8.6024
X4.3138Y-8.7024
X4.315Y-7.0063
X4.315Y-7.1063
X4.315Y-7.2063
X4.315Y-7.3063
X4.315Y-7.4063
X4.315Y-7.5063
X4.315Y-7.6063
X4.315Y-7.7063
X4.3654Y-2.9008
X4.3654Y-3.3008
X4.3657Y-5.1516
X4.3657Y-5.2516
X4.3657Y-5.3516
X4.3657Y-5.4516
X4.3657Y-5.5516
X4.3657Y-5.6516
X4.3657Y-5.7516
X4.3657Y-5.8516
X4.3657Y-5.9516
X4.3657Y-6.0516
X4.5138Y-5.0028
X4.5154Y-2.9008
X4.5154Y-3.3008
X4.6157Y-2.9028
X4.6157Y-3.3028
X4.6169Y-2.7992
X4.6201Y-3.4677
X4.6201Y-3.5614
X4.6657Y-5.1516
X4.6657Y-5.2516
X4.6657Y-5.3516
X4.6657Y-5.4516
X4.6657Y-5.5516
X4.6657Y-5.6516
X4.6657Y-5.7516
X4.6657Y-5.8516
X4.6657Y-5.9516
X4.6657Y-6.0516
X4.6665Y-6.9563
X4.6665Y-7.0563
X4.6665Y-7.1563
X4.6665Y-7.2563
X4.6665Y-7.3563
X4.6665Y-7.4563
X4.6665Y-7.5563
X4.7142Y-4.0551
X4.7661Y-3.0028
X4.7661Y-3.1028
X4.7661Y-3.2028
X4.7661Y-3.3028
X4.7661Y-3.4028
X4.7661Y-3.5028
X4.7661Y-3.6028
X4.7681Y-6.7488
X4.8134Y-4.3051
X4.8134Y-4.4051
X4.8134Y-4.5051
X4.8134Y-4.6051
X4.8134Y-4.7051
X4.8134Y-4.8051
X4.8134Y-4.9051
X4.8134Y-5.0051
X4.8134Y-8.2024
X4.8134Y-8.3024
X4.8138Y-2.7
X4.8138Y-2.8
X4.8677Y-2.0496
X4.8677Y-2.4496
X4.9614Y-3.8575
X4.9626Y-2.4496
X4.9626Y-2.8496
X4.9665Y-6.9563
X4.9665Y-7.0563
X4.9665Y-7.1563
X4.9665Y-7.2563
X4.9665Y-7.3563
X4.9665Y-7.4563
X4.9665Y-7.5563
X4.9681Y-6.7488
X5.0614Y-3.8575
X5.0638Y-2.4559
X5.0638Y-2.8559
X5.0661Y-3.0028
X5.0661Y-3.1028
X5.0661Y-3.2028
X5.0661Y-3.3028
X5.0661Y-3.4028
X5.0661Y-3.5028
X5.0661Y-3.6028
X5.1134Y-4.3051
X5.1134Y-4.4051
X5.1134Y-4.5051
X5.1134Y-4.6051
X5.1134Y-4.7051
X5.1134Y-4.8051
X5.1134Y-4.9051
X5.1134Y-5.0051
X5.1142Y-4.0551
X5.115Y-7.7016
X5.115Y-7.8016
X5.115Y-7.9016
X5.115Y-8.0016
X5.115Y-8.1016
X5.115Y-8.2016
X5.115Y-8.3016
X5.115Y-8.4016
X5.115Y-8.5016
X5.115Y-8.6016
X5.1614Y-3.3091
X5.1614Y-3.7091
X5.1642Y-2.5571
X5.1642Y-2.6583
X5.1642Y-2.7591
X5.1642Y-2.8563
X5.2169Y-7.4587
X5.2642Y-3.1039
X5.2642Y-3.2039
X5.2642Y-3.3039
X5.2642Y-3.4039
X5.2642Y-3.5039
X5.2642Y-3.6039
X5.2642Y-3.7039
X5.2642Y-3.8039
X5.2646Y-5.1528
X5.2646Y-5.2528
X5.2646Y-5.3528
X5.2646Y-5.4528
X5.2646Y-5.5528
X5.2646Y-5.6528
X5.2646Y-5.7528
X5.2646Y-5.8528
X5.2646Y-5.9528
X5.2646Y-6.0528
X5.2669Y-6.3524
X5.2669Y-6.4524
X5.2669Y-6.5524
X5.2669Y-6.6524
X5.2669Y-6.7524
X5.2669Y-6.8524
X5.2669Y-6.9524
X5.2669Y-7.0524
X5.2669Y-7.1524
X5.2669Y-7.2524
X5.2677Y-4.2031
X5.2677Y-4.3031
X5.2677Y-4.4031
X5.2677Y-4.5031
X5.2677Y-4.6031
X5.2677Y-4.7031
X5.2677Y-4.8031
X5.3161Y-3.9543
X5.3173Y-6.2047
X5.3224Y-4.9484
X5.3567Y-2.9551
X5.415Y-7.7016
X5.415Y-7.8016
X5.415Y-7.9016
X5.415Y-8.0016
X5.415Y-8.1016
X5.415Y-8.2016
X5.415Y-8.3016
X5.415Y-8.4016
X5.415Y-8.5016
X5.415Y-8.6016
X5.4169Y-7.4587
X5.5161Y-3.9543
X5.5173Y-6.2047
X5.5224Y-4.9484
X5.5567Y-2.9551
X5.5642Y-2.5571
X5.5642Y-2.6583
X5.5642Y-2.7591
X5.5642Y-2.8563
X5.5642Y-3.1039
X5.5642Y-3.2039
X5.5642Y-3.3039
X5.5642Y-3.4039
X5.5642Y-3.5039
X5.5642Y-3.6039
X5.5642Y-3.7039
X5.5642Y-3.8039
X5.5646Y-5.1528
X5.5646Y-5.2528
X5.5646Y-5.3528
X5.5646Y-5.4528
X5.5646Y-5.5528
X5.5646Y-5.6528
X5.5646Y-5.7528
X5.5646Y-5.8528
X5.5646Y-5.9528
X5.5646Y-6.0528
X5.5669Y-6.3524
X5.5669Y-6.4524
X5.5669Y-6.5524
X5.5669Y-6.6524
X5.5669Y-6.7524
X5.5669Y-6.8524
X5.5669Y-6.9524
X5.5669Y-7.0524
X5.5669Y-7.1524
X5.5669Y-7.2524
X5.5677Y-4.2031
X5.5677Y-4.3031
X5.5677Y-4.4031
X5.5677Y-4.5031
X5.5677Y-4.6031
X5.5677Y-4.7031
X5.5677Y-4.8031
X5.7654Y-7.6051
X5.7654Y-7.7051
X5.7654Y-7.8051
X5.7654Y-7.9051
X5.7654Y-8.0051
X5.7654Y-8.1051
X5.7654Y-8.2051
X5.7654Y-8.3051
X5.7654Y-8.4051
X5.7654Y-8.5051
X5.8189Y-7.3307
X6.0118Y-2.9071
X6.0118Y-3.3071
X6.0146Y-4.6583
X6.0146Y-4.8583
X6.0189Y-7.3307
X6.0654Y-7.6051
X6.0654Y-7.7051
X6.0654Y-7.8051
X6.0654Y-7.9051
X6.0654Y-8.0051
X6.0654Y-8.1051
X6.0654Y-8.2051
X6.0654Y-8.3051
X6.0654Y-8.4051
X6.0654Y-8.5051
X6.1165Y-2.7547
X6.1165Y-2.8547
X6.1165Y-2.9547
X6.1165Y-3.0547
X6.1165Y-3.1547
X6.1165Y-3.2547
X6.1165Y-3.3547
X6.122Y-3.5531
X6.122Y-3.6531
X6.122Y-3.7531
X6.122Y-3.8531
X6.122Y-3.9531
X6.122Y-4.0531
X6.122Y-4.1531
X6.122Y-4.2531
X6.122Y-4.3531
X6.122Y-4.4531
X6.122Y-4.5531
X6.122Y-4.6531
X6.122Y-4.7531
X6.122Y-4.8531
X6.122Y-4.9531
X6.122Y-5.0531
X6.122Y-5.1531
X6.122Y-5.2531
X6.122Y-5.3531
X6.122Y-5.4531
X6.1681Y-2.6043
X6.2142Y-6.1028
X6.2142Y-6.2028
X6.2142Y-6.3028
X6.2142Y-6.4028
X6.2142Y-6.5028
X6.2142Y-6.6028
X6.2142Y-6.7028
X6.2142Y-6.8028
X6.2142Y-6.9028
X6.2142Y-7.0028
X6.2142Y-7.1028
X6.2142Y-7.2028
X6.2142Y-7.3028
X6.2142Y-7.4028
X6.2142Y-7.5028
X6.2142Y-7.6028
X6.2142Y-7.7028
X6.2142Y-7.8028
X6.2142Y-7.9028
X6.2142Y-8.0028
X6.3681Y-2.6043
X6.3697Y-8.1535
X6.3697Y-8.5535
X6.4165Y-2.7547
X6.4165Y-2.8547
X6.4165Y-2.9547
X6.4165Y-3.0547
X6.4165Y-3.1547
X6.4165Y-3.2547
X6.4165Y-3.3547
X6.4661Y-8.1535
X6.4661Y-8.5535
X6.5669Y-8.1535
X6.5669Y-8.5535
X6.6512Y-5.6677
X6.6642Y-8.1535
X6.6642Y-8.5535
X6.722Y-3.5531
X6.722Y-3.6531
X6.722Y-3.7531
X6.722Y-3.8531
X6.722Y-3.9531
X6.722Y-4.0531
X6.722Y-4.1531
X6.722Y-4.2531
X6.722Y-4.3531
X6.722Y-4.4531
X6.722Y-4.5531
X6.722Y-4.6531
X6.722Y-4.7531
X6.722Y-4.8531
X6.722Y-4.9531
X6.722Y-5.0531
X6.722Y-5.1531
X6.722Y-5.2531
X6.722Y-5.3531
X6.722Y-5.4531
X6.7622Y-8.1535
X6.7622Y-8.5535
X6.8142Y-6.1028
X6.8142Y-6.2028
X6.8142Y-6.3028
X6.8142Y-6.4028
X6.8142Y-6.5028
X6.8142Y-6.6028
X6.8142Y-6.7028
X6.8142Y-6.8028
X6.8142Y-6.9028
X6.8142Y-7.0028
X6.8142Y-7.1028
X6.8142Y-7.2028
X6.8142Y-7.3028
X6.8142Y-7.4028
X6.8142Y-7.5028
X6.8142Y-7.6028
X6.8142Y-7.7028
X6.8142Y-7.8028
X6.8142Y-7.9028
X6.8142Y-8.0028
X6.8512Y-5.6677
X6.8646Y-3.5528
X6.8646Y-3.6528
X6.8646Y-3.7528
X6.8646Y-3.8528
X6.8646Y-3.9528
X6.8646Y-4.0528
X6.8646Y-4.1528
X6.8646Y-4.2528
X6.8646Y-4.3528
X6.8646Y-4.4528
X6.8646Y-4.5528
X6.8646Y-4.6528
X6.8646Y-4.7528
X6.8646Y-4.8528
X6.8646Y-4.9528
X6.8646Y-5.0528
X6.8646Y-5.1528
X6.8646Y-5.2528
X6.8646Y-5.3528
X6.8646Y-5.4528
X6.8693Y-8.5535
X6.9701Y-2.5051
X6.9701Y-2.9051
X7.0169Y-6.0547
X7.0169Y-6.1547
X7.0169Y-6.2547
X7.0169Y-6.3547
X7.0169Y-6.4547
X7.0169Y-6.5547
X7.0169Y-6.6547
X7.0169Y-6.7547
X7.0169Y-6.8547
X7.0169Y-6.9547
X7.0169Y-7.0547
X7.0169Y-7.1547
X7.0169Y-7.2547
X7.0169Y-7.3547
X7.2693Y-8.5535
X7.276Y-5.9382
X7.4138Y-8.1043
X7.4138Y-8.5043
X7.4646Y-3.5528
X7.4646Y-3.6528
X7.4646Y-3.7528
X7.4646Y-3.8528
X7.4646Y-3.9528
X7.4646Y-4.0528
X7.4646Y-4.1528
X7.4646Y-4.2528
X7.4646Y-4.3528
X7.4646Y-4.4528
X7.4646Y-4.5528
X7.4646Y-4.6528
X7.4646Y-4.7528
X7.4646Y-4.8528
X7.4646Y-4.9528
X7.4646Y-5.0528
X7.4646Y-5.1528
X7.4646Y-5.2528
X7.4646Y-5.3528
X7.4646Y-5.4528
X7.476Y-5.9382
X7.5165Y-7.6102
X7.5165Y-7.7102
X7.5165Y-7.8102
X7.5165Y-7.9102
X7.5165Y-8.0102
X7.5165Y-8.1102
X7.5165Y-8.2102
X7.5165Y-8.3102
X7.5165Y-8.4102
X7.5165Y-8.5102
X7.565Y-7.4693
X7.6169Y-6.0547
X7.6169Y-6.1547
X7.6169Y-6.2547
X7.6169Y-6.3547
X7.6169Y-6.4547
X7.6169Y-6.5547
X7.6169Y-6.6547
X7.6169Y-6.7547
X7.6169Y-6.8547
X7.6169Y-6.9547
X7.6169Y-7.0547
X7.6169Y-7.1547
X7.6169Y-7.2547
X7.6169Y-7.3547
X7.765Y-7.4693
X7.7681Y-6.0571
X7.7681Y-6.1571
X7.7681Y-6.2571
X7.7681Y-6.3571
X7.7681Y-6.4571
X7.7681Y-6.5571
X7.7681Y-6.6571
X7.7681Y-6.7571
X7.7681Y-6.8571
X7.7681Y-6.9571
X7.7681Y-7.0571
X7.7681Y-7.1571
X7.7681Y-7.2571
X7.7681Y-7.3571
X7.8165Y-7.6102
X7.8165Y-7.7102
X7.8165Y-7.8102
X7.8165Y-7.9102
X7.8165Y-8.0102
X7.8165Y-8.1102
X7.8165Y-8.2102
X7.8165Y-8.3102
X7.8165Y-8.4102
X7.8165Y-8.5102
X7.8193Y-4.6047
X7.8193Y-4.7047
X7.8193Y-4.8047
X7.8193Y-4.9047
X7.8193Y-5.0047
X7.8193Y-5.1047
X7.8193Y-5.2047
X7.8193Y-5.3047
X7.8193Y-5.4047
X7.8193Y-5.5047
X7.822Y-2.0059
X7.822Y-3.502
X7.822Y-3.602
X7.822Y-3.702
X7.822Y-3.802
X7.822Y-3.902
X7.822Y-4.002
X7.822Y-4.102
X7.822Y-4.202
X7.822Y-4.302
X7.822Y-4.402
X7.8689Y-3.3555
X7.8701Y-2.7575
X7.8705Y-2.5583
X7.8705Y-2.6583
X7.922Y-2.1059
X7.9673Y-5.9272
X8.022Y-2.0059
X8.0689Y-3.3555
X8.1173Y-7.9074
X8.1173Y-8.0074
X8.1173Y-8.1074
X8.1173Y-8.2074
X8.1173Y-8.3074
X8.1173Y-8.4074
X8.1173Y-8.5074
X8.1193Y-4.6047
X8.1193Y-4.7047
X8.1193Y-4.8047
X8.1193Y-4.9047
X8.1193Y-5.0047
X8.1193Y-5.1047
X8.1193Y-5.2047
X8.1193Y-5.3047
X8.1193Y-5.4047
X8.1193Y-5.5047
X8.122Y-3.502
X8.122Y-3.602
X8.122Y-3.702
X8.122Y-3.802
X8.122Y-3.902
X8.122Y-4.002
X8.122Y-4.102
X8.122Y-4.202
X8.122Y-4.302
X8.122Y-4.402
X8.1673Y-5.9272
X8.2217Y-7.7094
X8.2701Y-2.7575
X8.2705Y-2.5583
X8.2705Y-2.6583
X8.3681Y-6.0571
X8.3681Y-6.1571
X8.3681Y-6.2571
X8.3681Y-6.3571
X8.3681Y-6.4571
X8.3681Y-6.5571
X8.3681Y-6.6571
X8.3681Y-6.7571
X8.3681Y-6.8571
X8.3681Y-6.9571
X8.3681Y-7.0571
X8.3681Y-7.1571
X8.3681Y-7.2571
X8.3681Y-7.3571
X8.4173Y-7.9074
X8.4173Y-8.0074
X8.4173Y-8.1074
X8.4173Y-8.2074
X8.4173Y-8.3074
X8.4173Y-8.4074
X8.4173Y-8.5074
X8.4217Y-7.7094
X8.4224Y-2.6558
X8.4224Y-2.7558
X8.4224Y-2.8558
X8.4224Y-2.9558
X8.4224Y-3.0558
X8.4224Y-3.1558
X8.4224Y-3.2558
X8.4224Y-3.3558
X8.4709Y-2.5051
X8.5161Y-6.0547
X8.5161Y-6.1547
X8.5161Y-6.2547
X8.5161Y-6.3547
X8.5161Y-6.4547
X8.5161Y-6.5547
X8.5161Y-6.6547
X8.5161Y-6.7547
X8.5161Y-6.8547
X8.5161Y-6.9547
X8.5161Y-7.0547
X8.5161Y-7.1547
X8.5161Y-7.2547
X8.5161Y-7.3547
X8.5267Y-1.6028
X8.5275Y-2.0051
X8.5661Y-4.7543
X8.5661Y-4.8543
X8.5661Y-4.9543
X8.5661Y-5.0543
X8.5661Y-5.1543
X8.5661Y-5.2543
X8.5661Y-5.3543
X8.5661Y-5.4543
X8.5661Y-5.5543
X8.5661Y-5.6543
X8.5693Y-4.5563
X8.6267Y-1.5028
X8.6267Y-1.7028
X8.6275Y-1.9051
X8.6275Y-2.1051
X8.6709Y-2.5051
X8.6709Y-7.8078
X8.6709Y-7.9078
X8.6709Y-8.0078
X8.6709Y-8.1078
X8.6709Y-8.2078
X8.6709Y-8.3078
X8.6709Y-8.4078
X8.6709Y-8.5078
X8.7193Y-7.6583
X8.7224Y-2.6558
X8.7224Y-2.7558
X8.7224Y-2.8558
X8.7224Y-2.9558
X8.7224Y-3.0558
X8.7224Y-3.1558
X8.7224Y-3.2558
X8.7224Y-3.3558
X8.7303Y-5.7976
X8.7693Y-4.5563
X8.8661Y-4.7543
X8.8661Y-4.8543
X8.8661Y-4.9543
X8.8661Y-5.0543
X8.8661Y-5.1543
X8.8661Y-5.2543
X8.8661Y-5.3543
X8.8661Y-5.4543
X8.8661Y-5.5543
X8.8661Y-5.6543
X8.9193Y-7.6583
X8.9303Y-5.7976
X8.9709Y-7.8078
X8.9709Y-7.9078
X8.9709Y-8.0078
X8.9709Y-8.1078
X8.9709Y-8.2078
X8.9709Y-8.3078
X8.9709Y-8.4078
X8.9709Y-8.5078
X8.9717Y-3.7066
X8.9717Y-3.8066
X8.9717Y-3.9066
X8.9717Y-4.0066
X8.9717Y-4.1066
X8.9717Y-4.2066
X8.9717Y-4.3066
X8.9748Y-2.6551
X8.9748Y-2.7551
X8.9748Y-2.8551
X8.9748Y-2.9551
X8.9748Y-3.0551
X8.9748Y-3.1551
X8.9748Y-3.2551
X8.9748Y-3.3551
X9.0217Y-3.5508
X9.0236Y-2.4996
X9.1161Y-6.0547
X9.1161Y-6.1547
X9.1161Y-6.2547
X9.1161Y-6.3547
X9.1161Y-6.4547
X9.1161Y-6.5547
X9.1161Y-6.6547
X9.1161Y-6.7547
X9.1161Y-6.8547
X9.1161Y-6.9547
X9.1161Y-7.0547
X9.1161Y-7.1547
X9.1161Y-7.2547
X9.1161Y-7.3547
X9.1685Y-7.8854
X9.1685Y-8.2854
X9.2004Y-7.3012
X9.2004Y-7.7012
X9.2217Y-3.5508
X9.2236Y-2.4996
X9.2717Y-3.7066
X9.2717Y-3.8066
X9.2717Y-3.9066
X9.2717Y-4.0066
X9.2717Y-4.1066
X9.2717Y-4.2066
X9.2717Y-4.3066
X9.2748Y-2.6551
X9.2748Y-2.7551
X9.2748Y-2.8551
X9.2748Y-2.9551
X9.2748Y-3.0551
X9.2748Y-3.1551
X9.2748Y-3.2551
X9.2748Y-3.3551
X9.372Y-4.9531
X9.372Y-5.0531
X9.372Y-5.1531
X9.372Y-5.2531
X9.372Y-5.3531
X9.372Y-5.4531
X9.372Y-5.5531
X9.372Y-5.6531
X9.3744Y-7.9582
X9.3744Y-8.0582
X9.3744Y-8.1582
X9.3744Y-8.2582
X9.3744Y-8.3582
X9.3744Y-8.4582
X9.3744Y-8.5582
X9.3894Y-6.0083
X9.3894Y-6.1083
X9.3894Y-6.2083
X9.3894Y-6.3083
X9.3894Y-6.4083
X9.3894Y-6.5083
X9.3894Y-6.6083
X9.3894Y-6.7083
X9.3953Y-7.0055
X9.3953Y-7.1055
X9.3953Y-7.2055
X9.3953Y-7.3055
X9.3953Y-7.4055
X9.3953Y-7.5055
X9.3953Y-7.6055
X9.4185Y-5.8579
X9.4209Y-4.7811
X9.4209Y-6.8583
X9.4244Y-7.8087
X9.5713Y-3.7062
X9.5713Y-3.8062
X9.5713Y-3.9062
X9.5713Y-4.0062
X9.5713Y-4.1062
X9.5713Y-4.2062
X9.5713Y-4.3062
X9.5736Y-2.8058
X9.5736Y-2.9058
X9.5736Y-3.0058
X9.5736Y-3.1058
X9.5736Y-3.2058
X9.5736Y-3.3058
X9.5736Y-3.4058
X9.6185Y-5.8579
X9.6209Y-4.7811
X9.6209Y-6.8583
X9.6217Y-3.5535
X9.6244Y-7.8087
X9.6701Y-2.6575
X9.672Y-4.9531
X9.672Y-5.0531
X9.672Y-5.1531
X9.672Y-5.2531
X9.672Y-5.3531
X9.672Y-5.4531
X9.672Y-5.5531
X9.672Y-5.6531
X9.6744Y-7.9582
X9.6744Y-8.0582
X9.6744Y-8.1582
X9.6744Y-8.2582
X9.6744Y-8.3582
X9.6744Y-8.4582
X9.6744Y-8.5582
X9.6894Y-6.0083
X9.6894Y-6.1083
X9.6894Y-6.2083
X9.6894Y-6.3083
X9.6894Y-6.4083
X9.6894Y-6.5083
X9.6894Y-6.6083
X9.6894Y-6.7083
X9.6953Y-7.0055
X9.6953Y-7.1055
X9.6953Y-7.2055
X9.6953Y-7.3055
X9.6953Y-7.4055
X9.6953Y-7.5055
X9.6953Y-7.6055
X9.8217Y-3.5535
X9.8701Y-2.6575
X9.8713Y-3.7062
X9.8713Y-3.8062
X9.8713Y-3.9062
X9.8713Y-4.0062
X9.8713Y-4.1062
X9.8713Y-4.2062
X9.8713Y-4.3062
X9.8736Y-2.8058
X9.8736Y-2.9058
X9.8736Y-3.0058
X9.8736Y-3.1058
X9.8736Y-3.2058
X9.8736Y-3.3058
X9.8736Y-3.4058
X9.9697Y-4.9559
X9.9697Y-5.0559
X9.9697Y-5.1559
X9.9697Y-5.2559
X9.9697Y-5.3559
X9.9697Y-5.4559
X9.9697Y-5.5559
X9.9697Y-5.6559
X9.9697Y-7.9091
X9.9697Y-8.0091
X9.9697Y-8.1091
X9.9697Y-8.2091
X9.9697Y-8.3091
X9.9697Y-8.4091
X9.9697Y-8.5091
X9.9709Y-6.1102
X9.9709Y-6.2102
X9.9709Y-6.3102
X9.9709Y-6.4102
X9.9709Y-6.5102
X9.9709Y-6.6102
X9.9709Y-6.7102
X9.9724Y-7.0121
X9.9724Y-7.1121
X9.9724Y-7.2121
X9.9724Y-7.3121
X9.9724Y-7.4121
X9.9724Y-7.5121
X9.9724Y-7.6121
X10.0209Y-4.7591
X10.0209Y-5.8075
X10.0209Y-6.8587
X10.1224Y-3.7051
X10.1224Y-3.8051
X10.1224Y-3.9051
X10.1224Y-4.0051
X10.1224Y-4.1051
X10.1224Y-4.2051
X10.1224Y-4.3051
X10.1248Y-2.8074
X10.1248Y-2.9074
X10.1248Y-3.0074
X10.1248Y-3.1074
X10.1248Y-3.2074
X10.1248Y-3.3074
X10.1248Y-3.4074
X10.1362Y-3.5547
X10.174Y-2.6559
X10.2209Y-4.7591
X10.2209Y-5.8075
X10.2209Y-6.8587
X10.2697Y-4.9559
X10.2697Y-5.0559
X10.2697Y-5.1559
X10.2697Y-5.2559
X10.2697Y-5.3559
X10.2697Y-5.4559
X10.2697Y-5.5559
X10.2697Y-5.6559
X10.2697Y-7.9091
X10.2697Y-8.0091
X10.2697Y-8.1091
X10.2697Y-8.2091
X10.2697Y-8.3091
X10.2697Y-8.4091
X10.2697Y-8.5091
X10.2709Y-6.1102
X10.2709Y-6.2102
X10.2709Y-6.3102
X10.2709Y-6.4102
X10.2709Y-6.5102
X10.2709Y-6.6102
X10.2709Y-6.7102
X10.2724Y-7.0121
X10.2724Y-7.1121
X10.2724Y-7.2121
X10.2724Y-7.3121
X10.2724Y-7.4121
X10.2724Y-7.5121
X10.2724Y-7.6121
X10.3362Y-3.5547
X10.374Y-2.6559
X10.4224Y-3.7051
X10.4224Y-3.8051
X10.4224Y-3.9051
X10.4224Y-4.0051
X10.4224Y-4.1051
X10.4224Y-4.2051
X10.4224Y-4.3051
X10.4248Y-2.8074
X10.4248Y-2.9074
X10.4248Y-3.0074
X10.4248Y-3.1074
X10.4248Y-3.2074
X10.4248Y-3.3074
X10.4248Y-3.4074
X10.5713Y-7.9102
X10.5713Y-8.0102
X10.5713Y-8.1102
X10.5713Y-8.2102
X10.5713Y-8.3102
X10.5713Y-8.4102
X10.5713Y-8.5102
X10.5717Y-7.0106
X10.5717Y-7.1106
X10.5717Y-7.2106
X10.5717Y-7.3106
X10.5717Y-7.4106
X10.5717Y-7.5106
X10.5717Y-7.6106
X10.5728Y-4.9563
X10.5728Y-5.0563
X10.5728Y-5.1563
X10.5728Y-5.2563
X10.5728Y-5.3563
X10.5728Y-5.4563
X10.5728Y-5.5563
X10.5728Y-5.6563
X10.5736Y-6.1074
X10.5736Y-6.2074
X10.5736Y-6.3074
X10.5736Y-6.4074
X10.5736Y-6.5074
X10.5736Y-6.6074
X10.5736Y-6.7074
X10.6197Y-5.8067
X10.6224Y-5.9606
X10.6244Y-4.7087
X10.6728Y-3.7066
X10.6728Y-3.8066
X10.6728Y-3.9066
X10.6728Y-4.0066
X10.6728Y-4.1066
X10.6728Y-4.2066
X10.6728Y-4.3066
X10.6752Y-2.8058
X10.6752Y-2.9058
X10.6752Y-3.0058
X10.6752Y-3.1058
X10.6752Y-3.2058
X10.6752Y-3.3058
X10.6752Y-3.4058
X10.7205Y-3.5575
X10.724Y-2.6539
X10.8197Y-5.8067
X10.8224Y-5.9606
X10.8244Y-4.7087
X10.8713Y-7.9102
X10.8713Y-8.0102
X10.8713Y-8.1102
X10.8713Y-8.2102
X10.8713Y-8.3102
X10.8713Y-8.4102
X10.8713Y-8.5102
X10.8717Y-7.0106
X10.8717Y-7.1106
X10.8717Y-7.2106
X10.8717Y-7.3106
X10.8717Y-7.4106
X10.8717Y-7.5106
X10.8717Y-7.6106
X10.8728Y-4.9563
X10.8728Y-5.0563
X10.8728Y-5.1563
X10.8728Y-5.2563
X10.8728Y-5.3563
X10.8728Y-5.4563
X10.8728Y-5.5563
X10.8728Y-5.6563
X10.8736Y-6.1074
X10.8736Y-6.2074
X10.8736Y-6.3074
X10.8736Y-6.4074
X10.8736Y-6.5074
X10.8736Y-6.6074
X10.8736Y-6.7074
X10.9205Y-3.5575
X10.924Y-2.6539
X10.9728Y-3.7066
X10.9728Y-3.8066
X10.9728Y-3.9066
X10.9728Y-4.0066
X10.9728Y-4.1066
X10.9728Y-4.2066
X10.9728Y-4.3066
X10.9752Y-2.8058
X10.9752Y-2.9058
X10.9752Y-3.0058
X10.9752Y-3.1058
X10.9752Y-3.2058
X10.9752Y-3.3058
X10.9752Y-3.4058
X11.1728Y-6.8602
X11.1728Y-7.0091
X11.1728Y-7.1091
X11.1728Y-7.2091
X11.1728Y-7.3091
X11.1728Y-7.4091
X11.1728Y-7.5091
X11.1728Y-7.6091
X11.1736Y-6.1074
X11.1736Y-6.2074
X11.1736Y-6.3074
X11.1736Y-6.4074
X11.1736Y-6.5074
X11.1736Y-6.6074
X11.1736Y-6.7074
X11.174Y-4.9579
X11.174Y-5.0579
X11.174Y-5.1579
X11.174Y-5.2579
X11.174Y-5.3579
X11.174Y-5.4579
X11.174Y-5.5579
X11.174Y-5.6579
X11.1752Y-7.911
X11.1752Y-8.011
X11.1752Y-8.111
X11.1752Y-8.211
X11.1752Y-8.311
X11.1752Y-8.411
X11.1752Y-8.511
X11.2151Y-2.3024
X11.2151Y-2.4524
X11.222Y-7.7587
X11.2224Y-5.8087
X11.224Y-4.7071
X11.2713Y-2.8075
X11.2713Y-2.9075
X11.2713Y-3.0075
X11.2713Y-3.1075
X11.2713Y-3.2075
X11.2713Y-3.3075
X11.2713Y-3.4075
X11.2756Y-3.7082
X11.2756Y-3.8082
X11.2756Y-3.9082
X11.2756Y-4.0082
X11.2756Y-4.1082
X11.2756Y-4.2082
X11.2756Y-4.3082
X11.2756Y-5.9571
X11.324Y-3.5591
X11.3272Y-2.6469
X11.3728Y-6.8602
X11.422Y-7.7587
X11.4224Y-5.8087
X11.424Y-4.7071
X11.4728Y-7.0091
X11.4728Y-7.1091
X11.4728Y-7.2091
X11.4728Y-7.3091
X11.4728Y-7.4091
X11.4728Y-7.5091
X11.4728Y-7.6091
X11.4736Y-6.1074
X11.4736Y-6.2074
X11.4736Y-6.3074
X11.4736Y-6.4074
X11.4736Y-6.5074
X11.4736Y-6.6074
X11.4736Y-6.7074
X11.474Y-4.9579
X11.474Y-5.0579
X11.474Y-5.1579
X11.474Y-5.2579
X11.474Y-5.3579
X11.474Y-5.4579
X11.474Y-5.5579
X11.474Y-5.6579
X11.4752Y-7.911
X11.4752Y-8.011
X11.4752Y-8.111
X11.4752Y-8.211
X11.4752Y-8.311
X11.4752Y-8.411
X11.4752Y-8.511
X11.4756Y-5.9571
X11.524Y-3.5591
X11.5272Y-2.6469
X11.5713Y-2.8075
X11.5713Y-2.9075
X11.5713Y-3.0075
X11.5713Y-3.1075
X11.5713Y-3.2075
X11.5713Y-3.3075
X11.5713Y-3.4075
X11.5756Y-3.7082
X11.5756Y-3.8082
X11.5756Y-3.9082
X11.5756Y-4.0082
X11.5756Y-4.1082
X11.5756Y-4.2082
X11.5756Y-4.3082
X11.7732Y-6.4094
X11.7732Y-6.5094
X11.7732Y-6.6094
X11.7732Y-6.7094
X11.7732Y-6.8094
X11.7732Y-6.9094
X11.7732Y-7.0094
X11.7732Y-7.1094
X11.7732Y-7.2094
X11.7732Y-7.3094
X11.776Y-5.1594
X11.776Y-5.2594
X11.776Y-5.3594
X11.776Y-5.4594
X11.776Y-5.5594
X11.776Y-5.6594
X11.776Y-5.7594
X11.776Y-5.8594
X11.8201Y-6.261
X11.8213Y-2.3051
X11.8256Y-3.5087
X11.8256Y-3.6087
X11.8256Y-3.7087
X11.8256Y-3.8087
X11.8256Y-3.9087
X11.8256Y-4.0087
X11.8256Y-4.1087
X11.8256Y-4.2087
X11.8256Y-4.3087
X11.8256Y-4.4087
X11.8256Y-6.0059
X11.826Y-5.0094
X11.8772Y-2.5067
X11.8772Y-2.6067
X11.8772Y-2.7067
X11.8772Y-2.8067
X11.8772Y-2.9067
X11.8772Y-3.0067
X11.8772Y-3.1067
X11.922Y-3.3091
X11.9244Y-7.8102
X11.9244Y-7.9102
X11.9244Y-8.0102
X11.9244Y-8.1102
X11.9244Y-8.2102
X11.9244Y-8.3102
X11.9244Y-8.4102
X11.9244Y-8.5102
X11.9756Y-7.6594
X12.0201Y-6.261
X12.0213Y-2.3051
X12.0256Y-6.0059
X12.026Y-5.0094
X12.0732Y-6.4094
X12.0732Y-6.5094
X12.0732Y-6.6094
X12.0732Y-6.7094
X12.0732Y-6.8094
X12.0732Y-6.9094
X12.0732Y-7.0094
X12.0732Y-7.1094
X12.0732Y-7.2094
X12.0732Y-7.3094
X12.076Y-5.1594
X12.076Y-5.2594
X12.076Y-5.3594
X12.076Y-5.4594
X12.076Y-5.5594
X12.076Y-5.6594
X12.076Y-5.7594
X12.076Y-5.8594
X12.1004Y-1.6917
X12.1004Y-2.0917
X12.122Y-3.3091
X12.1256Y-3.5087
X12.1256Y-3.6087
X12.1256Y-3.7087
X12.1256Y-3.8087
X12.1256Y-3.9087
X12.1256Y-4.0087
X12.1256Y-4.1087
X12.1256Y-4.2087
X12.1256Y-4.3087
X12.1256Y-4.4087
X12.1756Y-7.6594
X12.1772Y-2.5067
X12.1772Y-2.6067
X12.1772Y-2.7067
X12.1772Y-2.8067
X12.1772Y-2.9067
X12.1772Y-3.0067
X12.1772Y-3.1067
X12.2244Y-7.8102
X12.2244Y-7.9102
X12.2244Y-8.0102
X12.2244Y-8.1102
X12.2244Y-8.2102
X12.2244Y-8.3102
X12.2244Y-8.4102
X12.2244Y-8.5102
X12.3417Y-1.9512
X12.3417Y-2.3512
X12.3764Y-5.1587
X12.3764Y-5.2587
X12.3764Y-5.3587
X12.3764Y-5.4587
X12.3764Y-5.5587
X12.3764Y-5.6587
X12.3764Y-5.7587
X12.3764Y-5.8587
X12.4228Y-6.0091
X12.4264Y-5.011
X12.6228Y-6.0091
X12.6264Y-5.011
X12.6272Y-6.4094
X12.6272Y-6.5094
X12.6272Y-6.6094
X12.6272Y-6.7094
X12.6272Y-6.8094
X12.6272Y-6.9094
X12.6272Y-7.0094
X12.6272Y-7.1094
X12.6272Y-7.2094
X12.6272Y-7.3094
X12.628Y-7.6089
X12.628Y-7.7089
X12.628Y-7.8089
X12.628Y-7.9089
X12.628Y-8.0089
X12.628Y-8.1089
X12.628Y-8.2089
X12.628Y-8.3089
X12.628Y-8.4089
X12.628Y-8.5089
X12.665Y-6.2575
X12.6764Y-5.1587
X12.6764Y-5.2587
X12.6764Y-5.3587
X12.6764Y-5.4587
X12.6764Y-5.5587
X12.6764Y-5.6587
X12.6764Y-5.7587
X12.6764Y-5.8587
X12.6764Y-7.4618
X12.7724Y-2.5598
X12.8252Y-2.6543
X12.8252Y-2.7543
X12.8252Y-2.8543
X12.8252Y-2.9543
X12.8252Y-3.0543
X12.8252Y-3.1543
X12.8252Y-3.2543
X12.8252Y-3.3543
X12.8346Y-3.657
X12.8346Y-3.757
X12.8346Y-3.857
X12.8346Y-3.957
X12.8346Y-4.057
X12.8346Y-4.157
X12.8346Y-4.257
X12.865Y-6.2575
X12.8764Y-7.4618
X12.8846Y-3.5059
X12.9272Y-6.4094
X12.9272Y-6.5094
X12.9272Y-6.6094
X12.9272Y-6.7094
X12.9272Y-6.8094
X12.9272Y-6.9094
X12.9272Y-7.0094
X12.9272Y-7.1094
X12.9272Y-7.2094
X12.9272Y-7.3094
X12.928Y-7.6089
X12.928Y-7.7089
X12.928Y-7.8089
X12.928Y-7.9089
X12.928Y-8.0089
X12.928Y-8.1089
X12.928Y-8.2089
X12.928Y-8.3089
X12.928Y-8.4089
X12.928Y-8.5089
X12.9811Y-5.1626
X12.9811Y-5.2626
X12.9811Y-5.3626
X12.9811Y-5.4626
X12.9811Y-5.5626
X12.9811Y-5.6626
X12.9811Y-5.7626
X12.9811Y-5.8626
X13.0244Y-5.0071
X13.0283Y-6.0114
X13.0846Y-3.5059
X13.1248Y-8.2685
X13.1252Y-2.6543
X13.1252Y-2.7543
X13.1252Y-2.8543
X13.1252Y-2.9543
X13.1252Y-3.0543
X13.1252Y-3.1543
X13.1252Y-3.2543
X13.1252Y-3.3543
X13.1311Y-8.4197
X13.1311Y-8.5197
X13.1311Y-8.6197
X13.1311Y-8.7197
X13.1311Y-8.8197
X13.1311Y-8.9197
X13.1311Y-9.0197
X13.1346Y-3.657
X13.1346Y-3.757
X13.1346Y-3.857
X13.1346Y-3.957
X13.1346Y-4.057
X13.1346Y-4.157
X13.1346Y-4.257
X13.1724Y-2.5598
X13.2244Y-5.0071
X13.2283Y-6.0114
X13.2748Y-3.7043
X13.2748Y-3.8043
X13.2748Y-3.9043
X13.2748Y-4.0043
X13.2748Y-4.1043
X13.2748Y-4.2043
X13.2748Y-4.3043
X13.2748Y-4.4043
X13.2811Y-5.1626
X13.2811Y-5.2626
X13.2811Y-5.3626
X13.2811Y-5.4626
X13.2811Y-5.5626
X13.2811Y-5.6626
X13.2811Y-5.7626
X13.2811Y-5.8626
X13.3248Y-8.2685
X13.3484Y-3.0098
X13.3484Y-3.4098
X13.4311Y-8.4197
X13.4311Y-8.5197
X13.4311Y-8.6197
X13.4311Y-8.7197
X13.4311Y-8.8197
X13.4311Y-8.9197
X13.4311Y-9.0197
X13.4496Y-2.7075
X13.4496Y-3.1075
X13.5256Y-6.2591
X13.5307Y-6.4185
X13.5307Y-6.5185
X13.5307Y-6.6185
X13.5307Y-6.7185
X13.5307Y-6.8185
X13.5307Y-6.9185
X13.5307Y-7.0185
X13.5307Y-7.1185
X13.5307Y-7.2185
X13.5307Y-7.3185
X13.5748Y-3.7043
X13.5748Y-3.8043
X13.5748Y-3.9043
X13.5748Y-4.0043
X13.5748Y-4.1043
X13.5748Y-4.2043
X13.5748Y-4.3043
X13.5748Y-4.4043
X13.578Y-7.4677
X13.5791Y-5.1606
X13.5791Y-5.2606
X13.5791Y-5.3606
X13.5791Y-5.4606
X13.5791Y-5.5606
X13.5791Y-5.6606
X13.5791Y-5.7606
X13.5791Y-5.8606
X13.6244Y-3.3531
X13.6244Y-3.4516
X13.6264Y-7.6189
X13.6264Y-7.7189
X13.6264Y-7.8189
X13.6264Y-7.9189
X13.6264Y-8.0189
X13.6264Y-8.1189
X13.6264Y-8.2189
X13.6264Y-8.3189
X13.6264Y-8.4189
X13.6264Y-8.5189
X13.6272Y-5.0083
X13.6272Y-6.0059
X13.7256Y-6.2591
X13.7264Y-3.7059
X13.7264Y-3.8059
X13.7264Y-3.9059
X13.7264Y-4.0059
X13.7264Y-4.1059
X13.7264Y-4.2059
X13.7264Y-4.3059
X13.7264Y-4.4059
X13.7776Y-3.5764
X13.778Y-7.4677
X13.8272Y-5.0083
X13.8272Y-6.0059
X13.8307Y-6.4185
X13.8307Y-6.5185
X13.8307Y-6.6185
X13.8307Y-6.7185
X13.8307Y-6.8185
X13.8307Y-6.9185
X13.8307Y-7.0185
X13.8307Y-7.1185
X13.8307Y-7.2185
X13.8307Y-7.3185
X13.8791Y-5.1606
X13.8791Y-5.2606
X13.8791Y-5.3606
X13.8791Y-5.4606
X13.8791Y-5.5606
X13.8791Y-5.6606
X13.8791Y-5.7606
X13.8791Y-5.8606
X13.9264Y-7.6189
X13.9264Y-7.7189
X13.9264Y-7.8189
X13.9264Y-7.9189
X13.9264Y-8.0189
X13.9264Y-8.1189
X13.9264Y-8.2189
X13.9264Y-8.3189
X13.9264Y-8.4189
X13.9264Y-8.5189
X13.9776Y-3.5764
X14.0244Y-3.3531
X14.0244Y-3.4516
X14.0264Y-3.7059
X14.0264Y-3.8059
X14.0264Y-3.9059
X14.0264Y-4.0059
X14.0264Y-4.1059
X14.0264Y-4.2059
X14.0264Y-4.3059
X14.0264Y-4.4059
X14.076Y-5.0578
X14.076Y-5.1578
X14.076Y-5.2578
X14.076Y-5.3578
X14.076Y-5.4578
X14.076Y-5.5578
X14.076Y-5.6578
X14.0768Y-5.9091
X14.0768Y-6.0091
X14.0768Y-6.1091
X14.0768Y-6.2091
X14.0768Y-6.3091
X14.0768Y-6.4091
X14.0768Y-6.5091
X14.0791Y-7.8106
X14.0791Y-7.9106
X14.0791Y-8.0106
X14.0791Y-8.1106
X14.0791Y-8.2106
X14.0791Y-8.3106
X14.0791Y-8.4106
X14.0791Y-8.5106
X14.0799Y-6.811
X14.0799Y-6.911
X14.0799Y-7.011
X14.0799Y-7.111
X14.0799Y-7.211
X14.0799Y-7.311
X14.0799Y-7.411
X14.0799Y-7.511
X14.1248Y-6.6587
X14.1248Y-7.661
X14.1697Y-4.9102
X14.174Y-3.8098
X14.174Y-3.9098
X14.174Y-4.0098
X14.174Y-4.1098
X14.174Y-4.2098
X14.174Y-4.3098
X14.174Y-4.4098
X14.176Y-2.8051
X14.176Y-2.9051
X14.176Y-3.0051
X14.176Y-3.1051
X14.176Y-3.2051
X14.176Y-3.3051
X14.176Y-3.4051
X14.176Y-3.5051
X14.176Y-3.6051
X14.2777Y-2.2063
X14.2777Y-2.4063
X14.2783Y-2.6567
X14.3248Y-6.6587
X14.3248Y-7.661
X14.376Y-5.0578
X14.376Y-5.1578
X14.376Y-5.2578
X14.376Y-5.3578
X14.376Y-5.4578
X14.376Y-5.5578
X14.376Y-5.6578
X14.3768Y-5.9091
X14.3768Y-6.0091
X14.3768Y-6.1091
X14.3768Y-6.2091
X14.3768Y-6.3091
X14.3768Y-6.4091
X14.3768Y-6.5091
X14.3777Y-2.3063
X14.3791Y-7.8106
X14.3791Y-7.9106
X14.3791Y-8.0106
X14.3791Y-8.1106
X14.3791Y-8.2106
X14.3791Y-8.3106
X14.3791Y-8.4106
X14.3791Y-8.5106
X14.3799Y-6.811
X14.3799Y-6.911
X14.3799Y-7.011
X14.3799Y-7.111
X14.3799Y-7.211
X14.3799Y-7.311
X14.3799Y-7.411
X14.3799Y-7.511
X14.4346Y-2.4135
X14.474Y-3.8098
X14.474Y-3.9098
X14.474Y-4.0098
X14.474Y-4.1098
X14.474Y-4.2098
X14.474Y-4.3098
X14.474Y-4.4098
X14.476Y-2.8051
X14.476Y-2.9051
X14.476Y-3.0051
X14.476Y-3.1051
X14.476Y-3.2051
X14.476Y-3.3051
X14.476Y-3.4051
X14.476Y-3.5051
X14.476Y-3.6051
X14.4783Y-2.6567
X14.5346Y-2.5135
X14.5697Y-4.9102
X14.5807Y-3.9543
X14.5807Y-4.3543
X14.6346Y-2.4135
X14.7125Y-3.2807
X14.7125Y-3.4307
T4
X1.9098Y-7.6087
X1.9098Y-7.7087
X1.9098Y-7.8087
X2.0602Y-6.9035
X2.0602Y-7.0035
X2.0602Y-7.1035
X2.061Y-7.6087
X2.061Y-7.7087
X2.061Y-7.8087
X2.8091Y-6.6567
X2.9091Y-6.6567
X3.0091Y-6.6567
X3.1091Y-6.6567
X3.2091Y-6.6567
X3.3091Y-6.6567
X3.4091Y-6.6567
X3.5091Y-6.6567
X3.6091Y-6.6567
X3.7091Y-6.6567
X3.8091Y-6.6567
X3.9091Y-6.6567
X4.0091Y-6.6567
X4.1091Y-6.6567
X4.2091Y-6.6567
X4.3091Y-6.6567
X4.6652Y-2.5094
X4.7652Y-2.5094
X7.5563Y-4.202
X7.5563Y-4.302
X7.5563Y-4.402
X7.6563Y-4.202
X7.6563Y-4.302
X7.6563Y-4.402
X8.8453Y-3.7738
X8.8453Y-3.8738
X8.8453Y-3.9738
X9.1996Y-4.7041
X9.1996Y-4.8041
X9.1996Y-4.9041
X11.0874Y-4.1793
X11.0874Y-4.2793
X11.0874Y-4.3793
X11.4486Y-1.9465
X11.5486Y-1.9465
X11.6486Y-1.9465
X11.6756Y-3.1059
X11.6756Y-3.2059
X11.6756Y-3.3059
X11.6756Y-3.4059
X11.7756Y-3.1059
X11.7756Y-3.2059
X11.7756Y-3.3059
X11.7756Y-3.4059
X12.1886Y-1.662
X12.1886Y-1.762
X13.9726Y-4.9091
X14.0726Y-4.9091
X14.5283Y-5.5553
X14.5283Y-5.6553
X14.5283Y-5.7553
T5
X5.315Y-1.4504
X5.315Y-1.5504
X5.315Y-1.9539
X5.315Y-2.0539
X5.415Y-1.4504
X5.415Y-1.5504
X5.415Y-1.9539
X5.415Y-2.0539
X5.515Y-1.4504
X5.515Y-1.5504
X5.515Y-1.9539
X5.515Y-2.0539
X5.615Y-1.4504
X5.615Y-1.5504
X5.615Y-1.9539
X5.615Y-2.0539
X5.715Y-1.4504
X5.715Y-1.5504
X5.715Y-1.9539
X5.715Y-2.0539
X5.815Y-1.4504
X5.815Y-1.5504
X5.815Y-1.9539
X5.815Y-2.0539
X5.915Y-1.4504
X5.915Y-1.5504
X5.915Y-1.9539
X5.915Y-2.0539
X6.015Y-1.4504
X6.015Y-1.5504
X6.015Y-1.9539
X6.015Y-2.0539
X6.115Y-1.4504
X6.115Y-1.5504
X6.115Y-1.9539
X6.115Y-2.0539
X6.215Y-1.4504
X6.215Y-1.5504
X6.215Y-1.9539
X6.215Y-2.0539
X6.315Y-1.4504
X6.315Y-1.5504
X6.315Y-1.9539
X6.315Y-2.0539
X6.415Y-1.4504
X6.415Y-1.5504
X6.415Y-1.9539
X6.415Y-2.0539
X6.515Y-1.4504
X6.515Y-1.5504
X6.515Y-1.9539
X6.515Y-2.0539
X6.615Y-1.4504
X6.615Y-1.5504
X6.615Y-1.9539
X6.615Y-2.0539
X6.715Y-1.4504
X6.715Y-1.5504
X6.715Y-1.9539
X6.715Y-2.0539
X6.815Y-1.4504
X6.815Y-1.5504
X6.815Y-1.9539
X6.815Y-2.0539
X6.915Y-1.4504
X6.915Y-1.5504
X6.915Y-1.9539
X6.915Y-2.0539
X7.015Y-1.4504
X7.015Y-1.5504
X7.015Y-1.9539
X7.015Y-2.0539
X7.115Y-1.4504
X7.115Y-1.5504
X7.115Y-1.9539
X7.115Y-2.0539
X7.215Y-1.4504
X7.215Y-1.5504
X7.215Y-1.9539
X7.215Y-2.0539
X12.626Y-4.6122
X12.626Y-4.7122
X12.726Y-4.6122
X12.726Y-4.7122
X12.826Y-4.6122
X12.826Y-4.7122
X12.926Y-4.6122
X12.926Y-4.7122
X13.026Y-4.6122
X13.026Y-4.7122
X13.126Y-4.6122
X13.126Y-4.7122
X13.226Y-4.6122
X13.226Y-4.7122
X13.326Y-4.6122
X13.326Y-4.7122
X13.426Y-4.6122
X13.426Y-4.7122
X13.526Y-4.6122
X13.526Y-4.7122
X13.626Y-4.6122
X13.626Y-4.7122
X13.7239Y-2.6019
X13.7239Y-2.8019
X13.726Y-4.6122
X13.726Y-4.7122
X13.826Y-4.6122
X13.826Y-4.7122
X13.9239Y-2.8019
X13.926Y-4.6122
X13.926Y-4.7122
X14.026Y-4.6122
X14.026Y-4.7122
X14.126Y-4.6122
X14.126Y-4.7122
X14.226Y-4.6122
X14.226Y-4.7122
X14.326Y-4.6122
X14.326Y-4.7122
X14.426Y-4.6122
X14.426Y-4.7122
X14.526Y-4.6122
X14.526Y-4.7122
T6
X12.176Y-1.5098
X12.2331Y-1.8665
X12.2331Y-2.2106
X12.4193Y-3.0063
X12.5189Y-2.6047
X12.6193Y-3.0063
T7
X2.8644Y-1.6004
X3.3663Y-1.6004
T8
X3.7693Y-1.7486
X3.8677Y-1.847
X4.0646Y-1.7486
X4.0646Y-1.9455
X4.2614Y-1.847
X4.3598Y-1.7486
X8.9819Y-1.847
X9.0803Y-1.7486
X9.1787Y-1.847
X9.2772Y-1.7486
X9.3756Y-1.847
X9.474Y-1.7486
X9.5724Y-1.847
X9.7705Y-1.7484
X9.8689Y-1.8469
X10.0657Y-1.7484
X10.2626Y-1.8469
X10.361Y-1.7484
X10.5587Y-1.7484
X10.6571Y-1.8469
X10.8539Y-1.7484
X10.8543Y-1.9472
X11.0508Y-1.8469
X11.1492Y-1.7484
X11.3496Y-1.7484
X11.448Y-1.8469
X11.6449Y-1.7484
X11.8417Y-1.8469
X11.9402Y-1.7484
T9
X3.8677Y-1.3549
X3.9661Y-1.3549
X4.163Y-1.3549
X4.2614Y-1.3549
X9.0803Y-1.3549
X9.1787Y-1.3549
X9.3756Y-1.3549
X9.474Y-1.3549
X9.8689Y-1.3547
X9.9673Y-1.3547
X10.1642Y-1.3547
X10.2626Y-1.3547
X10.6571Y-1.3547
X10.7555Y-1.3547
X10.9524Y-1.3547
X11.0508Y-1.3547
X11.448Y-1.3547
X11.5465Y-1.3547
X11.7433Y-1.3547
X11.8417Y-1.3547
T10
X12.5799Y-1.8583
X14.0835Y-1.8665
T11
X1.8157Y-2.0492
X1.8157Y-4.1551
X1.8181Y-8.5264
X14.6315Y-2.0559
T0
M30
