%TF.GenerationSoftware,KiCad,Pcbnew,7.0.7*%
%TF.CreationDate,2023-11-21T20:32:34+00:00*%
%TF.ProjectId,lynx96,6c796e78-3936-42e6-9b69-6361645f7063,rev?*%
%TF.SameCoordinates,Original*%
%TF.FileFunction,Profile,NP*%
%FSLAX46Y46*%
G04 Gerber Fmt 4.6, Leading zero omitted, Abs format (unit mm)*
G04 Created by KiCad (PCBNEW 7.0.7) date 2023-11-21 20:32:34*
%MOMM*%
%LPD*%
G01*
G04 APERTURE LIST*
%TA.AperFunction,Profile*%
%ADD10C,0.100000*%
%TD*%
G04 APERTURE END LIST*
D10*
X40000000Y-223000000D02*
X52967226Y-223000000D01*
X52964703Y-44500000D02*
X40000000Y-44500000D01*
X363600000Y-235400000D02*
X363600000Y-224121390D01*
X363610000Y-32300000D02*
X54100000Y-32300000D01*
X116810000Y-52250000D02*
G75*
G03*
X116810000Y-52250000I-2135462J0D01*
G01*
X54102523Y-235400000D02*
X363600000Y-235400000D01*
X40000000Y-44500000D02*
X40000000Y-223000000D01*
X52964703Y-44500000D02*
G75*
G03*
X54100000Y-43364703I-3J1135300D01*
G01*
X364735297Y-222986093D02*
X377800000Y-222986093D01*
X190961198Y-37900000D02*
G75*
G03*
X190961198Y-37900000I-1711198J0D01*
G01*
X373835462Y-216220000D02*
G75*
G03*
X373835462Y-216220000I-2135462J0D01*
G01*
X364735297Y-222986100D02*
G75*
G03*
X363600000Y-224121390I3J-1135300D01*
G01*
X54100000Y-32300000D02*
X54100000Y-43364703D01*
X54102500Y-224135297D02*
G75*
G03*
X52967226Y-223000000I-1135300J-3D01*
G01*
X210990000Y-38500000D02*
G75*
G03*
X210990000Y-38500000I-2135462J0D01*
G01*
X130751198Y-37900000D02*
G75*
G03*
X130751198Y-37900000I-1711198J0D01*
G01*
X235235462Y-147800000D02*
G75*
G03*
X235235462Y-147800000I-2135462J0D01*
G01*
X54102523Y-224130000D02*
X54102523Y-235400000D01*
X363610000Y-43364703D02*
X363610000Y-32300000D01*
X377800000Y-44500000D02*
X364745297Y-44500000D01*
X363610000Y-43364703D02*
G75*
G03*
X364745297Y-44500000I1135300J3D01*
G01*
X377800000Y-222986093D02*
X377800000Y-44500000D01*
M02*
