M48
; DRILL file {KiCad 7.0.11} date Tue Jul 15 19:22:34 2025
; FORMAT={-:-/ absolute / inch / decimal}
; #@! TF.CreationDate,2025-07-15T19:22:34+01:00
; #@! TF.GenerationSoftware,Kicad,Pcbnew,7.0.11
; #@! TF.FileFunction,Plated,1,2,PTH
FMAT,2
INCH
; #@! TA.AperFunction,Plated,PTH,ComponentDrill
T1C0.0197
; #@! TA.AperFunction,Plated,PTH,ViaDrill
T2C0.0236
; #@! TA.AperFunction,Plated,PTH,ComponentDrill
T3C0.0276
; #@! TA.AperFunction,Plated,PTH,ComponentDrill
T4C0.0315
; #@! TA.AperFunction,Plated,PTH,ComponentDrill
T5C0.0394
; #@! TA.AperFunction,Plated,PTH,ComponentDrill
T6C0.0472
; #@! TA.AperFunction,Plated,PTH,ComponentDrill
T7C0.0512
; #@! TA.AperFunction,Plated,PTH,ComponentDrill
T8C0.0551
; #@! TA.AperFunction,Plated,PTH,ComponentDrill
T9C0.0610
; #@! TA.AperFunction,Plated,PTH,ComponentDrill
T10C0.0728
; #@! TA.AperFunction,Plated,PTH,ComponentDrill
T11C0.1063
; #@! TA.AperFunction,Plated,PTH,ComponentDrill
T12C0.1181
; #@! TA.AperFunction,Plated,PTH,ComponentDrill
T13C0.1575
%
G90
G05
T1
X14.4146Y-2.4209
T2
X1.8862Y-7.9496
X1.9594Y-5.5783
X2.0035Y-8.678
X2.0071Y-6.6031
X2.0122Y-5.6264
X2.0602Y-7.5524
X2.0732Y-8.6787
X2.1335Y-8.2
X2.1724Y-8.9276
X2.1823Y-8.8264
X2.1846Y-7.8252
X2.2063Y-8.4524
X2.248Y-8.9264
X2.324Y-8.9256
X2.3331Y-6.6067
X2.3622Y-5.1559
X2.3823Y-6.5543
X2.387Y-4.0299
X2.3969Y-8.9272
X2.4386Y-4.1043
X2.4622Y-7.2992
X2.4752Y-8.9264
X2.5378Y-6.0496
X2.5382Y-5.6504
X2.5394Y-5.7516
X2.5394Y-5.8508
X2.5406Y-5.5512
X2.5409Y-5.9504
X2.55Y-8.9264
X2.5587Y-8.502
X2.5634Y-6.2492
X2.6146Y-6.2008
X2.6252Y-8.9287
X2.6618Y-5.3031
X2.6756Y-8.8791
X2.7339Y-8.5047
X2.7661Y-2.476
X2.8Y-8.878
X2.8091Y-7.9028
X2.8126Y-7.2524
X2.8142Y-6.4748
X2.8374Y-7.4512
X2.8508Y-9.0295
X2.874Y-8.8079
X2.8823Y-8.6028
X2.915Y-4.0811
X2.9524Y-9.0303
X2.961Y-6.926
X2.9791Y-8.8047
X3.0035Y-7.8047
X3.013Y-5.8008
X3.0138Y-6.2028
X3.0157Y-6.0047
X3.022Y-5.6028
X3.037Y-7.5508
X3.0512Y-8.8071
X3.0587Y-7.6787
X3.0642Y-7.0012
X3.0768Y-7.8311
X3.1035Y-9.0291
X3.1098Y-8.3524
X3.1409Y-6.0012
X3.1598Y-8.4535
X3.1657Y-6.252
X3.1657Y-6.3756
X3.1862Y-5.7063
X3.2114Y-6.3067
X3.265Y-5.1807
X3.2661Y-4.1315
X3.321Y-5.5061
X3.3232Y-9.0071
X3.3587Y-6.2835
X3.361Y-7.4524
X3.3673Y-5.9516
X3.387Y-7.8295
X3.4531Y-8.5587
X3.4772Y-8.8823
X3.5528Y-8.8811
X3.5587Y-6.4823
X3.5602Y-8.1543
X3.5886Y-5.3327
X3.5886Y-6.876
X3.6146Y-5.9043
X3.6366Y-6.2559
X3.6378Y-7.3028
X3.6394Y-5.2819
X3.6516Y-8.5571
X3.6531Y-7.7843
X3.687Y-7.3535
X3.6917Y-5.5035
X3.6929Y-4.1272
X3.7098Y-6.9606
X3.7138Y-5.1823
X3.7276Y-8.0079
X3.7287Y-9.0319
X3.7323Y-6.1075
X3.7394Y-5.576
X3.7406Y-6.3035
X3.7567Y-6.2346
X3.7602Y-8.5539
X3.765Y-5.5028
X3.7772Y-8.7094
X3.7776Y-8.9827
X3.7791Y-7.9339
X3.785Y-6.5075
X3.8102Y-8.3043
X3.8169Y-6.3276
X3.8189Y-2.4803
X3.8213Y-2.3559
X3.8524Y-9.0094
X3.8618Y-6.2343
X3.8949Y-2.3559
X3.9055Y-7.7362
X3.9118Y-6.2835
X3.9693Y-2.3567
X3.987Y-6.3272
X4.0457Y-2.3811
X4.0866Y-6.8591
X4.087Y-5.2059
X4.0886Y-5.9524
X4.0894Y-6.4051
X4.1047Y-8.8075
X4.1154Y-5.6031
X4.1165Y-4.1295
X4.1169Y-2.702
X4.1217Y-2.4075
X4.1283Y-7.6598
X4.1445Y-3.3508
X4.1594Y-8.4567
X4.1748Y-8.8079
X4.1933Y-3.7039
X4.1941Y-2.4331
X4.1945Y-3.6028
X4.1949Y-5.3799
X4.2039Y-7.8339
X4.2528Y-8.8079
X4.2689Y-2.4331
X4.2854Y-5.9571
X4.2913Y-5.0776
X4.2937Y-2.8067
X4.3118Y-8.2043
X4.313Y-5.3583
X4.3299Y-8.0594
X4.3394Y-6.128
X4.3453Y-2.4339
X4.3575Y-7.7346
X4.3835Y-7.4843
X4.4563Y-7.6866
X4.4583Y-7.5587
X4.4606Y-6.4827
X4.5043Y-8.8606
X4.5142Y-5.2083
X4.5165Y-4.1343
X4.5445Y-2.5091
X4.5551Y-8.6787
X4.6091Y-7.1094
X4.613Y-6.4323
X4.6142Y-6.9043
X4.6157Y-3.985
X4.6161Y-3.6512
X4.6181Y-3.726
X4.6181Y-4.0831
X4.6366Y-5.3772
X4.6394Y-7.5575
X4.6543Y-8.8087
X4.661Y-8.0039
X4.6689Y-3.5303
X4.6807Y-7.7622
X4.6862Y-7.9047
X4.6945Y-3.4563
X4.7197Y-3.9791
X4.7224Y-2.0567
X4.7256Y-2.1315
X4.7528Y-8.7854
X4.7634Y-7.3787
X4.7638Y-5.3583
X4.7697Y-3.3035
X4.7709Y-3.2031
X4.7972Y-2.1323
X4.8295Y-7.7866
X4.8421Y-5.7287
X4.8425Y-5.9772
X4.861Y-6.437
X4.8638Y-7.9539
X4.8894Y-5.3843
X4.8898Y-4.0575
X4.8902Y-7.0543
X4.8921Y-5.8535
X4.8937Y-6.1283
X4.915Y-6.9799
X4.9374Y-7.3563
X4.9417Y-5.6795
X4.965Y-6.4547
X4.9685Y-4.1323
X4.9697Y-3.9067
X4.9709Y-2.5535
X5.0114Y-6.8606
X5.0118Y-7.6791
X5.0134Y-7.2547
X5.0173Y-5.1795
X5.0303Y-8.9622
X5.0441Y-4.0591
X5.0598Y-7.5118
X5.0878Y-6.4331
X5.1028Y-8.989
X5.1197Y-3.9083
X5.1539Y-8.7378
X5.1709Y-2.1063
X5.1724Y-2.6087
X5.1807Y-8.989
X5.1823Y-7.8118
X5.2319Y-7.963
X5.237Y-8.2551
X5.2437Y-2.7543
X5.2437Y-3.1295
X5.2465Y-3.6531
X5.2657Y-6.1055
X5.2953Y-3.4551
X5.3091Y-7.513
X5.3106Y-6.4606
X5.3441Y-4.2331
X5.3453Y-3.3035
X5.3567Y-8.9354
X5.3571Y-7.3886
X5.3693Y-4.5539
X5.3894Y-5.263
X5.3894Y-7.5311
X5.3961Y-3.3528
X5.3965Y-2.9276
X5.3969Y-3.2035
X5.4091Y-7.8382
X5.4189Y-4.7583
X5.4205Y-4.1059
X5.4295Y-8.9378
X5.4307Y-8.1882
X5.4445Y-5.4543
X5.4472Y-2.5303
X5.4598Y-8.5043
X5.463Y-8.6055
X5.4638Y-5.263
X5.4661Y-5.5795
X5.4665Y-4.5602
X5.4669Y-5.0531
X5.4681Y-5.6539
X5.4693Y-4.4543
X5.5031Y-8.9122
X5.5118Y-8.1791
X5.5622Y-8.1319
X5.5693Y-4.8563
X5.5783Y-8.9118
X5.5882Y-8.0307
X5.635Y-7.9063
X5.6366Y-7.3614
X5.6398Y-6.9567
X5.6402Y-7.0807
X5.6547Y-8.9134
X5.6602Y-6.1114
X5.6638Y-7.6567
X5.6657Y-7.2555
X5.6661Y-5.0051
X5.6665Y-5.2882
X5.6941Y-2.6055
X5.7303Y-8.8866
X5.7358Y-6.3862
X5.737Y-6.5106
X5.7543Y-8.7634
X5.7598Y-7.6886
X5.7622Y-7.3575
X5.8063Y-8.6075
X5.8071Y-8.8614
X5.8205Y-3.7594
X5.8563Y-8.6874
X5.863Y-8.8098
X5.8677Y-3.6555
X5.8689Y-5.5555
X5.8961Y-2.8287
X5.911Y-8.5303
X5.9114Y-8.4075
X5.9118Y-6.7059
X5.9185Y-3.7823
X5.9185Y-4.8055
X5.9224Y-3.7039
X5.9307Y-8.7894
X5.9343Y-7.6094
X5.9677Y-4.5114
X5.9882Y-6.4354
X6.0047Y-8.7626
X6.0193Y-4.8051
X6.0205Y-3.2051
X6.0461Y-3.0815
X6.0472Y-3.0059
X6.0701Y-2.4614
X6.0713Y-2.8547
X6.072Y-2.5362
X6.072Y-2.6118
X6.0906Y-5.9559
X6.1059Y-8.8126
X6.1146Y-7.4815
X6.115Y-6.9583
X6.1378Y-7.085
X6.1382Y-6.4638
X6.165Y-6.0874
X6.1657Y-7.1815
X6.1661Y-5.6559
X6.1815Y-8.7874
X6.1874Y-6.4118
X6.1874Y-7.9555
X6.1937Y-5.4882
X6.1949Y-5.7339
X6.1949Y-5.8051
X6.215Y-6.485
X6.2185Y-5.4146
X6.2193Y-6.7555
X6.2402Y-6.928
X6.2626Y-7.9571
X6.263Y-7.4622
X6.265Y-7.7327
X6.2953Y-3.5807
X6.2961Y-3.5071
X6.2961Y-4.9811
X6.298Y-3.6535
X6.2984Y-2.9055
X6.3126Y-7.1579
X6.3161Y-6.8555
X6.3177Y-5.1795
X6.3217Y-4.3051
X6.3327Y-8.739
X6.3362Y-6.4846
X6.3433Y-5.0878
X6.3587Y-7.4114
X6.3709Y-2.6559
X6.3728Y-2.5606
X6.3933Y-4.2067
X6.3972Y-2.4614
X6.4142Y-6.4654
X6.4461Y-4.1055
X6.4709Y-4.0055
X6.4709Y-4.9579
X6.4744Y-2.4618
X6.4941Y-4.8563
X6.4976Y-3.9063
X6.5118Y-8.0059
X6.5209Y-4.7567
X6.5224Y-3.8043
X6.524Y-2.411
X6.5398Y-7.5831
X6.5429Y-5.5563
X6.5469Y-4.6563
X6.5488Y-3.7043
X6.5642Y-8.5094
X6.5697Y-5.0567
X6.5709Y-3.6051
X6.572Y-4.5567
X6.5728Y-2.4614
X6.5929Y-6.3846
X6.5965Y-4.4563
X6.6138Y-7.7835
X6.622Y-4.3563
X6.6236Y-2.4134
X6.6685Y-4.463
X6.6705Y-3.2559
X6.672Y-2.4642
X6.7142Y-6.2886
X6.7193Y-5.3386
X6.7201Y-6.0063
X6.7252Y-2.4122
X6.7354Y-7.6142
X6.7382Y-7.9071
X6.7413Y-6.5583
X6.7657Y-5.5587
X6.7724Y-2.4626
X6.7878Y-7.3886
X6.7902Y-6.6051
X6.7909Y-6.9079
X6.7913Y-6.7075
X6.7961Y-5.6579
X6.8138Y-6.7906
X6.8232Y-2.411
X6.8394Y-6.6559
X6.8441Y-3.0571
X6.872Y-2.4642
X6.889Y-8.5346
X6.8961Y-4.3079
X6.8988Y-1.4551
X6.9091Y-8.739
X6.9209Y-2.9811
X6.9217Y-2.8063
X6.9358Y-7.9402
X6.9425Y-5.2886
X6.9461Y-2.6602
X6.963Y-6.8587
X6.9638Y-5.4039
X6.9673Y-5.1634
X6.9913Y-6.2579
X6.9941Y-3.5843
X6.9949Y-3.6634
X7.0118Y-7.3913
X7.0157Y-6.5386
X7.0177Y-6.6067
X7.0433Y-5.0071
X7.0453Y-2.4079
X7.0476Y-3.5339
X7.0583Y-8.6925
X7.1181Y-4.8071
X7.1209Y-5.0811
X7.1425Y-5.2819
X7.1626Y-7.6146
X7.1882Y-6.5122
X7.1929Y-6.6063
X7.2197Y-5.1591
X7.2634Y-7.6917
X7.2945Y-3.7331
X7.2953Y-5.3579
X7.2969Y-3.9323
X7.2976Y-3.8075
X7.2988Y-2.4126
X7.3185Y-5.037
X7.3205Y-6.1307
X7.3402Y-6.6134
X7.3685Y-6.7591
X7.3701Y-3.9335
X7.372Y-5.9071
X7.3917Y-7.9075
X7.3961Y-5.4839
X7.4201Y-5.385
X7.422Y-3.6323
X7.4394Y-8.2083
X7.4445Y-5.8331
X7.4469Y-2.6594
X7.4476Y-3.1587
X7.4614Y-7.6181
X7.4685Y-6.0071
X7.4701Y-5.6591
X7.4705Y-6.0839
X7.4709Y-4.4063
X7.4736Y-2.7575
X7.4961Y-4.8583
X7.5189Y-4.935
X7.5205Y-5.6094
X7.5228Y-3.0575
X7.5244Y-2.9083
X7.5378Y-7.4173
X7.5441Y-5.7331
X7.5457Y-4.5575
X7.5484Y-3.3079
X7.5654Y-8.2598
X7.5689Y-6.6571
X7.5693Y-6.3346
X7.5709Y-4.2091
X7.5894Y-6.5402
X7.6134Y-8.4591
X7.6185Y-5.3575
X7.6228Y-3.8075
X7.6669Y-6.5402
X7.6709Y-4.9339
X7.7472Y-5.1425
X7.7492Y-1.6339
X7.7626Y-7.6075
X7.7677Y-6.3921
X7.8161Y-8.1098
X7.8224Y-5.1122
X7.8252Y-4.2079
X7.8264Y-2.563
X7.85Y-3.6075
X7.8898Y-7.5862
X7.9189Y-5.6169
X7.9197Y-6.2583
X7.9461Y-5.1154
X7.9504Y-4.0354
X7.9654Y-6.3181
X7.9756Y-3.5327
X7.9772Y-3.7346
X7.9961Y-6.5075
X7.9972Y-5.2606
X7.998Y-4.8598
X8.0063Y-2.1091
X8.0098Y-8.9917
X8.0138Y-7.7437
X8.0201Y-6.0079
X8.0205Y-5.3413
X8.0205Y-6.7594
X8.0224Y-4.6583
X8.0244Y-4.3583
X8.0287Y-2.8075
X8.0421Y-6.1921
X8.0429Y-7.6118
X8.0575Y-2.1583
X8.0618Y-8.3673
X8.0705Y-5.7921
X8.0736Y-4.8614
X8.076Y-3.6831
X8.1213Y-5.3094
X8.1224Y-4.9843
X8.1295Y-2.9323
X8.1307Y-2.0594
X8.1417Y-7.9594
X8.1433Y-6.2906
X8.1437Y-6.3587
X8.1535Y-3.0583
X8.163Y-7.8406
X8.1724Y-4.8098
X8.1799Y-2.2083
X8.1902Y-8.2118
X8.1909Y-8.1106
X8.1917Y-7.0587
X8.1925Y-6.035
X8.1945Y-6.1862
X8.2161Y-6.7634
X8.2193Y-6.6091
X8.2283Y-2.3087
X8.2398Y-7.4165
X8.2421Y-7.2102
X8.2437Y-6.2854
X8.265Y-6.389
X8.2693Y-5.4165
X8.2693Y-6.4827
X8.2776Y-3.0079
X8.2917Y-7.2606
X8.2933Y-6.785
X8.2957Y-5.8098
X8.3031Y-3.2339
X8.3122Y-8.0639
X8.3165Y-7.7854
X8.324Y-4.3591
X8.326Y-3.3835
X8.3461Y-5.7094
X8.3783Y-2.7087
X8.3965Y-4.7937
X8.448Y-3.4161
X8.4677Y-6.5094
X8.4945Y-5.5118
X8.5169Y-7.8606
X8.5177Y-8.3122
X8.5181Y-7.5634
X8.5756Y-4.411
X8.7165Y-6.6201
X8.7165Y-6.8441
X8.7181Y-7.263
X8.7189Y-7.663
X8.722Y-5.7126
X8.7252Y-5.8602
X8.7693Y-6.6598
X8.7701Y-7.0142
X8.772Y-5.5374
X8.7791Y-3.3366
X8.7913Y-6.2433
X8.7917Y-8.2126
X8.798Y-3.5157
X8.8004Y-3.861
X8.8177Y-6.0677
X8.8264Y-4.2358
X8.8413Y-8.5606
X8.8669Y-7.537
X8.8728Y-5.4626
X8.8752Y-3.7602
X8.8772Y-3.011
X8.8933Y-8.5118
X8.9039Y-3.2929
X8.9197Y-9.0126
X8.9213Y-6.7937
X8.9217Y-5.0362
X8.9256Y-4.111
X8.928Y-3.5106
X8.9409Y-7.8858
X8.9528Y-3.3398
X8.9669Y-8.1646
X8.9697Y-7.4197
X8.9776Y-3.1126
X8.9953Y-9.0378
X8.9972Y-5.413
X9.0Y-3.9626
X9.0173Y-8.4638
X9.0457Y-5.6374
X9.1185Y-8.885
X9.1445Y-7.2386
X9.1539Y-2.9598
X9.1693Y-7.8118
X9.1768Y-3.4618
X9.1799Y-2.5886
X9.1807Y-2.3902
X9.1929Y-8.8606
X9.1933Y-8.9634
X9.2047Y-2.8618
X9.2209Y-6.5626
X9.2209Y-7.3146
X9.222Y-5.6677
X9.2453Y-7.7382
X9.2677Y-8.9898
X9.2701Y-8.8354
X9.2811Y-2.4362
X9.2953Y-7.4917
X9.3043Y-3.613
X9.3169Y-8.0642
X9.3311Y-2.3378
X9.3429Y-9.0134
X9.3461Y-8.8217
X9.3469Y-7.6638
X9.3472Y-6.089
X9.374Y-4.8681
X9.3811Y-2.2898
X9.4173Y-8.7949
X9.4303Y-3.0638
X9.4701Y-7.4118
X9.4976Y-7.1697
X9.5Y-5.0878
X9.5181Y-8.6957
X9.5217Y-4.9945
X9.522Y-5.6646
X9.5465Y-6.0701
X9.5492Y-4.8886
X9.5689Y-8.7366
X9.5957Y-5.8626
X9.5961Y-8.1642
X9.5996Y-5.0134
X9.602Y-3.8654
X9.6185Y-6.4634
X9.6232Y-5.7445
X9.6244Y-4.889
X9.6248Y-4.313
X9.6425Y-8.7453
X9.6441Y-7.0213
X9.6469Y-6.8638
X9.6484Y-5.9898
X9.6512Y-3.7878
X9.6791Y-3.5937
X9.7165Y-8.7433
X9.7177Y-7.6154
X9.772Y-6.1177
X9.7732Y-5.2634
X9.7748Y-3.9654
X9.7917Y-8.7437
X9.8205Y-6.365
X9.8205Y-7.3421
X9.8236Y-6.0654
X9.8256Y-4.8173
X9.8555Y-3.0634
X9.8689Y-8.3413
X9.8929Y-7.7138
X9.8969Y-7.4177
X9.8988Y-4.913
X9.9047Y-3.3398
X9.924Y-3.5142
X9.9524Y-3.1138
X9.9953Y-7.6413
X10.0193Y-7.5398
X10.0484Y-5.7382
X10.0484Y-5.8646
X10.0496Y-5.215
X10.0744Y-5.9902
X10.098Y-6.7654
X10.1248Y-6.1906
X10.1476Y-7.8642
X10.1484Y-6.4138
X10.1701Y-7.1634
X10.1929Y-7.2717
X10.1953Y-6.8906
X10.1969Y-5.8457
X10.1976Y-5.7386
X10.2008Y-4.3654
X10.2028Y-4.0146
X10.2236Y-6.1689
X10.2453Y-7.8146
X10.2472Y-5.7925
X10.2484Y-6.0673
X10.252Y-4.0661
X10.2713Y-7.0654
X10.2736Y-6.4394
X10.3201Y-7.2657
X10.3496Y-4.7661
X10.3524Y-3.7642
X10.4039Y-3.8138
X10.4232Y-4.989
X10.4295Y-3.9154
X10.4555Y-3.3165
X10.4992Y-5.8417
X10.5209Y-7.1898
X10.6728Y-7.1165
X10.7063Y-3.4425
X10.7236Y-7.5669
X10.7441Y-8.6173
X10.7736Y-7.1654
X10.774Y-6.6409
X10.7953Y-7.9161
X10.7976Y-8.1673
X10.7992Y-6.4433
X10.8083Y-3.3933
X10.8201Y-8.2673
X10.8244Y-7.2177
X10.8449Y-8.3681
X10.8457Y-7.8173
X10.8469Y-6.8681
X10.8472Y-6.3429
X10.8472Y-8.0685
X10.8488Y-6.9906
X10.8492Y-6.5413
X10.8744Y-6.2425
X10.8953Y-8.9417
X10.9732Y-6.3906
X10.9744Y-5.5421
X11.0311Y-3.6154
X11.0724Y-5.7953
X11.0957Y-7.8689
X11.0996Y-6.2961
X11.1043Y-3.615
X11.1547Y-3.8929
X11.1783Y-3.5669
X11.2248Y-6.4925
X11.2252Y-5.065
X11.2472Y-7.8008
X11.274Y-5.2445
X11.2988Y-6.272
X11.2992Y-6.4665
X11.3047Y-3.0173
X11.3437Y-8.9469
X11.3524Y-4.0449
X11.5563Y-3.0697
X11.5709Y-7.8157
X11.5984Y-5.9933
X11.648Y-5.2937
X11.6484Y-5.3941
X11.6701Y-6.2984
X11.7921Y-8.9472
X11.8283Y-4.2972
X11.85Y-5.9941
X11.948Y-6.4441
X11.9976Y-7.8177
X12.0567Y-3.1701
X12.0705Y-7.7744
X12.0787Y-2.7713
X12.0823Y-3.5972
X12.1031Y-3.7433
X12.1303Y-4.2965
X12.1492Y-6.3461
X12.1579Y-3.1717
X12.1992Y-6.1449
X12.2Y-6.3921
X12.2047Y-3.8945
X12.2421Y-8.9488
X12.2496Y-6.2949
X12.25Y-6.0941
X12.2764Y-5.9453
X12.302Y-5.8437
X12.3744Y-6.1965
X12.4004Y-5.0941
X12.4461Y-7.8685
X12.4516Y-4.2449
X12.528Y-4.8941
X12.6008Y-5.4949
X12.6504Y-6.2465
X12.6933Y-8.9504
X12.7602Y-2.9677
X12.8272Y-5.5949
X12.8307Y-3.022
X12.8972Y-8.0197
X12.9217Y-7.7744
X12.9264Y-5.9965
X12.9516Y-4.7965
X12.9791Y-3.6705
X12.9823Y-2.9189
X13.1453Y-8.9516
X13.202Y-5.1689
X13.3063Y-3.8484
X13.3496Y-7.8709
X13.3583Y-3.8949
X13.4276Y-5.6476
X13.5976Y-8.9508
X13.6516Y-6.0472
X13.6992Y-6.1984
X13.7051Y-4.5224
X13.7807Y-3.9748
X13.7827Y-4.1972
X13.7992Y-7.8709
X13.9343Y-3.9004
X13.9819Y-4.6484
X14.0047Y-6.3476
X14.0071Y-4.5476
X14.0488Y-8.9516
X14.2429Y-5.3016
X14.2512Y-7.7984
X14.2547Y-5.898
X14.2563Y-4.4484
X14.278Y-5.0488
X14.278Y-5.7984
X14.4339Y-4.0248
X14.4791Y-4.7992
X14.502Y-6.3976
T3
X1.7642Y-5.4311
X1.7642Y-5.8311
X1.7878Y-6.8043
X1.7878Y-7.2043
X1.8642Y-5.4311
X1.8642Y-5.8311
X1.9642Y-5.4311
X1.9642Y-5.8311
X2.4622Y-7.0024
X2.4622Y-7.4024
X3.5402Y-1.6571
X3.5402Y-2.0571
X4.913Y-8.0319
X4.913Y-8.4319
X5.9217Y-4.7063
X5.9217Y-5.1063
X6.0213Y-4.7063
X6.0213Y-5.1063
X6.1677Y-6.3079
X6.1677Y-6.7079
X6.1677Y-6.8567
X6.1677Y-7.2567
X6.1697Y-5.1551
X6.1697Y-5.2551
X6.5697Y-5.1551
X6.5697Y-5.2551
X6.7217Y-5.1551
X6.8461Y-4.1094
X6.8461Y-4.5094
X6.8461Y-4.637
X6.8461Y-5.037
X6.9197Y-2.9071
X6.9197Y-3.3071
X7.1217Y-5.1551
X8.0713Y-5.463
X8.0713Y-5.863
X8.3028Y-2.1854
X8.3028Y-2.5854
X8.3476Y-3.4591
X8.7071Y-2.6618
X8.7071Y-3.0618
X8.7476Y-3.4591
X8.7815Y-3.1618
X8.7815Y-3.2618
X8.8028Y-3.6114
X8.8028Y-4.0114
X8.8071Y-2.6618
X8.8071Y-3.0618
X8.8984Y-4.4669
X8.8984Y-4.8669
X8.9071Y-2.4406
X8.9071Y-2.8406
X9.0591Y-2.4406
X9.1815Y-3.1618
X9.1815Y-3.2618
X9.4591Y-2.4406
X9.4945Y-6.289
X9.4945Y-6.689
X9.6272Y-4.8177
X9.6272Y-5.2177
X9.7559Y-2.7161
X9.7575Y-2.8646
X9.7575Y-3.2646
X9.8575Y-2.8646
X9.8575Y-3.2646
X9.9575Y-2.8646
X9.9575Y-3.2646
X10.0575Y-2.8646
X10.0575Y-3.2646
X10.1457Y-6.2657
X10.1457Y-6.6657
X10.1488Y-7.7165
X10.1488Y-8.1165
X10.1488Y-8.2157
X10.1488Y-8.6157
X10.1531Y-2.1638
X10.1531Y-2.5638
X10.1559Y-2.7161
X10.1575Y-2.8646
X10.1575Y-3.2646
X10.2531Y-2.1638
X10.2531Y-2.5638
X10.2531Y-4.8173
X10.2531Y-5.2173
X10.2575Y-3.1169
X10.2575Y-3.5169
X10.3531Y-2.1638
X10.3531Y-2.5638
X10.3575Y-3.1169
X10.3575Y-3.5169
X10.4531Y-2.1638
X10.4531Y-2.5638
X10.4575Y-3.1169
X10.4575Y-3.5169
X10.5531Y-2.1638
X10.5531Y-2.5638
X10.5575Y-3.1169
X10.5575Y-3.5169
X10.6531Y-2.1638
X10.6531Y-2.5638
X10.6575Y-3.1169
X10.6575Y-3.5169
X10.7531Y-2.1638
X10.7531Y-2.5638
X10.7575Y-3.1169
X10.7575Y-3.5169
X10.8531Y-2.1638
X10.8531Y-2.5638
X10.8575Y-3.1169
X10.8575Y-3.5169
X10.9287Y-3.8177
X10.9295Y-4.1177
X10.9295Y-4.5177
X11.0035Y-3.1165
X11.0094Y-2.1638
X11.0094Y-2.5638
X11.0315Y-3.3177
X11.0315Y-3.7177
X11.1094Y-2.1638
X11.1094Y-2.5638
X11.2602Y-2.1638
X11.2602Y-2.5638
X11.3287Y-3.8177
X11.3598Y-2.1638
X11.3598Y-2.5638
X11.4035Y-3.1165
X11.4598Y-2.1634
X11.4598Y-2.5634
X11.5606Y-2.1638
X11.5606Y-2.5638
X11.6606Y-2.1638
X11.6606Y-2.5638
X11.7606Y-2.1638
X11.7606Y-2.5638
X11.8602Y-2.1638
X11.8602Y-2.5638
X11.9051Y-3.6957
X11.9051Y-4.0957
X11.9606Y-2.1638
X11.9606Y-2.5638
X12.0606Y-2.5953
X12.0606Y-2.9953
X12.161Y-2.4689
X12.161Y-2.8689
X12.2606Y-2.6713
X12.2606Y-2.7713
X12.2606Y-2.8689
X12.5583Y-2.9689
X12.5583Y-3.3689
X12.6583Y-2.9689
X12.6583Y-3.3689
X12.6606Y-2.6713
X12.6606Y-2.7713
X12.6606Y-2.8689
X12.8559Y-3.8689
X12.8559Y-4.2689
X13.3866Y-2.6732
X13.3866Y-3.0732
X13.3866Y-3.1732
X13.3866Y-3.5732
X14.5106Y-3.724
X14.5106Y-4.124
T4
X1.765Y-4.8012
X1.765Y-5.0012
X1.8094Y-7.3535
X1.8094Y-7.5535
X1.9598Y-7.9992
X1.9598Y-8.0992
X1.9598Y-8.1992
X1.9598Y-8.2992
X1.9598Y-8.3992
X1.9598Y-8.4992
X1.9598Y-8.5992
X1.961Y-7.052
X1.961Y-7.152
X1.961Y-7.252
X1.961Y-7.352
X1.961Y-7.452
X1.961Y-7.552
X1.961Y-7.652
X2.0378Y-6.8024
X2.0386Y-4.2976
X2.0386Y-4.3976
X2.0386Y-4.4976
X2.0386Y-4.5976
X2.0386Y-4.6976
X2.0386Y-4.7976
X2.0386Y-4.8976
X2.0386Y-4.9976
X2.0874Y-5.2035
X2.113Y-5.7745
X2.1157Y-2.5504
X2.1157Y-2.6504
X2.1157Y-2.7504
X2.1157Y-2.8504
X2.1157Y-2.9504
X2.1157Y-3.0504
X2.1157Y-3.1504
X2.1157Y-3.2504
X2.1157Y-3.3504
X2.1157Y-3.4504
X2.1157Y-3.5504
X2.1157Y-3.6504
X2.1157Y-3.7504
X2.1157Y-3.8504
X2.213Y-5.8745
X2.2142Y-5.4315
X2.2378Y-6.8024
X2.2598Y-7.9992
X2.2598Y-8.0992
X2.2598Y-8.1992
X2.2598Y-8.2992
X2.2598Y-8.3992
X2.2598Y-8.4992
X2.2598Y-8.5992
X2.261Y-7.052
X2.261Y-7.152
X2.261Y-7.252
X2.261Y-7.352
X2.261Y-7.452
X2.261Y-7.552
X2.261Y-7.652
X2.2874Y-5.2035
X2.313Y-5.7745
X2.3165Y-2.3055
X2.3386Y-4.2976
X2.3386Y-4.3976
X2.3386Y-4.4976
X2.3386Y-4.5976
X2.3386Y-4.6976
X2.3386Y-4.7976
X2.3386Y-4.8976
X2.3386Y-4.9976
X2.4142Y-5.4315
X2.4598Y-7.6512
X2.4598Y-7.8512
X2.4661Y-4.2976
X2.4661Y-4.3976
X2.4661Y-4.4976
X2.4661Y-4.5976
X2.4661Y-4.6976
X2.4661Y-4.7976
X2.4661Y-4.8976
X2.4661Y-4.9976
X2.515Y-4.0795
X2.515Y-5.2
X2.5165Y-2.3055
X2.6598Y-7.9024
X2.6598Y-8.0024
X2.6598Y-8.1024
X2.6598Y-8.2024
X2.6598Y-8.3024
X2.6598Y-8.4024
X2.6598Y-8.5024
X2.6598Y-8.6024
X2.6622Y-7.0516
X2.6622Y-7.1516
X2.6622Y-7.2516
X2.6622Y-7.3516
X2.6622Y-7.4516
X2.6622Y-7.5516
X2.6622Y-7.6516
X2.665Y-5.4508
X2.665Y-5.5508
X2.665Y-5.6508
X2.665Y-5.7508
X2.665Y-5.8508
X2.665Y-5.9508
X2.665Y-6.0508
X2.665Y-6.1508
X2.665Y-6.2508
X2.665Y-6.3508
X2.715Y-4.0795
X2.715Y-5.2
X2.7157Y-2.5504
X2.7157Y-2.6504
X2.7157Y-2.7504
X2.7157Y-2.8504
X2.7157Y-2.9504
X2.7157Y-3.0504
X2.7157Y-3.1504
X2.7157Y-3.2504
X2.7157Y-3.3504
X2.7157Y-3.4504
X2.7157Y-3.5504
X2.7157Y-3.6504
X2.7157Y-3.7504
X2.7157Y-3.8504
X2.7366Y-6.628
X2.7366Y-6.828
X2.7661Y-4.2976
X2.7661Y-4.3976
X2.7661Y-4.4976
X2.7661Y-4.5976
X2.7661Y-4.6976
X2.7661Y-4.7976
X2.7661Y-4.8976
X2.7661Y-4.9976
X2.8945Y-4.2976
X2.8945Y-4.3976
X2.8945Y-4.4976
X2.8945Y-4.5976
X2.8945Y-4.6976
X2.8945Y-4.7976
X2.8945Y-4.8976
X2.8945Y-4.9976
X2.9402Y-5.1992
X2.9598Y-7.9024
X2.9598Y-8.0024
X2.9598Y-8.1024
X2.9598Y-8.2024
X2.9598Y-8.3024
X2.9598Y-8.4024
X2.9598Y-8.5024
X2.9598Y-8.6024
X2.9622Y-7.0516
X2.9622Y-7.1516
X2.9622Y-7.2516
X2.9622Y-7.3516
X2.9622Y-7.4516
X2.9622Y-7.5516
X2.9622Y-7.6516
X2.965Y-5.4508
X2.965Y-5.5508
X2.965Y-5.6508
X2.965Y-5.7508
X2.965Y-5.8508
X2.965Y-5.9508
X2.965Y-6.0508
X2.965Y-6.1508
X2.965Y-6.2508
X2.965Y-6.3508
X2.9681Y-2.5504
X2.9681Y-2.6504
X2.9681Y-2.7504
X2.9681Y-2.8504
X2.9681Y-2.9504
X2.9681Y-3.0504
X2.9681Y-3.1504
X2.9681Y-3.2504
X2.9681Y-3.3504
X2.9681Y-3.4504
X2.9681Y-3.5504
X2.9681Y-3.6504
X2.9681Y-3.7504
X2.9681Y-3.8504
X3.1402Y-5.1992
X3.1701Y-2.3059
X3.1945Y-4.2976
X3.1945Y-4.3976
X3.1945Y-4.4976
X3.1945Y-4.5976
X3.1945Y-4.6976
X3.1945Y-4.7976
X3.1945Y-4.8976
X3.1945Y-4.9976
X3.2122Y-8.002
X3.2122Y-8.102
X3.2122Y-8.202
X3.2122Y-8.302
X3.2122Y-8.402
X3.2122Y-8.502
X3.2122Y-8.602
X3.2138Y-7.0528
X3.2138Y-7.1528
X3.2138Y-7.2528
X3.2138Y-7.3528
X3.2138Y-7.4528
X3.2138Y-7.5528
X3.2138Y-7.6528
X3.2689Y-5.4508
X3.2689Y-5.5508
X3.2689Y-5.6508
X3.2689Y-5.7508
X3.2689Y-5.8508
X3.2689Y-5.9508
X3.2689Y-6.0508
X3.2689Y-6.1508
X3.2689Y-6.2508
X3.2689Y-6.3508
X3.3165Y-4.2988
X3.3165Y-4.3988
X3.3165Y-4.4988
X3.3165Y-4.5988
X3.3165Y-4.6988
X3.3165Y-4.7988
X3.3165Y-4.8988
X3.3165Y-4.9988
X3.3406Y-5.2059
X3.3661Y-4.0823
X3.3701Y-2.3059
X3.5122Y-8.002
X3.5122Y-8.102
X3.5122Y-8.202
X3.5122Y-8.302
X3.5122Y-8.402
X3.5122Y-8.502
X3.5122Y-8.602
X3.5138Y-7.0528
X3.5138Y-7.1528
X3.5138Y-7.2528
X3.5138Y-7.3528
X3.5138Y-7.4528
X3.5138Y-7.5528
X3.5138Y-7.6528
X3.5406Y-5.2059
X3.5661Y-4.0823
X3.5681Y-2.5504
X3.5681Y-2.6504
X3.5681Y-2.7504
X3.5681Y-2.8504
X3.5681Y-2.9504
X3.5681Y-3.0504
X3.5681Y-3.1504
X3.5681Y-3.2504
X3.5681Y-3.3504
X3.5681Y-3.4504
X3.5681Y-3.5504
X3.5681Y-3.6504
X3.5681Y-3.7504
X3.5681Y-3.8504
X3.5689Y-5.4508
X3.5689Y-5.5508
X3.5689Y-5.6508
X3.5689Y-5.7508
X3.5689Y-5.8508
X3.5689Y-5.9508
X3.5689Y-6.0508
X3.5689Y-6.1508
X3.5689Y-6.2508
X3.5689Y-6.3508
X3.6165Y-4.2988
X3.6165Y-4.3988
X3.6165Y-4.4988
X3.6165Y-4.5988
X3.6165Y-4.6988
X3.6165Y-4.7988
X3.6165Y-4.8988
X3.6165Y-4.9988
X3.7134Y-7.7339
X3.7134Y-7.9339
X3.7421Y-4.3
X3.7421Y-4.4
X3.7421Y-4.5
X3.7421Y-4.6
X3.7421Y-4.7
X3.7421Y-4.8
X3.7421Y-4.9
X3.7421Y-5.0
X3.7913Y-5.2075
X3.8185Y-2.5508
X3.8185Y-2.6508
X3.8185Y-2.7508
X3.8185Y-2.8508
X3.8185Y-2.9508
X3.8185Y-3.0508
X3.8185Y-3.1508
X3.8185Y-3.2508
X3.8185Y-3.3508
X3.8185Y-3.4508
X3.8185Y-3.5508
X3.8185Y-3.6508
X3.8185Y-3.7508
X3.8185Y-3.8508
X3.8677Y-5.4518
X3.8677Y-5.5518
X3.8677Y-5.6518
X3.8677Y-5.7518
X3.8677Y-5.8518
X3.8677Y-5.9518
X3.8677Y-6.0518
X3.9142Y-7.0531
X3.9142Y-7.1531
X3.9142Y-7.2531
X3.9142Y-7.3531
X3.9142Y-7.4531
X3.9142Y-7.5531
X3.9142Y-7.6531
X3.9146Y-8.0043
X3.9146Y-8.1043
X3.9146Y-8.2043
X3.9146Y-8.3043
X3.9146Y-8.4043
X3.9146Y-8.5043
X3.9146Y-8.6043
X3.9425Y-2.2075
X3.9913Y-5.2075
X4.0421Y-4.3
X4.0421Y-4.4
X4.0421Y-4.5
X4.0421Y-4.6
X4.0421Y-4.7
X4.0421Y-4.8
X4.0421Y-4.9
X4.0421Y-5.0
X4.1425Y-2.2075
X4.1677Y-4.2988
X4.1677Y-4.3988
X4.1677Y-4.4988
X4.1677Y-4.5988
X4.1677Y-4.6988
X4.1677Y-4.7988
X4.1677Y-4.8988
X4.1677Y-4.9988
X4.1677Y-5.4518
X4.1677Y-5.5518
X4.1677Y-5.6518
X4.1677Y-5.7518
X4.1677Y-5.8518
X4.1677Y-5.9518
X4.1677Y-6.0518
X4.2142Y-6.3091
X4.2142Y-7.0531
X4.2142Y-7.1531
X4.2142Y-7.2531
X4.2142Y-7.3531
X4.2142Y-7.4531
X4.2142Y-7.5531
X4.2142Y-7.6531
X4.2146Y-5.2087
X4.2146Y-8.0043
X4.2146Y-8.1043
X4.2146Y-8.2043
X4.2146Y-8.3043
X4.2146Y-8.4043
X4.2146Y-8.5043
X4.2146Y-8.6043
X4.2165Y-4.0819
X4.4142Y-6.3091
X4.4146Y-5.2087
X4.4165Y-4.0819
X4.4185Y-2.5508
X4.4185Y-2.6508
X4.4185Y-2.7508
X4.4185Y-2.8508
X4.4185Y-2.9508
X4.4185Y-3.0508
X4.4185Y-3.1508
X4.4185Y-3.2508
X4.4185Y-3.3508
X4.4185Y-3.4508
X4.4185Y-3.5508
X4.4185Y-3.6508
X4.4185Y-3.7508
X4.4185Y-3.8508
X4.4622Y-8.0031
X4.4622Y-8.1031
X4.4622Y-8.2031
X4.4622Y-8.3031
X4.4622Y-8.4031
X4.4622Y-8.5031
X4.4622Y-8.6031
X4.4634Y-6.7035
X4.4634Y-6.8035
X4.4634Y-6.9035
X4.4634Y-7.0035
X4.4634Y-7.1035
X4.4634Y-7.2035
X4.4634Y-7.3035
X4.4661Y-5.4516
X4.4661Y-5.5516
X4.4661Y-5.6516
X4.4661Y-5.7516
X4.4661Y-5.8516
X4.4661Y-5.9516
X4.4661Y-6.0516
X4.4677Y-4.2988
X4.4677Y-4.3988
X4.4677Y-4.4988
X4.4677Y-4.5988
X4.4677Y-4.6988
X4.4677Y-4.7988
X4.4677Y-4.8988
X4.4677Y-4.9988
X4.5929Y-4.3
X4.5929Y-4.4
X4.5929Y-4.5
X4.5929Y-4.6
X4.5929Y-4.7
X4.5929Y-4.8
X4.5929Y-4.9
X4.5929Y-5.0
X4.6146Y-5.2071
X4.7622Y-8.0031
X4.7622Y-8.1031
X4.7622Y-8.2031
X4.7622Y-8.3031
X4.7622Y-8.4031
X4.7622Y-8.5031
X4.7622Y-8.6031
X4.7634Y-6.7035
X4.7634Y-6.8035
X4.7634Y-6.9035
X4.7634Y-7.0035
X4.7634Y-7.1035
X4.7634Y-7.2035
X4.7634Y-7.3035
X4.7661Y-5.4516
X4.7661Y-5.5516
X4.7661Y-5.6516
X4.7661Y-5.7516
X4.7661Y-5.8516
X4.7661Y-5.9516
X4.7661Y-6.0516
X4.7941Y-2.0598
X4.8146Y-5.2071
X4.8177Y-7.561
X4.8193Y-2.5531
X4.8193Y-2.6531
X4.8193Y-2.7531
X4.8193Y-2.8531
X4.8193Y-2.9531
X4.8193Y-3.0531
X4.8193Y-3.1531
X4.8193Y-3.2531
X4.8193Y-3.3531
X4.8193Y-3.4531
X4.8929Y-4.3
X4.8929Y-4.4
X4.8929Y-4.5
X4.8929Y-4.6
X4.8929Y-4.7
X4.8929Y-4.8
X4.8929Y-4.9
X4.8929Y-5.0
X4.9941Y-2.0598
X5.0177Y-4.3008
X5.0177Y-4.4008
X5.0177Y-4.5008
X5.0177Y-4.6008
X5.0177Y-4.7008
X5.0177Y-4.8008
X5.0177Y-4.9008
X5.0177Y-5.0008
X5.0177Y-7.561
X5.0614Y-8.0047
X5.0614Y-8.1047
X5.0614Y-8.2047
X5.0614Y-8.3047
X5.0614Y-8.4047
X5.0614Y-8.5047
X5.0614Y-8.6047
X5.0642Y-6.7035
X5.0642Y-6.8035
X5.0642Y-6.9035
X5.0642Y-7.0035
X5.0642Y-7.1035
X5.0642Y-7.2035
X5.0642Y-7.3035
X5.0669Y-5.4539
X5.0669Y-5.5539
X5.0669Y-5.6539
X5.0669Y-5.7539
X5.0669Y-5.8539
X5.0669Y-5.9539
X5.0669Y-6.0539
X5.0697Y-4.1524
X5.115Y-5.2087
X5.1193Y-2.5531
X5.1193Y-2.6531
X5.1193Y-2.7531
X5.1193Y-2.8531
X5.1193Y-2.9531
X5.1193Y-3.0531
X5.1193Y-3.1531
X5.1193Y-3.2531
X5.1193Y-3.3531
X5.1193Y-3.4531
X5.2697Y-4.1524
X5.315Y-5.2087
X5.3177Y-4.3008
X5.3177Y-4.4008
X5.3177Y-4.5008
X5.3177Y-4.6008
X5.3177Y-4.7008
X5.3177Y-4.8008
X5.3177Y-4.9008
X5.3177Y-5.0008
X5.3614Y-8.0047
X5.3614Y-8.1047
X5.3614Y-8.2047
X5.3614Y-8.3047
X5.3614Y-8.4047
X5.3614Y-8.5047
X5.3614Y-8.6047
X5.3642Y-6.7035
X5.3642Y-6.8035
X5.3642Y-6.9035
X5.3642Y-7.0035
X5.3642Y-7.1035
X5.3642Y-7.2035
X5.3642Y-7.3035
X5.3669Y-5.4539
X5.3669Y-5.5539
X5.3669Y-5.6539
X5.3669Y-5.7539
X5.3669Y-5.8539
X5.3669Y-5.9539
X5.3669Y-6.0539
X5.4413Y-3.7343
X5.4413Y-6.4063
X5.5193Y-4.1055
X5.5193Y-4.2055
X5.5193Y-4.3055
X5.5193Y-4.4055
X5.5193Y-4.5055
X5.5193Y-4.6055
X5.5193Y-4.7055
X5.5193Y-4.8055
X5.5193Y-4.9055
X5.5193Y-5.0055
X5.5205Y-2.5528
X5.5205Y-2.6528
X5.5205Y-2.7528
X5.5205Y-2.8528
X5.5205Y-2.9528
X5.5205Y-3.0528
X5.5205Y-3.1528
X5.5205Y-3.2528
X5.5205Y-3.3528
X5.5205Y-3.4528
X5.6413Y-3.7343
X5.6413Y-6.4063
X5.713Y-6.7063
X5.713Y-6.8063
X5.713Y-6.9063
X5.713Y-7.0063
X5.713Y-7.1063
X5.713Y-7.2063
X5.713Y-7.3063
X5.713Y-7.9071
X5.713Y-8.0071
X5.713Y-8.1071
X5.713Y-8.2071
X5.713Y-8.3071
X5.713Y-8.4071
X5.713Y-8.5071
X5.713Y-8.6071
X5.715Y-5.4549
X5.715Y-5.5549
X5.715Y-5.6549
X5.715Y-5.7549
X5.715Y-5.8549
X5.715Y-5.9549
X5.715Y-6.0549
X5.8193Y-4.1055
X5.8193Y-4.2055
X5.8193Y-4.3055
X5.8193Y-4.4055
X5.8193Y-4.5055
X5.8193Y-4.6055
X5.8193Y-4.7055
X5.8193Y-4.8055
X5.8193Y-4.9055
X5.8193Y-5.0055
X5.8205Y-2.5528
X5.8205Y-2.6528
X5.8205Y-2.7528
X5.8205Y-2.8528
X5.8205Y-2.9528
X5.8205Y-3.0528
X5.8205Y-3.1528
X5.8205Y-3.2528
X5.8205Y-3.3528
X5.8205Y-3.4528
X6.013Y-6.7063
X6.013Y-6.8063
X6.013Y-6.9063
X6.013Y-7.0063
X6.013Y-7.1063
X6.013Y-7.2063
X6.013Y-7.3063
X6.013Y-7.9071
X6.013Y-8.0071
X6.013Y-8.1071
X6.013Y-8.2071
X6.013Y-8.3071
X6.013Y-8.4071
X6.013Y-8.5071
X6.013Y-8.6071
X6.015Y-5.4549
X6.015Y-5.5549
X6.015Y-5.6549
X6.015Y-5.7549
X6.015Y-5.8549
X6.015Y-5.9549
X6.015Y-6.0549
X6.0657Y-7.6091
X6.1189Y-3.1067
X6.1189Y-3.2067
X6.1189Y-3.3067
X6.1189Y-3.4067
X6.1189Y-3.5067
X6.1189Y-3.6067
X6.1189Y-3.7067
X6.1189Y-3.8067
X6.1189Y-3.9067
X6.1189Y-4.0067
X6.1189Y-4.1067
X6.1189Y-4.2067
X6.1189Y-4.3067
X6.1189Y-4.4067
X6.1189Y-4.5067
X6.1189Y-4.6067
X6.1189Y-4.7067
X6.1189Y-4.8067
X6.1189Y-4.9067
X6.1189Y-5.0067
X6.2232Y-2.6051
X6.2232Y-2.8051
X6.2657Y-7.6091
X6.363Y-8.0059
X6.363Y-8.1059
X6.363Y-8.2059
X6.363Y-8.3059
X6.363Y-8.4059
X6.363Y-8.5059
X6.363Y-8.6059
X6.3665Y-6.7067
X6.3665Y-6.8067
X6.3665Y-6.9067
X6.3665Y-7.0067
X6.3665Y-7.1067
X6.3665Y-7.2067
X6.3665Y-7.3067
X6.3677Y-5.4561
X6.3677Y-5.5561
X6.3677Y-5.6561
X6.3677Y-5.7561
X6.3677Y-5.8561
X6.3677Y-5.9561
X6.3677Y-6.0561
X6.663Y-8.0059
X6.663Y-8.1059
X6.663Y-8.2059
X6.663Y-8.3059
X6.663Y-8.4059
X6.663Y-8.5059
X6.663Y-8.6059
X6.6665Y-6.7067
X6.6665Y-6.8067
X6.6665Y-6.9067
X6.6665Y-7.0067
X6.6665Y-7.1067
X6.6665Y-7.2067
X6.6665Y-7.3067
X6.6677Y-5.4561
X6.6677Y-5.5561
X6.6677Y-5.6561
X6.6677Y-5.7561
X6.6677Y-5.8561
X6.6677Y-5.9561
X6.6677Y-6.0561
X6.7189Y-3.1067
X6.7189Y-3.2067
X6.7189Y-3.3067
X6.7189Y-3.4067
X6.7189Y-3.5067
X6.7189Y-3.6067
X6.7189Y-3.7067
X6.7189Y-3.8067
X6.7189Y-3.9067
X6.7189Y-4.0067
X6.7189Y-4.1067
X6.7189Y-4.2067
X6.7189Y-4.3067
X6.7189Y-4.4067
X6.7189Y-4.5067
X6.7189Y-4.6067
X6.7189Y-4.7067
X6.7189Y-4.8067
X6.7189Y-4.9067
X6.7189Y-5.0067
X6.7201Y-2.5587
X6.7201Y-2.7587
X6.7402Y-6.3846
X6.8201Y-2.9071
X6.8201Y-3.2071
X6.9402Y-6.3846
X7.0122Y-7.9083
X7.0122Y-8.0083
X7.0122Y-8.1083
X7.0122Y-8.2083
X7.0122Y-8.3083
X7.0122Y-8.4083
X7.0122Y-8.5083
X7.0122Y-8.6083
X7.0154Y-6.7083
X7.0154Y-6.8083
X7.0154Y-6.9083
X7.0154Y-7.0083
X7.0154Y-7.1083
X7.0154Y-7.2083
X7.0154Y-7.3083
X7.0173Y-5.4579
X7.0173Y-5.5579
X7.0173Y-5.6579
X7.0173Y-5.7579
X7.0173Y-5.8579
X7.0173Y-5.9579
X7.0173Y-6.0579
X7.0193Y-4.1071
X7.0193Y-4.2071
X7.0193Y-4.3071
X7.0193Y-4.4071
X7.0193Y-4.5071
X7.0193Y-4.6071
X7.0193Y-4.7071
X7.0193Y-4.8071
X7.0197Y-2.5575
X7.0197Y-2.6575
X7.0197Y-2.7575
X7.0197Y-2.8575
X7.0197Y-2.9575
X7.0197Y-3.0575
X7.0197Y-3.1575
X7.0197Y-3.2575
X7.0197Y-3.3575
X7.0197Y-3.4575
X7.3122Y-7.9083
X7.3122Y-8.0083
X7.3122Y-8.1083
X7.3122Y-8.2083
X7.3122Y-8.3083
X7.3122Y-8.4083
X7.3122Y-8.5083
X7.3122Y-8.6083
X7.3154Y-6.7083
X7.3154Y-6.8083
X7.3154Y-6.9083
X7.3154Y-7.0083
X7.3154Y-7.1083
X7.3154Y-7.2083
X7.3154Y-7.3083
X7.3173Y-5.4579
X7.3173Y-5.5579
X7.3173Y-5.6579
X7.3173Y-5.7579
X7.3173Y-5.8579
X7.3173Y-5.9579
X7.3173Y-6.0579
X7.3193Y-4.1071
X7.3193Y-4.2071
X7.3193Y-4.3071
X7.3193Y-4.4071
X7.3193Y-4.5071
X7.3193Y-4.6071
X7.3193Y-4.7071
X7.3193Y-4.8071
X7.3197Y-2.5575
X7.3197Y-2.6575
X7.3197Y-2.7575
X7.3197Y-2.8575
X7.3197Y-2.9575
X7.3197Y-3.0575
X7.3197Y-3.1575
X7.3197Y-3.2575
X7.3197Y-3.3575
X7.3197Y-3.4575
X7.3705Y-7.6146
X7.4193Y-3.7154
X7.4197Y-5.1421
X7.5705Y-7.6146
X7.6193Y-3.7154
X7.6197Y-5.1421
X7.6642Y-7.9087
X7.6642Y-8.0087
X7.6642Y-8.1087
X7.6642Y-8.2087
X7.6642Y-8.3087
X7.6642Y-8.4087
X7.6642Y-8.5087
X7.6642Y-8.6087
X7.6677Y-6.7094
X7.6677Y-6.8094
X7.6677Y-6.9094
X7.6677Y-7.0094
X7.6677Y-7.1094
X7.6677Y-7.2094
X7.6677Y-7.3094
X7.6724Y-5.4591
X7.6724Y-5.5591
X7.6724Y-5.6591
X7.6724Y-5.7591
X7.6724Y-5.8591
X7.6724Y-5.9591
X7.6724Y-6.0591
X7.6744Y-4.1098
X7.6744Y-4.2098
X7.6744Y-4.3098
X7.6744Y-4.4098
X7.6744Y-4.5098
X7.6744Y-4.6098
X7.6744Y-4.7098
X7.6764Y-2.5583
X7.6764Y-2.6583
X7.6764Y-2.7583
X7.6764Y-2.8583
X7.6764Y-2.9583
X7.6764Y-3.0583
X7.6764Y-3.1583
X7.6764Y-3.2583
X7.6764Y-3.3583
X7.6764Y-3.4583
X7.7311Y-2.3134
X7.928Y-1.913
X7.9311Y-2.3134
X7.9642Y-7.9087
X7.9642Y-8.0087
X7.9642Y-8.1087
X7.9642Y-8.2087
X7.9642Y-8.3087
X7.9642Y-8.4087
X7.9642Y-8.5087
X7.9642Y-8.6087
X7.9677Y-6.7094
X7.9677Y-6.8094
X7.9677Y-6.9094
X7.9677Y-7.0094
X7.9677Y-7.1094
X7.9677Y-7.2094
X7.9677Y-7.3094
X7.9724Y-5.4591
X7.9724Y-5.5591
X7.9724Y-5.6591
X7.9724Y-5.7591
X7.9724Y-5.8591
X7.9724Y-5.9591
X7.9724Y-6.0591
X7.9744Y-4.1098
X7.9744Y-4.2098
X7.9744Y-4.3098
X7.9744Y-4.4098
X7.9744Y-4.5098
X7.9744Y-4.6098
X7.9744Y-4.7098
X7.9764Y-2.5583
X7.9764Y-2.6583
X7.9764Y-2.7583
X7.9764Y-2.8583
X7.9764Y-2.9583
X7.9764Y-3.0583
X7.9764Y-3.1583
X7.9764Y-3.2583
X7.9764Y-3.3583
X7.9764Y-3.4583
X8.128Y-1.913
X8.2264Y-2.8594
X8.3681Y-8.0126
X8.3681Y-8.1126
X8.3681Y-8.2126
X8.3681Y-8.3126
X8.3681Y-8.4126
X8.3681Y-8.5126
X8.3681Y-8.6126
X8.3685Y-6.9098
X8.3685Y-7.0098
X8.3685Y-7.1098
X8.3685Y-7.2098
X8.3685Y-7.3098
X8.3685Y-7.4098
X8.3685Y-7.5098
X8.3717Y-5.9106
X8.3717Y-6.0106
X8.3717Y-6.1106
X8.3717Y-6.2106
X8.3717Y-6.3106
X8.3717Y-6.4106
X8.3717Y-6.5106
X8.374Y-4.9114
X8.374Y-5.0114
X8.374Y-5.1114
X8.374Y-5.2114
X8.374Y-5.3114
X8.374Y-5.4114
X8.374Y-5.5114
X8.378Y-3.6098
X8.378Y-3.7098
X8.378Y-3.8098
X8.378Y-3.9098
X8.378Y-4.0098
X8.378Y-4.1098
X8.378Y-4.2098
X8.3811Y-3.1618
X8.4055Y-2.1114
X8.4236Y-4.489
X8.4264Y-2.8594
X8.5551Y-2.3845
X8.5701Y-7.7669
X8.6071Y-2.7126
X8.6071Y-3.0126
X8.6236Y-4.489
X8.6551Y-2.2845
X8.6681Y-8.0126
X8.6681Y-8.1126
X8.6681Y-8.2126
X8.6681Y-8.3126
X8.6681Y-8.4126
X8.6681Y-8.5126
X8.6681Y-8.6126
X8.6685Y-6.9098
X8.6685Y-7.0098
X8.6685Y-7.1098
X8.6685Y-7.2098
X8.6685Y-7.3098
X8.6685Y-7.4098
X8.6685Y-7.5098
X8.6717Y-5.9106
X8.6717Y-6.0106
X8.6717Y-6.1106
X8.6717Y-6.2106
X8.6717Y-6.3106
X8.6717Y-6.4106
X8.6717Y-6.5106
X8.674Y-4.9114
X8.674Y-5.0114
X8.674Y-5.1114
X8.674Y-5.2114
X8.674Y-5.3114
X8.674Y-5.4114
X8.674Y-5.5114
X8.678Y-3.6098
X8.678Y-3.7098
X8.678Y-3.8098
X8.678Y-3.9098
X8.678Y-4.0098
X8.678Y-4.1098
X8.678Y-4.2098
X8.6811Y-3.1618
X8.7055Y-2.1114
X8.7551Y-2.3845
X8.7701Y-7.7669
X8.9016Y-5.1169
X8.9016Y-5.3169
X9.0732Y-6.263
X9.0732Y-6.363
X9.0732Y-6.463
X9.0732Y-6.563
X9.0732Y-6.663
X9.0732Y-6.763
X9.0732Y-6.863
X9.0736Y-7.9146
X9.0736Y-8.0146
X9.0736Y-8.1146
X9.0736Y-8.2146
X9.0736Y-8.3146
X9.0736Y-8.4146
X9.0736Y-8.5146
X9.0736Y-8.6146
X9.1075Y-2.7126
X9.1075Y-2.9126
X9.1091Y-2.2406
X9.1236Y-4.9138
X9.1236Y-5.0138
X9.1236Y-5.1138
X9.1236Y-5.2138
X9.1236Y-5.3138
X9.1236Y-5.4138
X9.1236Y-5.5138
X9.1236Y-5.6138
X9.1289Y-3.613
X9.1289Y-3.713
X9.1289Y-3.813
X9.1289Y-3.913
X9.1289Y-4.013
X9.1289Y-4.113
X9.1289Y-4.213
X9.1289Y-4.313
X9.1744Y-4.5898
X9.3091Y-2.2406
X9.3311Y-2.6134
X9.3311Y-2.7134
X9.3311Y-2.8134
X9.3311Y-2.9134
X9.3311Y-3.0134
X9.3311Y-3.1134
X9.3311Y-3.2134
X9.3732Y-6.263
X9.3732Y-6.363
X9.3732Y-6.463
X9.3732Y-6.563
X9.3732Y-6.663
X9.3732Y-6.763
X9.3732Y-6.863
X9.3736Y-7.9146
X9.3736Y-8.0146
X9.3736Y-8.1146
X9.3736Y-8.2146
X9.3736Y-8.3146
X9.3736Y-8.4146
X9.3736Y-8.5146
X9.3736Y-8.6146
X9.3744Y-4.5898
X9.4236Y-4.9138
X9.4236Y-5.0138
X9.4236Y-5.1138
X9.4236Y-5.2138
X9.4236Y-5.3138
X9.4236Y-5.4138
X9.4236Y-5.5138
X9.4236Y-5.6138
X9.4289Y-3.613
X9.4289Y-3.713
X9.4289Y-3.813
X9.4289Y-3.913
X9.4289Y-4.013
X9.4289Y-4.113
X9.4289Y-4.213
X9.4289Y-4.313
X9.6236Y-5.4681
X9.6236Y-5.6681
X9.6287Y-3.5146
X9.6287Y-3.7146
X9.6311Y-2.6134
X9.6311Y-2.7134
X9.6311Y-2.8134
X9.6311Y-2.9134
X9.6311Y-3.0134
X9.6311Y-3.1134
X9.6311Y-3.2134
X9.6996Y-2.2406
X9.7224Y-7.7138
X9.7224Y-7.8138
X9.7224Y-7.9138
X9.7224Y-8.0138
X9.7224Y-8.1138
X9.7224Y-8.2138
X9.7224Y-8.3138
X9.7224Y-8.4138
X9.7224Y-8.5138
X9.7224Y-8.6138
X9.7232Y-6.265
X9.7232Y-6.365
X9.7232Y-6.465
X9.7232Y-6.565
X9.7232Y-6.665
X9.7232Y-6.765
X9.7232Y-6.865
X9.8256Y-4.9142
X9.8256Y-5.0142
X9.8256Y-5.1142
X9.8256Y-5.2142
X9.8256Y-5.3142
X9.8256Y-5.4142
X9.8256Y-5.5142
X9.8291Y-3.6134
X9.8291Y-3.7134
X9.8291Y-3.8134
X9.8291Y-3.9134
X9.8291Y-4.0134
X9.8291Y-4.1134
X9.8291Y-4.2134
X9.8291Y-4.3134
X9.8291Y-4.4134
X9.8291Y-4.5134
X9.8996Y-2.2406
X10.0224Y-7.7138
X10.0224Y-7.8138
X10.0224Y-7.9138
X10.0224Y-8.0138
X10.0224Y-8.1138
X10.0224Y-8.2138
X10.0224Y-8.3138
X10.0224Y-8.4138
X10.0224Y-8.5138
X10.0224Y-8.6138
X10.0232Y-6.265
X10.0232Y-6.365
X10.0232Y-6.465
X10.0232Y-6.565
X10.0232Y-6.665
X10.0232Y-6.765
X10.0232Y-6.865
X10.0972Y-7.4177
X10.1256Y-4.9142
X10.1256Y-5.0142
X10.1256Y-5.1142
X10.1256Y-5.2142
X10.1256Y-5.3142
X10.1256Y-5.4142
X10.1256Y-5.5142
X10.1291Y-3.6134
X10.1291Y-3.7134
X10.1291Y-3.8134
X10.1291Y-3.9134
X10.1291Y-4.0134
X10.1291Y-4.1134
X10.1291Y-4.2134
X10.1291Y-4.3134
X10.1291Y-4.4134
X10.1291Y-4.5134
X10.2205Y-8.7732
X10.2972Y-7.4177
X10.3244Y-5.4689
X10.3244Y-5.6689
X10.3732Y-7.7154
X10.3732Y-7.8154
X10.3732Y-7.9154
X10.3732Y-8.0154
X10.3732Y-8.1154
X10.3732Y-8.2154
X10.3732Y-8.3154
X10.3732Y-8.4154
X10.3732Y-8.5154
X10.3732Y-8.6154
X10.3748Y-6.0433
X10.3748Y-6.1433
X10.3748Y-6.2433
X10.3748Y-6.3433
X10.3748Y-6.4433
X10.3748Y-6.5433
X10.3748Y-6.6433
X10.3748Y-6.7433
X10.3748Y-6.8433
X10.3748Y-6.9433
X10.4205Y-8.7732
X10.5287Y-4.8409
X10.5287Y-4.9409
X10.5287Y-5.0409
X10.5287Y-5.1409
X10.5287Y-5.2409
X10.5287Y-5.3409
X10.5287Y-5.4409
X10.5287Y-5.5409
X10.5287Y-5.6409
X10.5287Y-5.7409
X10.5295Y-3.8181
X10.5295Y-3.9181
X10.5295Y-4.0181
X10.5295Y-4.1181
X10.5295Y-4.2181
X10.5295Y-4.3181
X10.5295Y-4.4181
X10.5295Y-4.5181
X10.5312Y-2.7394
X10.5312Y-2.9394
X10.6312Y-2.8394
X10.6732Y-7.7154
X10.6732Y-7.8154
X10.6732Y-7.9154
X10.6732Y-8.0154
X10.6732Y-8.1154
X10.6732Y-8.2154
X10.6732Y-8.3154
X10.6732Y-8.4154
X10.6732Y-8.5154
X10.6732Y-8.6154
X10.6748Y-6.0433
X10.6748Y-6.1433
X10.6748Y-6.2433
X10.6748Y-6.3433
X10.6748Y-6.4433
X10.6748Y-6.5433
X10.6748Y-6.6433
X10.6748Y-6.7433
X10.6748Y-6.8433
X10.6748Y-6.9433
X10.8287Y-4.8409
X10.8287Y-4.9409
X10.8287Y-5.0409
X10.8287Y-5.1409
X10.8287Y-5.2409
X10.8287Y-5.3409
X10.8287Y-5.4409
X10.8287Y-5.5409
X10.8287Y-5.6409
X10.8287Y-5.7409
X10.8295Y-3.8181
X10.8295Y-3.9181
X10.8295Y-4.0181
X10.8295Y-4.1181
X10.8295Y-4.2181
X10.8295Y-4.3181
X10.8295Y-4.4181
X10.8295Y-4.5181
X10.947Y-7.8685
X10.947Y-7.9685
X10.947Y-8.0685
X10.947Y-8.1685
X10.947Y-8.2685
X10.947Y-8.3685
X10.947Y-8.4685
X10.947Y-8.5685
X10.9488Y-6.7201
X10.9488Y-6.8201
X10.9488Y-6.9201
X10.9488Y-7.0201
X10.9488Y-7.1201
X10.9488Y-7.2201
X10.9488Y-7.3201
X10.9488Y-7.4201
X10.958Y-2.739
X10.958Y-2.939
X10.9953Y-8.7244
X11.0213Y-7.5764
X11.0232Y-7.7197
X11.058Y-2.839
X11.0768Y-4.0937
X11.1953Y-8.7244
X11.2213Y-7.5764
X11.2232Y-7.7197
X11.247Y-7.8685
X11.247Y-7.9685
X11.247Y-8.0685
X11.247Y-8.1685
X11.247Y-8.2685
X11.247Y-8.3685
X11.247Y-8.4685
X11.247Y-8.5685
X11.2488Y-6.7201
X11.2488Y-6.8201
X11.2488Y-6.9201
X11.2488Y-7.0201
X11.2488Y-7.1201
X11.2488Y-7.2201
X11.2488Y-7.3201
X11.2488Y-7.4201
X11.2555Y-3.3669
X11.2555Y-3.5669
X11.2768Y-4.0937
X11.3808Y-2.7425
X11.3808Y-2.9425
X11.3984Y-6.7201
X11.3984Y-6.8201
X11.3984Y-6.9201
X11.3984Y-7.0201
X11.3984Y-7.1201
X11.3984Y-7.2201
X11.3984Y-7.3201
X11.3984Y-7.4201
X11.3984Y-7.8673
X11.3984Y-7.9673
X11.3984Y-8.0673
X11.3984Y-8.1673
X11.3984Y-8.2673
X11.3984Y-8.3673
X11.3984Y-8.4673
X11.3984Y-8.5673
X11.4465Y-8.7236
X11.4551Y-3.3941
X11.4551Y-3.4941
X11.4551Y-3.5941
X11.4551Y-3.6941
X11.4551Y-3.7941
X11.4551Y-3.8941
X11.4551Y-3.9941
X11.4551Y-4.0941
X11.4705Y-7.7189
X11.4717Y-7.5764
X11.4764Y-4.5441
X11.4764Y-4.6441
X11.4764Y-4.7441
X11.4764Y-4.8441
X11.4764Y-4.9441
X11.4764Y-5.0441
X11.4764Y-5.1441
X11.4764Y-5.2441
X11.4764Y-5.3441
X11.4764Y-5.4441
X11.4764Y-5.5441
X11.4764Y-5.6441
X11.4764Y-5.7441
X11.4764Y-5.8441
X11.4764Y-5.9441
X11.4764Y-6.0441
X11.4764Y-6.1441
X11.4764Y-6.2441
X11.4764Y-6.3441
X11.4764Y-6.4441
X11.4808Y-2.8425
X11.6465Y-8.7236
X11.6705Y-7.7189
X11.6717Y-7.5764
X11.6984Y-6.7201
X11.6984Y-6.8201
X11.6984Y-6.9201
X11.6984Y-7.0201
X11.6984Y-7.1201
X11.6984Y-7.2201
X11.6984Y-7.3201
X11.6984Y-7.4201
X11.6984Y-7.8673
X11.6984Y-7.9673
X11.6984Y-8.0673
X11.6984Y-8.1673
X11.6984Y-8.2673
X11.6984Y-8.3673
X11.6984Y-8.4673
X11.6984Y-8.5673
X11.7551Y-3.3941
X11.7551Y-3.4941
X11.7551Y-3.5941
X11.7551Y-3.6941
X11.7551Y-3.7941
X11.7551Y-3.8941
X11.7551Y-3.9941
X11.7551Y-4.0941
X11.8076Y-2.7429
X11.8076Y-2.9429
X11.8488Y-7.8673
X11.8488Y-7.9673
X11.8488Y-8.0673
X11.8488Y-8.1673
X11.8488Y-8.2673
X11.8488Y-8.3673
X11.8488Y-8.4673
X11.8488Y-8.5673
X11.8492Y-6.7201
X11.8492Y-6.8201
X11.8492Y-6.9201
X11.8492Y-7.0201
X11.8492Y-7.1201
X11.8492Y-7.2201
X11.8492Y-7.3201
X11.8492Y-7.4201
X11.8965Y-8.7236
X11.9076Y-2.8429
X11.922Y-7.5764
X11.9236Y-7.7189
X11.9543Y-3.2457
X11.9543Y-3.4457
X12.0764Y-4.5441
X12.0764Y-4.6441
X12.0764Y-4.7441
X12.0764Y-4.8441
X12.0764Y-4.9441
X12.0764Y-5.0441
X12.0764Y-5.1441
X12.0764Y-5.2441
X12.0764Y-5.3441
X12.0764Y-5.4441
X12.0764Y-5.5441
X12.0764Y-5.6441
X12.0764Y-5.7441
X12.0764Y-5.8441
X12.0764Y-5.9441
X12.0764Y-6.0441
X12.0764Y-6.1441
X12.0764Y-6.2441
X12.0764Y-6.3441
X12.0764Y-6.4441
X12.0965Y-8.7236
X12.122Y-7.5764
X12.1236Y-7.7189
X12.1488Y-7.8673
X12.1488Y-7.9673
X12.1488Y-8.0673
X12.1488Y-8.1673
X12.1488Y-8.2673
X12.1488Y-8.3673
X12.1488Y-8.4673
X12.1488Y-8.5673
X12.1492Y-6.7201
X12.1492Y-6.8201
X12.1492Y-6.9201
X12.1492Y-7.0201
X12.1492Y-7.1201
X12.1492Y-7.2201
X12.1492Y-7.3201
X12.1492Y-7.4201
X12.3Y-6.7201
X12.3Y-6.8201
X12.3Y-6.9201
X12.3Y-7.0201
X12.3Y-7.1201
X12.3Y-7.2201
X12.3Y-7.3201
X12.3Y-7.4201
X12.3004Y-7.8685
X12.3004Y-7.9685
X12.3004Y-8.0685
X12.3004Y-8.1685
X12.3004Y-8.2685
X12.3004Y-8.3685
X12.3004Y-8.4685
X12.3004Y-8.5685
X12.3063Y-3.5713
X12.3453Y-8.7248
X12.3724Y-7.5764
X12.3732Y-7.7201
X12.4264Y-3.8709
X12.4264Y-4.0709
X12.4539Y-5.5465
X12.4539Y-5.6465
X12.4539Y-5.7465
X12.4539Y-5.8465
X12.4539Y-5.9465
X12.4539Y-6.0465
X12.4539Y-6.1465
X12.4539Y-6.2465
X12.4539Y-6.3465
X12.4539Y-6.4465
X12.4543Y-4.3453
X12.4543Y-4.4453
X12.4543Y-4.5453
X12.4543Y-4.6453
X12.4543Y-4.7453
X12.4543Y-4.8453
X12.4543Y-4.9453
X12.4543Y-5.0453
X12.5063Y-3.5713
X12.5453Y-8.7248
X12.5724Y-7.5764
X12.5732Y-7.7201
X12.6Y-6.7201
X12.6Y-6.8201
X12.6Y-6.9201
X12.6Y-7.0201
X12.6Y-7.1201
X12.6Y-7.2201
X12.6Y-7.3201
X12.6Y-7.4201
X12.6004Y-7.8685
X12.6004Y-7.9685
X12.6004Y-8.0685
X12.6004Y-8.1685
X12.6004Y-8.2685
X12.6004Y-8.3685
X12.6004Y-8.4685
X12.6004Y-8.5685
X12.7512Y-7.8697
X12.7512Y-7.9697
X12.7512Y-8.0697
X12.7512Y-8.1697
X12.7512Y-8.2697
X12.7512Y-8.3697
X12.7512Y-8.4697
X12.7512Y-8.5697
X12.7516Y-6.7213
X12.7516Y-6.8213
X12.7516Y-6.9213
X12.7516Y-7.0213
X12.7516Y-7.1213
X12.7516Y-7.2213
X12.7516Y-7.3213
X12.7516Y-7.4213
X12.7539Y-5.5465
X12.7539Y-5.6465
X12.7539Y-5.7465
X12.7539Y-5.8465
X12.7539Y-5.9465
X12.7539Y-6.0465
X12.7539Y-6.1465
X12.7539Y-6.2465
X12.7539Y-6.3465
X12.7539Y-6.4465
X12.7543Y-4.3453
X12.7543Y-4.4453
X12.7543Y-4.5453
X12.7543Y-4.6453
X12.7543Y-4.7453
X12.7543Y-4.8453
X12.7543Y-4.9453
X12.7543Y-5.0453
X12.7559Y-3.8689
X12.7559Y-4.1689
X12.7764Y-5.3008
X12.7984Y-8.726
X12.8228Y-7.5724
X12.8256Y-7.7213
X12.9764Y-5.3008
X12.9984Y-8.726
X13.0043Y-5.5465
X13.0043Y-5.6465
X13.0043Y-5.7465
X13.0043Y-5.8465
X13.0043Y-5.9465
X13.0043Y-6.0465
X13.0043Y-6.1465
X13.0043Y-6.2465
X13.0043Y-6.3465
X13.0043Y-6.4465
X13.0055Y-4.3488
X13.0055Y-4.4488
X13.0055Y-4.5488
X13.0055Y-4.6488
X13.0055Y-4.7488
X13.0055Y-4.8488
X13.0055Y-4.9488
X13.0055Y-5.0488
X13.0228Y-7.5724
X13.0256Y-7.7213
X13.0512Y-7.8697
X13.0512Y-7.9697
X13.0512Y-8.0697
X13.0512Y-8.1697
X13.0512Y-8.2697
X13.0512Y-8.3697
X13.0512Y-8.4697
X13.0512Y-8.5697
X13.0516Y-6.7213
X13.0516Y-6.8213
X13.0516Y-6.9213
X13.0516Y-7.0213
X13.0516Y-7.1213
X13.0516Y-7.2213
X13.0516Y-7.3213
X13.0516Y-7.4213
X13.102Y-3.9732
X13.102Y-4.1732
X13.1986Y-6.7213
X13.1986Y-6.8213
X13.1986Y-6.9213
X13.1986Y-7.0213
X13.1986Y-7.1213
X13.1986Y-7.2213
X13.1986Y-7.3213
X13.1986Y-7.4213
X13.2008Y-7.8709
X13.2008Y-7.9709
X13.2008Y-8.0709
X13.2008Y-8.1709
X13.2008Y-8.2709
X13.2008Y-8.3709
X13.2008Y-8.4709
X13.2008Y-8.5709
X13.2465Y-8.7272
X13.274Y-7.5776
X13.2752Y-7.7224
X13.3043Y-5.5465
X13.3043Y-5.6465
X13.3043Y-5.7465
X13.3043Y-5.8465
X13.3043Y-5.9465
X13.3043Y-6.0465
X13.3043Y-6.1465
X13.3043Y-6.2465
X13.3043Y-6.3465
X13.3043Y-6.4465
X13.3055Y-4.3488
X13.3055Y-4.4488
X13.3055Y-4.5488
X13.3055Y-4.6488
X13.3055Y-4.7488
X13.3055Y-4.8488
X13.3055Y-4.9488
X13.3055Y-5.0488
X13.4465Y-8.7272
X13.474Y-7.5776
X13.4752Y-7.7224
X13.4986Y-6.7213
X13.4986Y-6.8213
X13.4986Y-6.9213
X13.4986Y-7.0213
X13.4986Y-7.1213
X13.4986Y-7.2213
X13.4986Y-7.3213
X13.4986Y-7.4213
X13.5008Y-7.8709
X13.5008Y-7.9709
X13.5008Y-8.0709
X13.5008Y-8.1709
X13.5008Y-8.2709
X13.5008Y-8.3709
X13.5008Y-8.4709
X13.5008Y-8.5709
X13.5063Y-3.7717
X13.5063Y-4.0724
X13.5354Y-2.6709
X13.5354Y-2.7709
X13.5354Y-2.8709
X13.5354Y-2.9709
X13.5354Y-3.0709
X13.5354Y-3.1709
X13.5354Y-3.2709
X13.5354Y-3.3709
X13.5354Y-3.4709
X13.5559Y-4.3488
X13.5559Y-4.4488
X13.5559Y-4.5488
X13.5559Y-4.6488
X13.5559Y-4.7488
X13.5559Y-4.8488
X13.5559Y-4.9488
X13.5559Y-5.0488
X13.5575Y-5.5465
X13.5575Y-5.6465
X13.5575Y-5.7465
X13.5575Y-5.8465
X13.5575Y-5.9465
X13.5575Y-6.0465
X13.5575Y-6.1465
X13.5575Y-6.2465
X13.5575Y-6.3465
X13.5575Y-6.4465
X13.6531Y-6.7205
X13.6531Y-6.8205
X13.6531Y-6.9205
X13.6531Y-7.0205
X13.6531Y-7.1205
X13.6531Y-7.2205
X13.6531Y-7.3205
X13.6531Y-7.4205
X13.6539Y-7.8709
X13.6539Y-7.9709
X13.6539Y-8.0709
X13.6539Y-8.1709
X13.6539Y-8.2709
X13.6539Y-8.3709
X13.6539Y-8.4709
X13.6539Y-8.5709
X13.6992Y-8.7272
X13.7063Y-3.7717
X13.7063Y-4.0724
X13.7236Y-7.5768
X13.726Y-7.722
X13.8354Y-2.6709
X13.8354Y-2.7709
X13.8354Y-2.8709
X13.8354Y-2.9709
X13.8354Y-3.0709
X13.8354Y-3.1709
X13.8354Y-3.2709
X13.8354Y-3.3709
X13.8354Y-3.4709
X13.8531Y-5.3008
X13.8559Y-4.3488
X13.8559Y-4.4488
X13.8559Y-4.5488
X13.8559Y-4.6488
X13.8559Y-4.7488
X13.8559Y-4.8488
X13.8559Y-4.9488
X13.8559Y-5.0488
X13.8575Y-5.5465
X13.8575Y-5.6465
X13.8575Y-5.7465
X13.8575Y-5.8465
X13.8575Y-5.9465
X13.8575Y-6.0465
X13.8575Y-6.1465
X13.8575Y-6.2465
X13.8575Y-6.3465
X13.8575Y-6.4465
X13.8992Y-8.7272
X13.9236Y-7.5768
X13.926Y-7.722
X13.9531Y-6.7205
X13.9531Y-6.8205
X13.9531Y-6.9205
X13.9531Y-7.0205
X13.9531Y-7.1205
X13.9531Y-7.2205
X13.9531Y-7.3205
X13.9531Y-7.4205
X13.9539Y-7.8709
X13.9539Y-7.9709
X13.9539Y-8.0709
X13.9539Y-8.1709
X13.9539Y-8.2709
X13.9539Y-8.3709
X13.9539Y-8.4709
X13.9539Y-8.5709
X14.0378Y-2.6984
X14.0378Y-2.8984
X14.0531Y-5.3008
X14.102Y-7.872
X14.102Y-7.972
X14.102Y-8.072
X14.102Y-8.172
X14.102Y-8.272
X14.102Y-8.372
X14.102Y-8.472
X14.102Y-8.572
X14.1035Y-6.7217
X14.1035Y-6.8217
X14.1035Y-6.9217
X14.1035Y-7.0217
X14.1035Y-7.1217
X14.1035Y-7.2217
X14.1035Y-7.3217
X14.1035Y-7.4217
X14.1047Y-5.5465
X14.1047Y-5.6465
X14.1047Y-5.7465
X14.1047Y-5.8465
X14.1047Y-5.9465
X14.1047Y-6.0465
X14.1047Y-6.1465
X14.1047Y-6.2465
X14.1047Y-6.3465
X14.1047Y-6.4465
X14.1059Y-4.3488
X14.1059Y-4.4488
X14.1059Y-4.5488
X14.1059Y-4.6488
X14.1059Y-4.7488
X14.1059Y-4.8488
X14.1059Y-4.9488
X14.1059Y-5.0488
X14.1067Y-3.9496
X14.1122Y-3.4976
X14.113Y-3.1748
X14.15Y-8.7283
X14.1776Y-7.578
X14.1831Y-7.7236
X14.3067Y-3.9496
X14.3122Y-3.4976
X14.313Y-3.1748
X14.35Y-8.7283
X14.3776Y-7.578
X14.3831Y-7.7236
X14.402Y-7.872
X14.402Y-7.972
X14.402Y-8.072
X14.402Y-8.172
X14.402Y-8.272
X14.402Y-8.372
X14.402Y-8.472
X14.402Y-8.572
X14.4035Y-6.7217
X14.4035Y-6.8217
X14.4035Y-6.9217
X14.4035Y-7.0217
X14.4035Y-7.1217
X14.4035Y-7.2217
X14.4035Y-7.3217
X14.4035Y-7.4217
X14.4047Y-5.5465
X14.4047Y-5.6465
X14.4047Y-5.7465
X14.4047Y-5.8465
X14.4047Y-5.9465
X14.4047Y-6.0465
X14.4047Y-6.1465
X14.4047Y-6.2465
X14.4047Y-6.3465
X14.4047Y-6.4465
X14.4059Y-4.3488
X14.4059Y-4.4488
X14.4059Y-4.5488
X14.4059Y-4.6488
X14.4059Y-4.7488
X14.4059Y-4.8488
X14.4059Y-4.9488
X14.4059Y-5.0488
T5
X1.7386Y-5.2024
X1.763Y-5.9323
X1.8386Y-5.2024
X1.863Y-5.9323
X1.9138Y-4.8037
X1.9138Y-4.9037
X1.9138Y-5.0037
X1.9386Y-5.2024
X1.963Y-5.9323
X2.0392Y-4.1079
X2.1392Y-4.1079
X2.2392Y-4.1079
X2.8394Y-2.5514
X2.8394Y-2.6514
X2.8394Y-2.7514
X2.8618Y-6.7024
X2.9618Y-6.7024
X3.0618Y-6.7024
X3.1618Y-6.7024
X3.2618Y-6.7024
X3.3618Y-6.7024
X3.3917Y-1.6585
X3.3917Y-1.7585
X3.4618Y-6.7024
X3.5618Y-6.7024
X3.6618Y-6.7024
X3.6673Y-2.5522
X3.6673Y-2.6522
X3.6673Y-2.7522
X3.7102Y-8.2033
X3.7102Y-8.3033
X3.7102Y-8.4033
X3.7618Y-6.7024
X3.8618Y-6.7024
X3.9618Y-6.7024
X4.0618Y-6.7024
X4.1618Y-6.7024
X4.2618Y-6.7024
X4.313Y-8.3547
X4.313Y-8.4547
X4.313Y-8.5547
X4.3185Y-5.5764
X4.3185Y-5.6764
X4.3185Y-5.7764
X4.5941Y-2.6033
X4.5941Y-2.7033
X4.5941Y-2.8033
X5.5134Y-8.2557
X5.5134Y-8.3557
X5.5134Y-8.4557
X8.4067Y-1.8898
X8.4067Y-1.9862
X8.7118Y-1.889
X8.7118Y-1.9866
X8.9252Y-6.5118
X8.9252Y-6.6118
X8.9252Y-6.7118
X9.5961Y-6.5642
X9.5961Y-6.6642
X9.5961Y-6.7642
X10.5758Y-7.3445
X10.5758Y-7.5197
X10.6758Y-7.3445
X10.6758Y-7.5197
X10.7758Y-7.3445
X10.7758Y-7.5197
X10.8213Y-8.4687
X10.8213Y-8.5687
X10.8213Y-8.6687
X10.949Y-6.5449
X11.049Y-6.5449
X11.1248Y-5.3437
X11.1248Y-5.4437
X11.1248Y-5.5437
X11.1248Y-5.6437
X11.1248Y-5.7437
X11.1248Y-5.8437
X11.1248Y-5.9437
X11.1248Y-6.0437
X11.1248Y-6.1437
X11.149Y-6.5449
X11.2248Y-5.3437
X11.2248Y-5.4437
X11.2248Y-5.5437
X11.2248Y-5.6437
X11.2248Y-5.7437
X11.2248Y-5.8437
X11.2248Y-5.9437
X11.2248Y-6.0437
X11.2248Y-6.1437
X11.226Y-4.7445
X11.226Y-4.8445
X11.226Y-4.9445
X11.3248Y-5.3437
X11.3248Y-5.4437
X11.3248Y-5.5437
X11.3248Y-5.6437
X11.3248Y-5.7437
X11.3248Y-5.8437
X11.3248Y-5.9437
X11.3248Y-6.0437
X11.3248Y-6.1437
X11.326Y-4.7445
X11.326Y-4.8445
X11.326Y-4.9445
X12.0594Y-1.5701
X12.0594Y-1.6701
X12.0848Y-1.4193
X12.1839Y-1.5701
X12.1848Y-1.4193
X12.2848Y-1.4193
X13.0569Y-3.8724
X13.1569Y-3.8724
T6
X5.2441Y-2.0071
X5.2441Y-2.1071
X5.2453Y-1.5059
X5.2453Y-1.6059
X5.3441Y-2.0071
X5.3441Y-2.1071
X5.3453Y-1.5059
X5.3453Y-1.6059
X5.4441Y-2.0071
X5.4441Y-2.1071
X5.4453Y-1.5059
X5.4453Y-1.6059
X5.5441Y-2.0071
X5.5441Y-2.1071
X5.5453Y-1.5059
X5.5453Y-1.6059
X5.6441Y-2.0071
X5.6441Y-2.1071
X5.6453Y-1.5059
X5.6453Y-1.6059
X5.7441Y-2.0071
X5.7441Y-2.1071
X5.7453Y-1.5059
X5.7453Y-1.6059
X5.8441Y-2.0071
X5.8441Y-2.1071
X5.8453Y-1.5059
X5.8453Y-1.6059
X5.9441Y-2.0071
X5.9441Y-2.1071
X5.9453Y-1.5059
X5.9453Y-1.6059
X6.0441Y-2.0071
X6.0441Y-2.1071
X6.0453Y-1.5059
X6.0453Y-1.6059
X6.1441Y-2.0071
X6.1441Y-2.1071
X6.1453Y-1.5059
X6.1453Y-1.6059
X6.2441Y-2.0071
X6.2441Y-2.1071
X6.2453Y-1.5059
X6.2453Y-1.6059
X6.3441Y-2.0071
X6.3441Y-2.1071
X6.3453Y-1.5059
X6.3453Y-1.6059
X6.4441Y-2.0071
X6.4441Y-2.1071
X6.4453Y-1.5059
X6.4453Y-1.6059
X6.5441Y-2.0071
X6.5441Y-2.1071
X6.5453Y-1.5059
X6.5453Y-1.6059
X6.6441Y-2.0071
X6.6441Y-2.1071
X6.6453Y-1.5059
X6.6453Y-1.6059
X6.7441Y-2.0071
X6.7441Y-2.1071
X6.7453Y-1.5059
X6.7453Y-1.6059
X6.8441Y-2.0071
X6.8441Y-2.1071
X6.8453Y-1.5059
X6.8453Y-1.6059
X6.9441Y-2.0071
X6.9441Y-2.1071
X6.9453Y-1.5059
X6.9453Y-1.6059
X7.0441Y-2.0071
X7.0441Y-2.1071
X7.0453Y-1.5059
X7.0453Y-1.6059
X7.1441Y-2.0071
X7.1441Y-2.1071
X7.1453Y-1.5059
X7.1453Y-1.6059
X14.2332Y-2.6993
X14.4332Y-2.6993
X14.4332Y-2.8993
T7
X8.4067Y-1.4866
X8.7118Y-1.4866
X12.1804Y-1.9278
X12.1804Y-2.2719
X12.2024Y-3.3701
X12.302Y-2.9685
X12.4024Y-3.3701
T8
X12.7555Y-3.7472
X13.0067Y-2.6984
X13.2551Y-3.7472
T9
X3.7232Y-1.8039
X3.8217Y-1.9024
X4.0185Y-1.8039
X4.0185Y-2.0008
X4.2154Y-1.9024
X4.3138Y-1.8039
X8.9098Y-1.913
X9.0083Y-1.8146
X9.1067Y-1.913
X9.2051Y-1.8146
X9.3035Y-1.913
X9.402Y-1.8146
X9.5004Y-1.913
X9.7079Y-1.8146
X9.8063Y-1.913
X10.0031Y-1.8146
X10.2Y-1.913
X10.2984Y-1.8146
X10.5094Y-1.8146
X10.6079Y-1.913
X10.8047Y-1.8146
X10.8047Y-2.0114
X11.0016Y-1.913
X11.1Y-1.8146
X11.3098Y-1.8146
X11.4083Y-1.913
X11.6051Y-1.8146
X11.6051Y-2.0114
X11.802Y-1.913
X11.9004Y-1.8146
T10
X3.8217Y-1.4102
X3.9201Y-1.4102
X4.1169Y-1.4102
X4.2154Y-1.4102
X9.0083Y-1.4209
X9.1067Y-1.4209
X9.3035Y-1.4209
X9.402Y-1.4209
X9.8063Y-1.4209
X9.9047Y-1.4209
X10.1016Y-1.4209
X10.2Y-1.4209
X10.6079Y-1.4209
X10.7063Y-1.4209
X10.9031Y-1.4209
X11.0016Y-1.4209
X11.4083Y-1.4209
X11.5067Y-1.4209
X11.7035Y-1.4209
X11.802Y-1.4209
T11
X12.5308Y-1.9278
X14.0308Y-1.9278
T12
X5.013Y-1.5331
X7.3843Y-1.5366
T13
X1.7528Y-8.5579
X1.7598Y-4.2031
X1.7646Y-2.1039
X4.4724Y-2.1059
X8.176Y-1.5638
X9.1232Y-5.8622
X14.5783Y-8.5791
X14.5913Y-2.1252
M30
